<svg width="857" height="344" viewBox="0 0 857 344" fill="none" xmlns="http://www.w3.org/2000/svg">
<g clip-path="url(#clip0_290_137)">
<path d="M212.592 166.633C216.774 171.893 221.008 177.218 225.294 182.592C224.163 181.094 223.034 179.599 221.911 178.112L221.985 178.056C221.911 178.112 221.911 178.112 221.91 178.111L221.908 178.108L221.9 178.097L221.865 178.051L221.725 177.866C221.602 177.704 221.418 177.461 221.177 177.143C220.694 176.507 219.981 175.568 219.059 174.36C217.216 171.943 214.539 168.446 211.207 164.127C204.542 155.49 195.257 143.567 184.771 130.425C163.789 104.126 138.045 72.9979 118.893 53.533L118.886 53.5263L118.88 53.5196C99.7397 33.5242 82.5207 19.6809 67.483 11.4823C52.4342 3.27763 39.7148 0.801801 29.476 3.27327C19.0448 5.85621 12.2443 13.6229 7.92534 24.133C3.597 34.6658 1.83824 47.7933 1.44676 60.7C1.05586 73.5873 2.03025 86.1521 3.10508 95.5045C3.64219 100.178 4.20365 104.043 4.63041 106.738C4.84379 108.085 5.02341 109.139 5.14942 109.855C5.21244 110.213 5.26203 110.486 5.29572 110.669C5.31257 110.761 5.32545 110.83 5.33402 110.876L5.34364 110.927L5.34599 110.939L5.3465 110.942C5.3465 110.942 5.34657 110.942 5.22782 110.965L5.34657 110.942C12.0241 145.78 32.4932 193.558 50.7431 217.004L50.742 217.005C50.7431 217.004 50.7432 217.004 50.7432 217.004L50.7451 217.006L50.7533 217.017L50.7876 217.061L50.8203 217.102C50.8483 217.138 50.884 217.183 50.9271 217.238C51.0512 217.395 51.2375 217.63 51.4843 217.937C51.9778 218.553 52.7131 219.461 53.6766 220.625C55.6037 222.953 58.4431 226.308 62.086 230.402C69.3726 238.592 79.869 249.738 92.7038 261.558C95.7655 264.378 98.9585 267.234 102.271 270.096C100.151 268.212 98.0884 266.336 96.0867 264.479C83.6357 252.928 73.507 242.06 66.4898 234.078C62.9807 230.086 60.2486 226.815 58.392 224.54C57.4636 223.402 56.7541 222.513 56.2757 221.907C56.0366 221.605 55.8552 221.373 55.7331 221.216C55.672 221.137 55.6258 221.077 55.5946 221.037L55.5591 220.991L55.5499 220.979L55.5474 220.976C55.5471 220.975 55.5469 220.975 55.624 220.916L55.5467 220.975C46.3037 208.928 36.6772 190.753 28.595 171.219C20.5087 151.675 13.9279 130.673 10.8186 112.935L12.1026 112.71C10.8186 112.935 10.8185 112.934 10.8183 112.933L10.8177 112.93L10.8153 112.916L10.8063 112.864C10.7986 112.818 10.7872 112.751 10.7726 112.664C10.7432 112.488 10.7008 112.229 10.6474 111.892C10.5408 111.218 10.3909 110.232 10.2165 108.977C9.8679 106.466 9.4214 102.879 9.02827 98.5612C8.2426 89.9314 7.66734 78.3523 8.52251 66.6043C9.37599 54.8791 11.662 42.8626 16.6809 33.4358C21.7296 23.953 29.5898 17.0294 41.4803 15.7799C53.0205 14.543 66.7765 18.7896 82.4236 28.4669C98.091 38.1566 115.796 53.378 135.291 74.3392C158.538 98.6487 184.378 131.148 212.561 166.594L212.58 166.617L212.58 166.618L212.591 166.632L212.592 166.633Z" fill="#EAFE01" stroke="#1573FF" stroke-width="2.71729"/>
<mask id="path-2-inside-1_290_137" fill="white">
<path d="M428.007 323.526C353.041 301.86 287.709 217.838 287.709 217.838C269.338 194.193 248.831 146.207 242.133 111.198C242.133 111.198 223.324 12.8417 267.226 1.95399C288.583 -3.21491 319.453 12.4752 357.773 52.5801C396.118 91.6218 460.722 177.293 460.722 177.293C478.85 201.342 498.533 227.516 504.454 235.471L509.842 242.253C488.593 217.017 468.383 191.553 449.276 167.479L449.275 167.478C421.115 131.997 395.351 99.5361 372.189 75.2718C333.359 33.444 301.858 14.7482 279.676 17.131C234.391 21.8966 250.263 112.701 250.263 112.701C256.427 147.93 276.4 196.319 294.65 220.148C294.65 220.148 356.803 301.384 430.701 323.123C490.373 341.928 555.991 342.342 618.309 342.736L618.313 342.736C632.077 342.822 645.681 342.908 659.023 343.191L656.257 343.17C642.948 342.899 629.379 342.824 615.645 342.747C553.502 342.401 487.996 342.036 428.007 323.526Z"/>
</mask>
<path d="M428.007 323.526C353.041 301.86 287.709 217.838 287.709 217.838C269.338 194.193 248.831 146.207 242.133 111.198C242.133 111.198 223.324 12.8417 267.226 1.95399C288.583 -3.21491 319.453 12.4752 357.773 52.5801C396.118 91.6218 460.722 177.293 460.722 177.293C478.85 201.342 498.533 227.516 504.454 235.471L509.842 242.253C488.593 217.017 468.383 191.553 449.276 167.479L449.275 167.478C421.115 131.997 395.351 99.5361 372.189 75.2718C333.359 33.444 301.858 14.7482 279.676 17.131C234.391 21.8966 250.263 112.701 250.263 112.701C256.427 147.93 276.4 196.319 294.65 220.148C294.65 220.148 356.803 301.384 430.701 323.123C490.373 341.928 555.991 342.342 618.309 342.736L618.313 342.736C632.077 342.822 645.681 342.908 659.023 343.191L656.257 343.17C642.948 342.899 629.379 342.824 615.645 342.747C553.502 342.401 487.996 342.036 428.007 323.526Z" fill="#EAFE01"/>
<path d="M428.007 323.526L428.762 320.915L428.785 320.922L428.809 320.929L428.007 323.526ZM287.709 217.838L285.564 219.506L285.563 219.506L287.709 217.838ZM242.133 111.198L239.464 111.709L239.464 111.708L242.133 111.198ZM267.226 1.95399L266.572 -0.683407L266.58 -0.685249L266.587 -0.687049L267.226 1.95399ZM357.773 52.5801L355.835 54.4841L355.821 54.4708L355.809 54.4573L357.773 52.5801ZM460.722 177.293L462.891 175.657L462.891 175.658L460.722 177.293ZM504.454 235.471L502.326 237.161L502.3 237.128L502.274 237.094L504.454 235.471ZM509.842 242.253L511.969 240.563L507.763 244.004L509.842 242.253ZM372.189 75.2718L370.224 77.1481L370.21 77.1344L370.198 77.1205L372.189 75.2718ZM279.676 17.131L279.967 19.8327L279.961 19.8334L279.676 17.131ZM250.263 112.701L247.586 113.169L247.586 113.169L250.263 112.701ZM294.65 220.148L296.808 218.495L296.808 218.497L294.65 220.148ZM430.701 323.123L431.468 320.516L431.493 320.523L431.518 320.531L430.701 323.123ZM659.023 343.191L659.081 340.474L659.002 345.908L659.023 343.191ZM618.313 342.736L618.313 340.018L618.321 340.018L618.33 340.018L618.313 342.736ZM449.276 167.479L451.356 165.731L451.381 165.76L451.404 165.79L449.276 167.479ZM615.645 342.747L615.63 345.464L615.63 345.464L615.645 342.747ZM656.257 343.17L656.236 345.887L656.219 345.887L656.202 345.886L656.257 343.17ZM449.275 167.478L447.195 169.226L447.17 169.197L447.147 169.167L449.275 167.478ZM618.309 342.736L618.309 345.453L618.3 345.453L618.291 345.453L618.309 342.736ZM427.253 326.136C389.159 315.127 353.708 288.362 327.903 264.555C314.971 252.624 304.398 241.376 297.057 233.11C293.385 228.975 290.519 225.584 288.568 223.222C287.592 222.04 286.845 221.116 286.34 220.485C286.087 220.17 285.895 219.927 285.765 219.763C285.7 219.681 285.651 219.618 285.617 219.575C285.601 219.553 285.588 219.537 285.579 219.525C285.574 219.52 285.571 219.515 285.568 219.512C285.567 219.51 285.566 219.509 285.565 219.508C285.565 219.507 285.564 219.506 287.709 217.838C289.854 216.17 289.854 216.17 289.854 216.171C289.855 216.171 289.855 216.172 289.856 216.173C289.857 216.174 289.86 216.178 289.863 216.182C289.87 216.191 289.881 216.205 289.896 216.224C289.926 216.262 289.971 216.32 290.032 216.397C290.154 216.552 290.338 216.784 290.583 217.089C291.071 217.7 291.801 218.602 292.758 219.761C294.672 222.078 297.496 225.42 301.12 229.501C308.371 237.665 318.817 248.778 331.588 260.56C357.191 284.181 391.889 310.259 428.762 320.915L427.253 326.136ZM285.563 219.506C266.883 195.463 246.227 147.059 239.464 111.709L244.801 110.687C251.434 145.355 271.792 192.924 289.855 216.171L285.563 219.506ZM242.133 111.198C239.464 111.708 239.463 111.707 239.463 111.706C239.463 111.705 239.463 111.703 239.462 111.701C239.462 111.698 239.461 111.692 239.459 111.686C239.457 111.672 239.453 111.653 239.448 111.627C239.439 111.577 239.425 111.503 239.407 111.406C239.372 111.213 239.32 110.93 239.256 110.561C239.126 109.824 238.943 108.746 238.726 107.375C238.292 104.632 237.724 100.709 237.18 95.9693C236.094 86.5012 235.102 73.7267 235.5 60.5766C235.897 47.4654 237.68 33.7752 242.27 22.5853C246.878 11.3521 254.469 2.31813 266.572 -0.683407L267.88 4.5914C258.032 7.0337 251.511 14.3772 247.298 24.6478C243.067 34.9619 241.321 47.9023 240.932 60.7411C240.545 73.5409 241.511 86.0359 242.579 95.3499C243.113 100.002 243.671 103.848 244.094 106.526C244.306 107.865 244.484 108.912 244.608 109.62C244.671 109.975 244.719 110.245 244.752 110.424C244.769 110.514 244.782 110.582 244.79 110.626C244.794 110.648 244.797 110.664 244.799 110.674C244.8 110.679 244.801 110.683 244.801 110.685C244.801 110.686 244.801 110.687 244.801 110.688C244.801 110.688 244.801 110.688 242.133 111.198ZM266.587 -0.687049C278.183 -3.4935 291.958 -0.551841 307.441 7.90461C322.951 16.3763 340.469 30.5364 359.738 50.7029L355.809 54.4573C336.757 34.519 319.679 20.7815 304.836 12.6741C289.964 4.55155 277.627 2.23258 267.866 4.59504L266.587 -0.687049ZM359.712 50.676C378.994 70.3088 404.81 101.588 425.752 127.885C436.236 141.048 445.519 152.989 452.181 161.639C455.512 165.964 458.189 169.467 460.033 171.89C460.955 173.101 461.669 174.042 462.153 174.681C462.395 175 462.579 175.244 462.703 175.408C462.765 175.49 462.812 175.552 462.843 175.594C462.859 175.615 462.871 175.63 462.879 175.641C462.883 175.646 462.886 175.65 462.888 175.653C462.889 175.654 462.89 175.655 462.89 175.656C462.891 175.657 462.891 175.657 460.722 177.293C458.552 178.929 458.552 178.929 458.551 178.929C458.551 178.928 458.55 178.927 458.549 178.926C458.547 178.923 458.545 178.919 458.541 178.914C458.533 178.904 458.521 178.889 458.506 178.868C458.475 178.827 458.429 178.766 458.367 178.685C458.245 178.522 458.061 178.28 457.821 177.962C457.339 177.327 456.628 176.389 455.709 175.182C453.87 172.767 451.2 169.272 447.875 164.955C441.226 156.322 431.962 144.405 421.501 131.27C400.556 104.97 374.897 73.8931 355.835 54.4841L359.712 50.676ZM462.891 175.658C481.019 199.704 500.706 225.886 506.634 233.849L502.274 237.094C496.359 229.147 476.682 202.979 458.552 178.929L462.891 175.658ZM506.582 233.781L511.969 240.563L507.714 243.944L502.326 237.161L506.582 233.781ZM370.198 77.1205C350.878 56.3089 333.481 41.3639 318.258 31.9323C302.993 22.474 290.196 18.7338 279.967 19.8327L279.386 14.4292C291.338 13.1453 305.383 17.5616 321.121 27.3125C336.901 37.09 354.671 52.4069 374.181 73.4231L370.198 77.1205ZM279.961 19.8334C269.74 20.9089 262.937 26.7657 258.375 35.3495C253.754 44.0453 251.533 55.4049 250.697 66.8998C249.866 78.3492 250.424 89.6896 251.196 98.1921C251.582 102.437 252.02 105.96 252.361 108.416C252.531 109.644 252.677 110.605 252.779 111.256C252.831 111.581 252.871 111.829 252.899 111.993C252.912 112.076 252.923 112.137 252.93 112.177C252.933 112.197 252.936 112.212 252.937 112.221C252.938 112.226 252.939 112.229 252.939 112.231C252.939 112.232 252.939 112.233 252.939 112.233C252.939 112.233 252.939 112.233 250.263 112.701C247.586 113.169 247.586 113.168 247.585 113.166C247.585 113.165 247.585 113.164 247.585 113.162C247.584 113.158 247.583 113.153 247.582 113.147C247.58 113.134 247.577 113.116 247.573 113.092C247.565 113.045 247.553 112.976 247.538 112.887C247.508 112.707 247.465 112.444 247.411 112.103C247.304 111.422 247.153 110.427 246.977 109.163C246.627 106.635 246.179 103.026 245.784 98.684C244.996 90.0118 244.416 78.3534 245.277 66.506C246.135 54.7043 248.437 42.4693 253.576 32.799C258.775 23.0167 266.97 15.7359 279.392 14.4286L279.961 19.8334ZM252.939 112.232C255.978 129.601 262.444 150.311 270.436 169.662C278.436 189.033 287.885 206.846 296.808 218.495L292.493 221.8C283.165 209.621 273.503 191.325 265.413 171.737C257.314 152.129 250.711 131.029 247.586 113.169L252.939 112.232ZM294.65 220.148C296.808 218.497 296.808 218.496 296.808 218.497C296.809 218.497 296.809 218.498 296.81 218.498C296.811 218.5 296.814 218.503 296.817 218.508C296.823 218.516 296.834 218.53 296.848 218.548C296.876 218.585 296.919 218.64 296.977 218.715C297.093 218.864 297.268 219.088 297.5 219.383C297.965 219.973 298.66 220.845 299.572 221.965C301.397 224.205 304.092 227.438 307.559 231.388C314.494 239.291 324.508 250.056 336.814 261.493C361.481 284.418 395.121 309.824 431.468 320.516L429.934 325.729C392.382 314.683 357.998 288.601 333.114 265.474C320.644 253.884 310.502 242.981 303.474 234.973C299.959 230.968 297.221 227.684 295.358 225.397C294.427 224.253 293.714 223.359 293.232 222.748C292.992 222.442 292.808 222.207 292.685 222.048C292.623 221.968 292.575 221.907 292.543 221.865C292.527 221.845 292.515 221.829 292.506 221.817C292.502 221.812 292.499 221.808 292.496 221.804C292.495 221.803 292.494 221.802 292.494 221.801C292.493 221.8 292.492 221.799 294.65 220.148ZM658.966 345.908C645.647 345.625 632.064 345.54 618.295 345.453L618.33 340.018C632.09 340.105 645.714 340.191 659.081 340.474L658.966 345.908ZM451.404 165.79C470.515 189.868 490.701 215.302 511.92 240.503L507.763 244.004C486.485 218.732 466.251 193.238 447.147 169.168L451.404 165.79ZM428.809 320.929C488.347 339.301 553.438 339.683 615.661 340.03L615.63 345.464C553.565 345.119 487.646 344.772 427.206 326.122L428.809 320.929ZM615.661 340.03C629.39 340.106 642.979 340.182 656.312 340.453L656.202 345.886C642.916 345.616 629.367 345.541 615.63 345.464L615.661 340.03ZM447.196 169.227L447.195 169.226L451.355 165.73L451.356 165.731L447.196 169.227ZM447.147 169.167C418.96 133.653 393.281 101.303 370.224 77.1481L374.155 73.3955C397.421 97.7692 423.27 130.341 451.403 165.789L447.147 169.167ZM431.518 320.531C490.731 339.192 555.926 339.625 618.326 340.018L618.291 345.453C556.056 345.06 490.015 344.664 429.884 325.714L431.518 320.531ZM618.309 340.018L618.313 340.018L618.313 345.453L618.309 345.453L618.309 340.018ZM659.002 345.908L656.236 345.887L656.278 340.452L659.044 340.474L659.002 345.908Z" fill="#1573FF" mask="url(#path-2-inside-1_290_137)"/>
<mask id="path-4-inside-2_290_137" fill="white">
<path d="M667.016 323.526C741.983 301.86 807.314 217.838 807.314 217.838C825.686 194.193 846.193 146.207 852.891 111.198C852.891 111.198 871.699 12.8417 827.797 1.95399C806.44 -3.21491 775.571 12.4752 737.25 52.5801C698.905 91.6218 634.302 177.293 634.302 177.293C616.173 201.342 596.491 227.516 590.569 235.471L585.182 242.253C606.431 217.017 626.641 191.553 645.748 167.479L645.748 167.478C673.908 131.997 699.672 99.5361 722.834 75.2718C761.664 33.444 793.165 14.7482 815.347 17.131C860.633 21.8966 844.761 112.701 844.761 112.701C838.597 147.93 818.623 196.319 800.373 220.148C800.373 220.148 738.221 301.384 664.322 323.123C604.651 341.928 539.032 342.342 476.715 342.736L476.711 342.736C462.946 342.822 449.343 342.908 436 343.191L438.767 343.17C452.076 342.899 465.645 342.824 479.378 342.747C541.522 342.401 607.027 342.036 667.016 323.526Z"/>
</mask>
<path d="M667.016 323.526C741.983 301.86 807.314 217.838 807.314 217.838C825.686 194.193 846.193 146.207 852.891 111.198C852.891 111.198 871.699 12.8417 827.797 1.95399C806.44 -3.21491 775.571 12.4752 737.25 52.5801C698.905 91.6218 634.302 177.293 634.302 177.293C616.173 201.342 596.491 227.516 590.569 235.471L585.182 242.253C606.431 217.017 626.641 191.553 645.748 167.479L645.748 167.478C673.908 131.997 699.672 99.5361 722.834 75.2718C761.664 33.444 793.165 14.7482 815.347 17.131C860.633 21.8966 844.761 112.701 844.761 112.701C838.597 147.93 818.623 196.319 800.373 220.148C800.373 220.148 738.221 301.384 664.322 323.123C604.651 341.928 539.032 342.342 476.715 342.736L476.711 342.736C462.946 342.822 449.343 342.908 436 343.191L438.767 343.17C452.076 342.899 465.645 342.824 479.378 342.747C541.522 342.401 607.027 342.036 667.016 323.526Z" fill="#EAFE01"/>
<path d="M667.016 323.526L666.262 320.915L666.238 320.922L666.215 320.929L667.016 323.526ZM807.314 217.838L809.459 219.506L809.46 219.506L807.314 217.838ZM852.891 111.198L855.56 111.709L855.56 111.708L852.891 111.198ZM827.797 1.95399L828.451 -0.683407L828.444 -0.685249L828.436 -0.687049L827.797 1.95399ZM737.25 52.5801L739.189 54.4841L739.202 54.4708L739.215 54.4573L737.25 52.5801ZM634.302 177.293L632.132 175.657L632.132 175.658L634.302 177.293ZM590.569 235.471L592.697 237.161L592.724 237.128L592.749 237.094L590.569 235.471ZM585.182 242.253L583.054 240.563L587.26 244.004L585.182 242.253ZM722.834 75.2718L724.8 77.1481L724.813 77.1344L724.826 77.1205L722.834 75.2718ZM815.347 17.131L815.057 19.8327L815.063 19.8334L815.347 17.131ZM844.761 112.701L847.438 113.169L847.438 113.169L844.761 112.701ZM800.373 220.148L798.216 218.495L798.215 218.497L800.373 220.148ZM664.322 323.123L663.555 320.516L663.53 320.523L663.506 320.531L664.322 323.123ZM436 343.191L435.942 340.474L436.021 345.908L436 343.191ZM476.711 342.736L476.711 340.018L476.702 340.018L476.694 340.018L476.711 342.736ZM645.748 167.479L643.667 165.731L643.643 165.76L643.619 165.79L645.748 167.479ZM479.378 342.747L479.393 345.464L479.393 345.464L479.378 342.747ZM438.767 343.17L438.788 345.887L438.805 345.887L438.822 345.886L438.767 343.17ZM645.748 167.478L647.829 169.226L647.853 169.197L647.877 169.167L645.748 167.478ZM476.715 342.736L476.715 345.453L476.723 345.453L476.732 345.453L476.715 342.736ZM667.771 326.136C705.864 315.127 741.315 288.362 767.12 264.555C780.052 252.624 790.625 241.376 797.967 233.11C801.638 228.975 804.504 225.584 806.456 223.222C807.431 222.04 808.179 221.116 808.684 220.485C808.936 220.17 809.128 219.927 809.258 219.763C809.323 219.681 809.373 219.618 809.406 219.575C809.423 219.553 809.436 219.537 809.445 219.525C809.449 219.52 809.453 219.515 809.455 219.512C809.456 219.51 809.457 219.509 809.458 219.508C809.459 219.507 809.459 219.506 807.314 217.838C805.169 216.17 805.169 216.17 805.169 216.171C805.169 216.171 805.168 216.172 805.168 216.173C805.166 216.174 805.164 216.178 805.16 216.182C805.153 216.191 805.142 216.205 805.127 216.224C805.097 216.262 805.052 216.32 804.991 216.397C804.869 216.552 804.685 216.784 804.441 217.089C803.952 217.7 803.223 218.602 802.266 219.761C800.351 222.078 797.528 225.42 793.903 229.501C786.652 237.665 776.206 248.778 763.435 260.56C737.833 284.181 703.134 310.259 666.262 320.915L667.771 326.136ZM809.46 219.506C828.141 195.463 848.796 147.059 855.56 111.709L850.222 110.687C843.589 145.355 823.231 192.924 805.169 216.171L809.46 219.506ZM852.891 111.198C855.56 111.708 855.56 111.707 855.56 111.706C855.56 111.705 855.561 111.703 855.561 111.701C855.562 111.698 855.563 111.692 855.564 111.686C855.567 111.672 855.57 111.653 855.575 111.627C855.585 111.577 855.598 111.503 855.616 111.406C855.652 111.213 855.703 110.93 855.768 110.561C855.897 109.824 856.08 108.746 856.297 107.375C856.731 104.632 857.3 100.709 857.843 95.9693C858.93 86.5012 859.922 73.7267 859.523 60.5766C859.126 47.4654 857.343 33.7752 852.753 22.5853C848.145 11.3521 840.554 2.31813 828.451 -0.683407L827.143 4.5914C836.991 7.0337 843.512 14.3772 847.725 24.6478C851.956 34.9619 853.703 47.9023 854.091 60.7411C854.479 73.5409 853.513 86.0359 852.444 95.3499C851.911 100.002 851.353 103.848 850.929 106.526C850.718 107.865 850.54 108.912 850.415 109.62C850.353 109.975 850.304 110.245 850.271 110.424C850.254 110.514 850.242 110.582 850.234 110.626C850.23 110.648 850.226 110.664 850.224 110.674C850.224 110.679 850.223 110.683 850.222 110.685C850.222 110.686 850.222 110.687 850.222 110.688C850.222 110.688 850.222 110.688 852.891 111.198ZM828.436 -0.687049C816.841 -3.4935 803.065 -0.551841 787.583 7.90461C772.072 16.3763 754.555 30.5364 735.286 50.7029L739.215 54.4573C758.266 34.519 775.344 20.7815 790.188 12.6741C805.059 4.55155 817.397 2.23258 827.158 4.59504L828.436 -0.687049ZM735.312 50.676C716.029 70.3088 690.214 101.588 669.271 127.885C658.788 141.048 649.505 152.989 642.842 161.639C639.511 165.964 636.835 169.467 634.991 171.89C634.068 173.101 633.354 174.042 632.871 174.681C632.629 175 632.444 175.244 632.32 175.408C632.258 175.49 632.212 175.552 632.18 175.594C632.164 175.615 632.152 175.63 632.144 175.641C632.14 175.646 632.137 175.65 632.135 175.653C632.134 175.654 632.134 175.655 632.133 175.656C632.132 175.657 632.132 175.657 634.302 177.293C636.471 178.929 636.472 178.929 636.472 178.929C636.472 178.928 636.473 178.927 636.474 178.926C636.476 178.923 636.479 178.919 636.483 178.914C636.49 178.904 636.502 178.889 636.517 178.868C636.548 178.827 636.595 178.766 636.656 178.685C636.779 178.522 636.962 178.28 637.203 177.962C637.684 177.327 638.395 176.389 639.315 175.182C641.153 172.767 643.824 169.272 647.148 164.955C653.797 156.322 663.062 144.405 673.522 131.27C694.468 104.97 720.126 73.8931 739.189 54.4841L735.312 50.676ZM632.132 175.658C614.005 199.704 594.317 225.886 588.39 233.849L592.749 237.094C598.665 229.147 618.341 202.979 636.472 178.929L632.132 175.658ZM588.442 233.781L583.054 240.563L587.309 243.944L592.697 237.161L588.442 233.781ZM724.826 77.1205C744.146 56.3089 761.542 41.3639 776.765 31.9323C792.031 22.474 804.827 18.7338 815.057 19.8327L815.637 14.4292C803.685 13.1453 789.641 17.5616 773.903 27.3125C758.122 37.09 740.353 52.4069 720.843 73.4231L724.826 77.1205ZM815.063 19.8334C825.283 20.9089 832.087 26.7657 836.648 35.3495C841.27 44.0453 843.491 55.4049 844.326 66.8998C845.158 78.3492 844.6 89.6896 843.827 98.1921C843.441 102.437 843.004 105.96 842.663 108.416C842.493 109.644 842.347 110.605 842.244 111.256C842.193 111.581 842.152 111.829 842.125 111.993C842.111 112.076 842.101 112.137 842.094 112.177C842.09 112.197 842.088 112.212 842.086 112.221C842.085 112.226 842.085 112.229 842.084 112.231C842.084 112.232 842.084 112.233 842.084 112.233C842.084 112.233 842.084 112.233 844.761 112.701C847.438 113.169 847.438 113.168 847.438 113.166C847.438 113.165 847.438 113.164 847.439 113.162C847.439 113.158 847.44 113.153 847.441 113.147C847.444 113.134 847.447 113.116 847.451 113.092C847.459 113.045 847.47 112.976 847.485 112.887C847.515 112.707 847.558 112.444 847.612 112.103C847.72 111.422 847.871 110.427 848.046 109.163C848.396 106.635 848.845 103.026 849.239 98.684C850.028 90.0118 850.607 78.3534 849.746 66.506C848.889 54.7043 846.587 42.4693 841.447 32.799C836.249 23.0167 828.054 15.7359 815.632 14.4286L815.063 19.8334ZM842.084 112.232C839.045 129.601 832.58 150.311 824.588 169.662C816.588 189.033 807.138 206.846 798.216 218.495L802.53 221.8C811.858 209.621 821.521 191.325 829.611 171.737C837.709 152.129 844.312 131.029 847.438 113.169L842.084 112.232ZM800.373 220.148C798.215 218.497 798.215 218.496 798.215 218.497C798.215 218.497 798.214 218.498 798.214 218.498C798.212 218.5 798.21 218.503 798.207 218.508C798.2 218.516 798.19 218.53 798.176 218.548C798.147 218.585 798.104 218.64 798.046 218.715C797.93 218.864 797.756 219.088 797.523 219.383C797.058 219.973 796.364 220.845 795.451 221.965C793.626 224.205 790.931 227.438 787.465 231.388C780.53 239.291 770.516 250.056 758.21 261.493C733.543 284.418 699.902 309.824 663.555 320.516L665.089 325.729C702.641 314.683 737.026 288.601 761.91 265.474C774.379 253.884 784.522 242.981 791.55 234.973C795.064 230.968 797.802 227.684 799.665 225.397C800.596 224.253 801.309 223.359 801.791 222.748C802.032 222.442 802.215 222.207 802.339 222.048C802.401 221.968 802.448 221.907 802.48 221.865C802.496 221.845 802.508 221.829 802.517 221.817C802.521 221.812 802.525 221.808 802.527 221.804C802.528 221.803 802.529 221.802 802.53 221.801C802.531 221.8 802.531 221.799 800.373 220.148ZM436.058 345.908C449.377 345.625 462.96 345.54 476.728 345.453L476.694 340.018C462.933 340.105 449.309 340.191 435.942 340.474L436.058 345.908ZM643.619 165.79C624.509 189.868 604.323 215.302 583.103 240.503L587.26 244.004C608.539 218.732 628.773 193.238 647.876 169.168L643.619 165.79ZM666.215 320.929C606.677 339.301 541.585 339.683 479.363 340.03L479.393 345.464C541.458 345.119 607.378 344.772 667.817 326.122L666.215 320.929ZM479.363 340.03C465.633 340.106 452.044 340.182 438.711 340.453L438.822 345.886C452.107 345.616 465.656 345.541 479.393 345.464L479.363 340.03ZM647.828 169.227L647.829 169.226L643.668 165.73L643.667 165.731L647.828 169.227ZM647.877 169.167C676.063 133.653 701.742 101.303 724.8 77.1481L720.869 73.3955C697.602 97.7692 671.753 130.341 643.62 165.789L647.877 169.167ZM663.506 320.531C604.292 339.192 539.097 339.625 476.698 340.018L476.732 345.453C538.968 345.06 605.009 344.664 665.139 325.714L663.506 320.531ZM476.715 340.018L476.711 340.018L476.711 345.453L476.715 345.453L476.715 340.018ZM436.021 345.908L438.788 345.887L438.746 340.452L435.979 340.474L436.021 345.908Z" fill="#1573FF" mask="url(#path-4-inside-2_290_137)"/>
</g>
<defs>
<clipPath id="clip0_290_137">
<rect width="856.9" height="342.191" fill="white" transform="translate(0 0.904541)"/>
</clipPath>
</defs>
</svg>
