<svg width="858" height="344" viewBox="0 0 858 344" fill="none" xmlns="http://www.w3.org/2000/svg">
<g clip-path="url(#clip0_290_136)">
<mask id="path-1-inside-1_290_136" fill="white">
<path d="M496.588 240.87C545.296 301.836 647.926 330.034 647.926 330.034C676.802 337.957 728.983 338.536 763.89 331.324C763.89 331.324 861.956 311.055 855.211 266.329C851.812 244.62 825.502 222.106 773.784 202.054C723.039 181.572 619.164 154.677 619.164 154.677C590.008 147.133 558.294 138.968 548.678 136.542L540.35 134.16C571.798 144.132 603.058 153.057 632.612 161.495L632.613 161.496C676.17 173.931 716.02 185.309 747.302 197.42C800.807 217.285 830.136 239.231 836.425 260.636C849.355 304.297 759.39 324.389 759.39 324.389C724.484 332.177 672.134 332.246 643.135 324.505C643.135 324.505 544.297 298.178 495.929 238.227C455.717 190.297 430.219 129.834 406.004 72.4118L406.002 72.4082C400.654 59.7249 395.368 47.19 390 34.9714L391.079 37.5193C396.422 49.7114 401.686 62.2183 407.013 74.8766C431.117 132.156 456.526 192.534 496.588 240.87Z"/>
</mask>
<path d="M496.588 240.87C545.296 301.836 647.926 330.034 647.926 330.034C676.802 337.957 728.983 338.536 763.89 331.324C763.89 331.324 861.956 311.055 855.211 266.329C851.812 244.62 825.502 222.106 773.784 202.054C723.039 181.572 619.164 154.677 619.164 154.677C590.008 147.133 558.294 138.968 548.678 136.542L540.35 134.16C571.798 144.132 603.058 153.057 632.612 161.495L632.613 161.496C676.17 173.931 716.02 185.309 747.302 197.42C800.807 217.285 830.136 239.231 836.425 260.636C849.355 304.297 759.39 324.389 759.39 324.389C724.484 332.177 672.134 332.246 643.135 324.505C643.135 324.505 544.297 298.178 495.929 238.227C455.717 190.297 430.219 129.834 406.004 72.4118L406.002 72.4082C400.654 59.7249 395.368 47.19 390 34.9714L391.079 37.5193C396.422 49.7114 401.686 62.2183 407.013 74.8766C431.117 132.156 456.526 192.534 496.588 240.87Z" fill="#EAFE01"/>
<path d="M496.588 240.87L498.711 239.174L498.695 239.155L498.68 239.136L496.588 240.87ZM647.926 330.034L647.206 332.654L647.207 332.655L647.926 330.034ZM763.89 331.324L764.44 333.985L764.44 333.985L763.89 331.324ZM855.211 266.329L857.898 265.924L857.897 265.916L857.896 265.909L855.211 266.329ZM773.784 202.054L772.767 204.573L772.784 204.58L772.801 204.587L773.784 202.054ZM619.164 154.677L619.845 152.047L619.845 152.047L619.164 154.677ZM548.678 136.542L547.931 139.155L547.972 139.166L548.013 139.177L548.678 136.542ZM540.35 134.16L541.097 131.548L539.529 136.751L540.35 134.16ZM747.302 197.42L746.321 199.954L746.339 199.961L746.357 199.968L747.302 197.42ZM836.425 260.636L833.818 261.402L833.819 261.407L836.425 260.636ZM759.39 324.389L759.982 327.041L759.982 327.041L759.39 324.389ZM643.135 324.505L643.836 321.88L643.835 321.88L643.135 324.505ZM495.929 238.227L498.044 236.521L498.028 236.501L498.011 236.481L495.929 238.227ZM390 34.9714L392.488 33.8784L387.498 36.0308L390 34.9714ZM406.002 72.4082L408.513 71.3682L408.51 71.3603L408.506 71.3524L406.002 72.4082ZM632.612 161.495L633.431 158.904L633.394 158.893L633.358 158.882L632.612 161.495ZM407.013 74.8766L404.508 75.9306L404.508 75.9306L407.013 74.8766ZM391.079 37.5193L388.576 38.5786L388.583 38.5944L388.59 38.6101L391.079 37.5193ZM632.613 161.496L631.794 164.086L631.83 164.098L631.867 164.108L632.613 161.496ZM406.004 72.4118L403.494 73.4518L403.497 73.4598L403.5 73.4677L406.004 72.4118ZM494.465 242.566C519.216 273.546 557.512 296.053 589.382 310.781C605.355 318.162 619.792 323.625 630.239 327.243C635.464 329.053 639.694 330.403 642.624 331.301C644.088 331.751 645.228 332.087 646.004 332.312C646.393 332.425 646.69 332.51 646.892 332.567C646.993 332.595 647.07 332.617 647.122 332.631C647.148 332.639 647.169 332.644 647.182 332.648C647.189 332.65 647.195 332.651 647.199 332.652C647.201 332.653 647.202 332.653 647.203 332.654C647.205 332.654 647.206 332.654 647.926 330.034C648.645 327.414 648.646 327.414 648.645 327.414C648.645 327.414 648.644 327.414 648.643 327.413C648.641 327.413 648.637 327.412 648.631 327.41C648.62 327.407 648.603 327.402 648.58 327.396C648.533 327.383 648.462 327.363 648.368 327.336C648.178 327.283 647.893 327.202 647.518 327.093C646.767 326.875 645.654 326.546 644.218 326.106C641.344 325.224 637.176 323.894 632.018 322.108C621.7 318.534 607.436 313.137 591.662 305.848C560.041 291.235 522.668 269.16 498.711 239.174L494.465 242.566ZM647.207 332.655C676.568 340.711 729.192 341.267 764.44 333.985L763.34 328.663C728.774 335.804 677.035 335.203 648.645 327.414L647.207 332.655ZM763.89 331.324C764.44 333.985 764.441 333.985 764.442 333.985C764.443 333.985 764.445 333.984 764.447 333.984C764.451 333.983 764.456 333.982 764.463 333.981C764.476 333.978 764.496 333.974 764.521 333.969C764.571 333.958 764.645 333.942 764.741 333.922C764.933 333.881 765.214 333.82 765.58 333.738C766.31 333.576 767.376 333.333 768.726 333.008C771.426 332.359 775.268 331.383 779.855 330.071C789.017 327.451 801.199 323.478 813.195 318.077C825.156 312.692 837.122 305.805 845.703 297.281C854.317 288.725 859.757 278.254 857.898 265.924L852.524 266.734C854.037 276.767 849.749 285.602 841.873 293.426C833.963 301.282 822.677 307.848 810.964 313.121C799.287 318.378 787.374 322.268 778.36 324.846C773.859 326.133 770.092 327.09 767.455 327.724C766.137 328.041 765.102 328.277 764.4 328.433C764.049 328.511 763.781 328.57 763.602 328.608C763.513 328.627 763.446 328.641 763.402 328.65C763.38 328.655 763.364 328.658 763.353 328.661C763.348 328.662 763.344 328.662 763.342 328.663C763.341 328.663 763.341 328.663 763.34 328.663C763.34 328.663 763.34 328.663 763.89 331.324ZM857.896 265.909C856.05 254.122 848.06 242.521 834.322 231.454C820.559 220.367 800.772 209.603 774.766 199.52L772.801 204.587C798.513 214.556 817.741 225.076 830.912 235.686C844.109 246.316 850.973 256.827 852.526 266.749L857.896 265.909ZM774.801 199.534C749.283 189.234 710.505 177.356 678.195 168.073C662.021 163.426 647.437 159.42 636.895 156.576C631.624 155.154 627.363 154.022 624.42 153.245C622.948 152.857 621.805 152.558 621.03 152.355C620.642 152.254 620.346 152.177 620.147 152.125C620.048 152.099 619.973 152.08 619.922 152.067C619.897 152.06 619.878 152.055 619.865 152.052C619.858 152.05 619.853 152.049 619.85 152.048C619.849 152.048 619.847 152.047 619.846 152.047C619.846 152.047 619.845 152.047 619.164 154.677C618.483 157.308 618.483 157.308 618.484 157.308C618.485 157.308 618.486 157.309 618.487 157.309C618.49 157.31 618.495 157.311 618.501 157.313C618.514 157.316 618.532 157.321 618.557 157.327C618.607 157.34 618.681 157.359 618.78 157.385C618.977 157.436 619.271 157.513 619.656 157.613C620.427 157.815 621.566 158.113 623.033 158.5C625.968 159.275 630.219 160.404 635.479 161.823C646 164.662 660.556 168.659 676.694 173.296C709.008 182.581 747.54 194.391 772.767 204.573L774.801 199.534ZM619.845 152.047C590.691 144.503 558.968 136.336 549.343 133.907L548.013 139.177C557.619 141.6 589.325 149.763 618.483 157.308L619.845 152.047ZM549.425 133.929L541.097 131.548L539.603 136.773L547.931 139.155L549.425 133.929ZM746.357 199.968C772.978 209.851 793.444 220.203 807.983 230.657C822.564 241.14 830.917 251.53 833.818 261.402L839.032 259.87C835.643 248.337 826.188 237.052 811.156 226.244C796.083 215.407 775.131 204.854 748.248 194.873L746.357 199.968ZM833.819 261.407C836.737 271.261 833.93 279.788 827.746 287.288C821.481 294.886 811.837 301.286 801.537 306.457C791.278 311.608 780.587 315.432 772.436 317.973C768.367 319.241 764.945 320.185 762.545 320.811C761.345 321.123 760.402 321.356 759.761 321.51C759.441 321.587 759.197 321.645 759.034 321.682C758.953 321.701 758.892 321.715 758.853 321.724C758.833 321.729 758.818 321.732 758.809 321.734C758.804 321.735 758.801 321.736 758.799 321.736C758.798 321.736 758.798 321.737 758.798 321.737C758.798 321.737 758.798 321.737 759.39 324.389C759.982 327.041 759.983 327.04 759.985 327.04C759.986 327.04 759.987 327.039 759.989 327.039C759.993 327.038 759.998 327.037 760.004 327.036C760.016 327.033 760.034 327.029 760.058 327.023C760.105 327.013 760.173 326.997 760.261 326.977C760.438 326.936 760.697 326.875 761.033 326.794C761.704 326.633 762.681 326.391 763.916 326.069C766.385 325.426 769.891 324.459 774.054 323.161C782.367 320.57 793.36 316.643 803.975 311.314C814.55 306.004 824.972 299.195 831.939 290.746C838.987 282.198 842.577 271.841 839.03 259.864L833.819 261.407ZM758.798 321.736C741.589 325.577 719.981 327.53 699.045 327.553C678.087 327.576 658.014 325.664 643.836 321.88L642.435 327.131C657.256 331.087 677.857 333.011 699.051 332.988C720.265 332.964 742.286 330.989 759.982 327.041L758.798 321.736ZM643.135 324.505C643.835 321.88 643.835 321.88 643.835 321.88C643.834 321.879 643.834 321.879 643.833 321.879C643.83 321.878 643.827 321.877 643.821 321.876C643.811 321.873 643.794 321.869 643.772 321.863C643.728 321.851 643.66 321.832 643.568 321.807C643.386 321.757 643.112 321.682 642.751 321.58C642.029 321.376 640.957 321.068 639.573 320.654C636.805 319.825 632.787 318.573 627.81 316.882C617.855 313.5 604.077 308.369 588.801 301.377C558.18 287.363 521.833 266.008 498.044 236.521L493.814 239.933C518.392 270.398 555.649 292.182 586.539 306.319C602.019 313.403 615.974 318.6 626.062 322.028C631.107 323.742 635.189 325.015 638.015 325.86C639.428 326.283 640.527 326.599 641.276 326.81C641.651 326.916 641.938 326.995 642.132 327.049C642.23 327.075 642.304 327.096 642.355 327.109C642.38 327.116 642.4 327.121 642.413 327.125C642.42 327.127 642.425 327.128 642.429 327.129C642.431 327.13 642.433 327.13 642.434 327.131C642.435 327.131 642.436 327.131 643.135 324.505ZM387.512 36.0644C392.871 48.2613 398.149 60.7773 403.499 73.464L408.506 71.3524C403.159 58.6726 397.865 46.1188 392.488 33.8784L387.512 36.0644ZM633.358 158.882C603.798 150.443 572.575 141.528 541.171 131.57L539.529 136.751C571.02 146.736 602.317 155.672 631.866 164.108L633.358 158.882ZM498.68 239.136C458.92 191.163 433.653 131.174 409.517 73.8226L404.508 75.9306C428.582 133.137 454.133 193.905 494.496 242.604L498.68 239.136ZM409.517 73.8226C404.192 61.1677 398.92 48.6421 393.567 36.4285L388.59 38.6101C393.924 50.7807 399.18 63.2689 404.508 75.9306L409.517 73.8226ZM631.793 164.086L631.794 164.086L633.432 158.905L633.431 158.904L631.793 164.086ZM631.867 164.108C675.465 176.556 715.18 187.897 746.321 199.954L748.283 194.887C716.86 182.72 676.875 171.307 633.359 158.883L631.867 164.108ZM498.011 236.481C458.107 188.919 432.755 128.853 408.508 71.356L403.5 73.4677C427.683 130.814 453.326 191.675 493.847 239.974L498.011 236.481ZM408.514 71.3718L408.513 71.3682L403.492 73.4482L403.494 73.4518L408.514 71.3718ZM387.498 36.0308L388.576 38.5786L393.581 36.4599L392.502 33.9121L387.498 36.0308Z" fill="#1573FF" mask="url(#path-1-inside-1_290_136)"/>
<path d="M274.503 274.318C267.876 273.208 261.166 272.083 254.386 270.957C256.229 271.314 258.068 271.67 259.897 272.023L259.88 272.114C259.898 272.023 259.898 272.023 259.898 272.023L259.902 272.024L259.916 272.027L259.973 272.038L260.2 272.081C260.401 272.12 260.699 272.177 261.092 272.252C261.876 272.402 263.034 272.622 264.528 272.903C267.515 273.466 271.844 274.274 277.21 275.254C287.942 277.213 302.821 279.86 319.407 282.611C352.597 288.114 392.557 294.021 419.815 295.671L419.824 295.671L419.833 295.672C447.437 297.724 469.496 296.49 486.157 292.521C502.83 288.548 513.939 281.877 519.895 273.19C525.918 264.29 525.775 253.968 521.952 243.268C518.121 232.544 510.644 221.611 502.298 211.758C493.966 201.919 484.834 193.234 477.777 187.003C474.251 183.889 471.247 181.392 469.127 179.675C468.067 178.817 467.228 178.154 466.656 177.706C466.369 177.482 466.15 177.312 466.002 177.199C465.928 177.142 465.872 177.099 465.836 177.071L465.794 177.04L465.784 177.032L465.782 177.031C465.782 177.03 465.782 177.03 465.855 176.934L465.782 177.03C437.508 155.609 390.327 133.8 361.076 128.587L361.077 128.586C361.076 128.587 361.076 128.587 361.076 128.587L361.073 128.587L361.06 128.584L361.005 128.575L360.953 128.566C360.908 128.558 360.852 128.548 360.783 128.536C360.586 128.503 360.29 128.453 359.901 128.389C359.122 128.262 357.968 128.08 356.473 127.859C353.483 127.418 349.129 126.825 343.682 126.22C332.787 125.009 317.528 123.75 300.081 123.554C295.919 123.507 291.635 123.521 287.258 123.611C290.094 123.593 292.882 123.606 295.612 123.647C312.594 123.9 327.394 125.199 337.95 126.436C343.228 127.054 347.447 127.656 350.35 128.105C351.801 128.329 352.923 128.515 353.684 128.645C354.064 128.71 354.354 128.761 354.55 128.796C354.648 128.814 354.722 128.827 354.772 128.836L354.83 128.847L354.844 128.85L354.848 128.85C354.849 128.85 354.849 128.85 354.832 128.946L354.85 128.85C369.779 131.618 389.095 138.683 408.172 147.792C427.259 156.905 446.202 168.11 460.382 179.211L459.578 180.237C460.382 179.211 460.382 179.211 460.383 179.212L460.386 179.214L460.397 179.223L460.438 179.255C460.475 179.284 460.528 179.326 460.598 179.382C460.737 179.492 460.942 179.657 461.207 179.871C461.737 180.301 462.509 180.934 463.478 181.75C465.417 183.382 468.149 185.749 471.33 188.695C477.689 194.582 485.864 202.802 493.089 212.105C500.301 221.389 506.643 231.849 509.221 242.213C511.814 252.638 510.605 263.043 502.605 271.928C494.857 280.569 481.793 286.618 463.689 289.896C445.562 293.179 422.22 293.714 393.706 291.181C360.165 288.671 319.215 281.81 274.553 274.326L274.524 274.321L274.522 274.321L274.505 274.318L274.503 274.318Z" fill="#EAFE01" stroke="#1573FF" stroke-width="2.71729"/>
<mask id="path-4-inside-2_290_136" fill="white">
<path d="M320.959 45.7026C391.167 11.6408 495.94 30.3657 495.94 30.3657C525.414 35.6444 572.763 57.5834 601.166 79.1184C601.166 79.1184 680.957 139.626 655.616 177.094C643.204 195.225 609.764 204.221 554.451 200.059C499.832 196.703 394.496 176.265 394.496 176.265C364.932 170.524 332.792 164.242 323.068 162.293L314.526 160.858C347.204 165.394 379.261 170.794 409.569 175.899L409.57 175.9C454.238 183.424 495.106 190.308 528.554 192.842C585.399 197.943 621.319 190.759 636.209 174.145C666.674 140.302 594.119 83.4417 594.119 83.4417C565.965 61.386 518.743 38.7903 489.236 33.2941C489.236 33.2941 388.69 14.5119 319.227 47.8047C262.299 73.7577 213.258 117.357 166.684 158.763L166.681 158.766C156.394 167.912 146.227 176.951 136.122 185.668L138.192 183.833C148.264 175.128 158.398 166.105 168.655 156.973C215.068 115.648 263.993 72.0871 320.959 45.7026Z"/>
</mask>
<path d="M320.959 45.7026C391.167 11.6408 495.94 30.3657 495.94 30.3657C525.414 35.6444 572.763 57.5834 601.166 79.1184C601.166 79.1184 680.957 139.626 655.616 177.094C643.204 195.225 609.764 204.221 554.451 200.059C499.832 196.703 394.496 176.265 394.496 176.265C364.932 170.524 332.792 164.242 323.068 162.293L314.526 160.858C347.204 165.394 379.261 170.794 409.569 175.899L409.57 175.9C454.238 183.424 495.106 190.308 528.554 192.842C585.399 197.943 621.319 190.759 636.209 174.145C666.674 140.302 594.119 83.4417 594.119 83.4417C565.965 61.386 518.743 38.7903 489.236 33.2941C489.236 33.2941 388.69 14.5119 319.227 47.8047C262.299 73.7577 213.258 117.357 166.684 158.763L166.681 158.766C156.394 167.912 146.227 176.951 136.122 185.668L138.192 183.833C148.264 175.128 158.398 166.105 168.655 156.973C215.068 115.648 263.993 72.0871 320.959 45.7026Z" fill="#EAFE01"/>
<path d="M320.959 45.7026L322.145 48.1474L322.123 48.158L322.101 48.1683L320.959 45.7026ZM495.94 30.3657L496.418 27.6908L496.419 27.691L495.94 30.3657ZM601.166 79.1184L602.808 76.9531L602.808 76.9533L601.166 79.1184ZM655.616 177.094L657.867 178.616L657.863 178.622L657.858 178.629L655.616 177.094ZM554.451 200.059L554.618 197.347L554.637 197.348L554.655 197.349L554.451 200.059ZM394.496 176.265L393.979 178.932L393.978 178.932L394.496 176.265ZM323.068 162.293L323.518 159.613L323.56 159.62L323.602 159.629L323.068 162.293ZM314.526 160.858L314.076 163.537L314.9 158.166L314.526 160.858ZM528.554 192.842L528.76 190.132L528.779 190.133L528.797 190.135L528.554 192.842ZM636.209 174.145L634.185 172.332L634.189 172.328L636.209 174.145ZM594.119 83.4417L595.795 81.3026L595.795 81.3029L594.119 83.4417ZM489.236 33.2941L488.738 35.9655L488.737 35.9652L489.236 33.2941ZM319.227 47.8047L320.401 50.2551L320.378 50.2664L320.354 50.2772L319.227 47.8047ZM136.122 185.668L137.897 187.726L134.319 183.635L136.122 185.668ZM166.681 158.766L168.499 160.785L168.493 160.791L168.486 160.797L166.681 158.766ZM409.569 175.899L409.193 178.591L409.155 178.585L409.118 178.579L409.569 175.899ZM168.655 156.973L166.848 154.943L166.848 154.943L168.655 156.973ZM138.192 183.833L136.39 181.8L136.403 181.788L136.416 181.777L138.192 183.833ZM409.57 175.9L409.946 173.208L409.984 173.214L410.022 173.22L409.57 175.9ZM166.684 158.763L164.865 156.744L164.872 156.738L164.878 156.732L166.684 158.763ZM319.773 43.2578C355.449 25.9495 399.703 22.1187 434.81 22.5439C452.404 22.757 467.787 24.0409 478.774 25.2718C484.269 25.8873 488.669 26.49 491.699 26.9398C493.215 27.1647 494.388 27.3514 495.186 27.4824C495.585 27.5479 495.89 27.5994 496.097 27.6349C496.2 27.6526 496.279 27.6663 496.332 27.6758C496.359 27.6805 496.38 27.6841 496.394 27.6866C496.401 27.6879 496.407 27.6888 496.411 27.6896C496.413 27.6899 496.414 27.6902 496.415 27.6904C496.417 27.6906 496.418 27.6908 495.94 30.3657C495.462 33.0406 495.462 33.0407 495.461 33.0406C495.461 33.0405 495.46 33.0404 495.459 33.0402C495.457 33.0397 495.453 33.039 495.447 33.038C495.436 33.0361 495.418 33.033 495.394 33.0288C495.347 33.0205 495.274 33.0078 495.177 32.9912C494.983 32.9579 494.691 32.9085 494.305 32.8451C493.534 32.7185 492.388 32.5361 490.902 32.3155C487.928 31.8743 483.594 31.2802 478.169 30.6726C467.318 29.4569 452.12 28.1885 434.744 27.9781C399.913 27.5563 356.677 31.3939 322.145 48.1474L319.773 43.2578ZM496.419 27.691C526.389 33.0585 574.127 55.208 602.808 76.9531L599.524 81.2837C571.398 59.9588 524.439 38.2304 495.461 33.0405L496.419 27.691ZM601.166 79.1184C602.808 76.9533 602.809 76.9539 602.81 76.9547C602.811 76.9553 602.812 76.9563 602.814 76.9575C602.817 76.9598 602.821 76.9631 602.826 76.9672C602.837 76.9756 602.853 76.9876 602.873 77.0032C602.914 77.0344 602.974 77.0801 603.052 77.14C603.207 77.2598 603.435 77.4362 603.73 77.6669C604.32 78.1281 605.177 78.806 606.256 79.6803C608.413 81.4285 611.461 83.9634 615.036 87.1216C622.179 93.431 631.464 102.261 639.967 112.299C648.445 122.309 656.281 133.675 660.357 145.062C664.449 156.494 664.853 168.287 657.867 178.616L653.365 175.571C659.05 167.167 658.982 157.346 655.241 146.894C651.483 136.398 644.122 125.613 635.82 115.812C627.544 106.04 618.465 97.4014 611.438 91.1947C607.929 88.0949 604.941 85.61 602.834 83.9028C601.781 83.0494 600.949 82.3908 600.382 81.9473C600.098 81.7256 599.881 81.5578 599.737 81.4463C599.664 81.3906 599.61 81.3489 599.574 81.3217C599.556 81.3081 599.543 81.2981 599.535 81.2917C599.531 81.2885 599.528 81.2862 599.526 81.2849C599.525 81.2842 599.525 81.2839 599.524 81.2835C599.524 81.2834 599.524 81.2836 601.166 79.1184ZM657.858 178.629C651.119 188.473 638.914 195.505 621.749 199.58C604.554 203.663 582.061 204.861 554.247 202.768L554.655 197.349C582.154 199.418 604.038 198.2 620.494 194.293C636.98 190.378 647.701 183.846 653.374 175.559L657.858 178.629ZM554.285 202.771C526.818 201.083 486.704 195.112 453.544 189.583C436.946 186.816 422.057 184.154 411.318 182.183C405.948 181.198 401.615 180.386 398.624 179.819C397.128 179.536 395.968 179.315 395.181 179.164C394.787 179.088 394.487 179.03 394.285 178.991C394.184 178.972 394.108 178.957 394.057 178.947C394.031 178.942 394.012 178.939 393.999 178.936C393.992 178.935 393.987 178.934 393.984 178.933C393.982 178.933 393.981 178.933 393.98 178.932C393.979 178.932 393.979 178.932 394.496 176.265C395.014 173.597 395.014 173.597 395.015 173.597C395.016 173.597 395.017 173.598 395.018 173.598C395.021 173.599 395.026 173.599 395.032 173.601C395.045 173.603 395.064 173.607 395.089 173.612C395.139 173.621 395.215 173.636 395.315 173.655C395.515 173.694 395.813 173.751 396.204 173.826C396.987 173.976 398.143 174.197 399.634 174.48C402.617 175.044 406.94 175.855 412.299 176.838C423.017 178.804 437.876 181.461 454.438 184.223C487.602 189.752 527.465 195.678 554.618 197.347L554.285 202.771ZM393.978 178.932C364.417 173.192 332.267 166.909 322.534 164.957L323.602 159.629C333.316 161.576 365.448 167.856 395.014 173.597L393.978 178.932ZM322.618 164.973L314.076 163.537L314.976 158.178L323.518 159.613L322.618 164.973ZM528.797 190.135C557.081 192.673 580.009 192.139 597.633 188.962C615.306 185.777 627.318 179.994 634.185 172.332L638.232 175.959C630.209 184.911 616.817 191.026 598.597 194.311C580.327 197.604 556.873 198.111 528.312 195.548L528.797 190.135ZM634.189 172.328C641.065 164.689 642.202 155.785 639.848 146.353C637.464 136.799 631.513 126.871 624.442 117.769C617.399 108.704 609.396 100.65 603.133 94.8484C600.006 91.952 597.323 89.6271 595.426 88.0293C594.478 87.2307 593.727 86.6142 593.215 86.1995C592.959 85.9921 592.763 85.8352 592.633 85.7312C592.568 85.6792 592.519 85.6405 592.487 85.6152C592.471 85.6026 592.459 85.5934 592.452 85.5876C592.448 85.5847 592.445 85.5826 592.444 85.5815C592.443 85.5809 592.443 85.5806 592.442 85.5803C592.442 85.5803 592.443 85.5805 594.119 83.4417C595.795 81.3029 595.796 81.3036 595.797 81.3044C595.797 81.305 595.799 81.306 595.8 81.3072C595.803 81.3094 595.807 81.3126 595.812 81.3166C595.822 81.3246 595.837 81.336 595.856 81.3509C595.893 81.3805 595.948 81.4239 596.019 81.4805C596.161 81.5937 596.369 81.7603 596.637 81.9776C597.174 82.4123 597.951 83.0505 598.927 83.8727C600.879 85.5167 603.627 87.8983 606.826 90.8614C613.214 96.7787 621.446 105.055 628.734 114.435C635.994 123.779 642.47 134.412 645.121 145.037C647.803 155.786 646.585 166.68 638.228 175.963L634.189 172.328ZM592.443 85.5808C578.562 74.7067 559.9 63.6423 541.012 54.6095C522.106 45.5675 503.164 38.6526 488.738 35.9655L489.734 30.6228C504.815 33.4319 524.238 40.5629 543.357 49.7067C562.496 58.8597 581.521 70.121 595.795 81.3026L592.443 85.5808ZM489.236 33.2941C488.737 35.9652 488.737 35.9653 488.737 35.9652C488.737 35.9651 488.736 35.965 488.735 35.9648C488.733 35.9644 488.729 35.9637 488.723 35.9627C488.713 35.9607 488.696 35.9576 488.673 35.9535C488.628 35.9452 488.558 35.9325 488.466 35.9158C488.28 35.8825 488 35.833 487.63 35.7694C486.89 35.6423 485.79 35.4591 484.363 35.2372C481.507 34.7932 477.341 34.1942 472.122 33.5782C461.68 32.3458 447.035 31.0468 430.237 30.7816C396.566 30.25 354.567 33.8802 320.401 50.2551L318.053 45.3543C353.351 28.4364 396.356 24.8114 430.323 25.3477C447.344 25.6164 462.178 26.9322 472.759 28.1811C478.051 28.8057 482.283 29.4139 485.198 29.8671C486.655 30.0937 487.783 30.2815 488.55 30.4133C488.934 30.4792 489.227 30.531 489.426 30.5667C489.525 30.5846 489.601 30.5984 489.653 30.6078C489.678 30.6126 489.698 30.6162 489.712 30.6188C489.719 30.6201 489.724 30.6211 489.728 30.6218C489.73 30.6221 489.732 30.6224 489.733 30.6226C489.734 30.6229 489.735 30.6231 489.236 33.2941ZM134.347 183.611C144.434 174.909 154.585 165.883 164.875 156.735L168.486 160.797C158.202 169.94 148.02 178.992 137.897 187.726L134.347 183.611ZM409.118 178.579C378.804 173.472 346.785 168.079 314.152 163.549L314.9 158.166C347.622 162.708 379.718 168.115 410.021 173.22L409.118 178.579ZM322.101 48.1683C265.563 74.3545 216.934 117.625 170.462 159.002L166.848 154.943C213.203 113.671 262.423 69.8197 319.817 43.2369L322.101 48.1683ZM170.462 159.002C160.208 168.132 150.058 177.169 139.969 185.889L136.416 181.777C146.469 173.088 156.589 164.078 166.848 154.943L170.462 159.002ZM409.945 173.208L409.946 173.208L409.194 178.591L409.193 178.591L409.945 173.208ZM410.022 173.22C454.732 180.752 495.462 187.61 528.76 190.132L528.349 195.551C494.749 193.006 453.745 186.097 409.119 178.579L410.022 173.22ZM320.354 50.2772C263.864 76.0307 215.125 119.333 168.489 160.794L164.878 156.732C211.391 115.381 260.734 71.4847 318.1 45.3322L320.354 50.2772ZM168.502 160.783L168.499 160.785L164.863 156.746L164.865 156.744L168.502 160.783ZM134.319 183.635L136.39 181.8L139.995 185.866L137.925 187.702L134.319 183.635Z" fill="#1573FF" mask="url(#path-4-inside-2_290_136)"/>
</g>
<defs>
<clipPath id="clip0_290_136">
<rect width="856.9" height="342.19" fill="white" transform="translate(0.900391 0.905029)"/>
</clipPath>
</defs>
</svg>
