<svg width="858" height="344" viewBox="0 0 858 344" fill="none" xmlns="http://www.w3.org/2000/svg">
<g clip-path="url(#clip0_290_138)">
<mask id="path-1-inside-1_290_138" fill="white">
<path d="M495.71 179.558C556.207 228.847 662.478 234.71 662.478 234.71C692.376 236.349 743.5 225.882 776.094 211.454C776.094 211.454 867.657 170.91 851.609 128.62C843.697 108.121 813.222 91.6784 758.433 83.0134C704.505 73.723 597.292 69.3981 597.292 69.3981C567.201 68.1887 534.476 66.9133 524.565 66.5751L515.922 66.0082C548.767 69.106 581.208 71.22 611.877 73.2187L611.879 73.2188C657.08 76.1645 698.435 78.8596 731.571 84.0838C788.066 92.1868 821.372 107.436 832.044 127.028C853.912 166.968 770.229 205.626 770.229 205.626C737.759 220.619 686.607 231.753 656.627 230.319C656.627 230.319 554.457 225.484 494.507 177.114C445.07 138.769 407.366 85.0633 371.558 34.0591L371.556 34.0559C363.647 22.7901 355.83 11.6561 348 0.848633L349.593 3.11084C357.393 13.8976 365.182 25.009 373.065 36.2549C408.735 87.1429 446.335 140.784 495.71 179.558Z"/>
</mask>
<path d="M495.71 179.558C556.207 228.847 662.478 234.71 662.478 234.71C692.376 236.349 743.5 225.882 776.094 211.454C776.094 211.454 867.657 170.91 851.609 128.62C843.697 108.121 813.222 91.6784 758.433 83.0134C704.505 73.723 597.292 69.3981 597.292 69.3981C567.201 68.1887 534.476 66.9133 524.565 66.5751L515.922 66.0082C548.767 69.106 581.208 71.22 611.877 73.2187L611.879 73.2188C657.08 76.1645 698.435 78.8596 731.571 84.0838C788.066 92.1868 821.372 107.436 832.044 127.028C853.912 166.968 770.229 205.626 770.229 205.626C737.759 220.619 686.607 231.753 656.627 230.319C656.627 230.319 554.457 225.484 494.507 177.114C445.07 138.769 407.366 85.0633 371.558 34.0591L371.556 34.0559C363.647 22.7901 355.83 11.6561 348 0.848633L349.593 3.11084C357.393 13.8976 365.182 25.009 373.065 36.2549C408.735 87.1429 446.335 140.784 495.71 179.558Z" fill="#EAFE01"/>
<path d="M495.71 179.558L497.426 177.451L497.407 177.436L497.388 177.421L495.71 179.558ZM662.478 234.71L662.328 237.423L662.329 237.423L662.478 234.71ZM776.094 211.454L777.194 213.938L777.194 213.938L776.094 211.454ZM851.609 128.62L854.15 127.656L854.147 127.649L854.144 127.642L851.609 128.62ZM758.433 83.0134L757.972 85.6912L757.99 85.6944L758.009 85.6973L758.433 83.0134ZM597.292 69.3981L597.402 66.683L597.401 66.683L597.292 69.3981ZM524.565 66.5751L524.387 69.2866L524.43 69.2894L524.473 69.2908L524.565 66.5751ZM515.922 66.0082L516.1 63.2967L515.667 68.7134L515.922 66.0082ZM731.571 84.0838L731.148 86.768L731.166 86.7709L731.185 86.7736L731.571 84.0838ZM832.044 127.028L829.657 128.328L829.66 128.333L832.044 127.028ZM770.229 205.626L771.368 208.093L771.369 208.093L770.229 205.626ZM656.627 230.319L656.757 227.605L656.756 227.605L656.627 230.319ZM494.507 177.114L496.214 174.999L496.193 174.983L496.173 174.967L494.507 177.114ZM348 0.848633L350.2 -0.745619L345.778 2.41307L348 0.848633ZM371.556 34.0559L373.789 32.5086L373.784 32.5015L373.78 32.4945L371.556 34.0559ZM611.877 73.2187L612.13 70.5132L612.092 70.5096L612.054 70.5071L611.877 73.2187ZM373.065 36.2549L370.84 37.8145L370.84 37.8145L373.065 36.2549ZM349.593 3.11084L347.371 4.67528L347.381 4.68927L347.391 4.70315L349.593 3.11084ZM611.879 73.2188L611.626 75.9243L611.664 75.9279L611.702 75.9304L611.879 73.2188ZM371.558 34.0591L369.324 35.6064L369.329 35.6134L369.334 35.6204L371.558 34.0591ZM493.993 181.664C524.735 206.711 566.923 220.613 601.188 228.269C618.359 232.107 633.625 234.394 644.601 235.722C650.091 236.386 654.511 236.811 657.564 237.07C659.09 237.199 660.275 237.287 661.082 237.343C661.485 237.371 661.794 237.391 662.003 237.404C662.108 237.41 662.187 237.415 662.242 237.418C662.269 237.42 662.29 237.421 662.304 237.422C662.311 237.422 662.317 237.423 662.321 237.423C662.323 237.423 662.325 237.423 662.326 237.423C662.327 237.423 662.328 237.423 662.478 234.71C662.628 231.997 662.628 231.997 662.628 231.997C662.627 231.997 662.626 231.997 662.625 231.997C662.623 231.997 662.619 231.996 662.613 231.996C662.601 231.996 662.584 231.995 662.56 231.993C662.511 231.99 662.438 231.986 662.34 231.98C662.143 231.968 661.847 231.949 661.458 231.922C660.678 231.867 659.521 231.781 658.023 231.654C655.028 231.4 650.673 230.982 645.254 230.326C634.414 229.015 619.331 226.755 602.373 222.966C568.377 215.369 527.182 201.695 497.426 177.451L493.993 181.664ZM662.329 237.423C692.73 239.089 744.282 228.508 777.194 213.938L774.994 208.969C742.718 223.257 692.022 233.608 662.627 231.997L662.329 237.423ZM776.094 211.454C777.194 213.938 777.195 213.938 777.196 213.937C777.197 213.937 777.199 213.936 777.2 213.936C777.204 213.934 777.209 213.932 777.215 213.929C777.228 213.923 777.246 213.915 777.269 213.905C777.316 213.884 777.385 213.853 777.474 213.813C777.653 213.732 777.916 213.613 778.256 213.456C778.935 213.143 779.925 212.68 781.176 212.077C783.678 210.872 787.227 209.105 791.433 206.853C799.834 202.355 810.9 195.897 821.484 188.081C832.036 180.289 842.275 171.028 848.859 160.883C855.47 150.699 858.574 139.315 854.15 127.656L849.069 129.584C852.668 139.071 850.345 148.613 844.301 157.924C838.231 167.275 828.588 176.079 818.255 183.71C807.954 191.317 797.132 197.637 788.867 202.062C784.74 204.272 781.26 206.004 778.817 207.181C777.596 207.769 776.634 208.219 775.981 208.52C775.654 208.671 775.404 208.784 775.238 208.86C775.155 208.897 775.092 208.925 775.051 208.944C775.031 208.953 775.016 208.959 775.006 208.964C775.001 208.966 774.998 208.967 774.996 208.968C774.995 208.969 774.994 208.969 774.994 208.969C774.993 208.969 774.994 208.969 776.094 211.454ZM854.144 127.642C849.848 116.512 839.586 106.863 823.819 98.9502C808.023 91.0237 786.408 84.6866 758.858 80.3294L758.009 85.6973C785.247 90.0052 806.264 96.2219 821.381 103.808C836.526 111.408 845.458 120.229 849.074 129.599L854.144 127.642ZM758.894 80.3355C731.776 75.6637 691.363 72.253 657.821 70.0106C641.03 68.8881 625.928 68.0564 615.024 67.5052C609.571 67.2296 605.168 67.0241 602.126 66.8875C600.605 66.8192 599.425 66.7681 598.625 66.7341C598.225 66.7171 597.919 66.7043 597.714 66.6958C597.611 66.6916 597.533 66.6884 597.481 66.6863C597.455 66.6852 597.435 66.6844 597.422 66.6839C597.415 66.6836 597.41 66.6834 597.407 66.6832C597.405 66.6832 597.404 66.6831 597.403 66.6831C597.402 66.6831 597.402 66.683 597.292 69.3981C597.183 72.1132 597.183 72.1132 597.184 72.1133C597.185 72.1133 597.186 72.1133 597.187 72.1134C597.19 72.1135 597.195 72.1137 597.202 72.114C597.214 72.1145 597.234 72.1153 597.259 72.1163C597.31 72.1184 597.387 72.1216 597.489 72.1258C597.693 72.1342 597.996 72.1469 598.394 72.1638C599.19 72.1977 600.366 72.2486 601.882 72.3167C604.915 72.4529 609.308 72.6579 614.75 72.9329C625.633 73.483 640.704 74.3131 657.458 75.4331C691.005 77.6758 731.162 81.0727 757.972 85.6912L758.894 80.3355ZM597.401 66.683C567.312 65.4737 534.579 64.1979 524.658 63.8594L524.473 69.2908C534.374 69.6286 567.089 70.9038 597.183 72.1132L597.401 66.683ZM524.743 63.8636L516.1 63.2967L515.744 68.7196L524.387 69.2866L524.743 63.8636ZM731.185 86.7736C759.294 90.8052 781.486 96.5962 797.907 103.739C814.375 110.903 824.736 119.292 829.657 128.328L834.43 125.728C828.68 115.172 817.052 106.141 800.075 98.7559C783.051 91.3507 760.342 85.4653 731.957 81.3941L731.185 86.7736ZM829.66 128.333C834.596 137.347 833.655 146.275 829.196 154.912C824.679 163.663 816.606 171.957 807.632 179.189C798.694 186.392 789.054 192.391 781.624 196.597C777.915 198.697 774.77 200.343 772.556 201.462C771.45 202.021 770.577 202.448 769.984 202.734C769.687 202.877 769.46 202.985 769.309 203.056C769.234 203.092 769.177 203.118 769.141 203.136C769.122 203.144 769.109 203.151 769.1 203.154C769.096 203.156 769.093 203.158 769.091 203.159C769.09 203.159 769.09 203.159 769.089 203.159C769.089 203.159 769.09 203.159 770.229 205.626C771.369 208.093 771.37 208.092 771.371 208.092C771.372 208.092 771.373 208.091 771.375 208.09C771.378 208.089 771.383 208.086 771.389 208.084C771.4 208.078 771.417 208.07 771.439 208.06C771.482 208.04 771.546 208.01 771.628 207.972C771.792 207.894 772.033 207.78 772.344 207.63C772.965 207.33 773.869 206.888 775.008 206.312C777.286 205.161 780.507 203.475 784.302 201.326C791.879 197.036 801.793 190.874 811.042 183.42C820.256 175.995 829.002 167.136 834.026 157.405C839.107 147.561 840.426 136.679 834.427 125.723L829.66 128.333ZM769.09 203.159C753.081 210.551 732.375 217.029 711.917 221.478C691.438 225.931 671.414 228.306 656.757 227.605L656.497 233.033C671.82 233.766 692.362 231.292 713.072 226.788C733.802 222.28 754.907 215.694 771.368 208.093L769.09 203.159ZM656.627 230.319C656.756 227.605 656.756 227.605 656.756 227.605C656.755 227.605 656.754 227.605 656.753 227.605C656.751 227.605 656.747 227.604 656.742 227.604C656.731 227.604 656.714 227.603 656.691 227.602C656.645 227.599 656.574 227.596 656.48 227.59C656.291 227.58 656.008 227.564 655.633 227.541C654.884 227.495 653.771 227.42 652.331 227.308C649.45 227.083 645.258 226.709 640.037 226.108C629.591 224.907 615.04 222.805 598.631 219.201C565.739 211.978 525.699 198.79 496.214 174.999L492.801 179.229C523.265 203.808 564.285 217.222 597.465 224.509C614.093 228.161 628.831 230.29 639.416 231.507C644.71 232.116 648.968 232.497 651.909 232.726C653.379 232.84 654.521 232.917 655.297 232.965C655.686 232.989 655.983 233.006 656.185 233.017C656.285 233.023 656.362 233.027 656.415 233.029C656.441 233.031 656.461 233.032 656.475 233.032C656.482 233.033 656.488 233.033 656.492 233.033C656.494 233.033 656.495 233.033 656.496 233.033C656.498 233.033 656.499 233.033 656.627 230.319ZM345.8 2.44288C353.616 13.2311 361.42 24.3484 369.332 35.6172L373.78 32.4945C365.873 21.2319 358.044 10.0811 350.2 -0.745619L345.8 2.44288ZM612.054 70.5071C581.379 68.5081 548.977 66.3964 516.177 63.3029L515.667 68.7134C548.557 71.8156 581.036 73.9319 611.701 75.9302L612.054 70.5071ZM497.388 177.421C448.384 138.938 411.005 85.6476 375.29 34.6952L370.84 37.8145C406.465 88.6381 444.285 142.63 494.032 181.695L497.388 177.421ZM375.29 34.6952C367.409 23.4523 359.609 12.3243 351.795 1.51853L347.391 4.70315C355.178 15.4709 362.955 26.5657 370.84 37.8145L375.29 34.6952ZM611.625 75.9242L611.626 75.9243L612.131 70.5133L612.13 70.5132L611.625 75.9242ZM611.702 75.9304C656.946 78.8788 698.162 81.5673 731.148 86.768L731.994 81.3997C698.709 76.1519 657.214 73.4502 612.055 70.5073L611.702 75.9304ZM496.173 174.967C447.116 136.916 409.637 83.569 373.782 32.4977L369.334 35.6204C405.095 86.5575 443.025 140.621 492.842 179.261L496.173 174.967ZM373.792 32.5118L373.789 32.5086L369.322 35.6031L369.324 35.6064L373.792 32.5118ZM345.778 2.41307L347.371 4.67528L351.815 1.5464L350.222 -0.715805L345.778 2.41307Z" fill="#1573FF" mask="url(#path-1-inside-1_290_138)"/>
<mask id="path-3-inside-2_290_138" fill="white">
<path d="M386.908 253.173C437.773 312.352 541.348 336.849 541.348 336.849C570.49 343.73 622.659 342.436 657.284 333.976C657.284 333.976 754.56 310.201 746.214 265.746C742.039 244.173 714.937 222.618 662.533 204.434C611.085 185.786 506.312 162.637 506.312 162.637C476.905 156.144 444.917 149.122 435.221 147.043L426.813 144.962C458.598 153.799 490.158 161.596 519.996 168.968L519.997 168.968C563.972 179.833 604.206 189.773 635.902 200.754C690.085 218.685 720.183 239.565 727.235 260.73C741.724 303.9 652.538 327.207 652.538 327.207C617.934 336.243 565.621 338.19 536.363 331.495C536.363 331.495 436.643 308.732 386.155 250.555C344.248 204.099 316.597 144.59 290.337 88.0741L290.336 88.0705C284.535 75.5874 278.803 63.2503 273 51.2322L274.169 53.7397C279.947 65.7322 285.656 78.0421 291.434 90.5011C317.579 146.878 345.138 206.306 386.908 253.173Z"/>
</mask>
<path d="M386.908 253.173C437.773 312.352 541.348 336.849 541.348 336.849C570.49 343.73 622.659 342.436 657.284 333.976C657.284 333.976 754.56 310.201 746.214 265.746C742.039 244.173 714.937 222.618 662.533 204.434C611.085 185.786 506.312 162.637 506.312 162.637C476.905 156.144 444.917 149.122 435.221 147.043L426.813 144.962C458.598 153.799 490.158 161.596 519.996 168.968L519.997 168.968C563.972 179.833 604.206 189.773 635.902 200.754C690.085 218.685 720.183 239.565 727.235 260.73C741.724 303.9 652.538 327.207 652.538 327.207C617.934 336.243 565.621 338.19 536.363 331.495C536.363 331.495 436.643 308.732 386.155 250.555C344.248 204.099 316.597 144.59 290.337 88.0741L290.336 88.0705C284.535 75.5874 278.803 63.2503 273 51.2322L274.169 53.7397C279.947 65.7322 285.656 78.0421 291.434 90.5011C317.579 146.878 345.138 206.306 386.908 253.173Z" fill="#EAFE01"/>
<path d="M386.908 253.173L388.969 251.402L388.953 251.383L388.937 251.365L386.908 253.173ZM541.348 336.849L540.723 339.493L540.724 339.493L541.348 336.849ZM657.284 333.976L657.929 336.616L657.93 336.616L657.284 333.976ZM746.214 265.746L748.885 265.244L748.883 265.237L748.882 265.229L746.214 265.746ZM662.533 204.434L661.607 206.988L661.624 206.995L661.642 207.001L662.533 204.434ZM506.312 162.637L506.899 159.984L506.898 159.983L506.312 162.637ZM435.221 147.043L434.568 149.68L434.609 149.691L434.651 149.7L435.221 147.043ZM426.813 144.962L427.466 142.324L426.085 147.58L426.813 144.962ZM635.902 200.754L635.012 203.322L635.03 203.328L635.048 203.334L635.902 200.754ZM727.235 260.73L724.658 261.589L724.659 261.595L727.235 260.73ZM652.538 327.207L653.225 329.836L653.225 329.836L652.538 327.207ZM536.363 331.495L536.969 328.846L536.968 328.846L536.363 331.495ZM386.155 250.555L388.207 248.774L388.19 248.755L388.173 248.735L386.155 250.555ZM273 51.2322L275.447 50.0506L270.537 52.3806L273 51.2322ZM290.336 88.0705L292.807 86.9411L292.803 86.9333L292.8 86.9255L290.336 88.0705ZM519.996 168.968L520.722 166.349L520.685 166.339L520.648 166.33L519.996 168.968ZM291.434 90.5011L288.969 91.6443L288.969 91.6443L291.434 90.5011ZM274.169 53.7397L271.707 54.8881L271.714 54.9036L271.721 54.9191L274.169 53.7397ZM519.997 168.968L519.272 171.587L519.309 171.597L519.346 171.606L519.997 168.968ZM290.337 88.0741L287.866 89.2036L287.869 89.2114L287.873 89.2191L290.337 88.0741ZM384.847 254.944C410.694 285.016 449.773 306.134 482.152 319.709C498.379 326.512 513.003 331.453 523.573 334.694C528.86 336.315 533.136 337.512 536.095 338.305C537.575 338.702 538.726 338.997 539.51 339.194C539.902 339.293 540.202 339.367 540.406 339.417C540.508 339.441 540.586 339.46 540.639 339.473C540.665 339.479 540.685 339.484 540.7 339.487C540.707 339.489 540.712 339.49 540.716 339.491C540.718 339.492 540.72 339.492 540.721 339.492C540.722 339.493 540.723 339.493 541.348 336.849C541.974 334.204 541.974 334.204 541.974 334.204C541.973 334.204 541.972 334.204 541.971 334.204C541.969 334.203 541.965 334.202 541.959 334.201C541.948 334.198 541.931 334.194 541.908 334.188C541.861 334.177 541.789 334.16 541.693 334.137C541.502 334.09 541.214 334.019 540.835 333.924C540.077 333.733 538.953 333.445 537.502 333.056C534.598 332.278 530.385 331.099 525.167 329.498C514.727 326.297 500.278 321.415 484.253 314.697C452.128 301.229 413.987 280.509 388.969 251.402L384.847 254.944ZM540.724 339.493C570.356 346.49 622.966 345.158 657.929 336.616L656.64 331.337C622.352 339.714 570.625 340.97 541.973 334.204L540.724 339.493ZM657.284 333.976C657.93 336.616 657.931 336.616 657.932 336.615C657.933 336.615 657.935 336.615 657.936 336.614C657.94 336.613 657.945 336.612 657.952 336.61C657.965 336.607 657.985 336.602 658.01 336.596C658.059 336.584 658.132 336.566 658.228 336.542C658.418 336.494 658.697 336.422 659.06 336.328C659.784 336.139 660.84 335.858 662.178 335.485C664.853 334.74 668.657 333.626 673.194 332.151C682.257 329.203 694.288 324.796 706.083 318.968C717.843 313.157 729.553 305.845 737.823 297.019C746.124 288.159 751.185 277.5 748.885 265.244L743.544 266.247C745.416 276.219 741.447 285.203 733.857 293.303C726.234 301.439 715.191 308.406 703.675 314.096C692.194 319.768 680.428 324.083 671.513 326.983C667.06 328.431 663.33 329.522 660.718 330.25C659.412 330.614 658.387 330.888 657.69 331.069C657.342 331.16 657.076 331.227 656.899 331.272C656.81 331.294 656.744 331.311 656.7 331.322C656.679 331.327 656.663 331.331 656.652 331.334C656.647 331.335 656.644 331.336 656.641 331.336C656.64 331.337 656.64 331.337 656.639 331.337C656.639 331.337 656.639 331.337 657.284 333.976ZM748.882 265.229C746.615 253.516 738.213 242.21 724.087 231.643C709.935 221.057 689.775 211.01 663.423 201.867L661.642 207.001C687.695 216.041 707.288 225.864 720.832 235.995C734.401 246.144 741.638 256.402 743.546 266.262L748.882 265.229ZM663.459 201.879C637.587 192.502 598.408 182.023 565.786 173.906C549.456 169.842 534.737 166.362 524.1 163.898C518.781 162.666 514.483 161.688 511.513 161.017C510.028 160.682 508.875 160.424 508.093 160.249C507.702 160.162 507.404 160.096 507.203 160.051C507.103 160.029 507.027 160.012 506.976 160.001C506.951 159.995 506.931 159.991 506.918 159.988C506.912 159.987 506.907 159.985 506.904 159.985C506.902 159.984 506.901 159.984 506.9 159.984C506.899 159.984 506.899 159.984 506.312 162.637C505.726 165.29 505.726 165.29 505.727 165.29C505.728 165.291 505.729 165.291 505.73 165.291C505.734 165.292 505.738 165.293 505.744 165.294C505.757 165.297 505.776 165.301 505.801 165.307C505.851 165.318 505.926 165.334 506.025 165.357C506.224 165.401 506.521 165.467 506.909 165.553C507.687 165.727 508.836 165.984 510.316 166.319C513.277 166.987 517.566 167.963 522.874 169.193C533.49 171.652 548.179 175.125 564.473 179.179C597.1 187.298 636.03 197.718 661.607 206.988L663.459 201.879ZM506.898 159.983C477.493 153.491 445.497 146.467 435.79 144.386L434.651 149.7C444.338 151.777 476.316 158.797 505.726 165.29L506.898 159.983ZM435.874 144.405L427.466 142.324L426.16 147.599L434.568 149.68L435.874 144.405ZM635.048 203.334C662.007 212.255 682.831 221.866 697.737 231.791C712.684 241.744 721.405 251.828 724.658 261.589L729.813 259.871C726.013 248.467 716.159 237.529 700.749 227.268C685.297 216.979 663.98 207.184 636.756 198.174L635.048 203.334ZM724.659 261.595C727.929 271.338 725.43 279.96 719.519 287.677C713.531 295.495 704.122 302.236 694.015 307.774C683.947 313.289 673.401 317.495 665.346 320.327C661.325 321.74 657.939 322.806 655.563 323.518C654.375 323.873 653.441 324.14 652.806 324.317C652.489 324.405 652.247 324.471 652.086 324.515C652.005 324.537 651.945 324.553 651.906 324.563C651.886 324.568 651.872 324.572 651.863 324.575C651.858 324.576 651.855 324.577 651.853 324.577C651.852 324.577 651.852 324.577 651.851 324.578C651.851 324.578 651.851 324.578 652.538 327.207C653.225 329.836 653.226 329.835 653.228 329.835C653.229 329.835 653.23 329.834 653.232 329.834C653.236 329.833 653.241 329.832 653.247 329.83C653.259 329.827 653.277 329.822 653.3 329.816C653.347 329.803 653.414 329.786 653.502 329.762C653.677 329.714 653.934 329.644 654.267 329.552C654.932 329.366 655.899 329.09 657.122 328.724C659.566 327.992 663.035 326.9 667.148 325.454C675.364 322.566 686.208 318.247 696.626 312.54C707.003 306.855 717.174 299.675 723.834 290.982C730.57 282.187 733.786 271.708 729.812 259.866L724.659 261.595ZM651.852 324.577C634.791 329.033 613.267 331.76 592.345 332.535C571.402 333.31 551.273 332.12 536.969 328.846L535.757 334.144C550.711 337.566 571.367 338.749 592.546 337.966C613.747 337.181 635.682 334.417 653.225 329.836L651.852 324.577ZM536.363 331.495C536.968 328.846 536.968 328.846 536.968 328.846C536.967 328.846 536.966 328.846 536.965 328.846C536.963 328.845 536.959 328.844 536.954 328.843C536.943 328.841 536.927 328.837 536.904 328.832C536.859 328.821 536.791 328.805 536.699 328.783C536.515 328.74 536.238 328.674 535.874 328.585C535.144 328.408 534.063 328.138 532.664 327.774C529.868 327.046 525.808 325.938 520.774 324.427C510.704 321.404 496.751 316.771 481.233 310.332C450.129 297.426 413.04 277.388 388.207 248.774L384.103 252.336C409.759 281.899 447.773 302.332 479.151 315.351C494.874 321.876 509.007 326.569 519.212 329.632C524.315 331.164 528.44 332.29 531.294 333.033C532.722 333.405 533.831 333.681 534.588 333.866C534.966 333.958 535.255 334.027 535.452 334.073C535.55 334.096 535.625 334.114 535.676 334.126C535.702 334.132 535.722 334.136 535.735 334.139C535.742 334.141 535.747 334.142 535.751 334.143C535.753 334.143 535.755 334.144 535.756 334.144C535.757 334.144 535.758 334.144 536.363 331.495ZM270.553 52.4137C276.346 64.4105 282.07 76.729 287.871 89.2155L292.8 86.9255C287.001 74.4458 281.26 62.0901 275.447 50.0506L270.553 52.4137ZM520.648 166.33C490.805 158.957 459.282 151.168 427.541 142.344L426.085 147.58C457.914 156.429 489.512 164.235 519.344 171.606L520.648 166.33ZM388.937 251.365C347.48 204.85 320.077 145.806 293.899 89.3579L288.969 91.6443C315.08 147.95 342.796 207.761 384.88 254.981L388.937 251.365ZM293.899 89.3579C288.123 76.9023 282.405 64.574 276.617 52.5603L271.721 54.9191C277.489 66.8905 283.189 79.182 288.969 91.6443L293.899 89.3579ZM519.271 171.586L519.272 171.587L520.723 166.349L520.722 166.349L519.271 171.586ZM519.346 171.606C563.362 182.481 603.459 192.39 635.012 203.322L636.792 198.186C604.952 187.156 564.583 177.184 520.649 166.33L519.346 171.606ZM388.173 248.735C346.588 202.636 319.096 143.519 292.801 86.9291L287.873 89.2191C314.099 145.661 341.909 205.562 384.137 252.376L388.173 248.735ZM292.809 86.9447L292.807 86.9411L287.864 89.2L287.866 89.2036L292.809 86.9447ZM270.537 52.3806L271.707 54.8881L276.632 52.5912L275.463 50.0837L270.537 52.3806Z" fill="#1573FF" mask="url(#path-3-inside-2_290_138)"/>
<mask id="path-5-inside-3_290_138" fill="white">
<path d="M262.908 89.874C313.773 30.6955 417.348 6.19847 417.348 6.19847C446.49 -0.68278 498.659 0.611273 533.284 9.07075C533.284 9.07075 630.56 32.8459 622.214 77.3016C618.039 98.8744 590.937 120.43 538.533 138.613C487.085 157.261 382.312 180.41 382.312 180.41C352.905 186.903 320.917 193.925 311.221 196.004L302.813 198.085C334.598 189.248 366.158 181.451 395.996 174.079L395.997 174.079C439.972 163.214 480.206 153.274 511.902 142.293C566.085 124.362 596.183 103.482 603.235 82.3168C617.724 39.1475 528.538 15.8406 528.538 15.8406C493.934 6.80407 441.621 4.85709 412.363 11.5518C412.363 11.5518 312.643 34.3149 262.155 92.4917C220.248 138.948 192.597 198.457 166.337 254.973L166.336 254.977C160.535 267.46 154.803 279.797 149 291.815L150.169 289.307C155.947 277.315 161.656 265.005 167.434 252.546C193.579 196.169 221.138 136.742 262.908 89.874Z"/>
</mask>
<path d="M262.908 89.874C313.773 30.6955 417.348 6.19847 417.348 6.19847C446.49 -0.68278 498.659 0.611273 533.284 9.07075C533.284 9.07075 630.56 32.8459 622.214 77.3016C618.039 98.8744 590.937 120.43 538.533 138.613C487.085 157.261 382.312 180.41 382.312 180.41C352.905 186.903 320.917 193.925 311.221 196.004L302.813 198.085C334.598 189.248 366.158 181.451 395.996 174.079L395.997 174.079C439.972 163.214 480.206 153.274 511.902 142.293C566.085 124.362 596.183 103.482 603.235 82.3168C617.724 39.1475 528.538 15.8406 528.538 15.8406C493.934 6.80407 441.621 4.85709 412.363 11.5518C412.363 11.5518 312.643 34.3149 262.155 92.4917C220.248 138.948 192.597 198.457 166.337 254.973L166.336 254.977C160.535 267.46 154.803 279.797 149 291.815L150.169 289.307C155.947 277.315 161.656 265.005 167.434 252.546C193.579 196.169 221.138 136.742 262.908 89.874Z" fill="#EAFE01"/>
<path d="M262.908 89.874L264.969 91.6453L264.953 91.6638L264.937 91.682L262.908 89.874ZM417.348 6.19847L416.723 3.55413L416.724 3.5539L417.348 6.19847ZM533.284 9.07075L533.929 6.43109L533.93 6.43115L533.284 9.07075ZM622.214 77.3016L624.885 77.803L624.883 77.8105L624.882 77.818L622.214 77.3016ZM538.533 138.613L537.607 136.059L537.624 136.052L537.642 136.046L538.533 138.613ZM382.312 180.41L382.899 183.064L382.898 183.064L382.312 180.41ZM311.221 196.004L310.568 193.367L310.609 193.356L310.651 193.347L311.221 196.004ZM302.813 198.085L303.466 200.723L302.085 195.467L302.813 198.085ZM511.902 142.293L511.012 139.725L511.03 139.719L511.048 139.713L511.902 142.293ZM603.235 82.3168L600.658 81.4578L600.659 81.4522L603.235 82.3168ZM528.538 15.8406L529.225 13.2114L529.225 13.2116L528.538 15.8406ZM412.363 11.5518L412.969 14.2006L412.968 14.2009L412.363 11.5518ZM262.155 92.4917L264.207 94.2727L264.19 94.2924L264.173 94.3118L262.155 92.4917ZM149 291.815L151.447 292.997L146.537 290.666L149 291.815ZM166.336 254.977L168.807 256.106L168.803 256.114L168.8 256.122L166.336 254.977ZM395.996 174.079L396.722 176.698L396.685 176.708L396.648 176.717L395.996 174.079ZM167.434 252.546L164.969 251.403L164.969 251.403L167.434 252.546ZM150.169 289.307L147.707 288.159L147.714 288.143L147.721 288.128L150.169 289.307ZM395.997 174.079L395.272 171.46L395.309 171.45L395.346 171.441L395.997 174.079ZM166.337 254.973L163.866 253.844L163.869 253.836L163.873 253.828L166.337 254.973ZM260.847 88.1028C286.694 58.0315 325.773 36.9132 358.152 23.3384C374.379 16.5352 389.003 11.5942 399.573 8.3529C404.86 6.73185 409.136 5.5349 412.095 4.74194C413.575 4.34544 414.726 4.04989 415.51 3.85277C415.902 3.75421 416.202 3.68025 416.406 3.63058C416.508 3.60575 416.586 3.58699 416.639 3.57426C416.665 3.56789 416.685 3.56304 416.7 3.55968C416.707 3.55801 416.712 3.55671 416.716 3.55578C416.718 3.55532 416.72 3.55491 416.721 3.55468C416.722 3.55436 416.723 3.55413 417.348 6.19847C417.974 8.84281 417.974 8.84278 417.974 8.84283C417.973 8.84297 417.972 8.84312 417.971 8.84341C417.969 8.84398 417.965 8.84492 417.959 8.84624C417.948 8.84888 417.931 8.85301 417.908 8.85865C417.861 8.86992 417.789 8.8872 417.693 8.91052C417.502 8.95717 417.214 9.02799 416.835 9.1233C416.077 9.31392 414.953 9.60246 413.502 9.99138C410.598 10.7693 406.385 11.9485 401.167 13.5487C390.727 16.7499 376.278 21.6318 360.253 28.3503C328.128 41.8186 289.987 62.5381 264.969 91.6453L260.847 88.1028ZM416.724 3.5539C446.356 -3.44308 498.966 -2.11092 533.929 6.43109L532.64 11.7104C498.352 3.33347 446.625 2.07752 417.973 8.84304L416.724 3.5539ZM533.284 9.07075C533.93 6.43115 533.931 6.43138 533.932 6.4317C533.933 6.43193 533.935 6.43235 533.936 6.43281C533.94 6.43372 533.945 6.43501 533.952 6.43665C533.965 6.43994 533.985 6.44468 534.01 6.45088C534.059 6.46327 534.132 6.48147 534.228 6.50547C534.418 6.55347 534.697 6.62468 535.06 6.719C535.784 6.90762 536.84 7.18876 538.178 7.56167C540.853 8.30735 544.657 9.42076 549.194 10.8962C558.257 13.8437 570.288 18.2512 582.083 24.0792C593.843 29.8899 605.553 37.202 613.823 46.0279C622.124 54.888 627.185 65.5473 624.885 77.803L619.544 76.8003C621.416 66.828 617.447 57.8446 609.857 49.7437C602.234 41.6086 591.191 34.6414 579.675 28.9514C568.194 23.2787 556.428 18.9639 547.513 16.0643C543.06 14.6162 539.33 13.5248 536.718 12.7967C535.412 12.4326 534.387 12.1596 533.69 11.9782C533.342 11.8875 533.076 11.8198 532.899 11.7751C532.81 11.7528 532.744 11.7362 532.7 11.7254C532.679 11.72 532.663 11.7161 532.652 11.7135C532.647 11.7123 532.644 11.7114 532.641 11.7109C532.64 11.7106 532.64 11.7105 532.639 11.7103C532.639 11.7103 532.639 11.7103 533.284 9.07075ZM624.882 77.818C622.615 89.5309 614.213 100.837 600.087 111.404C585.935 121.99 565.775 132.037 539.423 141.18L537.642 136.046C563.695 127.006 583.288 117.183 596.832 107.052C610.401 96.9027 617.638 86.6451 619.546 76.7852L624.882 77.818ZM539.459 141.168C513.587 150.545 474.408 161.024 441.786 169.142C425.456 173.205 410.737 176.685 400.1 179.149C394.781 180.381 390.483 181.359 387.513 182.03C386.028 182.365 384.875 182.623 384.093 182.798C383.702 182.885 383.404 182.951 383.203 182.996C383.103 183.018 383.027 183.035 382.976 183.046C382.951 183.052 382.931 183.056 382.918 183.059C382.912 183.061 382.907 183.062 382.904 183.062C382.902 183.063 382.901 183.063 382.9 183.063C382.899 183.063 382.899 183.064 382.312 180.41C381.726 177.757 381.726 177.757 381.727 177.757C381.728 177.757 381.729 177.756 381.73 177.756C381.734 177.755 381.738 177.754 381.744 177.753C381.757 177.75 381.776 177.746 381.801 177.74C381.851 177.729 381.926 177.713 382.025 177.691C382.224 177.646 382.521 177.581 382.909 177.494C383.687 177.32 384.836 177.063 386.316 176.729C389.277 176.06 393.566 175.084 398.874 173.855C409.49 171.395 424.179 167.923 440.473 163.868C473.1 155.749 512.03 145.329 537.607 136.059L539.459 141.168ZM382.898 183.064C353.493 189.556 321.497 196.58 311.79 198.661L310.651 193.347C320.338 191.27 352.316 184.25 381.726 177.757L382.898 183.064ZM311.874 198.642L303.466 200.723L302.16 195.448L310.568 193.367L311.874 198.642ZM511.048 139.713C538.007 130.792 558.831 121.181 573.737 111.256C588.684 101.303 597.405 91.2187 600.658 81.4578L605.813 83.1758C602.013 94.5801 592.159 105.518 576.749 115.779C561.297 126.068 539.98 135.863 512.756 144.873L511.048 139.713ZM600.659 81.4522C603.929 71.7094 601.43 63.0871 595.519 55.3702C589.531 47.5525 580.122 40.8109 570.015 35.2733C559.947 29.7577 549.401 25.5516 541.346 22.7203C537.325 21.3068 533.939 20.2408 531.563 19.5295C530.375 19.1739 529.441 18.9072 528.806 18.7302C528.489 18.6417 528.247 18.5757 528.086 18.5322C528.005 18.5105 527.945 18.4944 527.906 18.4839C527.886 18.4787 527.872 18.4749 527.863 18.4725C527.858 18.4713 527.855 18.4705 527.853 18.47C527.852 18.4697 527.852 18.4696 527.851 18.4695C527.851 18.4695 527.851 18.4696 528.538 15.8406C529.225 13.2116 529.226 13.2118 529.228 13.2122C529.229 13.2124 529.23 13.2128 529.232 13.2133C529.236 13.2142 529.241 13.2155 529.247 13.2172C529.259 13.2205 529.277 13.2252 529.3 13.2313C529.347 13.2436 529.414 13.2616 529.502 13.2853C529.677 13.3326 529.934 13.4028 530.267 13.4955C530.932 13.681 531.899 13.9572 533.122 14.3232C535.566 15.0551 539.035 16.1473 543.148 17.5933C551.364 20.4811 562.208 24.7998 572.626 30.5071C583.003 36.1925 593.174 43.3718 599.834 52.0655C606.57 60.86 609.786 71.3395 605.812 83.1814L600.659 81.4522ZM527.852 18.4697C510.791 14.0144 489.267 11.2867 468.345 10.5124C447.402 9.73731 427.273 10.9276 412.969 14.2006L411.757 8.90296C426.711 5.48129 447.367 4.29771 468.546 5.08155C489.747 5.86617 511.682 8.6302 529.225 13.2114L527.852 18.4697ZM412.363 11.5518C412.968 14.2009 412.968 14.2009 412.968 14.2009C412.967 14.2011 412.966 14.2012 412.965 14.2015C412.963 14.202 412.959 14.2028 412.954 14.2041C412.943 14.2065 412.927 14.2103 412.904 14.2155C412.859 14.226 412.791 14.242 412.699 14.2637C412.515 14.307 412.238 14.3729 411.874 14.4617C411.144 14.6394 410.063 14.9088 408.664 15.273C405.868 16.0016 401.808 17.1091 396.774 18.6201C386.704 21.6429 372.751 26.2766 357.233 32.7153C326.129 45.6214 289.04 65.6588 264.207 94.2727L260.103 90.7107C285.759 61.1478 323.773 40.7152 355.151 27.6956C370.874 21.1714 385.007 16.4782 395.212 13.415C400.315 11.8829 404.44 10.7576 407.294 10.014C408.722 9.64217 409.831 9.36572 410.588 9.18155C410.966 9.08946 411.255 9.02043 411.452 8.97408C411.55 8.9509 411.625 8.93339 411.676 8.9215C411.702 8.91556 411.722 8.91102 411.735 8.90788C411.742 8.90631 411.747 8.90508 411.751 8.90421C411.753 8.90378 411.755 8.90338 411.756 8.90317C411.757 8.90286 411.758 8.90264 412.363 11.5518ZM146.553 290.633C152.346 278.637 158.07 266.318 163.871 253.832L168.8 256.122C163.001 268.601 157.26 280.957 151.447 292.997L146.553 290.633ZM396.648 176.717C366.805 184.09 335.282 191.879 303.541 200.703L302.085 195.467C333.914 186.618 365.512 178.812 395.344 171.441L396.648 176.717ZM264.937 91.682C223.48 138.197 196.077 197.241 169.899 253.689L164.969 251.403C191.08 195.097 218.796 135.286 260.88 88.0661L264.937 91.682ZM169.899 253.689C164.123 266.145 158.405 278.473 152.617 290.487L147.721 288.128C153.489 276.157 159.189 263.865 164.969 251.403L169.899 253.689ZM395.271 171.461L395.272 171.46L396.723 176.698L396.722 176.698L395.271 171.461ZM395.346 171.441C439.362 160.566 479.459 150.657 511.012 139.725L512.792 144.861C480.952 155.891 440.583 165.863 396.649 176.717L395.346 171.441ZM264.173 94.3118C222.588 140.411 195.096 199.528 168.801 256.118L163.873 253.828C190.099 197.386 217.909 137.485 260.137 90.6716L264.173 94.3118ZM168.809 256.102L168.807 256.106L163.864 253.847L163.866 253.844L168.809 256.102ZM146.537 290.666L147.707 288.159L152.632 290.456L151.463 292.963L146.537 290.666Z" fill="#1573FF" mask="url(#path-5-inside-3_290_138)"/>
<mask id="path-7-inside-4_290_138" fill="white">
<path d="M110.089 140.835C146.813 71.9821 242.545 25.4706 242.545 25.4706C269.482 12.3951 320.675 2.27237 356.313 2.97092C356.313 2.97092 456.432 4.94296 457.99 50.1484C458.623 72.1124 436.879 99.0628 389.707 128.245C343.569 157.672 246.374 203.129 246.374 203.129C219.092 215.884 189.409 229.717 180.4 233.863L172.649 237.729C201.739 222.168 230.837 207.671 258.347 193.965L258.348 193.964C298.892 173.764 335.985 155.283 364.521 137.648C413.485 108.324 438.3 81.3789 440.563 59.1847C445.281 13.894 353.159 10.6134 353.159 10.6134C317.417 9.34692 265.939 18.8641 238.848 31.7829C238.848 31.7829 146.5 75.7608 109.926 143.554C79.1681 198.037 65.1713 262.146 51.8786 323.03L51.8778 323.034C48.9419 336.482 46.0404 349.773 43 362.768L43.5939 360.066C46.6151 347.101 49.4997 333.842 52.4191 320.423C65.6296 259.699 79.5547 195.689 110.089 140.835Z"/>
</mask>
<path d="M110.089 140.835C146.813 71.9821 242.545 25.4706 242.545 25.4706C269.482 12.3951 320.675 2.27237 356.313 2.97092C356.313 2.97092 456.432 4.94296 457.99 50.1484C458.623 72.1124 436.879 99.0628 389.707 128.245C343.569 157.672 246.374 203.129 246.374 203.129C219.092 215.884 189.409 229.717 180.4 233.863L172.649 237.729C201.739 222.168 230.837 207.671 258.347 193.965L258.348 193.964C298.892 173.764 335.985 155.283 364.521 137.648C413.485 108.324 438.3 81.3789 440.563 59.1847C445.281 13.894 353.159 10.6134 353.159 10.6134C317.417 9.34692 265.939 18.8641 238.848 31.7829C238.848 31.7829 146.5 75.7608 109.926 143.554C79.1681 198.037 65.1713 262.146 51.8786 323.03L51.8778 323.034C48.9419 336.482 46.0404 349.773 43 362.768L43.5939 360.066C46.6151 347.101 49.4997 333.842 52.4191 320.423C65.6296 259.699 79.5547 195.689 110.089 140.835Z" fill="#EAFE01"/>
<path d="M110.089 140.835L112.487 142.114L112.475 142.135L112.463 142.157L110.089 140.835ZM242.545 25.4706L241.357 23.0265L241.358 23.0261L242.545 25.4706ZM356.313 2.97092L356.366 0.254149L356.366 0.254154L356.313 2.97092ZM457.99 50.1484L460.705 50.0548L460.706 50.0624L460.706 50.0701L457.99 50.1484ZM389.707 128.245L388.245 125.954L388.261 125.944L388.277 125.934L389.707 128.245ZM246.374 203.129L247.525 205.591L247.525 205.591L246.374 203.129ZM180.4 233.863L179.187 231.431L179.225 231.412L179.264 231.394L180.4 233.863ZM172.649 237.729L173.861 240.161L171.367 235.333L172.649 237.729ZM364.521 137.648L363.093 135.337L363.109 135.327L363.125 135.317L364.521 137.648ZM440.563 59.1847L437.86 58.909L437.861 58.9031L440.563 59.1847ZM353.159 10.6134L353.255 7.89777L353.255 7.89779L353.159 10.6134ZM238.848 31.7829L240.017 34.2356L240.016 34.2362L238.848 31.7829ZM109.926 143.554L112.317 144.844L112.305 144.867L112.292 144.89L109.926 143.554ZM43 362.768L45.6458 363.387L40.346 362.185L43 362.768ZM51.8778 323.034L54.5362 323.597L54.5344 323.606L54.5326 323.614L51.8778 323.034ZM258.347 193.965L259.626 196.362L259.592 196.38L259.558 196.397L258.347 193.965ZM52.4191 320.423L49.7639 319.845L49.7639 319.845L52.4191 320.423ZM43.5939 360.066L40.94 359.483L40.9436 359.466L40.9475 359.449L43.5939 360.066ZM258.348 193.964L257.068 191.567L257.102 191.549L257.136 191.532L258.348 193.964ZM51.8786 323.03L49.2203 322.468L49.222 322.459L49.2239 322.451L51.8786 323.03ZM107.692 139.556C126.352 104.569 159.88 75.4309 188.516 55.1167C202.867 44.9361 216.06 36.9225 225.668 31.4524C230.473 28.7167 234.385 26.6154 237.1 25.1956C238.458 24.4857 239.517 23.9461 240.239 23.5826C240.6 23.4009 240.877 23.2632 241.065 23.1703C241.159 23.1238 241.23 23.0885 241.279 23.0645C241.304 23.0525 241.322 23.0434 241.335 23.037C241.342 23.0338 241.347 23.0314 241.351 23.0296C241.352 23.0287 241.354 23.028 241.355 23.0275C241.356 23.0269 241.357 23.0265 242.545 25.4706C243.732 27.9147 243.732 27.9146 243.732 27.9147C243.731 27.915 243.731 27.9153 243.73 27.9158C243.727 27.9169 243.724 27.9187 243.719 27.9212C243.708 27.9262 243.692 27.934 243.671 27.9446C243.627 27.9659 243.561 27.9983 243.473 28.042C243.297 28.1293 243.031 28.2611 242.682 28.4369C241.984 28.7884 240.95 29.3152 239.618 30.0116C236.955 31.4044 233.1 33.4747 228.357 36.1753C218.868 41.5777 205.833 49.4953 191.66 59.5492C163.249 79.704 130.549 108.248 112.487 142.114L107.692 139.556ZM241.358 23.0261C268.749 9.73068 320.381 -0.451223 356.366 0.254149L356.259 5.6877C320.97 4.99596 270.216 15.0595 243.731 27.9151L241.358 23.0261ZM356.313 2.97092C356.366 0.254154 356.367 0.254174 356.369 0.254201C356.37 0.25422 356.371 0.254256 356.373 0.254295C356.377 0.254374 356.382 0.254487 356.389 0.254634C356.403 0.254929 356.423 0.255366 356.449 0.255965C356.5 0.257162 356.575 0.259005 356.673 0.261652C356.87 0.266946 357.158 0.275456 357.532 0.288448C358.28 0.314429 359.372 0.358341 360.759 0.430306C363.532 0.57421 367.488 0.830431 372.237 1.2802C381.725 2.17872 394.428 3.85419 407.21 6.9675C419.955 10.0716 432.979 14.6517 442.975 21.46C453.01 28.2947 460.276 37.5925 460.705 50.0548L455.274 50.242C454.925 40.1016 449.091 32.2008 439.916 25.9517C430.702 19.6763 418.404 15.2873 405.924 12.2477C393.482 9.21736 381.058 7.57448 371.724 6.69058C367.063 6.24913 363.185 5.99812 360.477 5.8576C359.123 5.78735 358.062 5.74474 357.343 5.71977C356.984 5.70728 356.709 5.6992 356.527 5.69427C356.435 5.6918 356.367 5.69013 356.322 5.68909C356.3 5.68856 356.283 5.6882 356.273 5.68797C356.267 5.68786 356.264 5.68778 356.261 5.68774C356.26 5.68771 356.26 5.6877 356.259 5.68769C356.259 5.68769 356.259 5.68769 356.313 2.97092ZM460.706 50.0701C461.05 61.9954 455.319 74.8628 443.839 88.2582C432.338 101.678 414.857 115.882 391.136 130.556L388.277 125.934C411.729 111.426 428.706 97.5641 439.712 84.7217C450.739 71.8552 455.563 60.2654 455.274 50.2267L460.706 50.0701ZM391.168 130.536C367.967 145.334 332.019 164.111 301.955 179.152C286.905 186.682 273.301 193.29 263.458 198.016C258.536 200.379 254.555 202.272 251.803 203.575C250.427 204.226 249.359 204.729 248.634 205.07C248.271 205.241 247.994 205.371 247.808 205.458C247.715 205.502 247.645 205.535 247.597 205.557C247.574 205.568 247.556 205.576 247.544 205.582C247.538 205.585 247.533 205.587 247.53 205.588C247.529 205.589 247.527 205.59 247.527 205.59C247.526 205.59 247.525 205.591 246.374 203.129C245.223 200.668 245.223 200.668 245.224 200.667C245.225 200.667 245.226 200.667 245.227 200.666C245.23 200.665 245.234 200.663 245.24 200.66C245.252 200.654 245.269 200.646 245.292 200.635C245.339 200.614 245.408 200.581 245.501 200.538C245.685 200.451 245.96 200.322 246.321 200.153C247.042 199.813 248.106 199.312 249.478 198.662C252.222 197.364 256.194 195.475 261.106 193.117C270.929 188.4 284.506 181.805 299.523 174.292C329.591 159.248 365.309 140.583 388.245 125.954L391.168 130.536ZM247.525 205.591C220.246 218.344 190.554 232.182 181.536 236.331L179.264 231.394C188.264 227.253 217.939 213.423 245.223 200.668L247.525 205.591ZM181.613 236.295L173.861 240.161L171.436 235.297L179.187 231.431L181.613 236.295ZM363.125 135.317C387.487 120.727 405.711 106.803 418.091 93.8642C430.506 80.8888 436.816 69.1445 437.86 58.909L443.266 59.4604C442.047 71.4191 434.817 84.2445 422.018 97.6214C409.184 111.035 390.519 125.246 365.917 139.98L363.125 135.317ZM437.861 58.9031C438.925 48.6816 434.605 40.8125 427.152 34.5717C419.602 28.2494 408.949 23.7237 397.876 20.5256C386.847 17.3402 375.637 15.5372 367.159 14.532C362.926 14.0302 359.389 13.7289 356.915 13.5533C355.679 13.4655 354.708 13.4091 354.051 13.3749C353.722 13.3578 353.471 13.3461 353.304 13.3389C353.221 13.3352 353.159 13.3327 353.118 13.3311C353.098 13.3303 353.083 13.3297 353.073 13.3294C353.069 13.3292 353.065 13.3291 353.063 13.329C353.063 13.329 353.062 13.3289 353.062 13.3289C353.062 13.3289 353.062 13.3289 353.159 10.6134C353.255 7.89779 353.256 7.89783 353.258 7.89788C353.259 7.89791 353.26 7.89797 353.262 7.89804C353.266 7.89817 353.271 7.89836 353.277 7.8986C353.29 7.89909 353.309 7.8998 353.333 7.90074C353.381 7.90263 353.45 7.90548 353.541 7.90944C353.723 7.91735 353.989 7.92969 354.333 7.94765C355.023 7.98356 356.027 8.04194 357.3 8.13231C359.846 8.31302 363.469 8.62185 367.799 9.13524C376.446 10.1605 387.972 12.0083 399.384 15.3044C410.752 18.5879 422.245 23.3743 430.641 30.4051C439.134 37.5174 444.56 47.0424 443.266 59.4662L437.861 58.9031ZM353.062 13.329C335.441 12.7046 313.84 14.7401 293.254 18.5506C272.646 22.365 253.262 27.9196 240.017 34.2356L237.678 29.3302C251.525 22.7274 271.425 17.0641 292.265 13.2068C313.125 9.34558 335.135 7.25572 353.255 7.89777L353.062 13.329ZM238.848 31.7829C240.016 34.2362 240.016 34.2362 240.016 34.2362C240.015 34.2365 240.015 34.2367 240.014 34.2372C240.012 34.2382 240.008 34.2399 240.003 34.2422C239.994 34.2469 239.978 34.2543 239.957 34.2643C239.916 34.2843 239.852 34.3149 239.767 34.3561C239.597 34.4385 239.342 34.5632 239.005 34.7295C238.332 35.062 237.335 35.5611 236.05 36.2216C233.481 37.5429 229.76 39.5098 225.177 42.0831C216.009 47.2308 203.404 54.798 189.666 64.4681C162.128 83.8515 130.306 111.5 112.317 144.844L107.534 142.264C126.119 107.814 158.758 79.5778 186.538 60.024C200.458 50.2254 213.226 42.561 222.516 37.3444C227.163 34.7354 230.942 32.737 233.566 31.3884C234.877 30.714 235.9 30.202 236.598 29.8573C236.947 29.6849 237.214 29.5543 237.396 29.4662C237.487 29.4221 237.556 29.3887 237.604 29.3659C237.627 29.3545 237.646 29.3457 237.658 29.3397C237.664 29.3367 237.669 29.3343 237.673 29.3326C237.675 29.3318 237.676 29.331 237.677 29.3306C237.678 29.33 237.679 29.3296 238.848 31.7829ZM40.3542 362.149C43.3891 349.177 46.2863 335.906 49.2231 322.455L54.5326 323.614C51.5974 337.058 48.6916 350.369 45.6458 363.387L40.3542 362.149ZM259.558 196.397C232.044 210.105 202.98 224.585 173.93 240.125L171.367 235.333C200.497 219.75 229.63 205.236 257.135 191.532L259.558 196.397ZM112.463 142.157C82.1584 196.598 68.3015 260.199 55.0743 321L49.7639 319.845C62.9576 259.198 76.951 194.78 107.715 139.514L112.463 142.157ZM55.0743 321C52.1557 334.416 49.2668 347.695 46.2403 360.683L40.9475 359.449C43.9634 346.508 46.8437 333.268 49.7639 319.845L55.0743 321ZM257.067 191.567L257.068 191.567L259.627 196.361L259.626 196.362L257.067 191.567ZM257.136 191.532C297.718 171.313 334.686 152.892 363.093 135.337L365.95 139.96C337.285 157.674 300.065 176.215 259.559 196.396L257.136 191.532ZM112.292 144.89C81.7708 198.954 67.8436 262.645 54.5334 323.61L49.2239 322.451C62.4991 261.646 76.5655 197.119 107.559 142.218L112.292 144.89ZM54.537 323.593L54.5362 323.597L49.2195 322.471L49.2203 322.468L54.537 323.593ZM40.346 362.185L40.94 359.483L46.2479 360.649L45.654 363.351L40.346 362.185Z" fill="#1573FF" mask="url(#path-7-inside-4_290_138)"/>
</g>
<defs>
<clipPath id="clip0_290_138">
<rect width="856.9" height="342.19" fill="white" transform="translate(0.799805 0.905029)"/>
</clipPath>
</defs>
</svg>
