<svg width="858" height="344" viewBox="0 0 858 344" fill="none" xmlns="http://www.w3.org/2000/svg">
<g clip-path="url(#clip0_290_139)">
<mask id="path-1-inside-1_290_139" fill="white">
<path d="M364.253 285.558C303.756 334.847 197.485 340.71 197.485 340.71C167.587 342.349 116.462 331.882 83.869 317.454C83.869 317.454 -7.69456 276.91 8.35384 234.62C16.2655 214.121 46.7413 197.678 101.53 189.013C155.458 179.723 262.671 175.398 262.671 175.398C292.762 174.189 325.486 172.913 335.398 172.575L344.041 172.008C311.196 175.106 278.755 177.22 248.085 179.219L248.084 179.219C202.883 182.164 161.528 184.86 128.392 190.084C71.8971 198.187 38.5911 213.436 27.9193 233.028C6.05056 272.968 89.7337 311.626 89.7337 311.626C122.204 326.619 173.356 337.753 203.336 336.319C203.336 336.319 305.506 331.484 365.456 283.114C414.893 244.769 452.597 191.063 488.405 140.059L488.407 140.056C496.316 128.79 504.133 117.656 511.963 106.849L510.37 109.111C502.569 119.898 494.781 131.009 486.898 142.255C451.228 193.143 413.628 246.784 364.253 285.558Z"/>
</mask>
<path d="M364.253 285.558C303.756 334.847 197.485 340.71 197.485 340.71C167.587 342.349 116.462 331.882 83.869 317.454C83.869 317.454 -7.69456 276.91 8.35384 234.62C16.2655 214.121 46.7413 197.678 101.53 189.013C155.458 179.723 262.671 175.398 262.671 175.398C292.762 174.189 325.486 172.913 335.398 172.575L344.041 172.008C311.196 175.106 278.755 177.22 248.085 179.219L248.084 179.219C202.883 182.164 161.528 184.86 128.392 190.084C71.8971 198.187 38.5911 213.436 27.9193 233.028C6.05056 272.968 89.7337 311.626 89.7337 311.626C122.204 326.619 173.356 337.753 203.336 336.319C203.336 336.319 305.506 331.484 365.456 283.114C414.893 244.769 452.597 191.063 488.405 140.059L488.407 140.056C496.316 128.79 504.133 117.656 511.963 106.849L510.37 109.111C502.569 119.898 494.781 131.009 486.898 142.255C451.228 193.143 413.628 246.784 364.253 285.558Z" fill="#EAFE01"/>
<path d="M364.253 285.558L362.537 283.451L362.556 283.436L362.575 283.421L364.253 285.558ZM197.485 340.71L197.635 343.423L197.634 343.423L197.485 340.71ZM83.869 317.454L82.7691 319.938L82.7688 319.938L83.869 317.454ZM8.35384 234.62L5.81333 233.656L5.81604 233.649L5.8188 233.642L8.35384 234.62ZM101.53 189.013L101.991 191.691L101.973 191.694L101.954 191.697L101.53 189.013ZM262.671 175.398L262.561 172.683L262.562 172.683L262.671 175.398ZM335.398 172.575L335.576 175.287L335.533 175.289L335.49 175.291L335.398 172.575ZM344.041 172.008L343.863 169.297L344.296 174.713L344.041 172.008ZM128.392 190.084L128.815 192.768L128.797 192.771L128.778 192.774L128.392 190.084ZM27.9193 233.028L30.3055 234.328L30.3027 234.333L27.9193 233.028ZM89.7337 311.626L88.5946 314.093L88.5942 314.093L89.7337 311.626ZM203.336 336.319L203.206 333.605L203.207 333.605L203.336 336.319ZM365.456 283.114L363.749 280.999L363.77 280.983L363.79 280.967L365.456 283.114ZM511.963 106.849L509.762 105.254L514.185 108.413L511.963 106.849ZM488.407 140.056L486.174 138.509L486.178 138.502L486.183 138.495L488.407 140.056ZM248.085 179.219L247.833 176.513L247.871 176.51L247.909 176.507L248.085 179.219ZM486.898 142.255L489.123 143.815L489.123 143.815L486.898 142.255ZM510.37 109.111L512.592 110.675L512.582 110.689L512.572 110.703L510.37 109.111ZM248.084 179.219L248.337 181.924L248.299 181.928L248.261 181.93L248.084 179.219ZM488.405 140.059L490.639 141.606L490.634 141.613L490.629 141.62L488.405 140.059ZM365.969 287.664C335.228 312.711 293.04 326.613 258.775 334.269C241.603 338.107 226.338 340.394 215.361 341.722C209.872 342.386 205.452 342.811 202.399 343.07C200.873 343.199 199.688 343.287 198.881 343.343C198.478 343.371 198.169 343.391 197.96 343.404C197.855 343.41 197.776 343.415 197.721 343.418C197.694 343.42 197.673 343.421 197.659 343.422C197.651 343.422 197.646 343.423 197.642 343.423C197.64 343.423 197.638 343.423 197.637 343.423C197.636 343.423 197.635 343.423 197.485 340.71C197.335 337.997 197.335 337.997 197.335 337.997C197.336 337.997 197.337 337.997 197.338 337.997C197.34 337.997 197.344 337.996 197.35 337.996C197.361 337.996 197.379 337.995 197.403 337.993C197.451 337.99 197.525 337.986 197.623 337.98C197.82 337.968 198.115 337.949 198.505 337.922C199.285 337.867 200.442 337.781 201.94 337.654C204.935 337.4 209.29 336.982 214.709 336.326C225.549 335.015 240.632 332.755 257.59 328.966C291.586 321.369 332.781 307.695 362.537 283.451L365.969 287.664ZM197.634 343.423C167.232 345.089 115.68 334.508 82.7691 319.938L84.969 314.969C117.244 329.257 167.941 339.608 197.336 337.997L197.634 343.423ZM83.869 317.454C82.7688 319.938 82.7679 319.938 82.7667 319.937C82.7658 319.937 82.7642 319.936 82.7625 319.936C82.7589 319.934 82.754 319.932 82.7478 319.929C82.7352 319.923 82.7171 319.915 82.6937 319.905C82.6467 319.884 82.5781 319.853 82.4886 319.813C82.3097 319.732 82.0472 319.613 81.7073 319.456C81.0274 319.143 80.0376 318.68 78.7865 318.077C76.2848 316.872 72.7359 315.105 68.5304 312.853C60.1287 308.355 49.0625 301.897 38.4791 294.081C27.9271 286.289 17.6884 277.028 11.1034 266.883C4.4929 256.699 1.38907 245.315 5.81333 233.656L10.8944 235.584C7.29441 245.071 9.61788 254.613 15.6619 263.924C21.7315 273.275 31.3746 282.079 41.7074 289.71C52.0089 297.317 62.8306 303.637 71.0956 308.062C75.2233 310.272 78.7025 312.004 81.1455 313.181C82.3667 313.769 83.3284 314.219 83.982 314.52C84.3088 314.671 84.5585 314.784 84.7251 314.86C84.8083 314.897 84.8708 314.925 84.9118 314.944C84.9323 314.953 84.9473 314.959 84.9569 314.964C84.9617 314.966 84.9652 314.967 84.9672 314.968C84.9682 314.969 84.9687 314.969 84.9692 314.969C84.9694 314.969 84.9692 314.969 83.869 317.454ZM5.8188 233.642C10.1144 222.512 20.3766 212.863 36.1443 204.95C51.9404 197.024 73.5552 190.687 101.105 186.329L101.954 191.697C74.7158 196.005 53.6985 202.222 38.5817 209.808C23.4365 217.408 14.5049 226.229 10.8889 235.599L5.8188 233.642ZM101.068 186.336C128.187 181.664 168.6 178.253 202.142 176.011C218.932 174.888 234.034 174.056 244.939 173.505C250.391 173.23 254.795 173.024 257.837 172.888C259.357 172.819 260.538 172.768 261.338 172.734C261.738 172.717 262.044 172.704 262.249 172.696C262.352 172.692 262.43 172.688 262.482 172.686C262.508 172.685 262.528 172.684 262.541 172.684C262.548 172.684 262.553 172.683 262.556 172.683C262.558 172.683 262.559 172.683 262.56 172.683C262.561 172.683 262.561 172.683 262.671 175.398C262.78 178.113 262.78 178.113 262.779 178.113C262.778 178.113 262.777 178.113 262.776 178.113C262.773 178.114 262.768 178.114 262.761 178.114C262.749 178.114 262.729 178.115 262.704 178.116C262.652 178.118 262.576 178.122 262.474 178.126C262.27 178.134 261.967 178.147 261.569 178.164C260.773 178.198 259.597 178.249 258.081 178.317C255.048 178.453 250.655 178.658 245.213 178.933C234.33 179.483 219.258 180.313 202.505 181.433C168.958 183.676 128.801 187.073 101.991 191.691L101.068 186.336ZM262.562 172.683C292.651 171.474 325.384 170.198 335.305 169.859L335.49 175.291C325.589 175.629 292.874 176.904 262.78 178.113L262.562 172.683ZM335.22 169.864L343.863 169.297L344.219 174.72L335.576 175.287L335.22 169.864ZM128.778 192.774C100.669 196.805 78.4772 202.596 62.0559 209.739C45.5883 216.903 35.2271 225.292 30.3055 234.328L25.533 231.728C31.2832 221.172 42.9109 212.141 59.8881 204.756C76.9115 197.351 99.6206 191.465 128.006 187.394L128.778 192.774ZM30.3027 234.333C25.3672 243.347 26.3078 252.275 30.7665 260.912C35.2834 269.663 43.3569 277.957 52.3308 285.189C61.269 292.392 70.9092 298.391 78.3387 302.597C82.0478 304.697 85.193 306.343 87.4065 307.462C88.513 308.021 89.3859 308.448 89.9792 308.734C90.2758 308.877 90.5025 308.985 90.6535 309.056C90.7289 309.092 90.7855 309.118 90.8223 309.136C90.8408 309.144 90.8543 309.151 90.8628 309.154C90.8671 309.156 90.8701 309.158 90.8718 309.159C90.8727 309.159 90.8731 309.159 90.8735 309.159C90.8735 309.159 90.8733 309.159 89.7337 311.626C88.5942 314.093 88.5932 314.092 88.592 314.092C88.5912 314.092 88.5896 314.091 88.588 314.09C88.5846 314.089 88.58 314.086 88.5741 314.084C88.5624 314.078 88.5457 314.07 88.5239 314.06C88.4805 314.04 88.4174 314.01 88.3352 313.972C88.1708 313.894 87.9302 313.78 87.6193 313.63C86.9974 313.33 86.0938 312.888 84.9548 312.312C82.6773 311.161 79.4556 309.475 75.6612 307.326C68.0834 303.036 58.1696 296.874 48.9206 289.42C39.7073 281.995 30.9604 273.136 25.9373 263.405C20.856 253.561 19.537 242.679 25.5358 231.723L30.3027 234.333ZM90.8728 309.159C106.882 316.551 127.588 323.029 148.046 327.478C168.525 331.931 188.549 334.306 203.206 333.605L203.466 339.033C188.143 339.766 167.601 337.292 146.891 332.788C126.161 328.28 105.056 321.694 88.5946 314.093L90.8728 309.159ZM203.336 336.319C203.207 333.605 203.207 333.605 203.207 333.605C203.208 333.605 203.208 333.605 203.21 333.605C203.212 333.605 203.216 333.604 203.221 333.604C203.232 333.604 203.249 333.603 203.272 333.602C203.318 333.599 203.389 333.596 203.483 333.59C203.672 333.58 203.955 333.564 204.33 333.541C205.079 333.495 206.192 333.42 207.632 333.308C210.513 333.083 214.705 332.709 219.926 332.108C230.372 330.907 244.923 328.805 261.332 325.201C294.224 317.978 334.264 304.79 363.749 280.999L367.162 285.229C336.698 309.808 295.678 323.222 262.498 330.509C245.87 334.161 231.132 336.29 220.547 337.507C215.253 338.116 210.995 338.497 208.054 338.726C206.584 338.84 205.442 338.917 204.666 338.965C204.277 338.989 203.98 339.006 203.778 339.017C203.678 339.023 203.601 339.027 203.548 339.029C203.522 339.031 203.502 339.032 203.488 339.032C203.481 339.033 203.475 339.033 203.471 339.033C203.469 339.033 203.468 339.033 203.467 339.033C203.465 339.033 203.464 339.033 203.336 336.319ZM514.163 108.443C506.347 119.231 498.542 130.348 490.631 141.617L486.183 138.495C494.09 127.232 501.918 116.081 509.762 105.254L514.163 108.443ZM247.909 176.507C278.584 174.508 310.986 172.396 343.786 169.303L344.296 174.713C311.406 177.816 278.926 179.932 248.262 181.93L247.909 176.507ZM362.575 283.421C411.579 244.938 448.958 191.648 484.673 140.695L489.123 143.815C453.498 194.638 415.677 248.63 365.931 287.695L362.575 283.421ZM484.673 140.695C492.554 129.452 500.354 118.324 508.168 107.519L512.572 110.703C504.785 121.471 497.008 132.566 489.123 143.815L484.673 140.695ZM248.338 181.924L248.337 181.924L247.831 176.513L247.833 176.513L248.338 181.924ZM248.261 181.93C203.017 184.879 161.801 187.567 128.815 192.768L127.969 187.4C161.254 182.152 202.748 179.45 247.907 176.507L248.261 181.93ZM363.79 280.967C412.847 242.916 450.326 189.569 486.181 138.498L490.629 141.62C454.868 192.558 416.938 246.621 367.121 285.261L363.79 280.967ZM486.171 138.512L486.174 138.509L490.641 141.603L490.639 141.606L486.171 138.512ZM514.185 108.413L512.592 110.675L508.148 107.546L509.741 105.284L514.185 108.413Z" fill="#1573FF" mask="url(#path-1-inside-1_290_139)"/>
<mask id="path-3-inside-2_290_139" fill="white">
<path d="M502.71 285.558C563.207 334.847 669.478 340.71 669.478 340.71C699.376 342.349 750.5 331.882 783.094 317.454C783.094 317.454 874.657 276.91 858.609 234.62C850.697 214.121 820.222 197.678 765.433 189.013C711.505 179.723 604.292 175.398 604.292 175.398C574.201 174.189 541.476 172.913 531.565 172.575L522.922 172.008C555.767 175.106 588.208 177.22 618.877 179.219L618.879 179.219C664.08 182.164 705.435 184.86 738.571 190.084C795.066 198.187 828.372 213.436 839.044 233.028C860.912 272.968 777.229 311.626 777.229 311.626C744.759 326.619 693.607 337.753 663.627 336.319C663.627 336.319 561.457 331.484 501.507 283.114C452.07 244.769 414.366 191.063 378.558 140.059L378.556 140.056C370.647 128.79 362.83 117.656 355 106.849L356.593 109.111C364.393 119.898 372.182 131.009 380.065 142.255C415.735 193.143 453.335 246.784 502.71 285.558Z"/>
</mask>
<path d="M502.71 285.558C563.207 334.847 669.478 340.71 669.478 340.71C699.376 342.349 750.5 331.882 783.094 317.454C783.094 317.454 874.657 276.91 858.609 234.62C850.697 214.121 820.222 197.678 765.433 189.013C711.505 179.723 604.292 175.398 604.292 175.398C574.201 174.189 541.476 172.913 531.565 172.575L522.922 172.008C555.767 175.106 588.208 177.22 618.877 179.219L618.879 179.219C664.08 182.164 705.435 184.86 738.571 190.084C795.066 198.187 828.372 213.436 839.044 233.028C860.912 272.968 777.229 311.626 777.229 311.626C744.759 326.619 693.607 337.753 663.627 336.319C663.627 336.319 561.457 331.484 501.507 283.114C452.07 244.769 414.366 191.063 378.558 140.059L378.556 140.056C370.647 128.79 362.83 117.656 355 106.849L356.593 109.111C364.393 119.898 372.182 131.009 380.065 142.255C415.735 193.143 453.335 246.784 502.71 285.558Z" fill="#EAFE01"/>
<path d="M502.71 285.558L504.426 283.451L504.407 283.436L504.388 283.421L502.71 285.558ZM669.478 340.71L669.328 343.423L669.329 343.423L669.478 340.71ZM783.094 317.454L784.194 319.938L784.194 319.938L783.094 317.454ZM858.609 234.62L861.15 233.656L861.147 233.649L861.144 233.642L858.609 234.62ZM765.433 189.013L764.972 191.691L764.99 191.694L765.009 191.697L765.433 189.013ZM604.292 175.398L604.402 172.683L604.401 172.683L604.292 175.398ZM531.565 172.575L531.387 175.287L531.43 175.289L531.473 175.291L531.565 172.575ZM522.922 172.008L523.1 169.297L522.667 174.713L522.922 172.008ZM738.571 190.084L738.148 192.768L738.166 192.771L738.185 192.774L738.571 190.084ZM839.044 233.028L836.657 234.328L836.66 234.333L839.044 233.028ZM777.229 311.626L778.368 314.093L778.369 314.093L777.229 311.626ZM663.627 336.319L663.757 333.605L663.756 333.605L663.627 336.319ZM501.507 283.114L503.214 280.999L503.193 280.983L503.173 280.967L501.507 283.114ZM355 106.849L357.2 105.254L352.778 108.413L355 106.849ZM378.556 140.056L380.789 138.509L380.784 138.502L380.78 138.495L378.556 140.056ZM618.877 179.219L619.13 176.513L619.092 176.51L619.054 176.507L618.877 179.219ZM380.065 142.255L377.84 143.815L377.84 143.815L380.065 142.255ZM356.593 109.111L354.371 110.675L354.381 110.689L354.391 110.703L356.593 109.111ZM618.879 179.219L618.626 181.924L618.664 181.928L618.702 181.93L618.879 179.219ZM378.558 140.059L376.324 141.606L376.329 141.613L376.334 141.62L378.558 140.059ZM500.993 287.664C531.735 312.711 573.923 326.613 608.188 334.269C625.359 338.107 640.625 340.394 651.601 341.722C657.091 342.386 661.511 342.811 664.564 343.07C666.09 343.199 667.275 343.287 668.082 343.343C668.485 343.371 668.794 343.391 669.003 343.404C669.108 343.41 669.187 343.415 669.242 343.418C669.269 343.42 669.29 343.421 669.304 343.422C669.311 343.422 669.317 343.423 669.321 343.423C669.323 343.423 669.325 343.423 669.326 343.423C669.327 343.423 669.328 343.423 669.478 340.71C669.628 337.997 669.628 337.997 669.628 337.997C669.627 337.997 669.626 337.997 669.625 337.997C669.623 337.997 669.619 337.996 669.613 337.996C669.601 337.996 669.584 337.995 669.56 337.993C669.511 337.99 669.438 337.986 669.34 337.98C669.143 337.968 668.847 337.949 668.458 337.922C667.678 337.867 666.521 337.781 665.023 337.654C662.028 337.4 657.673 336.982 652.254 336.326C641.414 335.015 626.331 332.755 609.373 328.966C575.377 321.369 534.182 307.695 504.426 283.451L500.993 287.664ZM669.329 343.423C699.73 345.089 751.282 334.508 784.194 319.938L781.994 314.969C749.718 329.257 699.022 339.608 669.627 337.997L669.329 343.423ZM783.094 317.454C784.194 319.938 784.195 319.938 784.196 319.937C784.197 319.937 784.199 319.936 784.2 319.936C784.204 319.934 784.209 319.932 784.215 319.929C784.228 319.923 784.246 319.915 784.269 319.905C784.316 319.884 784.385 319.853 784.474 319.813C784.653 319.732 784.916 319.613 785.256 319.456C785.935 319.143 786.925 318.68 788.176 318.077C790.678 316.872 794.227 315.105 798.433 312.853C806.834 308.355 817.9 301.897 828.484 294.081C839.036 286.289 849.275 277.028 855.859 266.883C862.47 256.699 865.574 245.315 861.15 233.656L856.069 235.584C859.668 245.071 857.345 254.613 851.301 263.924C845.231 273.275 835.588 282.079 825.255 289.71C814.954 297.317 804.132 303.637 795.867 308.062C791.74 310.272 788.26 312.004 785.817 313.181C784.596 313.769 783.634 314.219 782.981 314.52C782.654 314.671 782.404 314.784 782.238 314.86C782.155 314.897 782.092 314.925 782.051 314.944C782.031 314.953 782.016 314.959 782.006 314.964C782.001 314.966 781.998 314.967 781.996 314.968C781.995 314.969 781.994 314.969 781.994 314.969C781.993 314.969 781.994 314.969 783.094 317.454ZM861.144 233.642C856.848 222.512 846.586 212.863 830.819 204.95C815.023 197.024 793.408 190.687 765.858 186.329L765.009 191.697C792.247 196.005 813.264 202.222 828.381 209.808C843.526 217.408 852.458 226.229 856.074 235.599L861.144 233.642ZM765.894 186.336C738.776 181.664 698.363 178.253 664.821 176.011C648.03 174.888 632.928 174.056 622.024 173.505C616.571 173.23 612.168 173.024 609.126 172.888C607.605 172.819 606.425 172.768 605.625 172.734C605.225 172.717 604.919 172.704 604.714 172.696C604.611 172.692 604.533 172.688 604.481 172.686C604.455 172.685 604.435 172.684 604.422 172.684C604.415 172.684 604.41 172.683 604.407 172.683C604.405 172.683 604.404 172.683 604.403 172.683C604.402 172.683 604.402 172.683 604.292 175.398C604.183 178.113 604.183 178.113 604.184 178.113C604.185 178.113 604.186 178.113 604.187 178.113C604.19 178.114 604.195 178.114 604.202 178.114C604.214 178.114 604.234 178.115 604.259 178.116C604.31 178.118 604.387 178.122 604.489 178.126C604.693 178.134 604.996 178.147 605.394 178.164C606.19 178.198 607.366 178.249 608.882 178.317C611.915 178.453 616.308 178.658 621.75 178.933C632.633 179.483 647.704 180.313 664.458 181.433C698.005 183.676 738.162 187.073 764.972 191.691L765.894 186.336ZM604.401 172.683C574.312 171.474 541.579 170.198 531.658 169.859L531.473 175.291C541.374 175.629 574.089 176.904 604.183 178.113L604.401 172.683ZM531.743 169.864L523.1 169.297L522.744 174.72L531.387 175.287L531.743 169.864ZM738.185 192.774C766.294 196.805 788.486 202.596 804.907 209.739C821.375 216.903 831.736 225.292 836.657 234.328L841.43 231.728C835.68 221.172 824.052 212.141 807.075 204.756C790.051 197.351 767.342 191.465 738.957 187.394L738.185 192.774ZM836.66 234.333C841.596 243.347 840.655 252.275 836.196 260.912C831.679 269.663 823.606 277.957 814.632 285.189C805.694 292.392 796.054 298.391 788.624 302.597C784.915 304.697 781.77 306.343 779.556 307.462C778.45 308.021 777.577 308.448 776.984 308.734C776.687 308.877 776.46 308.985 776.309 309.056C776.234 309.092 776.177 309.118 776.141 309.136C776.122 309.144 776.109 309.151 776.1 309.154C776.096 309.156 776.093 309.158 776.091 309.159C776.09 309.159 776.09 309.159 776.089 309.159C776.089 309.159 776.09 309.159 777.229 311.626C778.369 314.093 778.37 314.092 778.371 314.092C778.372 314.092 778.373 314.091 778.375 314.09C778.378 314.089 778.383 314.086 778.389 314.084C778.4 314.078 778.417 314.07 778.439 314.06C778.482 314.04 778.546 314.01 778.628 313.972C778.792 313.894 779.033 313.78 779.344 313.63C779.965 313.33 780.869 312.888 782.008 312.312C784.286 311.161 787.507 309.475 791.302 307.326C798.879 303.036 808.793 296.874 818.042 289.42C827.256 281.995 836.002 273.136 841.026 263.405C846.107 253.561 847.426 242.679 841.427 231.723L836.66 234.333ZM776.09 309.159C760.081 316.551 739.375 323.029 718.917 327.478C698.438 331.931 678.414 334.306 663.757 333.605L663.497 339.033C678.82 339.766 699.362 337.292 720.072 332.788C740.802 328.28 761.907 321.694 778.368 314.093L776.09 309.159ZM663.627 336.319C663.756 333.605 663.756 333.605 663.756 333.605C663.755 333.605 663.754 333.605 663.753 333.605C663.751 333.605 663.747 333.604 663.742 333.604C663.731 333.604 663.714 333.603 663.691 333.602C663.645 333.599 663.574 333.596 663.48 333.59C663.291 333.58 663.008 333.564 662.633 333.541C661.884 333.495 660.771 333.42 659.331 333.308C656.45 333.083 652.258 332.709 647.037 332.108C636.591 330.907 622.04 328.805 605.631 325.201C572.739 317.978 532.699 304.79 503.214 280.999L499.801 285.229C530.265 309.808 571.285 323.222 604.465 330.509C621.093 334.161 635.831 336.29 646.416 337.507C651.71 338.116 655.968 338.497 658.909 338.726C660.379 338.84 661.521 338.917 662.297 338.965C662.686 338.989 662.983 339.006 663.185 339.017C663.285 339.023 663.362 339.027 663.415 339.029C663.441 339.031 663.461 339.032 663.475 339.032C663.482 339.033 663.488 339.033 663.492 339.033C663.494 339.033 663.495 339.033 663.496 339.033C663.498 339.033 663.499 339.033 663.627 336.319ZM352.8 108.443C360.616 119.231 368.42 130.348 376.332 141.617L380.78 138.495C372.873 127.232 365.044 116.081 357.2 105.254L352.8 108.443ZM619.054 176.507C588.379 174.508 555.977 172.396 523.177 169.303L522.667 174.713C555.557 177.816 588.036 179.932 618.701 181.93L619.054 176.507ZM504.388 283.421C455.384 244.938 418.005 191.648 382.29 140.695L377.84 143.815C413.465 194.638 451.285 248.63 501.032 287.695L504.388 283.421ZM382.29 140.695C374.409 129.452 366.609 118.324 358.795 107.519L354.391 110.703C362.178 121.471 369.955 132.566 377.84 143.815L382.29 140.695ZM618.625 181.924L618.626 181.924L619.131 176.513L619.13 176.513L618.625 181.924ZM618.702 181.93C663.946 184.879 705.162 187.567 738.148 192.768L738.994 187.4C705.709 182.152 664.214 179.45 619.055 176.507L618.702 181.93ZM503.173 280.967C454.116 242.916 416.637 189.569 380.782 138.498L376.334 141.62C412.095 192.558 450.025 246.621 499.842 285.261L503.173 280.967ZM380.792 138.512L380.789 138.509L376.322 141.603L376.324 141.606L380.792 138.512ZM352.778 108.413L354.371 110.675L358.815 107.546L357.222 105.284L352.778 108.413Z" fill="#1573FF" mask="url(#path-3-inside-2_290_139)"/>
<mask id="path-5-inside-3_290_139" fill="white">
<path d="M471.166 197.838C415.735 252.763 310.534 268.907 310.534 268.907C280.935 273.438 229.037 267.98 195.198 256.781C195.198 256.781 100.133 225.31 112.004 181.663C117.889 160.493 146.627 141.172 200.316 127.233C253.089 112.756 359.377 98.0512 359.377 98.0512C389.209 93.9286 421.655 89.4849 431.487 88.1869L440.034 86.7842C407.645 93.0535 375.562 98.3043 345.231 103.269L345.229 103.269C300.527 110.585 259.628 117.279 227.156 125.693C171.713 139.238 140.043 157.646 131.322 178.18C113.431 220.054 200.469 250.412 200.469 250.412C234.241 262.184 286.232 268.305 315.931 263.969C315.931 263.969 417.151 249.246 472.125 195.289C517.61 152.329 549.927 95.2194 580.618 40.9823L580.62 40.9789C587.399 28.9991 594.099 17.1593 600.844 5.64331L599.478 8.04936C592.76 19.5419 586.086 31.3564 579.331 43.3139C548.766 97.422 516.547 154.457 471.166 197.838Z"/>
</mask>
<path d="M471.166 197.838C415.735 252.763 310.534 268.907 310.534 268.907C280.935 273.438 229.037 267.98 195.198 256.781C195.198 256.781 100.133 225.31 112.004 181.663C117.889 160.493 146.627 141.172 200.316 127.233C253.089 112.756 359.377 98.0512 359.377 98.0512C389.209 93.9286 421.655 89.4849 431.487 88.1869L440.034 86.7842C407.645 93.0535 375.562 98.3043 345.231 103.269L345.229 103.269C300.527 110.585 259.628 117.279 227.156 125.693C171.713 139.238 140.043 157.646 131.322 178.18C113.431 220.054 200.469 250.412 200.469 250.412C234.241 262.184 286.232 268.305 315.931 263.969C315.931 263.969 417.151 249.246 472.125 195.289C517.61 152.329 549.927 95.2194 580.618 40.9823L580.62 40.9789C587.399 28.9991 594.099 17.1593 600.844 5.64331L599.478 8.04936C592.76 19.5419 586.086 31.3564 579.331 43.3139C548.766 97.422 516.547 154.457 471.166 197.838Z" fill="#EAFE01"/>
<path d="M471.166 197.838L469.253 195.908L469.27 195.89L469.288 195.874L471.166 197.838ZM310.534 268.907L310.946 271.593L310.945 271.593L310.534 268.907ZM195.198 256.781L194.344 259.361L194.344 259.361L195.198 256.781ZM112.004 181.663L109.382 180.95L109.384 180.943L109.386 180.935L112.004 181.663ZM200.316 127.233L201.035 129.854L201.017 129.859L200.999 129.863L200.316 127.233ZM359.377 98.0512L359.004 95.3596L359.005 95.3595L359.377 98.0512ZM431.487 88.1869L431.927 90.8683L431.885 90.8752L431.842 90.8808L431.487 88.1869ZM440.034 86.7842L439.594 84.1028L440.551 89.452L440.034 86.7842ZM227.156 125.693L227.837 128.323L227.819 128.328L227.801 128.333L227.156 125.693ZM131.322 178.18L133.823 179.243L133.821 179.248L131.322 178.18ZM200.469 250.412L199.575 252.978L199.575 252.978L200.469 250.412ZM315.931 263.969L315.538 261.28L315.54 261.28L315.931 263.969ZM472.125 195.289L470.222 193.349L470.241 193.331L470.26 193.313L472.125 195.289ZM600.844 5.64331L598.499 4.27003L603.207 6.98486L600.844 5.64331ZM580.62 40.9789L578.247 39.6556L578.251 39.6481L578.255 39.6406L580.62 40.9789ZM345.231 103.269L344.717 100.6L344.754 100.593L344.792 100.587L345.231 103.269ZM579.331 43.3139L581.697 44.6504L581.697 44.6504L579.331 43.3139ZM599.478 8.04936L601.841 9.39091L601.832 9.4058L601.824 9.42058L599.478 8.04936ZM345.229 103.269L345.743 105.937L345.706 105.944L345.668 105.95L345.229 103.269ZM580.618 40.9823L582.992 42.3056L582.988 42.3131L582.983 42.3205L580.618 40.9823ZM473.078 199.768C444.911 227.678 404.27 245.607 370.91 256.551C354.192 262.036 339.22 265.793 328.424 268.179C323.025 269.373 318.667 270.224 315.654 270.778C314.147 271.055 312.976 271.258 312.179 271.392C311.78 271.459 311.475 271.509 311.268 271.542C311.164 271.558 311.085 271.571 311.031 271.579C311.005 271.584 310.984 271.587 310.97 271.589C310.962 271.59 310.957 271.591 310.953 271.592C310.951 271.592 310.949 271.592 310.948 271.592C310.947 271.593 310.946 271.593 310.534 268.907C310.122 266.221 310.121 266.221 310.122 266.221C310.122 266.221 310.123 266.221 310.124 266.221C310.127 266.22 310.131 266.22 310.136 266.219C310.147 266.217 310.165 266.214 310.189 266.21C310.237 266.203 310.309 266.192 310.407 266.176C310.601 266.145 310.893 266.097 311.279 266.032C312.05 265.903 313.193 265.705 314.671 265.433C317.627 264.89 321.921 264.051 327.251 262.873C337.913 260.516 352.706 256.804 369.216 251.387C402.314 240.529 441.989 222.923 469.253 195.908L473.078 199.768ZM310.945 271.593C280.849 276.2 228.513 270.669 194.344 259.361L196.051 254.201C229.561 265.291 281.022 270.676 310.123 266.221L310.945 271.593ZM195.198 256.781C194.344 259.361 194.343 259.36 194.341 259.36C194.341 259.36 194.339 259.359 194.337 259.358C194.333 259.357 194.328 259.355 194.322 259.353C194.309 259.349 194.29 259.343 194.266 259.335C194.217 259.318 194.146 259.294 194.053 259.263C193.867 259.2 193.594 259.106 193.24 258.983C192.533 258.737 191.503 258.373 190.2 257.894C187.593 256.937 183.889 255.523 179.485 253.69C170.687 250.028 159.046 244.674 147.755 237.922C136.497 231.19 125.408 222.966 117.87 213.507C110.303 204.012 106.109 192.983 109.382 180.95L114.626 182.376C111.963 192.167 115.201 201.439 122.12 210.12C129.068 218.838 139.519 226.666 150.544 233.257C161.534 239.829 172.918 245.07 181.573 248.673C185.896 250.472 189.527 251.858 192.073 252.793C193.345 253.26 194.346 253.614 195.026 253.85C195.365 253.969 195.625 254.057 195.798 254.116C195.885 254.145 195.949 254.167 195.992 254.181C196.013 254.189 196.029 254.194 196.039 254.197C196.044 254.199 196.047 254.2 196.05 254.201C196.051 254.201 196.051 254.201 196.052 254.201C196.052 254.201 196.052 254.201 195.198 256.781ZM109.386 180.935C112.581 169.441 121.859 158.842 136.785 149.437C151.738 140.016 172.636 131.612 199.633 124.603L200.999 129.863C174.307 136.793 153.992 145.019 139.682 154.035C125.346 163.069 117.312 172.715 114.622 182.391L109.386 180.935ZM199.597 124.613C226.135 117.332 266.026 110.018 299.193 104.532C315.795 101.786 330.745 99.4936 341.545 97.8873C346.945 97.0841 351.308 96.4524 354.322 96.0214C355.829 95.8059 356.998 95.6406 357.792 95.5291C358.189 95.4733 358.491 95.431 358.695 95.4026C358.797 95.3884 358.874 95.3777 358.926 95.3705C358.951 95.3669 358.971 95.3642 358.984 95.3624C358.991 95.3615 358.996 95.3608 358.999 95.3603C359.001 95.3601 359.002 95.3599 359.003 95.3598C359.004 95.3597 359.004 95.3596 359.377 98.0512C359.749 100.743 359.749 100.743 359.748 100.743C359.747 100.743 359.746 100.743 359.744 100.744C359.741 100.744 359.737 100.745 359.73 100.745C359.718 100.747 359.699 100.75 359.673 100.753C359.622 100.76 359.546 100.771 359.445 100.785C359.244 100.813 358.943 100.855 358.548 100.911C357.759 101.022 356.594 101.186 355.091 101.401C352.086 101.831 347.733 102.461 342.344 103.263C331.566 104.866 316.646 107.154 300.08 109.894C266.909 115.38 227.27 122.656 201.035 129.854L199.597 124.613ZM359.005 95.3595C388.835 91.2373 421.29 86.7923 431.131 85.493L431.842 90.8808C422.021 92.1775 389.583 96.62 359.749 100.743L359.005 95.3595ZM431.047 85.5055L439.594 84.1028L440.474 89.4657L431.927 90.8683L431.047 85.5055ZM227.801 128.333C200.215 135.072 178.69 142.988 163.039 151.691C147.344 160.417 137.845 169.773 133.823 179.243L128.821 177.118C133.52 166.054 144.217 155.938 160.398 146.941C176.623 137.919 198.654 129.859 226.511 123.053L227.801 128.333ZM133.821 179.248C129.783 188.698 131.585 197.493 136.861 205.657C142.205 213.928 151.045 221.4 160.678 227.728C170.273 234.03 180.45 239.065 188.252 242.531C192.148 244.261 195.438 245.594 197.749 246.493C198.905 246.943 199.815 247.283 200.433 247.51C200.742 247.624 200.978 247.709 201.136 247.765C201.214 247.793 201.273 247.814 201.311 247.828C201.331 247.834 201.345 247.839 201.353 247.842C201.358 247.844 201.361 247.845 201.363 247.846C201.364 247.846 201.364 247.846 201.365 247.846C201.365 247.846 201.364 247.846 200.469 250.412C199.575 252.978 199.574 252.977 199.572 252.977C199.571 252.977 199.57 252.976 199.568 252.975C199.565 252.974 199.56 252.973 199.554 252.97C199.542 252.966 199.524 252.96 199.501 252.952C199.456 252.936 199.391 252.913 199.305 252.882C199.134 252.821 198.883 252.73 198.559 252.611C197.911 252.373 196.969 252.021 195.78 251.558C193.401 250.633 190.031 249.268 186.046 247.498C178.088 243.963 167.623 238.791 157.695 232.27C147.805 225.774 138.24 217.805 132.296 208.607C126.284 199.302 123.916 188.599 128.824 177.113L133.821 179.248ZM201.364 247.846C218.014 253.65 239.251 258.089 260.044 260.532C280.859 262.978 301.018 263.4 315.538 261.28L316.324 266.658C301.144 268.874 280.459 268.403 259.41 265.93C238.34 263.454 216.696 258.946 199.575 252.978L201.364 247.846ZM315.931 263.969C315.54 261.28 315.54 261.28 315.54 261.28C315.54 261.28 315.541 261.28 315.542 261.28C315.544 261.279 315.548 261.279 315.554 261.278C315.564 261.276 315.581 261.274 315.604 261.27C315.65 261.264 315.719 261.253 315.813 261.239C315.999 261.21 316.28 261.167 316.651 261.107C317.392 260.989 318.492 260.806 319.915 260.555C322.76 260.052 326.896 259.273 332.035 258.169C342.314 255.96 356.593 252.456 372.575 247.278C404.611 236.898 443.183 219.888 470.222 193.349L474.029 197.228C446.093 224.647 406.568 241.977 374.25 252.448C358.056 257.695 343.593 261.244 333.176 263.482C327.966 264.601 323.765 265.394 320.86 265.907C319.408 266.163 318.28 266.35 317.511 266.473C317.127 266.535 316.833 266.581 316.633 266.611C316.533 266.626 316.457 266.638 316.405 266.646C316.379 266.65 316.359 266.653 316.345 266.655C316.338 266.656 316.333 266.656 316.329 266.657C316.327 266.657 316.325 266.657 316.324 266.658C316.323 266.658 316.322 266.658 315.931 263.969ZM603.188 7.0166C596.456 18.5122 589.766 30.334 582.985 42.3171L578.255 39.6406C585.033 27.6641 591.742 15.8065 598.499 4.27003L603.188 7.0166ZM344.792 100.587C375.129 95.6218 407.173 90.377 439.518 84.1165L440.551 89.452C408.116 95.7299 375.995 100.987 345.67 105.95L344.792 100.587ZM469.288 195.874C514.328 152.819 546.361 96.154 576.966 41.9774L581.697 44.6504C551.171 98.69 518.765 156.096 473.043 199.802L469.288 195.874ZM576.966 41.9774C583.719 30.0231 590.403 18.191 597.132 6.67815L601.824 9.42058C595.118 20.8929 588.454 32.6897 581.697 44.6504L576.966 41.9774ZM345.745 105.937L345.743 105.937L344.715 100.601L344.717 100.6L345.745 105.937ZM345.668 105.95C300.924 113.274 260.163 119.948 227.837 128.323L226.474 123.062C259.093 114.611 300.13 107.897 344.79 100.587L345.668 105.95ZM470.26 193.313C515.394 150.684 547.522 93.9524 578.254 39.644L582.983 42.3205C552.332 96.4863 519.825 153.974 473.991 197.264L470.26 193.313ZM578.245 39.659L578.247 39.6556L582.994 42.3022L582.992 42.3056L578.245 39.659ZM603.207 6.98486L601.841 9.39091L597.115 6.70782L598.481 4.30176L603.207 6.98486Z" fill="#1573FF" mask="url(#path-5-inside-3_290_139)"/>
<mask id="path-7-inside-4_290_139" fill="white">
<path d="M394.678 197.838C450.109 252.763 555.31 268.907 555.31 268.907C584.908 273.438 636.807 267.98 670.646 256.781C670.646 256.781 765.711 225.31 753.84 181.663C747.954 160.493 719.217 141.172 665.528 127.233C612.755 112.756 506.467 98.0512 506.467 98.0512C476.635 93.9286 444.189 89.4849 434.357 88.1869L425.81 86.7842C458.199 93.0535 490.282 98.3043 520.613 103.269L520.614 103.269C565.317 110.585 606.216 117.279 638.688 125.693C694.131 139.238 725.8 157.646 734.521 178.18C752.413 220.054 665.374 250.412 665.374 250.412C631.603 262.184 579.612 268.305 549.913 263.969C549.913 263.969 448.693 249.246 393.718 195.289C348.234 152.329 315.917 95.2194 285.225 40.9823L285.223 40.9789C278.444 28.9991 271.745 17.1593 265 5.64331L266.366 8.04936C273.083 19.5419 279.758 31.3564 286.512 43.3139C317.078 97.422 349.297 154.457 394.678 197.838Z"/>
</mask>
<path d="M394.678 197.838C450.109 252.763 555.31 268.907 555.31 268.907C584.908 273.438 636.807 267.98 670.646 256.781C670.646 256.781 765.711 225.31 753.84 181.663C747.954 160.493 719.217 141.172 665.528 127.233C612.755 112.756 506.467 98.0512 506.467 98.0512C476.635 93.9286 444.189 89.4849 434.357 88.1869L425.81 86.7842C458.199 93.0535 490.282 98.3043 520.613 103.269L520.614 103.269C565.317 110.585 606.216 117.279 638.688 125.693C694.131 139.238 725.8 157.646 734.521 178.18C752.413 220.054 665.374 250.412 665.374 250.412C631.603 262.184 579.612 268.305 549.913 263.969C549.913 263.969 448.693 249.246 393.718 195.289C348.234 152.329 315.917 95.2194 285.225 40.9823L285.223 40.9789C278.444 28.9991 271.745 17.1593 265 5.64331L266.366 8.04936C273.083 19.5419 279.758 31.3564 286.512 43.3139C317.078 97.422 349.297 154.457 394.678 197.838Z" fill="#EAFE01"/>
<path d="M394.678 197.838L396.591 195.908L396.573 195.89L396.556 195.874L394.678 197.838ZM555.31 268.907L554.898 271.593L554.899 271.593L555.31 268.907ZM670.646 256.781L671.5 259.361L671.5 259.361L670.646 256.781ZM753.84 181.663L756.462 180.95L756.46 180.943L756.458 180.935L753.84 181.663ZM665.528 127.233L664.809 129.854L664.827 129.859L664.845 129.863L665.528 127.233ZM506.467 98.0512L506.84 95.3596L506.839 95.3595L506.467 98.0512ZM434.357 88.1869L433.917 90.8683L433.959 90.8752L434.001 90.8808L434.357 88.1869ZM425.81 86.7842L426.25 84.1028L425.293 89.452L425.81 86.7842ZM638.688 125.693L638.006 128.323L638.025 128.328L638.043 128.333L638.688 125.693ZM734.521 178.18L732.02 179.243L732.023 179.248L734.521 178.18ZM665.374 250.412L666.269 252.978L666.269 252.978L665.374 250.412ZM549.913 263.969L550.305 261.28L550.304 261.28L549.913 263.969ZM393.718 195.289L395.622 193.349L395.603 193.331L395.584 193.313L393.718 195.289ZM265 5.64331L267.345 4.27003L262.637 6.98486L265 5.64331ZM285.223 40.9789L287.597 39.6556L287.593 39.6481L287.588 39.6406L285.223 40.9789ZM520.613 103.269L521.127 100.6L521.09 100.593L521.052 100.587L520.613 103.269ZM286.512 43.3139L284.146 44.6504L284.146 44.6504L286.512 43.3139ZM266.366 8.04936L264.003 9.39091L264.011 9.4058L264.02 9.42058L266.366 8.04936ZM520.614 103.269L520.1 105.937L520.138 105.944L520.175 105.95L520.614 103.269ZM285.225 40.9823L282.852 42.3056L282.856 42.3131L282.86 42.3205L285.225 40.9823ZM392.766 199.768C420.932 227.678 461.573 245.607 494.934 256.551C511.652 262.036 526.624 265.793 537.42 268.179C542.819 269.373 547.177 270.224 550.19 270.778C551.697 271.055 552.868 271.258 553.665 271.392C554.064 271.459 554.369 271.509 554.576 271.542C554.679 271.558 554.758 271.571 554.812 271.579C554.839 271.584 554.86 271.587 554.874 271.589C554.881 271.59 554.887 271.591 554.891 271.592C554.893 271.592 554.895 271.592 554.896 271.592C554.897 271.593 554.898 271.593 555.31 268.907C555.722 266.221 555.722 266.221 555.722 266.221C555.721 266.221 555.721 266.221 555.72 266.221C555.717 266.22 555.713 266.22 555.708 266.219C555.696 266.217 555.679 266.214 555.655 266.21C555.607 266.203 555.534 266.192 555.437 266.176C555.243 266.145 554.95 266.097 554.565 266.032C553.794 265.903 552.651 265.705 551.173 265.433C548.216 264.89 543.922 264.051 538.593 262.873C527.931 260.516 513.138 256.804 496.628 251.387C463.529 240.529 423.855 222.923 396.591 195.908L392.766 199.768ZM554.899 271.593C584.995 276.2 637.33 270.669 671.5 259.361L669.792 254.201C636.283 265.291 584.822 270.676 555.721 266.221L554.899 271.593ZM670.646 256.781C671.5 259.361 671.501 259.36 671.502 259.36C671.503 259.36 671.505 259.359 671.507 259.358C671.51 259.357 671.515 259.355 671.522 259.353C671.535 259.349 671.554 259.343 671.578 259.335C671.627 259.318 671.698 259.294 671.791 259.263C671.977 259.2 672.25 259.106 672.603 258.983C673.31 258.737 674.341 258.373 675.644 257.894C678.251 256.937 681.954 255.523 686.359 253.69C695.157 250.028 706.798 244.674 718.089 237.922C729.347 231.19 740.436 222.966 747.974 213.507C755.541 204.012 759.735 192.983 756.462 180.95L751.218 182.376C753.881 192.167 750.643 201.439 743.724 210.12C736.776 218.838 726.324 226.666 715.3 233.257C704.309 239.829 692.925 245.07 684.27 248.673C679.948 250.472 676.317 251.858 673.771 252.793C672.499 253.26 671.498 253.614 670.818 253.85C670.478 253.969 670.219 254.057 670.046 254.116C669.959 254.145 669.894 254.167 669.852 254.181C669.83 254.189 669.815 254.194 669.805 254.197C669.8 254.199 669.796 254.2 669.794 254.201C669.793 254.201 669.793 254.201 669.792 254.201C669.792 254.201 669.792 254.201 670.646 256.781ZM756.458 180.935C753.262 169.441 743.985 158.842 729.059 149.437C714.106 140.016 693.208 131.612 666.21 124.603L664.845 129.863C691.537 136.793 711.852 145.019 726.162 154.035C740.498 163.069 748.532 172.715 751.222 182.391L756.458 180.935ZM666.246 124.613C639.709 117.332 599.817 110.018 566.651 104.532C550.049 101.786 535.099 99.4936 524.299 97.8873C518.899 97.0841 514.536 96.4524 511.522 96.0214C510.015 95.8059 508.845 95.6406 508.052 95.5291C507.655 95.4733 507.353 95.431 507.149 95.4026C507.047 95.3884 506.97 95.3777 506.918 95.3705C506.892 95.3669 506.873 95.3642 506.86 95.3624C506.853 95.3615 506.848 95.3608 506.845 95.3603C506.843 95.3601 506.842 95.3599 506.841 95.3598C506.84 95.3597 506.84 95.3596 506.467 98.0512C506.095 100.743 506.095 100.743 506.096 100.743C506.097 100.743 506.098 100.743 506.099 100.744C506.102 100.744 506.107 100.745 506.113 100.745C506.126 100.747 506.145 100.75 506.171 100.753C506.221 100.76 506.298 100.771 506.398 100.785C506.6 100.813 506.901 100.855 507.296 100.911C508.085 101.022 509.25 101.186 510.753 101.401C513.758 101.831 518.11 102.461 523.499 103.263C534.278 104.866 549.198 107.154 565.764 109.894C598.935 115.38 638.573 122.656 664.809 129.854L666.246 124.613ZM506.839 95.3595C477.009 91.2373 444.554 86.7923 434.713 85.493L434.001 90.8808C443.823 92.1775 476.26 96.62 506.095 100.743L506.839 95.3595ZM434.797 85.5055L426.25 84.1028L425.37 89.4657L433.917 90.8683L434.797 85.5055ZM638.043 128.333C665.629 135.072 687.154 142.988 702.805 151.691C718.5 160.417 727.998 169.773 732.02 179.243L737.023 177.118C732.323 166.054 721.627 155.938 705.446 146.941C689.221 137.919 667.19 129.859 639.333 123.053L638.043 128.333ZM732.023 179.248C736.061 188.698 734.258 197.493 728.983 205.657C723.638 213.928 714.798 221.4 705.165 227.728C695.571 234.03 685.394 239.065 677.591 242.531C673.696 244.261 670.406 245.594 668.095 246.493C666.939 246.943 666.029 247.283 665.41 247.51C665.101 247.624 664.865 247.709 664.708 247.765C664.63 247.793 664.571 247.814 664.532 247.828C664.513 247.834 664.499 247.839 664.49 247.842C664.486 247.844 664.483 247.845 664.481 247.846C664.48 247.846 664.48 247.846 664.479 247.846C664.479 247.846 664.479 247.846 665.374 250.412C666.269 252.978 666.27 252.977 666.271 252.977C666.272 252.977 666.274 252.976 666.276 252.975C666.279 252.974 666.284 252.973 666.29 252.97C666.302 252.966 666.32 252.96 666.342 252.952C666.387 252.936 666.453 252.913 666.539 252.882C666.71 252.821 666.96 252.73 667.284 252.611C667.932 252.373 668.875 252.021 670.064 251.558C672.443 250.633 675.813 249.268 679.798 247.498C687.756 243.963 698.221 238.791 708.149 232.27C718.039 225.774 727.604 217.805 733.547 208.607C739.56 199.302 741.928 188.599 737.02 177.113L732.023 179.248ZM664.48 247.846C647.83 253.65 626.593 258.089 605.799 260.532C584.985 262.978 564.825 263.4 550.305 261.28L549.52 266.658C564.7 268.874 585.385 268.403 606.434 265.93C627.503 263.454 649.148 258.946 666.269 252.978L664.48 247.846ZM549.913 263.969C550.304 261.28 550.304 261.28 550.304 261.28C550.303 261.28 550.303 261.28 550.302 261.28C550.299 261.279 550.295 261.279 550.29 261.278C550.279 261.276 550.263 261.274 550.24 261.27C550.194 261.264 550.124 261.253 550.031 261.239C549.844 261.21 549.563 261.167 549.193 261.107C548.452 260.989 547.352 260.806 545.929 260.555C543.083 260.052 538.947 259.273 533.809 258.169C523.529 255.96 509.251 252.456 493.269 247.278C461.233 236.898 422.661 219.888 395.622 193.349L391.815 197.228C419.751 224.647 459.276 241.977 491.594 252.448C507.788 257.695 522.25 261.244 532.667 263.482C537.877 264.601 542.079 265.394 544.983 265.907C546.436 266.163 547.564 266.35 548.332 266.473C548.717 266.535 549.011 266.581 549.211 266.611C549.31 266.626 549.387 266.638 549.439 266.646C549.465 266.65 549.485 266.653 549.498 266.655C549.505 266.656 549.511 266.656 549.515 266.657C549.517 266.657 549.518 266.657 549.519 266.658C549.521 266.658 549.522 266.658 549.913 263.969ZM262.655 7.0166C269.388 18.5122 276.078 30.334 282.858 42.3171L287.588 39.6406C280.811 27.6641 274.102 15.8065 267.345 4.27003L262.655 7.0166ZM521.052 100.587C490.715 95.6218 458.671 90.377 426.326 84.1165L425.293 89.452C457.728 95.7299 489.848 100.987 520.174 105.95L521.052 100.587ZM396.556 195.874C351.516 152.819 319.482 96.154 288.878 41.9774L284.146 44.6504C314.673 98.69 347.078 156.096 392.801 199.802L396.556 195.874ZM288.878 41.9774C282.125 30.0231 275.441 18.191 268.712 6.67815L264.02 9.42058C270.726 20.8929 277.39 32.6897 284.146 44.6504L288.878 41.9774ZM520.099 105.937L520.1 105.937L521.128 100.601L521.127 100.6L520.099 105.937ZM520.175 105.95C564.92 113.274 605.68 119.948 638.006 128.323L639.37 123.062C606.751 114.611 565.714 107.897 521.053 100.587L520.175 105.95ZM395.584 193.313C350.449 150.684 318.322 93.9524 287.59 39.644L282.86 42.3205C313.512 96.4863 346.019 153.974 391.853 197.264L395.584 193.313ZM287.599 39.659L287.597 39.6556L282.85 42.3022L282.852 42.3056L287.599 39.659ZM262.637 6.98486L264.003 9.39091L268.729 6.70782L267.363 4.30176L262.637 6.98486Z" fill="#1573FF" mask="url(#path-7-inside-4_290_139)"/>
</g>
<defs>
<clipPath id="clip0_290_139">
<rect width="856.9" height="342.19" fill="white" transform="translate(0.700195 0.905029)"/>
</clipPath>
</defs>
</svg>
