<svg width="507" height="276" viewBox="0 0 507 276" fill="none" xmlns="http://www.w3.org/2000/svg">
<path d="M156.997 89.4122C174.746 84.3902 205.887 83.2864 226.976 87.048L226.978 87.0483L226.985 87.0496L227.015 87.0552L227.141 87.0784C227.254 87.0992 227.421 87.1309 227.641 87.1735C228.081 87.2588 228.728 87.388 229.551 87.5625C231.199 87.9115 233.553 88.4418 236.369 89.1647C242.005 90.6119 249.467 92.8252 256.809 95.8931C261.669 97.9238 266.434 100.312 270.572 103.074C270.074 103.274 269.583 103.473 269.1 103.671C267.69 104.226 266.311 104.785 264.961 105.346C261.187 102.357 256.74 99.8303 252.246 97.7255C245.602 94.6129 238.744 92.3713 233.56 90.9091C230.965 90.1771 228.782 89.6385 227.246 89.2823C226.477 89.1042 225.87 88.9717 225.454 88.8833C225.245 88.8391 225.085 88.806 224.975 88.7838C224.92 88.7726 224.878 88.7642 224.85 88.7585L224.817 88.752L224.808 88.7502L224.805 88.7497C224.804 88.7496 224.804 88.7495 224.544 90.083L224.804 88.7495L224.804 88.7494C213.804 86.6074 200.154 85.7558 187.028 86.0987C176.113 86.3838 165.487 87.4967 156.997 89.4122ZM234.111 125.712C241.285 119.869 251.357 114.064 264.5 108.487C264.814 108.756 265.121 109.029 265.421 109.306C258.07 112.909 251.839 116.588 246.719 120.31C237.468 127.037 231.712 134.007 229.678 141.065C227.557 148.372 229.769 154.669 234.113 159.88C234.31 160.117 234.512 160.351 234.718 160.584C232.848 161.501 230.907 162.415 228.895 163.327C228.41 162.896 227.941 162.459 227.488 162.014C222.538 157.15 219.781 151.592 220.704 145.233C221.652 138.969 225.938 132.368 234.111 125.712ZM231.224 165.251C233.111 164.382 234.936 163.511 236.701 162.636C236.945 162.87 237.194 163.101 237.446 163.33C236.641 163.678 235.825 164.026 234.998 164.372L234.99 164.376L234.981 164.38C233.968 164.821 232.92 165.267 231.84 165.718C231.633 165.563 231.428 165.408 231.224 165.251ZM240.19 162.122C239.882 161.861 239.581 161.597 239.286 161.33C246.699 157.512 252.958 153.642 258.07 149.75C267.174 142.822 272.776 135.727 274.654 128.625C276.587 121.379 274.331 115.205 269.996 110.131C271.963 109.216 274.008 108.304 276.129 107.397C276.215 107.477 276.301 107.556 276.386 107.636C281.442 112.393 284.319 117.889 283.535 124.268C282.723 130.551 278.582 137.242 270.558 144.075C263.448 150.129 253.385 156.208 240.19 162.122ZM236.058 166.875C237.318 166.346 238.553 165.816 239.765 165.284C243.273 168.042 247.316 170.424 251.406 172.45C257.981 175.707 264.788 178.098 269.939 179.673C272.517 180.461 274.688 181.047 276.216 181.437C276.98 181.632 277.584 181.778 277.999 181.875C278.206 181.924 278.366 181.96 278.475 181.985C278.53 181.997 278.572 182.007 278.6 182.013L278.633 182.02L278.642 182.022L278.644 182.023C278.645 182.023 278.645 182.023 278.676 181.881L278.646 182.023L278.646 182.023C289.596 184.405 303.224 185.554 316.355 185.498C327.273 185.451 337.921 184.571 346.451 182.841C328.597 187.474 297.439 187.898 276.437 183.677L276.435 183.676L276.428 183.675L276.398 183.669L276.272 183.643C276.161 183.619 275.993 183.584 275.775 183.537C275.337 183.442 274.693 183.299 273.873 183.106C272.233 182.721 269.892 182.14 267.092 181.355C261.489 179.786 254.077 177.41 246.804 174.182C242.479 172.263 238.237 170.057 234.464 167.561C235.004 167.331 235.535 167.102 236.058 166.875ZM228.442 166.509C228.606 166.644 228.771 166.777 228.938 166.911C223.658 169.046 217.751 171.262 211.558 173.478C214.37 172.389 217.09 171.297 219.713 170.199C222.748 168.977 225.657 167.747 228.442 166.509ZM293.738 97.6043C290.903 98.6315 288.159 99.664 285.513 100.705C282.43 101.868 279.474 103.043 276.644 104.229C276.481 104.091 276.316 103.953 276.15 103.817C281.493 101.789 287.471 99.693 293.738 97.6043ZM273.824 105.432C271.829 106.298 269.902 107.17 268.041 108.046C267.793 107.804 267.541 107.564 267.284 107.327C268.21 106.949 269.15 106.572 270.105 106.196L270.114 106.192L270.122 106.189C271.118 105.781 272.147 105.368 273.206 104.952C273.414 105.111 273.62 105.271 273.824 105.432Z" fill="#EAFE01" stroke="#1573FF" stroke-width="2.71729"/>
</svg>
