<svg width="581" height="348" viewBox="0 0 581 348" fill="none" xmlns="http://www.w3.org/2000/svg">
<path d="M251.753 171.853C252.5 173.858 253.599 176.707 255.045 180.21C254.525 179.018 254.037 177.877 253.579 176.794C251.945 172.925 250.712 169.79 249.888 167.626C249.476 166.544 249.167 165.705 248.96 165.137C248.857 164.853 248.78 164.637 248.729 164.493C248.717 164.46 248.707 164.43 248.698 164.404C248.687 164.375 248.679 164.351 248.672 164.331L248.658 164.292L248.655 164.282L248.654 164.28C241.202 142.796 238.115 103.067 241.846 76.1283L241.829 76.126C241.846 76.1283 241.846 76.1282 241.846 76.1282L241.847 76.1262L241.848 76.117L241.854 76.0781C241.859 76.0431 241.866 75.9902 241.876 75.9198C241.897 75.7792 241.928 75.569 241.971 75.294C242.055 74.744 242.184 73.9349 242.361 72.9046C242.714 70.8438 243.258 67.8991 244.019 64.3732C245.541 57.3161 247.926 47.9546 251.378 38.6975C254.837 29.4221 259.332 20.3481 265.034 13.7941C270.719 7.25878 277.478 3.35683 285.55 4.03161C293.481 4.74233 302.037 9.60948 310.912 19.2479C319.779 28.8762 328.851 43.147 337.811 62.3795L337.815 62.388L337.819 62.3964C346.918 81.2462 357.932 110.201 366.684 134.488C367.433 136.566 368.165 138.61 368.878 140.61C360.773 118.393 353.007 98.1381 345.171 81.2955C336.178 61.2428 327.062 45.7916 318.052 34.8621C309.057 23.9511 300.061 17.4183 291.279 15.4573C282.213 13.4131 274.698 16.568 268.639 22.2763C262.626 27.9413 257.986 36.1643 254.47 44.4978C250.946 52.8524 248.505 61.4324 246.947 67.9112C246.167 71.1537 245.607 73.8771 245.24 75.7923C245.057 76.7501 244.923 77.5061 244.834 78.0244C244.789 78.2835 244.756 78.4832 244.734 78.619C244.723 78.6869 244.715 78.7388 244.709 78.7742L244.703 78.8147L244.701 78.8256L244.7 78.8286C244.7 78.8295 244.7 78.8301 246.043 79.038L244.7 78.8301L244.7 78.8303C242.583 92.523 242.185 109.439 243.241 125.657C244.296 141.865 246.809 157.481 250.563 168.551L250.617 168.533C250.563 168.552 250.563 168.552 250.563 168.552L250.564 168.555L250.568 168.567L250.582 168.609C250.592 168.638 250.606 168.677 250.623 168.727L250.639 168.774C250.689 168.919 250.764 169.133 250.863 169.413C251.062 169.973 251.359 170.795 251.753 171.853Z" fill="#EAFE01" stroke="#1573FF" stroke-width="2.71729"/>
</svg>
