<svg width="526" height="183" viewBox="0 0 526 183" fill="none" xmlns="http://www.w3.org/2000/svg">
<path d="M272.325 35.2293C265.592 33.8483 258.929 32.4717 252.349 31.112L252.348 31.1118L252.331 31.1084L252.33 31.1082L252.299 31.1018C207.952 21.9387 167.291 13.5374 133.868 9.76306C105.47 6.15636 82.1236 5.81075 63.8858 8.40711C45.6715 11.0001 32.3884 16.5515 24.3194 24.8942C15.9897 33.4709 14.3894 43.8226 16.5875 54.3383C18.7727 64.792 24.7153 75.4834 31.5713 85.0335C38.4406 94.6022 46.3 103.125 52.4317 109.248C55.4998 112.312 58.1407 114.78 60.0163 116.484C60.9543 117.336 61.7012 117.998 62.2149 118.447C62.4717 118.672 62.6703 118.843 62.8053 118.959C62.8333 118.983 62.8585 119.005 62.881 119.024C62.9128 119.052 62.939 119.074 62.9595 119.091L62.9996 119.126L63.0103 119.135L63.0132 119.137C63.0139 119.138 63.0145 119.138 63.892 118.101L63.0145 119.138L63.0147 119.138C76.7651 130.767 95.2725 142.678 114.002 152.505C132.722 162.326 151.757 170.116 166.571 173.444L166.591 173.356C166.572 173.444 166.572 173.445 166.572 173.445L166.576 173.446L166.591 173.449L166.648 173.462C166.698 173.473 166.772 173.489 166.869 173.51C167.063 173.552 167.351 173.614 167.729 173.694C168.484 173.852 169.598 174.08 171.04 174.359C173.923 174.917 178.117 175.678 183.368 176.495C193.87 178.129 208.61 179.986 225.57 180.879C228.297 181.023 231.082 181.142 233.917 181.231C229.54 181.155 225.258 181.007 221.101 180.804C203.674 179.95 188.474 178.115 177.632 176.494C172.212 175.684 167.883 174.927 164.911 174.374C163.426 174.097 162.279 173.871 161.506 173.715C161.12 173.636 160.826 173.576 160.63 173.534C160.532 173.514 160.459 173.498 160.41 173.488L160.355 173.476L160.342 173.473L160.339 173.473C160.339 173.473 160.339 173.473 160.339 173.474L160.339 173.473C131.306 167.16 84.9813 143.587 57.5361 121.113L57.4496 121.219C57.536 121.113 57.5359 121.113 57.5357 121.113L57.5336 121.111L57.5239 121.103L57.4839 121.07L57.4488 121.041C57.4157 121.014 57.3735 120.979 57.3223 120.937C57.1792 120.818 56.966 120.64 56.6883 120.405C56.1329 119.936 55.3197 119.242 54.2928 118.344C52.2389 116.548 49.3317 113.94 45.9253 110.695C39.1087 104.203 30.3113 95.1788 22.3557 85.0327C14.388 74.8713 7.32886 63.6645 3.90499 52.804C0.488707 41.9676 0.734753 31.648 7.08865 22.9826C13.367 14.5248 24.7202 8.27709 41.5328 4.93643C58.3319 1.59847 80.4219 1.19751 107.928 4.28974L107.938 4.29079L107.947 4.2917C135.122 6.96912 174.831 14.3789 207.79 21.1312C224.26 24.5054 239.029 27.712 249.679 30.075C255.005 31.2565 259.3 32.2271 262.264 32.9022C263.746 33.2397 264.895 33.5034 265.673 33.6826C265.834 33.7196 265.979 33.753 266.107 33.7827C266.29 33.8249 266.441 33.8597 266.558 33.8868L266.783 33.9389L266.839 33.952L266.853 33.9553L266.857 33.9561C266.857 33.9562 266.858 33.9563 266.93 33.6456L266.858 33.9563C268.673 34.3787 270.497 34.8035 272.325 35.2293Z" fill="#EAFE01" stroke="#1573FF" stroke-width="2.71729"/>
</svg>
