<svg width="421" height="343" viewBox="0 0 421 343" fill="none" xmlns="http://www.w3.org/2000/svg">
<path d="M221.509 177.111C222.608 178.568 223.712 180.033 224.818 181.501C220.565 176.158 216.363 170.864 212.213 165.634L212.212 165.633L212.199 165.618L212.198 165.617L212.181 165.594C184.049 130.149 158.255 97.65 135.051 73.3408C115.591 52.3791 97.9172 37.1575 82.2776 27.4675C66.6585 17.7901 52.9263 13.5428 41.4052 14.7799C29.5341 16.0297 21.6876 22.9543 16.6482 32.4366C11.6385 41.8633 9.35663 53.8794 8.50469 65.6045C7.65108 77.3523 8.22527 88.9313 9.00952 97.561C9.40194 101.879 9.84765 105.466 10.1957 107.976C10.3697 109.231 10.5193 110.218 10.6258 110.892C10.679 111.229 10.7214 111.488 10.7507 111.663C10.7653 111.751 10.7766 111.818 10.7844 111.863L10.7933 111.915L10.7957 111.929L10.7963 111.933C10.7965 111.934 10.7966 111.935 12.135 111.701L10.7966 111.935L10.7967 111.935C13.9003 129.672 20.4692 150.674 28.5409 170.218C36.6086 189.752 46.2178 207.927 55.4441 219.974L55.5179 219.917C55.4443 219.974 55.4445 219.974 55.4448 219.975L55.4473 219.978L55.4565 219.99L55.4919 220.036C55.5231 220.076 55.5692 220.136 55.6301 220.215C55.752 220.372 55.9331 220.604 56.1718 220.907C56.6493 221.512 57.3576 222.401 58.2842 223.539C60.1375 225.814 62.8648 229.085 66.3675 233.077C73.3721 241.059 83.4827 251.927 95.9113 263.478C97.8744 265.303 99.8961 267.145 101.973 268.996C98.7082 266.168 95.5599 263.345 92.5395 260.559C79.7279 248.739 69.2504 237.593 61.9769 229.403C58.3406 225.309 55.5063 221.954 53.5827 219.626C52.6209 218.462 51.8869 217.554 51.3943 216.938C51.148 216.631 50.962 216.396 50.8381 216.239C50.7761 216.16 50.7296 216.101 50.6989 216.062L50.6646 216.018L50.6564 216.007L50.6545 216.005C50.6545 216.005 50.6545 216.005 50.6532 216.006L50.6544 216.005C32.4374 192.559 12.0049 144.781 5.33941 109.943L5.21358 109.967C5.33939 109.942 5.33937 109.942 5.33933 109.942L5.3388 109.939L5.33648 109.927L5.32687 109.876C5.3183 109.83 5.30545 109.761 5.28863 109.67C5.255 109.487 5.2055 109.213 5.1426 108.856C5.01681 108.14 4.8375 107.085 4.62451 105.738C4.19851 103.044 3.63806 99.1783 3.10191 94.5048C2.02901 85.1523 1.05637 72.5874 1.44656 59.6999C1.83734 46.793 3.59297 33.6652 7.91363 23.1322C12.2249 12.6221 19.0125 4.8566 29.4223 2.27359C39.6413 -0.198328 52.3371 2.27672 67.3595 10.4818C82.3699 18.6802 99.5576 32.5233 118.663 52.5187L118.67 52.5254L118.676 52.5321C137.794 71.997 163.492 103.125 184.436 129.424C194.903 142.566 204.172 154.489 210.824 163.126C214.15 167.445 216.822 170.942 218.662 173.359C219.582 174.567 220.294 175.506 220.776 176.142C220.878 176.277 220.97 176.398 221.052 176.506C221.162 176.652 221.253 176.772 221.324 176.866L221.463 177.05L221.498 177.096L221.506 177.108L221.509 177.11C221.509 177.111 221.509 177.111 221.77 176.915L221.509 177.111Z" fill="#EAFE01" stroke="#1573FF" stroke-width="2.71729"/>
</svg>
