<svg width="1900" height="635" viewBox="0 0 1900 635" fill="none" xmlns="http://www.w3.org/2000/svg">
<path fill-rule="evenodd" clip-rule="evenodd" d="M186.459 19.1448C178.796 21.3402 171.236 24.1932 163.841 27.5433C146.926 35.205 127.277 33.6332 110.978 24.7376C95.6128 16.3519 82.4053 13.6777 71.6198 16.2631C49.3561 21.7315 43.1907 49.438 42.5304 75.4674C42.3559 82.3474 40.6109 89.1201 39.3785 95.8911C38.7985 99.0775 38.5085 102.532 38.5085 106.253V106.253C38.5085 120.646 38.7648 135.855 32.0814 148.602C19.6502 172.31 8.50982 202.138 3.93317 225.852C3.93292 225.853 3.93305 225.853 3.93279 225.854C3.92436 225.898 -14.5269 321.61 28.5745 332.207V332.207C46.193 336.434 79.7862 355.898 81.4183 373.943C82.6043 387.055 84.39 396.307 84.392 396.317C84.3921 396.318 84.392 396.318 84.3922 396.319C91.09 430.986 111.594 478.502 129.964 501.92C129.967 501.924 129.966 501.923 129.97 501.927C130.035 502.01 133.008 505.789 138.365 511.899C145.758 520.331 149.803 531.108 150.771 542.28C152.736 564.943 159.914 586.542 179.308 591.296C184.16 592.457 189.501 592.556 195.308 591.551C210.76 588.878 227.065 588.216 241.126 595.157C250.585 599.827 260.341 603.75 270.267 606.59C330.256 624.922 395.761 625.283 457.905 625.626C471.638 625.702 485.207 625.776 498.516 626.044L501.283 626.065C487.949 625.785 474.354 625.701 460.598 625.615H460.591L460.572 625.615H460.568C398.251 625.225 332.632 624.815 272.961 606.191V606.191C247.654 598.819 247.227 564.086 265.838 545.42C267.221 544.032 268.615 542.612 270.018 541.16C274.624 536.525 279.607 531.225 284.812 525.488C302.94 505.506 334.625 505.55 352.101 526.105V526.105L346.714 519.388C343.691 515.366 337.082 506.643 328.924 495.898C323.785 489.128 324.525 479.049 329.886 472.453V472.453C338.853 461.419 356.088 464.789 362.387 477.537C368.863 490.644 375.823 502.342 382.501 510.855C382.504 510.859 382.503 510.857 382.506 510.861C382.587 510.964 392.051 523 407.859 539.062C414.659 545.971 418.853 554.91 421.722 564.169C425.871 577.558 433.349 588.14 446.203 591.296C447.203 591.536 448.223 591.731 449.265 591.879C461.791 593.668 474.97 594.122 486.088 600.163C497.878 606.569 510.205 611.919 522.804 615.525C582.793 633.856 648.298 634.218 710.442 634.56C724.175 634.636 737.744 634.711 751.053 634.979L753.82 635C740.486 634.72 726.891 634.635 713.136 634.549H713.129L713.109 634.549H713.105C650.788 634.16 585.169 633.749 525.498 615.126V615.126C501.905 608.253 503.244 572.759 521.377 556.175C526.357 551.621 531.483 546.619 536.749 541.16C538.94 538.952 541.216 536.592 543.561 534.107C560.297 516.366 588.841 516.459 604.638 535.039V535.039L599.251 528.323C598.561 527.405 597.685 526.244 596.647 524.869C584.528 508.825 585.094 486.552 597.747 470.926C620.985 442.228 639.678 417.68 639.698 417.654C639.699 417.653 639.698 417.654 639.699 417.652C645.21 410.413 650.865 402.978 656.233 395.915C662.513 387.652 675.823 390.025 680.587 399.246V399.246C690.169 417.79 701.537 432.165 714.692 442.37C715.475 442.978 715.56 444.136 714.859 444.837V444.837C714.784 444.913 714.716 444.996 714.656 445.084C714.03 446.002 713.258 446.92 712.34 447.837C705.605 455.214 698.548 461.95 691.172 468.044C683.474 474.459 675.135 479.109 666.154 481.996C657.173 484.562 648.674 484.401 640.656 481.515C637.128 479.911 633.92 477.185 631.034 473.336V473.336C628.767 469.451 623.877 469.73 624.854 474.12C624.974 474.657 625.109 475.198 625.26 475.741C626.864 481.835 630.392 486.647 635.845 490.175C647.07 495.948 658.296 496.91 669.522 493.061C680.427 489.533 689.889 484.241 697.907 477.185C706.246 470.129 713.783 462.591 720.519 454.573C721.386 453.417 722.253 452.391 723.12 451.495C723.308 451.302 723.445 451.114 723.581 450.881V450.881C724.174 449.867 725.553 449.73 726.554 450.342C735.608 455.88 744.661 459.856 753.715 462.271C763.337 464.836 771.997 466.119 779.695 466.119C790.92 466.119 802.788 463.233 815.296 457.46C828.126 452.007 839.672 445.913 849.936 439.178C860.434 432.497 868.407 427.079 873.857 422.923C869.667 426.099 862.495 429.433 852.341 432.923C842.399 436.772 829.409 438.696 813.372 438.696C803.75 438.696 793.486 436.451 782.581 431.961C772.505 427.991 762.864 421.842 753.66 413.512C752.831 412.762 752.615 411.55 753.114 410.55V410.55C753.194 410.391 753.29 410.241 753.401 410.103L757.083 405.5C762.856 397.161 769.271 389.303 776.327 381.926C779.855 378.398 783.704 375.832 787.873 374.228C790.119 373.587 792.524 373.427 795.09 373.747C796.088 373.747 797.087 373.842 798.085 374.033C799.4 374.283 800.328 373.054 799.152 372.415V372.415C799.016 372.341 798.884 372.248 798.772 372.142C797.847 371.269 796.78 370.682 795.571 370.38C792.685 369.738 789.798 369.738 786.911 370.38C781.459 372.304 776.808 375.03 772.959 378.558C765.323 385.24 758.318 392.553 751.945 400.497C751.845 400.621 751.791 400.776 751.791 400.936V400.936C751.791 401.088 751.742 401.236 751.649 401.357C750.857 402.382 749.961 403.303 748.96 404.119C748.616 404.399 748.345 404.8 748.164 405.205V405.205C747.675 406.292 746.292 406.279 745.455 405.429C724.413 384.065 712.056 352.022 708.385 309.3C708.148 306.541 710.052 303.987 712.821 303.987V303.987C718.915 303.987 723.887 306.072 727.735 310.242C731.584 314.411 735.112 319.222 738.32 324.675C741.206 330.127 744.574 334.938 748.423 339.108C752.593 343.277 757.885 345.362 764.299 345.362C771.035 345.362 777.45 342.636 783.544 337.183C789.958 331.731 795.732 325.637 800.863 318.901C805.995 311.845 810.004 305.591 812.891 300.138L814.921 296.688C815.507 295.691 814.285 294.617 813.372 295.327V295.327C810.485 297.573 806.476 299.978 801.344 302.544C796.213 304.789 790.279 305.912 783.544 305.912C779.053 305.912 775.204 304.148 771.997 300.62C769.11 297.091 766.224 292.761 763.337 287.63C759.809 281.856 755.479 276.083 750.347 270.31C747.14 266.782 742.97 265.499 737.839 266.461C732.707 267.423 728.698 269.989 725.811 274.159V274.159C720.158 283.204 708.842 277.702 710.264 267.131C710.306 266.817 710.349 266.505 710.392 266.192C711.223 260.187 716.266 255.723 722.32 255.413C747.443 254.124 772.623 253.967 797.285 253.813H797.289L797.311 253.813C811.068 253.727 824.664 253.642 838 253.362L835.233 253.383C821.924 253.651 808.355 253.726 794.622 253.801C781.946 253.871 769.129 253.942 756.249 254.166C733.762 254.557 715.632 234.055 724.849 213.54V213.54C734.792 191.409 744.734 174.41 754.677 162.543L766.935 148.369C768.928 146.066 771.823 144.742 774.869 144.742H785.72C792.541 144.742 795.818 154.117 790.76 158.694V158.694C784.345 164.788 778.572 172.004 773.44 180.343C768.309 188.683 765.743 197.663 765.743 207.285C765.743 212.738 765.101 217.068 763.818 220.275C762.856 223.482 761.733 226.048 760.451 227.973C759.168 229.576 757.885 230.859 756.602 231.822V231.822C756.268 232.044 756.474 232.565 756.869 232.499L763.818 231.34C769.592 230.058 776.327 228.935 784.025 227.973C791.722 226.69 798.779 226.048 805.193 226.048C810.966 226.048 814.334 224.605 815.296 221.718C816.579 218.832 817.06 214.823 816.74 209.691C815.778 201.993 817.06 192.531 820.589 181.306C823.232 172.896 829.565 163.946 839.589 154.456C846.603 147.814 856.151 144.742 865.811 144.742H867.817C877.095 144.742 886.083 141.509 893.235 135.601V135.601C900.612 129.186 911.838 122.771 926.913 116.357C930.12 115.074 932.846 113.149 935.091 110.583C937.337 108.017 939.101 105.452 940.384 102.886C941.667 99.999 942.629 97.5935 943.27 95.6691V95.6691C943.752 93.9814 942.442 92.2736 940.799 92.8909C939.955 93.208 939.175 93.6529 938.459 94.2258C937.176 95.5087 935.893 97.1124 934.61 99.0368C932.365 101.923 929.318 104.81 925.469 107.697C921.62 110.263 916.008 111.546 908.631 111.546H872.067L811.929 111.546H760.451H740.567C739.857 111.546 739.282 110.97 739.282 110.26V110.26C739.282 110.155 739.295 110.051 739.319 109.949C739.615 108.692 739.763 107.14 739.763 105.291C739.763 103.046 739.282 100.801 738.32 98.5557C737.376 96.0394 735.816 93.6774 733.638 91.4695C733.552 91.3825 733.472 91.2901 733.398 91.1931C731.735 89.0217 729.379 86.9657 726.331 85.0251C725.972 84.7966 725.575 85.2119 725.811 85.5659V85.5659C726.453 86.5281 727.094 87.811 727.735 89.4147C728.377 91.0184 728.698 92.9428 728.698 95.188C728.698 101.603 723.406 110.423 712.821 121.649C702.558 132.554 690.69 143.459 677.219 154.364C664.069 165.269 652.202 174.57 641.618 182.268L631.316 189.672C628.877 191.425 628.98 195.088 631.515 196.701V196.701C635.043 198.946 639.052 202.635 643.542 207.766C648.353 212.577 652.523 218.992 656.051 227.011C659.579 234.708 661.343 244.17 661.343 255.396V255.396C661.343 258.59 658.904 261.193 655.751 261.702C639.217 264.372 622.906 267.971 606.984 272.837V272.837C593.018 276.834 577.661 267.338 577.661 252.812V207.67C577.661 200.135 579.704 192.766 583.166 186.074C595.501 162.233 606.463 132.711 611.026 109.132C611.026 109.132 611.026 109.132 611.027 109.131C611.03 109.114 611.747 105.403 612.574 99.3587C612.626 98.9777 612.892 98.6569 613.263 98.5557V98.5557C613.758 98.3575 614.208 98.1745 614.612 98.0069C615.963 97.446 617.665 96.2223 616.63 95.188V95.188V95.188C615.173 93.9736 613.423 92.572 613.621 90.6854C614.502 82.2962 615.216 71.8388 615 61.0379C614.692 45.6954 626.239 30.9558 641.582 30.6332V30.6332L638.815 30.6543V30.6543C622.586 30.9814 610.285 17.9262 598.057 7.25049C594.666 4.29054 590.644 2.11105 585.887 0.944871C570.393 -2.76239 549.899 4.36524 525.191 23.6653C517.639 29.5647 508.633 33.4114 499.083 34.2112C468.965 36.7334 439.14 41.3966 410.566 50.1447V50.1447C398.429 53.6247 385.186 51.3193 375.487 43.2363C348.488 20.7353 326.238 12.2908 309.696 16.2632C300.925 18.4215 294.657 24.0438 290.242 31.6599C285.662 39.56 278.983 46.798 273.768 54.2941V54.2941C268.637 61.3503 266.231 70.4913 266.552 81.7171C267.181 92.7269 271.821 103.583 280.472 114.284C280.764 114.646 281.281 114.736 281.68 114.496V114.496C282.261 114.148 283.008 114.508 283.101 115.179C283.175 115.719 283.248 116.239 283.32 116.739C283.371 117.092 283.325 117.453 283.19 117.784C283.122 117.952 283.055 118.121 282.988 118.29C282.166 120.372 279.862 121.527 277.788 120.689C273.756 119.059 269.69 117.134 265.59 114.913C264.831 114.487 264.072 114.057 263.313 113.626C260.192 111.851 259.373 107.74 261.528 104.869V104.869L266.818 98.2665V98.2665C261.104 104.995 251.373 106.723 243.865 102.08C235.482 96.8953 227.007 91.3907 218.441 85.5659C202.725 74.3401 187.009 64.3973 171.293 55.7374C160.119 49.5799 149.106 45.6116 138.256 43.8323C138.245 43.8306 138.236 43.8262 138.228 43.8196V43.8196C138.198 43.7946 138.201 43.7481 138.234 43.727C153.992 33.5092 171.197 24.7597 189.104 19.5373C247.7 1.22941 312.136 0.8261 373.331 0.443171H373.335L373.357 0.44303C386.866 0.358594 400.217 0.275146 413.312 0L410.595 0.0207591C397.526 0.283919 384.202 0.357618 370.716 0.432068L370.715 0.432069C309.692 0.769035 245.366 1.12423 186.459 19.1448ZM389.447 513.148C389.445 513.146 389.446 513.147 389.444 513.145C378.171 498.566 366.239 474.706 357.312 450.371C355.377 445.096 357.367 438.014 360.825 433.584V433.584C365.864 427.13 373.907 426.432 381.015 430.498C391.4 436.438 401.141 442.378 410.237 448.319V448.319C420.018 454.899 424.584 467.045 422.05 478.559C421.712 480.097 421.398 481.615 421.109 483.109C421.109 483.109 421.109 483.109 421.109 483.11C421.107 483.121 419.611 490.872 418.448 502.238C416.998 516.409 398.156 524.421 389.447 513.148V513.148ZM433.548 556.646C435.25 560.388 438.032 563.493 441.165 566.154C442.789 567.533 444.442 568.913 446.123 570.29C449.748 573.258 453.872 575.751 458.53 576.253C458.57 576.258 458.611 576.262 458.653 576.266C480.834 578.626 512.335 560.111 551.165 518.688V518.688C563.614 505.774 563.805 485.587 552.578 471.597C549.72 468.035 546.885 464.498 544.074 460.991L544.072 460.989L544.072 460.988C522.109 433.583 501.604 407.998 482.654 386.664C477.676 381.059 469.027 381.316 465.125 387.718V387.718C463.376 390.587 462.585 394.633 464.602 397.321V397.321C465.564 398.604 466.526 399.567 467.488 400.208C468.044 400.486 468.569 400.733 469.064 400.951C470.231 401.464 471.506 401.651 472.78 401.651V401.651V401.651C473.02 401.651 473.096 401.975 472.882 402.082L468.931 404.057C465.724 405.34 461.875 407.264 457.385 409.83C455.699 410.868 454.066 411.984 452.485 413.179C451.704 413.769 451.098 414.546 450.696 415.438V415.438C449.403 418.301 450.519 421.667 453.219 423.274C455.12 424.406 456.99 425.537 458.828 426.669C474.865 437.253 485.129 442.545 489.619 442.545C491.588 442.545 493.375 442.364 494.981 442.002C496.904 441.568 498.784 440.931 500.627 440.233C501.819 439.782 502.792 439.276 503.546 438.715C503.563 438.703 503.58 438.692 503.599 438.683V438.683C503.948 438.508 504.216 438.896 503.916 439.146C501.819 440.891 498.336 443.467 493.468 446.875C487.374 451.366 479.836 455.695 470.856 459.865C462.196 464.035 453.215 466.119 443.914 466.119V466.119C438.229 466.119 432.174 467.672 430.93 473.219C430.287 476.087 429.721 478.893 429.239 481.62C429.239 481.621 429.239 481.621 429.239 481.622C429.234 481.65 420.907 528.855 433.548 556.646ZM628.251 427.374C615.842 442.858 603.899 457.761 592.438 471.645C582.746 483.385 564.74 482.822 555.519 470.709V470.709C555.519 470.708 555.519 470.709 555.518 470.708C555.497 470.68 543.837 455.368 527.492 434.8C525.588 432.403 526.813 428.519 529.551 427.15V427.15C532.437 425.546 535.645 423.943 539.173 422.339C543.021 421.056 547.031 420.414 551.2 420.414C555.049 420.414 558.096 420.575 560.341 420.896C562.586 421.537 564.671 422.339 566.596 423.301C568.199 423.943 570.124 424.424 572.369 424.744C574.614 425.386 577.501 425.707 581.029 425.707C583.274 425.707 585.198 425.546 586.802 425.226C588.406 424.905 589.689 424.424 590.651 423.782C591.244 423.387 591.715 422.991 592.065 422.596C592.459 422.149 592.824 421.665 593.145 421.163C593.202 421.074 593.252 420.985 593.297 420.896C593.591 420.307 593.778 419.629 593.778 418.971C593.778 418.686 593.715 418.401 593.588 418.116C593.556 418.045 593.537 417.968 593.537 417.89V417.89C593.537 417.674 593.399 417.482 593.194 417.413L592.359 417.135C592.184 417.077 592 417.049 591.815 417.038C591.195 417.002 590.457 416.847 589.601 416.575C588.687 416.284 587.765 416.014 586.85 415.725C585.712 415.365 584.573 414.843 583.434 414.16C583.375 414.125 583.317 414.089 583.258 414.053C580.259 412.219 577.85 409.262 577.679 405.751C577.667 405.511 577.661 405.267 577.661 405.019V393.473V383.851V380.002V359.161C577.661 355.578 580.673 352.734 584.252 352.91C591.122 353.246 597.993 353.499 604.854 353.693C605.298 353.706 605.444 354.289 605.054 354.503V354.503V354.503C606.071 354.003 607.195 353.758 608.329 353.786C625.049 354.211 641.698 354.303 658.112 354.394H658.114H658.115V354.394C663.029 354.421 667.172 358.002 668.167 362.814C668.454 364.203 668.754 365.575 669.067 366.93C670.179 371.741 669.142 376.837 666.008 380.653C652.989 396.508 640.398 412.218 628.254 427.371L628.252 427.373L628.251 427.374ZM523.777 419.452V419.452C522.419 422.168 518.066 423.006 516.159 420.643C507.468 409.869 498.044 398.386 488.662 387.312C481.338 378.665 481.07 365.976 488.718 357.615C490.434 355.738 492.283 353.752 494.256 351.678C499.243 346.434 506.592 344.3 513.72 345.548V345.548C524.386 347.416 532.437 356.505 532.437 367.333V382.888C532.437 391.227 531.475 398.444 529.551 404.538C527.626 410.632 525.702 415.603 523.777 419.452ZM476.457 337.09C485.905 339.781 489.38 351.867 482.705 359.074C482.427 359.375 482.152 359.672 481.88 359.967C477.269 364.973 469.314 365.013 464.716 359.996C463.831 359.03 462.953 358.079 462.084 357.143C461.847 356.888 461.715 356.552 461.715 356.204V356.204C461.715 355.439 462.338 354.82 463.103 354.826L464.123 354.834V354.834C462.786 354.806 461.715 353.715 461.715 352.377V344.881V341.721C461.715 337.229 466.159 334.084 470.477 335.323V335.323C472.464 335.931 474.458 336.52 476.457 337.09ZM416.01 328.056C416.01 326.412 415.149 324.864 413.742 324.013V324.013C412.656 323.356 411.369 323.193 410.139 323.507C406.795 324.36 403.437 325.163 400.065 325.92C399.849 325.969 399.771 326.237 399.928 326.393V326.393C400.04 326.506 400.037 326.689 399.921 326.798L391.484 334.672C384.013 341.645 388.749 354.077 398.968 354.191C400.274 354.205 401.58 354.219 402.884 354.231C410.119 354.301 416.01 348.444 416.01 341.209V328.056ZM415 308.604C415.629 309.02 416.01 309.724 416.01 310.479V310.479C416.01 312.303 413.943 313.369 412.433 312.346C411.977 312.037 411.523 311.733 411.07 311.433C409.697 310.523 409.693 308.488 411.083 307.604V307.604C411.838 307.123 412.806 307.138 413.549 307.637C414.031 307.96 414.515 308.283 415 308.604ZM401.088 324.78C404.684 323.917 405.25 319.24 401.879 317.721C401.092 317.367 400.312 317.029 399.539 316.707C398.494 316.273 397.31 316.398 396.37 317.028V317.028C394.567 318.239 394.33 320.796 395.866 322.332L397.216 323.682C398.229 324.694 399.695 325.114 401.088 324.78V324.78ZM331.521 344.213C332.94 343.643 333.905 342.307 334.096 340.789V340.789C334.441 338.049 332.213 335.629 329.459 335.831C327.943 335.942 326.428 336.048 324.912 336.149C323.301 336.257 321.773 336.899 320.561 337.964C316.561 341.477 312.661 344.692 308.862 347.614C308.021 348.26 308.387 349.61 309.441 349.726V349.726C309.504 349.733 309.567 349.735 309.63 349.732C313.452 349.528 317.32 348.873 321.232 347.768C324.728 346.748 328.158 345.563 331.521 344.213ZM332.408 335.291C333.911 335.166 335.131 334.039 335.43 332.56C335.435 332.536 335.44 332.513 335.444 332.489C335.664 331.407 335.352 330.282 334.587 329.485V329.485C333.317 328.162 331.136 328.205 329.811 329.473V329.473C327.519 331.665 329.247 335.554 332.408 335.291V335.291ZM360.785 296.908C360.619 297.096 360.807 297.39 361.049 297.322V297.322C361.09 297.31 361.128 297.288 361.158 297.258L363.387 295.029C364.816 293.6 367.134 293.6 368.563 295.029V295.029C369.264 295.73 370.22 296.109 371.211 296.131C378.45 296.294 386.537 298.396 395.414 302.536C396.465 303.027 397.698 302.942 398.652 302.282V302.282C400.459 301.033 400.498 298.377 398.749 297.048C392.393 292.222 386.343 287.269 380.66 282.35C378.365 280.364 374.886 280.609 372.917 282.918C368.825 287.717 364.76 292.412 360.785 296.908ZM332.269 351.797C332.749 351.832 333.166 351.465 333.192 350.984C333.193 350.959 333.195 350.934 333.196 350.909C333.229 350.31 332.656 349.859 332.081 350.032V350.032C331.157 350.312 331.306 351.727 332.269 351.797V351.797ZM346.335 344.75C345.493 345.122 344.871 345.868 344.69 346.771C344.574 347.346 344.463 347.924 344.358 348.504C343.964 350.666 345.589 352.643 347.782 352.756V352.756C351.167 352.932 352.987 348.877 350.626 346.445L349.579 345.366C348.737 344.499 347.44 344.261 346.335 344.75V344.75ZM325.28 351.877C325.91 351.725 326.558 351.669 327.204 351.717V351.717C330.494 351.963 332.997 354.776 332.947 358.075C332.9 361.156 332.927 364.205 333.011 367.181C333.231 375.024 327.913 382.065 320.47 384.547C318.107 385.335 315.635 386.225 313.054 387.218C300.545 391.709 288.517 396.68 276.971 402.133V402.133C268.233 406.376 257.611 404.251 251.443 396.747C248.662 393.365 245.847 389.964 243.018 386.576C238.521 381.188 235.506 374.632 235.325 367.616C235.295 366.469 235.28 365.306 235.28 364.125V364.125C235.28 362.865 236.866 362.223 237.821 363.046C241.166 365.93 245.122 368.057 249.785 369.204C260.049 371.669 272.511 369.353 286.941 361.865C297.262 356.509 309.015 354.406 320.536 352.83C321.089 352.755 321.642 352.671 322.195 352.579C323.227 352.357 324.256 352.123 325.28 351.877ZM353.182 353.204C347.8 352.98 343.067 356.851 342.711 362.225C342.311 368.282 342.291 374.275 342.477 379.807C342.481 379.917 342.572 380.003 342.682 380.002V380.002L342.803 380.002L342.882 380.002C354.429 380.002 366.456 382.247 378.965 386.737V386.737C386.215 389.094 394.268 387.027 399.11 381.139C404.304 374.823 409.565 368.483 414.894 362.146C415.614 361.29 416.01 360.207 416.01 359.087V359.087C416.01 356.477 413.901 354.356 411.29 354.34C398.884 354.262 386.362 354.149 373.794 353.859C372.003 353.818 370.265 354.477 368.955 355.699V355.699C366.231 358.242 361.974 358.136 359.379 355.463L359.292 355.374C358.043 354.086 356.345 353.332 354.552 353.26C354.096 353.241 353.639 353.223 353.182 353.204ZM357.315 417.528V417.528C352.69 415.102 347.642 419.192 348.989 424.238C349.099 424.65 349.21 425.063 349.323 425.476C350.806 430.925 357.785 432.232 361.32 427.828C361.386 427.747 361.451 427.666 361.516 427.584L361.525 427.574L361.557 427.534L361.658 427.408L361.685 427.374L361.686 427.373L361.69 427.367V427.367C363.889 424.629 363.069 420.567 359.965 418.924C359.086 418.459 358.202 417.993 357.315 417.528ZM338.767 455.815C344.599 448.633 346.108 438.934 343.341 430.106C342.959 428.887 342.587 427.672 342.226 426.463C338.964 415.544 331.216 405.947 320.028 403.785C314.323 402.683 308.791 402.133 303.432 402.133C298.941 402.133 295.092 402.453 291.885 403.095C288.678 403.736 284.508 405.18 279.376 407.425V407.425C271.965 410.204 269.935 419.548 274.86 425.745C291.259 446.379 302.965 461.752 302.981 461.773C302.982 461.774 302.981 461.774 302.982 461.774V461.774C310.58 471.756 325.465 472.115 333.403 462.401C335.18 460.227 336.968 458.031 338.767 455.815ZM466.986 369.674V369.674C465.084 367.645 461.715 369.002 461.715 371.784V384.332V384.332C461.715 384.334 461.717 384.334 461.718 384.333C463.384 381.881 465.043 379.595 466.685 377.502C466.685 377.501 466.685 377.501 466.685 377.501C466.688 377.498 466.877 377.258 467.243 376.802C468.947 374.686 468.871 371.63 466.986 369.674V369.674ZM383.083 60.7888C383.755 60.4636 383.872 59.5519 383.297 59.0752C381.334 57.4482 379.396 55.8936 377.484 54.4112C376.535 53.6745 375.068 55.2376 375.763 56.2185V56.2185C376.204 56.8412 376.628 57.4744 377.035 58.1181C377.984 59.6162 379.574 60.602 381.34 60.7637C381.732 60.7996 382.122 60.84 382.511 60.8849C382.707 60.9076 382.905 60.8746 383.083 60.7888V60.7888ZM385.887 61.396C385.832 61.3856 385.822 61.3103 385.872 61.2855V61.2855C385.893 61.2753 385.918 61.2784 385.936 61.2935V61.2935C385.982 61.3325 385.946 61.4071 385.887 61.396V61.396ZM329.854 99.0571C329.935 98.8329 330.074 98.6366 330.256 98.483V98.483C331.191 97.695 332.588 98.421 332.438 99.6345C332.236 101.267 331.973 102.827 331.65 104.315C330.913 107.709 327.805 106.866 328.577 103.48C328.94 101.888 329.365 100.413 329.854 99.0571ZM261.771 167.291C264.976 162.143 261.041 155.199 255.181 153.643C252.833 153.02 250.418 152.262 247.935 151.369C245.834 150.614 243.542 151.163 242.06 152.833V152.833C240.357 154.752 240.116 157.694 241.707 159.707C244.235 162.907 246.622 165.941 248.835 168.767C252.109 172.946 258.966 171.798 261.771 167.291V167.291ZM265.464 190.233C261.753 185.359 261.053 178.782 263.997 173.411C267.395 167.21 270.863 161.547 274.3 156.667C274.839 155.901 275.57 155.425 276.499 155.304V155.304C278.229 155.076 279.972 156.159 280.474 157.83C281.756 162.09 283.635 166.387 286.112 170.721C291.564 179.381 297.819 188.041 304.875 196.701C312.252 206.002 318.827 215.464 324.6 225.086C330.373 234.708 333.26 244.651 333.26 254.915C333.26 263.254 331.817 270.31 328.93 276.083V276.083C328.741 276.485 328.4 276.794 327.984 276.951C293.948 289.788 262.619 314.033 239.457 335.498C239.119 335.811 238.645 335.92 238.205 335.787V335.787C237.858 335.682 237.571 335.437 237.417 335.11C236.869 333.946 236.36 332.746 235.886 331.515C235.469 330.434 235.28 329.281 235.28 328.122V252.209C235.28 249.143 235.567 246.335 236.337 243.367V243.367C243.535 215.63 278.496 211.197 296.75 233.286C302.639 240.413 308.613 247.558 314.672 254.685L309.275 247.956C303.343 240.063 283.626 214.094 265.464 190.234C265.464 190.233 265.464 190.233 265.464 190.233V190.233ZM254.028 180.806C254.081 180.707 254.07 180.585 253.999 180.497V180.497L253.997 180.495L253.996 180.494C248.267 173.345 242.637 166.319 237.108 159.46C236.736 158.998 236.052 158.949 235.615 159.35V159.35C235.403 159.544 235.28 159.82 235.28 160.107V181.465C235.28 189.673 248.165 192.228 251.892 184.916C252.599 183.527 253.312 182.156 254.028 180.806ZM306.002 349.789C305.995 349.789 305.992 349.78 305.998 349.775V349.775C305.999 349.774 306.001 349.774 306.003 349.774L306.172 349.792C306.115 349.791 306.059 349.79 306.002 349.789ZM291.304 337.709C296.547 337.556 298.607 344.053 293.936 346.44C293.437 346.695 292.941 346.944 292.447 347.186C292.19 347.313 291.894 347.333 291.622 347.241C289.337 346.47 287.069 345.525 284.818 344.406C284.232 344.115 283.764 344.832 284.311 345.191V345.191C284.803 345.516 284.489 346.332 283.907 346.236C279.204 345.46 274.52 344.607 269.861 343.67C266.265 342.946 266.808 338.206 270.475 338.152C277.401 338.051 284.347 337.911 291.304 337.709ZM369.699 272.509C371.753 274.42 371.988 277.666 370.125 279.765C364.879 285.675 359.753 291.257 354.747 296.459C342.264 309.801 330.538 320.771 319.636 329.437C313.338 334.442 305.522 337.046 297.484 337.354C280.758 337.993 264.047 338.211 247.518 338.339C247.27 338.341 247.023 338.309 246.784 338.244V338.244C244.743 337.69 244.111 335.128 245.661 333.69C264.336 316.355 288.489 297.241 315.304 284.121C319.457 282.089 323.058 286.285 319.789 289.554V289.554C316.261 292.761 313.054 295.167 310.167 296.771L305.837 298.695L317.384 295.327C325.402 293.082 334.383 289.554 344.325 284.743C350.892 281.354 356.969 277.265 362.556 272.477C364.636 270.695 367.693 270.643 369.699 272.509V272.509ZM386.941 266.209C382.143 272.008 382.667 280.591 388.391 285.478C391.401 288.047 394.513 290.62 397.718 293.173C401.632 296.289 407.117 296.386 411.193 293.484V293.484C414.215 291.333 416.01 287.836 416.01 284.126V278.054C416.01 267.673 406.972 259.564 396.709 261.132C396.295 261.195 395.881 261.259 395.467 261.323C392.119 261.844 389.101 263.598 386.941 266.209V266.209ZM374.445 265.142C377.808 264.438 380.043 268.389 377.799 270.99V270.99C376.444 272.56 374.093 272.641 372.592 271.21C371.352 270.029 370.14 268.858 368.955 267.701C368.614 267.368 368.61 266.822 368.943 266.481V266.481C369.059 266.361 369.208 266.277 369.372 266.241C371.059 265.863 372.751 265.497 374.445 265.142ZM403.315 246.146C399.17 251.289 403.016 259.653 409.575 258.881V258.881C413.226 258.451 416.01 255.373 416.01 251.697V251.169C416.01 244.27 407.644 240.774 403.315 246.146V246.146ZM416.01 209.577C416.01 219.378 412.671 228.893 406.497 236.504C399.548 245.07 392.767 253.325 386.156 261.178C385.501 261.956 384.591 262.475 383.59 262.65C379.143 263.427 374.715 264.274 370.307 265.198C370.254 265.209 370.219 265.146 370.256 265.107V265.107C370.316 265.043 370.376 264.978 370.437 264.913C370.553 264.788 370.67 264.663 370.786 264.537C378.805 255.877 382.814 245.453 382.814 233.265C382.814 223.001 379.927 213.54 374.154 204.88V204.88C373.399 203.637 373.497 202.051 374.416 200.923C384.377 188.699 394.076 176.618 403.508 164.87L403.51 164.868L403.511 164.867V164.867C404.054 164.191 404.984 163.971 405.801 164.264C405.937 164.313 406.077 164.362 406.221 164.411C406.332 164.449 406.441 164.493 406.545 164.546C408.426 165.508 410.458 166.925 412.642 168.797C414.887 170.721 416.01 173.608 416.01 177.457V209.577ZM475.06 154.125C474.881 153.899 474.879 153.579 475.053 153.35C480.479 146.182 484.75 140.527 487.012 137.511L492.4 130.782V130.782C482.843 142.043 465.773 142.407 456.448 130.953V130.953C449.361 122.246 448.872 109.147 456.201 100.643C464.675 90.8104 472.855 81.7136 480.736 73.5531C493.63 59.8229 505.717 48.6095 516.925 39.839C523.18 34.9439 530.908 32.4127 538.845 32.1173C549.785 31.7102 560.717 31.4812 571.594 31.3369C586.854 31.1344 601.483 39.3061 603.927 54.3708C605.15 61.9082 605.584 69.7542 605.582 77.1102C605.579 89.2559 597.561 99.6555 586.802 105.291V105.291C581.349 108.499 576.057 111.385 570.926 113.951C565.794 116.196 561.785 117.319 558.898 117.319C552.483 117.319 546.389 119.083 540.616 122.611C535.163 126.139 532.437 130.629 532.437 136.082V147.628V162.061V174.089V178.9V180.395C532.437 195.978 512.619 202.641 503.192 190.234V190.234C503.191 190.233 503.192 190.233 503.191 190.233C503.176 190.212 492.693 176.421 477.674 157.424C477.131 156.738 477.29 155.717 478.072 155.326V155.326L479.668 154.528C479.99 154.367 479.875 153.883 479.516 153.883V153.883C478.92 153.883 478.049 154.021 476.901 154.297C476.72 154.341 476.535 154.364 476.349 154.364H475.555C475.363 154.364 475.18 154.276 475.06 154.125V154.125ZM573.432 31.2519C583.582 31.1451 588.571 19.8043 578.812 17.0074C577.117 16.5216 575.32 16.1732 573.415 15.975C572.138 15.8393 570.829 15.7726 569.49 15.7753C556.266 15.8022 560.208 31.3911 573.432 31.2519V31.2519ZM488.149 35.6346C496.397 34.7362 500.944 45.1151 495.177 51.081V51.081C482.426 63.9158 466.775 81.8394 451.555 100.059C446.458 106.16 436.872 105.588 432.367 99.0368V99.0368C425.311 88.4525 417.133 79.4719 407.831 72.095C405.683 70.2533 403.451 68.6319 401.137 67.2308C400.867 67.0673 400.617 66.8727 400.395 66.6483V66.6483L400.243 66.4938V66.4938C396.426 62.5304 397.622 55.9231 402.783 54.0143C406.245 52.7339 409.739 51.5723 413.259 50.5447C437.451 42.9804 462.619 38.4152 488.149 35.6346ZM288.363 347.572C288.987 347.898 288.975 348.809 288.329 349.089C278.584 353.3 269.859 354.958 262.235 354.146C252.101 353.088 245.029 347.755 240.157 340.113C239.875 339.671 239.95 339.094 240.328 338.73V338.73C240.536 338.531 240.813 338.418 241.1 338.416L242.49 338.408V338.408C243.117 338.405 243.742 338.486 244.348 338.646C258.694 342.453 273.317 345.321 288.098 347.486C288.191 347.5 288.28 347.529 288.363 347.572V347.572ZM602.882 110.62C602.882 110.62 602.882 110.62 602.882 110.62C599.271 131.019 590.931 155.874 580.971 177.718C580.183 179.446 577.661 178.876 577.661 176.976V176.976C577.982 156.128 580.227 140.412 584.396 129.827C588.887 118.922 593.858 111.225 599.311 106.734V106.734C601.068 105.368 603.482 106.823 603.141 109.023C602.981 110.056 602.882 110.617 602.882 110.62ZM407.831 143.298V143.298C410.264 146.854 409.95 151.53 407.293 154.921C397.982 166.803 392.063 174.562 392.044 174.587C392.043 174.588 392.043 174.588 392.042 174.589C390.894 176.094 389.74 177.608 388.584 179.125C380.443 189.803 364.064 189.15 355.391 178.9V178.9C348.014 169.92 341.439 160.779 335.666 151.477C334.166 148.977 332.861 146.424 331.751 143.816C331.1 142.287 331.886 140.554 333.425 139.931V139.931C347.217 134.157 359.084 126.78 369.027 117.8V117.8C374.171 113.139 382.365 112.035 387.047 117.16C388.389 118.63 389.704 120.126 390.993 121.649C398.369 129.667 403.982 136.884 407.831 143.298ZM413.625 153.445C413.575 153.049 413.071 152.967 412.82 153.278V153.278C412.449 153.74 413.016 154.322 413.491 153.967V153.967C413.575 153.905 413.626 153.83 413.635 153.725C413.642 153.644 413.639 153.55 413.625 153.445ZM519.079 253.855C522.587 253.833 526.047 252.392 528.545 249.928V249.928C531.109 247.398 532.437 244.018 532.437 240.416V237.945C532.437 233.376 530.848 228.951 527.955 225.415C515.487 210.175 503.415 195.083 491.753 180.505L491.75 180.501L491.745 180.495L491.744 180.494L491.734 180.481C486.435 173.856 481.22 167.338 476.092 160.96C474.892 159.466 472.692 159.263 471.337 160.618V160.618C468.771 163.184 466.526 166.712 464.602 171.202C462.677 175.372 461.715 180.664 461.715 187.079V214.502V214.502C461.715 236.572 480.086 254.238 502.155 253.994C507.815 253.932 513.459 253.889 519.079 253.855ZM532.437 252.775C532.437 251.888 531.37 251.431 530.729 252.044C530.65 252.12 530.57 252.196 530.49 252.272C529.917 252.82 530.307 253.791 531.1 253.786V253.786L531.435 253.784C531.99 253.781 532.437 253.329 532.437 252.775V252.775ZM461.715 258.739C461.715 256.723 463.301 255.064 465.315 254.982C482.525 254.282 499.728 254.044 516.74 253.91C519.539 253.888 520.943 257.252 518.887 259.152V259.152C517.975 259.994 516.618 260.222 515.463 259.767C512.258 258.504 508.935 257.689 505.495 257.32C496.835 256.037 488.336 256.358 479.997 258.282C475.534 259.398 471.227 260.747 467.074 262.328C464.526 263.298 461.715 261.466 461.715 258.739V258.739ZM531.023 253.813C529.63 253.821 528.293 254.36 527.276 255.311C527.169 255.412 527.062 255.512 526.954 255.612C523.617 258.729 524.239 264.293 527.715 267.254C528.496 267.919 529.268 268.617 530.032 269.348C530.647 269.964 531.115 270.727 531.436 271.639C531.462 271.714 531.504 271.783 531.561 271.839V271.839C531.884 272.162 532.437 271.933 532.437 271.476V255.191C532.437 254.426 531.815 253.808 531.05 253.812V253.812L531.027 253.813H531.023V253.813ZM503.09 272.234V272.234C503.385 272.276 503.487 272.646 503.257 272.836C494.687 279.927 485.361 286.966 475.461 293.457C469.445 297.401 461.715 292.944 461.715 285.751V285.751C461.715 281.94 464.009 278.478 467.6 277.205C472.771 275.373 478.026 273.876 483.365 272.715C490.1 271.112 496.675 270.951 503.09 272.234ZM518.966 279.451C512.879 273.364 503.189 276.287 496.317 281.472C488.791 287.151 480.841 292.651 472.567 297.712C465.978 301.742 461.715 308.789 461.715 316.513V319.004C461.715 326.275 466.191 332.886 473.171 334.923V334.923C480.761 337.296 488.447 339.374 496.21 341.194C498.233 341.669 500.351 341.066 501.853 339.631C503.475 338.083 505.143 336.514 506.855 334.931C509.051 332.9 507.73 328.815 505.014 327.561V327.561C500.845 325.637 497.317 322.911 494.43 319.383C493.188 317.519 492.246 315.656 491.605 313.792C491.563 313.671 491.532 313.532 491.515 313.405V313.405C491.253 311.396 493.754 311.116 495.135 312.598C496.049 313.577 497.096 314.396 498.279 315.053C501.486 316.656 504.533 317.779 507.42 318.42C513.834 319.062 518.325 316.977 520.891 312.166C523.777 307.355 525.06 301.742 524.74 295.327C524.419 288.913 522.494 283.62 518.966 279.451V279.451ZM241.171 337.922C241.238 337.858 241.335 337.832 241.425 337.857V337.857C241.723 337.939 241.661 338.381 241.353 338.383V338.383C241.113 338.384 240.997 338.088 241.171 337.922V337.922ZM519.331 345.855C512.295 344.652 509.782 336.092 515.053 331.278C515.213 331.132 515.373 330.986 515.534 330.839C516.62 329.85 518 329.26 519.447 329.005V329.005C524.527 327.735 528.664 325.05 531.859 320.952C531.92 320.873 532.015 320.826 532.115 320.826V320.826C532.293 320.826 532.437 320.97 532.437 321.148V336.433C532.437 342.486 527.082 347.149 521.112 346.155C520.518 346.056 519.924 345.956 519.331 345.855ZM577.661 312.209C577.661 296.283 586.374 281.212 601.391 275.908C604.135 274.939 606.898 274.046 609.677 273.236C609.922 273.16 610.167 273.084 610.412 273.008C635.813 265.15 657.804 287.17 645.467 310.723V310.723C636.493 327.855 625.444 340.952 612.32 350.014C608.698 352.515 604.307 353.551 599.908 353.392V353.392C587.402 352.941 577.661 342.565 577.661 330.05V312.209ZM415.086 305.056C414.724 305.287 414.714 305.813 415.068 306.057V306.057C415.466 306.331 416.01 306.047 416.01 305.564V305.564C416.01 305.089 415.486 304.802 415.086 305.056V305.056ZM310.332 45.1531V45.1531C305.819 45.4186 303.395 40.3934 306.892 37.5272C310.978 34.1783 315.999 31.9635 322.146 31.3216C325.942 30.917 330.011 31.1249 334.343 31.9556C335.926 32.2592 336.158 35.0449 334.869 36.0121V36.0121C333.97 36.6539 333.098 37.3726 332.251 38.1684C329.659 40.6027 326.752 42.7744 323.322 43.7098V43.7098C320.115 44.3513 315.785 44.8324 310.332 45.1531ZM461.715 147.147V147.147C460.63 145.519 462.534 144.198 463.769 145.715C465.91 148.346 468.067 151.008 470.241 153.698C470.457 153.965 470.267 154.364 469.923 154.364V154.364C469.903 154.364 469.884 154.363 469.865 154.36C467.625 154.023 464.909 151.619 461.715 147.147ZM660.777 354.383H660.777H660.776H660.776H660.775H660.775H660.774H660.774H660.773H660.773H660.772H660.771H660.771V354.383C646.808 354.295 642.712 335.983 655.242 329.821L663.317 325.849C663.581 325.719 663.749 325.45 663.749 325.156V325.156C664.099 333.398 664.774 341.233 665.772 348.66C666.177 351.679 663.847 354.402 660.801 354.383V354.383L660.782 354.383H660.778H660.777ZM254.419 406.207C256.718 408.986 255.916 413.122 252.916 415.122V415.122C252.859 415.156 252.803 415.19 252.749 415.223C251.209 416.165 251.591 418.009 253.397 418.009V418.009C255 418.009 256.604 417.688 258.208 417.047V417.047C260.336 415.982 262.915 416.547 264.418 418.393C273.189 429.161 282.229 440.441 291.53 452.047L291.53 452.047C291.53 452.047 291.53 452.048 291.53 452.048V452.048C291.53 452.048 291.53 452.048 291.53 452.048L291.531 452.048C291.531 452.048 291.531 452.048 291.531 452.048V452.048C291.531 452.048 291.531 452.048 291.531 452.048L291.531 452.048C291.531 452.048 291.531 452.048 291.531 452.049V452.049C291.531 452.049 291.531 452.049 291.531 452.049L291.531 452.049C291.531 452.049 291.531 452.049 291.531 452.049V452.049C291.531 452.049 291.532 452.049 291.532 452.049L291.532 452.049C291.532 452.049 291.532 452.049 291.532 452.049V452.049C291.532 452.049 291.532 452.05 291.532 452.05L291.532 452.05C291.532 452.05 291.532 452.05 291.532 452.05V452.05C291.532 452.05 291.532 452.05 291.532 452.05L291.532 452.05L291.535 452.053L291.535 452.054L291.54 452.06C292.386 453.115 293.234 454.173 294.084 455.234C306.99 471.335 306.911 494.49 292.942 509.678C290.077 512.793 287.25 515.799 284.46 518.688C264.016 540.458 245.601 555.9 229.502 565.31C217.922 572.08 203.666 569.627 193.297 561.118C185.134 554.419 177.636 547.652 170.956 541.236C163.955 534.512 159.641 525.399 159.614 515.692C159.563 497.218 162.302 481.687 162.314 481.622C162.314 481.619 162.314 481.62 162.314 481.618C163.226 476.47 164.438 471.039 165.902 465.443C167.517 459.267 170.751 453.653 175.034 448.919L175.142 448.8C181.557 442.385 190.377 435.81 201.603 429.074C212.829 422.66 226.3 418.49 242.016 416.566C242.982 416.405 243.786 416.082 244.429 415.598C245.719 414.626 246.51 412.96 246.697 411.355V411.355C246.898 409.638 245.872 408.138 245.052 406.616C242.917 402.654 240.782 397.471 238.648 391.067V391.067C238.261 389.742 239.875 388.917 240.772 389.966C245.241 395.19 249.79 400.614 254.419 406.207ZM183.193 321.92C185.806 324.277 190.056 322.461 190.056 318.942V318.942C190.056 317.518 189.297 316.204 188.073 315.478C171.274 305.512 155.736 293.637 142.271 281.969C135.067 275.726 124.199 276.148 117.49 282.92V282.92V282.92C116.045 284.42 117.309 287.136 119.39 287.218C136.334 287.892 157.841 299.05 183.193 321.92ZM190.056 356.179C190.056 343.878 184.941 331.96 175.116 324.558C153.955 308.616 136.057 301.659 121.936 303.161C76.6711 307.878 92.5073 397.722 92.522 397.806C92.5224 397.808 92.5222 397.807 92.5226 397.809C98.6875 432.697 118.659 480.614 136.908 504.211C136.909 504.212 136.909 504.212 136.91 504.213V504.213C141.494 510.146 150.973 506.802 151.814 499.352C152.918 489.579 154.167 483.119 154.169 483.11C154.169 483.109 154.169 483.109 154.169 483.109C158.986 458.225 170.928 426.72 184.091 402.26C187.822 395.326 190.056 387.644 190.056 379.77V356.179ZM186.966 559.223C178.202 551.985 166.036 559.541 173.938 567.713C178.44 572.369 184.271 575.485 191.781 576.266V576.266C197.957 576.922 199.642 569.291 194.746 565.471C192.093 563.401 189.499 561.314 186.966 559.223ZM11.9163 224.391C11.9168 224.388 11.9165 224.39 11.917 224.387C16.5954 197.883 29.3709 163.73 43.2054 138.872C44.5822 136.398 48.1009 136.401 49.6019 138.802V138.802C49.798 139.115 49.9479 139.455 50.0452 139.812C56.26 162.605 66.7402 188.235 77.9287 208.455C84.0174 219.459 87.1719 232.998 79.4023 242.887V242.887C72.3461 251.547 64.4881 258.443 55.8282 263.574C47.1684 268.706 40.4329 271.272 35.6218 271.272L46.2061 271.753C53.5831 271.753 62.4033 271.272 72.6669 270.31C83.2512 269.027 93.6751 266.301 103.939 262.131C105.86 261.374 107.722 260.549 109.527 259.655C112.989 257.94 117.061 258.253 119.79 260.987V260.987C123 264.203 123.253 269.586 120.017 272.775C87.1976 305.105 60.3231 319.511 40.8001 317.431C-3.64865 312.794 11.9017 224.474 11.9163 224.391ZM190.056 269.891C190.056 289.422 168.99 300.909 153.966 288.43C152.071 286.857 150.214 285.281 148.396 283.709C138.678 275.303 137.98 260.933 146.361 251.193V251.193C161.089 234.076 190.056 243.825 190.056 266.406V269.891ZM131.646 260.829C149.341 242.452 168.582 219.245 189.274 193.582C189.779 192.954 190.056 192.171 190.056 191.366V191.366C190.056 188.859 187.516 187.151 185.186 188.077C178.655 190.671 173.062 192.744 168.407 194.295L166.891 194.801C166.26 195.011 165.888 194.112 166.482 193.814V193.814C170.973 191.248 176.104 187.239 181.878 181.787C187.651 176.334 192.783 169.438 197.273 161.099C198.378 159.11 199.373 157.027 200.258 154.852C206.219 140.203 196.83 124.579 183.321 116.357V116.357C167.926 106.734 153.332 98.235 139.54 90.858C125.749 83.4811 114.042 79.7926 104.42 79.7926V79.7926C97.5018 79.7926 91.2723 84.3194 89.7325 91.0638C88.9397 94.5359 88.5433 98.4766 88.5433 102.886C88.5433 112.828 90.9488 121.488 95.7599 128.865C100.571 135.921 106.184 142.817 112.599 149.553C119.975 156.93 126.551 165.269 132.324 174.57C138.418 183.551 141.465 195.097 141.465 209.21C141.465 223.643 137.776 235.029 130.399 243.368C128.408 245.722 126.276 247.909 124.004 249.93C121.043 252.564 120.538 257.177 123.303 260.015C123.594 260.314 123.887 260.614 124.183 260.915C126.244 263.018 129.633 262.979 131.646 260.829V260.829ZM399.674 382.83C396.255 387.326 398.048 393.841 403.18 396.202V396.202C409.06 398.907 416.01 394.752 416.01 388.279V387.749C416.01 379.247 405.171 375.602 400.024 382.369C399.908 382.523 399.791 382.676 399.674 382.83ZM180.915 431.961C179.378 433.498 176.889 431.893 177.691 429.872C178.968 426.653 180.292 423.46 181.653 420.313C183.488 416.07 188.283 417.476 186.728 421.829C185.27 425.913 183.332 429.29 180.915 431.961V431.961ZM84.0921 31.3215C89.1568 30.7827 94.7064 31.3302 100.717 32.9883C107.562 34.8762 105.79 45.5083 99.6087 49.002V49.002C93.4611 52.2094 87.9818 56.0851 83.1707 60.629C81.3023 62.3935 78.7888 63.6303 76.2699 64.1397V64.1397C66.6032 66.0946 55.308 58.1915 59.7103 49.3662C64.5755 39.6128 72.2447 32.5563 84.0921 31.3215ZM89.9866 212.577C89.9866 214.559 87.5537 215.109 86.5888 213.379C78.1061 198.166 70.0108 179.526 63.8613 161.206C63.6344 160.53 64.5287 160.058 64.9692 160.618V160.618C71.3839 169.599 77.1572 178.419 82.289 187.079C87.4207 195.739 89.9866 204.238 89.9866 212.577V212.577ZM327.981 78.2903C329.455 77.1418 330.075 75.13 329.095 73.5383V73.5383C326.85 69.3687 324.445 66.3217 321.879 64.3973V64.3973C319.136 62.34 315.744 63.7892 315.438 67.2044C315.21 69.7485 315.272 72.3409 315.625 74.9816C315.658 75.2307 315.691 75.4777 315.726 75.7225C316.258 79.5485 320.35 81.5869 324.092 80.6259V80.6259C325.058 80.3776 325.953 79.9269 326.725 79.2938C327.131 78.9603 327.55 78.6258 327.981 78.2903ZM717.782 144.742C727.08 144.742 731.837 156.932 725.661 163.882C720.357 169.85 714.992 176.471 709.566 183.747C705.179 189.629 696.107 189.14 691.172 183.711V183.711C688.285 180.183 685.559 177.457 682.993 175.532V175.532C681.242 174.032 681.283 171.31 683.079 169.863L711.525 146.949C713.298 145.52 715.506 144.742 717.782 144.742V144.742ZM1318.04 107.697C1314.19 110.263 1308.58 111.546 1301.2 111.546H1298.22C1297.68 111.546 1297.21 111.156 1297.12 110.62V110.62C1297.12 110.62 1297.12 110.62 1297.12 110.62C1297.12 110.618 1291.81 80.6236 1296.07 54.3718C1298.52 39.307 1313.15 31.1344 1328.41 31.3369C1339.28 31.4812 1350.21 31.7102 1361.15 32.1173C1369.09 32.4127 1376.82 34.9439 1383.07 39.839C1394.28 48.6095 1406.37 59.8229 1419.26 73.5531C1427.68 82.2737 1436.45 92.0635 1445.55 102.677C1451.84 110.021 1451.82 120.825 1445.7 128.316C1443.98 130.426 1442.27 132.525 1440.58 134.605C1435.41 140.992 1425.74 141.195 1419.72 135.601V135.601C1397.59 114.753 1381.07 103.367 1370.17 101.442C1358.3 99.8387 1346.43 100.64 1334.56 103.848C1334.32 103.908 1334.09 103.968 1333.85 104.028C1333.2 104.194 1332.65 103.487 1332.95 102.886V102.886C1334.23 99.999 1335.2 97.5935 1335.84 95.6691V95.6691C1336.32 93.9814 1335.01 92.2736 1333.37 92.8909C1332.52 93.208 1331.74 93.6529 1331.03 94.2258C1329.74 95.5087 1328.46 97.1124 1327.18 99.0368C1324.93 101.923 1321.89 104.81 1318.04 107.697ZM1261.18 30.6543V30.6543C1277.41 30.9814 1289.71 17.9263 1301.94 7.25052C1305.33 4.29055 1309.36 2.11106 1314.11 0.944871C1329.61 -2.76239 1350.1 4.36525 1374.81 23.6653C1382.36 29.5647 1391.37 33.4114 1400.92 34.2112C1431.03 36.7334 1460.86 41.3966 1489.43 50.1447V50.1447C1501.57 53.6247 1514.81 51.3192 1524.51 43.2363C1551.51 20.7353 1573.76 12.2908 1590.3 16.2632C1634.2 27.0646 1615.4 124.631 1615.4 124.654C1615.4 124.654 1615.4 124.654 1615.4 124.655C1614.92 127.136 1614.37 129.683 1613.76 132.283C1613.25 134.412 1614.01 136.858 1615.49 138.474V138.474C1618.14 141.375 1622.56 141.127 1625.19 138.212C1626.29 137.004 1627.41 135.788 1628.55 134.564C1629.11 133.973 1629.59 133.321 1630.02 132.632C1631.85 129.683 1633.94 126.939 1636.3 124.402C1641.3 119.024 1642.88 110.742 1638.47 104.869V104.869L1633.18 98.2665C1635.3 100.761 1637.41 103.257 1639.5 105.755C1644.02 111.134 1651.77 112.261 1658.25 109.541V109.541C1658.87 109.281 1659.55 109.057 1660.2 108.908C1661.52 108.607 1662.84 108.352 1664.15 108.143C1683.41 105.069 1705.02 102.255 1717.96 87.6734C1724.95 79.8106 1731.63 72.5809 1737.67 66.4936V66.4936C1749.12 54.6234 1747.84 34.5463 1732.81 27.7327C1725.67 24.4898 1718.34 21.7087 1710.9 19.5373C1652.3 1.22941 1587.86 0.8261 1526.67 0.443171H1526.66L1526.64 0.44303C1513.13 0.358594 1499.78 0.275146 1486.69 0L1489.4 0.0207591C1502.47 0.283919 1515.8 0.357618 1529.28 0.432068C1590.31 0.769034 1654.63 1.1242 1713.54 19.1448C1721.2 21.3402 1728.76 24.1932 1736.16 27.5432C1753.07 35.205 1772.72 33.6332 1789.02 24.7375C1804.39 16.3519 1817.59 13.6777 1828.38 16.2631C1872.36 27.0654 1853.52 124.647 1853.52 124.654C1853.52 124.654 1853.52 124.654 1853.52 124.654V124.654C1853.49 124.806 1853.52 124.959 1853.61 125.084C1871.03 148.988 1889.77 193.213 1896.07 225.852C1896.07 225.853 1896.07 225.853 1896.07 225.854C1896.07 225.895 1906.03 277.555 1894.23 309.17C1892.78 313.054 1891.38 316.97 1890.51 321.025C1888.6 329.93 1886.24 338.202 1883.41 345.843C1874.98 368.645 1864.87 385.971 1853.09 397.822C1852.47 398.455 1851.77 399.169 1851.57 400.039V400.039C1851.33 401.138 1851.96 402.14 1852.68 403.004C1853.2 403.625 1853.82 404.297 1854.55 405.019C1856.79 406.944 1858.56 409.349 1859.84 412.236C1861.01 414.575 1860.71 417.314 1858.95 420.454C1858.72 420.866 1858.13 420.838 1857.92 420.414V420.414C1857.59 419.773 1856.95 418.811 1855.99 417.528C1855.35 416.566 1854.23 415.603 1852.62 414.641C1851.02 413.679 1849.09 412.877 1846.85 412.236C1844.6 411.273 1841.88 410.792 1838.67 410.792C1832.58 410.792 1827.28 412.396 1822.79 415.603C1818.62 418.811 1814.46 422.66 1810.29 427.15V427.15C1807.31 430.48 1804.81 434.237 1803.23 438.418C1793.96 462.989 1781.58 487.209 1770.04 501.92C1770.03 501.924 1770.03 501.923 1770.03 501.927C1769.96 502.011 1766.99 505.79 1761.63 511.899C1754.24 520.331 1750.2 531.108 1749.23 542.28C1747.26 564.943 1740.09 586.542 1720.69 591.296C1715.84 592.457 1710.5 592.556 1704.69 591.551C1689.24 588.878 1672.93 588.216 1658.87 595.157C1649.41 599.827 1639.66 603.75 1629.73 606.59C1569.74 624.922 1504.24 625.283 1442.09 625.626C1428.36 625.702 1414.79 625.776 1401.48 626.044L1398.72 626.065C1412.05 625.785 1425.65 625.701 1439.4 625.615H1439.41L1439.43 625.615H1439.43C1501.75 625.225 1567.37 624.815 1627.04 606.191V606.191C1652.35 598.819 1652.77 564.086 1634.16 545.42C1632.78 544.032 1631.38 542.612 1629.98 541.16C1625.38 536.525 1620.39 531.225 1615.19 525.488C1597.06 505.506 1565.37 505.55 1547.9 526.105V526.105L1553.29 519.388C1554.92 517.208 1557.62 513.647 1561.04 509.132C1572.05 494.6 1571.63 474.422 1560.22 460.196C1558.26 457.747 1556.35 455.353 1554.5 453.027C1554.14 452.573 1553.69 452.232 1553.16 451.996V451.996C1551.25 451.145 1548.93 451.953 1548.15 453.896C1539.22 476.158 1528.01 497.453 1517.5 510.855C1517.5 510.859 1517.5 510.857 1517.49 510.861C1517.41 510.971 1507.94 523.004 1492.14 539.062C1485.34 545.971 1481.15 554.91 1478.28 564.169C1474.13 577.558 1466.65 588.14 1453.8 591.296C1452.8 591.536 1451.78 591.731 1450.73 591.879C1438.21 593.668 1425.03 594.122 1413.91 600.163C1402.12 606.569 1389.79 611.919 1377.2 615.525C1317.21 633.856 1251.7 634.218 1189.56 634.56C1175.82 634.636 1162.26 634.711 1148.95 634.979L1146.18 635C1159.52 634.72 1173.11 634.635 1186.87 634.549L1186.89 634.549H1186.89C1249.21 634.16 1314.83 633.749 1374.5 615.126V615.126C1398.09 608.253 1396.76 572.759 1378.62 556.175C1373.64 551.621 1368.52 546.619 1363.25 541.16C1361.06 538.952 1358.78 536.592 1356.44 534.107C1339.7 516.366 1311.16 516.459 1295.36 535.039V535.039L1300.75 528.323C1301.44 527.405 1302.31 526.244 1303.35 524.869C1315.47 508.825 1314.91 486.555 1302.25 470.928C1294.85 461.786 1287.91 453.064 1281.88 445.422C1272.51 433.532 1255.28 431.05 1242.5 439.178V439.178C1232.24 445.913 1220.69 452.007 1207.86 457.46C1195.36 463.233 1183.49 466.119 1172.26 466.119C1164.56 466.119 1155.91 464.836 1146.28 462.271C1137.23 459.856 1128.18 455.88 1119.12 450.342C1118.12 449.73 1116.74 449.867 1116.15 450.881V450.881C1116.01 451.114 1115.88 451.302 1115.69 451.495C1114.82 452.391 1113.95 453.417 1113.09 454.573C1106.35 462.591 1098.81 470.129 1090.47 477.185C1082.46 484.241 1072.99 489.533 1062.09 493.061C1050.86 496.91 1039.64 495.948 1028.41 490.175C1022.96 486.647 1019.43 481.835 1017.83 475.741C1017.68 475.198 1017.54 474.657 1017.42 474.12C1016.45 469.73 1021.34 469.451 1023.6 473.336V473.336C1026.49 477.185 1029.7 479.911 1033.22 481.515C1041.24 484.401 1049.74 484.562 1058.72 481.996C1067.7 479.109 1076.04 474.459 1083.74 468.044C1091.12 461.95 1098.17 455.214 1104.91 447.837C1105.83 446.92 1106.6 446.002 1107.22 445.084C1107.28 444.996 1107.35 444.913 1107.43 444.837V444.837C1108.13 444.136 1108.04 442.978 1107.26 442.37C1094.1 432.165 1082.74 417.79 1073.16 399.246C1063.21 380.002 1057.6 355.305 1056.32 325.156V325.156C1056.32 325.45 1056.15 325.719 1055.88 325.849L997.622 354.503C1013.98 345.523 1027.45 330.929 1038.03 310.723C1048.62 290.516 1053.91 272.074 1053.91 255.396C1053.91 244.17 1052.15 234.708 1048.62 227.011C1045.09 218.992 1040.92 212.577 1036.11 207.766C1031.62 202.635 1027.61 198.946 1024.08 196.701V196.701C1021.55 195.088 1021.44 191.425 1023.88 189.672L1034.19 182.268C1044.77 174.57 1056.64 165.269 1069.79 154.364C1083.26 143.459 1095.13 132.554 1105.39 121.649C1115.97 110.423 1121.27 101.603 1121.27 95.188C1121.27 92.9428 1120.94 91.0184 1120.3 89.4147C1119.66 87.811 1119.02 86.5281 1118.38 85.5659V85.5659C1118.14 85.2119 1118.54 84.7966 1118.9 85.0251C1121.95 86.9657 1124.3 89.0217 1125.97 91.1931C1126.04 91.2901 1126.12 91.3825 1126.21 91.4695C1128.38 93.6774 1129.94 96.0394 1130.89 98.5557C1131.85 100.801 1132.33 103.046 1132.33 105.291C1132.33 107.14 1132.18 108.692 1131.89 109.949C1131.86 110.051 1131.85 110.155 1131.85 110.26V110.26C1131.85 110.97 1132.43 111.546 1133.13 111.546H1153.02L1204.5 111.546H1264.63H1287C1288.27 111.546 1289.21 110.378 1288.97 109.132V109.132C1288.97 109.132 1288.97 109.132 1288.97 109.132C1288.97 109.131 1284.5 86.003 1285 61.0397C1285.31 45.6971 1273.76 30.9558 1258.42 30.6332V30.6332L1261.18 30.6543ZM1347.42 471.597C1336.19 485.586 1336.39 505.774 1348.83 518.688V518.688C1387.66 560.111 1419.17 578.626 1441.35 576.266C1441.39 576.262 1441.43 576.258 1441.47 576.253C1446.13 575.751 1450.25 573.258 1453.88 570.29C1455.56 568.913 1457.21 567.533 1458.83 566.154C1461.97 563.493 1464.75 560.388 1466.45 556.646C1479.09 528.869 1470.77 481.699 1470.76 481.622C1470.76 481.619 1470.76 481.62 1470.76 481.618C1466.15 455.502 1453.79 422.085 1440.22 397.033C1434.04 385.632 1418.92 384.744 1410.43 394.548C1406.24 399.398 1401.97 404.435 1397.62 409.634C1396.71 410.726 1396.92 412.361 1398.07 413.198V413.198C1412.18 423.461 1423.41 430.357 1431.75 433.885C1434.95 434.848 1437.84 435.168 1440.41 434.848C1443.29 434.527 1445.54 434.046 1447.14 433.404V433.404C1447.57 433.262 1447.85 433.845 1447.47 434.087L1443.29 436.772C1439.12 439.659 1433.83 443.026 1427.42 446.875C1421 450.724 1414.43 454.092 1407.69 456.978C1401.28 459.865 1395.82 461.308 1391.33 461.308C1387.49 461.308 1382.03 459.063 1374.98 454.573V454.573C1369.63 451.413 1362.73 452.502 1358.84 457.349C1357.87 458.558 1356.9 459.771 1355.93 460.988L1355.93 460.989L1355.92 460.998C1353.11 464.503 1350.28 468.038 1347.42 471.597ZM1351.4 439.178C1357.51 443.477 1358.91 452.039 1354.33 457.939C1348.19 465.836 1344.5 470.686 1344.48 470.708C1344.48 470.709 1344.48 470.708 1344.48 470.709V470.709C1335.26 482.822 1317.25 483.385 1307.56 471.645C1296.1 457.761 1284.16 442.858 1271.75 427.374L1271.75 427.373C1258.76 411.164 1245.26 394.319 1231.27 377.341C1223.77 368.243 1230.1 354.459 1241.88 354.394V354.394H1241.89C1292.69 354.113 1345.74 353.82 1396.18 343.688C1397.1 343.505 1398.05 343.796 1398.71 344.456V344.456C1399.61 345.358 1399.77 346.749 1399.09 347.828C1398.6 348.615 1398.1 349.397 1397.59 350.173C1394.19 355.528 1390.76 360.569 1387.29 365.296C1375.46 381.446 1353.52 381.152 1333.95 376.898C1330.19 376.081 1326.55 375.672 1323.02 375.672C1317.89 375.672 1310.51 377.917 1300.89 382.407C1291.59 386.898 1283.09 391.869 1275.39 397.321C1267.69 402.453 1263.84 406.142 1263.84 408.387C1263.84 408.695 1263.86 408.974 1263.89 409.223C1264.11 410.747 1265.78 410.64 1267.22 410.095V410.095C1268.33 409.674 1269.6 408.968 1270.64 408.387C1274.07 406.462 1278.7 405.5 1284.53 405.5C1293.51 405.5 1303.93 409.028 1315.8 416.085C1327.99 423.141 1339.86 430.838 1351.4 439.178V439.178ZM1386.96 405.39C1390.4 407.726 1394.93 407.003 1397.57 403.799C1405.59 394.064 1413.87 384.224 1421.9 375.009C1423.19 373.521 1423.54 371.679 1422.27 370.164V370.164C1420.82 368.429 1417.92 367.899 1416.22 369.378C1406.48 377.8 1396.83 385.008 1387.26 391.003C1382.11 394.229 1381.94 401.973 1386.96 405.39V405.39ZM1433.01 369.674C1431.13 371.63 1431.05 374.686 1432.76 376.802C1433.12 377.253 1433.31 377.493 1433.31 377.501C1433.31 377.502 1433.31 377.502 1433.31 377.502C1451.69 400.918 1472.19 448.439 1478.89 483.109C1478.89 483.109 1478.89 483.109 1478.89 483.11C1478.89 483.121 1480.39 490.872 1481.55 502.238C1483 516.409 1501.84 524.421 1510.55 513.148V513.148C1510.55 513.146 1510.55 513.147 1510.55 513.145C1520.27 500.585 1530.47 481.137 1538.81 460.432C1542.06 452.375 1539.02 443.291 1532.78 437.253V437.253C1526.36 431.801 1519.31 426.508 1511.61 421.377C1504.23 416.245 1496.21 413.038 1487.56 411.755C1480.5 411.434 1475.21 412.075 1471.68 413.679C1470.39 414.108 1469.32 414.322 1468.46 414.32C1467.71 414.319 1467.02 414.385 1466.65 413.731V413.731C1466.25 413.001 1466.51 411.816 1466.98 411.125C1468.61 408.723 1472.74 405.725 1479.38 402.133C1487.39 397.963 1496.21 394.274 1505.84 391.067C1505.97 391.024 1506.1 390.981 1506.23 390.938V390.938C1506.33 390.904 1506.37 390.775 1506.3 390.688C1495.69 376.738 1486.71 364.922 1483.04 360.039V360.039C1480.17 356.475 1475.84 354.412 1471.27 354.44C1468.04 354.459 1464.82 354.481 1461.61 354.507C1452.74 354.58 1444.2 358.038 1438.02 364.414C1436.37 366.125 1434.7 367.878 1433.01 369.674V369.674ZM1438.65 354.813C1439.2 354.802 1439.49 355.457 1439.11 355.858C1435.91 359.278 1432.6 362.919 1429.2 366.719C1427.87 368.218 1425.65 368.354 1424.32 366.847V366.847C1423.11 365.479 1423.09 363.25 1424.42 362.008C1427.34 359.294 1430.26 356.471 1433.19 353.541C1439.52 347.112 1445.15 340.097 1450.1 332.496C1452.77 328.394 1456.44 325.016 1460.8 322.796C1462.31 322.03 1463.8 321.245 1465.29 320.443C1468.32 318.813 1471.87 318.46 1475.18 319.405V319.405V319.405C1476 319.653 1476.2 320.72 1475.54 321.253C1466.69 328.337 1457.31 336.966 1447.43 347.202C1446.02 348.624 1444.57 350.109 1443.1 351.65C1441.2 353.624 1438.61 354.777 1435.88 354.834V354.834L1438.65 354.813V354.813ZM1469.51 335.668C1461.37 342.02 1466.32 354.447 1476.64 354.383V354.383L1476.66 354.382H1476.66H1476.67L1477.14 354.38C1477.68 354.376 1477.98 353.746 1477.64 353.323V353.323V353.323C1478.2 353.987 1479.03 354.368 1479.91 354.362C1492.37 354.283 1504.96 354.191 1517.61 353.941C1524.18 353.811 1529.41 348.424 1529.41 341.848V341.848C1529.41 335.828 1525 330.735 1519.07 329.709C1510.95 328.304 1502.9 326.667 1494.92 324.757C1490.44 323.685 1485.68 324.279 1481.83 326.803C1477.85 329.41 1473.74 332.364 1469.51 335.668ZM1514.96 312.444C1504.87 314.033 1506.18 326.581 1516.22 328.491C1517.08 328.657 1517.95 328.819 1518.82 328.979C1524.37 329.997 1529.41 325.682 1529.41 320.041V316.679C1529.41 314.373 1527.82 312.335 1525.53 312.096V312.096C1522.21 311.743 1518.69 311.857 1514.96 312.444ZM1521.82 296.843C1525.98 296.106 1529.41 292.712 1529.41 288.487V288.059C1529.41 286.499 1528.86 285.001 1527.85 283.815V283.815C1525.46 281.022 1521.24 280.715 1518.46 283.11C1506.19 293.666 1492.25 304.335 1477.24 313.553C1475.02 314.921 1475.37 318.275 1477.88 319.005V319.005V319.005C1478.11 319.077 1478.36 319.03 1478.55 318.883C1494.93 306.249 1509.44 299.035 1521.82 296.843ZM1326.58 15.975C1324.68 16.1732 1322.88 16.5216 1321.19 17.0074C1311.43 19.8043 1316.42 31.1451 1326.57 31.2519V31.2519C1339.79 31.3911 1343.73 15.8021 1330.51 15.7753C1329.17 15.7726 1327.86 15.8393 1326.58 15.975ZM1404.82 51.081V51.081C1399.06 45.1151 1403.6 34.7362 1411.85 35.6346C1437.38 38.4152 1462.55 42.9804 1486.74 50.5447C1490.26 51.5723 1493.75 52.7339 1497.22 54.0143C1502.38 55.9231 1503.57 62.5304 1499.76 66.4938V66.4938C1497.58 68.691 1495.32 71.037 1493 73.5079C1474.51 93.1309 1443.06 93.0993 1425.17 72.9393C1417.95 64.8133 1411.04 57.3417 1404.82 51.081ZM1485.34 89.0082C1488.1 86.0547 1490.83 83.2175 1493.52 80.4957C1505.54 68.3249 1524.2 65.8914 1538.55 75.2044C1558.58 88.2028 1576.32 103.532 1590.28 117.112C1600.34 126.886 1604.31 141.339 1600.14 154.727C1599.24 157.613 1598.29 160.517 1597.3 163.426C1594.23 172.35 1587.44 179.862 1578 179.862V179.862C1569.66 179.862 1562.93 177.938 1557.8 174.089C1552.66 170.24 1548.49 165.59 1545.29 160.137C1542.4 154.685 1540.16 149.553 1538.55 144.742C1537.73 142.941 1536.96 141.349 1536.22 139.965C1534.99 137.646 1534.22 134.685 1531.9 133.46C1531.56 133.283 1531.21 133.195 1530.85 133.195C1527.65 133.195 1521.87 138.968 1513.53 150.515V150.515C1507.75 158.529 1495.84 158.892 1489.72 151.122C1485.87 146.215 1481.54 140.746 1476.89 134.925C1467.93 123.715 1468.04 107.629 1477.76 97.0709C1480.32 94.2931 1482.84 91.6034 1485.34 89.0082ZM1607.27 126.145C1607.27 126.145 1607.27 126.145 1607.27 126.145V126.145C1607.04 127.411 1605.48 127.879 1604.58 126.961C1592.69 114.837 1577.17 100.393 1559.33 87.04C1540.04 72.5948 1536.29 40.7205 1559.31 33.5615C1566.06 31.4606 1572.25 30.7249 1577.85 31.3216C1623.14 36.0499 1607.27 126.141 1607.27 126.145ZM1602.47 168.919C1602.38 169.009 1602.23 168.908 1602.28 168.787C1605.23 161.101 1607.88 153.357 1610.12 145.835C1610.9 143.217 1614.49 142.695 1616.26 144.773V144.773C1617.33 146.03 1617.12 147.613 1616.09 148.905C1610.58 155.832 1606.05 162.494 1602.5 168.89C1602.49 168.9 1602.48 168.91 1602.47 168.919V168.919ZM1634.54 190.233C1633.83 191.159 1632.38 190.933 1632 189.831C1630.7 186.016 1629.6 182.386 1628.7 178.943C1626.87 171.892 1633.96 169.546 1637.39 175.977C1637.69 176.533 1637.98 177.093 1638.28 177.657C1639.75 180.475 1639.4 183.888 1637.47 186.409C1635.58 188.868 1634.54 190.231 1634.54 190.233C1634.54 190.233 1634.54 190.233 1634.54 190.233V190.233ZM1635.42 198.611C1634.54 196.641 1634.9 194.339 1636.25 192.656V192.656C1638.99 189.248 1644.32 189.872 1646.1 193.861C1649.83 202.195 1653.31 210.931 1656.38 219.665C1657.78 223.643 1652.02 226.136 1649.6 222.681V222.681C1643.6 214.34 1638.88 206.316 1635.42 198.611ZM1645.95 180.566C1645.91 180.612 1645.9 180.676 1645.93 180.729C1653.58 195.136 1660.79 211.891 1666.39 228.269C1668.76 235.19 1678 236.399 1681.35 229.897V229.897C1687.12 219.313 1691.13 207.927 1693.38 195.739C1693.91 192.843 1694.21 190.001 1694.27 187.214C1694.42 180.498 1691.25 174.295 1687.15 168.977C1683.51 164.263 1681.42 161.518 1681.42 161.508C1681.42 161.507 1681.42 161.507 1681.42 161.507V161.507C1676.44 154.959 1666.64 154.8 1661.48 161.206C1656.42 167.492 1651.28 173.913 1646.05 180.438L1646.04 180.443L1646.02 180.477L1646 180.494L1646 180.495L1645.99 180.506L1645.95 180.566V180.566ZM1664.99 311.204V311.204C1666.13 309.523 1668.96 310.422 1668.7 312.435C1667.64 320.497 1665.75 328.34 1662.63 335.019C1662.44 335.405 1662.11 335.693 1661.7 335.816V335.816V335.816C1661.32 335.93 1660.91 335.834 1660.61 335.564C1659.66 334.681 1658.7 333.794 1657.72 332.903C1654.28 329.779 1654.13 324.424 1657.24 320.971C1660.32 317.545 1662.9 314.29 1664.99 311.204ZM1675.31 260.813C1675.31 260.813 1675.31 260.813 1675.31 260.814C1675.31 260.826 1679.82 284.242 1679.27 309.4C1679.06 318.789 1688.43 326.136 1696.76 321.806C1696.87 321.751 1696.97 321.696 1697.08 321.641C1700.77 319.717 1703 315.861 1703 311.704V229.752C1703 228.096 1697.35 226.241 1696.26 227.492V227.492C1692.09 232.303 1687.44 237.595 1682.31 243.368C1681.2 244.619 1680.13 245.818 1679.09 246.964C1675.7 250.707 1674.35 255.856 1675.31 260.813V260.813ZM1678.98 331.473C1677.81 331.907 1676.96 332.932 1676.7 334.148V334.148C1676.24 336.375 1677.9 338.508 1680.18 338.526C1686.43 338.576 1692.65 338.64 1698.81 338.737C1699.25 338.744 1699.66 338.574 1699.97 338.267V338.267C1700.31 337.916 1700.64 337.567 1700.98 337.22C1702.27 335.894 1703 334.122 1703 332.273V332.273C1703 326.957 1697.31 323.542 1692.5 325.791C1688.05 327.869 1683.54 329.774 1678.98 331.473ZM1680.71 338.552C1677.76 338.528 1675.2 340.526 1674.28 343.327C1674.02 344.11 1673.75 344.884 1673.47 345.646C1673.09 346.67 1673.32 347.833 1674.09 348.609V348.609C1674.46 348.987 1674.94 349.24 1675.45 349.366C1677.22 349.799 1679.16 350.452 1681.29 351.325C1683.96 352.426 1687.26 351.663 1689.22 349.537V349.537C1693.09 345.35 1690.03 338.636 1684.33 338.583C1683.12 338.572 1681.92 338.562 1680.71 338.552ZM1659.87 338.925V338.925C1660.13 339.175 1660.18 339.571 1659.99 339.875C1655.12 347.644 1648 353.077 1637.76 354.146C1632.25 354.734 1626.15 354.028 1619.51 351.996C1616.32 351.021 1616.87 346.743 1620.16 346.198C1621.4 345.994 1622.63 345.784 1623.87 345.569C1623.99 345.548 1624.1 345.64 1624.1 345.762V345.762C1624.1 345.814 1624.12 345.864 1624.16 345.901L1624.58 346.324C1624.89 346.632 1625.31 346.806 1625.74 346.806H1626.99H1627.68C1628.17 346.806 1628.66 346.691 1629.1 346.471V346.471C1629.29 346.374 1629.48 346.256 1629.65 346.121C1629.85 345.962 1630.05 345.804 1630.24 345.646C1631.59 344.577 1633.16 343.841 1634.84 343.5C1641.91 342.064 1648.93 340.435 1655.89 338.584C1656.34 338.464 1656.8 338.404 1657.27 338.407L1658.62 338.415C1659.09 338.417 1659.54 338.6 1659.87 338.925V338.925ZM1616.4 369.899C1618.88 368.411 1618.63 364.592 1616.02 363.344C1610.37 360.64 1604.4 357.116 1598.14 352.747C1595.45 350.875 1592.19 349.979 1588.93 350.308C1588.7 350.331 1588.48 350.354 1588.25 350.376C1580.57 351.141 1574.64 357.531 1574.64 365.242V403.157C1574.64 407.69 1576.72 411.917 1579.93 415.122V415.122C1587.62 422.179 1595.16 427.631 1602.54 431.48C1605.75 433.084 1608.63 433.885 1611.2 433.885C1613.87 433.885 1616 433.61 1617.57 433.059C1617.81 432.974 1618.06 432.902 1618.32 432.859V432.859C1619.2 432.713 1619.99 432.244 1620.54 431.544C1624.28 426.815 1628.33 421.72 1632.6 416.403C1645.38 400.481 1640.18 375.672 1619.77 375.672V375.672C1617.52 375.672 1615.28 376.153 1613.03 377.115C1610.79 378.077 1608.7 379.2 1606.78 380.483C1605.18 381.445 1603.89 382.407 1602.93 383.369L1601.83 384.473C1601.64 384.66 1601.33 384.66 1601.15 384.473V384.473C1601.06 384.382 1601.01 384.26 1601.01 384.132V382.407V382.407C1601.01 381.133 1601.12 379.805 1601.86 378.768C1601.87 378.756 1601.88 378.744 1601.89 378.732C1602.23 378.268 1602.68 377.904 1603.16 377.589C1605.05 376.344 1609.47 373.78 1616.4 369.899V369.899ZM1624.1 344.496C1624.1 344.693 1623.96 344.862 1623.76 344.897C1619.13 345.752 1614.47 346.527 1609.79 347.23C1608.72 347.391 1607.75 347.291 1606.79 346.806V346.806C1601.93 344.369 1603.92 337.573 1609.36 337.728C1614.55 337.876 1619.73 337.99 1624.91 338.079C1626.98 338.115 1628.01 340.564 1626.5 341.994V341.994C1625.28 342.915 1624.49 343.688 1624.14 344.315C1624.11 344.37 1624.1 344.433 1624.1 344.496V344.496ZM1580.33 350.762C1585.07 350.324 1586.77 344.223 1583.14 341.151C1581.48 339.75 1579.8 338.297 1578.11 336.79C1577.76 336.48 1577.32 336.295 1576.86 336.265V336.265C1575.65 336.188 1574.64 337.14 1574.64 338.344V345.549C1574.64 348.624 1577.27 351.045 1580.33 350.762V350.762ZM1639.49 324.675C1635.85 334.399 1624.46 338.02 1614.08 337.733C1608.63 337.582 1603.18 337.395 1597.74 337.159C1592.82 336.947 1588.06 335.344 1584.14 332.371C1583.73 332.061 1583.32 331.748 1582.91 331.432C1577.56 327.309 1574.64 320.84 1574.64 314.087V314.087C1574.64 297.677 1591.28 286.864 1605.21 295.548C1616.95 302.874 1627.96 311.058 1637.95 319.314C1639.53 320.623 1640.22 322.751 1639.49 324.675V324.675V324.675ZM1575.27 335.885C1575.92 335.931 1576.27 335.137 1575.79 334.7V334.7C1575.35 334.3 1574.64 334.607 1574.64 335.202V335.202C1574.64 335.56 1574.91 335.859 1575.27 335.885V335.885ZM1527.59 275.006C1528.11 274.534 1528.94 274.839 1529.01 275.534C1529.03 275.691 1529.04 275.848 1529.06 276.005C1529.16 277.027 1527.91 277.549 1527.24 276.778V276.778C1526.85 276.334 1526.88 275.655 1527.32 275.256C1527.41 275.173 1527.5 275.089 1527.59 275.006V275.006ZM1527.92 268.708C1528.16 269.751 1527.82 270.821 1527.04 271.557V271.557C1525.75 272.79 1523.67 272.695 1522.5 271.341C1522.28 271.083 1522.06 270.826 1521.84 270.568C1519.7 268.093 1521.87 264.374 1525.07 265.04V265.04C1526.31 265.299 1527.32 266.219 1527.63 267.452C1527.73 267.866 1527.83 268.284 1527.92 268.708ZM1511.61 285.478C1517.33 280.591 1517.86 272.008 1513.06 266.209V266.209C1510.9 263.598 1507.88 261.844 1504.53 261.323C1500.88 260.755 1497.21 260.23 1493.53 259.747C1483.01 258.365 1473.86 266.573 1472.16 277.045V277.045C1469.94 287.79 1466.94 297.866 1463.16 307.272C1461.9 310.401 1463.32 314.021 1466.48 315.206V315.206C1468.14 315.828 1469.99 315.649 1471.5 314.734C1486.12 305.914 1499.67 295.672 1511.61 285.478ZM1524.12 258.282C1525.6 260.983 1523.09 263.861 1520.05 263.303C1519.03 263.114 1518 262.929 1516.97 262.748C1515.61 262.508 1514.37 261.802 1513.48 260.743C1504.82 250.453 1495.88 239.479 1486.65 228.023C1482.51 222.888 1481.64 215.752 1485.15 210.172V210.172C1490.6 201.191 1495.73 193.814 1500.54 188.041V188.041C1503.87 183.825 1510.52 184.55 1513.39 189.091C1519.52 198.795 1527.28 207.274 1536.68 214.529C1536.79 214.614 1536.89 214.711 1536.98 214.818V214.818C1537.63 215.612 1537.51 216.788 1536.71 217.43C1532.16 221.069 1527.48 224.583 1522.68 227.973C1517.54 231.501 1513.05 234.387 1509.2 236.633V236.633C1507.81 237.395 1508.13 240.792 1509.47 241.655C1510.57 242.368 1511.77 243.26 1513.05 244.33C1517.22 247.217 1520.91 251.868 1524.12 258.282V258.282ZM1483.35 258.096C1492.4 259.041 1498.43 248.339 1492.74 241.242C1490.73 238.731 1488.77 236.269 1486.86 233.87C1482.95 228.953 1475.28 229.971 1473.56 236.014V236.014C1473.26 237.055 1473.2 238.147 1473.32 239.223C1473.65 242.082 1473.87 244.974 1474 247.899C1474.23 253.123 1478.15 257.553 1483.35 258.096V258.096ZM1488.04 188.041C1484.12 194.222 1480.66 199.729 1477.66 204.563C1475.57 207.93 1470.77 208.234 1468.3 205.14V205.14L1468.17 204.973L1468.17 204.972L1468.16 204.964L1467.76 204.46C1466.85 203.329 1465.94 202.196 1465.04 201.06C1462.57 197.972 1460.56 194.547 1458.92 190.95C1454.3 180.829 1449.03 171.448 1443.1 162.808C1437.66 154.868 1437.73 143.839 1443.85 136.409V136.409C1451.76 126.799 1466.12 127.25 1473.97 136.917C1481.29 145.942 1488.8 155.294 1496.49 164.867L1496.49 164.868L1496.5 164.879V164.879C1498.72 167.649 1498.88 171.542 1496.91 174.497C1493.97 178.898 1491.01 183.413 1488.04 188.041ZM1471.07 215.338C1471.38 214.822 1471.28 214.089 1470.91 213.614V213.614C1469.89 212.303 1467.75 213.572 1468.26 215.154V215.154C1468.65 216.36 1470.31 216.601 1470.96 215.513C1471 215.455 1471.03 215.397 1471.07 215.338ZM1629.73 155.006C1629.73 155.007 1629.73 155.007 1629.73 155.008V155.008C1637.56 165.003 1652.95 166.439 1660.84 156.491C1662.82 153.992 1664.88 151.406 1667 148.754C1668.42 146.972 1668.45 144.451 1667.08 142.635V142.635V142.635C1664.96 139.846 1662.28 137.468 1659.02 136.186C1653.71 134.096 1648.97 133.42 1644.79 134.157C1639.65 134.799 1636.13 135.921 1634.2 137.525C1631.44 139.8 1629.36 142.693 1627.95 146.203C1626.76 149.184 1627.75 152.479 1629.73 155.006V155.006ZM1639.8 338.277C1639.41 338.273 1639.04 338.401 1638.74 338.657V338.657C1637.43 339.766 1638.46 341.904 1640.12 341.521C1640.23 341.495 1640.35 341.469 1640.46 341.443C1642.41 340.993 1642.08 338.299 1640.08 338.279C1639.99 338.279 1639.89 338.278 1639.8 338.277ZM1653.22 338.244C1652.98 338.309 1652.73 338.341 1652.48 338.339C1651.43 338.331 1650.37 338.322 1649.31 338.313C1645.82 338.284 1644.34 333.787 1646.9 331.408V331.408C1648.35 330.058 1650.47 330.135 1651.93 331.472C1652.74 332.213 1653.54 332.951 1654.33 333.686C1655.88 335.125 1655.26 337.69 1653.22 338.244V338.244ZM1658.83 337.922C1659 338.088 1658.89 338.384 1658.65 338.383V338.383C1658.34 338.381 1658.28 337.939 1658.57 337.857V337.857C1658.66 337.832 1658.76 337.858 1658.83 337.922V337.922ZM1401.82 276.954C1410.05 283.507 1421.75 278.103 1421.51 267.586C1421.5 267.125 1421.49 266.665 1421.48 266.206C1421.27 259.502 1415.63 254.362 1408.92 254.234V254.234C1396.86 254.004 1391.21 268.433 1400.61 275.991C1401.01 276.313 1401.41 276.634 1401.82 276.954ZM1368.98 253.813C1370.37 253.821 1371.7 254.358 1372.72 255.31C1379.97 262.095 1388.06 269.192 1396.81 276.146C1410.48 287.012 1418.52 304.525 1412.38 320.873C1409.81 327.702 1406.82 334.23 1403.41 340.456C1403.08 341.061 1402.51 341.494 1401.83 341.647V341.647C1401.03 341.831 1400.19 341.598 1399.6 341.026C1379.5 321.661 1351.99 298.842 1321.39 283.896C1319.51 282.974 1319.11 280.434 1320.61 278.97V278.97C1327.89 272.065 1333.65 264.291 1337.89 255.648C1338.51 254.381 1339.79 253.56 1341.2 253.578C1343.2 253.604 1345.19 253.627 1347.2 253.648C1347.73 253.653 1348.02 254.27 1347.69 254.685V254.685L1348.18 254.111V254.111C1348.42 253.826 1348.77 253.663 1349.15 253.667C1355.7 253.73 1362.31 253.771 1368.95 253.812H1368.95L1368.97 253.813H1368.98V253.813ZM1370.53 249.013C1373.48 251.937 1377.77 253.834 1381.92 253.861C1385.13 253.881 1388.35 253.904 1391.57 253.933C1407.02 254.067 1419.51 241.121 1415.28 226.262V226.262C1410.25 208.636 1387.8 206.073 1376.23 220.285C1374.15 222.846 1372.05 225.414 1369.94 227.984C1364.75 234.314 1364.72 243.246 1370.53 249.013V249.013ZM1355.28 245.682C1357.1 243.51 1360.24 243.168 1362.25 245.172V245.172C1365.31 248.241 1363.22 253.755 1358.88 253.725V253.725C1354.79 253.697 1352.65 248.821 1355.28 245.682V245.682ZM1346.5 223.038C1352.99 230.736 1365.79 231.116 1371.87 223.092C1379.47 213.061 1388.31 201.415 1396.81 190.233L1397.06 189.898L1397.48 189.355V189.355C1398.34 188.22 1398.45 186.676 1397.74 185.441C1397.21 184.542 1396.68 183.645 1396.15 182.749C1375.62 148.109 1352.2 127.582 1325.9 121.168C1318.21 119.564 1313.07 124.215 1310.51 135.12C1309.55 141.534 1310.67 148.43 1313.88 155.807C1317.4 163.184 1321.57 170.721 1326.39 178.419C1331.84 187.4 1336.49 196.701 1340.34 206.323C1341.76 209.614 1342.87 212.923 1343.66 216.251C1344.34 219.11 1344.61 220.791 1346.5 223.038V223.038ZM1344.67 235.67C1345.04 232.753 1348.92 231.277 1350.93 233.432C1352.23 234.837 1353.61 236.299 1355.05 237.81C1356.87 239.717 1357.06 242.664 1355.47 244.77C1354.52 246.028 1353.72 247.099 1353.08 247.956L1349.98 251.822C1349.06 252.969 1347.66 253.631 1346.19 253.614V253.614C1342.74 253.576 1340.47 249.994 1341.61 246.74C1342.86 243.179 1343.87 239.49 1344.67 235.67V235.67ZM1459.12 316.438C1459.7 315.234 1461.13 314.659 1462.37 315.134V315.134C1464.41 315.906 1464.67 318.715 1462.76 319.758C1462.7 319.791 1462.64 319.824 1462.58 319.856C1460.42 321.036 1458.06 318.66 1459.12 316.438V316.438ZM1260.3 417.654C1260.3 417.654 1260.3 417.654 1260.3 417.654V417.654C1262.87 421.033 1262.06 425.854 1258.21 427.66C1254.57 429.373 1250.13 431.127 1244.91 432.923C1234.97 436.772 1221.98 438.696 1205.94 438.696C1196.32 438.696 1186.05 436.451 1175.15 431.961C1165.07 427.991 1155.43 421.842 1146.23 413.512C1145.4 412.762 1145.18 411.55 1145.68 410.55V410.55C1145.76 410.391 1145.86 410.241 1145.97 410.103L1149.65 405.5C1155.42 397.161 1161.84 389.303 1168.89 381.926C1172.42 378.398 1176.27 375.832 1180.44 374.228C1182.69 373.587 1185.09 373.427 1187.66 373.747C1188.66 373.747 1189.65 373.842 1190.65 374.033C1191.97 374.283 1192.9 373.054 1191.72 372.415V372.415C1191.58 372.341 1191.45 372.248 1191.34 372.142C1190.42 371.269 1189.35 370.682 1188.14 370.38C1185.25 369.738 1182.37 369.738 1179.48 370.38C1174.03 372.304 1169.38 375.03 1165.53 378.558C1157.89 385.24 1150.89 392.553 1144.51 400.497C1144.41 400.621 1144.36 400.776 1144.36 400.936V400.936C1144.36 401.088 1144.31 401.236 1144.22 401.357C1143.43 402.382 1142.53 403.303 1141.53 404.119C1141.18 404.399 1140.91 404.8 1140.73 405.205V405.205C1140.24 406.292 1138.86 406.279 1138.02 405.429C1116.98 384.065 1104.62 352.022 1100.95 309.3C1100.72 306.541 1102.62 303.987 1105.39 303.987V303.987C1111.48 303.987 1116.45 306.072 1120.3 310.242C1124.15 314.411 1127.68 319.222 1130.89 324.675C1133.77 330.127 1137.14 334.938 1140.99 339.108C1145.16 343.277 1150.45 345.362 1156.87 345.362C1163.6 345.362 1170.02 342.636 1176.11 337.183C1182.53 331.731 1188.3 325.637 1193.43 318.901C1198.56 311.845 1202.57 305.591 1205.46 300.138L1207.49 296.688C1208.08 295.691 1206.85 294.617 1205.94 295.327V295.327C1203.05 297.573 1199.04 299.978 1193.91 302.544C1188.78 304.789 1182.85 305.912 1176.11 305.912C1171.62 305.912 1167.77 304.148 1164.56 300.62C1161.68 297.091 1158.79 292.761 1155.91 287.63C1152.38 281.856 1148.05 276.083 1142.92 270.31C1139.71 266.782 1135.54 265.499 1130.41 266.461C1125.27 267.423 1121.27 269.989 1118.38 274.159V274.159C1112.73 283.204 1101.41 277.702 1102.83 267.13C1102.92 266.449 1103.02 265.77 1103.11 265.093C1104.05 258.538 1109.8 253.854 1116.42 253.906C1169.22 254.318 1223.88 255.685 1274.88 268.845C1280.94 270.409 1283.85 277.256 1280.2 282.338V282.338C1272.82 292.601 1264.8 301.261 1256.14 308.317C1247.8 315.053 1240.43 320.184 1234.01 323.713V323.713C1232.76 324.401 1233.55 326.309 1234.93 325.906L1240.75 324.194C1251.97 320.666 1264.96 315.213 1279.72 307.836C1284.92 305.292 1289.94 302.481 1294.8 299.404C1308.5 290.715 1327.34 288.369 1341.01 297.122V297.122C1367.81 314.295 1355.37 350.226 1323.6 352.24C1295.37 354.031 1266.97 354.209 1239.22 354.383H1239.22L1239.2 354.383L1239.19 354.383L1239.18 354.383L1239.17 354.383C1230.7 354.436 1222.28 354.488 1213.96 354.587C1212.89 354.599 1211.87 354.136 1211.18 353.323V353.323V353.323C1211.6 353.845 1211.23 354.62 1210.56 354.629C1206.52 354.684 1202.5 354.75 1198.51 354.834L1201.27 354.813C1202.61 354.786 1203.96 354.761 1205.3 354.738C1209.68 354.662 1213.83 356.627 1216.57 360.039V360.039C1222.49 367.917 1242.17 393.838 1260.3 417.654ZM1105.38 253.801V253.801C1105.18 253.8 1105.04 253.623 1105.08 253.432C1107.92 238.818 1112.03 225.521 1117.42 213.54C1127.36 191.409 1137.3 174.41 1147.25 162.543L1159.5 148.369C1161.5 146.066 1164.39 144.742 1167.44 144.742H1178.29C1185.11 144.742 1188.39 154.117 1183.33 158.694V158.694C1176.91 164.788 1171.14 172.004 1166.01 180.343C1160.88 188.683 1158.31 197.663 1158.31 207.285C1158.31 212.738 1157.67 217.068 1156.39 220.275C1155.42 223.482 1154.3 226.048 1153.02 227.973C1151.74 229.576 1150.45 230.859 1149.17 231.822V231.822C1148.84 232.044 1149.04 232.565 1149.44 232.499L1156.39 231.34C1162.16 230.058 1168.89 228.935 1176.59 227.973C1184.29 226.69 1191.35 226.048 1197.76 226.048C1203.53 226.048 1206.9 224.605 1207.86 221.718C1209.15 218.832 1209.63 214.823 1209.31 209.691C1208.35 201.993 1209.63 192.531 1213.16 181.306C1216.47 170.776 1225.56 159.4 1240.44 147.177C1242.38 145.58 1244.83 144.742 1247.35 144.742H1256.09C1259.29 144.742 1261.6 147.856 1260.95 150.996V150.996C1259.67 159.656 1260.79 167.835 1264.32 175.532C1267.85 182.909 1272.34 190.126 1277.79 197.182C1283.25 204.559 1287.9 212.257 1291.75 220.275C1295.59 228.293 1296.72 237.114 1295.11 246.736V246.736C1292.32 261.398 1276.64 267.99 1262.03 264.966C1210.88 254.383 1156.97 254.086 1105.38 253.801ZM1401.74 342.528C1401.54 342.573 1401.46 342.832 1401.61 342.98V342.98C1401.74 343.102 1401.94 343.072 1402.03 342.921V342.921C1402.15 342.721 1401.97 342.48 1401.74 342.528V342.528ZM1574.64 224.073C1574.64 223.922 1574.68 223.775 1574.76 223.651V223.651C1574.83 223.559 1574.91 223.482 1575 223.425C1578.69 221.222 1581.77 218.568 1584.26 215.464C1586.98 212.433 1589.14 209.688 1590.72 207.23C1590.89 206.966 1591.28 206.872 1591.42 206.591C1591.43 206.571 1591.44 206.55 1591.45 206.528C1591.49 206.399 1591.5 206.291 1591.57 206.178V206.178C1591.95 205.59 1592.95 205.812 1592.99 206.515C1593.33 214.139 1594.88 222.094 1597.64 230.378V230.378C1598.93 233.847 1598.43 237.752 1596.2 240.703C1593.85 243.803 1591.98 246.285 1590.72 247.956L1585.33 254.685V254.685C1592.14 246.671 1605.14 248.63 1610.53 257.664C1613.56 262.74 1616.8 267.436 1620.25 271.753C1625.73 279.157 1630.28 286.443 1633.89 293.611C1635.1 296.013 1635.86 298.623 1637.05 301.032C1637.07 301.055 1637.08 301.078 1637.09 301.101C1638.69 304.308 1639.97 307.836 1640.94 311.685V311.685C1641.76 314.688 1638.13 316.184 1635.68 314.268C1623.12 304.46 1609.27 295.019 1594.62 287.242C1582.87 281.003 1574.64 269.224 1574.64 255.919V224.073ZM1615.54 518.688C1612.75 515.799 1609.92 512.793 1607.06 509.678C1593.09 494.49 1593.01 471.335 1605.92 455.234C1606.76 454.174 1607.61 453.117 1608.46 452.063L1608.46 452.054L1608.46 452.053C1625.75 430.483 1642.14 410.04 1657.57 391.91C1659.67 389.446 1663.24 388.83 1665.95 390.586V390.586C1681.67 400.208 1696.58 410.632 1710.7 421.858C1714.45 424.86 1718.2 427.765 1721.96 430.572C1722.54 431.007 1722.99 431.594 1723.25 432.271V432.271C1723.74 433.543 1723.52 434.983 1722.66 436.041C1716.88 443.151 1710.49 449.649 1703.48 455.535C1698.03 460.346 1692.25 464.516 1686.16 468.044L1682.31 469.968C1680.39 470.93 1678.62 471.893 1677.02 472.855C1674.13 474.459 1671.09 475.741 1667.88 476.704C1662.42 478.615 1656.96 479.306 1651.49 478.776C1644.68 478.115 1639.96 483.567 1646.23 486.326V486.326C1653.93 490.175 1662.11 491.137 1670.77 489.212C1674.94 488.571 1678.94 487.448 1682.79 485.845C1686.64 484.241 1690.17 482.317 1693.38 480.071C1700.11 476.223 1706.53 471.732 1712.62 466.6V466.6C1720.58 459.778 1733.58 462.576 1735.9 472.799C1736.58 475.813 1737.18 478.76 1737.69 481.62C1737.69 481.621 1737.69 481.62 1737.69 481.622C1737.69 481.651 1740.44 497.197 1740.39 515.692C1740.36 525.399 1736.04 534.512 1729.04 541.236C1722.36 547.652 1714.87 554.419 1706.7 561.118C1696.33 569.627 1682.08 572.08 1670.5 565.31C1654.4 555.9 1635.98 540.458 1615.54 518.688ZM1703 354.802C1703 358.57 1698.42 360.588 1695.2 358.625V358.625C1692.57 357.016 1692.4 353.575 1694.58 351.386C1694.69 351.277 1694.8 351.168 1694.91 351.059C1697.92 348.034 1703 350.205 1703 354.479V354.802ZM1747.89 393.473C1748.07 393.473 1748.22 393.322 1748.22 393.137V336.864C1748.22 320.388 1757.54 303.048 1774.02 302.962C1775.4 302.954 1776.75 303.021 1778.06 303.161V303.161C1780.36 303.401 1781.76 305.682 1781.21 307.929C1774.54 335.037 1765.31 361.146 1753.52 386.256C1752.34 388.896 1751.03 391.671 1749.59 394.58C1749.39 394.982 1748.86 395.07 1748.52 394.777C1748.26 394.555 1747.98 394.333 1747.69 394.111C1747.42 393.912 1747.56 393.473 1747.89 393.473V393.473ZM1748.22 291.734C1748.22 294.638 1751.38 296.459 1753.97 295.14C1766.01 289.005 1776.66 286.486 1785.8 287.352C1786.01 287.372 1786.2 287.232 1786.25 287.024V287.024C1786.28 286.884 1786.24 286.737 1786.14 286.635C1784.94 285.422 1783.73 284.183 1782.51 282.92V282.92C1775.8 276.149 1764.93 275.727 1757.73 281.969C1755.1 284.247 1752.39 286.532 1749.61 288.809C1748.74 289.528 1748.22 290.6 1748.22 291.734V291.734ZM1765.54 391.548C1768.56 384.636 1771.36 377.665 1773.95 370.634C1784.62 341.636 1810.68 336.704 1810.14 367.597C1809.85 384.339 1807.48 397.769 1807.48 397.806C1807.48 397.808 1807.48 397.807 1807.48 397.81C1806.51 403.256 1805.22 409.02 1803.64 414.96C1803.62 415.02 1803.59 415.076 1803.55 415.122V415.122C1800.34 418.65 1795.85 420.414 1790.08 420.414C1786.92 420.414 1780.43 417.091 1770.62 410.444C1764.54 406.327 1762.72 398.323 1765.54 391.548V391.548ZM1815.61 396.317C1815.61 396.317 1815.61 396.317 1815.61 396.317C1815.59 396.419 1815.57 396.52 1815.55 396.622C1815.49 396.916 1815.88 397.084 1816.06 396.84V396.84L1820.39 388.662L1822.31 384.813C1829.37 371.021 1835.3 355.145 1840.11 337.183C1840.34 336.399 1840.56 335.612 1840.77 334.823C1841.76 331.18 1840.56 327.781 1837.16 326.126V326.126C1830.2 322.727 1818.4 329.935 1819.04 337.66C1821.42 366.238 1815.61 396.317 1815.61 396.317ZM1791.04 443.507V443.507C1792.45 442.592 1794.28 443.997 1793.68 445.563C1784.95 468.444 1773.73 490.458 1763.09 504.211C1763.09 504.212 1763.09 504.212 1763.09 504.213V504.213C1758.51 510.146 1749.03 506.802 1748.19 499.352C1747.08 489.579 1745.83 483.119 1745.83 483.11C1745.83 483.109 1745.83 483.109 1745.83 483.109C1743.57 471.434 1739.74 458.301 1734.95 445.123C1734.68 444.362 1734.82 443.512 1735.31 442.874V442.874C1736.08 441.89 1737.48 441.671 1738.52 442.364C1747.35 448.258 1754.91 451.205 1761.21 451.205C1773.72 451.205 1783.66 448.639 1791.04 443.507ZM1597.02 461.774C1597.02 461.773 1597.02 461.774 1597.02 461.773C1597.03 461.763 1604.29 452.218 1615.4 438.078C1616.36 436.849 1615.02 435.149 1613.6 435.81V435.81C1609.11 438.376 1603.5 441.102 1596.77 443.989C1590.03 447.196 1583.13 449.762 1576.08 451.686V451.686C1569.95 453.436 1566.23 461.966 1570.27 466.888C1571.56 468.459 1572.85 470.018 1574.13 471.564C1578.25 476.546 1585.92 476.358 1589.84 471.212C1592.23 468.06 1594.64 464.899 1597.02 461.774ZM1708.22 576.266C1702.04 576.922 1700.36 569.292 1705.25 565.471C1707.91 563.401 1710.5 561.314 1713.03 559.223C1721.8 551.985 1733.96 559.541 1726.06 567.713C1721.56 572.369 1715.73 575.485 1708.22 576.266V576.266ZM1687.6 162.061C1688.29 163.219 1687.01 164.015 1686.17 162.964C1682.01 157.777 1677.81 152.533 1673.55 147.25C1673.33 146.973 1673.33 146.577 1673.55 146.301V146.301C1673.83 145.962 1674.33 145.928 1674.65 146.232C1678.83 150.272 1683.15 155.548 1687.6 162.061V162.061ZM1763.38 262.344C1758.2 256.511 1748.22 259.88 1748.22 267.68V268.171C1748.22 275.453 1756.68 279.332 1762.01 274.373C1762.24 274.154 1762.48 273.936 1762.71 273.718C1766.01 270.635 1766.37 265.72 1763.38 262.344V262.344ZM1775.82 260.915C1773.76 263.018 1770.37 262.979 1768.35 260.829V260.829C1765.26 257.615 1762.12 254.253 1758.93 250.756C1751.93 243.085 1748.22 233.011 1748.22 222.629V179.824C1748.22 169.737 1752.37 159.648 1761.69 155.807V155.807C1764.9 154.845 1771 156.769 1779.98 161.58C1788.96 166.071 1798.58 173.448 1808.84 183.711V183.711C1817.32 191.673 1818.44 204.5 1812.71 214.62C1808.8 221.533 1804.81 227.699 1800.91 232.752C1800.91 232.752 1800.91 232.752 1800.91 232.752V232.752C1800.43 233.364 1799.46 233.01 1799.47 232.237C1799.54 226.993 1799.47 221.73 1799.26 216.446C1799.24 215.897 1798.79 215.464 1798.24 215.464V215.464C1797.7 215.464 1797.26 215.871 1797.21 216.402C1796.69 222.424 1796.06 228.42 1795.33 234.39C1794.85 238.356 1793.2 242.086 1790.55 245.082C1786.62 249.535 1781.66 254.951 1775.82 260.915ZM1790.07 268.539C1789.1 273.683 1782.88 275.653 1779.17 271.969C1779.05 271.85 1778.93 271.731 1778.81 271.611C1776.23 269.048 1776.83 264.356 1779.41 261.789V261.789C1783.99 257.224 1791.36 261.615 1790.17 267.971C1790.14 268.16 1790.1 268.35 1790.07 268.539ZM1847.81 279.451C1847.81 299.469 1828.23 311.485 1811.86 299.959C1811.35 299.598 1810.83 299.232 1810.32 298.86C1800.23 291.596 1795.94 279.002 1797.18 266.637C1797.4 264.497 1797.59 262.353 1797.78 260.207C1798 258.152 1798.2 256.094 1798.38 254.034C1799.13 245.414 1802.52 237.267 1807.86 230.461V230.461C1807.86 230.459 1807.86 230.46 1807.86 230.458C1809.74 228.061 1811.65 225.411 1813.55 222.548C1819.25 214.004 1831.82 213.423 1836.27 222.681V222.681C1843.96 238.717 1847.81 257.641 1847.81 279.451V279.451ZM1855.03 158.694C1858.55 161.727 1866.09 157.209 1864.08 153.016C1862.29 149.272 1860.45 145.643 1858.59 142.17C1856.36 137.995 1850.24 138.918 1848.93 143.469C1848.59 144.639 1848.24 145.815 1847.88 146.996C1847.07 149.667 1847.93 152.568 1850.05 154.375C1851.7 155.776 1853.36 157.215 1855.03 158.694V158.694ZM1809.22 77.7625C1826.85 93.7997 1850.88 76.3806 1842.37 54.1213C1837.72 41.9589 1829.61 32.7491 1815.91 31.3215C1813.17 31.0308 1810.3 31.0563 1807.29 31.4019C1788.15 33.598 1794.98 64.8002 1809.22 77.7625V77.7625ZM1745.49 67.0076C1758.78 54.9906 1778.61 54.9629 1792.31 66.4981C1823.84 93.0318 1844.48 119.764 1844.5 119.787C1844.5 119.788 1844.5 119.788 1844.5 119.788V119.788C1845.5 121.083 1845.91 122.734 1845.66 124.35C1845.49 125.497 1845.38 126.128 1845.37 126.144C1845.37 126.145 1845.37 126.145 1845.37 126.146V126.146C1843.62 136.059 1831.9 139.897 1823.39 134.528C1823.19 134.404 1822.99 134.28 1822.79 134.157C1815.1 129.026 1808.68 124.215 1803.55 119.724C1798.42 115.234 1795.85 110.583 1795.85 105.772C1795.85 103.527 1795.69 101.603 1795.37 99.999C1795.15 98.8861 1794.85 97.9277 1794.47 97.1238C1794.16 96.4529 1793.86 95.7635 1793.46 95.1398C1793.21 94.7504 1792.91 94.4595 1792.56 94.2671C1792.51 94.2386 1792.46 94.2046 1792.42 94.163V94.163C1792.2 93.9375 1791.83 93.952 1791.62 94.1945L1746.66 146.83C1741.92 152.382 1731.49 148.995 1728.5 142.336V142.336C1723.05 131.431 1713.74 122.29 1700.59 114.913V114.913C1700.3 114.75 1700.23 114.362 1700.45 114.11C1708.3 105.039 1715.89 96.6171 1723.23 89.0081C1730.94 80.7771 1738.37 73.4489 1745.49 67.0076ZM1671.15 143.574C1671 143.754 1670.73 143.755 1670.58 143.575C1670.57 143.561 1670.56 143.547 1670.55 143.532C1670.25 143.165 1670.67 142.728 1671.04 143.025C1671.06 143.04 1671.08 143.054 1671.09 143.069C1671.25 143.194 1671.27 143.42 1671.15 143.574V143.574ZM1528.93 387.218C1526.13 386.907 1522.88 387.049 1519.17 387.643C1512.53 388.708 1505.57 386.84 1501.3 381.639C1494.02 372.78 1486.6 363.874 1479.06 354.992C1478.86 354.757 1479.02 354.395 1479.33 354.394V354.394C1490.29 354.333 1501.36 354.272 1512.48 354.112C1521.76 353.979 1529.41 361.432 1529.41 370.713V386.737C1529.41 387.003 1529.2 387.218 1528.93 387.218V387.218ZM1110.35 144.742C1119.65 144.742 1124.4 156.932 1118.23 163.882C1112.92 169.85 1107.56 176.471 1102.13 183.747C1097.75 189.629 1088.68 189.14 1083.74 183.711V183.711C1080.85 180.183 1078.13 177.457 1075.56 175.532V175.532C1073.81 174.032 1073.85 171.31 1075.65 169.863L1104.09 146.949C1105.87 145.52 1108.07 144.742 1110.35 144.742V144.742Z" fill="#EAFE01"/>
</svg>
