<svg width="394" height="1374" viewBox="0 0 394 1374" fill="none" xmlns="http://www.w3.org/2000/svg">
<path fill-rule="evenodd" clip-rule="evenodd" d="M204.482 889.397C194.701 889.397 185.825 883.961 180.333 875.875C178.581 873.294 176.773 870.776 174.934 868.33C171.642 863.948 169.734 857.779 173.612 853.905C176.199 851.718 179.482 850.525 183.463 850.326C187.443 850.128 190.925 850.923 193.911 852.712C196.896 854.303 198.189 857.087 197.791 861.063C197.393 862.853 196.697 864.742 195.702 866.73C195.294 867.463 194.786 868.113 194.178 868.679C193.259 869.535 193.433 871.085 194.679 870.923C194.758 870.913 194.844 870.893 194.919 870.867C196.076 870.47 197.232 869.886 198.388 869.116C200.577 867.326 202.269 865.139 203.463 862.555C204.657 859.97 204.955 856.987 204.358 853.607C203.57 850.458 201.905 847.893 199.362 845.913C199.313 845.875 199.284 845.816 199.284 845.754C199.284 845.644 199.373 845.554 199.484 845.554H237.792C242.966 845.554 247.444 846.151 251.225 847.344C255.006 848.537 258.091 849.73 260.479 850.923C262.867 852.116 264.658 852.712 265.852 852.712C267.346 852.712 266.629 850.469 266.058 849.089C265.837 848.554 265.569 847.972 265.255 847.344C264.26 845.554 263.265 843.566 262.27 841.379C261.474 838.993 261.076 836.508 261.076 833.923C261.076 831.537 261.175 829.648 261.374 828.256C261.772 826.864 262.27 825.572 262.867 824.379C263.265 823.385 263.563 822.192 263.762 820.8C264.16 819.408 264.359 817.619 264.359 815.431C264.359 814.04 264.26 812.847 264.061 811.852C263.862 810.858 263.563 810.063 263.165 809.466C262.92 809.099 262.674 808.806 262.429 808.59C262.152 808.345 261.852 808.119 261.54 807.921C261.485 807.885 261.43 807.854 261.374 807.826C261.009 807.644 260.589 807.528 260.18 807.528C260.003 807.528 259.827 807.567 259.65 807.646C259.606 807.665 259.558 807.677 259.509 807.677C259.375 807.677 259.256 807.763 259.214 807.89L259.041 808.407C259.005 808.516 258.988 808.63 258.981 808.745C258.958 809.129 258.862 809.587 258.693 810.117C258.513 810.684 258.345 811.256 258.166 811.822C257.943 812.528 257.619 813.234 257.195 813.94C257.173 813.977 257.151 814.013 257.129 814.05C255.99 815.908 254.156 817.402 251.978 817.508C251.829 817.515 251.677 817.519 251.523 817.519H128.853C124.178 817.519 119.606 816.253 115.454 814.107C100.661 806.459 82.3433 799.664 67.7135 796.835C67.7139 796.835 67.7132 796.835 67.7135 796.835C67.7028 796.833 65.5067 796.409 61.9121 795.912C61.6558 795.876 61.4394 795.698 61.3713 795.449C61.2483 795.142 61.1348 794.863 61.0308 794.613C60.6828 793.775 59.9235 792.72 59.2817 793.361C58.521 794.273 57.6525 795.373 56.4708 795.248C38.6549 793.358 5.44516 792.617 0.586215 812.419C-2.58991 825.683 7.05117 844.854 31.6943 868.653C39.7069 876.606 50.9158 886.379 62.2921 895.869C66.0239 898.982 65.6759 904.838 61.6698 907.59C55.1025 911.964 49.5303 917.034 44.9532 922.801C41.147 927.237 38.8574 932.242 38.0844 937.815C37.8126 939.774 36.7178 941.537 35.1023 942.681C30.3261 946.061 26.7439 949.938 24.3559 954.312C21.9678 958.488 20.7737 961.669 20.7737 963.856C20.7737 965.049 21.3707 966.441 22.5648 968.032C22.9629 968.589 23.4089 969.13 23.9027 969.655C25.4131 971.261 26.7605 973.063 27.341 975.19C27.739 977.178 28.0375 979.862 28.2365 983.242C28.4355 986.622 28.2365 990.4 27.6395 994.576C27.2415 998.95 29.331 1002.73 33.9082 1005.91C38.2864 1009.09 43.9581 1010.58 50.9234 1010.38C57.7065 1010 64.3953 1007.16 70.9897 1001.87C71.2961 1001.62 71.3711 1001.19 71.1689 1000.85C70.7528 1000.16 71.5443 999.311 72.284 999.637C73.0316 999.968 73.7941 1000.27 74.5713 1000.56C75.3521 1000.84 75.7791 1001.69 75.4797 1002.47C74.393 1005.28 73.0733 1008.12 71.5207 1010.98C66.1475 1020.52 60.0778 1030.27 53.3115 1040.21C46.3462 1049.95 40.177 1059.69 34.8038 1069.44C29.4305 1079.18 26.7439 1088.72 26.7439 1098.07C26.7439 1098.31 26.3229 1098.37 26.2723 1098.13C19.6958 1066.67 19.4872 1033.39 19.2873 1001.51V1001.51L19.2872 1001.49C19.2339 992.964 19.1811 984.536 19.0071 976.269L19.0202 977.984C19.1866 986.234 19.2332 994.646 19.2803 1003.16C19.4934 1041.68 19.718 1082.29 31.1135 1119.48C33.2727 1127 31.8422 1135.21 26.827 1141.23C12.8658 1157.96 7.62623 1171.76 10.091 1182.01C16.793 1209.23 77.3315 1197.57 77.3448 1197.57C77.3444 1197.57 77.3452 1197.57 77.3448 1197.57C81.6422 1196.74 86.1147 1197.85 89.3991 1200.74C93.5599 1204.4 96.1524 1206.44 96.177 1206.45C96.178 1206.46 96.1775 1206.46 96.1785 1206.46C102.38 1211.31 104.199 1220.12 98.0237 1225.01C94.0869 1228.12 87.6125 1228.93 83.6126 1225.9C75.1695 1219.5 68.0297 1214.09 65.0688 1211.87L60.9719 1208.59C61.8895 1209.37 62.8075 1210.15 63.7259 1210.92C76.7394 1221.89 76.7037 1241.98 63.7559 1253.02C55.2958 1260.24 47.3535 1267.33 41.2577 1273.37C33.8925 1280.47 21.4353 1279.67 17.2077 1270.36C15.1955 1265.93 13.4699 1261.39 12.1226 1256.77C0.763106 1220.44 0.512864 1180.5 0.275265 1142.56V1142.56L0.275178 1142.55C0.222787 1134.17 0.171009 1125.9 0.000289088 1117.78L0.0131693 1119.46C0.176453 1127.56 0.222182 1135.82 0.268376 1144.18C0.477455 1182.01 0.697847 1221.89 11.8791 1258.41C13.2413 1263.16 15.0115 1267.85 17.0901 1272.43C21.844 1282.92 20.8687 1295.1 15.3492 1305.2C10.1461 1314.73 8.48686 1322.91 10.091 1329.6C16.7936 1356.87 77.3414 1345.19 77.3444 1345.19C77.3443 1345.19 77.3445 1345.19 77.3444 1345.19C77.4386 1345.17 77.5341 1345.19 77.6117 1345.24C92.4432 1356.04 119.883 1367.66 140.135 1371.56C140.136 1371.56 140.135 1371.56 140.136 1371.56C140.164 1371.57 199.55 1383.01 206.125 1356.29C208.748 1345.36 220.825 1324.54 232.022 1323.53C240.157 1322.79 245.898 1321.68 245.904 1321.68C245.904 1321.68 245.905 1321.68 245.904 1321.68C267.414 1317.53 296.897 1304.82 311.428 1293.43C311.43 1293.43 311.43 1293.43 311.432 1293.43C311.484 1293.39 313.828 1291.55 317.619 1288.22C322.851 1283.64 329.538 1281.13 336.47 1280.53C350.532 1279.32 363.933 1274.87 366.883 1262.84C367.603 1259.84 367.664 1256.52 367.041 1252.92C365.383 1243.35 364.972 1233.24 369.279 1224.52C372.176 1218.66 374.61 1212.61 376.373 1206.46C387.747 1169.27 387.971 1128.66 388.184 1090.13C388.231 1081.62 388.277 1073.21 388.443 1064.96L388.456 1063.24C388.283 1071.51 388.23 1079.94 388.177 1088.47V1088.48C387.935 1127.12 387.68 1167.79 376.125 1204.79C371.551 1220.47 350 1220.74 338.418 1209.2C337.557 1208.34 336.676 1207.48 335.775 1206.61C332.899 1203.75 329.611 1200.67 326.051 1197.44C313.653 1186.2 313.68 1166.56 326.434 1155.72L322.266 1159.06C319.771 1160.94 314.358 1165.04 307.691 1170.09C303.49 1173.28 297.237 1172.82 293.144 1169.5C286.298 1163.94 288.389 1153.25 296.298 1149.35C304.431 1145.33 311.689 1141.02 316.972 1136.88C316.974 1136.88 316.973 1136.88 316.975 1136.88C317.039 1136.83 324.507 1130.96 334.473 1121.16C338.76 1116.94 344.306 1114.34 350.052 1112.56C358.359 1109.99 364.925 1105.36 366.883 1097.39C367.032 1096.77 367.153 1096.14 367.245 1095.49C368.355 1087.72 368.637 1079.55 372.385 1072.66C376.36 1065.35 379.679 1057.71 381.917 1049.9C393.29 1012.71 393.515 972.105 393.727 933.581C393.774 925.067 393.821 916.655 393.987 908.405L394 906.689C393.826 914.959 393.774 923.39 393.72 931.92V931.93C393.479 970.562 393.224 1011.24 381.669 1048.23C377.404 1062.86 355.381 1062.03 345.091 1050.79C342.266 1047.7 339.162 1044.52 335.775 1041.26C334.405 1039.9 332.941 1038.49 331.399 1037.03C320.391 1026.66 320.449 1008.96 331.977 999.171L327.81 1002.51C327.241 1002.94 326.52 1003.48 325.667 1004.12C315.712 1011.64 301.892 1011.29 292.197 1003.44C274.389 989.036 259.157 977.447 259.143 977.436C259.143 977.436 259.143 977.436 259.142 977.436C254.829 974.155 252.876 968.543 254.904 963.52C256.142 960.455 257.602 957.321 259.285 954.117C265.653 941.988 272.021 931.052 278.389 921.309C285.753 910.374 289.434 903.414 289.434 900.432C289.434 894.666 288.141 889.099 285.554 883.73C282.967 878.163 280.28 873.49 277.494 869.712C275.379 866.695 273.781 864.536 272.698 863.235C272.543 863.049 272.302 863.216 272.411 863.432C272.416 863.444 272.423 863.454 272.431 863.465C272.779 863.932 273.093 864.535 273.373 865.274C273.806 866.417 274.201 867.582 274.47 868.774C274.695 869.77 274.807 870.878 274.807 872.098C274.807 874.882 271.524 881.245 264.956 891.186C264.92 891.246 264.883 891.306 264.846 891.365C262.432 895.292 256.926 896.006 254.508 892.081C252.916 889.297 251.722 886.911 250.926 884.923L249.701 882.474C249.634 882.341 249.434 882.389 249.434 882.537C249.434 883.327 249.317 884.117 248.999 884.841C248.864 885.148 248.711 885.474 248.538 885.818C248.14 886.414 247.543 887.011 246.747 887.607C246.503 887.79 246.24 887.964 245.958 888.128C244.576 888.934 242.966 889.236 241.368 889.327C240.545 889.373 239.651 889.397 238.687 889.397H204.482ZM318.394 1132.57C318.393 1132.57 318.393 1132.57 318.392 1132.57C311.002 1138.28 299.769 1144.27 287.672 1149.28C279.36 1152.73 269.922 1150.98 262.799 1145.48C260.484 1143.7 259.159 1142.69 259.143 1142.67C259.142 1142.67 259.142 1142.67 259.141 1142.67C244.365 1131.41 228.282 1119.19 223.394 1115.51C221.183 1113.74 219.903 1111.05 219.92 1108.22C219.932 1106.22 219.946 1104.22 219.962 1102.23C220.007 1096.73 222.153 1091.44 226.109 1087.61C227.17 1086.58 228.258 1085.55 229.373 1084.5C230.586 1083.34 232.482 1083.29 233.796 1084.35C234.076 1084.57 234.225 1084.69 234.229 1084.69C234.229 1084.69 234.23 1084.69 234.229 1084.69C248.759 1096.08 278.244 1108.79 299.756 1112.94C299.756 1112.94 299.756 1112.94 299.756 1112.94C299.763 1112.95 304.572 1113.87 311.625 1114.59C320.418 1115.49 325.389 1127.17 318.394 1132.57ZM193.647 1141.86C192.673 1132.71 197.425 1121.02 208.272 1107.13C212.212 1102.09 219.925 1105.15 219.885 1111.55L219.885 1111.56V1111.57L219.883 1111.86C219.881 1112.19 219.49 1112.38 219.227 1112.17L219.715 1112.58C219.818 1112.67 219.877 1112.8 219.876 1112.93C219.836 1119.22 219.793 1125.56 219.697 1131.93C219.463 1147.54 200.663 1161.36 194.859 1146.87C194.251 1145.35 193.837 1143.68 193.647 1141.86ZM215.429 1093.44C216.312 1092.57 217.233 1091.67 218.189 1090.75C219.414 1089.58 220.129 1087.97 220.165 1086.28L220.152 1088L220.146 1088.29C220.141 1088.52 220.416 1088.65 220.584 1088.49C222.394 1086.79 224.305 1085.05 226.294 1083.26C227.879 1081.83 227.866 1079.34 226.277 1077.92C225.199 1076.96 224.034 1075.91 222.796 1074.76C218.324 1070.62 210.825 1072.78 209.155 1078.63C208.801 1079.87 208.436 1081.11 208.058 1082.34C202.093 1103.13 188.45 1122.72 175.189 1138.02C173.957 1139.44 174.11 1141.6 175.543 1142.82C178.355 1145.22 181.108 1147.6 183.755 1149.93C184.004 1150.15 184.4 1149.9 184.321 1149.57C181.145 1136.33 190.786 1117.2 215.429 1093.44ZM298.833 1107.9C298.832 1107.9 298.833 1107.9 298.831 1107.9C285.07 1105.47 268.042 1099.59 253.701 1092.71C242.564 1087.37 241.222 1073.48 250.657 1065.51C255.364 1061.54 262.612 1059 267.455 1062.81C267.727 1063.02 267.988 1063.24 268.24 1063.47L271.03 1066.26C271.955 1067.18 272.958 1068.02 274.008 1068.8C274.274 1069 274.531 1069.19 274.778 1069.38C275.599 1070 276.475 1070.55 277.367 1071.06C277.603 1071.2 277.828 1071.34 278.043 1071.47C278.685 1071.88 279.495 1072.33 280.206 1072.6C281.077 1072.92 281.849 1073.01 282.78 1073.01H284.539C284.615 1073.01 284.688 1072.98 284.742 1072.93C284.859 1072.81 284.854 1072.62 284.732 1072.51L278.688 1067.05C270.959 1059.33 273.535 1046.73 282.062 1039.9C283.378 1038.84 284.7 1037.78 286.03 1036.72L286.037 1036.71L286.043 1036.71L286.055 1036.7C288.224 1034.96 290.411 1033.21 292.613 1031.44C301.293 1024.48 313.819 1024.6 321.832 1032.32C347.534 1056.39 359.022 1075.92 357.558 1089.67C357.555 1089.7 357.552 1089.72 357.55 1089.75C357.238 1092.63 355.691 1095.19 353.849 1097.44C352.995 1098.48 352.139 1099.5 351.283 1100.51C349.632 1102.45 347.705 1104.18 345.383 1105.23C328.148 1113.07 298.881 1107.91 298.833 1107.9ZM224.461 1073.35C228.221 1076.69 233.853 1076.58 237.679 1073.31C241.456 1070.08 245.34 1066.83 249.21 1063.63C251.669 1061.6 250.535 1057.8 247.344 1057.8H216.954C215.239 1057.8 213.771 1059.03 213.44 1060.71C213.21 1061.88 213.57 1063.09 214.417 1063.93C218.169 1067.64 221.602 1070.81 224.461 1073.35ZM292.062 1029.62C292.062 1029.62 292.062 1029.62 292.061 1029.62C292.053 1029.63 289.874 1031.29 286.206 1034.12C275.618 1042.31 260.315 1038.87 258.688 1025.59C258.588 1024.99 258.388 1024.5 258.087 1024.1C257.484 1023.3 256.451 1022.81 255.455 1022.69C254.389 1022.57 253.459 1023.2 252.514 1023.71C250.056 1025.03 246.84 1026.36 242.866 1027.68C238.09 1029.07 232.518 1029.77 226.15 1029.77C221.635 1029.77 218.097 1025.9 218.408 1021.4C219.688 1002.86 219.791 984.208 219.892 966.02C219.912 962.349 219.932 958.696 219.962 955.067C219.97 954.137 220.35 953.249 221.018 952.602C222.301 951.357 224.319 951.286 225.69 952.434C228.611 954.878 231.533 957.3 234.447 959.698C235.45 960.523 236.001 961.767 236.001 963.064C236.001 967.637 237.493 973.801 240.478 981.555C243.264 989.31 246.349 996.766 249.732 1003.92C253.115 1010.88 255.802 1015.85 257.792 1018.84C257.813 1018.87 257.834 1018.91 257.855 1018.94C258.439 1019.89 259.583 1019.66 259.583 1018.54C259.583 1017.54 259.384 1016.55 258.986 1015.56C256.2 1009.99 254.21 1005.61 253.016 1002.43C251.623 999.251 250.727 996.667 250.329 994.678C249.931 992.69 249.732 990.304 249.732 987.52C249.732 980.948 257.406 978.311 262.539 982.422C263.41 983.119 264.278 983.815 265.143 984.508L265.164 984.524L265.174 984.532C274.781 992.224 284.028 999.629 292.643 1006.73C299.927 1012.74 299.578 1023.9 292.062 1029.62ZM218.056 1170.97C218.209 1169.05 216.626 1167.4 214.707 1167.23C211.005 1166.91 207.691 1172.97 210.131 1175.77C210.409 1176.09 210.684 1176.41 210.956 1176.73C213.138 1179.27 217.441 1178.06 217.739 1174.72C217.85 1173.47 217.956 1172.22 218.056 1170.97ZM219.807 1188.24C218.078 1185.67 217.222 1182.6 217.519 1179.52C218.161 1172.85 223.867 1167.77 230.566 1167.46C242.202 1166.91 251.428 1165.13 251.448 1165.13C251.449 1165.13 251.448 1165.13 251.449 1165.13C256.274 1164.2 261.5 1162.84 266.869 1161.15C272.347 1159.44 278.364 1160.38 282.82 1163.99C284.195 1165.11 285.558 1166.21 286.908 1167.32C292.935 1172.24 292.712 1181.46 286.518 1186.17C286.519 1186.17 286.518 1186.17 286.518 1186.17C286.503 1186.19 251.381 1212.91 225.444 1235.65C224.161 1236.77 222.369 1236.88 221.116 1235.73C219.399 1234.14 219.733 1231.22 221.631 1229.86C225.282 1227.23 227.949 1223.75 229.081 1219.15C231.043 1210.99 228.123 1200.58 219.807 1188.24ZM252.371 1160.09C252.371 1160.09 252.372 1160.09 252.371 1160.09C252.362 1160.09 248.732 1160.73 243.279 1161.22C229.5 1162.45 219.44 1150.36 219.674 1136.54C219.806 1128.71 219.849 1120.92 219.892 1113.22C219.893 1113.03 220.117 1112.93 220.262 1113.05C235.43 1125.92 250.709 1138.18 265.172 1149.78L265.173 1149.78L265.176 1149.78C268.028 1152.07 267.182 1156.59 263.65 1157.54C259.74 1158.59 255.945 1159.46 252.371 1160.09ZM169.519 1144.35C170.472 1143.32 172.08 1143.22 173.13 1144.15C176.966 1147.54 180.583 1150.85 183.945 1154.08C197.85 1167.08 207.603 1178.76 213.402 1188.91C214.923 1191.57 215.369 1194.72 214.873 1197.74C212.951 1209.44 198.841 1212.94 191.741 1203.44C182.421 1190.96 173.966 1176.54 169.535 1161.32C168.219 1157.1 167.05 1152.83 166.01 1148.52C165.955 1148.29 166.02 1148.05 166.184 1147.88C166.53 1147.52 167.134 1147.63 167.313 1148.1C168.129 1150.22 168.537 1152.03 168.537 1153.54L168.836 1146.98C168.836 1146.7 168.834 1146.42 168.832 1146.14C168.827 1145.47 169.067 1144.83 169.519 1144.35ZM169.422 1137.66C170.638 1138.67 172.439 1138.56 173.496 1137.38C187.021 1122.29 201.495 1102.29 207.81 1080.67C208.996 1076.88 210.064 1073.05 211.024 1069.19C211.77 1066.19 210.922 1063.11 208.811 1060.86C207.044 1058.97 204.522 1057.8 201.934 1057.8H184.524C169.687 1057.8 157.593 1069.9 158.176 1084.72C158.345 1089.01 158.56 1093.3 158.834 1097.58C159.108 1101.86 160.626 1105.93 162.323 1109.87C162.51 1110.31 162.69 1110.75 162.865 1111.19C165.452 1117.55 167.144 1124.02 167.94 1130.58C168.103 1132.31 168.244 1133.98 168.362 1135.59C168.422 1136.39 168.803 1137.14 169.422 1137.66ZM168.706 1141.38C168.688 1140.96 169.192 1140.7 169.514 1140.98C169.723 1141.16 169.736 1141.48 169.547 1141.68C169.252 1142 168.725 1141.81 168.706 1141.38ZM106.48 1088.08C109.363 1090.27 113.485 1090.7 116.951 1089.66C120.823 1088.51 125.182 1087.93 130.029 1087.93C138.984 1087.93 146.049 1090.21 151.223 1094.79C153.628 1096.82 158.521 1094.95 158.371 1091.81C157.975 1083.54 157.77 1075.26 157.651 1067.04C157.578 1061.93 153.423 1057.8 148.305 1057.8H129.481C127.336 1057.8 125.241 1058.55 123.568 1059.89C120.379 1062.45 119.257 1066.75 120.571 1070.62C120.641 1070.82 120.709 1071.03 120.775 1071.23L121.089 1072.17C121.219 1072.56 120.661 1072.79 120.477 1072.42C120.028 1071.63 119.509 1070.82 118.919 1069.97C117.338 1067.7 114.154 1067.43 111.993 1069.15L111.992 1069.16C110.16 1070.62 108.341 1072.07 106.537 1073.52C101.772 1077.33 101.616 1084.4 106.48 1088.08ZM91.6114 1085.52C94.4621 1083.21 98.5483 1083.23 101.394 1085.55C103.825 1087.53 106.249 1089.5 108.661 1091.44C109.357 1092.01 109.277 1093.09 108.536 1093.59C102.765 1097.17 97.5907 1101.25 93.0136 1105.82C88.8344 1109.8 84.5557 1113.28 80.1776 1116.26C75.6004 1119.24 70.2272 1120.73 64.0579 1120.73C60.9391 1120.73 58.1981 1120.42 55.8348 1119.78C54.5536 1119.43 54.2581 1117.85 55.2272 1116.94C65.3636 1107.2 77.8237 1096.71 91.6114 1085.52ZM103.426 1073.36C98.6861 1077.07 92.0383 1077.14 87.2293 1073.52C86.4788 1072.96 85.8382 1072.48 85.3221 1072.09L81.1467 1068.75C88.134 1074.67 88.0383 1085.51 80.9333 1091.3C72.2908 1098.33 63.2753 1105.86 55.2538 1112.93C53.0975 1114.83 49.7293 1113.77 49.7293 1110.89C49.7293 1104.93 52.0179 1097.67 56.5951 1089.12C61.1723 1080.57 66.446 1071.52 72.4162 1061.98C77.5183 1053.61 87.2124 1047.78 96.3015 1051.48C97.6514 1052.03 98.9435 1052.65 100.178 1053.33C105.352 1056.11 109.631 1059.3 113.014 1062.87C113.909 1063.82 113.77 1065.33 112.737 1066.12C110.295 1068.01 107.115 1070.47 103.426 1073.36ZM219.738 1211.43C220.317 1206 213.818 1206.45 212.68 1211.8C211.816 1215.85 210.846 1219.88 209.757 1223.88C209.664 1224.22 209.757 1224.58 210.003 1224.84C210.328 1225.18 210.845 1225.24 211.239 1224.99C215.869 1221.97 219.091 1217.62 219.738 1211.43ZM212.493 1234.24C214.344 1233.66 216.504 1234.16 217.894 1235.52C219.925 1237.49 219.776 1240.68 217.686 1242.59C214.862 1245.18 212.236 1247.67 209.886 1250C188.824 1270.3 178.72 1287.23 178.212 1299.99C178.16 1301.28 176.475 1302.06 175.545 1301.17C171.343 1297.01 171.079 1290.27 174.953 1285.8C186.076 1272.98 197.502 1257.12 204.469 1240.06C205.533 1237.45 207.813 1235.55 210.532 1234.82C211.195 1234.64 211.85 1234.45 212.493 1234.24ZM161.828 1234.71C180.664 1238.34 194.953 1258.22 183.164 1273.34C182.947 1273.62 182.729 1273.89 182.511 1274.17C174.07 1284.88 158.348 1285.27 147.888 1276.51C124.865 1257.23 100.219 1238.5 100.211 1238.49C100.212 1238.5 100.211 1238.49 100.211 1238.49C96.1487 1235.41 96.0492 1229.34 100.024 1226.14C103.935 1222.99 107.931 1219.79 111.992 1216.54L111.994 1216.54L111.994 1216.54C112.048 1216.5 112.123 1216.49 112.183 1216.52C127.299 1224.54 146.565 1231.77 161.827 1234.71C161.827 1234.71 161.827 1234.71 161.828 1234.71ZM208.346 1226.33C208.282 1226.55 208.132 1226.72 207.929 1226.82C190.717 1234.91 160.954 1229.68 160.903 1229.67C160.901 1229.67 160.902 1229.67 160.9 1229.67C158.889 1229.31 156.808 1228.89 154.676 1228.39C135.574 1223.97 132.701 1200.05 147.782 1187.53C151.196 1184.69 154.614 1181.82 158.025 1178.93L153.85 1182.27C148.953 1185.95 132.839 1198.17 118.035 1209.43C118.035 1209.43 118.034 1209.43 118.035 1209.43C115.011 1211.73 110.929 1212.17 107.596 1210.34C102.661 1207.64 98.2741 1204.87 94.7567 1202.15C94.7559 1202.15 94.7563 1202.15 94.7555 1202.15C91.1736 1199.39 92.4776 1193.75 96.7637 1192.3C114.222 1186.42 132.5 1177.53 142.992 1169.32C142.994 1169.32 142.993 1169.32 142.995 1169.31C143.03 1169.29 147.815 1165.54 154.834 1159.03C159.53 1154.67 167.418 1156.87 169.288 1162.99C176.161 1187.03 193.246 1209.47 208.168 1225.56C208.362 1225.76 208.429 1226.06 208.346 1226.33ZM72.6647 1182C78.7293 1188.23 87.6947 1190.69 96.002 1188.11C114.125 1182.48 133.471 1173.45 144.411 1165.02C144.415 1165.01 144.414 1165.01 144.418 1165.01C144.524 1164.93 152.107 1159.07 162.123 1149.26C163.913 1147.51 164.642 1144.95 164.148 1142.49C164.084 1142.17 164.02 1141.85 163.956 1141.53C163.921 1141.35 163.855 1141.17 163.761 1141.02C160.577 1135.65 156.298 1130.78 150.925 1126.4C145.353 1122.03 139.084 1119.84 132.119 1119.84C126.944 1119.84 121.671 1121.43 116.297 1124.61C110.924 1127.79 105.452 1131.37 99.8793 1135.35C94.3071 1139.72 88.6354 1143.6 82.8642 1146.98C77.0929 1150.16 71.5207 1151.75 66.1475 1151.75C57.3911 1151.75 51.0229 1149.17 47.0427 1144C44.8264 1141.12 43.0729 1137.96 41.7822 1134.53C41.3063 1133.26 39.6221 1132.9 38.7377 1133.93C38.2904 1134.44 38.2088 1135.16 38.5148 1135.78C47.6226 1153.99 61.156 1170.17 72.6647 1182ZM54.0061 1162.81C45.0431 1150.85 25.2659 1148.53 20.8241 1162.8C19.5205 1166.98 19.0641 1170.82 19.4343 1174.29C22.3681 1202.37 78.2675 1192.53 78.2695 1192.53C78.2694 1192.53 78.2695 1192.53 78.2695 1192.53C79.0551 1192.39 79.3454 1191.42 78.776 1190.87C71.2533 1183.49 62.2915 1173.87 54.0061 1162.81ZM34.7291 1127.43C35.4081 1129.1 37.5735 1129.49 38.8556 1128.22C38.9615 1128.12 39.0677 1128.01 39.1741 1127.91C39.5747 1127.51 39.7552 1126.95 39.6683 1126.4C39.6088 1126.01 39.4265 1125.66 39.1499 1125.39C35.7583 1122.1 32.9165 1118.26 30.6246 1113.87C30.5153 1113.68 30.1603 1113.82 30.2223 1114.03C30.5893 1115.3 30.969 1116.56 31.3616 1117.81C32.3103 1121.06 33.4431 1124.27 34.7291 1127.43ZM177.459 889.397C181.851 889.397 184.574 884.68 182.169 881.008C178.13 874.84 173.745 869.031 169.328 863.693C169.267 863.619 169.148 863.653 169.134 863.747C168.338 867.724 168.438 871.8 169.433 875.976C170.157 879.305 171.093 882.582 172.239 885.807C173.018 887.997 175.132 889.397 177.459 889.397ZM159.88 862.256C160.364 857.743 159.858 852.886 156.697 849.626C156.546 849.471 156.397 849.317 156.247 849.164C153.971 846.829 150.831 845.554 147.569 845.554H84.6552C81.2721 845.554 78.486 843.864 76.2969 840.484C74.1078 836.905 73.0133 833.127 73.0133 829.151C73.0133 827.361 72.3167 824.876 70.9237 821.695C69.3316 818.513 67.5405 815.233 65.5505 811.852C62.0592 805.193 55.6209 800.229 48.0969 800.21C31.8612 800.171 11.6436 803.521 9.91198 820.151C8.44781 833.927 19.9358 853.49 45.6376 877.605C51.2998 883.068 57.6885 888.764 64.6293 894.686C68.9751 898.394 75.2055 898.773 80.1775 895.958C84.7547 893.572 88.5359 891.385 91.521 889.397C93.3032 888.125 94.5562 886.975 95.2798 885.947C95.9659 884.973 95.9987 883.729 95.9987 882.537V881.969C95.9987 880.762 95.7002 879.569 95.7002 878.362C95.7002 878.139 96.0009 878.068 96.1007 878.267L96.5957 879.256C97.1927 880.449 98.2873 881.841 99.8793 883.432C101.471 885.023 103.66 886.414 106.447 887.607C109.034 888.8 112.317 889.397 116.297 889.397H149.517C153.931 889.397 157.502 885.806 157.477 881.396C157.43 872.882 157.384 864.47 157.218 856.22L157.205 854.505C157.378 862.771 157.431 871.199 157.484 879.726L157.484 879.742V879.757C157.499 882.075 157.513 884.4 157.53 886.732C157.541 888.207 158.742 889.397 160.219 889.397C162.165 889.397 163.475 887.391 162.797 885.568C161.897 883.15 161.124 880.649 160.477 878.063C159.283 872.894 159.084 867.625 159.88 862.256ZM167.343 847.046C166.421 848.009 165.583 848.994 164.828 850.001C163.653 851.57 161.195 851.759 159.867 850.318C158.175 848.482 159.541 845.554 162.038 845.554H168.663C168.947 845.554 169.089 845.897 168.889 846.098C168.854 846.133 168.811 846.159 168.764 846.175C168.199 846.374 167.725 846.664 167.343 847.046ZM68.6366 801.884C68.6367 801.884 68.6365 801.884 68.6366 801.884C81.3561 804.134 96.8675 809.344 110.469 815.558C111.492 816.026 111.154 817.519 110.029 817.519C97.0932 817.32 87.3418 815.928 80.7746 813.344C74.0083 810.56 69.2321 807.478 66.446 804.098C65.6082 803.022 66.5012 801.543 67.8492 801.755C68.3602 801.835 68.6352 801.884 68.6366 801.884ZM89.1329 922.801C91.2647 921.343 94.0696 921.526 96.1028 923.118C103.487 928.899 108.311 932.575 108.326 932.588C108.327 932.588 108.327 932.588 108.327 932.588C109.332 933.354 110.343 934.124 111.355 934.895C117.93 939.902 117.533 949.974 111.223 955.31C105.651 959.883 99.9788 963.959 94.2076 967.538C92.6566 968.467 91.072 969.276 89.4539 969.965C88.5056 970.368 87.43 969.881 87.0433 968.926C83.4612 960.377 78.884 953.02 73.3118 946.856C70.4196 943.668 69.7349 938.587 72.915 935.685C73.8267 934.853 74.755 934.038 75.6999 933.239C80.6751 928.666 85.1527 925.187 89.1329 922.801ZM127.342 943.678C126.496 944.191 125.417 944.125 124.649 943.5C117.07 937.331 109.579 931.322 102.296 925.479C101.972 925.22 101.87 924.772 102.02 924.385C102.09 924.205 102.16 924.013 102.229 923.808C102.255 923.733 102.285 923.66 102.321 923.589C102.918 922.426 103.795 921.169 104.954 919.818C106.148 918.426 107.939 917.73 110.327 917.73H149.848C154.4 917.73 158.123 921.338 158.334 925.881C158.352 926.263 158.37 926.646 158.389 927.028C158.696 933.356 151.296 938.309 144.955 938.309C138.586 938.309 132.716 940.099 127.342 943.678ZM95.5478 919.2C95.1709 919.2 95.1014 919.705 95.3951 919.941L96.462 920.798C96.6045 920.912 96.7923 920.738 96.6876 920.588C96.3612 920.122 96.0565 919.699 95.7736 919.32C95.7258 919.256 95.6594 919.205 95.5796 919.201C95.5693 919.201 95.5587 919.2 95.5478 919.2ZM192.911 923.66C191.275 921.092 193.122 917.73 196.169 917.73C197.889 917.73 199.405 918.865 199.858 920.522C200.449 922.68 201.005 924.848 201.528 927.027C201.755 927.973 201.469 928.969 200.78 929.657C199.534 930.901 197.464 930.715 196.49 929.25C195.39 927.597 194.332 925.945 193.314 924.292L192.911 923.66ZM204.24 917.73C201.987 917.73 200.351 919.873 200.901 922.056C201.368 923.909 201.81 925.77 202.229 927.636C202.275 927.839 202.526 927.912 202.673 927.765C202.778 927.66 202.95 927.663 203.052 927.772L215.378 940.966C217.069 942.777 220.113 941.605 220.165 939.128L220.152 940.843C220.128 942.027 220.106 943.215 220.087 944.405C220.071 945.417 220.449 946.395 221.14 947.134L223.593 949.76C223.687 949.861 223.683 950.018 223.584 950.113L223.394 950.298C223.386 950.306 223.386 950.319 223.395 950.326C228.816 954.397 236.985 950.801 238.972 944.322C239.34 943.121 239.743 941.912 240.18 940.695C243.675 929.951 236.297 917.73 224.989 917.73H204.24ZM201.356 968.415C202.195 969.253 203.551 969.267 204.407 968.446C205.723 967.184 207.91 967.998 208.06 969.814C209.277 984.532 209.676 999.378 209.852 1014.05C209.955 1022.71 202.92 1029.77 194.246 1029.77C189.008 1029.77 184.066 1027.18 181.401 1022.67C176.429 1014.27 172.236 1005.31 169.536 996.047C167.678 990.099 166.112 984.055 164.791 977.94C163.867 973.662 167.605 969.756 171.522 971.713C174.905 973.304 177.691 975.193 179.88 977.38C181.871 979.567 183.363 981.555 184.358 983.345L185.552 986.029L183.463 978.871C182.07 973.9 179.88 968.333 176.895 962.169C173.711 956.005 169.532 950.538 164.358 945.766C161.592 943.206 159.365 939.944 159.092 936.187C159.002 934.95 158.917 933.712 158.838 932.474C158.32 924.426 164.81 917.73 172.881 917.73C177.463 917.73 181.774 919.927 184.412 923.67C186.52 926.661 188.591 929.652 190.627 932.643C192.349 935.052 192.076 938.353 189.98 940.447L188.136 942.289C184.566 945.856 184.566 951.64 188.136 955.207L201.356 968.415ZM209.992 1028.8C209.995 1029.34 210.43 1029.77 210.966 1029.77H213.929C215.965 1029.77 217.671 1028.22 217.846 1026.2C219.626 1005.58 219.757 984.689 219.885 964.368V964.366L219.885 964.35L219.885 964.327C219.893 963.031 219.901 961.738 219.91 960.447C219.926 957.917 216.88 956.615 215.062 958.377C214.194 959.22 213.957 960.516 214.435 961.627C216.416 966.226 217.933 970.98 218.986 975.889C219.782 980.661 219.583 985.433 218.389 990.205C218.056 991.534 216.757 990.876 216.955 989.519C217.574 985.268 217.256 980.923 216 976.485C214.84 972.511 213.335 968.675 211.485 964.977C210.923 963.853 209.435 963.623 208.527 964.494C208.11 964.894 207.897 965.462 207.947 966.038C209.762 986.995 209.879 1008.19 209.992 1028.8V1028.8ZM163.418 973.475C162.955 970.981 160.927 969.029 158.388 969.029C152.019 969.029 145.85 970.818 139.88 974.397C133.91 977.976 128.039 982.052 122.268 986.626C116.895 991 111.521 994.877 106.148 998.257C104.687 999.092 103.232 999.817 101.784 1000.43C98.7793 1001.71 96.8942 1004.73 96.8942 1008C96.8942 1011.43 96.2744 1015.18 95.0349 1019.24C94.1395 1022.17 94.8705 1025.29 97.0521 1027.44C98.4473 1028.82 100.4 1029.77 102.362 1029.77H148.812C153.511 1029.77 157.311 1025.93 157.217 1021.24L157.204 1019.52C157.209 1019.78 157.215 1020.04 157.22 1020.3C157.325 1025.55 161.589 1029.77 166.839 1029.77C174.405 1029.77 179.055 1021.36 175.779 1014.54C173.147 1009.07 170.927 1003.44 169.288 997.717C166.859 989.774 164.938 981.676 163.418 973.475ZM213.199 1059.53C212.97 1060.66 211.601 1061.1 210.796 1060.27C209.913 1059.36 210.518 1057.8 211.787 1057.8C212.697 1057.8 213.38 1058.64 213.199 1059.53ZM165.967 1145.05C166.038 1145.2 166.009 1145.37 165.897 1145.48C165.688 1145.7 165.325 1145.6 165.259 1145.3C165.255 1145.28 165.25 1145.26 165.246 1145.24C165.142 1144.78 165.727 1144.57 165.937 1144.99C165.947 1145.01 165.957 1145.03 165.967 1145.05ZM116.686 1060.24C116.22 1059.08 117.082 1057.8 118.34 1057.8C120.046 1057.8 120.787 1059.97 119.428 1061C118.962 1061.36 118.498 1061.71 118.034 1062.06C118.034 1062.06 118.034 1062.06 118.034 1062.06C117.791 1062.24 117.439 1062.15 117.328 1061.86C117.12 1061.33 116.906 1060.79 116.686 1060.24ZM213.967 1250.79C219.344 1245.17 228.11 1245.31 234.229 1250.12C234.23 1250.12 234.23 1250.12 234.231 1250.12C248.761 1261.53 278.245 1274.27 299.756 1278.43C299.755 1278.43 299.756 1278.43 299.756 1278.43C299.762 1278.43 303.77 1279.2 309.834 1279.89C314.457 1280.41 316.532 1286.28 312.85 1289.13C312.85 1289.13 312.85 1289.13 312.849 1289.13C298.208 1300.44 268.477 1312.82 246.83 1316.64C246.828 1316.64 246.829 1316.64 246.828 1316.64C246.776 1316.65 191.03 1326.47 188.103 1298.41C186.842 1286.56 195.194 1270.43 213.967 1250.79ZM335.822 1268.02C331.65 1272.36 325.996 1275.03 319.973 1275.05C308.51 1275.08 298.873 1273.39 298.833 1273.38C298.831 1273.38 298.832 1273.38 298.83 1273.38C277.184 1269.55 247.454 1257.15 232.812 1245.81C232.811 1245.81 232.811 1245.81 232.81 1245.81C228.687 1242.62 228.634 1236.49 232.512 1233C246.11 1220.8 262.68 1207.53 280.487 1193.27L280.488 1193.27L280.489 1193.27C281.145 1192.74 281.802 1192.22 282.46 1191.69C292.451 1183.69 306.817 1183.74 316.241 1192.4C318.174 1194.17 320.039 1195.93 321.831 1197.66C335.339 1210.33 344.921 1221.75 350.76 1231.73C354.96 1238.91 353.438 1247.74 348.158 1254.17C344.002 1259.23 339.803 1263.88 335.822 1268.02ZM346.983 1258.1C342.491 1263.53 347.18 1271.07 352.25 1266.17C355.139 1263.38 357.072 1259.77 357.557 1255.11C357.964 1251.28 353.23 1250.24 350.859 1253.27C349.575 1254.92 348.28 1256.53 346.983 1258.1ZM19.4343 1321.87C19.254 1320.18 19.2698 1318.39 19.4842 1316.53C20.8468 1304.66 40.207 1308.89 48.2498 1317.73C58.2004 1328.65 47.3924 1343.55 33.5811 1338.27C26.0346 1335.39 20.3202 1330.36 19.4343 1321.87ZM139.229 1366.61C139.227 1366.61 139.228 1366.61 139.227 1366.61C116.661 1362.63 119.464 1332.95 138.468 1320.15C140.097 1319.06 141.612 1317.96 142.991 1316.88C142.994 1316.88 142.993 1316.88 142.995 1316.88C143.022 1316.86 144.148 1315.97 146.092 1314.33C157.388 1304.81 174.599 1304.12 183.556 1315.87C193.528 1328.96 197.885 1340.01 196.958 1348.71C194.08 1376.26 139.278 1366.62 139.229 1366.61ZM144.411 1312.57C144.415 1312.57 144.414 1312.57 144.418 1312.57C144.524 1312.49 151.99 1306.71 161.889 1297.02C163.194 1295.74 163.171 1293.64 161.838 1292.39C147.181 1278.29 127.572 1262.61 106.14 1245.46L106.138 1245.46C97.3451 1238.43 84.7883 1238.42 76.1902 1245.69C68.4861 1252.21 61.4227 1258.45 55.2273 1264.42C50.1202 1269.2 45.5732 1273.8 41.5766 1278.22C34.1204 1286.45 34.1032 1298.75 41.2605 1307.24C57.7242 1326.79 74.3109 1339.58 74.3249 1339.59C74.3254 1339.59 74.3251 1339.59 74.3256 1339.59C75.1286 1340.21 76.1529 1340.47 77.1559 1340.32C77.8694 1340.21 78.2612 1340.14 78.2692 1340.14C78.2688 1340.14 78.2697 1340.14 78.2692 1340.14C99.9546 1336.31 129.74 1323.91 144.411 1312.57ZM48.7972 972.302C48.0846 971.388 46.8363 971.003 45.8487 971.611C43.2616 973.002 41.371 974.494 40.177 976.084C38.9004 977.785 39.7996 979.888 41.9187 980.077C43.4972 980.218 45.1057 980.18 46.7442 979.962C46.8988 979.941 47.052 979.92 47.2039 979.899C49.5779 979.569 50.8427 977.032 50.2464 974.713C50.0923 974.113 49.8126 973.559 49.4198 973.08C49.2129 972.828 49.0053 972.569 48.7972 972.302ZM60.5265 969.382C59.8048 969.321 59.5372 970.182 60.1773 970.52C61.4444 971.116 62.9209 971.6 64.6068 971.973C66.6603 972.427 67.1771 970.526 65.1248 970.067C63.6997 969.748 62.1669 969.52 60.5265 969.382Z" fill="#EAFE01"/>
<path fill-rule="evenodd" clip-rule="evenodd" d="M67.043 601.905C68.6351 604.291 69.4311 607.77 69.4311 612.343L69.4311 716.53C69.4311 716.97 69.0741 717.327 68.6338 717.327C68.5686 717.327 68.5037 717.318 68.4403 717.303C67.6606 717.12 66.6973 717.028 65.5505 717.028C64.1574 717.028 62.7643 717.327 61.3713 717.923C59.81 718.508 58.3444 719.475 56.9745 720.825C56.9205 720.878 56.8632 720.928 56.803 720.974C55.4557 722.005 54.18 723.466 52.9759 725.355C52.8341 725.578 53.0918 725.824 53.3115 725.677C53.9085 725.28 54.7045 724.882 55.6996 724.484C56.6946 724.087 57.8887 723.888 59.2817 723.888C63.2619 723.888 68.7346 727.169 75.6999 733.73C82.4661 740.093 89.2324 747.45 95.9987 755.801C102.765 763.953 108.536 771.309 113.312 777.871L117.907 784.257C118.994 785.769 121.267 785.705 122.268 784.134C123.661 781.947 125.949 779.461 129.133 776.678C132.119 773.695 136.099 771.111 141.074 768.923C145.85 766.736 151.721 765.643 158.686 765.643C169.035 765.643 180.478 768.923 193.015 775.485C205.552 782.046 214.607 790.397 220.18 800.538L202.401 764.419C202.32 764.255 202.153 764.151 201.97 764.151C220.677 763.356 236.001 759.877 247.941 753.713C259.448 747.773 268.367 740.726 274.699 732.57C275.076 732.085 275.794 732.032 276.229 732.467C276.276 732.514 276.328 732.556 276.383 732.593C276.952 732.981 277.521 733.459 278.091 734.028C282.668 738.204 286.847 742.578 290.628 747.151C294.609 751.923 297.494 757.093 299.285 762.66C300.877 768.227 300.778 773.496 298.987 778.467C297.992 780.654 296.3 782.643 293.912 784.432C291.502 785.837 291.675 788.869 294.398 788.263C294.732 788.189 295.067 788.105 295.405 788.011C299.186 787.017 302.171 784.83 304.36 781.45C307.942 774.491 308.539 767.532 306.151 760.572C303.962 753.812 300.678 747.947 296.3 742.976C291.922 737.806 287.245 733.134 282.27 728.958C281.553 728.421 280.916 727.883 280.361 727.346C280.24 727.229 280.124 727.144 279.979 727.06C279.35 726.692 279.265 725.838 279.645 725.217C283.081 719.604 285.548 713.992 287.046 708.379C288.638 702.414 289.434 697.046 289.434 692.274C289.434 685.315 287.643 677.958 284.061 670.203C280.678 662.25 276.897 655.092 272.718 648.73C268.573 642.222 265.211 637.279 262.632 633.901C264.603 636.498 266.671 640.944 268.837 647.238C271.225 653.402 272.419 661.455 272.419 671.396C272.419 677.361 271.026 683.724 268.24 690.484C265.777 696.731 261.961 702.707 256.793 708.413C256.327 708.927 255.575 709.061 254.955 708.751C254.857 708.702 254.764 708.643 254.678 708.574L251.822 706.291C246.648 702.712 241.772 698.736 237.195 694.361C235.006 692.174 233.414 689.788 232.419 687.204C232.021 685.812 231.921 684.32 232.12 682.73C232.12 682.111 232.179 681.492 232.297 680.873C232.453 680.058 231.69 679.483 231.293 680.212C231.248 680.296 231.189 680.378 231.124 680.448C230.582 681.021 230.218 681.682 230.03 682.432C229.632 684.221 229.632 686.011 230.03 687.8C231.224 691.18 232.916 694.063 235.105 696.449C239.251 701.183 243.788 705.525 248.717 709.477C248.794 709.538 248.891 709.572 248.99 709.572C249.084 709.572 249.176 709.602 249.251 709.66C249.887 710.151 250.459 710.706 250.965 711.327C251.138 711.54 251.387 711.708 251.638 711.821C252.313 712.124 252.305 712.981 251.778 713.5C238.522 726.544 218.64 734.204 192.132 736.48C190.42 736.627 188.836 735.447 188.836 733.73C188.836 729.952 190.129 726.87 192.716 724.484C195.304 722.098 198.289 719.911 201.672 717.923C205.055 716.134 208.04 714.046 210.627 711.66C213.214 709.075 214.508 705.794 214.508 701.818C214.508 697.642 212.816 693.666 209.433 689.888C206.05 685.911 202.269 682.332 198.09 679.151C193.712 675.97 189.831 673.484 186.448 671.695L184.307 670.436C183.688 670.073 183.022 670.83 183.463 671.396C184.856 673.186 186.348 675.671 187.94 678.853C189.333 682.034 190.03 685.712 190.03 689.888C190.03 692.671 188.935 695.057 186.746 697.046C184.557 698.835 181.871 700.625 178.686 702.414C175.104 704.601 171.522 707.286 167.94 710.467C165.751 712.455 164.955 715.04 165.552 718.221C166.149 721.403 167.741 723.888 170.328 725.677C175.941 729.182 172.525 736.197 165.966 735.315C153.494 733.639 142.41 730.626 132.716 726.274C118.984 720.11 108.437 713.946 101.073 707.783L92.2792 700.184C90.8499 698.948 90.0284 697.154 90.0284 695.266V688.539C90.0284 684.31 95.8458 682.278 98.6853 685.414C102.466 689.391 106.944 692.97 112.118 696.151C117.293 699.332 122.865 700.923 128.835 700.923C132.218 700.923 134.905 701.321 136.895 702.116C138.885 702.712 140.477 703.408 141.671 704.204C142.666 704.999 143.462 705.794 144.059 706.59C144.197 706.797 144.52 706.669 144.479 706.424L143.761 702.116C142.965 698.537 142.268 694.361 141.671 689.59C140.875 684.818 140.477 680.443 140.477 676.467C140.477 672.888 139.581 670.8 137.79 670.203C135.999 669.408 133.512 669.11 130.328 669.309C125.551 669.905 119.681 669.11 112.715 666.923C107.497 665.284 101.944 661.358 96.0556 655.144C91.9349 650.795 90.0284 644.876 90.0284 638.888V637.645C90.0284 631.893 88.0229 626.321 84.3567 621.887C80.3765 617.314 76.3964 610.355 72.4162 601.01C71.6202 599.022 70.4261 597.332 68.8341 595.94C67.242 594.548 65.65 593.454 64.0579 592.659C62.2668 591.864 60.7743 591.267 59.5802 590.87C58.533 590.571 57.4734 591.383 57.8565 592.401C58.0532 592.925 58.3293 593.408 58.6847 593.852C59.4807 594.647 60.4758 595.443 61.6698 596.238C63.4609 597.63 65.2519 599.519 67.043 601.905ZM90.0284 730.655C90.0284 724.891 97.5923 721.942 101.904 725.771C105.607 729.059 109.716 732.384 114.23 735.748C117.88 738.468 117.577 744.092 114.208 747.151C112.019 748.941 110.327 750.631 109.133 752.221C108.202 753.307 106.513 753.281 105.616 752.168L91.3977 734.534C90.5116 733.435 90.0284 732.066 90.0284 730.655Z" fill="#EAFE01"/>
<path fill-rule="evenodd" clip-rule="evenodd" d="M1.85244 369.779C2.07015 366.808 1.29606 363.869 0.586195 360.976C-0.807451 355.156 0.266667 348.199 3.99313 340.212C5.20699 337.611 6.20958 334.906 6.77415 332.092C8.15338 325.216 9.83264 318.42 11.8791 311.736C13.2412 306.986 15.0114 302.3 17.09 297.715C21.8439 287.229 20.8687 275.048 15.3492 264.944C10.1461 255.419 8.48681 247.231 10.091 240.545C16.7935 213.281 77.3412 224.96 77.3443 224.961C77.3442 224.961 77.3444 224.961 77.3443 224.961C77.4385 224.979 77.5351 224.958 77.6126 224.901C83.6723 220.49 91.8365 215.942 100.755 211.839C106.3 209.289 111.454 205.143 111.777 199.052C111.805 198.508 111.82 197.952 111.82 197.384C111.82 193.209 111.123 190.027 109.73 187.84C109.186 187.024 108.514 186.139 107.713 185.184C106.004 183.143 103.821 181.576 101.565 180.161C96.4335 176.941 91.0389 172.751 85.3816 167.589C83.8948 166.233 82.2596 165.05 80.6243 163.876C75.5712 160.25 71.5964 155.23 68.6998 148.815C68.1697 147.641 67.7687 146.411 67.5253 145.146C65.935 136.883 67.2668 128.963 71.5207 121.387C76.0978 113.235 81.7696 107.469 88.5358 104.088C92.6672 102.231 94.7691 95.7694 91.3243 92.8296L58.6652 64.9579C58.5148 64.8295 58.5058 64.6002 58.6457 64.4604C58.6715 64.4346 58.6926 64.4047 58.7103 64.3728C58.8297 64.157 59.0102 63.9717 59.2518 63.8169C59.6388 63.569 60.0665 63.3846 60.4828 63.1896C60.9816 62.9559 61.5763 62.77 62.2668 62.632C63.2618 62.4332 64.4559 62.3337 65.8489 62.3337C68.8341 62.3337 71.7197 60.7431 74.5058 57.5618C77.2919 54.3805 80.277 50.4039 83.4611 45.6319C87.4413 39.2693 92.516 32.6084 98.6852 25.6493C104.854 18.4914 112.815 12.427 122.566 7.45619C132.318 2.4854 144.855 6.69818e-07 160.179 0C182.07 -9.56878e-07 200.279 2.68425 214.806 8.05265C228.954 13.2809 239.705 19.5462 247.058 26.8487C247.45 27.2381 247.893 27.6694 248.433 27.791C249.115 27.9446 249.737 27.5501 250.273 27.102C250.658 26.7802 251.075 26.3954 251.523 25.9475C252.717 24.5558 254.21 23.4622 256.001 22.6668C257.452 21.9417 259.152 22.1256 261.1 23.2186C261.356 23.3623 261.338 23.7285 261.076 23.8598C260.678 24.0586 260.081 24.4563 259.285 25.0528C258.688 25.4504 258.091 26.1464 257.493 27.1405C256.896 28.1347 256.399 29.3277 256.001 30.7195C255.404 32.1113 255.105 33.8013 255.105 35.7897C255.105 39.5675 256.1 42.8483 258.091 45.6319C260.081 48.2167 262.469 50.8015 265.255 53.3863C269.036 56.7665 272.419 60.7431 275.404 65.3162C278.588 69.8893 280.18 76.0531 280.18 83.8076C280.18 93.1261 279.921 103.382 286.329 110.153C287.49 111.38 288.625 112.639 289.733 113.931C292.917 117.708 295.703 121.685 298.091 125.86C299.484 127.849 300.678 130.036 301.673 132.422C302.668 134.808 303.365 137.293 303.763 139.878C304.957 145.247 304.36 150.317 301.972 155.089C300.26 158.976 296.877 156.052 297.288 151.825C297.616 148.439 297.188 145.053 296.002 141.668C295.405 139.679 294.608 137.79 293.613 136.001C293.016 135.007 292.419 133.913 291.822 132.72L290.628 130.334C288.439 126.556 285.852 122.977 282.867 119.597C281.109 117.507 279.264 115.504 277.33 113.589C272.933 109.236 265.838 110.294 261.971 115.124C255.006 123.872 248.538 133.118 242.568 142.861C236.399 152.405 233.314 161.948 233.314 171.492C233.314 172.884 233.613 174.276 234.21 175.668C234.807 177.06 235.503 178.352 236.299 179.545C236.896 180.539 237.493 181.335 238.09 181.931L238.775 182.615C238.891 182.731 238.891 182.92 238.775 183.037C238.719 183.093 238.643 183.124 238.564 183.124H237.493C236.702 183.124 235.879 183.052 235.235 182.592C235.228 182.587 235.22 182.581 235.213 182.576C234.925 182.367 234.699 182.088 234.504 181.791C233.731 180.614 232.14 177.877 229.732 173.58C226.747 168.609 223.861 162.943 221.075 156.58C218.09 150.019 216.597 144.451 216.597 139.878C216.597 137.172 217.893 133.422 220.485 128.628C222.561 124.785 219.964 119.896 215.593 119.896C212.621 119.896 210.194 122.272 210.153 125.242C210.064 131.615 210.028 138.075 209.992 144.594V144.598C209.977 147.313 209.962 150.039 209.943 152.773C209.915 156.916 211.4 160.917 214 164.144C214.324 164.547 214.65 164.955 214.978 165.368C215.062 165.474 215.135 165.588 215.196 165.709C215.332 165.982 215.403 166.283 215.403 166.587V167.79C215.403 168.06 215.296 168.319 215.105 168.51C214.914 168.701 214.654 168.808 214.384 168.808H214.236C214.022 168.808 213.807 168.763 213.636 168.635C213.291 168.378 212.885 167.939 212.418 167.317C211.447 166.298 209.791 166.993 209.767 168.399C209.652 175.005 209.473 181.638 209.176 188.272C208.904 194.335 213.705 199.472 219.78 199.472H250.368C253.181 199.472 255.803 198.178 257.792 196.191C262.17 191.419 265.553 186.746 267.941 182.173C268.936 180.185 269.434 178.396 269.434 176.805C269.434 175.03 269.238 173.646 268.847 172.654C268.84 172.637 268.836 172.621 268.833 172.603C268.786 172.323 269.175 172.203 269.295 172.46L270.628 175.314C272.22 178.097 273.912 181.577 275.703 185.752C277.693 189.928 279.285 194.203 280.479 198.577C281.378 201.72 281.882 204.469 281.991 206.823C282.059 208.282 281.834 209.741 281.342 211.115C279.766 215.515 276.493 220.283 271.524 225.419C268.14 229.396 264.857 233.77 261.673 238.542C257.31 244.808 261.965 252.486 269.151 255.076C285.36 260.918 301.726 269.11 311.428 276.714C311.43 276.716 311.43 276.715 311.432 276.717C311.483 276.757 313.828 278.601 317.619 281.922C322.851 286.505 329.538 289.012 336.47 289.613C350.532 290.831 363.933 295.281 366.883 307.304C367.603 310.311 367.664 313.622 367.041 317.222C365.383 326.801 364.972 336.909 369.279 345.625C372.176 351.489 374.61 357.538 376.373 363.691C387.747 400.879 387.971 441.488 388.184 480.012C388.231 488.526 388.277 496.937 388.443 505.188L388.456 506.903C388.283 498.634 388.23 490.203 388.177 481.672V481.663C387.935 443.031 387.68 402.353 376.125 365.361C371.551 349.672 350 349.408 338.418 360.945C337.557 361.803 336.676 362.667 335.775 363.537C332.899 366.392 329.611 369.481 326.051 372.708C313.653 383.946 313.68 403.588 326.434 414.422L322.266 411.082C319.771 409.208 314.358 405.111 307.691 400.054C303.49 396.868 297.237 397.327 293.144 400.65C286.298 406.209 288.389 416.894 296.298 420.798C304.431 424.813 311.689 429.128 316.971 433.268C316.974 433.27 316.973 433.269 316.975 433.271C317.039 433.321 324.507 439.188 334.473 448.988C338.76 453.203 344.306 455.803 350.051 457.582C358.359 460.153 364.925 464.789 366.883 472.758C367.032 473.378 367.153 474.01 367.245 474.656C368.355 482.422 368.637 490.591 372.385 497.484C376.36 504.793 379.679 512.434 381.916 520.245C393.29 557.433 393.515 598.042 393.727 636.566C393.774 645.079 393.821 653.491 393.987 661.742L394 663.457C393.826 655.187 393.774 646.757 393.72 638.226V638.217C393.479 599.585 393.224 558.906 381.669 521.914C377.404 507.289 355.381 508.119 345.091 519.36C342.266 522.447 339.162 525.625 335.775 528.89C334.405 530.248 332.941 531.659 331.399 533.112C320.391 543.487 320.449 561.182 331.977 570.976L327.81 567.636C327.241 567.208 326.52 566.665 325.667 566.022C315.712 558.509 301.892 558.86 292.197 566.704C274.396 581.105 259.169 592.69 259.143 592.71C259.142 592.711 259.143 592.71 259.142 592.711C244.365 603.949 228.283 616.15 223.395 619.821C221.277 621.518 220.058 624.095 220.105 626.806C220.119 627.64 220.135 628.472 220.152 629.303L220.165 631.018C220.113 628.54 220.071 626.048 220.038 623.543C220.032 623.128 219.551 622.901 219.227 623.161C219.732 622.732 220.019 622.102 220.011 621.44C219.95 616.28 219.918 611.067 219.885 605.817L219.885 605.802L219.885 605.796L219.885 605.78V605.778C219.793 591.153 219.699 576.236 218.991 561.336C218.778 556.869 217.474 552.462 214.626 549.013C209.216 542.462 202.012 536.831 193.015 532.123C192.465 531.835 191.788 531.99 191.417 532.488C182.225 544.842 173.915 559.079 169.536 574.099C157.98 611.091 157.726 651.77 157.484 690.402V690.404L157.484 690.42C157.431 698.948 157.378 707.375 157.205 715.642L157.218 713.927C157.384 705.676 157.43 697.264 157.477 688.751C157.69 650.226 157.914 609.618 169.288 572.43C170.682 567.562 172.497 562.761 174.628 558.064C181.452 543.028 177.112 522.951 160.6 522.318C159.958 522.293 159.32 522.281 158.686 522.281C158.028 522.281 157.499 522.816 157.495 523.474C157.492 524.053 157.488 524.633 157.484 525.212L157.484 525.34V525.342L157.484 525.358C157.459 529.318 157.434 533.256 157.398 537.166C157.393 537.693 157.623 538.196 158.025 538.537C157.767 538.33 157.385 538.512 157.381 538.842C157.34 542.801 157.286 546.731 157.204 550.625L157.217 548.907C157.26 546.792 157.294 544.666 157.323 542.53C157.362 539.681 156.076 536.977 153.85 535.197C151.584 533.498 146.917 529.974 141.089 525.563C141.085 525.56 141.079 525.559 141.074 525.561C136.099 527.748 132.119 530.333 129.133 533.316C125.949 536.099 123.661 538.585 122.268 540.772C121.267 542.343 118.994 542.407 117.907 540.895L113.312 534.509C108.536 527.947 102.765 520.591 95.9987 512.438C92.973 508.704 89.9473 505.169 86.9216 501.832C85.4207 500.177 82.8917 500.001 81.1467 501.396C82.7839 500.008 82.9309 497.53 81.4309 495.995C79.5206 494.04 77.6102 492.165 75.6999 490.368C68.7346 483.807 63.2619 480.526 59.2817 480.526C57.8886 480.526 56.6946 480.725 55.6996 481.122C54.7045 481.52 53.9085 481.918 53.3115 482.315C53.0918 482.462 52.8341 482.216 52.9759 481.993C54.18 480.104 55.4557 478.643 56.803 477.612C56.8632 477.566 56.9205 477.516 56.9745 477.463C58.3444 476.113 59.81 475.146 61.3713 474.561C62.7643 473.965 64.1574 473.666 65.5504 473.666C66.6973 473.666 67.6606 473.758 68.4403 473.941C68.5037 473.956 68.5685 473.965 68.6337 473.965C69.0741 473.965 69.4311 473.608 69.4311 473.168V470.828C69.4311 469.9 69.0193 469.02 68.3081 468.423C58.1771 459.919 48.4368 451.366 41.2576 444.266C38.7984 441.9 34.6988 442.641 33.5144 445.841C32.7199 447.987 31.9992 450.153 31.3616 452.335C19.7845 489.327 19.5295 530.005 19.2873 568.638V568.64L19.2872 568.654C19.2338 577.182 19.1811 585.611 19.0071 593.878L19.0202 592.162C19.1866 583.912 19.2332 575.5 19.2803 566.987C19.4934 528.462 19.718 487.854 31.1134 450.665C33.2727 443.142 31.8422 434.932 26.827 428.919C12.8658 412.182 7.62619 398.389 10.091 388.134C10.6328 385.934 11.5265 383.988 12.7117 382.269C14.5395 379.618 13.4141 374.893 10.5984 373.329C7.41661 371.561 1.72522 373.789 1.50461 377.42C0.484247 394.212 0.378545 411.087 0.275234 427.583V427.585L0.275146 427.599C0.222757 435.974 0.17098 444.25 0.000260002 452.368L0.0131401 450.684C0.176423 442.582 0.222151 434.322 0.268345 425.962C0.370311 407.512 0.474963 388.575 1.85244 369.779ZM67.043 358.543C68.6351 360.929 69.4311 364.408 69.4311 368.981V371.333C69.4311 371.353 69.417 371.37 69.3976 371.374C69.3934 371.375 69.3893 371.375 69.3852 371.374C61.4053 370.377 48.6584 369.348 36.971 370.86C33.3859 371.324 29.7075 371.513 26.2606 370.424C17.6452 367.703 10.8814 362.555 9.91196 353.244C8.75769 342.384 15.653 327.927 31.2159 310.479C37.4549 303.484 48.2512 303.565 55.2768 309.771C56.8234 311.137 58.4069 312.52 60.0175 313.913C63.4542 316.885 63.9523 321.755 63.1624 326.227C62.1673 333.584 62.6648 340.941 64.6549 348.297C64.6921 348.446 64.7294 348.594 64.7668 348.741C64.8697 349.144 64.4307 349.483 64.0579 349.297C62.2668 348.502 60.7742 347.905 59.5802 347.508C58.533 347.209 57.4734 348.021 57.8564 349.039C58.0532 349.563 58.3292 350.046 58.6847 350.49C59.4807 351.285 60.4757 352.081 61.6698 352.876C64.3941 354.993 63.927 359.047 61.2954 361.279C61.1876 361.37 61.0797 361.462 60.9719 361.553L65.0687 358.273C65.6903 357.807 66.5766 357.921 67.043 358.543ZM45.6376 295.79C45.5007 295.919 45.4948 296.134 45.6249 296.27C48.5711 299.339 51.7709 302.494 55.2272 305.731C61.3464 311.624 71.4556 310.164 76.9718 303.705C79.1736 301.126 81.6352 298.394 84.3567 295.508C92.8283 286.392 103.092 278.855 115.149 272.895C122.762 269.132 124.068 257.701 116.894 253.156C114.021 251.311 111.218 249.477 108.486 247.655C106.584 246.387 104.078 246.486 102.296 247.916C80.4942 265.404 60.5472 281.405 45.6376 295.79ZM93.6105 237.349C98.5265 240.896 98.7485 248.197 93.9814 251.941C82.8081 260.718 66.857 273.475 52.6279 285.702C47.4243 290.173 39.1369 289.417 34.8649 284.05C31.602 279.951 31.9643 274.669 35.1484 270.508C53.337 246.74 74.31 230.566 74.3248 230.555C74.3243 230.555 74.3253 230.554 74.3248 230.555C75.1279 229.935 76.153 229.677 77.1561 229.83C77.8669 229.939 78.2583 230.008 78.2691 230.01C78.2696 230.01 78.2696 230.01 78.2701 230.01C78.84 230.111 79.4154 230.217 79.9961 230.329C84.3613 231.173 88.3025 233.406 91.8629 236.067C92.4196 236.483 93.0022 236.91 93.6105 237.349ZM133.739 222.468C133.767 222.43 133.801 222.395 133.838 222.365C134.1 222.148 134.49 222.187 134.703 222.452C137.113 225.442 139.436 228.519 141.671 231.683C143.86 234.864 145.651 237.648 147.044 240.033C147.517 240.9 149.625 240.7 150.16 239.87C150.603 239.185 151.156 238.444 151.82 237.648C153.611 235.063 156.497 232.776 160.477 230.788C164.457 228.601 169.731 227.507 176.298 227.507C187.112 227.507 194.808 237.167 189.081 246.331C186.194 250.952 182.513 255.872 178.022 261.075C176.57 262.756 174.295 263.447 172.119 262.999C169.455 262.565 166.829 262.247 164.241 262.045C157.085 261.487 150.104 259.103 144.567 254.539C143.57 253.717 143.014 253.281 142.995 253.266C142.994 253.265 142.994 253.265 142.992 253.264C140.943 251.657 138.596 250.025 136.017 248.394C128.109 243.392 127.159 230.84 132.948 223.492C133.214 223.154 133.478 222.813 133.739 222.468ZM34.2478 289.724C37.4972 293.149 37.7306 298.903 34.3263 302.174C33.4159 303.049 32.5374 303.906 31.6943 304.743C27.2876 308.998 23.3606 313.106 19.9008 317.059C17.1473 320.204 10.8752 317.365 12.1226 313.376C14.3443 305.765 17.5948 298.358 21.4624 291.305C24.111 286.475 30.4555 285.727 34.2478 289.724ZM304.386 548.177C306.236 549.673 308.912 549.644 310.694 548.068C314.651 544.569 318.377 541.154 321.832 537.826C347.534 513.755 359.022 494.227 357.558 480.476C357.555 480.451 357.552 480.426 357.55 480.401C357.238 477.513 355.691 474.956 353.849 472.709C352.995 471.666 352.139 470.641 351.283 469.635C349.632 467.692 347.705 465.967 345.383 464.912C328.145 457.079 298.871 462.235 298.833 462.241C298.832 462.242 298.833 462.241 298.831 462.242C295.14 462.893 291.214 463.794 287.167 464.896C287.108 464.912 287.062 464.958 287.046 465.017C285.548 470.63 283.081 476.242 279.645 481.855C279.265 482.476 279.35 483.33 279.979 483.698C280.124 483.782 280.24 483.867 280.361 483.984C280.916 484.521 281.553 485.059 282.27 485.596C287.245 489.772 291.922 494.444 296.3 499.614C300.678 504.585 303.962 510.45 306.151 517.21C308.539 524.17 307.942 531.129 304.36 538.088C304.272 538.223 304.183 538.357 304.093 538.488C302.09 541.408 301.632 545.95 304.386 548.177ZM295.405 544.649C296.335 544.405 297.341 544.539 298.107 545.121C298.701 545.573 299.295 546.024 299.887 546.474C303.371 549.121 303.538 554.299 300.193 557.12C289.526 566.115 277.654 575.621 265.174 585.614L265.171 585.617C255.115 593.669 244.664 602.037 234.13 610.709C228.485 615.357 219.932 611.435 219.892 604.127C219.807 588.815 219.72 573.174 218.931 557.549C218.895 556.82 219.828 556.535 220.18 557.176C219.24 555.267 218.697 553.189 218.562 551.067C218.475 549.71 218.383 548.354 218.283 546.998C217.187 532.003 227.919 518.799 241.862 513.139C243.977 512.28 246.004 511.351 247.941 510.351C250.121 509.225 252.775 509.447 254.675 510.998C274.279 526.996 292.061 540.524 292.061 540.525C292.061 540.525 292.061 540.525 292.061 540.525C292.623 540.952 292.554 541.813 291.914 542.111C291.549 542.281 291.174 542.446 290.789 542.605C289.177 543.271 289.203 545.357 290.947 545.324C292.397 545.296 293.883 545.071 295.405 544.649ZM289.399 536.126C292.513 538.621 297.335 538.735 298.987 535.105C300.778 530.134 300.877 524.865 299.285 519.298C297.494 513.731 294.609 508.561 290.628 503.789C286.847 499.216 282.668 494.842 278.091 490.666C277.521 490.097 276.952 489.619 276.382 489.231C276.328 489.193 276.276 489.151 276.229 489.105C275.794 488.67 275.076 488.723 274.699 489.208C272.341 492.245 269.624 495.128 266.549 497.858C260.732 503.02 259.925 512.377 265.961 517.282C272.397 522.512 279.12 527.896 286.03 533.429L286.038 533.435C287.153 534.328 288.274 535.225 289.399 536.126ZM223.179 479.655C226.411 482.885 231.42 483.935 235.476 481.829C241.717 478.588 247.151 474.691 251.777 470.138C252.304 469.619 252.313 468.762 251.638 468.459C251.387 468.346 251.138 468.178 250.965 467.965C250.459 467.344 249.887 466.789 249.251 466.298C249.176 466.24 249.084 466.21 248.99 466.21C248.891 466.21 248.794 466.176 248.717 466.114C243.788 462.163 239.251 457.821 235.105 453.087C233.027 450.822 229.52 450 227.068 451.856C225.527 453.023 224.278 453.967 223.394 454.632C221.183 456.407 219.903 459.093 219.92 461.927C219.94 465.264 219.964 468.584 219.999 471.882C220.03 474.833 221.09 477.568 223.179 479.655ZM218.189 479.392C219.414 480.565 220.129 482.172 220.165 483.867L220.152 482.149C220.145 481.808 220.551 481.628 220.8 481.86C221.613 482.62 222.446 483.39 223.297 484.17C224.305 485.093 223.98 486.754 222.683 487.185C219.292 488.312 215.725 489.296 211.982 490.136C210.269 490.521 208.572 489.483 208.058 487.806C207.02 484.189 205.75 480.608 204.289 477.08C203.534 475.256 204.275 473.129 205.91 472.023C207.562 470.905 209.765 471.068 211.165 472.489C212.533 473.877 213.954 475.283 215.429 476.705C216.312 477.579 217.233 478.476 218.189 479.392ZM213.546 469.387C215.774 471.942 219.968 470.389 219.942 467C219.92 464.212 219.902 461.411 219.885 458.599L219.885 458.584V458.581L219.883 458.289C219.881 457.952 219.49 457.766 219.227 457.977L219.52 457.728C219.747 457.535 219.876 457.253 219.874 456.956C219.794 444.257 219.696 431.347 219.181 418.427C218.983 413.47 214.467 409.7 209.741 411.223C207.609 411.91 205.593 412.748 203.754 413.763C203.638 413.827 203.583 413.963 203.621 414.09L203.658 414.218C203.749 414.527 203.318 414.707 203.163 414.424C203.089 414.29 202.919 414.244 202.788 414.323C197.815 417.351 194.323 421.811 193.647 428.291C193.355 431.036 194.952 433.538 197.198 435.146C197.493 435.357 197.79 435.571 198.09 435.789C202.269 438.97 206.05 442.549 209.433 446.526C212.816 450.304 214.508 454.28 214.508 458.456C214.508 460.718 214.089 462.756 213.251 464.568C212.504 466.185 212.374 468.045 213.546 469.387ZM183.137 426.387C183.405 426.544 183.741 426.343 183.737 426.033C183.712 424.115 183.908 422.294 184.321 420.573C184.4 420.251 184.004 419.999 183.755 420.218C181.108 422.551 178.354 424.931 175.543 427.326C174.11 428.547 173.958 430.704 175.19 432.126C179.205 436.76 183.255 441.787 187.117 447.122C188.079 448.451 190.03 448.167 190.03 446.526C190.03 446.012 189.888 445.509 189.641 445.058C186.49 439.319 184.626 434.064 183.986 429.33C183.923 428.86 183.754 428.409 183.463 428.034L182.63 426.964C182.365 426.624 182.765 426.168 183.137 426.387ZM200.837 404.799C200.954 405.15 201.328 405.341 201.683 405.236C205.389 404.137 209.425 403.437 213.541 403.025C216.158 402.763 218.169 400.51 217.951 397.892C217.601 393.666 212.136 392.116 209.324 395.293C206.795 398.149 204.022 401.087 201.001 404.102C200.819 404.284 200.755 404.556 200.837 404.799ZM243.279 408.928C229.5 407.697 219.44 419.79 219.674 433.61C219.806 441.436 219.849 449.223 219.892 456.927C219.893 457.118 220.117 457.221 220.262 457.097C223.064 454.719 225.87 452.361 228.674 450.026C230.286 448.683 230.729 446.415 230.03 444.438C229.632 442.648 229.632 440.859 230.03 439.069C230.218 438.32 230.582 437.658 231.124 437.086C231.189 437.016 231.248 436.934 231.293 436.85C231.69 436.12 232.453 436.696 232.297 437.511C232.179 438.13 232.12 438.749 232.12 439.368C231.921 440.958 232.021 442.45 232.419 443.842C232.875 445.028 234.36 445.313 235.342 444.505C245.466 436.172 255.502 428.121 265.173 420.364L265.352 420.22C266.448 419.341 267.538 418.466 268.624 417.595C269.596 416.815 270.564 416.038 271.527 415.264C271.583 415.219 271.611 415.148 271.601 415.077C271.59 415 271.536 414.936 271.462 414.912C264.81 412.785 258.29 411.101 252.374 410.057C252.372 410.057 252.373 410.057 252.371 410.056C252.349 410.053 248.722 409.414 243.279 408.928ZM268.837 403.876C269.893 406.601 267.19 409.067 264.387 408.234C259.892 406.899 255.527 405.804 251.448 405.017C251.449 405.017 251.448 405.016 251.448 405.017C251.44 405.015 242.209 403.235 230.566 402.69C223.867 402.377 218.161 397.298 217.518 390.628C217.222 387.547 218.078 384.479 219.807 381.911C228.123 369.563 231.043 359.157 229.081 350.994C227.949 346.398 225.282 342.911 221.631 340.289C219.733 338.926 219.399 336.004 221.116 334.419C222.369 333.262 224.163 333.375 225.446 334.5C226.99 335.854 228.567 337.222 230.167 338.598C233.452 341.422 234.506 345.954 233.774 350.222C233.467 352.01 233.314 353.754 233.314 355.455C233.314 358.637 234.707 363.21 237.493 369.175C240.279 374.941 243.364 380.21 246.747 384.982C249.931 389.754 252.22 392.14 253.613 392.14C253.804 392.14 253.977 392.129 254.132 392.107C255.077 391.972 255.011 390.935 254.673 390.043C254.412 389.355 253.973 388.568 253.613 387.926C252.419 385.802 251.822 382.931 251.822 379.315C251.822 369.292 264.695 366.999 272.589 373.184C280.933 379.722 286.508 383.964 286.518 383.971C286.517 383.971 286.518 383.972 286.518 383.971C286.611 384.042 286.704 384.113 286.797 384.184C292.848 388.785 293.066 397.8 287.178 402.609C285.427 404.039 283.654 405.481 281.86 406.935C278.994 409.257 274.742 408.449 272.718 405.367C268.573 398.86 265.211 393.917 262.632 390.539C264.603 393.136 266.671 397.582 268.837 403.876ZM289.137 421.479C285.859 420.09 282.668 423.567 284.061 426.841C287.643 434.596 289.434 441.953 289.434 448.912C289.434 454.006 294.086 458.332 299.086 457.333C299.31 457.288 299.534 457.244 299.756 457.201C299.756 457.201 299.757 457.201 299.756 457.201C299.76 457.201 304.57 456.273 311.625 455.552C320.418 454.653 325.389 442.973 318.394 437.573C318.393 437.572 318.393 437.573 318.392 437.572C311.302 432.094 300.673 426.365 289.137 421.479ZM109.133 508.859C108.202 509.945 106.513 509.919 105.616 508.806L93.8281 494.186C93.1304 493.321 93.2507 492.078 94.1375 491.407C94.8546 490.865 95.8851 490.85 96.59 491.408C101.107 494.982 105.188 498.173 108.548 500.782C111.026 502.706 111.016 506.351 109.133 508.859ZM111.992 500.99C108.321 498.057 104.703 495.165 101.153 492.316C99.1275 490.691 99.0814 487.667 101.152 486.099C102.653 484.963 104.834 484.96 106.285 486.16C109.692 488.977 113.391 491.822 117.383 494.694C119.616 496.301 119.296 499.812 117.082 501.445C115.641 502.507 113.803 502.438 112.404 501.32L112 500.996L111.992 500.99ZM93.8828 486.462C95.4142 487.7 97.6123 487.684 99.1371 486.437C101.131 484.807 101.172 481.786 99.2892 480.03C98.7118 479.492 98.1454 478.955 97.59 478.418C94.8834 475.805 90.0284 477.657 90.0284 481.418C90.0284 482.631 90.5747 483.78 91.5174 484.545C92.3016 485.182 93.0901 485.821 93.8828 486.462ZM101.073 464.421C101.252 464.57 101.432 464.719 101.614 464.868C109.019 470.94 119.674 469.849 127.155 463.87L127.172 463.857L127.18 463.85C128.137 463.085 129.092 462.322 130.042 461.563C131.789 460.166 131.072 457.561 128.835 457.561C122.865 457.561 117.292 455.97 112.118 452.789C106.944 449.608 102.466 446.029 98.6853 442.052C95.8458 438.916 90.0284 440.948 90.0284 445.177V451.903C90.0284 453.792 90.8498 455.586 92.2792 456.822L101.073 464.421ZM121.137 470.946C121.137 470.946 121.138 470.946 121.137 470.946C118.82 472.705 119.064 476.25 121.648 477.588C125.073 479.363 128.762 481.137 132.716 482.912C135.751 484.274 138.922 485.506 142.23 486.606C150.291 489.287 158.101 482.947 158.57 474.472C158.863 469.166 159.242 463.864 159.733 458.58C160.388 451.519 151.747 446.98 146.195 451.399C143.979 453.163 143.112 455.811 143.721 458.576C143.734 458.635 143.747 458.695 143.761 458.754L144.479 463.062C144.52 463.307 144.197 463.435 144.059 463.228C143.462 462.432 142.666 461.637 141.671 460.842C140.477 460.046 138.885 459.35 136.895 458.754C136.891 458.753 136.887 458.753 136.884 458.755C127.537 466.086 121.143 470.942 121.137 470.946ZM160.115 418.941C163.182 421.882 164.404 426.219 163.613 430.392C163.063 433.299 161.562 435.953 159.289 437.848C155.233 441.229 151.018 444.679 146.675 448.199C144.79 449.727 141.972 448.634 141.671 446.228C140.875 441.455 140.477 437.081 140.477 433.105C140.477 429.526 139.581 427.438 137.79 426.841C135.999 426.046 133.512 425.748 130.327 425.947C125.551 426.543 119.681 425.748 112.715 423.561C106.182 421.509 99.1232 415.871 91.5392 406.647C90.5483 405.442 90.0284 403.923 90.0284 402.363V396.946C90.0284 394.959 91.9608 393.53 93.9091 393.929C99.2823 394.725 104.357 394.029 109.133 391.841C112.711 390.132 116.858 389.748 120.464 391.396C129.912 395.716 138.421 400.512 144.411 405.13C144.415 405.133 144.414 405.133 144.418 405.136C144.517 405.212 151.111 410.305 160.115 418.941ZM165.041 491.826C160.966 491.254 158.079 487.637 158.254 483.53C158.857 469.367 159.979 455.204 162.144 441.306C162.467 439.23 163.555 437.359 165.175 436.02C168.773 433.046 174.099 433.37 177.131 436.918C180.433 440.783 183.743 444.918 186.931 449.278C187.933 450.648 188.003 452.542 186.746 453.684C184.557 455.473 181.871 457.263 178.686 459.052C175.104 461.239 171.522 463.923 167.94 467.105C165.751 469.093 164.955 471.678 165.552 474.859C166.149 478.041 167.741 480.526 170.328 482.315C175.941 485.82 172.527 492.835 165.967 491.953C165.658 491.912 165.349 491.869 165.041 491.826ZM164.523 428.224C164.086 430.308 166.533 431.739 168.147 430.348C169.117 429.512 169.135 428.023 168.251 427.096C167.018 425.804 164.89 426.477 164.523 428.224ZM183.945 416.062C186.358 413.806 188.647 411.59 190.811 409.414C194.201 406.007 194.543 400.649 191.522 396.912C186.005 390.147 175.65 392.156 172.461 400.279C171.356 403.095 170.374 405.947 169.535 408.828C168.457 412.286 167.477 415.776 166.586 419.294C166.161 420.973 166.609 422.701 167.799 423.961C169.702 425.975 172.908 426.208 174.974 424.36C178.129 421.537 181.127 418.771 183.945 416.062ZM214.918 372.681C215.384 375.54 214.958 378.488 213.53 381.009C212.849 382.211 212.113 383.434 211.32 384.678C206.491 392.261 195.247 390.337 191.224 382.298C188.663 377.07 188.978 370.349 192.492 365.707C199.449 356.518 212.853 360.31 214.752 371.675C214.808 372.01 214.863 372.345 214.918 372.681ZM219.738 358.711C219.091 352.522 215.869 348.175 211.239 345.159C210.845 344.903 210.328 344.969 210.003 345.308C209.757 345.563 209.664 345.93 209.757 346.271C210.846 350.264 211.816 354.293 212.68 358.351C213.818 363.694 220.317 364.144 219.738 358.711ZM204.469 330.089C205.533 332.694 207.813 334.598 210.532 335.331C211.195 335.51 211.85 335.701 212.493 335.904C214.344 336.489 216.503 335.984 217.894 334.631C219.925 332.653 219.776 329.47 217.686 327.554C214.861 324.965 212.236 322.48 209.886 320.151C201.447 312.017 194.768 304.424 189.76 297.423C189.52 297.088 189.177 296.847 188.778 296.744C187.2 296.336 186.029 298.138 186.984 299.456C193.8 308.865 200.037 319.233 204.469 330.089ZM161.827 335.437C161.828 335.437 161.827 335.437 161.827 335.437C161.829 335.437 164.29 334.963 168.274 334.43C184.432 332.265 196.683 315.197 187.095 302.024C185.392 299.684 183.654 297.409 181.901 295.204C181.899 295.202 181.896 295.2 181.892 295.2C181.887 295.199 181.882 295.201 181.88 295.205C174.036 307.151 164.913 317.848 156.701 326.453C153.505 329.802 157.28 336.314 161.827 335.437ZM69.4311 391.648C69.4311 391.606 69.3798 391.585 69.3509 391.616C60.5747 400.982 51.0203 412.624 43.3188 425.592C39.8658 431.406 40.8136 438.746 45.4972 443.625C48.4787 446.731 51.7209 449.925 55.2272 453.203C58.421 456.273 61.8455 459.417 65.4695 462.633C67.0103 464 69.4311 462.901 69.4311 460.842V391.648ZM19.3122 397.92C19.0561 417.344 47.5987 414.81 59.9282 399.791C62.2631 396.946 64.6115 394.225 66.9296 391.644C68.526 389.866 69.4311 387.572 69.4311 385.184V377.403C69.4311 376.899 69.0489 376.478 68.5463 376.436C68.4549 376.428 68.3604 376.433 68.2704 376.451C68.084 376.488 67.8982 376.525 67.7131 376.56C67.7131 376.56 67.713 376.56 67.7131 376.56C67.7121 376.561 54.6887 379.077 40.0641 379.047C36.7835 379.041 33.4463 379.348 30.5159 380.822C24.5236 383.835 20.1956 388.567 19.4343 395.852C19.3622 396.528 19.3215 397.217 19.3122 397.92ZM160.902 340.477C160.902 340.477 160.902 340.477 160.902 340.477C157.863 341.013 157.64 345.562 160.363 347.015C165.121 349.555 169.438 352.865 173.313 356.947C179.926 363.732 191.817 363.833 197.802 356.489C201.272 352.233 204.775 348.248 208.166 344.592C208.36 344.383 208.429 344.088 208.346 343.815C208.282 343.6 208.132 343.423 207.929 343.328C190.704 335.233 160.908 340.476 160.902 340.477ZM91.2288 490.962C91.7565 491.617 92.719 491.713 93.3674 491.177C94.1073 490.566 94.0961 489.43 93.3451 488.833C92.9742 488.538 92.6011 488.241 92.2257 487.942C91.3398 487.235 90.0284 487.865 90.0284 488.997C90.0284 489.305 90.1339 489.604 90.3273 489.844L91.2288 490.962ZM198.182 261.125C196.676 266.389 198.972 272.09 203.677 274.897C209.501 278.372 214.803 282.459 219.583 287.157C224.696 292.266 229.281 297.34 233.335 302.379C238.564 308.878 247.653 311.104 255.137 307.415C257.535 306.233 259.83 304.417 261.322 302.2C265.135 296.534 267.839 291.818 269.434 288.051C270.031 286.063 270.23 284.274 270.031 282.683C269.832 280.893 269.534 279.502 269.135 278.507C269.047 278.243 269.409 278.07 269.559 278.305L271.225 280.893C273.016 283.478 275.106 286.759 277.494 290.736C279.555 294.168 283.681 295.859 287.526 294.733C291.771 293.49 295.892 292.466 299.756 291.719C299.755 291.719 299.756 291.719 299.756 291.719C299.761 291.718 303.77 290.944 309.834 290.259C314.457 289.738 316.532 283.862 312.85 281.02C312.85 281.019 312.85 281.02 312.849 281.019C301.704 272.407 281.814 263.176 263.402 257.573C259.49 256.383 255.204 259.577 256.896 263.297C257.163 264.095 257.295 264.759 257.295 265.29C257.294 265.755 257.334 266.185 256.929 266.411C256.476 266.664 255.741 266.501 255.312 266.21C253.821 265.199 251.961 262.637 249.732 258.525C248.932 256.987 248.16 255.401 247.416 253.767C247.367 253.659 247.267 253.581 247.15 253.56C247.044 253.541 246.938 253.522 246.832 253.504C246.829 253.503 246.83 253.503 246.827 253.503C246.738 253.487 221.359 249.027 203.965 254.745C201.069 255.697 199.071 258.212 198.182 261.125ZM196.442 258.28C197.256 257.74 198.224 258.52 197.934 259.452C197.171 262.073 196.288 264.671 195.303 267.24C194.722 268.754 192.995 269.445 191.493 268.829C190.069 268.245 189.271 266.649 189.975 265.281C191.458 262.396 193.697 260.099 196.442 258.28ZM204.436 234.712C203.379 240.706 208.605 246.234 214.693 246.04C223.805 245.749 232.66 246.575 238.595 247.34C241.462 247.71 243.78 244.861 242.866 242.121C240.876 236.156 240.08 231.384 240.478 227.805C240.478 227.641 240.345 227.507 240.18 227.507H212.901C208.709 227.507 205.164 230.588 204.436 234.712ZM196.615 244.826C197.579 243.416 201.876 244.925 201.476 246.586C201.349 247.109 200.928 247.505 200.401 247.615C199.569 247.789 198.748 247.979 197.94 248.186C196.525 248.548 195.25 246.791 196.085 245.594C196.264 245.337 196.441 245.081 196.615 244.826ZM193.813 199.472C202.023 199.472 208.855 193.138 209.207 184.943C209.356 181.469 209.473 177.995 209.567 174.525C209.736 168.282 207.525 161.457 201.672 159.264C198.488 158.071 195.801 157.773 193.612 158.37C191.224 158.966 189.035 159.761 187.045 160.756C187.03 160.763 187.016 160.77 187.001 160.777C185.507 161.517 183.889 161.989 182.399 162.739C177.95 164.976 173.429 167.794 168.836 171.194C161.87 176.761 153.313 181.434 143.164 185.212C138.023 186.924 133.088 187.885 128.357 188.096C127.921 188.115 127.783 188.735 128.148 188.974C128.218 189.02 128.285 189.025 128.365 189.051C128.379 189.055 128.392 189.06 128.404 189.066C128.578 189.154 128.637 189.394 128.801 189.499C130.326 190.48 132.029 191.816 133.91 193.507C135.358 194.664 136.648 196.032 137.779 197.61C138.316 198.359 139.231 198.759 140.136 198.584C140.136 198.584 140.136 198.584 140.136 198.584C140.139 198.584 168.875 193.046 188.588 198.664C190.292 199.149 192.041 199.472 193.813 199.472ZM198.551 147.536C202.807 151.246 209.95 148.583 209.985 142.94V142.937L209.985 142.926C210.016 137.976 210.047 133.059 210.101 128.188C210.152 123.633 206.48 119.896 201.921 119.896H142.775C141.748 119.896 140.597 123.399 141.372 124.071C144.358 126.656 147.641 129.539 151.223 132.72C156.55 137.451 164.154 138.484 171.218 137.547C172.992 137.312 174.784 137.194 176.597 137.194C181.572 137.194 187.144 139.282 193.313 143.457C194.979 144.585 196.725 145.944 198.551 147.536ZM147.453 296.565C162.132 293.461 169.871 309.774 159.612 320.712C153.02 327.74 146.893 333.462 142.36 337.468C138.805 340.611 134.31 342.367 129.873 344.054C129.327 344.261 128.782 344.483 128.238 344.718C125.093 345.975 122.003 347.37 118.969 348.903C114.308 351.257 108.656 350.937 104.584 347.67C103.052 346.441 101.532 345.22 100.024 344.007C96.0492 340.809 96.1482 334.738 100.211 331.652C100.21 331.652 100.211 331.651 100.211 331.652C100.22 331.645 119.404 317.065 139.732 300.394C141.993 298.539 144.591 297.17 147.453 296.565ZM201.855 474.464C201.955 474.41 202.081 474.451 202.129 474.554C204.394 479.41 206.327 484.398 207.81 489.476L207.876 489.686L207.978 490.015C208.127 490.495 207.824 490.998 207.329 491.09C202.531 491.984 197.465 492.66 192.13 493.118C190.418 493.265 188.836 492.085 188.836 490.368C188.836 486.59 190.129 483.508 192.716 481.122C195.304 478.736 198.289 476.549 201.672 474.561L201.743 474.524L201.855 474.464ZM154.834 411.119C159.53 415.473 167.418 413.277 169.288 407.155C171.136 400.69 173.724 394.34 176.809 388.198C177.891 386.046 177.36 383.405 175.403 381.999C169.035 377.426 161.671 374.344 153.313 372.754C146.202 371.569 144.474 379.857 150.008 384.473C152.681 386.702 155.355 388.951 158.025 391.219L153.85 387.873C152.887 387.15 151.49 386.096 149.755 384.785C141.758 378.739 130.845 377.41 122.764 383.345C122.698 383.393 122.632 383.442 122.566 383.491C120.775 384.873 121.009 387.724 123.035 388.734C130.877 392.642 137.864 396.818 142.992 400.83C142.994 400.831 142.993 400.831 142.995 400.832C143.03 400.859 147.814 404.609 154.834 411.119ZM150.433 522.868C146.493 523.472 145.658 528.189 148.722 530.734C152.166 533.593 157.434 531.211 157.46 526.738C157.465 525.722 157.471 524.705 157.477 523.686C157.481 522.921 156.854 522.302 156.089 522.333C154.108 522.416 152.222 522.594 150.433 522.868ZM209.358 520.321C212.445 520.057 215.271 522.139 215.712 525.202C216.613 531.447 208.623 533.698 205.836 528.037L202.401 521.057C202.32 520.893 202.153 520.789 201.97 520.789C204.495 520.682 206.957 520.526 209.358 520.321ZM321.831 372.49C320.039 374.219 318.174 375.972 316.241 377.747C306.817 386.407 292.451 386.456 282.46 378.456C281.816 377.94 281.174 377.426 280.534 376.913L280.52 376.902L280.487 376.876L280.483 376.872L280.463 376.857C279.122 375.783 277.788 374.715 276.462 373.652C266.221 365.448 263.474 350.915 271.044 340.201C271.597 339.418 272.155 338.637 272.718 337.859C276.499 332.49 279.683 327.619 282.27 323.245C285.056 318.87 286.449 315.49 286.449 313.104C286.449 310.321 285.554 306.94 283.763 302.964C283.245 301.758 283.876 300.356 285.138 299.995C289.901 298.631 294.526 297.53 298.831 296.769C298.832 296.768 298.832 296.768 298.833 296.768C298.855 296.764 308.499 295.063 319.973 295.095C325.996 295.111 331.65 297.786 335.822 302.126C339.803 306.267 344.002 310.915 348.158 315.975C353.438 322.403 354.96 331.241 350.76 338.42C344.921 348.399 335.339 359.816 321.831 372.49ZM239.542 326.156C241.535 328.071 241.61 331.353 240.217 333.74C238.181 337.228 233.51 338.062 230.521 335.343C230.448 335.277 230.376 335.211 230.303 335.144C227.634 332.712 227.705 328.504 230.49 326.206C231.965 324.989 232.799 324.343 232.81 324.335C232.81 324.335 232.81 324.335 232.811 324.334C234.322 323.165 236.449 323.279 237.856 324.572C238.429 325.099 238.991 325.627 239.542 326.156ZM227.717 316.229C230.721 318.462 231.913 321.875 229.085 324.328C226.735 326.366 222.03 327.414 219.803 325.242C216.821 322.333 214.053 319.494 211.499 316.728C206.691 311.521 211.559 305.35 217.493 309.227C221.135 311.536 224.543 313.87 227.717 316.229ZM357.557 315.035C357.964 318.864 353.23 319.909 350.859 316.874C349.575 315.229 348.28 313.621 346.983 312.051C342.491 306.618 347.18 299.076 352.25 303.975C355.139 306.765 357.072 310.38 357.557 315.035ZM80.0115 346.978C77.7886 348.663 76.0624 350.958 75.4013 353.666C74.4063 358.438 77.2919 361.619 84.0582 363.21C88.0383 363.806 92.317 363.11 96.8942 361.122C103.2 358.109 103.684 349.615 98.2023 345.281C97.8406 344.995 97.4758 344.707 97.108 344.415C93.1676 341.294 87.6096 341.218 83.6039 344.255C82.3759 345.187 81.1755 346.096 80.0115 346.978ZM113.611 310.122C118.499 307.183 121.574 312.31 117.128 315.882C113.531 318.771 109.863 321.705 106.14 324.683L106.137 324.686C101.925 328.055 97.6419 331.48 93.3125 334.961C92.0046 336.013 90.1253 335.998 88.8257 334.936C87.316 333.703 87.0961 331.489 88.3956 330.036C94.7142 322.972 103.119 316.333 113.611 310.122ZM99.5808 217.665C100.533 217.105 99.9449 216.107 98.9378 216.56C92.9041 219.275 87.2293 222.196 82.3309 225.149C81.942 225.384 82.0357 225.969 82.4775 226.075C82.7343 226.137 82.9954 225.988 83.1484 225.773C83.4444 225.357 83.9718 224.974 84.7304 224.624C84.8779 224.556 85.0212 224.479 85.1577 224.391C86.3376 223.629 87.9612 222.779 90.0284 221.84C93.0135 220.846 96.1977 219.454 99.5808 217.665ZM48.2497 252.42C58.2004 241.492 47.3924 226.596 33.5811 231.873C26.0346 234.756 20.3201 239.785 19.4343 248.277C19.2539 249.971 19.2697 251.752 19.4841 253.619C20.8467 265.482 40.207 261.253 48.2497 252.42ZM86.8231 336.199C88.1055 337.232 88.0892 339.17 86.8086 340.206C86.6263 340.353 86.4439 340.501 86.2615 340.649C83.7567 342.677 80.735 340.332 82.5077 337.641C82.7209 337.318 82.938 336.995 83.1592 336.673C83.9872 335.468 85.6847 335.281 86.8231 336.199ZM249.392 319.338C248.37 320.886 245.979 320.938 245.053 319.33C244.374 318.151 244.749 316.609 245.943 315.956C246.048 315.899 246.154 315.841 246.26 315.784C248.518 314.557 250.807 317.194 249.392 319.338ZM237.195 450.999C234.998 448.805 235.697 445.31 238.169 443.432C244.519 438.606 251.984 432.926 259.142 427.472C259.142 427.473 259.142 427.472 259.142 427.472C259.149 427.467 260.796 426.212 263.636 424.016C267.244 421.228 272.419 423.478 272.419 428.034C272.419 433.999 271.026 440.362 268.24 447.122C265.777 453.369 261.961 459.345 256.793 465.051C256.327 465.565 255.575 465.699 254.955 465.389C254.857 465.34 254.764 465.281 254.677 465.212L251.822 462.929C246.648 459.35 241.772 455.374 237.195 450.999ZM112.697 240.451C112.523 240.38 112.327 240.387 112.159 240.471C111.729 240.685 111.663 241.276 112.04 241.573L116.894 245.402C120.477 248.384 125.054 251.566 130.626 254.946C135.947 258.293 141.561 260.763 147.468 262.356C147.582 262.386 147.701 262.394 147.818 262.38C148.615 262.279 148.928 261.276 148.315 260.759C145.867 258.696 144.428 257.585 144.416 257.576C144.417 257.577 144.416 257.576 144.416 257.576C136.822 251.709 125.174 245.554 112.697 240.451ZM142.865 133.317C149.781 136.876 149.126 145.955 142.592 150.174C141.175 151.09 139.773 152.032 138.387 153.001C132.019 157.574 125.949 160.954 120.178 163.141C102.665 169.504 91.1229 169.305 85.5507 162.545C84.5557 161.352 83.8592 159.165 83.4611 155.983C82.8641 152.603 83.7596 148.627 86.1477 144.054C88.3368 139.48 93.2125 134.609 100.775 129.439C107.143 125.662 114.108 124.469 121.671 125.86C129.233 127.252 136.298 129.738 142.865 133.317ZM209.433 34.895C220.578 37.8775 230.428 41.5558 238.986 45.9301L241.374 47.1232L246.449 49.8073C247.842 50.8015 249.235 51.6962 250.628 52.4916C253.215 53.8834 255.603 55.5734 257.792 57.5618C259.981 59.5501 261.076 62.3337 261.076 65.9127C261.076 67.8739 259.014 71.8953 254.889 77.9771C252.335 81.7438 247.369 82.8733 243.165 81.1234C225.851 73.5678 207.941 68.1993 189.433 65.018C180.278 63.2285 171.025 61.9361 161.671 61.1408C152.716 60.1682 143.665 59.8617 134.519 60.2211C134.178 60.2345 133.91 60.5148 133.91 60.8554C133.91 61.1855 134.163 61.4606 134.492 61.4895C152.797 63.0945 170.713 66.1595 188.239 70.6847C206.149 74.8601 223.364 80.8251 239.881 88.5796C241.52 89.307 243.241 90.1177 245.046 91.0116C245.296 91.1352 245.35 91.4681 245.168 91.679C245.031 91.8387 244.893 92.0104 244.755 92.1939C244.632 92.3586 244.359 92.274 244.359 92.0682C244.359 91.9534 244.266 91.8603 244.151 91.8603L111.796 91.8603C105.537 91.8603 99.2773 89.2918 96.8942 83.5093C96.2972 81.521 97.4912 77.7432 100.476 72.176C103.262 66.6086 107.84 60.6437 114.208 54.2811C120.377 47.7196 128.437 42.0529 138.387 37.2809C148.338 32.509 160.079 30.123 173.612 30.123C186.348 30.123 198.289 31.7137 209.433 34.895Z" fill="#EAFE01"/>
</svg>
