<svg width="83" height="103" viewBox="0 0 83 103" fill="none" xmlns="http://www.w3.org/2000/svg">
<mask id="path-1-outside-1_192_344" maskUnits="userSpaceOnUse" x="1.14648" y="1.87793" width="81" height="100" fill="black">
<rect fill="white" x="1.14648" y="1.87793" width="81" height="100"/>
<path d="M22.6005 5.39447C22.6129 5.21898 22.7043 5.12011 22.8773 5.10034C23.8685 4.99159 24.9511 5.18438 25.9224 5.12012C27.1657 5.03608 28.5646 4.89272 29.7213 5.19426C29.7955 5.21404 29.8696 5.21404 29.9413 5.19426C30.2404 5.11517 30.495 5.04844 30.8113 5.04844C32.8653 5.05585 34.9217 5.0336 36.9756 4.98417C38.5254 4.9471 40.2432 5.03114 41.8868 4.99653C43.5576 4.96193 45.399 5.06821 47.1613 4.97429C47.7001 4.94463 48.276 5.08304 48.8914 5.00889C50.0408 4.87048 51.0616 5.18685 52.1441 5.08057C53.9657 4.90014 55.209 4.84082 55.8738 4.90014C57.3618 5.03113 58.6149 4.99653 60.1992 4.9644C62.1988 4.92238 64.1959 4.92238 66.1955 4.9644C67.9231 4.999 69.6533 5.01878 71.3834 5.02125C72.4042 5.02125 73.2273 5.01877 73.8477 5.00641C75.1453 4.97923 76.6604 5.09046 78.0791 4.95699C78.2472 4.94216 78.393 5.06574 78.4103 5.23381C78.4103 5.24122 78.4103 5.24864 78.4103 5.25605C78.4474 9.19833 78.5265 13.1678 78.6476 17.1694C78.6699 17.9603 78.6699 18.9638 78.6476 20.1774C78.6229 21.517 78.6649 22.8962 78.6328 24.1889C78.5759 26.6136 78.5833 29.0407 78.66 31.4654C78.6674 31.7447 78.6056 32.0462 78.6081 32.2885C78.6625 43.359 78.6031 51.2831 78.4326 56.0583C78.3115 59.3629 78.1879 61.9977 78.0594 63.9676C77.8938 66.4738 77.3648 69.163 76.8433 71.778C76.6901 72.5491 76.4503 73.3821 76.1216 74.2743C75.7187 75.3718 75.3999 76.5062 74.8734 77.5171C74.1023 79.0026 73.4819 80.0135 73.0098 80.5499C72.2905 81.368 71.6998 82.3344 70.9855 83.0635C69.8288 84.2474 68.6226 85.3745 67.367 86.4497C66.3635 87.3073 65.2587 88.081 64.055 88.773C61.1385 90.4463 58.0687 91.9442 54.8432 93.2714C53.4244 93.8547 51.9439 94.265 50.6315 94.789C47.8459 95.9013 44.9294 96.5118 42.1785 97.7179C41.7484 97.9058 40.8907 98.2592 40.431 98.0664C38.2782 97.1544 35.3616 96.1509 33.8787 95.5874C29.2517 93.8325 26.4958 92.609 22.8378 91.0025C20.0102 89.7592 17.9316 88.1156 15.1386 86.163C14.3897 85.639 13.8385 85.1422 13.4876 84.675C12.0614 82.7694 10.613 81.106 9.28823 78.9186C8.55662 77.7099 7.07117 75.5967 6.48539 73.869C5.78097 71.7829 5.13092 69.2742 4.53278 66.3404C4.35235 65.458 4.25596 64.5286 4.24361 63.5499C4.21642 61.4292 4.14721 59.3159 4.1917 57.1953C4.209 56.3821 4.12991 55.5294 4.14968 54.7755C4.22383 51.7972 4.1645 49.941 4.21888 47.981C4.34988 43.1464 4.11754 38.302 4.26584 33.465C4.29056 32.6518 4.18182 31.7966 4.21395 31.0452C4.25844 30.0071 4.33753 29.1 4.27326 27.9779C4.25102 27.6294 4.2436 27.1969 4.24854 26.6803C4.27573 23.7662 4.29303 20.8546 4.2955 17.9406C4.2955 17.246 4.51053 16.6009 4.51053 15.9089C4.513 13.4298 4.27573 10.9384 4.2955 8.5038C4.30539 7.40392 4.29798 6.30651 4.27326 5.21157C4.27326 5.13494 4.33258 5.07068 4.4092 5.06821C4.41167 5.06821 4.41661 5.06821 4.41908 5.06821C5.08396 5.10528 5.71671 5.20662 6.37417 5.15719C7.8794 5.04596 9.38462 5.06574 10.8899 5.21404C11.2136 5.24617 11.6437 5.13989 12.0417 5.17202C12.8103 5.23134 13.6235 5.08057 14.2933 5.08798C15.8109 5.10528 17.504 4.9471 18.987 5.18932C19.7112 5.30796 20.2722 5.21898 20.9544 5.08304C21.162 5.04102 21.3771 5.1127 21.5204 5.26842C21.775 5.54771 22.0938 5.63916 22.472 5.54524C22.5536 5.52547 22.5956 5.47356 22.6005 5.392V5.39447ZM72.9777 5.70095C73.0172 5.6095 72.9307 5.48839 72.7873 5.4266C72.644 5.36481 72.4957 5.38952 72.4586 5.4785C72.4191 5.56995 72.5056 5.69107 72.6489 5.75286C72.7923 5.81465 72.9406 5.78993 72.9777 5.70095ZM60.7405 5.96047C60.8839 5.90857 61.0421 5.91104 61.1805 5.8542C61.2744 5.81465 61.2793 5.76769 61.1928 5.71578C60.9531 5.56996 60.696 5.49827 60.4192 5.50074C60.2907 5.50074 60.1894 5.6095 60.1918 5.73803C60.1918 5.78252 60.2066 5.827 60.2314 5.86408C60.3327 6.01238 60.5008 6.04451 60.7405 5.96047ZM57.7523 5.65152C57.6732 5.55018 57.4977 5.55512 57.3593 5.66387C57.2209 5.77263 57.1739 5.9407 57.253 6.04204C57.3321 6.14337 57.5076 6.13843 57.646 6.02968C57.7844 5.92093 57.8314 5.75286 57.7523 5.65152ZM68.195 5.65893C68.195 5.62433 68.1654 5.59467 68.1308 5.59714L66.5192 5.62927C66.4846 5.62927 66.455 5.65894 66.455 5.69354V5.84678C66.4574 5.88138 66.4871 5.91104 66.5242 5.91104L68.1357 5.87891C68.1703 5.87891 68.2 5.84925 68.2 5.81465V5.66141L68.195 5.65893ZM70.3478 5.91351C70.3478 5.83936 70.1649 5.77758 69.9351 5.77758C69.7077 5.77758 69.5223 5.83442 69.5223 5.90857C69.5223 5.98272 69.7052 6.04451 69.9326 6.04451C70.16 6.04451 70.3454 5.98766 70.3454 5.91351H70.3478ZM57.8561 90.7306L57.8685 90.9679C57.8709 91.0371 57.9303 91.089 57.9995 91.084C58.0365 91.084 58.0712 91.0642 58.0934 91.0346C58.4839 90.5131 58.7904 90.1226 59.3861 89.7938C61.5389 88.605 63.4915 87.4037 65.2439 86.1902C66.2696 85.4808 67.1866 84.5292 68.1925 83.7062C69.8683 82.3344 71.1412 80.6438 72.4907 78.9705C73.037 78.2932 73.1976 77.4949 73.6079 76.7485C73.9243 76.1701 74.0775 75.5547 74.3445 74.9491C74.7918 73.9456 75.0909 73.0089 75.5358 71.8818C76.0623 70.5496 76.4973 68.55 76.8384 65.8856C76.9867 64.7313 77.1028 63.1247 77.1869 61.0683C77.2511 59.4642 77.1102 57.6056 77.1448 55.8581C77.1869 53.6929 77.0831 51.4511 77.2239 49.2464C77.2462 48.9054 77.1449 48.4975 77.1473 48.2133C77.1622 45.9344 77.0905 43.6432 77.2091 41.3693C77.2833 39.9456 77.1201 38.2921 77.1597 37.1107C77.2734 33.8135 76.9595 29.6314 77.1374 27.3279C77.1992 26.532 77.2067 25.8597 77.1597 25.3135C76.9743 23.1805 77.1745 21.087 77.046 18.9786C76.9224 16.9766 77.1819 14.9202 77.0509 12.9206C76.9199 10.8791 77.0954 8.9141 77.0237 6.89723C77.0213 6.81072 76.9743 6.7687 76.8878 6.77117C73.8625 6.86757 70.8174 6.6995 67.8391 6.74646C66.5835 6.76623 65.3279 6.76623 64.0748 6.74646C63.3803 6.73657 62.3817 6.55614 61.4375 6.62782C61.0347 6.65748 60.088 6.69703 58.5976 6.74893C58.0094 6.7687 57.6312 6.89228 57.0701 6.59074C56.996 6.5512 56.9194 6.54378 56.8427 6.57097C56.4226 6.70938 56.1408 6.77118 55.9999 6.75882C55.7082 6.72916 54.9865 6.72916 53.8372 6.75882C53.0537 6.77859 51.3384 6.7687 48.6912 6.72915C47.4183 6.70938 45.2655 6.56603 43.5428 6.62535C41.825 6.6822 40.0158 6.57592 38.2485 6.71186C37.1017 6.79837 36.0488 6.4375 34.9044 6.56356C34.42 6.61793 34.022 6.64018 33.7131 6.63276C30.8015 6.5512 27.8898 6.56356 24.9782 6.67231C24.2689 6.6995 23.5175 6.56603 22.776 6.54873C21.3598 6.51907 20.0053 6.23977 18.7769 6.48199C17.6325 6.70691 16.6859 6.44986 15.6453 6.53637C14.8223 6.60557 14.2315 6.52648 13.4258 6.51412C11.2433 6.48199 8.98422 6.48446 6.64604 6.52154C6.27282 6.52895 6.07757 6.7168 6.06274 7.09002C5.99847 8.58537 5.93668 10.0362 5.87984 11.4426C5.86995 11.7441 5.94162 12.0729 5.93915 12.4312C5.91938 14.9054 5.83534 17.2435 5.87489 19.5175C5.90702 21.3786 5.92926 23.2373 5.93668 25.0985C5.93668 25.5953 5.8996 26.092 5.82298 26.5913C5.81062 26.6729 5.81804 26.7544 5.84523 26.8311C6.08251 27.491 5.91937 28.2102 5.93173 28.7046C6.00835 31.4555 5.93421 34.1447 5.99847 36.95C6.0306 38.428 5.91196 39.9629 6.07014 41.4286C6.10475 41.7524 6.00836 42.0391 5.78344 42.2888C5.72659 42.353 5.72907 42.4148 5.79086 42.4741C6.01578 42.6892 6.11463 42.9339 6.08745 43.2033C5.74636 46.5944 6.08498 50.2747 6.06768 53.3988C6.05533 55.4231 5.96882 57.4844 6.03555 59.4741C6.14925 62.8454 6.15665 66.5035 7.18238 70.2703C8.64313 75.6313 11.3372 80.2607 15.2647 84.1881C15.7368 84.6602 16.7823 85.5129 18.4012 86.7512C21.1521 88.8546 24.0835 89.8433 27.0594 91.3238C28.2977 91.9392 29.4692 92.347 30.7174 92.8265C32.2103 93.3975 33.8737 94.1686 35.4605 94.8335C36.9633 95.4638 38.5699 95.8593 40.1468 96.3239C40.3297 96.3783 40.4656 96.492 40.6312 96.5884C40.7078 96.6329 40.7721 96.6205 40.8265 96.5538C40.9847 96.3635 41.1453 96.2349 41.4073 96.1929C42.7049 95.9828 43.9605 95.6368 45.1716 95.1499C46.3803 94.663 47.2305 94.3466 47.7199 94.1958C49.5168 93.6521 51.3112 93.1058 53.1056 92.5547C54.7221 92.0579 56.1062 91.3361 57.5818 90.5724C57.6732 90.5254 57.7869 90.5576 57.8339 90.649C57.8462 90.6737 57.8536 90.6984 57.8561 90.7256V90.7306Z"/>
</mask>
<path d="M22.6005 5.39447C22.6129 5.21898 22.7043 5.12011 22.8773 5.10034C23.8685 4.99159 24.9511 5.18438 25.9224 5.12012C27.1657 5.03608 28.5646 4.89272 29.7213 5.19426C29.7955 5.21404 29.8696 5.21404 29.9413 5.19426C30.2404 5.11517 30.495 5.04844 30.8113 5.04844C32.8653 5.05585 34.9217 5.0336 36.9756 4.98417C38.5254 4.9471 40.2432 5.03114 41.8868 4.99653C43.5576 4.96193 45.399 5.06821 47.1613 4.97429C47.7001 4.94463 48.276 5.08304 48.8914 5.00889C50.0408 4.87048 51.0616 5.18685 52.1441 5.08057C53.9657 4.90014 55.209 4.84082 55.8738 4.90014C57.3618 5.03113 58.6149 4.99653 60.1992 4.9644C62.1988 4.92238 64.1959 4.92238 66.1955 4.9644C67.9231 4.999 69.6533 5.01878 71.3834 5.02125C72.4042 5.02125 73.2273 5.01877 73.8477 5.00641C75.1453 4.97923 76.6604 5.09046 78.0791 4.95699C78.2472 4.94216 78.393 5.06574 78.4103 5.23381C78.4103 5.24122 78.4103 5.24864 78.4103 5.25605C78.4474 9.19833 78.5265 13.1678 78.6476 17.1694C78.6699 17.9603 78.6699 18.9638 78.6476 20.1774C78.6229 21.517 78.6649 22.8962 78.6328 24.1889C78.5759 26.6136 78.5833 29.0407 78.66 31.4654C78.6674 31.7447 78.6056 32.0462 78.6081 32.2885C78.6625 43.359 78.6031 51.2831 78.4326 56.0583C78.3115 59.3629 78.1879 61.9977 78.0594 63.9676C77.8938 66.4738 77.3648 69.163 76.8433 71.778C76.6901 72.5491 76.4503 73.3821 76.1216 74.2743C75.7187 75.3718 75.3999 76.5062 74.8734 77.5171C74.1023 79.0026 73.4819 80.0135 73.0098 80.5499C72.2905 81.368 71.6998 82.3344 70.9855 83.0635C69.8288 84.2474 68.6226 85.3745 67.367 86.4497C66.3635 87.3073 65.2587 88.081 64.055 88.773C61.1385 90.4463 58.0687 91.9442 54.8432 93.2714C53.4244 93.8547 51.9439 94.265 50.6315 94.789C47.8459 95.9013 44.9294 96.5118 42.1785 97.7179C41.7484 97.9058 40.8907 98.2592 40.431 98.0664C38.2782 97.1544 35.3616 96.1509 33.8787 95.5874C29.2517 93.8325 26.4958 92.609 22.8378 91.0025C20.0102 89.7592 17.9316 88.1156 15.1386 86.163C14.3897 85.639 13.8385 85.1422 13.4876 84.675C12.0614 82.7694 10.613 81.106 9.28823 78.9186C8.55662 77.7099 7.07117 75.5967 6.48539 73.869C5.78097 71.7829 5.13092 69.2742 4.53278 66.3404C4.35235 65.458 4.25596 64.5286 4.24361 63.5499C4.21642 61.4292 4.14721 59.3159 4.1917 57.1953C4.209 56.3821 4.12991 55.5294 4.14968 54.7755C4.22383 51.7972 4.1645 49.941 4.21888 47.981C4.34988 43.1464 4.11754 38.302 4.26584 33.465C4.29056 32.6518 4.18182 31.7966 4.21395 31.0452C4.25844 30.0071 4.33753 29.1 4.27326 27.9779C4.25102 27.6294 4.2436 27.1969 4.24854 26.6803C4.27573 23.7662 4.29303 20.8546 4.2955 17.9406C4.2955 17.246 4.51053 16.6009 4.51053 15.9089C4.513 13.4298 4.27573 10.9384 4.2955 8.5038C4.30539 7.40392 4.29798 6.30651 4.27326 5.21157C4.27326 5.13494 4.33258 5.07068 4.4092 5.06821C4.41167 5.06821 4.41661 5.06821 4.41908 5.06821C5.08396 5.10528 5.71671 5.20662 6.37417 5.15719C7.8794 5.04596 9.38462 5.06574 10.8899 5.21404C11.2136 5.24617 11.6437 5.13989 12.0417 5.17202C12.8103 5.23134 13.6235 5.08057 14.2933 5.08798C15.8109 5.10528 17.504 4.9471 18.987 5.18932C19.7112 5.30796 20.2722 5.21898 20.9544 5.08304C21.162 5.04102 21.3771 5.1127 21.5204 5.26842C21.775 5.54771 22.0938 5.63916 22.472 5.54524C22.5536 5.52547 22.5956 5.47356 22.6005 5.392V5.39447ZM72.9777 5.70095C73.0172 5.6095 72.9307 5.48839 72.7873 5.4266C72.644 5.36481 72.4957 5.38952 72.4586 5.4785C72.4191 5.56995 72.5056 5.69107 72.6489 5.75286C72.7923 5.81465 72.9406 5.78993 72.9777 5.70095ZM60.7405 5.96047C60.8839 5.90857 61.0421 5.91104 61.1805 5.8542C61.2744 5.81465 61.2793 5.76769 61.1928 5.71578C60.9531 5.56996 60.696 5.49827 60.4192 5.50074C60.2907 5.50074 60.1894 5.6095 60.1918 5.73803C60.1918 5.78252 60.2066 5.827 60.2314 5.86408C60.3327 6.01238 60.5008 6.04451 60.7405 5.96047ZM57.7523 5.65152C57.6732 5.55018 57.4977 5.55512 57.3593 5.66387C57.2209 5.77263 57.1739 5.9407 57.253 6.04204C57.3321 6.14337 57.5076 6.13843 57.646 6.02968C57.7844 5.92093 57.8314 5.75286 57.7523 5.65152ZM68.195 5.65893C68.195 5.62433 68.1654 5.59467 68.1308 5.59714L66.5192 5.62927C66.4846 5.62927 66.455 5.65894 66.455 5.69354V5.84678C66.4574 5.88138 66.4871 5.91104 66.5242 5.91104L68.1357 5.87891C68.1703 5.87891 68.2 5.84925 68.2 5.81465V5.66141L68.195 5.65893ZM70.3478 5.91351C70.3478 5.83936 70.1649 5.77758 69.9351 5.77758C69.7077 5.77758 69.5223 5.83442 69.5223 5.90857C69.5223 5.98272 69.7052 6.04451 69.9326 6.04451C70.16 6.04451 70.3454 5.98766 70.3454 5.91351H70.3478ZM57.8561 90.7306L57.8685 90.9679C57.8709 91.0371 57.9303 91.089 57.9995 91.084C58.0365 91.084 58.0712 91.0642 58.0934 91.0346C58.4839 90.5131 58.7904 90.1226 59.3861 89.7938C61.5389 88.605 63.4915 87.4037 65.2439 86.1902C66.2696 85.4808 67.1866 84.5292 68.1925 83.7062C69.8683 82.3344 71.1412 80.6438 72.4907 78.9705C73.037 78.2932 73.1976 77.4949 73.6079 76.7485C73.9243 76.1701 74.0775 75.5547 74.3445 74.9491C74.7918 73.9456 75.0909 73.0089 75.5358 71.8818C76.0623 70.5496 76.4973 68.55 76.8384 65.8856C76.9867 64.7313 77.1028 63.1247 77.1869 61.0683C77.2511 59.4642 77.1102 57.6056 77.1448 55.8581C77.1869 53.6929 77.0831 51.4511 77.2239 49.2464C77.2462 48.9054 77.1449 48.4975 77.1473 48.2133C77.1622 45.9344 77.0905 43.6432 77.2091 41.3693C77.2833 39.9456 77.1201 38.2921 77.1597 37.1107C77.2734 33.8135 76.9595 29.6314 77.1374 27.3279C77.1992 26.532 77.2067 25.8597 77.1597 25.3135C76.9743 23.1805 77.1745 21.087 77.046 18.9786C76.9224 16.9766 77.1819 14.9202 77.0509 12.9206C76.9199 10.8791 77.0954 8.9141 77.0237 6.89723C77.0213 6.81072 76.9743 6.7687 76.8878 6.77117C73.8625 6.86757 70.8174 6.6995 67.8391 6.74646C66.5835 6.76623 65.3279 6.76623 64.0748 6.74646C63.3803 6.73657 62.3817 6.55614 61.4375 6.62782C61.0347 6.65748 60.088 6.69703 58.5976 6.74893C58.0094 6.7687 57.6312 6.89228 57.0701 6.59074C56.996 6.5512 56.9194 6.54378 56.8427 6.57097C56.4226 6.70938 56.1408 6.77118 55.9999 6.75882C55.7082 6.72916 54.9865 6.72916 53.8372 6.75882C53.0537 6.77859 51.3384 6.7687 48.6912 6.72915C47.4183 6.70938 45.2655 6.56603 43.5428 6.62535C41.825 6.6822 40.0158 6.57592 38.2485 6.71186C37.1017 6.79837 36.0488 6.4375 34.9044 6.56356C34.42 6.61793 34.022 6.64018 33.7131 6.63276C30.8015 6.5512 27.8898 6.56356 24.9782 6.67231C24.2689 6.6995 23.5175 6.56603 22.776 6.54873C21.3598 6.51907 20.0053 6.23977 18.7769 6.48199C17.6325 6.70691 16.6859 6.44986 15.6453 6.53637C14.8223 6.60557 14.2315 6.52648 13.4258 6.51412C11.2433 6.48199 8.98422 6.48446 6.64604 6.52154C6.27282 6.52895 6.07757 6.7168 6.06274 7.09002C5.99847 8.58537 5.93668 10.0362 5.87984 11.4426C5.86995 11.7441 5.94162 12.0729 5.93915 12.4312C5.91938 14.9054 5.83534 17.2435 5.87489 19.5175C5.90702 21.3786 5.92926 23.2373 5.93668 25.0985C5.93668 25.5953 5.8996 26.092 5.82298 26.5913C5.81062 26.6729 5.81804 26.7544 5.84523 26.8311C6.08251 27.491 5.91937 28.2102 5.93173 28.7046C6.00835 31.4555 5.93421 34.1447 5.99847 36.95C6.0306 38.428 5.91196 39.9629 6.07014 41.4286C6.10475 41.7524 6.00836 42.0391 5.78344 42.2888C5.72659 42.353 5.72907 42.4148 5.79086 42.4741C6.01578 42.6892 6.11463 42.9339 6.08745 43.2033C5.74636 46.5944 6.08498 50.2747 6.06768 53.3988C6.05533 55.4231 5.96882 57.4844 6.03555 59.4741C6.14925 62.8454 6.15665 66.5035 7.18238 70.2703C8.64313 75.6313 11.3372 80.2607 15.2647 84.1881C15.7368 84.6602 16.7823 85.5129 18.4012 86.7512C21.1521 88.8546 24.0835 89.8433 27.0594 91.3238C28.2977 91.9392 29.4692 92.347 30.7174 92.8265C32.2103 93.3975 33.8737 94.1686 35.4605 94.8335C36.9633 95.4638 38.5699 95.8593 40.1468 96.3239C40.3297 96.3783 40.4656 96.492 40.6312 96.5884C40.7078 96.6329 40.7721 96.6205 40.8265 96.5538C40.9847 96.3635 41.1453 96.2349 41.4073 96.1929C42.7049 95.9828 43.9605 95.6368 45.1716 95.1499C46.3803 94.663 47.2305 94.3466 47.7199 94.1958C49.5168 93.6521 51.3112 93.1058 53.1056 92.5547C54.7221 92.0579 56.1062 91.3361 57.5818 90.5724C57.6732 90.5254 57.7869 90.5576 57.8339 90.649C57.8462 90.6737 57.8536 90.6984 57.8561 90.7256V90.7306Z" fill="#EAFE01"/>
<path d="M22.6005 5.39447C22.6129 5.21898 22.7043 5.12011 22.8773 5.10034C23.8685 4.99159 24.9511 5.18438 25.9224 5.12012C27.1657 5.03608 28.5646 4.89272 29.7213 5.19426C29.7955 5.21404 29.8696 5.21404 29.9413 5.19426C30.2404 5.11517 30.495 5.04844 30.8113 5.04844C32.8653 5.05585 34.9217 5.0336 36.9756 4.98417C38.5254 4.9471 40.2432 5.03114 41.8868 4.99653C43.5576 4.96193 45.399 5.06821 47.1613 4.97429C47.7001 4.94463 48.276 5.08304 48.8914 5.00889C50.0408 4.87048 51.0616 5.18685 52.1441 5.08057C53.9657 4.90014 55.209 4.84082 55.8738 4.90014C57.3618 5.03113 58.6149 4.99653 60.1992 4.9644C62.1988 4.92238 64.1959 4.92238 66.1955 4.9644C67.9231 4.999 69.6533 5.01878 71.3834 5.02125C72.4042 5.02125 73.2273 5.01877 73.8477 5.00641C75.1453 4.97923 76.6604 5.09046 78.0791 4.95699C78.2472 4.94216 78.393 5.06574 78.4103 5.23381C78.4103 5.24122 78.4103 5.24864 78.4103 5.25605C78.4474 9.19833 78.5265 13.1678 78.6476 17.1694C78.6699 17.9603 78.6699 18.9638 78.6476 20.1774C78.6229 21.517 78.6649 22.8962 78.6328 24.1889C78.5759 26.6136 78.5833 29.0407 78.66 31.4654C78.6674 31.7447 78.6056 32.0462 78.6081 32.2885C78.6625 43.359 78.6031 51.2831 78.4326 56.0583C78.3115 59.3629 78.1879 61.9977 78.0594 63.9676C77.8938 66.4738 77.3648 69.163 76.8433 71.778C76.6901 72.5491 76.4503 73.3821 76.1216 74.2743C75.7187 75.3718 75.3999 76.5062 74.8734 77.5171C74.1023 79.0026 73.4819 80.0135 73.0098 80.5499C72.2905 81.368 71.6998 82.3344 70.9855 83.0635C69.8288 84.2474 68.6226 85.3745 67.367 86.4497C66.3635 87.3073 65.2587 88.081 64.055 88.773C61.1385 90.4463 58.0687 91.9442 54.8432 93.2714C53.4244 93.8547 51.9439 94.265 50.6315 94.789C47.8459 95.9013 44.9294 96.5118 42.1785 97.7179C41.7484 97.9058 40.8907 98.2592 40.431 98.0664C38.2782 97.1544 35.3616 96.1509 33.8787 95.5874C29.2517 93.8325 26.4958 92.609 22.8378 91.0025C20.0102 89.7592 17.9316 88.1156 15.1386 86.163C14.3897 85.639 13.8385 85.1422 13.4876 84.675C12.0614 82.7694 10.613 81.106 9.28823 78.9186C8.55662 77.7099 7.07117 75.5967 6.48539 73.869C5.78097 71.7829 5.13092 69.2742 4.53278 66.3404C4.35235 65.458 4.25596 64.5286 4.24361 63.5499C4.21642 61.4292 4.14721 59.3159 4.1917 57.1953C4.209 56.3821 4.12991 55.5294 4.14968 54.7755C4.22383 51.7972 4.1645 49.941 4.21888 47.981C4.34988 43.1464 4.11754 38.302 4.26584 33.465C4.29056 32.6518 4.18182 31.7966 4.21395 31.0452C4.25844 30.0071 4.33753 29.1 4.27326 27.9779C4.25102 27.6294 4.2436 27.1969 4.24854 26.6803C4.27573 23.7662 4.29303 20.8546 4.2955 17.9406C4.2955 17.246 4.51053 16.6009 4.51053 15.9089C4.513 13.4298 4.27573 10.9384 4.2955 8.5038C4.30539 7.40392 4.29798 6.30651 4.27326 5.21157C4.27326 5.13494 4.33258 5.07068 4.4092 5.06821C4.41167 5.06821 4.41661 5.06821 4.41908 5.06821C5.08396 5.10528 5.71671 5.20662 6.37417 5.15719C7.8794 5.04596 9.38462 5.06574 10.8899 5.21404C11.2136 5.24617 11.6437 5.13989 12.0417 5.17202C12.8103 5.23134 13.6235 5.08057 14.2933 5.08798C15.8109 5.10528 17.504 4.9471 18.987 5.18932C19.7112 5.30796 20.2722 5.21898 20.9544 5.08304C21.162 5.04102 21.3771 5.1127 21.5204 5.26842C21.775 5.54771 22.0938 5.63916 22.472 5.54524C22.5536 5.52547 22.5956 5.47356 22.6005 5.392V5.39447ZM72.9777 5.70095C73.0172 5.6095 72.9307 5.48839 72.7873 5.4266C72.644 5.36481 72.4957 5.38952 72.4586 5.4785C72.4191 5.56995 72.5056 5.69107 72.6489 5.75286C72.7923 5.81465 72.9406 5.78993 72.9777 5.70095ZM60.7405 5.96047C60.8839 5.90857 61.0421 5.91104 61.1805 5.8542C61.2744 5.81465 61.2793 5.76769 61.1928 5.71578C60.9531 5.56996 60.696 5.49827 60.4192 5.50074C60.2907 5.50074 60.1894 5.6095 60.1918 5.73803C60.1918 5.78252 60.2066 5.827 60.2314 5.86408C60.3327 6.01238 60.5008 6.04451 60.7405 5.96047ZM57.7523 5.65152C57.6732 5.55018 57.4977 5.55512 57.3593 5.66387C57.2209 5.77263 57.1739 5.9407 57.253 6.04204C57.3321 6.14337 57.5076 6.13843 57.646 6.02968C57.7844 5.92093 57.8314 5.75286 57.7523 5.65152ZM68.195 5.65893C68.195 5.62433 68.1654 5.59467 68.1308 5.59714L66.5192 5.62927C66.4846 5.62927 66.455 5.65894 66.455 5.69354V5.84678C66.4574 5.88138 66.4871 5.91104 66.5242 5.91104L68.1357 5.87891C68.1703 5.87891 68.2 5.84925 68.2 5.81465V5.66141L68.195 5.65893ZM70.3478 5.91351C70.3478 5.83936 70.1649 5.77758 69.9351 5.77758C69.7077 5.77758 69.5223 5.83442 69.5223 5.90857C69.5223 5.98272 69.7052 6.04451 69.9326 6.04451C70.16 6.04451 70.3454 5.98766 70.3454 5.91351H70.3478ZM57.8561 90.7306L57.8685 90.9679C57.8709 91.0371 57.9303 91.089 57.9995 91.084C58.0365 91.084 58.0712 91.0642 58.0934 91.0346C58.4839 90.5131 58.7904 90.1226 59.3861 89.7938C61.5389 88.605 63.4915 87.4037 65.2439 86.1902C66.2696 85.4808 67.1866 84.5292 68.1925 83.7062C69.8683 82.3344 71.1412 80.6438 72.4907 78.9705C73.037 78.2932 73.1976 77.4949 73.6079 76.7485C73.9243 76.1701 74.0775 75.5547 74.3445 74.9491C74.7918 73.9456 75.0909 73.0089 75.5358 71.8818C76.0623 70.5496 76.4973 68.55 76.8384 65.8856C76.9867 64.7313 77.1028 63.1247 77.1869 61.0683C77.2511 59.4642 77.1102 57.6056 77.1448 55.8581C77.1869 53.6929 77.0831 51.4511 77.2239 49.2464C77.2462 48.9054 77.1449 48.4975 77.1473 48.2133C77.1622 45.9344 77.0905 43.6432 77.2091 41.3693C77.2833 39.9456 77.1201 38.2921 77.1597 37.1107C77.2734 33.8135 76.9595 29.6314 77.1374 27.3279C77.1992 26.532 77.2067 25.8597 77.1597 25.3135C76.9743 23.1805 77.1745 21.087 77.046 18.9786C76.9224 16.9766 77.1819 14.9202 77.0509 12.9206C76.9199 10.8791 77.0954 8.9141 77.0237 6.89723C77.0213 6.81072 76.9743 6.7687 76.8878 6.77117C73.8625 6.86757 70.8174 6.6995 67.8391 6.74646C66.5835 6.76623 65.3279 6.76623 64.0748 6.74646C63.3803 6.73657 62.3817 6.55614 61.4375 6.62782C61.0347 6.65748 60.088 6.69703 58.5976 6.74893C58.0094 6.7687 57.6312 6.89228 57.0701 6.59074C56.996 6.5512 56.9194 6.54378 56.8427 6.57097C56.4226 6.70938 56.1408 6.77118 55.9999 6.75882C55.7082 6.72916 54.9865 6.72916 53.8372 6.75882C53.0537 6.77859 51.3384 6.7687 48.6912 6.72915C47.4183 6.70938 45.2655 6.56603 43.5428 6.62535C41.825 6.6822 40.0158 6.57592 38.2485 6.71186C37.1017 6.79837 36.0488 6.4375 34.9044 6.56356C34.42 6.61793 34.022 6.64018 33.7131 6.63276C30.8015 6.5512 27.8898 6.56356 24.9782 6.67231C24.2689 6.6995 23.5175 6.56603 22.776 6.54873C21.3598 6.51907 20.0053 6.23977 18.7769 6.48199C17.6325 6.70691 16.6859 6.44986 15.6453 6.53637C14.8223 6.60557 14.2315 6.52648 13.4258 6.51412C11.2433 6.48199 8.98422 6.48446 6.64604 6.52154C6.27282 6.52895 6.07757 6.7168 6.06274 7.09002C5.99847 8.58537 5.93668 10.0362 5.87984 11.4426C5.86995 11.7441 5.94162 12.0729 5.93915 12.4312C5.91938 14.9054 5.83534 17.2435 5.87489 19.5175C5.90702 21.3786 5.92926 23.2373 5.93668 25.0985C5.93668 25.5953 5.8996 26.092 5.82298 26.5913C5.81062 26.6729 5.81804 26.7544 5.84523 26.8311C6.08251 27.491 5.91937 28.2102 5.93173 28.7046C6.00835 31.4555 5.93421 34.1447 5.99847 36.95C6.0306 38.428 5.91196 39.9629 6.07014 41.4286C6.10475 41.7524 6.00836 42.0391 5.78344 42.2888C5.72659 42.353 5.72907 42.4148 5.79086 42.4741C6.01578 42.6892 6.11463 42.9339 6.08745 43.2033C5.74636 46.5944 6.08498 50.2747 6.06768 53.3988C6.05533 55.4231 5.96882 57.4844 6.03555 59.4741C6.14925 62.8454 6.15665 66.5035 7.18238 70.2703C8.64313 75.6313 11.3372 80.2607 15.2647 84.1881C15.7368 84.6602 16.7823 85.5129 18.4012 86.7512C21.1521 88.8546 24.0835 89.8433 27.0594 91.3238C28.2977 91.9392 29.4692 92.347 30.7174 92.8265C32.2103 93.3975 33.8737 94.1686 35.4605 94.8335C36.9633 95.4638 38.5699 95.8593 40.1468 96.3239C40.3297 96.3783 40.4656 96.492 40.6312 96.5884C40.7078 96.6329 40.7721 96.6205 40.8265 96.5538C40.9847 96.3635 41.1453 96.2349 41.4073 96.1929C42.7049 95.9828 43.9605 95.6368 45.1716 95.1499C46.3803 94.663 47.2305 94.3466 47.7199 94.1958C49.5168 93.6521 51.3112 93.1058 53.1056 92.5547C54.7221 92.0579 56.1062 91.3361 57.5818 90.5724C57.6732 90.5254 57.7869 90.5576 57.8339 90.649C57.8462 90.6737 57.8536 90.6984 57.8561 90.7256V90.7306Z" stroke="#EAFE01" stroke-width="6" mask="url(#path-1-outside-1_192_344)"/>
<mask id="path-2-outside-2_192_344" maskUnits="userSpaceOnUse" x="11.3359" y="11.0449" width="61" height="79" fill="black">
<rect fill="white" x="11.3359" y="11.0449" width="61" height="79"/>
<path d="M45.3255 16.4072C46.1511 16.5135 46.7393 16.4368 47.6242 16.8323C48.3187 17.1437 48.9959 17.2228 49.7152 17.4181C50.0785 17.5194 50.4418 17.5837 50.8052 17.6109C51.6801 17.6801 52.4785 17.8655 53.3806 17.8284C53.8848 17.8086 54.3124 17.8951 54.7994 17.7715C56.0475 17.4576 56.8978 17.1561 57.3526 16.8719C59.4213 15.5767 61.6508 15.0527 64.0384 15.2974C65.9984 15.4976 66.8116 16.8372 67.7557 18.3054C67.9782 18.6514 68.1018 19.0049 68.1289 19.3657C68.2253 20.7128 67.6544 22.2279 67.3701 23.5577C67.123 24.7317 66.6015 25.7747 66.1788 26.8919C65.5906 28.4515 65.4843 30.0902 65.2717 31.7561C65.2594 31.8352 65.2717 31.9168 65.3039 31.9909C65.7512 33.0686 65.8921 34.1882 66.3691 35.1942C66.8882 36.2866 67.3899 37.3865 67.8768 38.4914C68.1413 39.0944 68.2649 39.6679 68.2476 40.2116C68.2476 40.2932 68.2649 40.3673 68.3044 40.439C68.8556 41.3782 68.9792 42.3447 68.6801 43.3358C68.0449 45.449 67.7804 47.021 66.9302 49.1615C66.5866 50.029 66.3024 50.7853 66.08 51.4304C65.7265 52.4537 65.289 53.4695 65.1407 54.5052C64.8787 56.3564 64.9479 58.1929 65.3508 60.0194C65.4027 60.2641 65.5609 60.6991 65.8229 61.3244C66.0651 61.9053 66.1763 62.5875 66.3518 63.1114C66.5891 63.8183 66.8066 64.5302 67.0068 65.2445C67.3183 66.3617 67.1353 67.7977 66.7498 68.8803C66.5397 69.466 66.5446 70.0568 66.3222 70.6005C65.7562 71.9797 65.0171 73.3366 64.1051 74.6738C63.7566 75.183 63.376 75.5834 62.9607 75.8726C60.5262 77.5681 59.1 78.6037 56.5666 79.0808C56.5567 79.0808 56.0352 79.145 54.9996 79.2711C53.7069 79.4268 52.5131 79.8494 51.4132 80.5341C50.5951 81.0457 50.1749 81.3052 50.1551 81.3176C48.1828 82.4496 46.853 83.5668 45.239 84.7927C43.2395 86.3103 41.1633 86.5352 38.8201 86.4314C36.8898 86.3474 35.4315 84.8051 33.8126 83.9252C33.0241 83.4951 32.1689 82.3928 31.5387 81.7304C29.1807 79.2587 26.3532 77.9215 23.5231 76.6338C22.6556 76.2384 21.7584 75.6476 20.8439 75.1953C20.2927 74.9235 19.8725 74.5379 19.3584 74.2017C18.9975 73.9644 18.7059 73.6926 18.481 73.3861C17.1215 71.5126 16.1527 70.2125 16.0439 67.7062C16.0167 67.1007 15.9475 66.4259 15.8314 65.6869C15.6929 64.8045 15.6756 64.0482 15.7819 63.413C16.1527 61.2058 16.4567 59.7426 16.694 59.0258C17.1611 57.6021 17.6183 56.2328 17.6282 54.7227C17.6381 53.4399 17.5541 52.4043 17.3761 51.6109C17.2377 50.9954 16.8126 49.9054 16.558 48.981C16.427 48.5065 16.123 48.1061 15.9623 47.7032C15.5694 46.7244 15.0478 45.9014 14.8476 44.8311C14.7389 44.2355 14.509 43.5978 14.425 43.0812C14.2198 41.8256 14.4151 40.5651 14.551 39.4726C14.8526 37.0553 16.0736 34.7419 17.0326 32.5075C17.1487 32.2331 17.2624 31.9044 17.3737 31.5188C17.6628 30.5153 18.2363 29.2523 17.9644 28.1945C17.6802 27.0798 17.6628 25.9749 17.3094 24.8602C16.8497 23.4168 15.5966 21.9288 15.075 20.609C14.3632 18.817 14.9193 16.7853 15.9129 15.2999C16.3949 14.5831 17.7469 14.3162 18.5526 14.116C19.0593 13.9899 19.3979 14.0344 19.9318 14.2272C20.9724 14.6029 21.6669 14.4521 22.752 15.2307C23.1054 15.4828 23.9804 15.856 25.3744 16.3503C26.499 16.7483 27.3047 17.5417 28.5826 17.554C28.9237 17.5565 29.3438 17.5095 29.8456 17.4131C30.8021 17.2278 31.7166 17.1116 32.6386 16.7903C33.862 16.3627 35.0237 16.0908 36.1557 15.374C37.3693 14.6029 38.4099 14.6177 39.621 14.2667C40.9285 13.8886 43.494 15.0527 44.8608 15.4605C44.9523 15.4877 45.0067 15.5471 45.0265 15.641L45.155 16.249C45.1723 16.333 45.2415 16.3973 45.3255 16.4072ZM38.9388 15.2776L38.961 15.3815C38.9734 15.4334 39.003 15.4531 39.055 15.4457C39.1019 15.4383 39.1266 15.4037 39.1266 15.3394C39.1266 15.2504 39.1242 15.201 39.1118 15.1911C39.0698 15.1516 39.0055 15.1516 38.966 15.1911C38.9437 15.2134 38.9338 15.2455 38.9388 15.2776ZM39.0698 15.6385C38.3975 16.0908 37.6733 16.1131 37.0233 16.5407C35.7627 17.3736 34.2748 17.8753 32.7671 18.3079C31.6375 18.6341 30.6365 18.7973 29.764 18.7997C28.8668 18.8022 27.9795 18.7033 27.107 18.5031C25.0036 18.0212 23.2562 16.4072 21.1429 15.861C20.0208 15.5693 19.6278 15.4037 18.3351 15.6904C17.2526 15.9302 16.5209 16.5135 16.1403 17.4403C15.9475 17.9124 15.992 18.3969 16.2713 18.8961C16.3059 18.9579 16.3232 19.0271 16.3232 19.0988V19.912C16.3232 19.9935 16.3479 20.0677 16.3974 20.1344C17.2105 21.2318 17.6307 22.4973 18.2832 23.6911C18.7034 24.4598 19.1038 25.7549 19.482 27.5716C19.6426 28.3502 19.608 29.0966 19.3782 29.8134C19.2546 30.1965 19.1533 30.5648 19.0742 30.9182C18.8072 32.117 18.1522 33.3973 17.5739 34.3637C17.3193 34.7888 17.386 35.4067 17.171 35.9208C16.3405 37.908 15.7794 40.0386 15.8239 42.2087C15.8338 42.7327 16.034 43.1801 16.1576 43.6942C16.4715 45.0264 17.1562 46.1213 17.4701 47.498C17.6727 48.3854 17.9619 49.2406 18.3351 50.0686C18.9061 51.334 19.3584 52.4117 19.1705 53.5239C19.0025 54.5225 18.9456 55.4864 18.7133 56.4874C18.3598 58.0075 18.1745 59.5251 17.3391 61.0377C17.2995 61.1069 17.2847 61.1885 17.297 61.2676C17.4033 62.0165 17.1364 62.7308 17.124 63.3512C17.1117 64.0111 17.0919 64.6686 17.0672 65.3285C17.0202 66.6063 17.6752 68.2821 18.1003 69.6984C18.2363 70.1581 18.4488 70.5832 18.7331 70.9762C19.346 71.8166 19.9466 72.6668 20.5349 73.5245C20.8265 73.9521 21.4618 74.1375 21.8721 74.4266C23.7258 75.7267 25.8687 76.2285 27.5099 77.3852C28.6691 78.2008 29.895 78.9151 30.8219 80.0175C31.2791 80.5637 31.8106 81.0334 32.4136 81.4313C32.8437 81.7155 33.123 82.1777 33.5531 82.5015C35.0509 83.6236 36.828 85.4502 38.8029 85.423C39.4405 85.4131 40.009 85.6183 40.6368 85.5614C41.8059 85.4551 42.7451 85.2006 43.457 84.7977C44.7299 84.0784 46.502 82.8204 48.7759 81.0235C49.945 80.0991 51.2822 79.4737 52.5081 78.7397C52.7256 78.6087 52.9629 78.5123 53.2101 78.453C54.5893 78.1316 56.0179 77.971 57.4045 77.5607C58.4055 77.2641 59.4732 76.6412 60.2914 76.357C60.8203 76.1716 61.2281 75.8973 61.5123 75.5364C62.2786 74.5601 63.2326 73.7544 63.7541 72.7385C64.7008 70.8922 65.2964 69.6415 65.5411 68.9841C65.902 68.0103 65.3656 66.9969 65.331 65.9687C65.3063 65.2049 65.1061 64.5573 65.0715 63.7664C65.027 62.711 64.293 61.9399 63.9519 60.9512C63.6577 60.101 63.7912 59.3323 63.6182 58.5092C63.3661 57.3105 63.245 56.3095 63.24 55.4419C63.2351 53.9639 63.7714 53.1804 64.1743 51.9594C64.335 51.47 64.5698 51.0894 64.8268 50.6642C65.2668 49.9301 65.4719 49.1343 65.7957 48.3508C65.8872 48.1332 65.9712 47.8688 66.0528 47.5574C66.2332 46.8653 66.5743 46.1782 66.7028 45.5627C66.8437 44.8756 66.9623 44.1836 67.0587 43.4866C67.1428 42.8612 66.908 42.226 66.9104 41.5537C66.9104 40.093 66.0231 38.6841 65.4892 37.3371C65.3459 36.9787 65.1407 36.5511 64.8738 36.0593C64.4932 35.3573 64.2435 34.4329 64.1273 33.2861C64.1026 33.0463 64.0137 32.3938 63.8579 31.3335C63.675 30.0729 63.7492 28.6863 64.372 27.5345C64.8417 26.667 65.3904 25.8118 65.7586 24.9541C66.2925 23.706 66.3716 22.7494 66.552 21.5556C66.8338 19.6846 66.5422 18.2807 65.1679 16.993C64.6736 16.5308 64.0458 16.3627 63.4155 16.0982C63.3389 16.0661 63.2623 16.0611 63.1807 16.0784C61.9844 16.3355 60.8326 16.7211 59.7229 17.2352C59.1494 17.5021 58.8454 17.9643 58.2275 18.1843C57.6269 18.3993 57.0313 18.6317 56.4405 18.8764C55.6274 19.215 54.4113 19.2496 53.5166 19.0914C52.7751 18.9604 52.0212 18.953 51.2575 19.0691C51.1759 19.0815 51.0944 19.0667 51.0227 19.0296C50.0736 18.5476 48.9984 18.4858 48.1135 18.1793C47.1941 17.8605 46.2499 17.7913 45.5678 16.9534C45.5183 16.8916 45.4491 16.8447 45.37 16.8224C44.6532 16.6123 43.9711 16.4739 43.2666 16.1674C41.9715 15.6088 40.842 15.552 39.2873 15.5718C39.2082 15.5718 39.1365 15.5965 39.0698 15.6385ZM15.3074 44.3146C15.3 44.3343 15.3074 44.3566 15.3247 44.3714C15.3617 44.406 15.4062 44.4283 15.4581 44.4357C15.5446 44.453 15.6262 44.3961 15.6435 44.3121C15.646 44.2973 15.6485 44.28 15.6435 44.2627C15.6361 44.191 15.6015 44.1341 15.5372 44.0971C15.4309 44.0353 15.3642 44.0624 15.3346 44.1811L15.3049 44.3146H15.3074Z"/>
</mask>
<path d="M45.3255 16.4072C46.1511 16.5135 46.7393 16.4368 47.6242 16.8323C48.3187 17.1437 48.9959 17.2228 49.7152 17.4181C50.0785 17.5194 50.4418 17.5837 50.8052 17.6109C51.6801 17.6801 52.4785 17.8655 53.3806 17.8284C53.8848 17.8086 54.3124 17.8951 54.7994 17.7715C56.0475 17.4576 56.8978 17.1561 57.3526 16.8719C59.4213 15.5767 61.6508 15.0527 64.0384 15.2974C65.9984 15.4976 66.8116 16.8372 67.7557 18.3054C67.9782 18.6514 68.1018 19.0049 68.1289 19.3657C68.2253 20.7128 67.6544 22.2279 67.3701 23.5577C67.123 24.7317 66.6015 25.7747 66.1788 26.8919C65.5906 28.4515 65.4843 30.0902 65.2717 31.7561C65.2594 31.8352 65.2717 31.9168 65.3039 31.9909C65.7512 33.0686 65.8921 34.1882 66.3691 35.1942C66.8882 36.2866 67.3899 37.3865 67.8768 38.4914C68.1413 39.0944 68.2649 39.6679 68.2476 40.2116C68.2476 40.2932 68.2649 40.3673 68.3044 40.439C68.8556 41.3782 68.9792 42.3447 68.6801 43.3358C68.0449 45.449 67.7804 47.021 66.9302 49.1615C66.5866 50.029 66.3024 50.7853 66.08 51.4304C65.7265 52.4537 65.289 53.4695 65.1407 54.5052C64.8787 56.3564 64.9479 58.1929 65.3508 60.0194C65.4027 60.2641 65.5609 60.6991 65.8229 61.3244C66.0651 61.9053 66.1763 62.5875 66.3518 63.1114C66.5891 63.8183 66.8066 64.5302 67.0068 65.2445C67.3183 66.3617 67.1353 67.7977 66.7498 68.8803C66.5397 69.466 66.5446 70.0568 66.3222 70.6005C65.7562 71.9797 65.0171 73.3366 64.1051 74.6738C63.7566 75.183 63.376 75.5834 62.9607 75.8726C60.5262 77.5681 59.1 78.6037 56.5666 79.0808C56.5567 79.0808 56.0352 79.145 54.9996 79.2711C53.7069 79.4268 52.5131 79.8494 51.4132 80.5341C50.5951 81.0457 50.1749 81.3052 50.1551 81.3176C48.1828 82.4496 46.853 83.5668 45.239 84.7927C43.2395 86.3103 41.1633 86.5352 38.8201 86.4314C36.8898 86.3474 35.4315 84.8051 33.8126 83.9252C33.0241 83.4951 32.1689 82.3928 31.5387 81.7304C29.1807 79.2587 26.3532 77.9215 23.5231 76.6338C22.6556 76.2384 21.7584 75.6476 20.8439 75.1953C20.2927 74.9235 19.8725 74.5379 19.3584 74.2017C18.9975 73.9644 18.7059 73.6926 18.481 73.3861C17.1215 71.5126 16.1527 70.2125 16.0439 67.7062C16.0167 67.1007 15.9475 66.4259 15.8314 65.6869C15.6929 64.8045 15.6756 64.0482 15.7819 63.413C16.1527 61.2058 16.4567 59.7426 16.694 59.0258C17.1611 57.6021 17.6183 56.2328 17.6282 54.7227C17.6381 53.4399 17.5541 52.4043 17.3761 51.6109C17.2377 50.9954 16.8126 49.9054 16.558 48.981C16.427 48.5065 16.123 48.1061 15.9623 47.7032C15.5694 46.7244 15.0478 45.9014 14.8476 44.8311C14.7389 44.2355 14.509 43.5978 14.425 43.0812C14.2198 41.8256 14.4151 40.5651 14.551 39.4726C14.8526 37.0553 16.0736 34.7419 17.0326 32.5075C17.1487 32.2331 17.2624 31.9044 17.3737 31.5188C17.6628 30.5153 18.2363 29.2523 17.9644 28.1945C17.6802 27.0798 17.6628 25.9749 17.3094 24.8602C16.8497 23.4168 15.5966 21.9288 15.075 20.609C14.3632 18.817 14.9193 16.7853 15.9129 15.2999C16.3949 14.5831 17.7469 14.3162 18.5526 14.116C19.0593 13.9899 19.3979 14.0344 19.9318 14.2272C20.9724 14.6029 21.6669 14.4521 22.752 15.2307C23.1054 15.4828 23.9804 15.856 25.3744 16.3503C26.499 16.7483 27.3047 17.5417 28.5826 17.554C28.9237 17.5565 29.3438 17.5095 29.8456 17.4131C30.8021 17.2278 31.7166 17.1116 32.6386 16.7903C33.862 16.3627 35.0237 16.0908 36.1557 15.374C37.3693 14.6029 38.4099 14.6177 39.621 14.2667C40.9285 13.8886 43.494 15.0527 44.8608 15.4605C44.9523 15.4877 45.0067 15.5471 45.0265 15.641L45.155 16.249C45.1723 16.333 45.2415 16.3973 45.3255 16.4072ZM38.9388 15.2776L38.961 15.3815C38.9734 15.4334 39.003 15.4531 39.055 15.4457C39.1019 15.4383 39.1266 15.4037 39.1266 15.3394C39.1266 15.2504 39.1242 15.201 39.1118 15.1911C39.0698 15.1516 39.0055 15.1516 38.966 15.1911C38.9437 15.2134 38.9338 15.2455 38.9388 15.2776ZM39.0698 15.6385C38.3975 16.0908 37.6733 16.1131 37.0233 16.5407C35.7627 17.3736 34.2748 17.8753 32.7671 18.3079C31.6375 18.6341 30.6365 18.7973 29.764 18.7997C28.8668 18.8022 27.9795 18.7033 27.107 18.5031C25.0036 18.0212 23.2562 16.4072 21.1429 15.861C20.0208 15.5693 19.6278 15.4037 18.3351 15.6904C17.2526 15.9302 16.5209 16.5135 16.1403 17.4403C15.9475 17.9124 15.992 18.3969 16.2713 18.8961C16.3059 18.9579 16.3232 19.0271 16.3232 19.0988V19.912C16.3232 19.9935 16.3479 20.0677 16.3974 20.1344C17.2105 21.2318 17.6307 22.4973 18.2832 23.6911C18.7034 24.4598 19.1038 25.7549 19.482 27.5716C19.6426 28.3502 19.608 29.0966 19.3782 29.8134C19.2546 30.1965 19.1533 30.5648 19.0742 30.9182C18.8072 32.117 18.1522 33.3973 17.5739 34.3637C17.3193 34.7888 17.386 35.4067 17.171 35.9208C16.3405 37.908 15.7794 40.0386 15.8239 42.2087C15.8338 42.7327 16.034 43.1801 16.1576 43.6942C16.4715 45.0264 17.1562 46.1213 17.4701 47.498C17.6727 48.3854 17.9619 49.2406 18.3351 50.0686C18.9061 51.334 19.3584 52.4117 19.1705 53.5239C19.0025 54.5225 18.9456 55.4864 18.7133 56.4874C18.3598 58.0075 18.1745 59.5251 17.3391 61.0377C17.2995 61.1069 17.2847 61.1885 17.297 61.2676C17.4033 62.0165 17.1364 62.7308 17.124 63.3512C17.1117 64.0111 17.0919 64.6686 17.0672 65.3285C17.0202 66.6063 17.6752 68.2821 18.1003 69.6984C18.2363 70.1581 18.4488 70.5832 18.7331 70.9762C19.346 71.8166 19.9466 72.6668 20.5349 73.5245C20.8265 73.9521 21.4618 74.1375 21.8721 74.4266C23.7258 75.7267 25.8687 76.2285 27.5099 77.3852C28.6691 78.2008 29.895 78.9151 30.8219 80.0175C31.2791 80.5637 31.8106 81.0334 32.4136 81.4313C32.8437 81.7155 33.123 82.1777 33.5531 82.5015C35.0509 83.6236 36.828 85.4502 38.8029 85.423C39.4405 85.4131 40.009 85.6183 40.6368 85.5614C41.8059 85.4551 42.7451 85.2006 43.457 84.7977C44.7299 84.0784 46.502 82.8204 48.7759 81.0235C49.945 80.0991 51.2822 79.4737 52.5081 78.7397C52.7256 78.6087 52.9629 78.5123 53.2101 78.453C54.5893 78.1316 56.0179 77.971 57.4045 77.5607C58.4055 77.2641 59.4732 76.6412 60.2914 76.357C60.8203 76.1716 61.2281 75.8973 61.5123 75.5364C62.2786 74.5601 63.2326 73.7544 63.7541 72.7385C64.7008 70.8922 65.2964 69.6415 65.5411 68.9841C65.902 68.0103 65.3656 66.9969 65.331 65.9687C65.3063 65.2049 65.1061 64.5573 65.0715 63.7664C65.027 62.711 64.293 61.9399 63.9519 60.9512C63.6577 60.101 63.7912 59.3323 63.6182 58.5092C63.3661 57.3105 63.245 56.3095 63.24 55.4419C63.2351 53.9639 63.7714 53.1804 64.1743 51.9594C64.335 51.47 64.5698 51.0894 64.8268 50.6642C65.2668 49.9301 65.4719 49.1343 65.7957 48.3508C65.8872 48.1332 65.9712 47.8688 66.0528 47.5574C66.2332 46.8653 66.5743 46.1782 66.7028 45.5627C66.8437 44.8756 66.9623 44.1836 67.0587 43.4866C67.1428 42.8612 66.908 42.226 66.9104 41.5537C66.9104 40.093 66.0231 38.6841 65.4892 37.3371C65.3459 36.9787 65.1407 36.5511 64.8738 36.0593C64.4932 35.3573 64.2435 34.4329 64.1273 33.2861C64.1026 33.0463 64.0137 32.3938 63.8579 31.3335C63.675 30.0729 63.7492 28.6863 64.372 27.5345C64.8417 26.667 65.3904 25.8118 65.7586 24.9541C66.2925 23.706 66.3716 22.7494 66.552 21.5556C66.8338 19.6846 66.5422 18.2807 65.1679 16.993C64.6736 16.5308 64.0458 16.3627 63.4155 16.0982C63.3389 16.0661 63.2623 16.0611 63.1807 16.0784C61.9844 16.3355 60.8326 16.7211 59.7229 17.2352C59.1494 17.5021 58.8454 17.9643 58.2275 18.1843C57.6269 18.3993 57.0313 18.6317 56.4405 18.8764C55.6274 19.215 54.4113 19.2496 53.5166 19.0914C52.7751 18.9604 52.0212 18.953 51.2575 19.0691C51.1759 19.0815 51.0944 19.0667 51.0227 19.0296C50.0736 18.5476 48.9984 18.4858 48.1135 18.1793C47.1941 17.8605 46.2499 17.7913 45.5678 16.9534C45.5183 16.8916 45.4491 16.8447 45.37 16.8224C44.6532 16.6123 43.9711 16.4739 43.2666 16.1674C41.9715 15.6088 40.842 15.552 39.2873 15.5718C39.2082 15.5718 39.1365 15.5965 39.0698 15.6385ZM15.3074 44.3146C15.3 44.3343 15.3074 44.3566 15.3247 44.3714C15.3617 44.406 15.4062 44.4283 15.4581 44.4357C15.5446 44.453 15.6262 44.3961 15.6435 44.3121C15.646 44.2973 15.6485 44.28 15.6435 44.2627C15.6361 44.191 15.6015 44.1341 15.5372 44.0971C15.4309 44.0353 15.3642 44.0624 15.3346 44.1811L15.3049 44.3146H15.3074Z" fill="#EAFE01"/>
<path d="M45.3255 16.4072C46.1511 16.5135 46.7393 16.4368 47.6242 16.8323C48.3187 17.1437 48.9959 17.2228 49.7152 17.4181C50.0785 17.5194 50.4418 17.5837 50.8052 17.6109C51.6801 17.6801 52.4785 17.8655 53.3806 17.8284C53.8848 17.8086 54.3124 17.8951 54.7994 17.7715C56.0475 17.4576 56.8978 17.1561 57.3526 16.8719C59.4213 15.5767 61.6508 15.0527 64.0384 15.2974C65.9984 15.4976 66.8116 16.8372 67.7557 18.3054C67.9782 18.6514 68.1018 19.0049 68.1289 19.3657C68.2253 20.7128 67.6544 22.2279 67.3701 23.5577C67.123 24.7317 66.6015 25.7747 66.1788 26.8919C65.5906 28.4515 65.4843 30.0902 65.2717 31.7561C65.2594 31.8352 65.2717 31.9168 65.3039 31.9909C65.7512 33.0686 65.8921 34.1882 66.3691 35.1942C66.8882 36.2866 67.3899 37.3865 67.8768 38.4914C68.1413 39.0944 68.2649 39.6679 68.2476 40.2116C68.2476 40.2932 68.2649 40.3673 68.3044 40.439C68.8556 41.3782 68.9792 42.3447 68.6801 43.3358C68.0449 45.449 67.7804 47.021 66.9302 49.1615C66.5866 50.029 66.3024 50.7853 66.08 51.4304C65.7265 52.4537 65.289 53.4695 65.1407 54.5052C64.8787 56.3564 64.9479 58.1929 65.3508 60.0194C65.4027 60.2641 65.5609 60.6991 65.8229 61.3244C66.0651 61.9053 66.1763 62.5875 66.3518 63.1114C66.5891 63.8183 66.8066 64.5302 67.0068 65.2445C67.3183 66.3617 67.1353 67.7977 66.7498 68.8803C66.5397 69.466 66.5446 70.0568 66.3222 70.6005C65.7562 71.9797 65.0171 73.3366 64.1051 74.6738C63.7566 75.183 63.376 75.5834 62.9607 75.8726C60.5262 77.5681 59.1 78.6037 56.5666 79.0808C56.5567 79.0808 56.0352 79.145 54.9996 79.2711C53.7069 79.4268 52.5131 79.8494 51.4132 80.5341C50.5951 81.0457 50.1749 81.3052 50.1551 81.3176C48.1828 82.4496 46.853 83.5668 45.239 84.7927C43.2395 86.3103 41.1633 86.5352 38.8201 86.4314C36.8898 86.3474 35.4315 84.8051 33.8126 83.9252C33.0241 83.4951 32.1689 82.3928 31.5387 81.7304C29.1807 79.2587 26.3532 77.9215 23.5231 76.6338C22.6556 76.2384 21.7584 75.6476 20.8439 75.1953C20.2927 74.9235 19.8725 74.5379 19.3584 74.2017C18.9975 73.9644 18.7059 73.6926 18.481 73.3861C17.1215 71.5126 16.1527 70.2125 16.0439 67.7062C16.0167 67.1007 15.9475 66.4259 15.8314 65.6869C15.6929 64.8045 15.6756 64.0482 15.7819 63.413C16.1527 61.2058 16.4567 59.7426 16.694 59.0258C17.1611 57.6021 17.6183 56.2328 17.6282 54.7227C17.6381 53.4399 17.5541 52.4043 17.3761 51.6109C17.2377 50.9954 16.8126 49.9054 16.558 48.981C16.427 48.5065 16.123 48.1061 15.9623 47.7032C15.5694 46.7244 15.0478 45.9014 14.8476 44.8311C14.7389 44.2355 14.509 43.5978 14.425 43.0812C14.2198 41.8256 14.4151 40.5651 14.551 39.4726C14.8526 37.0553 16.0736 34.7419 17.0326 32.5075C17.1487 32.2331 17.2624 31.9044 17.3737 31.5188C17.6628 30.5153 18.2363 29.2523 17.9644 28.1945C17.6802 27.0798 17.6628 25.9749 17.3094 24.8602C16.8497 23.4168 15.5966 21.9288 15.075 20.609C14.3632 18.817 14.9193 16.7853 15.9129 15.2999C16.3949 14.5831 17.7469 14.3162 18.5526 14.116C19.0593 13.9899 19.3979 14.0344 19.9318 14.2272C20.9724 14.6029 21.6669 14.4521 22.752 15.2307C23.1054 15.4828 23.9804 15.856 25.3744 16.3503C26.499 16.7483 27.3047 17.5417 28.5826 17.554C28.9237 17.5565 29.3438 17.5095 29.8456 17.4131C30.8021 17.2278 31.7166 17.1116 32.6386 16.7903C33.862 16.3627 35.0237 16.0908 36.1557 15.374C37.3693 14.6029 38.4099 14.6177 39.621 14.2667C40.9285 13.8886 43.494 15.0527 44.8608 15.4605C44.9523 15.4877 45.0067 15.5471 45.0265 15.641L45.155 16.249C45.1723 16.333 45.2415 16.3973 45.3255 16.4072ZM38.9388 15.2776L38.961 15.3815C38.9734 15.4334 39.003 15.4531 39.055 15.4457C39.1019 15.4383 39.1266 15.4037 39.1266 15.3394C39.1266 15.2504 39.1242 15.201 39.1118 15.1911C39.0698 15.1516 39.0055 15.1516 38.966 15.1911C38.9437 15.2134 38.9338 15.2455 38.9388 15.2776ZM39.0698 15.6385C38.3975 16.0908 37.6733 16.1131 37.0233 16.5407C35.7627 17.3736 34.2748 17.8753 32.7671 18.3079C31.6375 18.6341 30.6365 18.7973 29.764 18.7997C28.8668 18.8022 27.9795 18.7033 27.107 18.5031C25.0036 18.0212 23.2562 16.4072 21.1429 15.861C20.0208 15.5693 19.6278 15.4037 18.3351 15.6904C17.2526 15.9302 16.5209 16.5135 16.1403 17.4403C15.9475 17.9124 15.992 18.3969 16.2713 18.8961C16.3059 18.9579 16.3232 19.0271 16.3232 19.0988V19.912C16.3232 19.9935 16.3479 20.0677 16.3974 20.1344C17.2105 21.2318 17.6307 22.4973 18.2832 23.6911C18.7034 24.4598 19.1038 25.7549 19.482 27.5716C19.6426 28.3502 19.608 29.0966 19.3782 29.8134C19.2546 30.1965 19.1533 30.5648 19.0742 30.9182C18.8072 32.117 18.1522 33.3973 17.5739 34.3637C17.3193 34.7888 17.386 35.4067 17.171 35.9208C16.3405 37.908 15.7794 40.0386 15.8239 42.2087C15.8338 42.7327 16.034 43.1801 16.1576 43.6942C16.4715 45.0264 17.1562 46.1213 17.4701 47.498C17.6727 48.3854 17.9619 49.2406 18.3351 50.0686C18.9061 51.334 19.3584 52.4117 19.1705 53.5239C19.0025 54.5225 18.9456 55.4864 18.7133 56.4874C18.3598 58.0075 18.1745 59.5251 17.3391 61.0377C17.2995 61.1069 17.2847 61.1885 17.297 61.2676C17.4033 62.0165 17.1364 62.7308 17.124 63.3512C17.1117 64.0111 17.0919 64.6686 17.0672 65.3285C17.0202 66.6063 17.6752 68.2821 18.1003 69.6984C18.2363 70.1581 18.4488 70.5832 18.7331 70.9762C19.346 71.8166 19.9466 72.6668 20.5349 73.5245C20.8265 73.9521 21.4618 74.1375 21.8721 74.4266C23.7258 75.7267 25.8687 76.2285 27.5099 77.3852C28.6691 78.2008 29.895 78.9151 30.8219 80.0175C31.2791 80.5637 31.8106 81.0334 32.4136 81.4313C32.8437 81.7155 33.123 82.1777 33.5531 82.5015C35.0509 83.6236 36.828 85.4502 38.8029 85.423C39.4405 85.4131 40.009 85.6183 40.6368 85.5614C41.8059 85.4551 42.7451 85.2006 43.457 84.7977C44.7299 84.0784 46.502 82.8204 48.7759 81.0235C49.945 80.0991 51.2822 79.4737 52.5081 78.7397C52.7256 78.6087 52.9629 78.5123 53.2101 78.453C54.5893 78.1316 56.0179 77.971 57.4045 77.5607C58.4055 77.2641 59.4732 76.6412 60.2914 76.357C60.8203 76.1716 61.2281 75.8973 61.5123 75.5364C62.2786 74.5601 63.2326 73.7544 63.7541 72.7385C64.7008 70.8922 65.2964 69.6415 65.5411 68.9841C65.902 68.0103 65.3656 66.9969 65.331 65.9687C65.3063 65.2049 65.1061 64.5573 65.0715 63.7664C65.027 62.711 64.293 61.9399 63.9519 60.9512C63.6577 60.101 63.7912 59.3323 63.6182 58.5092C63.3661 57.3105 63.245 56.3095 63.24 55.4419C63.2351 53.9639 63.7714 53.1804 64.1743 51.9594C64.335 51.47 64.5698 51.0894 64.8268 50.6642C65.2668 49.9301 65.4719 49.1343 65.7957 48.3508C65.8872 48.1332 65.9712 47.8688 66.0528 47.5574C66.2332 46.8653 66.5743 46.1782 66.7028 45.5627C66.8437 44.8756 66.9623 44.1836 67.0587 43.4866C67.1428 42.8612 66.908 42.226 66.9104 41.5537C66.9104 40.093 66.0231 38.6841 65.4892 37.3371C65.3459 36.9787 65.1407 36.5511 64.8738 36.0593C64.4932 35.3573 64.2435 34.4329 64.1273 33.2861C64.1026 33.0463 64.0137 32.3938 63.8579 31.3335C63.675 30.0729 63.7492 28.6863 64.372 27.5345C64.8417 26.667 65.3904 25.8118 65.7586 24.9541C66.2925 23.706 66.3716 22.7494 66.552 21.5556C66.8338 19.6846 66.5422 18.2807 65.1679 16.993C64.6736 16.5308 64.0458 16.3627 63.4155 16.0982C63.3389 16.0661 63.2623 16.0611 63.1807 16.0784C61.9844 16.3355 60.8326 16.7211 59.7229 17.2352C59.1494 17.5021 58.8454 17.9643 58.2275 18.1843C57.6269 18.3993 57.0313 18.6317 56.4405 18.8764C55.6274 19.215 54.4113 19.2496 53.5166 19.0914C52.7751 18.9604 52.0212 18.953 51.2575 19.0691C51.1759 19.0815 51.0944 19.0667 51.0227 19.0296C50.0736 18.5476 48.9984 18.4858 48.1135 18.1793C47.1941 17.8605 46.2499 17.7913 45.5678 16.9534C45.5183 16.8916 45.4491 16.8447 45.37 16.8224C44.6532 16.6123 43.9711 16.4739 43.2666 16.1674C41.9715 15.6088 40.842 15.552 39.2873 15.5718C39.2082 15.5718 39.1365 15.5965 39.0698 15.6385ZM15.3074 44.3146C15.3 44.3343 15.3074 44.3566 15.3247 44.3714C15.3617 44.406 15.4062 44.4283 15.4581 44.4357C15.5446 44.453 15.6262 44.3961 15.6435 44.3121C15.646 44.2973 15.6485 44.28 15.6435 44.2627C15.6361 44.191 15.6015 44.1341 15.5372 44.0971C15.4309 44.0353 15.3642 44.0624 15.3346 44.1811L15.3049 44.3146H15.3074Z" stroke="#EAFE01" stroke-width="6" mask="url(#path-2-outside-2_192_344)"/>
</svg>
