<svg width="82" height="103" viewBox="0 0 82 103" fill="none" xmlns="http://www.w3.org/2000/svg">
<mask id="path-1-outside-1_192_332" maskUnits="userSpaceOnUse" x="0.828125" y="2.07812" width="81" height="99" fill="black">
<rect fill="white" x="0.828125" y="2.07812" width="81" height="99"/>
<path d="M35.4235 6.21053C35.4408 6.02021 35.4136 5.83731 35.337 5.65935C35.2653 5.49622 35.3419 5.30838 35.5051 5.2367C35.5347 5.22434 35.5669 5.21446 35.599 5.21198C36.4913 5.12301 37.4577 5.29355 38.1522 5.29108C39.2373 5.29108 40.4632 5.18232 41.5186 5.4196C41.9709 5.52094 42.3046 5.56296 42.5147 5.5506C43.8617 5.46904 45.2063 5.45173 46.5533 5.50364C47.233 5.52836 48.4392 5.44185 49.3685 5.54071C50.4981 5.65935 51.5485 5.38747 52.7127 5.55554C53.5852 5.67913 54.2006 5.47892 55.0187 5.49375C58.0613 5.5506 61.1039 5.58768 64.1465 5.60992C64.2157 5.60992 64.6236 5.64699 65.37 5.7162C65.9459 5.76811 66.5119 5.64699 67.026 5.6643C67.8985 5.69396 68.7018 5.72609 69.6039 5.65935C72.2239 5.46162 74.8735 5.83731 77.528 5.95348C77.6689 5.96089 77.7802 6.07953 77.7727 6.22289C77.664 8.39547 77.659 10.5507 77.7554 12.6862C77.7628 12.8271 77.7851 13.0076 77.8271 13.2226C77.9383 13.8084 77.7727 14.5202 77.7208 15.1183C77.5948 16.5346 77.7925 18.0077 77.7085 19.4462C77.6838 19.8689 77.7529 20.3088 77.7455 20.6845C77.5923 27.9487 77.6763 35.2301 77.4539 42.4894C77.1944 51.024 77.5058 59.917 76.5913 68.0932C76.4158 69.6651 76.176 70.9578 75.877 71.9737C75.1231 74.5195 73.9515 76.8453 72.5897 79.1192C70.8249 82.0703 68.1803 84.458 65.4812 86.5292C64.5173 87.2707 63.5657 88.1209 62.577 88.7339C60.4292 90.0637 58.1948 91.2278 55.8764 92.2239C53.9361 93.0568 51.5535 93.8156 49.3809 94.5843C47.4901 95.2541 45.5869 95.8918 43.6739 96.4924C42.4454 96.878 41.2245 97.4341 39.9985 97.8889C39.8675 97.9383 39.7217 97.9309 39.5981 97.8716C38.3425 97.2809 36.7236 96.7643 35.7448 96.3762C29.8005 94.0183 24.6372 91.8235 19.3281 89.1343C17.5312 88.2223 15.806 86.9865 14.3972 85.8075C13.2429 84.8435 12.0936 83.368 11.0011 82.0605C10.4772 81.4302 10.0051 80.753 9.58489 80.0288C8.84093 78.7435 8.07225 77.5423 7.44445 76.1878C7.34806 75.9802 7.25165 75.7948 7.15526 75.6342C6.0356 73.7483 5.27682 71.7611 4.88136 69.6775C4.71823 68.8223 4.42904 68.019 4.38455 67.233C4.32276 66.1035 3.93471 64.9764 3.87045 63.9359C3.83831 63.4341 3.82596 62.4578 3.82843 61.0094C3.8309 59.3188 3.99403 57.6282 3.90258 55.903C3.85067 54.9514 3.92235 53.5871 4.11514 51.805C4.14727 51.5183 4.09043 51.2044 4.09043 50.8979C4.10278 46.5107 4.1621 42.1236 4.27332 37.7364C4.28321 37.3755 4.29804 36.592 4.31534 35.3883C4.3796 31.3719 4.43893 27.3555 4.49083 23.339C4.53532 19.7626 4.85417 15.5781 4.7726 12.0313C4.75777 11.4133 4.75282 10.9042 4.76023 10.5063C4.78001 9.38165 4.68609 8.31143 4.78743 7.21402C4.84675 6.54915 4.77259 6.08942 4.67126 5.46656C4.6416 5.28366 4.76518 5.11312 4.94808 5.08346C4.96538 5.08099 4.98269 5.07852 4.99999 5.07852C7.25908 5.07357 9.56759 5.11559 11.928 5.2021C12.9142 5.23917 14.2242 5.08099 15.3933 5.23176C16.419 5.36523 17.5461 5.03897 18.3988 5.46656C18.4705 5.50364 18.5471 5.51105 18.6262 5.48881C19.3627 5.28366 20.1092 5.19468 20.8655 5.22187C23.3025 5.30591 25.7272 5.22681 28.1667 5.29849C28.2532 5.29849 28.3323 5.32321 28.4065 5.36523C28.7377 5.55802 29.0615 5.3331 29.3507 5.31827C31.0462 5.22187 32.7591 5.19221 34.4892 5.23423C34.6697 5.23917 34.8204 5.37017 34.8501 5.54813C34.897 5.83731 35.028 6.082 35.2381 6.27974C35.2826 6.32175 35.3543 6.31928 35.3938 6.27479C35.4111 6.25749 35.421 6.23525 35.4235 6.21053ZM7.11325 6.05482C7.08359 6.05482 7.05639 6.06223 7.03168 6.07212C6.96247 6.09931 6.96247 6.12402 7.03415 6.14627C7.22447 6.20806 7.42714 6.23525 7.63723 6.22783C7.76823 6.22289 7.788 6.17346 7.69655 6.082C7.57544 5.96089 7.4222 5.94359 7.23188 6.02516C7.19481 6.04246 7.15526 6.05234 7.11325 6.05482ZM11.844 6.16357C11.8489 6.09189 11.5869 6.01774 11.2607 6.00291C10.9344 5.98561 10.6675 6.0301 10.665 6.10178C10.6601 6.17346 10.9221 6.24761 11.2483 6.26243C11.5746 6.27974 11.8415 6.23525 11.844 6.16357ZM6.41377 6.40085C6.45826 6.35389 6.51759 6.31681 6.54972 6.28221C6.63623 6.18829 6.61398 6.13638 6.48793 6.12649L6.31738 6.11414C6.23335 6.10672 6.15919 6.16851 6.15177 6.25255C6.14683 6.29704 6.16414 6.34153 6.1938 6.37613C6.27536 6.46264 6.34703 6.47005 6.41377 6.40085ZM71.433 6.57881C71.4404 6.47005 71.2896 6.37366 71.0968 6.36377C70.904 6.35389 70.7434 6.43051 70.7384 6.53926C70.731 6.64801 70.8818 6.74441 71.0745 6.75429C71.2673 6.76418 71.428 6.68756 71.433 6.57881ZM38.9901 6.8581C39.0445 6.74688 39.0025 6.67026 38.8616 6.63071C38.7825 6.60847 38.7454 6.6406 38.7479 6.72216C38.7479 6.76418 38.7627 6.80125 38.7899 6.83091C38.8764 6.92236 38.8591 6.98663 38.738 7.02123C38.3005 7.14976 37.9125 7.19425 37.5689 7.15223C36.1897 6.98168 34.6573 7.10774 33.6909 7.08797C29.1406 6.99899 25.2181 7.10774 21.6564 7.06572C20.2921 7.05089 18.9846 7.16706 17.6128 7.02617C17.289 6.99404 16.7107 6.99651 15.8802 7.03606C13.8732 7.13245 11.8316 7.00393 9.8197 6.97921C8.94474 6.96685 7.70151 7.10032 6.62634 7.01382C6.54972 7.0064 6.51016 7.04348 6.51016 7.1201C6.51758 8.44243 6.53982 9.76229 6.57195 11.0797C6.61397 12.8716 6.52252 14.6018 6.4632 16.369C6.43354 17.2539 6.49287 18.3043 6.45332 19.2831C6.36187 21.4334 6.37175 23.4651 6.38411 25.5635C6.38658 26.3297 6.45332 27.0614 6.38905 27.704C6.24076 29.2315 6.19873 30.3313 6.26052 31.0012C6.51016 33.6532 6.05292 36.2411 6.20863 38.9104C6.24076 39.4764 6.12211 40.1586 6.12211 40.7246C6.12211 44.1132 6.10729 47.5019 6.08257 50.8905C6.08257 51.2761 5.98617 51.7284 5.99853 52.156C6.01583 52.6874 6.02077 53.0038 6.01336 53.1026C5.88731 55.5842 5.99359 58.0632 5.84776 60.5398C5.83046 60.829 5.84282 61.1157 5.88978 61.3975C6.04055 62.3342 6.10234 63.2784 6.07515 64.2275C6.04549 65.1148 6.22593 65.8909 6.30255 66.756C6.56702 69.7665 7.75835 72.9252 9.03125 75.6465C9.76533 77.221 10.8108 78.7855 11.7674 80.3377C12.2197 81.0669 12.8574 81.5587 13.4061 82.2384C14.7556 83.9068 16.5624 85.1995 18.2258 86.5243C18.7572 86.9469 19.3281 87.3251 19.9436 87.6587C21.2264 88.3533 22.4078 89.0824 23.787 89.5916C24.8399 89.9821 25.7519 90.4393 26.6343 90.7681C28.9305 91.6257 31.2143 92.5155 33.4857 93.435C34.1086 93.6896 34.9045 93.8477 35.5916 94.1567C37.0153 94.7919 38.3203 95.2096 39.6698 95.8028C39.8749 95.8943 40.2951 95.9116 40.5596 95.7855C41.3901 95.3826 42.2502 95.0638 43.1375 94.8241C44.9542 94.3347 46.5929 93.6475 48.4862 93.126C50.1694 92.6638 51.5881 92.0311 53.1205 91.4404C53.9609 91.1166 54.7419 90.7878 55.4636 90.4492C57.5101 89.4878 59.569 88.6227 61.5711 87.5648C62.5054 87.073 63.7585 86.1412 65.3304 84.7743C66.151 84.0625 66.9494 83.1109 67.812 82.3126C68.2025 81.9492 68.5609 81.534 68.8871 81.0644C69.4729 80.2216 70.2095 79.5295 70.689 78.6076C71.2031 77.6189 71.9075 76.6525 72.3351 75.7528C72.8838 74.6084 73.4597 73.5283 73.8057 72.3049C74.4039 70.1867 75.2343 67.7694 75.3357 65.7278C75.4864 62.6803 75.568 59.6327 75.5853 56.5827C75.6051 52.8876 75.8102 49.0022 75.7534 45.1958C75.7287 43.6016 75.872 41.7874 75.83 40.077C75.8152 39.5358 75.9907 38.9698 75.9511 38.3815C75.8967 37.6079 75.8696 37.2198 75.8696 37.2124C75.9264 32.1628 75.9783 28.7742 76.0277 27.0465C76.0772 25.3831 76.0722 24.0855 76.0154 23.1537C75.9931 22.7953 76.1019 22.4295 76.0401 22.0019C75.9141 21.1195 76.0895 20.2099 76.0549 19.4215C76.0179 18.5515 76.0129 17.506 76.0426 16.285C76.0994 14.0481 75.8646 10.8498 75.9561 8.13842C75.9783 7.45624 75.5878 7.41175 75.0366 7.55016C74.2457 7.7479 73.6154 7.58971 72.8739 7.59712C71.4058 7.60701 70.0093 7.4859 68.4942 7.52545C67.2485 7.55511 66.1486 7.42658 64.6186 7.4686C64.2405 7.47849 63.6349 7.4686 62.8044 7.43894C60.093 7.34007 56.5635 7.37468 53.385 7.25604C52.2381 7.21155 51.4348 7.1893 50.9776 7.18683C47.8361 7.17942 44.4722 7.07561 42.0871 7.041C41.353 7.02865 40.0949 7.24862 39.0568 6.99899C38.9753 6.98168 38.953 6.93472 38.9901 6.8581ZM72.3722 6.63565C72.513 6.73205 72.6688 6.77407 72.8393 6.76171C72.953 6.75429 72.958 6.72958 72.8542 6.68261C72.6886 6.61094 72.5131 6.59364 72.3326 6.62824C72.3302 6.62824 72.3277 6.62824 72.3277 6.62824C72.3277 6.62824 72.3277 6.62577 72.3326 6.62577H72.345C72.345 6.62577 72.3647 6.62824 72.3722 6.63565ZM5.92686 18.853C5.99606 18.6528 5.9837 18.4798 5.88978 18.329C5.7835 18.1634 5.64508 18.1189 5.47207 18.1906C5.38556 18.2277 5.3485 18.2919 5.35838 18.3834C5.41276 18.9494 5.35837 19.5031 5.19524 20.0443C5.16806 20.1333 5.18536 20.2322 5.24221 20.3063L5.31635 20.4027C5.34848 20.4448 5.41029 20.4522 5.45231 20.42C5.46714 20.4077 5.4795 20.3928 5.48444 20.3731C5.65004 19.8417 5.75631 19.3523 5.92686 18.853ZM76.5517 22.7953C76.5888 22.8546 76.6308 22.9016 76.6753 22.9337C76.742 22.9856 76.8384 22.9732 76.8903 22.9065C76.9101 22.8793 76.9225 22.8472 76.9225 22.8126C76.9249 22.5531 76.8038 22.4295 76.5542 22.4443C76.4974 22.4468 76.4528 22.4913 76.4454 22.5457C76.438 22.6173 76.4529 22.6766 76.4949 22.7236C76.5245 22.7557 76.5443 22.7805 76.5517 22.7953ZM73.9812 74.2229C74.1221 73.5481 74.9155 73.3306 74.7598 72.4803C74.7548 72.4606 74.7351 72.4482 74.7178 72.4507C74.7103 72.4507 74.7054 72.4556 74.7005 72.4606C74.3025 72.8214 74.0825 73.2639 74.0381 73.7903C74.0306 73.8768 73.9985 73.9535 73.9441 74.0202C73.8725 74.1067 73.8156 74.1759 73.7761 74.2278C73.5759 74.4774 73.6204 74.5318 73.9096 74.3909C73.9367 74.3786 73.9614 74.3217 73.9812 74.2229ZM71.1957 79.3441C71.1363 79.2403 70.9831 79.2156 70.8546 79.2897C70.726 79.3639 70.6692 79.5072 70.7285 79.6111C70.7879 79.7149 70.9411 79.7396 71.0696 79.6654C71.1981 79.5913 71.255 79.4479 71.1957 79.3441ZM69.8857 81.141L68.986 82.2236C68.9712 82.2434 68.9737 82.2706 68.991 82.2854L69.0083 82.2977C69.1368 82.4065 69.4408 82.2532 69.6904 81.9542L69.7497 81.88C69.9969 81.581 70.0933 81.2547 69.9648 81.1459L69.9475 81.1311C69.9277 81.1163 69.9005 81.1188 69.8857 81.1361V81.141ZM34.0468 94.7054C33.9306 94.5942 33.7947 94.5423 33.6365 94.5472C33.6068 94.5472 33.5846 94.5744 33.5871 94.6065C33.5871 94.6214 33.5945 94.6362 33.6068 94.6461C33.7181 94.7326 33.8466 94.7894 33.9924 94.8117C34.1284 94.8339 34.1457 94.7993 34.0468 94.7054Z"/>
</mask>
<path d="M35.4235 6.21053C35.4408 6.02021 35.4136 5.83731 35.337 5.65935C35.2653 5.49622 35.3419 5.30838 35.5051 5.2367C35.5347 5.22434 35.5669 5.21446 35.599 5.21198C36.4913 5.12301 37.4577 5.29355 38.1522 5.29108C39.2373 5.29108 40.4632 5.18232 41.5186 5.4196C41.9709 5.52094 42.3046 5.56296 42.5147 5.5506C43.8617 5.46904 45.2063 5.45173 46.5533 5.50364C47.233 5.52836 48.4392 5.44185 49.3685 5.54071C50.4981 5.65935 51.5485 5.38747 52.7127 5.55554C53.5852 5.67913 54.2006 5.47892 55.0187 5.49375C58.0613 5.5506 61.1039 5.58768 64.1465 5.60992C64.2157 5.60992 64.6236 5.64699 65.37 5.7162C65.9459 5.76811 66.5119 5.64699 67.026 5.6643C67.8985 5.69396 68.7018 5.72609 69.6039 5.65935C72.2239 5.46162 74.8735 5.83731 77.528 5.95348C77.6689 5.96089 77.7802 6.07953 77.7727 6.22289C77.664 8.39547 77.659 10.5507 77.7554 12.6862C77.7628 12.8271 77.7851 13.0076 77.8271 13.2226C77.9383 13.8084 77.7727 14.5202 77.7208 15.1183C77.5948 16.5346 77.7925 18.0077 77.7085 19.4462C77.6838 19.8689 77.7529 20.3088 77.7455 20.6845C77.5923 27.9487 77.6763 35.2301 77.4539 42.4894C77.1944 51.024 77.5058 59.917 76.5913 68.0932C76.4158 69.6651 76.176 70.9578 75.877 71.9737C75.1231 74.5195 73.9515 76.8453 72.5897 79.1192C70.8249 82.0703 68.1803 84.458 65.4812 86.5292C64.5173 87.2707 63.5657 88.1209 62.577 88.7339C60.4292 90.0637 58.1948 91.2278 55.8764 92.2239C53.9361 93.0568 51.5535 93.8156 49.3809 94.5843C47.4901 95.2541 45.5869 95.8918 43.6739 96.4924C42.4454 96.878 41.2245 97.4341 39.9985 97.8889C39.8675 97.9383 39.7217 97.9309 39.5981 97.8716C38.3425 97.2809 36.7236 96.7643 35.7448 96.3762C29.8005 94.0183 24.6372 91.8235 19.3281 89.1343C17.5312 88.2223 15.806 86.9865 14.3972 85.8075C13.2429 84.8435 12.0936 83.368 11.0011 82.0605C10.4772 81.4302 10.0051 80.753 9.58489 80.0288C8.84093 78.7435 8.07225 77.5423 7.44445 76.1878C7.34806 75.9802 7.25165 75.7948 7.15526 75.6342C6.0356 73.7483 5.27682 71.7611 4.88136 69.6775C4.71823 68.8223 4.42904 68.019 4.38455 67.233C4.32276 66.1035 3.93471 64.9764 3.87045 63.9359C3.83831 63.4341 3.82596 62.4578 3.82843 61.0094C3.8309 59.3188 3.99403 57.6282 3.90258 55.903C3.85067 54.9514 3.92235 53.5871 4.11514 51.805C4.14727 51.5183 4.09043 51.2044 4.09043 50.8979C4.10278 46.5107 4.1621 42.1236 4.27332 37.7364C4.28321 37.3755 4.29804 36.592 4.31534 35.3883C4.3796 31.3719 4.43893 27.3555 4.49083 23.339C4.53532 19.7626 4.85417 15.5781 4.7726 12.0313C4.75777 11.4133 4.75282 10.9042 4.76023 10.5063C4.78001 9.38165 4.68609 8.31143 4.78743 7.21402C4.84675 6.54915 4.77259 6.08942 4.67126 5.46656C4.6416 5.28366 4.76518 5.11312 4.94808 5.08346C4.96538 5.08099 4.98269 5.07852 4.99999 5.07852C7.25908 5.07357 9.56759 5.11559 11.928 5.2021C12.9142 5.23917 14.2242 5.08099 15.3933 5.23176C16.419 5.36523 17.5461 5.03897 18.3988 5.46656C18.4705 5.50364 18.5471 5.51105 18.6262 5.48881C19.3627 5.28366 20.1092 5.19468 20.8655 5.22187C23.3025 5.30591 25.7272 5.22681 28.1667 5.29849C28.2532 5.29849 28.3323 5.32321 28.4065 5.36523C28.7377 5.55802 29.0615 5.3331 29.3507 5.31827C31.0462 5.22187 32.7591 5.19221 34.4892 5.23423C34.6697 5.23917 34.8204 5.37017 34.8501 5.54813C34.897 5.83731 35.028 6.082 35.2381 6.27974C35.2826 6.32175 35.3543 6.31928 35.3938 6.27479C35.4111 6.25749 35.421 6.23525 35.4235 6.21053ZM7.11325 6.05482C7.08359 6.05482 7.05639 6.06223 7.03168 6.07212C6.96247 6.09931 6.96247 6.12402 7.03415 6.14627C7.22447 6.20806 7.42714 6.23525 7.63723 6.22783C7.76823 6.22289 7.788 6.17346 7.69655 6.082C7.57544 5.96089 7.4222 5.94359 7.23188 6.02516C7.19481 6.04246 7.15526 6.05234 7.11325 6.05482ZM11.844 6.16357C11.8489 6.09189 11.5869 6.01774 11.2607 6.00291C10.9344 5.98561 10.6675 6.0301 10.665 6.10178C10.6601 6.17346 10.9221 6.24761 11.2483 6.26243C11.5746 6.27974 11.8415 6.23525 11.844 6.16357ZM6.41377 6.40085C6.45826 6.35389 6.51759 6.31681 6.54972 6.28221C6.63623 6.18829 6.61398 6.13638 6.48793 6.12649L6.31738 6.11414C6.23335 6.10672 6.15919 6.16851 6.15177 6.25255C6.14683 6.29704 6.16414 6.34153 6.1938 6.37613C6.27536 6.46264 6.34703 6.47005 6.41377 6.40085ZM71.433 6.57881C71.4404 6.47005 71.2896 6.37366 71.0968 6.36377C70.904 6.35389 70.7434 6.43051 70.7384 6.53926C70.731 6.64801 70.8818 6.74441 71.0745 6.75429C71.2673 6.76418 71.428 6.68756 71.433 6.57881ZM38.9901 6.8581C39.0445 6.74688 39.0025 6.67026 38.8616 6.63071C38.7825 6.60847 38.7454 6.6406 38.7479 6.72216C38.7479 6.76418 38.7627 6.80125 38.7899 6.83091C38.8764 6.92236 38.8591 6.98663 38.738 7.02123C38.3005 7.14976 37.9125 7.19425 37.5689 7.15223C36.1897 6.98168 34.6573 7.10774 33.6909 7.08797C29.1406 6.99899 25.2181 7.10774 21.6564 7.06572C20.2921 7.05089 18.9846 7.16706 17.6128 7.02617C17.289 6.99404 16.7107 6.99651 15.8802 7.03606C13.8732 7.13245 11.8316 7.00393 9.8197 6.97921C8.94474 6.96685 7.70151 7.10032 6.62634 7.01382C6.54972 7.0064 6.51016 7.04348 6.51016 7.1201C6.51758 8.44243 6.53982 9.76229 6.57195 11.0797C6.61397 12.8716 6.52252 14.6018 6.4632 16.369C6.43354 17.2539 6.49287 18.3043 6.45332 19.2831C6.36187 21.4334 6.37175 23.4651 6.38411 25.5635C6.38658 26.3297 6.45332 27.0614 6.38905 27.704C6.24076 29.2315 6.19873 30.3313 6.26052 31.0012C6.51016 33.6532 6.05292 36.2411 6.20863 38.9104C6.24076 39.4764 6.12211 40.1586 6.12211 40.7246C6.12211 44.1132 6.10729 47.5019 6.08257 50.8905C6.08257 51.2761 5.98617 51.7284 5.99853 52.156C6.01583 52.6874 6.02077 53.0038 6.01336 53.1026C5.88731 55.5842 5.99359 58.0632 5.84776 60.5398C5.83046 60.829 5.84282 61.1157 5.88978 61.3975C6.04055 62.3342 6.10234 63.2784 6.07515 64.2275C6.04549 65.1148 6.22593 65.8909 6.30255 66.756C6.56702 69.7665 7.75835 72.9252 9.03125 75.6465C9.76533 77.221 10.8108 78.7855 11.7674 80.3377C12.2197 81.0669 12.8574 81.5587 13.4061 82.2384C14.7556 83.9068 16.5624 85.1995 18.2258 86.5243C18.7572 86.9469 19.3281 87.3251 19.9436 87.6587C21.2264 88.3533 22.4078 89.0824 23.787 89.5916C24.8399 89.9821 25.7519 90.4393 26.6343 90.7681C28.9305 91.6257 31.2143 92.5155 33.4857 93.435C34.1086 93.6896 34.9045 93.8477 35.5916 94.1567C37.0153 94.7919 38.3203 95.2096 39.6698 95.8028C39.8749 95.8943 40.2951 95.9116 40.5596 95.7855C41.3901 95.3826 42.2502 95.0638 43.1375 94.8241C44.9542 94.3347 46.5929 93.6475 48.4862 93.126C50.1694 92.6638 51.5881 92.0311 53.1205 91.4404C53.9609 91.1166 54.7419 90.7878 55.4636 90.4492C57.5101 89.4878 59.569 88.6227 61.5711 87.5648C62.5054 87.073 63.7585 86.1412 65.3304 84.7743C66.151 84.0625 66.9494 83.1109 67.812 82.3126C68.2025 81.9492 68.5609 81.534 68.8871 81.0644C69.4729 80.2216 70.2095 79.5295 70.689 78.6076C71.2031 77.6189 71.9075 76.6525 72.3351 75.7528C72.8838 74.6084 73.4597 73.5283 73.8057 72.3049C74.4039 70.1867 75.2343 67.7694 75.3357 65.7278C75.4864 62.6803 75.568 59.6327 75.5853 56.5827C75.6051 52.8876 75.8102 49.0022 75.7534 45.1958C75.7287 43.6016 75.872 41.7874 75.83 40.077C75.8152 39.5358 75.9907 38.9698 75.9511 38.3815C75.8967 37.6079 75.8696 37.2198 75.8696 37.2124C75.9264 32.1628 75.9783 28.7742 76.0277 27.0465C76.0772 25.3831 76.0722 24.0855 76.0154 23.1537C75.9931 22.7953 76.1019 22.4295 76.0401 22.0019C75.9141 21.1195 76.0895 20.2099 76.0549 19.4215C76.0179 18.5515 76.0129 17.506 76.0426 16.285C76.0994 14.0481 75.8646 10.8498 75.9561 8.13842C75.9783 7.45624 75.5878 7.41175 75.0366 7.55016C74.2457 7.7479 73.6154 7.58971 72.8739 7.59712C71.4058 7.60701 70.0093 7.4859 68.4942 7.52545C67.2485 7.55511 66.1486 7.42658 64.6186 7.4686C64.2405 7.47849 63.6349 7.4686 62.8044 7.43894C60.093 7.34007 56.5635 7.37468 53.385 7.25604C52.2381 7.21155 51.4348 7.1893 50.9776 7.18683C47.8361 7.17942 44.4722 7.07561 42.0871 7.041C41.353 7.02865 40.0949 7.24862 39.0568 6.99899C38.9753 6.98168 38.953 6.93472 38.9901 6.8581ZM72.3722 6.63565C72.513 6.73205 72.6688 6.77407 72.8393 6.76171C72.953 6.75429 72.958 6.72958 72.8542 6.68261C72.6886 6.61094 72.5131 6.59364 72.3326 6.62824C72.3302 6.62824 72.3277 6.62824 72.3277 6.62824C72.3277 6.62824 72.3277 6.62577 72.3326 6.62577H72.345C72.345 6.62577 72.3647 6.62824 72.3722 6.63565ZM5.92686 18.853C5.99606 18.6528 5.9837 18.4798 5.88978 18.329C5.7835 18.1634 5.64508 18.1189 5.47207 18.1906C5.38556 18.2277 5.3485 18.2919 5.35838 18.3834C5.41276 18.9494 5.35837 19.5031 5.19524 20.0443C5.16806 20.1333 5.18536 20.2322 5.24221 20.3063L5.31635 20.4027C5.34848 20.4448 5.41029 20.4522 5.45231 20.42C5.46714 20.4077 5.4795 20.3928 5.48444 20.3731C5.65004 19.8417 5.75631 19.3523 5.92686 18.853ZM76.5517 22.7953C76.5888 22.8546 76.6308 22.9016 76.6753 22.9337C76.742 22.9856 76.8384 22.9732 76.8903 22.9065C76.9101 22.8793 76.9225 22.8472 76.9225 22.8126C76.9249 22.5531 76.8038 22.4295 76.5542 22.4443C76.4974 22.4468 76.4528 22.4913 76.4454 22.5457C76.438 22.6173 76.4529 22.6766 76.4949 22.7236C76.5245 22.7557 76.5443 22.7805 76.5517 22.7953ZM73.9812 74.2229C74.1221 73.5481 74.9155 73.3306 74.7598 72.4803C74.7548 72.4606 74.7351 72.4482 74.7178 72.4507C74.7103 72.4507 74.7054 72.4556 74.7005 72.4606C74.3025 72.8214 74.0825 73.2639 74.0381 73.7903C74.0306 73.8768 73.9985 73.9535 73.9441 74.0202C73.8725 74.1067 73.8156 74.1759 73.7761 74.2278C73.5759 74.4774 73.6204 74.5318 73.9096 74.3909C73.9367 74.3786 73.9614 74.3217 73.9812 74.2229ZM71.1957 79.3441C71.1363 79.2403 70.9831 79.2156 70.8546 79.2897C70.726 79.3639 70.6692 79.5072 70.7285 79.6111C70.7879 79.7149 70.9411 79.7396 71.0696 79.6654C71.1981 79.5913 71.255 79.4479 71.1957 79.3441ZM69.8857 81.141L68.986 82.2236C68.9712 82.2434 68.9737 82.2706 68.991 82.2854L69.0083 82.2977C69.1368 82.4065 69.4408 82.2532 69.6904 81.9542L69.7497 81.88C69.9969 81.581 70.0933 81.2547 69.9648 81.1459L69.9475 81.1311C69.9277 81.1163 69.9005 81.1188 69.8857 81.1361V81.141ZM34.0468 94.7054C33.9306 94.5942 33.7947 94.5423 33.6365 94.5472C33.6068 94.5472 33.5846 94.5744 33.5871 94.6065C33.5871 94.6214 33.5945 94.6362 33.6068 94.6461C33.7181 94.7326 33.8466 94.7894 33.9924 94.8117C34.1284 94.8339 34.1457 94.7993 34.0468 94.7054Z" fill="#EAFE01"/>
<path d="M35.4235 6.21053C35.4408 6.02021 35.4136 5.83731 35.337 5.65935C35.2653 5.49622 35.3419 5.30838 35.5051 5.2367C35.5347 5.22434 35.5669 5.21446 35.599 5.21198C36.4913 5.12301 37.4577 5.29355 38.1522 5.29108C39.2373 5.29108 40.4632 5.18232 41.5186 5.4196C41.9709 5.52094 42.3046 5.56296 42.5147 5.5506C43.8617 5.46904 45.2063 5.45173 46.5533 5.50364C47.233 5.52836 48.4392 5.44185 49.3685 5.54071C50.4981 5.65935 51.5485 5.38747 52.7127 5.55554C53.5852 5.67913 54.2006 5.47892 55.0187 5.49375C58.0613 5.5506 61.1039 5.58768 64.1465 5.60992C64.2157 5.60992 64.6236 5.64699 65.37 5.7162C65.9459 5.76811 66.5119 5.64699 67.026 5.6643C67.8985 5.69396 68.7018 5.72609 69.6039 5.65935C72.2239 5.46162 74.8735 5.83731 77.528 5.95348C77.6689 5.96089 77.7802 6.07953 77.7727 6.22289C77.664 8.39547 77.659 10.5507 77.7554 12.6862C77.7628 12.8271 77.7851 13.0076 77.8271 13.2226C77.9383 13.8084 77.7727 14.5202 77.7208 15.1183C77.5948 16.5346 77.7925 18.0077 77.7085 19.4462C77.6838 19.8689 77.7529 20.3088 77.7455 20.6845C77.5923 27.9487 77.6763 35.2301 77.4539 42.4894C77.1944 51.024 77.5058 59.917 76.5913 68.0932C76.4158 69.6651 76.176 70.9578 75.877 71.9737C75.1231 74.5195 73.9515 76.8453 72.5897 79.1192C70.8249 82.0703 68.1803 84.458 65.4812 86.5292C64.5173 87.2707 63.5657 88.1209 62.577 88.7339C60.4292 90.0637 58.1948 91.2278 55.8764 92.2239C53.9361 93.0568 51.5535 93.8156 49.3809 94.5843C47.4901 95.2541 45.5869 95.8918 43.6739 96.4924C42.4454 96.878 41.2245 97.4341 39.9985 97.8889C39.8675 97.9383 39.7217 97.9309 39.5981 97.8716C38.3425 97.2809 36.7236 96.7643 35.7448 96.3762C29.8005 94.0183 24.6372 91.8235 19.3281 89.1343C17.5312 88.2223 15.806 86.9865 14.3972 85.8075C13.2429 84.8435 12.0936 83.368 11.0011 82.0605C10.4772 81.4302 10.0051 80.753 9.58489 80.0288C8.84093 78.7435 8.07225 77.5423 7.44445 76.1878C7.34806 75.9802 7.25165 75.7948 7.15526 75.6342C6.0356 73.7483 5.27682 71.7611 4.88136 69.6775C4.71823 68.8223 4.42904 68.019 4.38455 67.233C4.32276 66.1035 3.93471 64.9764 3.87045 63.9359C3.83831 63.4341 3.82596 62.4578 3.82843 61.0094C3.8309 59.3188 3.99403 57.6282 3.90258 55.903C3.85067 54.9514 3.92235 53.5871 4.11514 51.805C4.14727 51.5183 4.09043 51.2044 4.09043 50.8979C4.10278 46.5107 4.1621 42.1236 4.27332 37.7364C4.28321 37.3755 4.29804 36.592 4.31534 35.3883C4.3796 31.3719 4.43893 27.3555 4.49083 23.339C4.53532 19.7626 4.85417 15.5781 4.7726 12.0313C4.75777 11.4133 4.75282 10.9042 4.76023 10.5063C4.78001 9.38165 4.68609 8.31143 4.78743 7.21402C4.84675 6.54915 4.77259 6.08942 4.67126 5.46656C4.6416 5.28366 4.76518 5.11312 4.94808 5.08346C4.96538 5.08099 4.98269 5.07852 4.99999 5.07852C7.25908 5.07357 9.56759 5.11559 11.928 5.2021C12.9142 5.23917 14.2242 5.08099 15.3933 5.23176C16.419 5.36523 17.5461 5.03897 18.3988 5.46656C18.4705 5.50364 18.5471 5.51105 18.6262 5.48881C19.3627 5.28366 20.1092 5.19468 20.8655 5.22187C23.3025 5.30591 25.7272 5.22681 28.1667 5.29849C28.2532 5.29849 28.3323 5.32321 28.4065 5.36523C28.7377 5.55802 29.0615 5.3331 29.3507 5.31827C31.0462 5.22187 32.7591 5.19221 34.4892 5.23423C34.6697 5.23917 34.8204 5.37017 34.8501 5.54813C34.897 5.83731 35.028 6.082 35.2381 6.27974C35.2826 6.32175 35.3543 6.31928 35.3938 6.27479C35.4111 6.25749 35.421 6.23525 35.4235 6.21053ZM7.11325 6.05482C7.08359 6.05482 7.05639 6.06223 7.03168 6.07212C6.96247 6.09931 6.96247 6.12402 7.03415 6.14627C7.22447 6.20806 7.42714 6.23525 7.63723 6.22783C7.76823 6.22289 7.788 6.17346 7.69655 6.082C7.57544 5.96089 7.4222 5.94359 7.23188 6.02516C7.19481 6.04246 7.15526 6.05234 7.11325 6.05482ZM11.844 6.16357C11.8489 6.09189 11.5869 6.01774 11.2607 6.00291C10.9344 5.98561 10.6675 6.0301 10.665 6.10178C10.6601 6.17346 10.9221 6.24761 11.2483 6.26243C11.5746 6.27974 11.8415 6.23525 11.844 6.16357ZM6.41377 6.40085C6.45826 6.35389 6.51759 6.31681 6.54972 6.28221C6.63623 6.18829 6.61398 6.13638 6.48793 6.12649L6.31738 6.11414C6.23335 6.10672 6.15919 6.16851 6.15177 6.25255C6.14683 6.29704 6.16414 6.34153 6.1938 6.37613C6.27536 6.46264 6.34703 6.47005 6.41377 6.40085ZM71.433 6.57881C71.4404 6.47005 71.2896 6.37366 71.0968 6.36377C70.904 6.35389 70.7434 6.43051 70.7384 6.53926C70.731 6.64801 70.8818 6.74441 71.0745 6.75429C71.2673 6.76418 71.428 6.68756 71.433 6.57881ZM38.9901 6.8581C39.0445 6.74688 39.0025 6.67026 38.8616 6.63071C38.7825 6.60847 38.7454 6.6406 38.7479 6.72216C38.7479 6.76418 38.7627 6.80125 38.7899 6.83091C38.8764 6.92236 38.8591 6.98663 38.738 7.02123C38.3005 7.14976 37.9125 7.19425 37.5689 7.15223C36.1897 6.98168 34.6573 7.10774 33.6909 7.08797C29.1406 6.99899 25.2181 7.10774 21.6564 7.06572C20.2921 7.05089 18.9846 7.16706 17.6128 7.02617C17.289 6.99404 16.7107 6.99651 15.8802 7.03606C13.8732 7.13245 11.8316 7.00393 9.8197 6.97921C8.94474 6.96685 7.70151 7.10032 6.62634 7.01382C6.54972 7.0064 6.51016 7.04348 6.51016 7.1201C6.51758 8.44243 6.53982 9.76229 6.57195 11.0797C6.61397 12.8716 6.52252 14.6018 6.4632 16.369C6.43354 17.2539 6.49287 18.3043 6.45332 19.2831C6.36187 21.4334 6.37175 23.4651 6.38411 25.5635C6.38658 26.3297 6.45332 27.0614 6.38905 27.704C6.24076 29.2315 6.19873 30.3313 6.26052 31.0012C6.51016 33.6532 6.05292 36.2411 6.20863 38.9104C6.24076 39.4764 6.12211 40.1586 6.12211 40.7246C6.12211 44.1132 6.10729 47.5019 6.08257 50.8905C6.08257 51.2761 5.98617 51.7284 5.99853 52.156C6.01583 52.6874 6.02077 53.0038 6.01336 53.1026C5.88731 55.5842 5.99359 58.0632 5.84776 60.5398C5.83046 60.829 5.84282 61.1157 5.88978 61.3975C6.04055 62.3342 6.10234 63.2784 6.07515 64.2275C6.04549 65.1148 6.22593 65.8909 6.30255 66.756C6.56702 69.7665 7.75835 72.9252 9.03125 75.6465C9.76533 77.221 10.8108 78.7855 11.7674 80.3377C12.2197 81.0669 12.8574 81.5587 13.4061 82.2384C14.7556 83.9068 16.5624 85.1995 18.2258 86.5243C18.7572 86.9469 19.3281 87.3251 19.9436 87.6587C21.2264 88.3533 22.4078 89.0824 23.787 89.5916C24.8399 89.9821 25.7519 90.4393 26.6343 90.7681C28.9305 91.6257 31.2143 92.5155 33.4857 93.435C34.1086 93.6896 34.9045 93.8477 35.5916 94.1567C37.0153 94.7919 38.3203 95.2096 39.6698 95.8028C39.8749 95.8943 40.2951 95.9116 40.5596 95.7855C41.3901 95.3826 42.2502 95.0638 43.1375 94.8241C44.9542 94.3347 46.5929 93.6475 48.4862 93.126C50.1694 92.6638 51.5881 92.0311 53.1205 91.4404C53.9609 91.1166 54.7419 90.7878 55.4636 90.4492C57.5101 89.4878 59.569 88.6227 61.5711 87.5648C62.5054 87.073 63.7585 86.1412 65.3304 84.7743C66.151 84.0625 66.9494 83.1109 67.812 82.3126C68.2025 81.9492 68.5609 81.534 68.8871 81.0644C69.4729 80.2216 70.2095 79.5295 70.689 78.6076C71.2031 77.6189 71.9075 76.6525 72.3351 75.7528C72.8838 74.6084 73.4597 73.5283 73.8057 72.3049C74.4039 70.1867 75.2343 67.7694 75.3357 65.7278C75.4864 62.6803 75.568 59.6327 75.5853 56.5827C75.6051 52.8876 75.8102 49.0022 75.7534 45.1958C75.7287 43.6016 75.872 41.7874 75.83 40.077C75.8152 39.5358 75.9907 38.9698 75.9511 38.3815C75.8967 37.6079 75.8696 37.2198 75.8696 37.2124C75.9264 32.1628 75.9783 28.7742 76.0277 27.0465C76.0772 25.3831 76.0722 24.0855 76.0154 23.1537C75.9931 22.7953 76.1019 22.4295 76.0401 22.0019C75.9141 21.1195 76.0895 20.2099 76.0549 19.4215C76.0179 18.5515 76.0129 17.506 76.0426 16.285C76.0994 14.0481 75.8646 10.8498 75.9561 8.13842C75.9783 7.45624 75.5878 7.41175 75.0366 7.55016C74.2457 7.7479 73.6154 7.58971 72.8739 7.59712C71.4058 7.60701 70.0093 7.4859 68.4942 7.52545C67.2485 7.55511 66.1486 7.42658 64.6186 7.4686C64.2405 7.47849 63.6349 7.4686 62.8044 7.43894C60.093 7.34007 56.5635 7.37468 53.385 7.25604C52.2381 7.21155 51.4348 7.1893 50.9776 7.18683C47.8361 7.17942 44.4722 7.07561 42.0871 7.041C41.353 7.02865 40.0949 7.24862 39.0568 6.99899C38.9753 6.98168 38.953 6.93472 38.9901 6.8581ZM72.3722 6.63565C72.513 6.73205 72.6688 6.77407 72.8393 6.76171C72.953 6.75429 72.958 6.72958 72.8542 6.68261C72.6886 6.61094 72.5131 6.59364 72.3326 6.62824C72.3302 6.62824 72.3277 6.62824 72.3277 6.62824C72.3277 6.62824 72.3277 6.62577 72.3326 6.62577H72.345C72.345 6.62577 72.3647 6.62824 72.3722 6.63565ZM5.92686 18.853C5.99606 18.6528 5.9837 18.4798 5.88978 18.329C5.7835 18.1634 5.64508 18.1189 5.47207 18.1906C5.38556 18.2277 5.3485 18.2919 5.35838 18.3834C5.41276 18.9494 5.35837 19.5031 5.19524 20.0443C5.16806 20.1333 5.18536 20.2322 5.24221 20.3063L5.31635 20.4027C5.34848 20.4448 5.41029 20.4522 5.45231 20.42C5.46714 20.4077 5.4795 20.3928 5.48444 20.3731C5.65004 19.8417 5.75631 19.3523 5.92686 18.853ZM76.5517 22.7953C76.5888 22.8546 76.6308 22.9016 76.6753 22.9337C76.742 22.9856 76.8384 22.9732 76.8903 22.9065C76.9101 22.8793 76.9225 22.8472 76.9225 22.8126C76.9249 22.5531 76.8038 22.4295 76.5542 22.4443C76.4974 22.4468 76.4528 22.4913 76.4454 22.5457C76.438 22.6173 76.4529 22.6766 76.4949 22.7236C76.5245 22.7557 76.5443 22.7805 76.5517 22.7953ZM73.9812 74.2229C74.1221 73.5481 74.9155 73.3306 74.7598 72.4803C74.7548 72.4606 74.7351 72.4482 74.7178 72.4507C74.7103 72.4507 74.7054 72.4556 74.7005 72.4606C74.3025 72.8214 74.0825 73.2639 74.0381 73.7903C74.0306 73.8768 73.9985 73.9535 73.9441 74.0202C73.8725 74.1067 73.8156 74.1759 73.7761 74.2278C73.5759 74.4774 73.6204 74.5318 73.9096 74.3909C73.9367 74.3786 73.9614 74.3217 73.9812 74.2229ZM71.1957 79.3441C71.1363 79.2403 70.9831 79.2156 70.8546 79.2897C70.726 79.3639 70.6692 79.5072 70.7285 79.6111C70.7879 79.7149 70.9411 79.7396 71.0696 79.6654C71.1981 79.5913 71.255 79.4479 71.1957 79.3441ZM69.8857 81.141L68.986 82.2236C68.9712 82.2434 68.9737 82.2706 68.991 82.2854L69.0083 82.2977C69.1368 82.4065 69.4408 82.2532 69.6904 81.9542L69.7497 81.88C69.9969 81.581 70.0933 81.2547 69.9648 81.1459L69.9475 81.1311C69.9277 81.1163 69.9005 81.1188 69.8857 81.1361V81.141ZM34.0468 94.7054C33.9306 94.5942 33.7947 94.5423 33.6365 94.5472C33.6068 94.5472 33.5846 94.5744 33.5871 94.6065C33.5871 94.6214 33.5945 94.6362 33.6068 94.6461C33.7181 94.7326 33.8466 94.7894 33.9924 94.8117C34.1284 94.8339 34.1457 94.7993 34.0468 94.7054Z" stroke="#EAFE01" stroke-width="6" mask="url(#path-1-outside-1_192_332)"/>
<mask id="path-2-outside-2_192_332" maskUnits="userSpaceOnUse" x="9.84766" y="12.1641" width="62" height="78" fill="black">
<rect fill="white" x="9.84766" y="12.1641" width="62" height="78"/>
<path d="M50.3746 17.4169C51.8205 18.6083 54.2502 19.0087 55.8641 17.8396C56.4648 17.4046 56.9863 15.9265 57.577 15.7214C57.8365 15.6324 58.1183 15.7684 58.2097 16.0279C58.227 16.0773 58.2369 16.1267 58.2369 16.1786C58.2666 17.2019 59.107 17.5084 59.8583 17.9904C61.3141 18.9246 63.8204 18.3389 65.244 17.6023C65.6346 17.3996 65.8867 17.0561 66.2055 16.762C66.3761 16.6062 66.6405 16.6186 66.7962 16.7891C66.8432 16.841 66.8778 16.9028 66.8926 16.972C66.9964 17.4021 66.905 17.7951 66.6183 18.151C65.3825 19.6785 64.6706 22.2021 65.6098 24.0533C66.0078 24.8319 66.947 25.5412 67.6193 26.2556C67.7898 26.4385 67.7824 26.7227 67.5995 26.8957C67.5575 26.9353 67.5106 26.9649 67.4587 26.9847C65.5085 27.7682 64.987 30.01 65.3132 31.8662C65.5283 33.0798 67.7009 33.4678 67.34 34.5726C67.3178 34.6443 67.2683 34.7036 67.2016 34.7358C65.1056 35.7739 64.4482 37.766 65.1575 39.9584C65.6024 41.3326 66.3711 41.7775 67.5699 42.4646C67.9456 42.6797 67.9406 42.9688 67.5575 43.3272C67.0434 43.8092 65.773 43.6757 65.4443 44.7336C65.2342 45.4108 64.8758 46.0782 64.8511 46.748C64.7818 48.5968 65.5505 49.7189 67.2337 50.4357C67.4809 50.5395 67.597 50.8287 67.4908 51.0758C67.4809 51.0981 67.4685 51.1203 67.4562 51.1426C67.3103 51.3799 67.078 51.5702 66.7616 51.7111C65.7606 52.1609 65.0438 53.1619 64.6978 54.1555C64.4432 54.8896 64.4803 55.6805 64.8115 56.5308C65.2564 57.6751 66.0424 57.9717 66.9717 58.5526C67.2683 58.738 67.3845 58.9555 67.3178 59.2001C67.2683 59.3806 67.12 59.5066 66.8729 59.5783C65.9237 59.8502 65.7507 59.8205 65.1724 60.6856C64.4803 61.7237 64.2752 62.9076 64.5594 64.2398C64.7547 65.1543 65.7853 65.7945 66.5763 66.1158C66.7097 66.1702 66.774 66.321 66.7221 66.452C66.7171 66.4643 66.7122 66.4742 66.7048 66.4866C66.3069 67.191 64.8585 67.4925 64.1293 67.757C62.7699 68.2439 62.2707 69.1386 61.9568 70.4758C61.8628 70.8787 61.8752 71.2519 61.9914 71.593C62.2608 72.3666 62.7205 73.0167 63.3705 73.5431C63.4373 73.5975 63.4645 73.6692 63.4496 73.7557C63.3829 74.1091 63.1951 74.3736 62.8812 74.5491C62.8119 74.5911 62.7279 74.601 62.6513 74.5763C61.8999 74.3514 61.366 74.3019 61.0497 74.428C60.2167 74.7567 59.3739 74.9495 58.7016 75.5427C57.4361 76.6648 56.7391 77.9278 57.4188 79.6555C57.4509 79.7346 57.4485 79.8137 57.4139 79.8903C57.2755 80.2017 57.0555 80.4365 56.7539 80.5947C56.3733 80.7925 55.7702 80.35 55.4341 80.177C53.3703 79.1068 50.2832 80.2759 49.5862 82.5498C49.4107 83.1208 49.9174 84.0773 49.339 84.4678C49.124 84.6136 48.904 84.5939 48.6815 84.411C46.6869 82.7673 43.061 82.8217 41.4025 84.9424C40.8464 85.6542 40.5696 87.1965 39.3115 86.6676C39.2423 86.6379 39.1929 86.5786 39.1731 86.5044C38.7752 84.8732 38.2734 83.7634 36.7311 82.9329C35.9822 82.53 35.1888 82.6388 34.3559 82.6709C33.5229 82.7055 32.8828 83.4248 32.4082 84.0353C32.3538 84.1045 32.2747 84.149 32.1882 84.1588C31.8892 84.1959 31.6049 84.149 31.333 84.0229C31.2614 83.9883 31.2193 83.9315 31.2095 83.8499C30.9376 81.707 29.9539 79.7049 27.5218 79.6753C26.5059 79.6604 25.3937 79.8483 24.6003 80.5206C24.4174 80.6738 24.1628 80.6985 23.9527 80.5873C23.3892 80.2858 23.75 79.5072 23.923 79.0401C24.1776 78.3406 23.6932 76.8082 23.4188 76.3633C22.796 75.3524 21.0238 74.4453 19.8918 74.7987C19.4123 74.9495 18.5052 75.4166 18.0529 75.1275C17.6945 74.8976 17.7958 74.3687 18.0529 74.0375C19.9659 71.5238 19.7534 68.3873 16.3969 67.4134C15.9273 67.2775 15.5269 67.4456 15.0597 67.5024C14.7952 67.5345 14.553 67.3442 14.5184 67.0773C14.5184 67.0748 14.5184 67.0723 14.5184 67.0699C14.4443 66.3729 15.0671 66.185 15.517 65.8588C16.0706 65.4584 16.4883 64.3214 16.7602 63.6986C16.8912 63.402 16.9307 63.0979 16.8838 62.789C16.8343 62.4726 16.7726 62.1612 16.6984 61.8522C16.3845 60.5645 15.5961 59.7365 14.3281 59.3657C13.8264 59.2199 13.7176 58.9431 14.0018 58.5377C14.0488 58.471 14.1131 58.4166 14.1872 58.3796C14.9089 58.0212 15.6776 57.727 16.1645 57.0992C17.0543 55.9524 17.5783 53.9578 16.5872 52.6775C16.0385 51.9681 15.3563 51.4342 14.5431 51.0758C14.0933 50.8756 13.8733 50.5914 14.0711 50.1094C14.1032 50.0279 14.1625 49.9784 14.249 49.9587C16.4488 49.447 17.2817 47.1756 16.7602 45.1513C16.5031 44.1552 15.2945 43.2506 14.558 42.5709C14.5011 42.519 14.4739 42.4399 14.4838 42.3633C14.6148 41.3993 15.9792 41.2461 16.5328 40.423C17.1334 39.5283 17.4028 38.5421 17.346 37.4669C17.2348 35.4328 15.9792 35.0645 14.5184 34.15C14.4492 34.108 14.3998 34.0412 14.3751 33.9646C14.2663 33.6211 14.3676 33.3615 14.6791 33.1861C15.3489 32.8079 16.3524 32.3778 16.7429 31.6907C17.299 30.7095 17.7414 28.2032 16.7182 27.3258C16.2041 26.8834 15.643 26.5126 15.0325 26.2135C14.8125 26.1048 14.6717 25.9812 14.6074 25.8453C14.4888 25.5882 14.5901 25.2842 14.8397 25.1532C15.4848 24.8146 16.2412 24.7726 16.6168 24.0113C17.6129 21.9969 17.4028 20.1506 16.7429 18.02C16.5872 17.5133 15.1734 16.6038 16.1645 15.9957C16.3474 15.882 16.5847 15.8969 16.7528 16.0328C17.7291 16.8114 18.4755 17.5356 19.8349 17.7778C21.6911 18.1115 22.4796 17.234 23.7031 16.0402C23.755 15.9933 23.7871 15.9265 23.797 15.8573L23.8835 15.2814C23.8934 15.2073 23.9626 15.1554 24.0367 15.1653C24.0441 15.1653 24.0491 15.1653 24.0565 15.1702C24.2023 15.2147 24.3136 15.3086 24.3852 15.4495C25.4258 17.4936 27.0151 17.8594 29.2915 17.9978C29.8673 18.0324 30.2925 17.9681 30.5619 17.8075C31.3948 17.3131 31.8768 16.93 32.0029 16.6581C32.2031 16.2306 32.4502 15.8252 32.7444 15.4446C32.858 15.2963 33.0706 15.2691 33.2189 15.3828C33.2931 15.4396 33.34 15.5261 33.3499 15.6176C33.4389 16.4555 33.8492 17.0783 34.5783 17.4861C34.9589 17.6987 35.8191 18.2524 36.2739 18.1757C36.8942 18.0695 37.5146 17.9854 38.1375 17.9236C39.398 17.8 39.6551 15.6942 40.797 15.3358C41.012 15.2691 41.2443 15.3778 41.3284 15.5879C41.6027 16.2775 41.7362 17.0388 42.4752 17.3922C42.8905 17.5924 43.3131 17.7729 43.7432 17.9385C45.5351 18.6231 47.7967 17.9434 48.558 16.0748C48.5901 15.9933 48.6469 15.934 48.7235 15.8969C49.1511 15.6868 50.1423 15.6818 50.1052 16.4184C50.0953 16.5988 50.1398 16.8608 50.2411 17.2093C50.2659 17.2909 50.3103 17.3601 50.3771 17.4169H50.3746ZM65.6939 42.8082C65.7952 42.8008 65.8076 42.7637 65.7285 42.697C65.5184 42.519 65.2119 42.4127 65.0167 42.2446C63.5806 41.0138 63.0245 38.594 63.6152 36.8836C63.8574 36.1767 63.8995 35.6626 64.4902 35.1164C64.8288 34.8025 65.1823 34.4837 65.5505 34.1599C65.6222 34.0956 65.6247 34.0314 65.553 33.9646C65.0809 33.5321 64.5767 33.1885 64.29 32.6349C63.6424 31.3818 63.5658 30.0149 64.1466 28.7198C64.5693 27.7756 64.945 26.7548 65.988 26.3519C66.0449 26.3297 66.0721 26.2679 66.0498 26.2111C66.0424 26.1913 66.0276 26.1715 66.0103 26.1592C64.8189 25.3361 63.9885 24.2337 63.8995 22.7285C63.8327 21.599 64.023 20.5016 64.4655 19.4387C64.4778 19.4116 64.4655 19.3794 64.4358 19.3671C64.4259 19.3621 64.4136 19.3621 64.4037 19.3646C63.1555 19.5945 61.8925 19.6909 60.6147 19.6587C59.3418 19.6266 58.3704 19.1248 57.6981 18.1535C57.5819 17.9829 57.4757 17.9879 57.3793 18.1733C56.9986 18.9123 56.3906 19.2361 55.5577 19.1446C55.4563 19.1323 55.3797 19.1718 55.3278 19.2583C54.658 20.3755 52.7795 19.807 51.7192 19.6859C50.5921 19.5574 49.8951 18.7566 49.1956 18.0324C49.0646 17.8989 48.8545 17.8841 48.7062 18.0003C47.8214 18.6973 46.8871 19.6093 45.723 19.676C43.7185 19.7873 42.1687 19.5821 40.8909 17.6864C40.75 17.4763 40.5894 17.459 40.4114 17.6394C39.9517 18.1016 39.4079 18.6454 38.8419 18.9642C37.2749 19.8466 35.6955 19.8466 34.1013 18.9691C33.6045 18.6948 33.2955 18.2795 32.9297 17.8421C32.8778 17.7827 32.7913 17.7704 32.7246 17.8124C32.0918 18.2276 31.5901 18.6923 30.861 18.9222C30.1738 19.1397 29.5189 19.4561 28.7774 19.288C28.1767 19.152 27.5712 19.1125 26.9582 19.1669C25.7644 19.2756 25.102 18.3413 24.279 17.627C24.1331 17.501 23.9873 17.501 23.839 17.6221C22.5093 18.7244 20.8879 19.3819 19.0811 18.7788C18.656 18.6379 18.3124 18.6997 18.2704 19.2015C18.263 19.283 18.2852 19.3547 18.3396 19.4165C19.1503 20.3508 18.431 22.726 18.0677 23.8333C17.8008 24.644 17.3237 25.2521 16.6366 25.6599C16.5773 25.6945 16.5575 25.7711 16.5921 25.828C16.6045 25.8477 16.6218 25.865 16.644 25.8774C17.566 26.3297 18.1765 27.0539 18.4805 28.0475C18.8043 29.1078 18.9872 29.7727 18.5077 30.6378C18.3519 30.9196 18.2407 31.2186 18.1789 31.5375C17.9639 32.6275 17.1903 33.0897 16.5353 33.8015C16.4735 33.8682 16.4809 33.9251 16.5551 33.972C17.1038 34.3304 17.5783 34.763 17.9787 35.2746C18.4706 35.9073 18.4681 36.681 18.6683 37.4546C18.8685 38.2356 18.6609 39.5852 18.2556 40.2624C17.7736 41.0657 17.1606 41.7528 16.4117 42.3237C16.3623 42.3608 16.3573 42.4004 16.3993 42.4473C17 43.1196 17.5585 43.8314 18.0751 44.5828C18.2951 44.9066 18.4113 45.2502 18.4212 45.611C18.4558 46.8518 18.1641 48.0036 17.5437 49.0689C17.2471 49.583 16.7528 50.018 16.3499 50.4653C16.1893 50.6408 16.2214 50.7718 16.4463 50.8559C16.8591 51.0091 17.1606 51.2785 17.3559 51.6616C17.3929 51.7382 17.4004 51.8149 17.3756 51.8964C17.2298 52.3833 17.3905 52.7096 17.8576 52.8777C17.9318 52.9049 17.996 52.9568 18.0331 53.026L18.6139 54.0863C18.651 54.1555 18.6658 54.2297 18.6535 54.3063C18.5423 55.0082 18.5398 55.7275 18.2481 56.3553C17.7637 57.3958 17.0568 58.251 16.125 58.9209C16.0657 58.9629 16.0533 59.0444 16.0953 59.1013C16.1003 59.1062 16.1052 59.1136 16.1102 59.1186C18.1888 61.1008 18.9773 62.2007 17.6376 65.1123C17.4276 65.5646 17.1532 65.8365 16.8047 66.1949C16.7305 66.2715 16.7429 66.3309 16.8393 66.3729C17.7217 66.756 18.5793 67.186 19.4123 67.668C19.5804 67.7669 19.7583 67.9671 19.8003 68.1352C20.0426 69.1312 20.6184 69.7887 20.5468 70.9306C20.4949 71.7759 20.2304 72.7003 20.0203 73.553C20.0079 73.6 20.0376 73.6494 20.087 73.6593C20.0969 73.6593 20.1068 73.6618 20.1167 73.6593C21.5799 73.4813 23.268 73.8719 24.0095 75.2708C24.6299 76.4399 25.3418 77.1839 25.4332 78.6248C25.4382 78.7113 25.4851 78.7484 25.5716 78.7336C26.2909 78.6125 27.0151 78.5235 27.7442 78.4666C29.2 78.3579 29.813 79.0499 30.767 79.8186C31.6198 80.5082 31.9954 81.178 32.1437 82.2062C32.1586 82.3076 32.25 82.3768 32.3514 82.362C32.381 82.357 32.4107 82.3471 32.4354 82.3274C32.8877 81.9937 33.3548 81.7366 33.8418 81.5513C34.7933 81.1879 35.8166 81.4475 36.8151 81.6304C37.8977 81.8281 39.4153 83.6324 39.8454 84.6977C39.8874 84.8015 40.006 84.8509 40.1074 84.8089C40.1272 84.8015 40.1445 84.7916 40.1593 84.7792C40.6264 84.3961 40.8365 83.9092 41.2715 83.5558C41.7609 83.1578 42.1292 82.6363 42.7076 82.4213C44.4254 81.7811 46.5535 81.9541 48.3009 82.5572C48.3849 82.5869 48.4764 82.5399 48.506 82.4583C48.511 82.441 48.5159 82.4213 48.5135 82.4015C48.4887 81.3239 49.4972 80.5577 50.2016 79.8433C50.7923 79.2477 51.2545 78.9016 51.5931 78.8053C53.0094 78.4073 54.4207 78.4147 55.8295 78.8324C55.9185 78.8596 55.9655 78.825 55.9729 78.7336C55.9902 78.4963 55.9927 78.2615 55.9729 78.0292C55.8963 76.8502 56.3807 76.0914 57.2285 75.2486C58.5385 73.946 59.3887 73.2441 61.1461 73.2391C61.2474 73.2391 61.3265 73.1526 61.324 73.0537C61.324 73.0167 61.3117 72.9796 61.2869 72.9475C60.9162 72.4556 60.7506 71.9019 60.7901 71.2865C60.7951 71.2173 60.7803 71.1456 60.7506 71.0814C60.234 69.9666 61.0744 68.8173 61.675 67.9621C62.2311 67.1663 63.5164 66.7041 64.3567 66.2394C64.4605 66.1826 64.4951 66.054 64.4383 65.9502C64.4284 65.9329 64.416 65.9156 64.4012 65.9008C63.677 65.2063 63.1926 64.403 62.9429 63.4934C62.6315 62.349 63.2173 61.4147 63.5979 60.4211C63.8797 59.6871 64.285 59.2694 64.898 58.8492C64.9573 58.8096 64.9722 58.7281 64.9326 58.6712C64.9277 58.6638 64.9203 58.6564 64.9128 58.649C64.2702 58.0508 63.6572 57.6084 63.4348 56.6445C63.3384 56.2342 63.2445 55.5915 63.153 54.7191C63.0097 53.3918 64.4383 51.6493 65.3281 51.0165C65.3849 50.9745 65.3998 50.8954 65.3602 50.8386C65.3553 50.8287 65.3479 50.8213 65.338 50.8138C64.9573 50.4777 64.2208 49.9315 64.1096 49.4149C63.8995 48.4485 63.5979 47.5043 63.2049 46.5849C63.1728 46.5082 63.1679 46.4316 63.1876 46.3525C63.4645 45.2502 63.9365 44.2442 64.6039 43.3371C64.9277 42.8996 65.1748 42.8551 65.6889 42.8057L65.6939 42.8082ZM38.5774 18.502C38.5774 18.3858 38.4835 18.2919 38.3674 18.2919C38.2512 18.2919 38.1573 18.3858 38.1573 18.502C38.1573 18.6182 38.2512 18.7121 38.3674 18.7121C38.4835 18.7121 38.5774 18.6182 38.5774 18.502Z"/>
</mask>
<path d="M50.3746 17.4169C51.8205 18.6083 54.2502 19.0087 55.8641 17.8396C56.4648 17.4046 56.9863 15.9265 57.577 15.7214C57.8365 15.6324 58.1183 15.7684 58.2097 16.0279C58.227 16.0773 58.2369 16.1267 58.2369 16.1786C58.2666 17.2019 59.107 17.5084 59.8583 17.9904C61.3141 18.9246 63.8204 18.3389 65.244 17.6023C65.6346 17.3996 65.8867 17.0561 66.2055 16.762C66.3761 16.6062 66.6405 16.6186 66.7962 16.7891C66.8432 16.841 66.8778 16.9028 66.8926 16.972C66.9964 17.4021 66.905 17.7951 66.6183 18.151C65.3825 19.6785 64.6706 22.2021 65.6098 24.0533C66.0078 24.8319 66.947 25.5412 67.6193 26.2556C67.7898 26.4385 67.7824 26.7227 67.5995 26.8957C67.5575 26.9353 67.5106 26.9649 67.4587 26.9847C65.5085 27.7682 64.987 30.01 65.3132 31.8662C65.5283 33.0798 67.7009 33.4678 67.34 34.5726C67.3178 34.6443 67.2683 34.7036 67.2016 34.7358C65.1056 35.7739 64.4482 37.766 65.1575 39.9584C65.6024 41.3326 66.3711 41.7775 67.5699 42.4646C67.9456 42.6797 67.9406 42.9688 67.5575 43.3272C67.0434 43.8092 65.773 43.6757 65.4443 44.7336C65.2342 45.4108 64.8758 46.0782 64.8511 46.748C64.7818 48.5968 65.5505 49.7189 67.2337 50.4357C67.4809 50.5395 67.597 50.8287 67.4908 51.0758C67.4809 51.0981 67.4685 51.1203 67.4562 51.1426C67.3103 51.3799 67.078 51.5702 66.7616 51.7111C65.7606 52.1609 65.0438 53.1619 64.6978 54.1555C64.4432 54.8896 64.4803 55.6805 64.8115 56.5308C65.2564 57.6751 66.0424 57.9717 66.9717 58.5526C67.2683 58.738 67.3845 58.9555 67.3178 59.2001C67.2683 59.3806 67.12 59.5066 66.8729 59.5783C65.9237 59.8502 65.7507 59.8205 65.1724 60.6856C64.4803 61.7237 64.2752 62.9076 64.5594 64.2398C64.7547 65.1543 65.7853 65.7945 66.5763 66.1158C66.7097 66.1702 66.774 66.321 66.7221 66.452C66.7171 66.4643 66.7122 66.4742 66.7048 66.4866C66.3069 67.191 64.8585 67.4925 64.1293 67.757C62.7699 68.2439 62.2707 69.1386 61.9568 70.4758C61.8628 70.8787 61.8752 71.2519 61.9914 71.593C62.2608 72.3666 62.7205 73.0167 63.3705 73.5431C63.4373 73.5975 63.4645 73.6692 63.4496 73.7557C63.3829 74.1091 63.1951 74.3736 62.8812 74.5491C62.8119 74.5911 62.7279 74.601 62.6513 74.5763C61.8999 74.3514 61.366 74.3019 61.0497 74.428C60.2167 74.7567 59.3739 74.9495 58.7016 75.5427C57.4361 76.6648 56.7391 77.9278 57.4188 79.6555C57.4509 79.7346 57.4485 79.8137 57.4139 79.8903C57.2755 80.2017 57.0555 80.4365 56.7539 80.5947C56.3733 80.7925 55.7702 80.35 55.4341 80.177C53.3703 79.1068 50.2832 80.2759 49.5862 82.5498C49.4107 83.1208 49.9174 84.0773 49.339 84.4678C49.124 84.6136 48.904 84.5939 48.6815 84.411C46.6869 82.7673 43.061 82.8217 41.4025 84.9424C40.8464 85.6542 40.5696 87.1965 39.3115 86.6676C39.2423 86.6379 39.1929 86.5786 39.1731 86.5044C38.7752 84.8732 38.2734 83.7634 36.7311 82.9329C35.9822 82.53 35.1888 82.6388 34.3559 82.6709C33.5229 82.7055 32.8828 83.4248 32.4082 84.0353C32.3538 84.1045 32.2747 84.149 32.1882 84.1588C31.8892 84.1959 31.6049 84.149 31.333 84.0229C31.2614 83.9883 31.2193 83.9315 31.2095 83.8499C30.9376 81.707 29.9539 79.7049 27.5218 79.6753C26.5059 79.6604 25.3937 79.8483 24.6003 80.5206C24.4174 80.6738 24.1628 80.6985 23.9527 80.5873C23.3892 80.2858 23.75 79.5072 23.923 79.0401C24.1776 78.3406 23.6932 76.8082 23.4188 76.3633C22.796 75.3524 21.0238 74.4453 19.8918 74.7987C19.4123 74.9495 18.5052 75.4166 18.0529 75.1275C17.6945 74.8976 17.7958 74.3687 18.0529 74.0375C19.9659 71.5238 19.7534 68.3873 16.3969 67.4134C15.9273 67.2775 15.5269 67.4456 15.0597 67.5024C14.7952 67.5345 14.553 67.3442 14.5184 67.0773C14.5184 67.0748 14.5184 67.0723 14.5184 67.0699C14.4443 66.3729 15.0671 66.185 15.517 65.8588C16.0706 65.4584 16.4883 64.3214 16.7602 63.6986C16.8912 63.402 16.9307 63.0979 16.8838 62.789C16.8343 62.4726 16.7726 62.1612 16.6984 61.8522C16.3845 60.5645 15.5961 59.7365 14.3281 59.3657C13.8264 59.2199 13.7176 58.9431 14.0018 58.5377C14.0488 58.471 14.1131 58.4166 14.1872 58.3796C14.9089 58.0212 15.6776 57.727 16.1645 57.0992C17.0543 55.9524 17.5783 53.9578 16.5872 52.6775C16.0385 51.9681 15.3563 51.4342 14.5431 51.0758C14.0933 50.8756 13.8733 50.5914 14.0711 50.1094C14.1032 50.0279 14.1625 49.9784 14.249 49.9587C16.4488 49.447 17.2817 47.1756 16.7602 45.1513C16.5031 44.1552 15.2945 43.2506 14.558 42.5709C14.5011 42.519 14.4739 42.4399 14.4838 42.3633C14.6148 41.3993 15.9792 41.2461 16.5328 40.423C17.1334 39.5283 17.4028 38.5421 17.346 37.4669C17.2348 35.4328 15.9792 35.0645 14.5184 34.15C14.4492 34.108 14.3998 34.0412 14.3751 33.9646C14.2663 33.6211 14.3676 33.3615 14.6791 33.1861C15.3489 32.8079 16.3524 32.3778 16.7429 31.6907C17.299 30.7095 17.7414 28.2032 16.7182 27.3258C16.2041 26.8834 15.643 26.5126 15.0325 26.2135C14.8125 26.1048 14.6717 25.9812 14.6074 25.8453C14.4888 25.5882 14.5901 25.2842 14.8397 25.1532C15.4848 24.8146 16.2412 24.7726 16.6168 24.0113C17.6129 21.9969 17.4028 20.1506 16.7429 18.02C16.5872 17.5133 15.1734 16.6038 16.1645 15.9957C16.3474 15.882 16.5847 15.8969 16.7528 16.0328C17.7291 16.8114 18.4755 17.5356 19.8349 17.7778C21.6911 18.1115 22.4796 17.234 23.7031 16.0402C23.755 15.9933 23.7871 15.9265 23.797 15.8573L23.8835 15.2814C23.8934 15.2073 23.9626 15.1554 24.0367 15.1653C24.0441 15.1653 24.0491 15.1653 24.0565 15.1702C24.2023 15.2147 24.3136 15.3086 24.3852 15.4495C25.4258 17.4936 27.0151 17.8594 29.2915 17.9978C29.8673 18.0324 30.2925 17.9681 30.5619 17.8075C31.3948 17.3131 31.8768 16.93 32.0029 16.6581C32.2031 16.2306 32.4502 15.8252 32.7444 15.4446C32.858 15.2963 33.0706 15.2691 33.2189 15.3828C33.2931 15.4396 33.34 15.5261 33.3499 15.6176C33.4389 16.4555 33.8492 17.0783 34.5783 17.4861C34.9589 17.6987 35.8191 18.2524 36.2739 18.1757C36.8942 18.0695 37.5146 17.9854 38.1375 17.9236C39.398 17.8 39.6551 15.6942 40.797 15.3358C41.012 15.2691 41.2443 15.3778 41.3284 15.5879C41.6027 16.2775 41.7362 17.0388 42.4752 17.3922C42.8905 17.5924 43.3131 17.7729 43.7432 17.9385C45.5351 18.6231 47.7967 17.9434 48.558 16.0748C48.5901 15.9933 48.6469 15.934 48.7235 15.8969C49.1511 15.6868 50.1423 15.6818 50.1052 16.4184C50.0953 16.5988 50.1398 16.8608 50.2411 17.2093C50.2659 17.2909 50.3103 17.3601 50.3771 17.4169H50.3746ZM65.6939 42.8082C65.7952 42.8008 65.8076 42.7637 65.7285 42.697C65.5184 42.519 65.2119 42.4127 65.0167 42.2446C63.5806 41.0138 63.0245 38.594 63.6152 36.8836C63.8574 36.1767 63.8995 35.6626 64.4902 35.1164C64.8288 34.8025 65.1823 34.4837 65.5505 34.1599C65.6222 34.0956 65.6247 34.0314 65.553 33.9646C65.0809 33.5321 64.5767 33.1885 64.29 32.6349C63.6424 31.3818 63.5658 30.0149 64.1466 28.7198C64.5693 27.7756 64.945 26.7548 65.988 26.3519C66.0449 26.3297 66.0721 26.2679 66.0498 26.2111C66.0424 26.1913 66.0276 26.1715 66.0103 26.1592C64.8189 25.3361 63.9885 24.2337 63.8995 22.7285C63.8327 21.599 64.023 20.5016 64.4655 19.4387C64.4778 19.4116 64.4655 19.3794 64.4358 19.3671C64.4259 19.3621 64.4136 19.3621 64.4037 19.3646C63.1555 19.5945 61.8925 19.6909 60.6147 19.6587C59.3418 19.6266 58.3704 19.1248 57.6981 18.1535C57.5819 17.9829 57.4757 17.9879 57.3793 18.1733C56.9986 18.9123 56.3906 19.2361 55.5577 19.1446C55.4563 19.1323 55.3797 19.1718 55.3278 19.2583C54.658 20.3755 52.7795 19.807 51.7192 19.6859C50.5921 19.5574 49.8951 18.7566 49.1956 18.0324C49.0646 17.8989 48.8545 17.8841 48.7062 18.0003C47.8214 18.6973 46.8871 19.6093 45.723 19.676C43.7185 19.7873 42.1687 19.5821 40.8909 17.6864C40.75 17.4763 40.5894 17.459 40.4114 17.6394C39.9517 18.1016 39.4079 18.6454 38.8419 18.9642C37.2749 19.8466 35.6955 19.8466 34.1013 18.9691C33.6045 18.6948 33.2955 18.2795 32.9297 17.8421C32.8778 17.7827 32.7913 17.7704 32.7246 17.8124C32.0918 18.2276 31.5901 18.6923 30.861 18.9222C30.1738 19.1397 29.5189 19.4561 28.7774 19.288C28.1767 19.152 27.5712 19.1125 26.9582 19.1669C25.7644 19.2756 25.102 18.3413 24.279 17.627C24.1331 17.501 23.9873 17.501 23.839 17.6221C22.5093 18.7244 20.8879 19.3819 19.0811 18.7788C18.656 18.6379 18.3124 18.6997 18.2704 19.2015C18.263 19.283 18.2852 19.3547 18.3396 19.4165C19.1503 20.3508 18.431 22.726 18.0677 23.8333C17.8008 24.644 17.3237 25.2521 16.6366 25.6599C16.5773 25.6945 16.5575 25.7711 16.5921 25.828C16.6045 25.8477 16.6218 25.865 16.644 25.8774C17.566 26.3297 18.1765 27.0539 18.4805 28.0475C18.8043 29.1078 18.9872 29.7727 18.5077 30.6378C18.3519 30.9196 18.2407 31.2186 18.1789 31.5375C17.9639 32.6275 17.1903 33.0897 16.5353 33.8015C16.4735 33.8682 16.4809 33.9251 16.5551 33.972C17.1038 34.3304 17.5783 34.763 17.9787 35.2746C18.4706 35.9073 18.4681 36.681 18.6683 37.4546C18.8685 38.2356 18.6609 39.5852 18.2556 40.2624C17.7736 41.0657 17.1606 41.7528 16.4117 42.3237C16.3623 42.3608 16.3573 42.4004 16.3993 42.4473C17 43.1196 17.5585 43.8314 18.0751 44.5828C18.2951 44.9066 18.4113 45.2502 18.4212 45.611C18.4558 46.8518 18.1641 48.0036 17.5437 49.0689C17.2471 49.583 16.7528 50.018 16.3499 50.4653C16.1893 50.6408 16.2214 50.7718 16.4463 50.8559C16.8591 51.0091 17.1606 51.2785 17.3559 51.6616C17.3929 51.7382 17.4004 51.8149 17.3756 51.8964C17.2298 52.3833 17.3905 52.7096 17.8576 52.8777C17.9318 52.9049 17.996 52.9568 18.0331 53.026L18.6139 54.0863C18.651 54.1555 18.6658 54.2297 18.6535 54.3063C18.5423 55.0082 18.5398 55.7275 18.2481 56.3553C17.7637 57.3958 17.0568 58.251 16.125 58.9209C16.0657 58.9629 16.0533 59.0444 16.0953 59.1013C16.1003 59.1062 16.1052 59.1136 16.1102 59.1186C18.1888 61.1008 18.9773 62.2007 17.6376 65.1123C17.4276 65.5646 17.1532 65.8365 16.8047 66.1949C16.7305 66.2715 16.7429 66.3309 16.8393 66.3729C17.7217 66.756 18.5793 67.186 19.4123 67.668C19.5804 67.7669 19.7583 67.9671 19.8003 68.1352C20.0426 69.1312 20.6184 69.7887 20.5468 70.9306C20.4949 71.7759 20.2304 72.7003 20.0203 73.553C20.0079 73.6 20.0376 73.6494 20.087 73.6593C20.0969 73.6593 20.1068 73.6618 20.1167 73.6593C21.5799 73.4813 23.268 73.8719 24.0095 75.2708C24.6299 76.4399 25.3418 77.1839 25.4332 78.6248C25.4382 78.7113 25.4851 78.7484 25.5716 78.7336C26.2909 78.6125 27.0151 78.5235 27.7442 78.4666C29.2 78.3579 29.813 79.0499 30.767 79.8186C31.6198 80.5082 31.9954 81.178 32.1437 82.2062C32.1586 82.3076 32.25 82.3768 32.3514 82.362C32.381 82.357 32.4107 82.3471 32.4354 82.3274C32.8877 81.9937 33.3548 81.7366 33.8418 81.5513C34.7933 81.1879 35.8166 81.4475 36.8151 81.6304C37.8977 81.8281 39.4153 83.6324 39.8454 84.6977C39.8874 84.8015 40.006 84.8509 40.1074 84.8089C40.1272 84.8015 40.1445 84.7916 40.1593 84.7792C40.6264 84.3961 40.8365 83.9092 41.2715 83.5558C41.7609 83.1578 42.1292 82.6363 42.7076 82.4213C44.4254 81.7811 46.5535 81.9541 48.3009 82.5572C48.3849 82.5869 48.4764 82.5399 48.506 82.4583C48.511 82.441 48.5159 82.4213 48.5135 82.4015C48.4887 81.3239 49.4972 80.5577 50.2016 79.8433C50.7923 79.2477 51.2545 78.9016 51.5931 78.8053C53.0094 78.4073 54.4207 78.4147 55.8295 78.8324C55.9185 78.8596 55.9655 78.825 55.9729 78.7336C55.9902 78.4963 55.9927 78.2615 55.9729 78.0292C55.8963 76.8502 56.3807 76.0914 57.2285 75.2486C58.5385 73.946 59.3887 73.2441 61.1461 73.2391C61.2474 73.2391 61.3265 73.1526 61.324 73.0537C61.324 73.0167 61.3117 72.9796 61.2869 72.9475C60.9162 72.4556 60.7506 71.9019 60.7901 71.2865C60.7951 71.2173 60.7803 71.1456 60.7506 71.0814C60.234 69.9666 61.0744 68.8173 61.675 67.9621C62.2311 67.1663 63.5164 66.7041 64.3567 66.2394C64.4605 66.1826 64.4951 66.054 64.4383 65.9502C64.4284 65.9329 64.416 65.9156 64.4012 65.9008C63.677 65.2063 63.1926 64.403 62.9429 63.4934C62.6315 62.349 63.2173 61.4147 63.5979 60.4211C63.8797 59.6871 64.285 59.2694 64.898 58.8492C64.9573 58.8096 64.9722 58.7281 64.9326 58.6712C64.9277 58.6638 64.9203 58.6564 64.9128 58.649C64.2702 58.0508 63.6572 57.6084 63.4348 56.6445C63.3384 56.2342 63.2445 55.5915 63.153 54.7191C63.0097 53.3918 64.4383 51.6493 65.3281 51.0165C65.3849 50.9745 65.3998 50.8954 65.3602 50.8386C65.3553 50.8287 65.3479 50.8213 65.338 50.8138C64.9573 50.4777 64.2208 49.9315 64.1096 49.4149C63.8995 48.4485 63.5979 47.5043 63.2049 46.5849C63.1728 46.5082 63.1679 46.4316 63.1876 46.3525C63.4645 45.2502 63.9365 44.2442 64.6039 43.3371C64.9277 42.8996 65.1748 42.8551 65.6889 42.8057L65.6939 42.8082ZM38.5774 18.502C38.5774 18.3858 38.4835 18.2919 38.3674 18.2919C38.2512 18.2919 38.1573 18.3858 38.1573 18.502C38.1573 18.6182 38.2512 18.7121 38.3674 18.7121C38.4835 18.7121 38.5774 18.6182 38.5774 18.502Z" fill="#EAFE01"/>
<path d="M50.3746 17.4169C51.8205 18.6083 54.2502 19.0087 55.8641 17.8396C56.4648 17.4046 56.9863 15.9265 57.577 15.7214C57.8365 15.6324 58.1183 15.7684 58.2097 16.0279C58.227 16.0773 58.2369 16.1267 58.2369 16.1786C58.2666 17.2019 59.107 17.5084 59.8583 17.9904C61.3141 18.9246 63.8204 18.3389 65.244 17.6023C65.6346 17.3996 65.8867 17.0561 66.2055 16.762C66.3761 16.6062 66.6405 16.6186 66.7962 16.7891C66.8432 16.841 66.8778 16.9028 66.8926 16.972C66.9964 17.4021 66.905 17.7951 66.6183 18.151C65.3825 19.6785 64.6706 22.2021 65.6098 24.0533C66.0078 24.8319 66.947 25.5412 67.6193 26.2556C67.7898 26.4385 67.7824 26.7227 67.5995 26.8957C67.5575 26.9353 67.5106 26.9649 67.4587 26.9847C65.5085 27.7682 64.987 30.01 65.3132 31.8662C65.5283 33.0798 67.7009 33.4678 67.34 34.5726C67.3178 34.6443 67.2683 34.7036 67.2016 34.7358C65.1056 35.7739 64.4482 37.766 65.1575 39.9584C65.6024 41.3326 66.3711 41.7775 67.5699 42.4646C67.9456 42.6797 67.9406 42.9688 67.5575 43.3272C67.0434 43.8092 65.773 43.6757 65.4443 44.7336C65.2342 45.4108 64.8758 46.0782 64.8511 46.748C64.7818 48.5968 65.5505 49.7189 67.2337 50.4357C67.4809 50.5395 67.597 50.8287 67.4908 51.0758C67.4809 51.0981 67.4685 51.1203 67.4562 51.1426C67.3103 51.3799 67.078 51.5702 66.7616 51.7111C65.7606 52.1609 65.0438 53.1619 64.6978 54.1555C64.4432 54.8896 64.4803 55.6805 64.8115 56.5308C65.2564 57.6751 66.0424 57.9717 66.9717 58.5526C67.2683 58.738 67.3845 58.9555 67.3178 59.2001C67.2683 59.3806 67.12 59.5066 66.8729 59.5783C65.9237 59.8502 65.7507 59.8205 65.1724 60.6856C64.4803 61.7237 64.2752 62.9076 64.5594 64.2398C64.7547 65.1543 65.7853 65.7945 66.5763 66.1158C66.7097 66.1702 66.774 66.321 66.7221 66.452C66.7171 66.4643 66.7122 66.4742 66.7048 66.4866C66.3069 67.191 64.8585 67.4925 64.1293 67.757C62.7699 68.2439 62.2707 69.1386 61.9568 70.4758C61.8628 70.8787 61.8752 71.2519 61.9914 71.593C62.2608 72.3666 62.7205 73.0167 63.3705 73.5431C63.4373 73.5975 63.4645 73.6692 63.4496 73.7557C63.3829 74.1091 63.1951 74.3736 62.8812 74.5491C62.8119 74.5911 62.7279 74.601 62.6513 74.5763C61.8999 74.3514 61.366 74.3019 61.0497 74.428C60.2167 74.7567 59.3739 74.9495 58.7016 75.5427C57.4361 76.6648 56.7391 77.9278 57.4188 79.6555C57.4509 79.7346 57.4485 79.8137 57.4139 79.8903C57.2755 80.2017 57.0555 80.4365 56.7539 80.5947C56.3733 80.7925 55.7702 80.35 55.4341 80.177C53.3703 79.1068 50.2832 80.2759 49.5862 82.5498C49.4107 83.1208 49.9174 84.0773 49.339 84.4678C49.124 84.6136 48.904 84.5939 48.6815 84.411C46.6869 82.7673 43.061 82.8217 41.4025 84.9424C40.8464 85.6542 40.5696 87.1965 39.3115 86.6676C39.2423 86.6379 39.1929 86.5786 39.1731 86.5044C38.7752 84.8732 38.2734 83.7634 36.7311 82.9329C35.9822 82.53 35.1888 82.6388 34.3559 82.6709C33.5229 82.7055 32.8828 83.4248 32.4082 84.0353C32.3538 84.1045 32.2747 84.149 32.1882 84.1588C31.8892 84.1959 31.6049 84.149 31.333 84.0229C31.2614 83.9883 31.2193 83.9315 31.2095 83.8499C30.9376 81.707 29.9539 79.7049 27.5218 79.6753C26.5059 79.6604 25.3937 79.8483 24.6003 80.5206C24.4174 80.6738 24.1628 80.6985 23.9527 80.5873C23.3892 80.2858 23.75 79.5072 23.923 79.0401C24.1776 78.3406 23.6932 76.8082 23.4188 76.3633C22.796 75.3524 21.0238 74.4453 19.8918 74.7987C19.4123 74.9495 18.5052 75.4166 18.0529 75.1275C17.6945 74.8976 17.7958 74.3687 18.0529 74.0375C19.9659 71.5238 19.7534 68.3873 16.3969 67.4134C15.9273 67.2775 15.5269 67.4456 15.0597 67.5024C14.7952 67.5345 14.553 67.3442 14.5184 67.0773C14.5184 67.0748 14.5184 67.0723 14.5184 67.0699C14.4443 66.3729 15.0671 66.185 15.517 65.8588C16.0706 65.4584 16.4883 64.3214 16.7602 63.6986C16.8912 63.402 16.9307 63.0979 16.8838 62.789C16.8343 62.4726 16.7726 62.1612 16.6984 61.8522C16.3845 60.5645 15.5961 59.7365 14.3281 59.3657C13.8264 59.2199 13.7176 58.9431 14.0018 58.5377C14.0488 58.471 14.1131 58.4166 14.1872 58.3796C14.9089 58.0212 15.6776 57.727 16.1645 57.0992C17.0543 55.9524 17.5783 53.9578 16.5872 52.6775C16.0385 51.9681 15.3563 51.4342 14.5431 51.0758C14.0933 50.8756 13.8733 50.5914 14.0711 50.1094C14.1032 50.0279 14.1625 49.9784 14.249 49.9587C16.4488 49.447 17.2817 47.1756 16.7602 45.1513C16.5031 44.1552 15.2945 43.2506 14.558 42.5709C14.5011 42.519 14.4739 42.4399 14.4838 42.3633C14.6148 41.3993 15.9792 41.2461 16.5328 40.423C17.1334 39.5283 17.4028 38.5421 17.346 37.4669C17.2348 35.4328 15.9792 35.0645 14.5184 34.15C14.4492 34.108 14.3998 34.0412 14.3751 33.9646C14.2663 33.6211 14.3676 33.3615 14.6791 33.1861C15.3489 32.8079 16.3524 32.3778 16.7429 31.6907C17.299 30.7095 17.7414 28.2032 16.7182 27.3258C16.2041 26.8834 15.643 26.5126 15.0325 26.2135C14.8125 26.1048 14.6717 25.9812 14.6074 25.8453C14.4888 25.5882 14.5901 25.2842 14.8397 25.1532C15.4848 24.8146 16.2412 24.7726 16.6168 24.0113C17.6129 21.9969 17.4028 20.1506 16.7429 18.02C16.5872 17.5133 15.1734 16.6038 16.1645 15.9957C16.3474 15.882 16.5847 15.8969 16.7528 16.0328C17.7291 16.8114 18.4755 17.5356 19.8349 17.7778C21.6911 18.1115 22.4796 17.234 23.7031 16.0402C23.755 15.9933 23.7871 15.9265 23.797 15.8573L23.8835 15.2814C23.8934 15.2073 23.9626 15.1554 24.0367 15.1653C24.0441 15.1653 24.0491 15.1653 24.0565 15.1702C24.2023 15.2147 24.3136 15.3086 24.3852 15.4495C25.4258 17.4936 27.0151 17.8594 29.2915 17.9978C29.8673 18.0324 30.2925 17.9681 30.5619 17.8075C31.3948 17.3131 31.8768 16.93 32.0029 16.6581C32.2031 16.2306 32.4502 15.8252 32.7444 15.4446C32.858 15.2963 33.0706 15.2691 33.2189 15.3828C33.2931 15.4396 33.34 15.5261 33.3499 15.6176C33.4389 16.4555 33.8492 17.0783 34.5783 17.4861C34.9589 17.6987 35.8191 18.2524 36.2739 18.1757C36.8942 18.0695 37.5146 17.9854 38.1375 17.9236C39.398 17.8 39.6551 15.6942 40.797 15.3358C41.012 15.2691 41.2443 15.3778 41.3284 15.5879C41.6027 16.2775 41.7362 17.0388 42.4752 17.3922C42.8905 17.5924 43.3131 17.7729 43.7432 17.9385C45.5351 18.6231 47.7967 17.9434 48.558 16.0748C48.5901 15.9933 48.6469 15.934 48.7235 15.8969C49.1511 15.6868 50.1423 15.6818 50.1052 16.4184C50.0953 16.5988 50.1398 16.8608 50.2411 17.2093C50.2659 17.2909 50.3103 17.3601 50.3771 17.4169H50.3746ZM65.6939 42.8082C65.7952 42.8008 65.8076 42.7637 65.7285 42.697C65.5184 42.519 65.2119 42.4127 65.0167 42.2446C63.5806 41.0138 63.0245 38.594 63.6152 36.8836C63.8574 36.1767 63.8995 35.6626 64.4902 35.1164C64.8288 34.8025 65.1823 34.4837 65.5505 34.1599C65.6222 34.0956 65.6247 34.0314 65.553 33.9646C65.0809 33.5321 64.5767 33.1885 64.29 32.6349C63.6424 31.3818 63.5658 30.0149 64.1466 28.7198C64.5693 27.7756 64.945 26.7548 65.988 26.3519C66.0449 26.3297 66.0721 26.2679 66.0498 26.2111C66.0424 26.1913 66.0276 26.1715 66.0103 26.1592C64.8189 25.3361 63.9885 24.2337 63.8995 22.7285C63.8327 21.599 64.023 20.5016 64.4655 19.4387C64.4778 19.4116 64.4655 19.3794 64.4358 19.3671C64.4259 19.3621 64.4136 19.3621 64.4037 19.3646C63.1555 19.5945 61.8925 19.6909 60.6147 19.6587C59.3418 19.6266 58.3704 19.1248 57.6981 18.1535C57.5819 17.9829 57.4757 17.9879 57.3793 18.1733C56.9986 18.9123 56.3906 19.2361 55.5577 19.1446C55.4563 19.1323 55.3797 19.1718 55.3278 19.2583C54.658 20.3755 52.7795 19.807 51.7192 19.6859C50.5921 19.5574 49.8951 18.7566 49.1956 18.0324C49.0646 17.8989 48.8545 17.8841 48.7062 18.0003C47.8214 18.6973 46.8871 19.6093 45.723 19.676C43.7185 19.7873 42.1687 19.5821 40.8909 17.6864C40.75 17.4763 40.5894 17.459 40.4114 17.6394C39.9517 18.1016 39.4079 18.6454 38.8419 18.9642C37.2749 19.8466 35.6955 19.8466 34.1013 18.9691C33.6045 18.6948 33.2955 18.2795 32.9297 17.8421C32.8778 17.7827 32.7913 17.7704 32.7246 17.8124C32.0918 18.2276 31.5901 18.6923 30.861 18.9222C30.1738 19.1397 29.5189 19.4561 28.7774 19.288C28.1767 19.152 27.5712 19.1125 26.9582 19.1669C25.7644 19.2756 25.102 18.3413 24.279 17.627C24.1331 17.501 23.9873 17.501 23.839 17.6221C22.5093 18.7244 20.8879 19.3819 19.0811 18.7788C18.656 18.6379 18.3124 18.6997 18.2704 19.2015C18.263 19.283 18.2852 19.3547 18.3396 19.4165C19.1503 20.3508 18.431 22.726 18.0677 23.8333C17.8008 24.644 17.3237 25.2521 16.6366 25.6599C16.5773 25.6945 16.5575 25.7711 16.5921 25.828C16.6045 25.8477 16.6218 25.865 16.644 25.8774C17.566 26.3297 18.1765 27.0539 18.4805 28.0475C18.8043 29.1078 18.9872 29.7727 18.5077 30.6378C18.3519 30.9196 18.2407 31.2186 18.1789 31.5375C17.9639 32.6275 17.1903 33.0897 16.5353 33.8015C16.4735 33.8682 16.4809 33.9251 16.5551 33.972C17.1038 34.3304 17.5783 34.763 17.9787 35.2746C18.4706 35.9073 18.4681 36.681 18.6683 37.4546C18.8685 38.2356 18.6609 39.5852 18.2556 40.2624C17.7736 41.0657 17.1606 41.7528 16.4117 42.3237C16.3623 42.3608 16.3573 42.4004 16.3993 42.4473C17 43.1196 17.5585 43.8314 18.0751 44.5828C18.2951 44.9066 18.4113 45.2502 18.4212 45.611C18.4558 46.8518 18.1641 48.0036 17.5437 49.0689C17.2471 49.583 16.7528 50.018 16.3499 50.4653C16.1893 50.6408 16.2214 50.7718 16.4463 50.8559C16.8591 51.0091 17.1606 51.2785 17.3559 51.6616C17.3929 51.7382 17.4004 51.8149 17.3756 51.8964C17.2298 52.3833 17.3905 52.7096 17.8576 52.8777C17.9318 52.9049 17.996 52.9568 18.0331 53.026L18.6139 54.0863C18.651 54.1555 18.6658 54.2297 18.6535 54.3063C18.5423 55.0082 18.5398 55.7275 18.2481 56.3553C17.7637 57.3958 17.0568 58.251 16.125 58.9209C16.0657 58.9629 16.0533 59.0444 16.0953 59.1013C16.1003 59.1062 16.1052 59.1136 16.1102 59.1186C18.1888 61.1008 18.9773 62.2007 17.6376 65.1123C17.4276 65.5646 17.1532 65.8365 16.8047 66.1949C16.7305 66.2715 16.7429 66.3309 16.8393 66.3729C17.7217 66.756 18.5793 67.186 19.4123 67.668C19.5804 67.7669 19.7583 67.9671 19.8003 68.1352C20.0426 69.1312 20.6184 69.7887 20.5468 70.9306C20.4949 71.7759 20.2304 72.7003 20.0203 73.553C20.0079 73.6 20.0376 73.6494 20.087 73.6593C20.0969 73.6593 20.1068 73.6618 20.1167 73.6593C21.5799 73.4813 23.268 73.8719 24.0095 75.2708C24.6299 76.4399 25.3418 77.1839 25.4332 78.6248C25.4382 78.7113 25.4851 78.7484 25.5716 78.7336C26.2909 78.6125 27.0151 78.5235 27.7442 78.4666C29.2 78.3579 29.813 79.0499 30.767 79.8186C31.6198 80.5082 31.9954 81.178 32.1437 82.2062C32.1586 82.3076 32.25 82.3768 32.3514 82.362C32.381 82.357 32.4107 82.3471 32.4354 82.3274C32.8877 81.9937 33.3548 81.7366 33.8418 81.5513C34.7933 81.1879 35.8166 81.4475 36.8151 81.6304C37.8977 81.8281 39.4153 83.6324 39.8454 84.6977C39.8874 84.8015 40.006 84.8509 40.1074 84.8089C40.1272 84.8015 40.1445 84.7916 40.1593 84.7792C40.6264 84.3961 40.8365 83.9092 41.2715 83.5558C41.7609 83.1578 42.1292 82.6363 42.7076 82.4213C44.4254 81.7811 46.5535 81.9541 48.3009 82.5572C48.3849 82.5869 48.4764 82.5399 48.506 82.4583C48.511 82.441 48.5159 82.4213 48.5135 82.4015C48.4887 81.3239 49.4972 80.5577 50.2016 79.8433C50.7923 79.2477 51.2545 78.9016 51.5931 78.8053C53.0094 78.4073 54.4207 78.4147 55.8295 78.8324C55.9185 78.8596 55.9655 78.825 55.9729 78.7336C55.9902 78.4963 55.9927 78.2615 55.9729 78.0292C55.8963 76.8502 56.3807 76.0914 57.2285 75.2486C58.5385 73.946 59.3887 73.2441 61.1461 73.2391C61.2474 73.2391 61.3265 73.1526 61.324 73.0537C61.324 73.0167 61.3117 72.9796 61.2869 72.9475C60.9162 72.4556 60.7506 71.9019 60.7901 71.2865C60.7951 71.2173 60.7803 71.1456 60.7506 71.0814C60.234 69.9666 61.0744 68.8173 61.675 67.9621C62.2311 67.1663 63.5164 66.7041 64.3567 66.2394C64.4605 66.1826 64.4951 66.054 64.4383 65.9502C64.4284 65.9329 64.416 65.9156 64.4012 65.9008C63.677 65.2063 63.1926 64.403 62.9429 63.4934C62.6315 62.349 63.2173 61.4147 63.5979 60.4211C63.8797 59.6871 64.285 59.2694 64.898 58.8492C64.9573 58.8096 64.9722 58.7281 64.9326 58.6712C64.9277 58.6638 64.9203 58.6564 64.9128 58.649C64.2702 58.0508 63.6572 57.6084 63.4348 56.6445C63.3384 56.2342 63.2445 55.5915 63.153 54.7191C63.0097 53.3918 64.4383 51.6493 65.3281 51.0165C65.3849 50.9745 65.3998 50.8954 65.3602 50.8386C65.3553 50.8287 65.3479 50.8213 65.338 50.8138C64.9573 50.4777 64.2208 49.9315 64.1096 49.4149C63.8995 48.4485 63.5979 47.5043 63.2049 46.5849C63.1728 46.5082 63.1679 46.4316 63.1876 46.3525C63.4645 45.2502 63.9365 44.2442 64.6039 43.3371C64.9277 42.8996 65.1748 42.8551 65.6889 42.8057L65.6939 42.8082ZM38.5774 18.502C38.5774 18.3858 38.4835 18.2919 38.3674 18.2919C38.2512 18.2919 38.1573 18.3858 38.1573 18.502C38.1573 18.6182 38.2512 18.7121 38.3674 18.7121C38.4835 18.7121 38.5774 18.6182 38.5774 18.502Z" stroke="#EAFE01" stroke-width="6" mask="url(#path-2-outside-2_192_332)"/>
</svg>
