<svg width="82" height="103" viewBox="0 0 82 103" fill="none" xmlns="http://www.w3.org/2000/svg">
<mask id="path-1-outside-1_192_340" maskUnits="userSpaceOnUse" x="0.791016" y="0.861328" width="81" height="101" fill="black">
<rect fill="white" x="0.791016" y="0.861328" width="81" height="101"/>
<path d="M65.8419 5.32267C66.5018 5.04337 67.1469 5.06315 67.7772 5.38199C67.8587 5.42401 67.9576 5.39929 68.012 5.32514C68.1405 5.14718 68.3753 5.02854 68.6126 5.04337C71.5415 5.21144 74.4506 5.15213 77.3449 4.86294C77.513 4.84564 77.6638 4.96922 77.6811 5.13729C77.6811 5.14965 77.6811 5.15954 77.6811 5.1719C77.6737 7.57187 77.6984 9.95701 77.7503 12.3273C77.7577 12.619 77.6465 12.9897 77.6613 13.2369C77.7379 14.6136 77.644 16.104 77.686 17.3547C77.8491 22.3375 77.8516 27.3154 78.0123 32.2982C78.2298 39.0705 78.1136 45.8824 78.1309 52.6597C78.1457 57.7043 77.8788 62.7588 77.7206 67.7985C77.7083 68.1791 77.6415 68.6463 77.5155 69.1999C76.6825 72.8901 75.4788 76.5012 73.1234 79.4696C70.192 83.1623 67.5424 85.9874 63.8324 88.7828C63.217 89.245 62.3074 89.7492 61.4893 90.1101C55.5648 92.7251 49.5092 95.0534 43.4759 97.394C42.7023 97.6931 41.244 98.3555 40.4407 98.0688C39.3433 97.6783 38.2558 97.2606 37.1806 96.8181C34.363 95.6614 31.5749 94.6703 28.8215 93.4542C28.4112 93.2738 27.8403 93.0686 27.1062 92.8388C25.6405 92.379 24.3355 91.5733 22.9415 90.948C17.7683 88.6271 13.1587 84.6799 9.77254 80.2309C8.26978 78.2585 7.23169 75.7449 6.23067 73.3993C4.72049 69.8599 4.44614 65.7149 4.40907 61.916C4.27807 48.5172 4.22864 33.5662 3.98147 21.7023C3.92462 18.897 4.05068 16.492 3.91226 14.0451C3.86283 13.1578 3.94687 12.1889 3.92215 11.4004C3.87272 9.61839 3.82823 7.80667 3.79116 5.96282C3.78374 5.59949 4.07045 5.29795 4.43378 5.29054C4.44614 5.29054 4.45603 5.29054 4.46839 5.29054C5.74376 5.32267 7.03149 5.38693 8.3291 5.4858C8.70232 5.51299 9.12003 5.50557 9.57728 5.46108C11.1666 5.30784 12.8473 5.37458 14.4415 5.41165C14.9852 5.42401 15.9171 5.40671 17.2394 5.35727C18.495 5.31278 19.8173 5.44131 20.9815 5.4067C23.0107 5.34244 24.338 5.4858 25.9421 5.39929C27.1556 5.33503 28.127 5.41659 29.1305 5.37704C31.3698 5.29054 33.6239 5.31278 35.8657 5.31525C39.3681 5.32267 42.8704 5.2757 46.3727 5.17437C47.9298 5.12988 49.487 5.09034 51.0441 5.05573C51.5533 5.04337 52.3096 5.0582 53.3106 5.10022C54.3289 5.14471 55.5104 5.10269 56.3334 5.11011C59.1734 5.1373 62.0158 5.14966 64.8557 5.14224C65.1721 5.14224 65.3055 5.21886 65.5947 5.32762C65.6763 5.35728 65.7578 5.3548 65.8394 5.32267H65.8419ZM5.4694 6.56344L5.34335 6.43986C5.17034 6.26931 5.15056 6.28414 5.2865 6.48929C5.42244 6.6969 5.54603 6.83284 5.54355 7.10472C5.53614 9.91004 5.55838 13.1356 5.46446 16.3487C5.35571 20.0191 5.4694 23.7142 5.53366 27.3871C5.55344 28.4993 5.51389 30.18 5.5831 31.5815C5.59793 31.8509 5.56333 32.2216 5.47929 32.6962C5.33594 33.5266 5.59051 34.4634 5.57816 35.1604C5.55097 36.6607 5.71657 38.2129 5.69185 39.6267C5.66961 40.9984 5.67702 42.3702 5.7141 43.742C5.72646 44.2264 5.58063 44.7652 5.62264 45.3016C5.68196 46.0431 5.71162 46.4188 5.71162 46.4287C5.71162 50.7961 5.9316 55.1684 5.78083 59.5308C5.73634 60.826 5.89453 62.1211 5.96373 63.4311C6.18371 67.665 7.08092 71.9039 9.0261 75.7325C9.49077 76.6495 10.2792 78.0138 11.3939 79.828C11.473 79.9566 11.4582 80.0702 11.4928 80.2136C11.5126 80.2902 11.562 80.3569 11.6287 80.4014C11.9402 80.6041 12.1404 80.7598 12.2294 80.8711C14.9902 84.3561 18.8732 87.5247 22.9761 89.3809C24.904 90.2559 26.8071 91.2297 28.7943 91.9638C30.7939 92.7028 32.8083 93.5531 34.8326 94.2946C35.4505 94.5195 36.0585 94.7741 36.6542 95.0558C37.7318 95.5625 38.8984 95.6614 40.0181 96.0865C40.3246 96.2027 40.5273 96.2447 40.6286 96.2126C42.8407 95.5304 45.0479 94.8408 47.2526 94.1413C47.9422 93.9238 48.8888 93.7286 49.6946 93.427C50.7203 93.0414 51.316 92.8215 51.4791 92.7696C54.7664 91.7043 57.7077 90.3152 60.7948 88.9583C62.7597 88.0957 64.4775 86.6448 66.1434 85.3299C67.4633 84.2869 68.5582 83.0041 69.715 81.7584C70.2834 81.1479 71.1213 79.9615 72.2286 78.2017C73.6819 75.8932 75.0883 72.8728 75.6222 70.1861C75.8347 69.1134 76.1313 68.0482 76.25 66.9878C76.5787 64.0416 76.7147 62.005 76.6553 60.8779C76.554 58.9624 76.6949 56.1224 76.6331 53.7101C76.5713 51.3447 76.601 48.8879 76.6924 46.5226C76.7196 45.8157 76.6405 44.9901 76.6257 44.1325C76.5589 40.4225 76.5688 36.6978 76.5664 32.9878C76.5664 28.4054 76.2401 23.865 76.4625 19.2751C76.4749 18.9933 76.4576 18.635 76.4057 18.1975C76.3217 17.4683 76.4082 16.5415 76.4082 16.0373C76.4082 15.3081 76.3983 14.5815 76.3835 13.8523C76.3662 13.1108 76.6084 12.5077 76.5046 11.7316C76.3291 10.4241 76.3044 9.11418 76.4279 7.80173C76.4551 7.48783 76.3563 7.12945 76.1289 6.73151C76.0893 6.6623 76.03 6.6277 75.9484 6.62523C74.9202 6.58321 73.9563 6.45221 72.9256 6.52142C70.3057 6.69443 67.6956 6.60546 65.0732 6.64747C64.2847 6.65983 63.3208 6.56097 62.4335 6.60793C60.8689 6.69444 59.596 6.63759 57.9894 6.67713C54.1114 6.77353 49.2645 6.78342 43.4463 6.70927C40.9104 6.67713 38.1915 6.80813 35.8657 6.79577C33.6116 6.78094 31.1894 6.96879 28.9748 6.52142C28.8957 6.50412 28.8191 6.51153 28.7424 6.54119C27.9392 6.85014 27.0642 6.77106 26.2164 6.80319C24.0389 6.8897 21.7304 6.80071 19.4317 6.83779C17.9488 6.86003 16.3867 6.6796 14.2042 6.80566C12.9066 6.87981 11.5126 6.74387 10.1458 6.80072C9.79726 6.81307 9.57234 6.68454 9.27821 6.52636C9.20901 6.48928 9.12497 6.48929 9.05576 6.53131C8.28214 7.00339 7.13035 6.7414 6.2282 6.80813C6.00822 6.82543 5.84015 6.74881 5.635 6.66972C5.57321 6.64747 5.51636 6.6104 5.4694 6.56344Z"/>
</mask>
<path d="M65.8419 5.32267C66.5018 5.04337 67.1469 5.06315 67.7772 5.38199C67.8587 5.42401 67.9576 5.39929 68.012 5.32514C68.1405 5.14718 68.3753 5.02854 68.6126 5.04337C71.5415 5.21144 74.4506 5.15213 77.3449 4.86294C77.513 4.84564 77.6638 4.96922 77.6811 5.13729C77.6811 5.14965 77.6811 5.15954 77.6811 5.1719C77.6737 7.57187 77.6984 9.95701 77.7503 12.3273C77.7577 12.619 77.6465 12.9897 77.6613 13.2369C77.7379 14.6136 77.644 16.104 77.686 17.3547C77.8491 22.3375 77.8516 27.3154 78.0123 32.2982C78.2298 39.0705 78.1136 45.8824 78.1309 52.6597C78.1457 57.7043 77.8788 62.7588 77.7206 67.7985C77.7083 68.1791 77.6415 68.6463 77.5155 69.1999C76.6825 72.8901 75.4788 76.5012 73.1234 79.4696C70.192 83.1623 67.5424 85.9874 63.8324 88.7828C63.217 89.245 62.3074 89.7492 61.4893 90.1101C55.5648 92.7251 49.5092 95.0534 43.4759 97.394C42.7023 97.6931 41.244 98.3555 40.4407 98.0688C39.3433 97.6783 38.2558 97.2606 37.1806 96.8181C34.363 95.6614 31.5749 94.6703 28.8215 93.4542C28.4112 93.2738 27.8403 93.0686 27.1062 92.8388C25.6405 92.379 24.3355 91.5733 22.9415 90.948C17.7683 88.6271 13.1587 84.6799 9.77254 80.2309C8.26978 78.2585 7.23169 75.7449 6.23067 73.3993C4.72049 69.8599 4.44614 65.7149 4.40907 61.916C4.27807 48.5172 4.22864 33.5662 3.98147 21.7023C3.92462 18.897 4.05068 16.492 3.91226 14.0451C3.86283 13.1578 3.94687 12.1889 3.92215 11.4004C3.87272 9.61839 3.82823 7.80667 3.79116 5.96282C3.78374 5.59949 4.07045 5.29795 4.43378 5.29054C4.44614 5.29054 4.45603 5.29054 4.46839 5.29054C5.74376 5.32267 7.03149 5.38693 8.3291 5.4858C8.70232 5.51299 9.12003 5.50557 9.57728 5.46108C11.1666 5.30784 12.8473 5.37458 14.4415 5.41165C14.9852 5.42401 15.9171 5.40671 17.2394 5.35727C18.495 5.31278 19.8173 5.44131 20.9815 5.4067C23.0107 5.34244 24.338 5.4858 25.9421 5.39929C27.1556 5.33503 28.127 5.41659 29.1305 5.37704C31.3698 5.29054 33.6239 5.31278 35.8657 5.31525C39.3681 5.32267 42.8704 5.2757 46.3727 5.17437C47.9298 5.12988 49.487 5.09034 51.0441 5.05573C51.5533 5.04337 52.3096 5.0582 53.3106 5.10022C54.3289 5.14471 55.5104 5.10269 56.3334 5.11011C59.1734 5.1373 62.0158 5.14966 64.8557 5.14224C65.1721 5.14224 65.3055 5.21886 65.5947 5.32762C65.6763 5.35728 65.7578 5.3548 65.8394 5.32267H65.8419ZM5.4694 6.56344L5.34335 6.43986C5.17034 6.26931 5.15056 6.28414 5.2865 6.48929C5.42244 6.6969 5.54603 6.83284 5.54355 7.10472C5.53614 9.91004 5.55838 13.1356 5.46446 16.3487C5.35571 20.0191 5.4694 23.7142 5.53366 27.3871C5.55344 28.4993 5.51389 30.18 5.5831 31.5815C5.59793 31.8509 5.56333 32.2216 5.47929 32.6962C5.33594 33.5266 5.59051 34.4634 5.57816 35.1604C5.55097 36.6607 5.71657 38.2129 5.69185 39.6267C5.66961 40.9984 5.67702 42.3702 5.7141 43.742C5.72646 44.2264 5.58063 44.7652 5.62264 45.3016C5.68196 46.0431 5.71162 46.4188 5.71162 46.4287C5.71162 50.7961 5.9316 55.1684 5.78083 59.5308C5.73634 60.826 5.89453 62.1211 5.96373 63.4311C6.18371 67.665 7.08092 71.9039 9.0261 75.7325C9.49077 76.6495 10.2792 78.0138 11.3939 79.828C11.473 79.9566 11.4582 80.0702 11.4928 80.2136C11.5126 80.2902 11.562 80.3569 11.6287 80.4014C11.9402 80.6041 12.1404 80.7598 12.2294 80.8711C14.9902 84.3561 18.8732 87.5247 22.9761 89.3809C24.904 90.2559 26.8071 91.2297 28.7943 91.9638C30.7939 92.7028 32.8083 93.5531 34.8326 94.2946C35.4505 94.5195 36.0585 94.7741 36.6542 95.0558C37.7318 95.5625 38.8984 95.6614 40.0181 96.0865C40.3246 96.2027 40.5273 96.2447 40.6286 96.2126C42.8407 95.5304 45.0479 94.8408 47.2526 94.1413C47.9422 93.9238 48.8888 93.7286 49.6946 93.427C50.7203 93.0414 51.316 92.8215 51.4791 92.7696C54.7664 91.7043 57.7077 90.3152 60.7948 88.9583C62.7597 88.0957 64.4775 86.6448 66.1434 85.3299C67.4633 84.2869 68.5582 83.0041 69.715 81.7584C70.2834 81.1479 71.1213 79.9615 72.2286 78.2017C73.6819 75.8932 75.0883 72.8728 75.6222 70.1861C75.8347 69.1134 76.1313 68.0482 76.25 66.9878C76.5787 64.0416 76.7147 62.005 76.6553 60.8779C76.554 58.9624 76.6949 56.1224 76.6331 53.7101C76.5713 51.3447 76.601 48.8879 76.6924 46.5226C76.7196 45.8157 76.6405 44.9901 76.6257 44.1325C76.5589 40.4225 76.5688 36.6978 76.5664 32.9878C76.5664 28.4054 76.2401 23.865 76.4625 19.2751C76.4749 18.9933 76.4576 18.635 76.4057 18.1975C76.3217 17.4683 76.4082 16.5415 76.4082 16.0373C76.4082 15.3081 76.3983 14.5815 76.3835 13.8523C76.3662 13.1108 76.6084 12.5077 76.5046 11.7316C76.3291 10.4241 76.3044 9.11418 76.4279 7.80173C76.4551 7.48783 76.3563 7.12945 76.1289 6.73151C76.0893 6.6623 76.03 6.6277 75.9484 6.62523C74.9202 6.58321 73.9563 6.45221 72.9256 6.52142C70.3057 6.69443 67.6956 6.60546 65.0732 6.64747C64.2847 6.65983 63.3208 6.56097 62.4335 6.60793C60.8689 6.69444 59.596 6.63759 57.9894 6.67713C54.1114 6.77353 49.2645 6.78342 43.4463 6.70927C40.9104 6.67713 38.1915 6.80813 35.8657 6.79577C33.6116 6.78094 31.1894 6.96879 28.9748 6.52142C28.8957 6.50412 28.8191 6.51153 28.7424 6.54119C27.9392 6.85014 27.0642 6.77106 26.2164 6.80319C24.0389 6.8897 21.7304 6.80071 19.4317 6.83779C17.9488 6.86003 16.3867 6.6796 14.2042 6.80566C12.9066 6.87981 11.5126 6.74387 10.1458 6.80072C9.79726 6.81307 9.57234 6.68454 9.27821 6.52636C9.20901 6.48928 9.12497 6.48929 9.05576 6.53131C8.28214 7.00339 7.13035 6.7414 6.2282 6.80813C6.00822 6.82543 5.84015 6.74881 5.635 6.66972C5.57321 6.64747 5.51636 6.6104 5.4694 6.56344Z" fill="#EAFE01"/>
<path d="M65.8419 5.32267C66.5018 5.04337 67.1469 5.06315 67.7772 5.38199C67.8587 5.42401 67.9576 5.39929 68.012 5.32514C68.1405 5.14718 68.3753 5.02854 68.6126 5.04337C71.5415 5.21144 74.4506 5.15213 77.3449 4.86294C77.513 4.84564 77.6638 4.96922 77.6811 5.13729C77.6811 5.14965 77.6811 5.15954 77.6811 5.1719C77.6737 7.57187 77.6984 9.95701 77.7503 12.3273C77.7577 12.619 77.6465 12.9897 77.6613 13.2369C77.7379 14.6136 77.644 16.104 77.686 17.3547C77.8491 22.3375 77.8516 27.3154 78.0123 32.2982C78.2298 39.0705 78.1136 45.8824 78.1309 52.6597C78.1457 57.7043 77.8788 62.7588 77.7206 67.7985C77.7083 68.1791 77.6415 68.6463 77.5155 69.1999C76.6825 72.8901 75.4788 76.5012 73.1234 79.4696C70.192 83.1623 67.5424 85.9874 63.8324 88.7828C63.217 89.245 62.3074 89.7492 61.4893 90.1101C55.5648 92.7251 49.5092 95.0534 43.4759 97.394C42.7023 97.6931 41.244 98.3555 40.4407 98.0688C39.3433 97.6783 38.2558 97.2606 37.1806 96.8181C34.363 95.6614 31.5749 94.6703 28.8215 93.4542C28.4112 93.2738 27.8403 93.0686 27.1062 92.8388C25.6405 92.379 24.3355 91.5733 22.9415 90.948C17.7683 88.6271 13.1587 84.6799 9.77254 80.2309C8.26978 78.2585 7.23169 75.7449 6.23067 73.3993C4.72049 69.8599 4.44614 65.7149 4.40907 61.916C4.27807 48.5172 4.22864 33.5662 3.98147 21.7023C3.92462 18.897 4.05068 16.492 3.91226 14.0451C3.86283 13.1578 3.94687 12.1889 3.92215 11.4004C3.87272 9.61839 3.82823 7.80667 3.79116 5.96282C3.78374 5.59949 4.07045 5.29795 4.43378 5.29054C4.44614 5.29054 4.45603 5.29054 4.46839 5.29054C5.74376 5.32267 7.03149 5.38693 8.3291 5.4858C8.70232 5.51299 9.12003 5.50557 9.57728 5.46108C11.1666 5.30784 12.8473 5.37458 14.4415 5.41165C14.9852 5.42401 15.9171 5.40671 17.2394 5.35727C18.495 5.31278 19.8173 5.44131 20.9815 5.4067C23.0107 5.34244 24.338 5.4858 25.9421 5.39929C27.1556 5.33503 28.127 5.41659 29.1305 5.37704C31.3698 5.29054 33.6239 5.31278 35.8657 5.31525C39.3681 5.32267 42.8704 5.2757 46.3727 5.17437C47.9298 5.12988 49.487 5.09034 51.0441 5.05573C51.5533 5.04337 52.3096 5.0582 53.3106 5.10022C54.3289 5.14471 55.5104 5.10269 56.3334 5.11011C59.1734 5.1373 62.0158 5.14966 64.8557 5.14224C65.1721 5.14224 65.3055 5.21886 65.5947 5.32762C65.6763 5.35728 65.7578 5.3548 65.8394 5.32267H65.8419ZM5.4694 6.56344L5.34335 6.43986C5.17034 6.26931 5.15056 6.28414 5.2865 6.48929C5.42244 6.6969 5.54603 6.83284 5.54355 7.10472C5.53614 9.91004 5.55838 13.1356 5.46446 16.3487C5.35571 20.0191 5.4694 23.7142 5.53366 27.3871C5.55344 28.4993 5.51389 30.18 5.5831 31.5815C5.59793 31.8509 5.56333 32.2216 5.47929 32.6962C5.33594 33.5266 5.59051 34.4634 5.57816 35.1604C5.55097 36.6607 5.71657 38.2129 5.69185 39.6267C5.66961 40.9984 5.67702 42.3702 5.7141 43.742C5.72646 44.2264 5.58063 44.7652 5.62264 45.3016C5.68196 46.0431 5.71162 46.4188 5.71162 46.4287C5.71162 50.7961 5.9316 55.1684 5.78083 59.5308C5.73634 60.826 5.89453 62.1211 5.96373 63.4311C6.18371 67.665 7.08092 71.9039 9.0261 75.7325C9.49077 76.6495 10.2792 78.0138 11.3939 79.828C11.473 79.9566 11.4582 80.0702 11.4928 80.2136C11.5126 80.2902 11.562 80.3569 11.6287 80.4014C11.9402 80.6041 12.1404 80.7598 12.2294 80.8711C14.9902 84.3561 18.8732 87.5247 22.9761 89.3809C24.904 90.2559 26.8071 91.2297 28.7943 91.9638C30.7939 92.7028 32.8083 93.5531 34.8326 94.2946C35.4505 94.5195 36.0585 94.7741 36.6542 95.0558C37.7318 95.5625 38.8984 95.6614 40.0181 96.0865C40.3246 96.2027 40.5273 96.2447 40.6286 96.2126C42.8407 95.5304 45.0479 94.8408 47.2526 94.1413C47.9422 93.9238 48.8888 93.7286 49.6946 93.427C50.7203 93.0414 51.316 92.8215 51.4791 92.7696C54.7664 91.7043 57.7077 90.3152 60.7948 88.9583C62.7597 88.0957 64.4775 86.6448 66.1434 85.3299C67.4633 84.2869 68.5582 83.0041 69.715 81.7584C70.2834 81.1479 71.1213 79.9615 72.2286 78.2017C73.6819 75.8932 75.0883 72.8728 75.6222 70.1861C75.8347 69.1134 76.1313 68.0482 76.25 66.9878C76.5787 64.0416 76.7147 62.005 76.6553 60.8779C76.554 58.9624 76.6949 56.1224 76.6331 53.7101C76.5713 51.3447 76.601 48.8879 76.6924 46.5226C76.7196 45.8157 76.6405 44.9901 76.6257 44.1325C76.5589 40.4225 76.5688 36.6978 76.5664 32.9878C76.5664 28.4054 76.2401 23.865 76.4625 19.2751C76.4749 18.9933 76.4576 18.635 76.4057 18.1975C76.3217 17.4683 76.4082 16.5415 76.4082 16.0373C76.4082 15.3081 76.3983 14.5815 76.3835 13.8523C76.3662 13.1108 76.6084 12.5077 76.5046 11.7316C76.3291 10.4241 76.3044 9.11418 76.4279 7.80173C76.4551 7.48783 76.3563 7.12945 76.1289 6.73151C76.0893 6.6623 76.03 6.6277 75.9484 6.62523C74.9202 6.58321 73.9563 6.45221 72.9256 6.52142C70.3057 6.69443 67.6956 6.60546 65.0732 6.64747C64.2847 6.65983 63.3208 6.56097 62.4335 6.60793C60.8689 6.69444 59.596 6.63759 57.9894 6.67713C54.1114 6.77353 49.2645 6.78342 43.4463 6.70927C40.9104 6.67713 38.1915 6.80813 35.8657 6.79577C33.6116 6.78094 31.1894 6.96879 28.9748 6.52142C28.8957 6.50412 28.8191 6.51153 28.7424 6.54119C27.9392 6.85014 27.0642 6.77106 26.2164 6.80319C24.0389 6.8897 21.7304 6.80071 19.4317 6.83779C17.9488 6.86003 16.3867 6.6796 14.2042 6.80566C12.9066 6.87981 11.5126 6.74387 10.1458 6.80072C9.79726 6.81307 9.57234 6.68454 9.27821 6.52636C9.20901 6.48928 9.12497 6.48929 9.05576 6.53131C8.28214 7.00339 7.13035 6.7414 6.2282 6.80813C6.00822 6.82543 5.84015 6.74881 5.635 6.66972C5.57321 6.64747 5.51636 6.6104 5.4694 6.56344Z" stroke="#EAFE01" stroke-width="6" mask="url(#path-1-outside-1_192_340)"/>
<mask id="path-2-outside-2_192_340" maskUnits="userSpaceOnUse" x="8.67383" y="9.75488" width="64" height="83" fill="black">
<rect fill="white" x="8.67383" y="9.75488" width="64" height="83"/>
<path d="M59.686 19.4287C59.7256 19.404 59.7552 19.3645 59.775 19.3101C59.7923 19.2607 59.8245 19.2186 59.8689 19.189C61.5348 18.0594 63.2156 16.9521 64.9111 15.8671C65.7515 15.3307 66.9947 14.4088 68.1242 13.9318C68.5568 13.7489 69.0017 13.9787 68.9918 14.483C68.9794 15.1676 68.1761 16.2947 67.8029 16.8755C66.9107 18.272 66.1024 19.7179 65.3782 21.2083C65.0742 21.8361 64.6615 22.4219 64.2981 23.0546C64.2166 23.1955 64.2388 23.3216 64.3624 23.4279C65.7515 24.6365 67.2147 25.7463 68.7545 26.7596C68.8954 26.8486 68.9349 27.0365 68.8435 27.1773C68.8311 27.1971 68.8163 27.2144 68.799 27.2317C68.3096 27.7063 67.9166 28.2278 67.358 28.6282C66.8588 28.9866 66.362 29.3499 65.8676 29.7133C65.4573 30.0148 64.79 30.3336 64.3673 30.8848C64.3426 30.9145 64.3476 30.959 64.3772 30.9812C64.3772 30.9812 64.3797 30.9837 64.3822 30.9861L68.8929 34.0485C69.0017 34.1227 69.0412 34.2636 68.9868 34.3847C68.7669 34.8716 68.4901 35.2473 68.1564 35.5068C66.9527 36.4436 65.8058 37.321 64.7134 38.1342C64.4884 38.2998 64.4934 38.4629 64.7257 38.6186C66.3323 39.6987 67.8672 40.8727 69.3279 42.1456C69.3897 42.2025 69.4046 42.2692 69.37 42.3458C68.9349 43.3073 68.0451 43.5965 67.4174 44.0686C66.5696 44.7038 65.6452 45.2105 64.6491 45.5886C64.4959 45.6455 64.4192 45.8185 64.4761 45.9717C64.4959 46.0237 64.5305 46.0706 64.575 46.1028C66.053 47.2125 67.5014 48.3717 69.0091 49.4246C69.7432 49.9387 68.8979 50.6283 68.3788 50.9892C67.2295 51.7925 66.0283 52.5958 64.7752 53.4015C64.659 53.4757 64.6244 53.6339 64.6985 53.75C64.7134 53.7723 64.7307 53.792 64.7529 53.8093L69.192 57.4254C69.3675 57.5663 69.3873 57.7294 69.2563 57.9123C68.4134 59.0665 67.2097 59.4496 66.0901 60.2925C65.618 60.6459 65.1237 60.9722 64.6071 61.2688C64.4267 61.3751 64.3476 61.5308 64.3748 61.7384C64.3995 61.9386 64.5404 62.124 64.7949 62.292C66.3274 63.2955 67.4445 64.5857 68.7842 65.8611C68.8732 65.9451 68.8979 66.0737 68.8509 66.1824C68.3022 67.4479 66.7006 68.0584 65.4153 68.3921C64.5527 68.617 63.7321 68.9111 62.9585 69.2745C62.8423 69.3288 62.783 69.4598 62.8176 69.5809C63.0425 70.3471 63.4405 71.1084 63.6654 71.7683C64.0361 72.8583 64.4291 73.9384 64.8468 75.0111C65.141 75.7724 65.2596 76.4867 64.219 76.6746C64.0683 76.7018 63.8705 76.6844 63.6308 76.6227C62.7781 76.3953 61.8191 76.3557 61.0578 76.2173C60.1458 76.0542 59.256 75.943 58.386 75.8836C58.2797 75.8762 58.2253 75.9256 58.2253 76.0319L58.2105 82.3322C58.2105 82.609 57.9831 82.8339 57.7087 82.8314C57.6272 82.8314 57.5456 82.8117 57.4739 82.7721L51.9597 79.7888C51.8583 79.7345 51.7718 79.7518 51.6977 79.8383C51.4752 80.0953 51.3442 80.3252 51.3047 80.5254C51.0007 82.0924 50.6522 83.4518 50.2592 84.6061C50.1455 84.9398 49.928 85.2512 49.6042 85.5379C49.5449 85.5898 49.4806 85.5972 49.4089 85.5601C47.6293 84.5715 46.1266 83.2689 44.5027 82.0455C44.4162 81.9812 44.2976 81.9985 44.2333 82.085C44.2333 82.0875 44.2284 82.0924 44.2259 82.0949C43.6945 82.9254 43.1532 83.6421 42.8269 84.6036C42.4512 85.7134 41.9866 86.4697 41.6356 87.4386C41.381 88.143 41.0894 88.5113 40.4665 88.8351C40.2787 88.9315 40.0513 88.8598 39.9524 88.6719C39.9499 88.667 39.9475 88.6596 39.945 88.6546L36.9914 82.0899C36.9716 82.0479 36.9222 82.0282 36.8801 82.0455C36.8752 82.0455 36.8703 82.0504 36.8653 82.0553C36.0423 82.6164 35.2711 83.0761 34.4999 83.7855C33.9636 84.2823 32.9354 85.3871 32.0975 85.6491C31.0075 85.9853 31.2324 84.0327 31.1632 83.484C31.0495 82.5744 30.6046 81.5017 30.5972 80.4018C30.5972 80.2387 30.4638 80.1101 30.3006 80.1101C30.2635 80.1101 30.2265 80.1176 30.1943 80.1324C29.176 80.5452 28.2047 81.2397 27.3841 81.65C26.8181 81.9342 26.2545 82.2259 25.6935 82.525C24.8185 82.9896 24.0572 81.8205 24.1339 81.0222C24.2846 79.428 24.3464 77.8634 24.3217 76.3285C24.3168 76.1036 24.1363 75.9207 23.9114 75.9158L17.1465 75.7749C16.8252 75.7675 16.5731 75.5005 16.5805 75.1792C16.5805 75.0754 16.6126 74.9741 16.667 74.8876C17.3319 73.8247 17.935 72.5222 18.5257 71.5731C19.0101 70.7945 19.5242 70.0382 20.068 69.3016C20.115 69.2398 20.1001 69.1509 20.0383 69.1039C20.0284 69.0965 20.0186 69.0915 20.0062 69.0866C18.9088 68.6392 17.6581 68.5033 16.6176 68.2092C15.3941 67.8607 14.1583 67.8903 13.1894 67.05C13.0213 66.9041 13.0213 66.7583 13.1894 66.6125L18.4713 62.0152C18.543 61.951 18.5504 61.8422 18.4886 61.773C18.4886 61.773 18.4837 61.7681 18.4812 61.7656C17.7323 61.0018 16.8944 60.3469 15.9675 59.7981C14.9863 59.2173 14.1336 58.5104 13.1251 57.9716C12.8977 57.8505 12.8137 57.5687 12.9348 57.3413C12.9744 57.2696 13.0287 57.2079 13.098 57.1658L18.1895 53.9799C18.2884 53.9181 18.3205 53.7871 18.2588 53.6882C18.2415 53.6611 18.2217 53.6388 18.1945 53.6215C16.4989 52.4944 14.9566 51.1301 13.1845 50.2131C13.0139 50.1241 12.9472 49.9116 13.0362 49.7385C13.0633 49.6842 13.1054 49.6397 13.1573 49.6075C13.8296 49.175 14.398 48.6214 15.0777 48.2383C15.9799 47.7316 16.9191 47.1656 17.8954 46.5378C18.1228 46.3919 18.1302 46.2362 17.9152 46.0731L13.2018 42.5114C13.0535 42.4002 13.0238 42.1877 13.135 42.0418C13.1375 42.0369 13.14 42.0344 13.1449 42.0295C14.2053 40.7566 16.054 40.0175 17.7496 39.2958C18.0932 39.15 18.1451 38.9053 17.9078 38.5618C17.6483 38.1836 17.1762 37.7659 16.4915 37.3062C15.2755 36.4905 14.2003 35.6625 12.8409 35.0891C12.7074 35.0347 12.6456 34.8815 12.7025 34.748C12.8854 34.3155 13.1919 33.967 13.6244 33.6976C15.0135 32.8399 16.4693 31.9723 17.9918 31.0974C18.0635 31.0554 18.0907 30.9639 18.0536 30.8873C18.0017 30.781 17.9102 30.6797 17.7817 30.5882C16.0886 29.3549 14.5192 27.9757 12.7865 26.8016C12.6704 26.7226 12.6382 26.5644 12.7173 26.4482C12.742 26.4136 12.7742 26.3839 12.8112 26.3642C13.486 26.0083 13.9531 25.3631 14.5142 24.9751C15.4732 24.3102 16.4421 23.6923 17.4209 23.1164C17.5667 23.0299 17.6013 22.9138 17.5271 22.763C17.0452 21.7768 16.3086 20.9241 15.8687 20.0541C15.5647 19.4559 15.2582 18.8602 14.9492 18.2646C14.6155 17.6195 14.0718 16.3614 13.4934 15.4766C13.3105 15.1973 13.2265 14.8932 13.2438 14.567C13.2463 14.4879 13.2833 14.4311 13.355 14.394C13.706 14.2185 14.0026 14.2037 14.2473 14.352C15.3373 15.0168 16.5904 15.5334 17.5642 16.1711C18.8346 17.004 20.0853 17.9136 21.3137 18.9047C21.5337 19.0852 21.8575 19.0506 22.0379 18.8306C22.0453 18.8207 22.0527 18.8133 22.0577 18.8034C23.1106 17.3155 24.2055 15.9511 25.083 14.3174C25.1176 14.2556 25.1695 14.2136 25.2387 14.1938C25.7973 14.0381 26.1903 14.1295 26.4201 14.4681C27.3865 15.8943 28.3035 17.4044 29.1686 19.0036C29.2848 19.2186 29.4207 19.231 29.5764 19.0456C30.1919 18.3091 30.6763 17.2215 31.0545 16.5888C31.5117 15.8275 31.9986 15.0242 32.5177 14.1814C32.5844 14.0751 32.6685 14.0554 32.7747 14.1172C33.6052 14.6065 34.1218 15.175 34.668 16.0599C35.281 17.0535 35.9236 18.0026 36.5984 18.9072C36.6651 18.9937 36.7887 19.011 36.8752 18.9468C36.895 18.9319 36.9148 18.9122 36.9271 18.8874L39.8189 13.9713C39.9401 13.7662 40.1106 13.7069 40.3306 13.7934C40.8274 13.9886 41.2129 14.2828 41.4824 14.6807C42.4834 16.1513 43.4621 17.6219 44.4211 19.0926C44.4632 19.1568 44.5521 19.1742 44.6164 19.1321C44.6288 19.1222 44.6411 19.1124 44.651 19.1C45.7904 17.6269 46.4874 15.8127 47.5206 14.2259C47.6491 14.0257 47.9111 13.959 48.1212 14.0751C49.011 14.562 49.4163 15.4939 49.8785 16.1167C50.5286 16.9892 51.1514 17.9111 51.7471 18.8825C51.9621 19.231 52.1821 19.2359 52.4095 18.8948C52.9829 18.0372 53.6157 17.1301 54.3102 16.1785C54.8243 15.4766 55.153 14.7548 55.5263 13.9862C55.5732 13.8922 55.6869 13.8527 55.7784 13.8997C55.7784 13.8997 55.7833 13.8996 55.7858 13.9021C56.7917 14.4508 57.6346 16.3021 58.2723 17.1771C58.727 17.7999 59.4216 18.5933 59.5427 19.3669C59.5575 19.4608 59.6045 19.4831 59.686 19.4312V19.4287ZM43.5783 80.5081C44.3371 80.4883 44.9352 80.6613 45.3727 81.0296C46.6382 82.0899 47.8938 83.0737 49.137 83.9857C49.2878 84.0969 49.3867 84.0598 49.4287 83.8769C49.6709 82.8339 49.9329 81.9318 50.1356 80.7948C50.2567 80.1126 50.405 78.7186 50.8697 78.0191C50.9241 77.9376 50.9982 77.9054 51.0946 77.9227C51.4134 77.9845 51.7125 78.0958 51.9943 78.2589C53.6256 79.1932 55.0814 80.3499 56.809 80.9802C56.9203 81.0222 57.0438 80.9629 57.0859 80.8516C57.0958 80.8269 57.0982 80.7997 57.0982 80.775L57.0068 74.806C57.0018 74.5465 57.1279 74.4352 57.3849 74.4698L63.5937 75.288C63.6456 75.2954 63.6951 75.2608 63.7049 75.2064C63.7049 75.1916 63.7049 75.1743 63.7 75.1594C63.3045 73.9409 62.8349 72.7298 62.2936 71.5236C62.0366 70.9502 61.8759 70.2409 61.562 69.6205C61.1913 68.8839 61.1295 68.3179 62.0761 68.1029C62.6965 67.962 63.2526 67.8804 63.7964 67.6778C64.8666 67.2798 65.9591 66.914 67.0738 66.5828C67.4767 66.4617 67.5335 66.2491 67.2468 65.9427C65.8899 64.4893 64.3945 63.209 62.7608 62.1042C62.5309 61.9485 62.4642 61.642 62.6075 61.4047C62.8844 60.9524 63.3169 60.636 63.8359 60.3567C65.1583 59.6424 66.4065 58.8367 67.5755 57.9345C67.6719 57.8604 67.6892 57.722 67.6151 57.628C67.6052 57.6157 67.5953 57.6033 67.583 57.5934C66.0654 56.3403 64.4909 55.1959 62.8621 54.1554C62.3999 53.8612 62.3653 53.5103 62.7583 53.1074C63.0821 52.7712 64.308 52.4129 64.8641 52.0569C65.7243 51.5082 66.6017 50.9373 67.494 50.3441C67.6176 50.2625 67.6497 50.0945 67.5681 49.9709C67.5558 49.9536 67.5434 49.9387 67.5286 49.9239C66.2359 48.7054 64.7752 47.6747 63.1439 46.8343C62.8844 46.7009 62.7089 46.4562 62.6125 46.1003C62.5902 46.0237 62.6026 45.952 62.6471 45.8852C62.9264 45.4651 63.2452 45.1611 63.6011 44.9757C64.9729 44.254 66.3002 43.4606 67.5854 42.593C67.6398 42.5559 67.6546 42.4818 67.6176 42.4274C67.6176 42.4274 67.6151 42.4225 67.6126 42.4225C66.8538 41.3967 65.3338 40.633 64.3154 39.8347C63.8013 39.4318 63.2551 39.155 62.694 38.8114C62.5235 38.7051 62.4592 38.4901 62.5433 38.3096C62.6174 38.1515 62.7682 37.9957 62.9956 37.845C64.4365 36.886 65.9096 35.9023 67.4198 34.8963C67.5212 34.8296 67.5483 34.6912 67.4791 34.5898C67.4643 34.5676 67.4445 34.5478 67.4223 34.533C66.2186 33.7025 64.8814 32.7039 63.5418 32.0514C63.0351 31.8043 62.5482 31.7153 62.2887 31.127C62.2096 30.9515 62.2714 30.7439 62.437 30.6401C63.957 29.6861 65.4351 28.6579 66.8711 27.5555C67.0244 27.4369 67.0886 27.3182 67.0664 27.2021C67.0343 27.0389 66.9477 26.9005 66.8316 26.819L62.5235 23.7986C62.4098 23.7195 62.3826 23.5638 62.4617 23.4501C62.4642 23.4452 62.4691 23.4402 62.4716 23.4377C64.2512 21.2108 65.3881 18.6057 67.0169 16.2601C67.1084 16.1291 67.2048 15.9907 67.3061 15.8498C67.3531 15.788 67.3383 15.746 67.2616 15.7287C67.1282 15.6965 67.0046 15.7163 66.8934 15.788C66.0382 16.3466 64.9383 17.093 63.5937 18.0248C62.5482 18.7515 61.0306 19.5152 59.8541 20.4792C59.5452 20.7288 59.2955 20.709 59.1027 20.4149C58.1165 18.9245 57.1353 17.4069 56.1615 15.8671C56.1195 15.7979 56.028 15.7781 55.9613 15.8201C55.9464 15.8275 55.9341 15.8399 55.9242 15.8523C55.6202 16.2255 55.3508 16.6283 55.111 17.0584C54.5796 18.0125 53.848 18.7144 53.3858 19.7426C53.1905 20.1801 52.805 20.7609 52.4565 20.9315C52.0165 21.149 51.7001 21.0748 51.5074 20.709C50.452 18.707 49.3447 17.0312 48.183 15.6817C48.1163 15.6051 48.0619 15.6125 48.0199 15.704C47.7159 16.3614 47.2635 16.9546 46.9818 17.5725C46.789 17.9927 45.1083 22.4787 44.1641 20.8153C43.1211 18.9789 41.9767 17.2314 40.7285 15.573C40.6321 15.4444 40.4492 15.4197 40.3182 15.5161C40.2861 15.5408 40.2589 15.5705 40.2391 15.6076C39.4408 17.0288 38.6523 18.4302 37.8737 19.8118C37.6735 20.1702 37.3918 20.4495 37.0284 20.6522C36.9592 20.6917 36.8876 20.6992 36.8109 20.6769C36.3586 20.541 36.0373 20.3136 35.8495 19.9923C35.0561 18.6452 34.1959 17.3155 33.2715 16.0006C33.1554 15.835 33.0194 15.8176 32.8687 15.9536C32.6116 16.1835 32.3867 16.5023 32.1914 16.9101C31.5117 18.3288 30.968 19.6759 29.7939 20.7955C29.4998 21.0724 29.2477 21.0402 29.0327 20.6991L25.869 15.6768C25.8072 15.5779 25.7454 15.5779 25.6836 15.6768C25.2189 16.4331 24.7765 17.0337 24.2772 17.9012C23.8323 18.6773 22.945 20.2295 21.9786 20.5533C21.897 20.5805 21.8179 20.5706 21.7438 20.5261C20.3522 19.6734 18.9582 18.4796 17.7891 17.7282C16.9957 17.2191 16.1826 16.7272 15.3496 16.2502C15.2829 16.2131 15.1989 16.2354 15.1618 16.3021C15.147 16.3293 15.1395 16.3614 15.1445 16.3935C15.1519 16.4454 15.1816 16.5245 15.2335 16.6308C16.2938 18.8306 17.3764 20.9636 19.0497 22.7605C19.2622 22.9904 19.2499 23.3512 19.0175 23.5638C18.9904 23.5885 18.9607 23.6107 18.931 23.6305L14.6946 26.2356C14.492 26.3592 14.4277 26.6237 14.5538 26.8264C14.6674 27.0068 14.8578 27.1897 15.1247 27.3751C16.3457 28.2179 17.5716 29.0558 18.8 29.8863C19.2301 30.1755 19.5786 30.4992 19.8431 30.8552C20.0062 31.0702 19.9642 31.3791 19.7467 31.5423C19.7269 31.5571 19.7071 31.5695 19.6849 31.5818L14.8059 34.2191C14.5018 34.3847 14.4895 34.57 14.7713 34.7702C15.9997 35.6477 17.2676 36.5894 18.5702 37.6003C18.9755 37.9142 19.4278 38.0946 19.89 38.3442C20.0507 38.4332 20.1199 38.631 20.0458 38.799C19.7269 39.5208 19.2573 39.9236 18.4837 40.2425C17.3813 40.6973 15.7006 41.2979 14.8405 42.116C14.7119 42.2371 14.7169 42.3533 14.8578 42.4595C15.8613 43.2208 16.4989 43.6954 17.8658 44.6099C18.6048 45.1042 19.2375 45.7196 19.7689 46.4562C19.8431 46.56 19.8184 46.7034 19.7146 46.7775C19.7096 46.78 19.7047 46.7824 19.7022 46.7874L15.1766 49.6051C14.8528 49.8053 14.8504 50.0129 15.1643 50.2279L19.8134 53.3941C19.9741 53.5029 20.026 53.7154 19.9345 53.886C19.549 54.6126 19.2326 54.9463 18.4713 55.3714C17.4505 55.9399 16.4396 56.5282 15.4435 57.1387C15.2087 57.282 15.0234 57.4303 14.8874 57.5836C14.8232 57.6577 14.8281 57.7689 14.9023 57.8357C14.9121 57.8455 14.922 57.853 14.9344 57.8579C15.7772 58.3102 16.5706 58.812 17.3171 59.3607C18.0882 59.9316 18.9434 60.9697 20.0037 61.5604C20.2064 61.6717 20.2781 61.9262 20.1669 62.1289C20.157 62.1462 20.1446 62.166 20.1323 62.1808C20.0062 62.3464 19.848 62.5021 19.6602 62.648C18.2217 63.7577 16.8178 64.907 15.451 66.1008C15.3076 66.2269 15.1939 66.3554 15.1074 66.4889C14.969 66.7039 15.0234 66.8473 15.2681 66.9214C16.2987 67.2279 17.4332 67.2872 18.3873 67.5245C19.1658 67.7198 20.8169 67.9175 21.3903 68.4341C21.4546 68.4934 21.4793 68.5651 21.467 68.6516C21.4225 68.9704 21.3384 69.2398 21.2173 69.4648C20.4462 70.8711 19.0645 72.7125 18.501 74.4896C18.4763 74.5638 18.5183 74.6453 18.5924 74.67C18.6073 74.675 18.6246 74.6775 18.6419 74.6775C19.4624 74.6478 20.2954 74.6651 21.1382 74.7318C22.5891 74.848 23.8818 74.7022 25.3005 74.413C25.4587 74.3809 25.6119 74.4822 25.6465 74.6379C25.6514 74.6626 25.6539 74.6874 25.6515 74.7121L25.3697 81.1581C25.3647 81.2842 25.4636 81.3929 25.5897 81.3979C25.6342 81.3979 25.6762 81.388 25.7157 81.3658C27.4632 80.3326 29.3911 79.4305 31.0644 78.2515C31.136 78.1996 31.2127 78.1872 31.2967 78.2144C32.2854 78.5184 31.5488 79.4478 31.7119 80.1027C32.0258 81.3732 32.2335 82.6658 32.3323 83.9808C32.3373 84.0673 32.3793 84.0895 32.4584 84.0524C32.886 83.8498 33.1776 83.6644 33.3383 83.4963C34.3195 82.4656 35.3774 81.5215 36.5168 80.6663C36.9592 80.3351 37.325 80.3845 37.6142 80.8171C38.1605 81.6278 38.3458 82.3692 38.7586 83.1602C39.3666 84.3293 39.6237 85.6986 40.4294 86.7441C40.5258 86.8701 40.6074 86.8627 40.6741 86.7169L43.4374 80.5995C43.4621 80.5427 43.5165 80.5081 43.5783 80.5056V80.5081Z"/>
</mask>
<path d="M59.686 19.4287C59.7256 19.404 59.7552 19.3645 59.775 19.3101C59.7923 19.2607 59.8245 19.2186 59.8689 19.189C61.5348 18.0594 63.2156 16.9521 64.9111 15.8671C65.7515 15.3307 66.9947 14.4088 68.1242 13.9318C68.5568 13.7489 69.0017 13.9787 68.9918 14.483C68.9794 15.1676 68.1761 16.2947 67.8029 16.8755C66.9107 18.272 66.1024 19.7179 65.3782 21.2083C65.0742 21.8361 64.6615 22.4219 64.2981 23.0546C64.2166 23.1955 64.2388 23.3216 64.3624 23.4279C65.7515 24.6365 67.2147 25.7463 68.7545 26.7596C68.8954 26.8486 68.9349 27.0365 68.8435 27.1773C68.8311 27.1971 68.8163 27.2144 68.799 27.2317C68.3096 27.7063 67.9166 28.2278 67.358 28.6282C66.8588 28.9866 66.362 29.3499 65.8676 29.7133C65.4573 30.0148 64.79 30.3336 64.3673 30.8848C64.3426 30.9145 64.3476 30.959 64.3772 30.9812C64.3772 30.9812 64.3797 30.9837 64.3822 30.9861L68.8929 34.0485C69.0017 34.1227 69.0412 34.2636 68.9868 34.3847C68.7669 34.8716 68.4901 35.2473 68.1564 35.5068C66.9527 36.4436 65.8058 37.321 64.7134 38.1342C64.4884 38.2998 64.4934 38.4629 64.7257 38.6186C66.3323 39.6987 67.8672 40.8727 69.3279 42.1456C69.3897 42.2025 69.4046 42.2692 69.37 42.3458C68.9349 43.3073 68.0451 43.5965 67.4174 44.0686C66.5696 44.7038 65.6452 45.2105 64.6491 45.5886C64.4959 45.6455 64.4192 45.8185 64.4761 45.9717C64.4959 46.0237 64.5305 46.0706 64.575 46.1028C66.053 47.2125 67.5014 48.3717 69.0091 49.4246C69.7432 49.9387 68.8979 50.6283 68.3788 50.9892C67.2295 51.7925 66.0283 52.5958 64.7752 53.4015C64.659 53.4757 64.6244 53.6339 64.6985 53.75C64.7134 53.7723 64.7307 53.792 64.7529 53.8093L69.192 57.4254C69.3675 57.5663 69.3873 57.7294 69.2563 57.9123C68.4134 59.0665 67.2097 59.4496 66.0901 60.2925C65.618 60.6459 65.1237 60.9722 64.6071 61.2688C64.4267 61.3751 64.3476 61.5308 64.3748 61.7384C64.3995 61.9386 64.5404 62.124 64.7949 62.292C66.3274 63.2955 67.4445 64.5857 68.7842 65.8611C68.8732 65.9451 68.8979 66.0737 68.8509 66.1824C68.3022 67.4479 66.7006 68.0584 65.4153 68.3921C64.5527 68.617 63.7321 68.9111 62.9585 69.2745C62.8423 69.3288 62.783 69.4598 62.8176 69.5809C63.0425 70.3471 63.4405 71.1084 63.6654 71.7683C64.0361 72.8583 64.4291 73.9384 64.8468 75.0111C65.141 75.7724 65.2596 76.4867 64.219 76.6746C64.0683 76.7018 63.8705 76.6844 63.6308 76.6227C62.7781 76.3953 61.8191 76.3557 61.0578 76.2173C60.1458 76.0542 59.256 75.943 58.386 75.8836C58.2797 75.8762 58.2253 75.9256 58.2253 76.0319L58.2105 82.3322C58.2105 82.609 57.9831 82.8339 57.7087 82.8314C57.6272 82.8314 57.5456 82.8117 57.4739 82.7721L51.9597 79.7888C51.8583 79.7345 51.7718 79.7518 51.6977 79.8383C51.4752 80.0953 51.3442 80.3252 51.3047 80.5254C51.0007 82.0924 50.6522 83.4518 50.2592 84.6061C50.1455 84.9398 49.928 85.2512 49.6042 85.5379C49.5449 85.5898 49.4806 85.5972 49.4089 85.5601C47.6293 84.5715 46.1266 83.2689 44.5027 82.0455C44.4162 81.9812 44.2976 81.9985 44.2333 82.085C44.2333 82.0875 44.2284 82.0924 44.2259 82.0949C43.6945 82.9254 43.1532 83.6421 42.8269 84.6036C42.4512 85.7134 41.9866 86.4697 41.6356 87.4386C41.381 88.143 41.0894 88.5113 40.4665 88.8351C40.2787 88.9315 40.0513 88.8598 39.9524 88.6719C39.9499 88.667 39.9475 88.6596 39.945 88.6546L36.9914 82.0899C36.9716 82.0479 36.9222 82.0282 36.8801 82.0455C36.8752 82.0455 36.8703 82.0504 36.8653 82.0553C36.0423 82.6164 35.2711 83.0761 34.4999 83.7855C33.9636 84.2823 32.9354 85.3871 32.0975 85.6491C31.0075 85.9853 31.2324 84.0327 31.1632 83.484C31.0495 82.5744 30.6046 81.5017 30.5972 80.4018C30.5972 80.2387 30.4638 80.1101 30.3006 80.1101C30.2635 80.1101 30.2265 80.1176 30.1943 80.1324C29.176 80.5452 28.2047 81.2397 27.3841 81.65C26.8181 81.9342 26.2545 82.2259 25.6935 82.525C24.8185 82.9896 24.0572 81.8205 24.1339 81.0222C24.2846 79.428 24.3464 77.8634 24.3217 76.3285C24.3168 76.1036 24.1363 75.9207 23.9114 75.9158L17.1465 75.7749C16.8252 75.7675 16.5731 75.5005 16.5805 75.1792C16.5805 75.0754 16.6126 74.9741 16.667 74.8876C17.3319 73.8247 17.935 72.5222 18.5257 71.5731C19.0101 70.7945 19.5242 70.0382 20.068 69.3016C20.115 69.2398 20.1001 69.1509 20.0383 69.1039C20.0284 69.0965 20.0186 69.0915 20.0062 69.0866C18.9088 68.6392 17.6581 68.5033 16.6176 68.2092C15.3941 67.8607 14.1583 67.8903 13.1894 67.05C13.0213 66.9041 13.0213 66.7583 13.1894 66.6125L18.4713 62.0152C18.543 61.951 18.5504 61.8422 18.4886 61.773C18.4886 61.773 18.4837 61.7681 18.4812 61.7656C17.7323 61.0018 16.8944 60.3469 15.9675 59.7981C14.9863 59.2173 14.1336 58.5104 13.1251 57.9716C12.8977 57.8505 12.8137 57.5687 12.9348 57.3413C12.9744 57.2696 13.0287 57.2079 13.098 57.1658L18.1895 53.9799C18.2884 53.9181 18.3205 53.7871 18.2588 53.6882C18.2415 53.6611 18.2217 53.6388 18.1945 53.6215C16.4989 52.4944 14.9566 51.1301 13.1845 50.2131C13.0139 50.1241 12.9472 49.9116 13.0362 49.7385C13.0633 49.6842 13.1054 49.6397 13.1573 49.6075C13.8296 49.175 14.398 48.6214 15.0777 48.2383C15.9799 47.7316 16.9191 47.1656 17.8954 46.5378C18.1228 46.3919 18.1302 46.2362 17.9152 46.0731L13.2018 42.5114C13.0535 42.4002 13.0238 42.1877 13.135 42.0418C13.1375 42.0369 13.14 42.0344 13.1449 42.0295C14.2053 40.7566 16.054 40.0175 17.7496 39.2958C18.0932 39.15 18.1451 38.9053 17.9078 38.5618C17.6483 38.1836 17.1762 37.7659 16.4915 37.3062C15.2755 36.4905 14.2003 35.6625 12.8409 35.0891C12.7074 35.0347 12.6456 34.8815 12.7025 34.748C12.8854 34.3155 13.1919 33.967 13.6244 33.6976C15.0135 32.8399 16.4693 31.9723 17.9918 31.0974C18.0635 31.0554 18.0907 30.9639 18.0536 30.8873C18.0017 30.781 17.9102 30.6797 17.7817 30.5882C16.0886 29.3549 14.5192 27.9757 12.7865 26.8016C12.6704 26.7226 12.6382 26.5644 12.7173 26.4482C12.742 26.4136 12.7742 26.3839 12.8112 26.3642C13.486 26.0083 13.9531 25.3631 14.5142 24.9751C15.4732 24.3102 16.4421 23.6923 17.4209 23.1164C17.5667 23.0299 17.6013 22.9138 17.5271 22.763C17.0452 21.7768 16.3086 20.9241 15.8687 20.0541C15.5647 19.4559 15.2582 18.8602 14.9492 18.2646C14.6155 17.6195 14.0718 16.3614 13.4934 15.4766C13.3105 15.1973 13.2265 14.8932 13.2438 14.567C13.2463 14.4879 13.2833 14.4311 13.355 14.394C13.706 14.2185 14.0026 14.2037 14.2473 14.352C15.3373 15.0168 16.5904 15.5334 17.5642 16.1711C18.8346 17.004 20.0853 17.9136 21.3137 18.9047C21.5337 19.0852 21.8575 19.0506 22.0379 18.8306C22.0453 18.8207 22.0527 18.8133 22.0577 18.8034C23.1106 17.3155 24.2055 15.9511 25.083 14.3174C25.1176 14.2556 25.1695 14.2136 25.2387 14.1938C25.7973 14.0381 26.1903 14.1295 26.4201 14.4681C27.3865 15.8943 28.3035 17.4044 29.1686 19.0036C29.2848 19.2186 29.4207 19.231 29.5764 19.0456C30.1919 18.3091 30.6763 17.2215 31.0545 16.5888C31.5117 15.8275 31.9986 15.0242 32.5177 14.1814C32.5844 14.0751 32.6685 14.0554 32.7747 14.1172C33.6052 14.6065 34.1218 15.175 34.668 16.0599C35.281 17.0535 35.9236 18.0026 36.5984 18.9072C36.6651 18.9937 36.7887 19.011 36.8752 18.9468C36.895 18.9319 36.9148 18.9122 36.9271 18.8874L39.8189 13.9713C39.9401 13.7662 40.1106 13.7069 40.3306 13.7934C40.8274 13.9886 41.2129 14.2828 41.4824 14.6807C42.4834 16.1513 43.4621 17.6219 44.4211 19.0926C44.4632 19.1568 44.5521 19.1742 44.6164 19.1321C44.6288 19.1222 44.6411 19.1124 44.651 19.1C45.7904 17.6269 46.4874 15.8127 47.5206 14.2259C47.6491 14.0257 47.9111 13.959 48.1212 14.0751C49.011 14.562 49.4163 15.4939 49.8785 16.1167C50.5286 16.9892 51.1514 17.9111 51.7471 18.8825C51.9621 19.231 52.1821 19.2359 52.4095 18.8948C52.9829 18.0372 53.6157 17.1301 54.3102 16.1785C54.8243 15.4766 55.153 14.7548 55.5263 13.9862C55.5732 13.8922 55.6869 13.8527 55.7784 13.8997C55.7784 13.8997 55.7833 13.8996 55.7858 13.9021C56.7917 14.4508 57.6346 16.3021 58.2723 17.1771C58.727 17.7999 59.4216 18.5933 59.5427 19.3669C59.5575 19.4608 59.6045 19.4831 59.686 19.4312V19.4287ZM43.5783 80.5081C44.3371 80.4883 44.9352 80.6613 45.3727 81.0296C46.6382 82.0899 47.8938 83.0737 49.137 83.9857C49.2878 84.0969 49.3867 84.0598 49.4287 83.8769C49.6709 82.8339 49.9329 81.9318 50.1356 80.7948C50.2567 80.1126 50.405 78.7186 50.8697 78.0191C50.9241 77.9376 50.9982 77.9054 51.0946 77.9227C51.4134 77.9845 51.7125 78.0958 51.9943 78.2589C53.6256 79.1932 55.0814 80.3499 56.809 80.9802C56.9203 81.0222 57.0438 80.9629 57.0859 80.8516C57.0958 80.8269 57.0982 80.7997 57.0982 80.775L57.0068 74.806C57.0018 74.5465 57.1279 74.4352 57.3849 74.4698L63.5937 75.288C63.6456 75.2954 63.6951 75.2608 63.7049 75.2064C63.7049 75.1916 63.7049 75.1743 63.7 75.1594C63.3045 73.9409 62.8349 72.7298 62.2936 71.5236C62.0366 70.9502 61.8759 70.2409 61.562 69.6205C61.1913 68.8839 61.1295 68.3179 62.0761 68.1029C62.6965 67.962 63.2526 67.8804 63.7964 67.6778C64.8666 67.2798 65.9591 66.914 67.0738 66.5828C67.4767 66.4617 67.5335 66.2491 67.2468 65.9427C65.8899 64.4893 64.3945 63.209 62.7608 62.1042C62.5309 61.9485 62.4642 61.642 62.6075 61.4047C62.8844 60.9524 63.3169 60.636 63.8359 60.3567C65.1583 59.6424 66.4065 58.8367 67.5755 57.9345C67.6719 57.8604 67.6892 57.722 67.6151 57.628C67.6052 57.6157 67.5953 57.6033 67.583 57.5934C66.0654 56.3403 64.4909 55.1959 62.8621 54.1554C62.3999 53.8612 62.3653 53.5103 62.7583 53.1074C63.0821 52.7712 64.308 52.4129 64.8641 52.0569C65.7243 51.5082 66.6017 50.9373 67.494 50.3441C67.6176 50.2625 67.6497 50.0945 67.5681 49.9709C67.5558 49.9536 67.5434 49.9387 67.5286 49.9239C66.2359 48.7054 64.7752 47.6747 63.1439 46.8343C62.8844 46.7009 62.7089 46.4562 62.6125 46.1003C62.5902 46.0237 62.6026 45.952 62.6471 45.8852C62.9264 45.4651 63.2452 45.1611 63.6011 44.9757C64.9729 44.254 66.3002 43.4606 67.5854 42.593C67.6398 42.5559 67.6546 42.4818 67.6176 42.4274C67.6176 42.4274 67.6151 42.4225 67.6126 42.4225C66.8538 41.3967 65.3338 40.633 64.3154 39.8347C63.8013 39.4318 63.2551 39.155 62.694 38.8114C62.5235 38.7051 62.4592 38.4901 62.5433 38.3096C62.6174 38.1515 62.7682 37.9957 62.9956 37.845C64.4365 36.886 65.9096 35.9023 67.4198 34.8963C67.5212 34.8296 67.5483 34.6912 67.4791 34.5898C67.4643 34.5676 67.4445 34.5478 67.4223 34.533C66.2186 33.7025 64.8814 32.7039 63.5418 32.0514C63.0351 31.8043 62.5482 31.7153 62.2887 31.127C62.2096 30.9515 62.2714 30.7439 62.437 30.6401C63.957 29.6861 65.4351 28.6579 66.8711 27.5555C67.0244 27.4369 67.0886 27.3182 67.0664 27.2021C67.0343 27.0389 66.9477 26.9005 66.8316 26.819L62.5235 23.7986C62.4098 23.7195 62.3826 23.5638 62.4617 23.4501C62.4642 23.4452 62.4691 23.4402 62.4716 23.4377C64.2512 21.2108 65.3881 18.6057 67.0169 16.2601C67.1084 16.1291 67.2048 15.9907 67.3061 15.8498C67.3531 15.788 67.3383 15.746 67.2616 15.7287C67.1282 15.6965 67.0046 15.7163 66.8934 15.788C66.0382 16.3466 64.9383 17.093 63.5937 18.0248C62.5482 18.7515 61.0306 19.5152 59.8541 20.4792C59.5452 20.7288 59.2955 20.709 59.1027 20.4149C58.1165 18.9245 57.1353 17.4069 56.1615 15.8671C56.1195 15.7979 56.028 15.7781 55.9613 15.8201C55.9464 15.8275 55.9341 15.8399 55.9242 15.8523C55.6202 16.2255 55.3508 16.6283 55.111 17.0584C54.5796 18.0125 53.848 18.7144 53.3858 19.7426C53.1905 20.1801 52.805 20.7609 52.4565 20.9315C52.0165 21.149 51.7001 21.0748 51.5074 20.709C50.452 18.707 49.3447 17.0312 48.183 15.6817C48.1163 15.6051 48.0619 15.6125 48.0199 15.704C47.7159 16.3614 47.2635 16.9546 46.9818 17.5725C46.789 17.9927 45.1083 22.4787 44.1641 20.8153C43.1211 18.9789 41.9767 17.2314 40.7285 15.573C40.6321 15.4444 40.4492 15.4197 40.3182 15.5161C40.2861 15.5408 40.2589 15.5705 40.2391 15.6076C39.4408 17.0288 38.6523 18.4302 37.8737 19.8118C37.6735 20.1702 37.3918 20.4495 37.0284 20.6522C36.9592 20.6917 36.8876 20.6992 36.8109 20.6769C36.3586 20.541 36.0373 20.3136 35.8495 19.9923C35.0561 18.6452 34.1959 17.3155 33.2715 16.0006C33.1554 15.835 33.0194 15.8176 32.8687 15.9536C32.6116 16.1835 32.3867 16.5023 32.1914 16.9101C31.5117 18.3288 30.968 19.6759 29.7939 20.7955C29.4998 21.0724 29.2477 21.0402 29.0327 20.6991L25.869 15.6768C25.8072 15.5779 25.7454 15.5779 25.6836 15.6768C25.2189 16.4331 24.7765 17.0337 24.2772 17.9012C23.8323 18.6773 22.945 20.2295 21.9786 20.5533C21.897 20.5805 21.8179 20.5706 21.7438 20.5261C20.3522 19.6734 18.9582 18.4796 17.7891 17.7282C16.9957 17.2191 16.1826 16.7272 15.3496 16.2502C15.2829 16.2131 15.1989 16.2354 15.1618 16.3021C15.147 16.3293 15.1395 16.3614 15.1445 16.3935C15.1519 16.4454 15.1816 16.5245 15.2335 16.6308C16.2938 18.8306 17.3764 20.9636 19.0497 22.7605C19.2622 22.9904 19.2499 23.3512 19.0175 23.5638C18.9904 23.5885 18.9607 23.6107 18.931 23.6305L14.6946 26.2356C14.492 26.3592 14.4277 26.6237 14.5538 26.8264C14.6674 27.0068 14.8578 27.1897 15.1247 27.3751C16.3457 28.2179 17.5716 29.0558 18.8 29.8863C19.2301 30.1755 19.5786 30.4992 19.8431 30.8552C20.0062 31.0702 19.9642 31.3791 19.7467 31.5423C19.7269 31.5571 19.7071 31.5695 19.6849 31.5818L14.8059 34.2191C14.5018 34.3847 14.4895 34.57 14.7713 34.7702C15.9997 35.6477 17.2676 36.5894 18.5702 37.6003C18.9755 37.9142 19.4278 38.0946 19.89 38.3442C20.0507 38.4332 20.1199 38.631 20.0458 38.799C19.7269 39.5208 19.2573 39.9236 18.4837 40.2425C17.3813 40.6973 15.7006 41.2979 14.8405 42.116C14.7119 42.2371 14.7169 42.3533 14.8578 42.4595C15.8613 43.2208 16.4989 43.6954 17.8658 44.6099C18.6048 45.1042 19.2375 45.7196 19.7689 46.4562C19.8431 46.56 19.8184 46.7034 19.7146 46.7775C19.7096 46.78 19.7047 46.7824 19.7022 46.7874L15.1766 49.6051C14.8528 49.8053 14.8504 50.0129 15.1643 50.2279L19.8134 53.3941C19.9741 53.5029 20.026 53.7154 19.9345 53.886C19.549 54.6126 19.2326 54.9463 18.4713 55.3714C17.4505 55.9399 16.4396 56.5282 15.4435 57.1387C15.2087 57.282 15.0234 57.4303 14.8874 57.5836C14.8232 57.6577 14.8281 57.7689 14.9023 57.8357C14.9121 57.8455 14.922 57.853 14.9344 57.8579C15.7772 58.3102 16.5706 58.812 17.3171 59.3607C18.0882 59.9316 18.9434 60.9697 20.0037 61.5604C20.2064 61.6717 20.2781 61.9262 20.1669 62.1289C20.157 62.1462 20.1446 62.166 20.1323 62.1808C20.0062 62.3464 19.848 62.5021 19.6602 62.648C18.2217 63.7577 16.8178 64.907 15.451 66.1008C15.3076 66.2269 15.1939 66.3554 15.1074 66.4889C14.969 66.7039 15.0234 66.8473 15.2681 66.9214C16.2987 67.2279 17.4332 67.2872 18.3873 67.5245C19.1658 67.7198 20.8169 67.9175 21.3903 68.4341C21.4546 68.4934 21.4793 68.5651 21.467 68.6516C21.4225 68.9704 21.3384 69.2398 21.2173 69.4648C20.4462 70.8711 19.0645 72.7125 18.501 74.4896C18.4763 74.5638 18.5183 74.6453 18.5924 74.67C18.6073 74.675 18.6246 74.6775 18.6419 74.6775C19.4624 74.6478 20.2954 74.6651 21.1382 74.7318C22.5891 74.848 23.8818 74.7022 25.3005 74.413C25.4587 74.3809 25.6119 74.4822 25.6465 74.6379C25.6514 74.6626 25.6539 74.6874 25.6515 74.7121L25.3697 81.1581C25.3647 81.2842 25.4636 81.3929 25.5897 81.3979C25.6342 81.3979 25.6762 81.388 25.7157 81.3658C27.4632 80.3326 29.3911 79.4305 31.0644 78.2515C31.136 78.1996 31.2127 78.1872 31.2967 78.2144C32.2854 78.5184 31.5488 79.4478 31.7119 80.1027C32.0258 81.3732 32.2335 82.6658 32.3323 83.9808C32.3373 84.0673 32.3793 84.0895 32.4584 84.0524C32.886 83.8498 33.1776 83.6644 33.3383 83.4963C34.3195 82.4656 35.3774 81.5215 36.5168 80.6663C36.9592 80.3351 37.325 80.3845 37.6142 80.8171C38.1605 81.6278 38.3458 82.3692 38.7586 83.1602C39.3666 84.3293 39.6237 85.6986 40.4294 86.7441C40.5258 86.8701 40.6074 86.8627 40.6741 86.7169L43.4374 80.5995C43.4621 80.5427 43.5165 80.5081 43.5783 80.5056V80.5081Z" fill="#EAFE01"/>
<path d="M59.686 19.4287C59.7256 19.404 59.7552 19.3645 59.775 19.3101C59.7923 19.2607 59.8245 19.2186 59.8689 19.189C61.5348 18.0594 63.2156 16.9521 64.9111 15.8671C65.7515 15.3307 66.9947 14.4088 68.1242 13.9318C68.5568 13.7489 69.0017 13.9787 68.9918 14.483C68.9794 15.1676 68.1761 16.2947 67.8029 16.8755C66.9107 18.272 66.1024 19.7179 65.3782 21.2083C65.0742 21.8361 64.6615 22.4219 64.2981 23.0546C64.2166 23.1955 64.2388 23.3216 64.3624 23.4279C65.7515 24.6365 67.2147 25.7463 68.7545 26.7596C68.8954 26.8486 68.9349 27.0365 68.8435 27.1773C68.8311 27.1971 68.8163 27.2144 68.799 27.2317C68.3096 27.7063 67.9166 28.2278 67.358 28.6282C66.8588 28.9866 66.362 29.3499 65.8676 29.7133C65.4573 30.0148 64.79 30.3336 64.3673 30.8848C64.3426 30.9145 64.3476 30.959 64.3772 30.9812C64.3772 30.9812 64.3797 30.9837 64.3822 30.9861L68.8929 34.0485C69.0017 34.1227 69.0412 34.2636 68.9868 34.3847C68.7669 34.8716 68.4901 35.2473 68.1564 35.5068C66.9527 36.4436 65.8058 37.321 64.7134 38.1342C64.4884 38.2998 64.4934 38.4629 64.7257 38.6186C66.3323 39.6987 67.8672 40.8727 69.3279 42.1456C69.3897 42.2025 69.4046 42.2692 69.37 42.3458C68.9349 43.3073 68.0451 43.5965 67.4174 44.0686C66.5696 44.7038 65.6452 45.2105 64.6491 45.5886C64.4959 45.6455 64.4192 45.8185 64.4761 45.9717C64.4959 46.0237 64.5305 46.0706 64.575 46.1028C66.053 47.2125 67.5014 48.3717 69.0091 49.4246C69.7432 49.9387 68.8979 50.6283 68.3788 50.9892C67.2295 51.7925 66.0283 52.5958 64.7752 53.4015C64.659 53.4757 64.6244 53.6339 64.6985 53.75C64.7134 53.7723 64.7307 53.792 64.7529 53.8093L69.192 57.4254C69.3675 57.5663 69.3873 57.7294 69.2563 57.9123C68.4134 59.0665 67.2097 59.4496 66.0901 60.2925C65.618 60.6459 65.1237 60.9722 64.6071 61.2688C64.4267 61.3751 64.3476 61.5308 64.3748 61.7384C64.3995 61.9386 64.5404 62.124 64.7949 62.292C66.3274 63.2955 67.4445 64.5857 68.7842 65.8611C68.8732 65.9451 68.8979 66.0737 68.8509 66.1824C68.3022 67.4479 66.7006 68.0584 65.4153 68.3921C64.5527 68.617 63.7321 68.9111 62.9585 69.2745C62.8423 69.3288 62.783 69.4598 62.8176 69.5809C63.0425 70.3471 63.4405 71.1084 63.6654 71.7683C64.0361 72.8583 64.4291 73.9384 64.8468 75.0111C65.141 75.7724 65.2596 76.4867 64.219 76.6746C64.0683 76.7018 63.8705 76.6844 63.6308 76.6227C62.7781 76.3953 61.8191 76.3557 61.0578 76.2173C60.1458 76.0542 59.256 75.943 58.386 75.8836C58.2797 75.8762 58.2253 75.9256 58.2253 76.0319L58.2105 82.3322C58.2105 82.609 57.9831 82.8339 57.7087 82.8314C57.6272 82.8314 57.5456 82.8117 57.4739 82.7721L51.9597 79.7888C51.8583 79.7345 51.7718 79.7518 51.6977 79.8383C51.4752 80.0953 51.3442 80.3252 51.3047 80.5254C51.0007 82.0924 50.6522 83.4518 50.2592 84.6061C50.1455 84.9398 49.928 85.2512 49.6042 85.5379C49.5449 85.5898 49.4806 85.5972 49.4089 85.5601C47.6293 84.5715 46.1266 83.2689 44.5027 82.0455C44.4162 81.9812 44.2976 81.9985 44.2333 82.085C44.2333 82.0875 44.2284 82.0924 44.2259 82.0949C43.6945 82.9254 43.1532 83.6421 42.8269 84.6036C42.4512 85.7134 41.9866 86.4697 41.6356 87.4386C41.381 88.143 41.0894 88.5113 40.4665 88.8351C40.2787 88.9315 40.0513 88.8598 39.9524 88.6719C39.9499 88.667 39.9475 88.6596 39.945 88.6546L36.9914 82.0899C36.9716 82.0479 36.9222 82.0282 36.8801 82.0455C36.8752 82.0455 36.8703 82.0504 36.8653 82.0553C36.0423 82.6164 35.2711 83.0761 34.4999 83.7855C33.9636 84.2823 32.9354 85.3871 32.0975 85.6491C31.0075 85.9853 31.2324 84.0327 31.1632 83.484C31.0495 82.5744 30.6046 81.5017 30.5972 80.4018C30.5972 80.2387 30.4638 80.1101 30.3006 80.1101C30.2635 80.1101 30.2265 80.1176 30.1943 80.1324C29.176 80.5452 28.2047 81.2397 27.3841 81.65C26.8181 81.9342 26.2545 82.2259 25.6935 82.525C24.8185 82.9896 24.0572 81.8205 24.1339 81.0222C24.2846 79.428 24.3464 77.8634 24.3217 76.3285C24.3168 76.1036 24.1363 75.9207 23.9114 75.9158L17.1465 75.7749C16.8252 75.7675 16.5731 75.5005 16.5805 75.1792C16.5805 75.0754 16.6126 74.9741 16.667 74.8876C17.3319 73.8247 17.935 72.5222 18.5257 71.5731C19.0101 70.7945 19.5242 70.0382 20.068 69.3016C20.115 69.2398 20.1001 69.1509 20.0383 69.1039C20.0284 69.0965 20.0186 69.0915 20.0062 69.0866C18.9088 68.6392 17.6581 68.5033 16.6176 68.2092C15.3941 67.8607 14.1583 67.8903 13.1894 67.05C13.0213 66.9041 13.0213 66.7583 13.1894 66.6125L18.4713 62.0152C18.543 61.951 18.5504 61.8422 18.4886 61.773C18.4886 61.773 18.4837 61.7681 18.4812 61.7656C17.7323 61.0018 16.8944 60.3469 15.9675 59.7981C14.9863 59.2173 14.1336 58.5104 13.1251 57.9716C12.8977 57.8505 12.8137 57.5687 12.9348 57.3413C12.9744 57.2696 13.0287 57.2079 13.098 57.1658L18.1895 53.9799C18.2884 53.9181 18.3205 53.7871 18.2588 53.6882C18.2415 53.6611 18.2217 53.6388 18.1945 53.6215C16.4989 52.4944 14.9566 51.1301 13.1845 50.2131C13.0139 50.1241 12.9472 49.9116 13.0362 49.7385C13.0633 49.6842 13.1054 49.6397 13.1573 49.6075C13.8296 49.175 14.398 48.6214 15.0777 48.2383C15.9799 47.7316 16.9191 47.1656 17.8954 46.5378C18.1228 46.3919 18.1302 46.2362 17.9152 46.0731L13.2018 42.5114C13.0535 42.4002 13.0238 42.1877 13.135 42.0418C13.1375 42.0369 13.14 42.0344 13.1449 42.0295C14.2053 40.7566 16.054 40.0175 17.7496 39.2958C18.0932 39.15 18.1451 38.9053 17.9078 38.5618C17.6483 38.1836 17.1762 37.7659 16.4915 37.3062C15.2755 36.4905 14.2003 35.6625 12.8409 35.0891C12.7074 35.0347 12.6456 34.8815 12.7025 34.748C12.8854 34.3155 13.1919 33.967 13.6244 33.6976C15.0135 32.8399 16.4693 31.9723 17.9918 31.0974C18.0635 31.0554 18.0907 30.9639 18.0536 30.8873C18.0017 30.781 17.9102 30.6797 17.7817 30.5882C16.0886 29.3549 14.5192 27.9757 12.7865 26.8016C12.6704 26.7226 12.6382 26.5644 12.7173 26.4482C12.742 26.4136 12.7742 26.3839 12.8112 26.3642C13.486 26.0083 13.9531 25.3631 14.5142 24.9751C15.4732 24.3102 16.4421 23.6923 17.4209 23.1164C17.5667 23.0299 17.6013 22.9138 17.5271 22.763C17.0452 21.7768 16.3086 20.9241 15.8687 20.0541C15.5647 19.4559 15.2582 18.8602 14.9492 18.2646C14.6155 17.6195 14.0718 16.3614 13.4934 15.4766C13.3105 15.1973 13.2265 14.8932 13.2438 14.567C13.2463 14.4879 13.2833 14.4311 13.355 14.394C13.706 14.2185 14.0026 14.2037 14.2473 14.352C15.3373 15.0168 16.5904 15.5334 17.5642 16.1711C18.8346 17.004 20.0853 17.9136 21.3137 18.9047C21.5337 19.0852 21.8575 19.0506 22.0379 18.8306C22.0453 18.8207 22.0527 18.8133 22.0577 18.8034C23.1106 17.3155 24.2055 15.9511 25.083 14.3174C25.1176 14.2556 25.1695 14.2136 25.2387 14.1938C25.7973 14.0381 26.1903 14.1295 26.4201 14.4681C27.3865 15.8943 28.3035 17.4044 29.1686 19.0036C29.2848 19.2186 29.4207 19.231 29.5764 19.0456C30.1919 18.3091 30.6763 17.2215 31.0545 16.5888C31.5117 15.8275 31.9986 15.0242 32.5177 14.1814C32.5844 14.0751 32.6685 14.0554 32.7747 14.1172C33.6052 14.6065 34.1218 15.175 34.668 16.0599C35.281 17.0535 35.9236 18.0026 36.5984 18.9072C36.6651 18.9937 36.7887 19.011 36.8752 18.9468C36.895 18.9319 36.9148 18.9122 36.9271 18.8874L39.8189 13.9713C39.9401 13.7662 40.1106 13.7069 40.3306 13.7934C40.8274 13.9886 41.2129 14.2828 41.4824 14.6807C42.4834 16.1513 43.4621 17.6219 44.4211 19.0926C44.4632 19.1568 44.5521 19.1742 44.6164 19.1321C44.6288 19.1222 44.6411 19.1124 44.651 19.1C45.7904 17.6269 46.4874 15.8127 47.5206 14.2259C47.6491 14.0257 47.9111 13.959 48.1212 14.0751C49.011 14.562 49.4163 15.4939 49.8785 16.1167C50.5286 16.9892 51.1514 17.9111 51.7471 18.8825C51.9621 19.231 52.1821 19.2359 52.4095 18.8948C52.9829 18.0372 53.6157 17.1301 54.3102 16.1785C54.8243 15.4766 55.153 14.7548 55.5263 13.9862C55.5732 13.8922 55.6869 13.8527 55.7784 13.8997C55.7784 13.8997 55.7833 13.8996 55.7858 13.9021C56.7917 14.4508 57.6346 16.3021 58.2723 17.1771C58.727 17.7999 59.4216 18.5933 59.5427 19.3669C59.5575 19.4608 59.6045 19.4831 59.686 19.4312V19.4287ZM43.5783 80.5081C44.3371 80.4883 44.9352 80.6613 45.3727 81.0296C46.6382 82.0899 47.8938 83.0737 49.137 83.9857C49.2878 84.0969 49.3867 84.0598 49.4287 83.8769C49.6709 82.8339 49.9329 81.9318 50.1356 80.7948C50.2567 80.1126 50.405 78.7186 50.8697 78.0191C50.9241 77.9376 50.9982 77.9054 51.0946 77.9227C51.4134 77.9845 51.7125 78.0958 51.9943 78.2589C53.6256 79.1932 55.0814 80.3499 56.809 80.9802C56.9203 81.0222 57.0438 80.9629 57.0859 80.8516C57.0958 80.8269 57.0982 80.7997 57.0982 80.775L57.0068 74.806C57.0018 74.5465 57.1279 74.4352 57.3849 74.4698L63.5937 75.288C63.6456 75.2954 63.6951 75.2608 63.7049 75.2064C63.7049 75.1916 63.7049 75.1743 63.7 75.1594C63.3045 73.9409 62.8349 72.7298 62.2936 71.5236C62.0366 70.9502 61.8759 70.2409 61.562 69.6205C61.1913 68.8839 61.1295 68.3179 62.0761 68.1029C62.6965 67.962 63.2526 67.8804 63.7964 67.6778C64.8666 67.2798 65.9591 66.914 67.0738 66.5828C67.4767 66.4617 67.5335 66.2491 67.2468 65.9427C65.8899 64.4893 64.3945 63.209 62.7608 62.1042C62.5309 61.9485 62.4642 61.642 62.6075 61.4047C62.8844 60.9524 63.3169 60.636 63.8359 60.3567C65.1583 59.6424 66.4065 58.8367 67.5755 57.9345C67.6719 57.8604 67.6892 57.722 67.6151 57.628C67.6052 57.6157 67.5953 57.6033 67.583 57.5934C66.0654 56.3403 64.4909 55.1959 62.8621 54.1554C62.3999 53.8612 62.3653 53.5103 62.7583 53.1074C63.0821 52.7712 64.308 52.4129 64.8641 52.0569C65.7243 51.5082 66.6017 50.9373 67.494 50.3441C67.6176 50.2625 67.6497 50.0945 67.5681 49.9709C67.5558 49.9536 67.5434 49.9387 67.5286 49.9239C66.2359 48.7054 64.7752 47.6747 63.1439 46.8343C62.8844 46.7009 62.7089 46.4562 62.6125 46.1003C62.5902 46.0237 62.6026 45.952 62.6471 45.8852C62.9264 45.4651 63.2452 45.1611 63.6011 44.9757C64.9729 44.254 66.3002 43.4606 67.5854 42.593C67.6398 42.5559 67.6546 42.4818 67.6176 42.4274C67.6176 42.4274 67.6151 42.4225 67.6126 42.4225C66.8538 41.3967 65.3338 40.633 64.3154 39.8347C63.8013 39.4318 63.2551 39.155 62.694 38.8114C62.5235 38.7051 62.4592 38.4901 62.5433 38.3096C62.6174 38.1515 62.7682 37.9957 62.9956 37.845C64.4365 36.886 65.9096 35.9023 67.4198 34.8963C67.5212 34.8296 67.5483 34.6912 67.4791 34.5898C67.4643 34.5676 67.4445 34.5478 67.4223 34.533C66.2186 33.7025 64.8814 32.7039 63.5418 32.0514C63.0351 31.8043 62.5482 31.7153 62.2887 31.127C62.2096 30.9515 62.2714 30.7439 62.437 30.6401C63.957 29.6861 65.4351 28.6579 66.8711 27.5555C67.0244 27.4369 67.0886 27.3182 67.0664 27.2021C67.0343 27.0389 66.9477 26.9005 66.8316 26.819L62.5235 23.7986C62.4098 23.7195 62.3826 23.5638 62.4617 23.4501C62.4642 23.4452 62.4691 23.4402 62.4716 23.4377C64.2512 21.2108 65.3881 18.6057 67.0169 16.2601C67.1084 16.1291 67.2048 15.9907 67.3061 15.8498C67.3531 15.788 67.3383 15.746 67.2616 15.7287C67.1282 15.6965 67.0046 15.7163 66.8934 15.788C66.0382 16.3466 64.9383 17.093 63.5937 18.0248C62.5482 18.7515 61.0306 19.5152 59.8541 20.4792C59.5452 20.7288 59.2955 20.709 59.1027 20.4149C58.1165 18.9245 57.1353 17.4069 56.1615 15.8671C56.1195 15.7979 56.028 15.7781 55.9613 15.8201C55.9464 15.8275 55.9341 15.8399 55.9242 15.8523C55.6202 16.2255 55.3508 16.6283 55.111 17.0584C54.5796 18.0125 53.848 18.7144 53.3858 19.7426C53.1905 20.1801 52.805 20.7609 52.4565 20.9315C52.0165 21.149 51.7001 21.0748 51.5074 20.709C50.452 18.707 49.3447 17.0312 48.183 15.6817C48.1163 15.6051 48.0619 15.6125 48.0199 15.704C47.7159 16.3614 47.2635 16.9546 46.9818 17.5725C46.789 17.9927 45.1083 22.4787 44.1641 20.8153C43.1211 18.9789 41.9767 17.2314 40.7285 15.573C40.6321 15.4444 40.4492 15.4197 40.3182 15.5161C40.2861 15.5408 40.2589 15.5705 40.2391 15.6076C39.4408 17.0288 38.6523 18.4302 37.8737 19.8118C37.6735 20.1702 37.3918 20.4495 37.0284 20.6522C36.9592 20.6917 36.8876 20.6992 36.8109 20.6769C36.3586 20.541 36.0373 20.3136 35.8495 19.9923C35.0561 18.6452 34.1959 17.3155 33.2715 16.0006C33.1554 15.835 33.0194 15.8176 32.8687 15.9536C32.6116 16.1835 32.3867 16.5023 32.1914 16.9101C31.5117 18.3288 30.968 19.6759 29.7939 20.7955C29.4998 21.0724 29.2477 21.0402 29.0327 20.6991L25.869 15.6768C25.8072 15.5779 25.7454 15.5779 25.6836 15.6768C25.2189 16.4331 24.7765 17.0337 24.2772 17.9012C23.8323 18.6773 22.945 20.2295 21.9786 20.5533C21.897 20.5805 21.8179 20.5706 21.7438 20.5261C20.3522 19.6734 18.9582 18.4796 17.7891 17.7282C16.9957 17.2191 16.1826 16.7272 15.3496 16.2502C15.2829 16.2131 15.1989 16.2354 15.1618 16.3021C15.147 16.3293 15.1395 16.3614 15.1445 16.3935C15.1519 16.4454 15.1816 16.5245 15.2335 16.6308C16.2938 18.8306 17.3764 20.9636 19.0497 22.7605C19.2622 22.9904 19.2499 23.3512 19.0175 23.5638C18.9904 23.5885 18.9607 23.6107 18.931 23.6305L14.6946 26.2356C14.492 26.3592 14.4277 26.6237 14.5538 26.8264C14.6674 27.0068 14.8578 27.1897 15.1247 27.3751C16.3457 28.2179 17.5716 29.0558 18.8 29.8863C19.2301 30.1755 19.5786 30.4992 19.8431 30.8552C20.0062 31.0702 19.9642 31.3791 19.7467 31.5423C19.7269 31.5571 19.7071 31.5695 19.6849 31.5818L14.8059 34.2191C14.5018 34.3847 14.4895 34.57 14.7713 34.7702C15.9997 35.6477 17.2676 36.5894 18.5702 37.6003C18.9755 37.9142 19.4278 38.0946 19.89 38.3442C20.0507 38.4332 20.1199 38.631 20.0458 38.799C19.7269 39.5208 19.2573 39.9236 18.4837 40.2425C17.3813 40.6973 15.7006 41.2979 14.8405 42.116C14.7119 42.2371 14.7169 42.3533 14.8578 42.4595C15.8613 43.2208 16.4989 43.6954 17.8658 44.6099C18.6048 45.1042 19.2375 45.7196 19.7689 46.4562C19.8431 46.56 19.8184 46.7034 19.7146 46.7775C19.7096 46.78 19.7047 46.7824 19.7022 46.7874L15.1766 49.6051C14.8528 49.8053 14.8504 50.0129 15.1643 50.2279L19.8134 53.3941C19.9741 53.5029 20.026 53.7154 19.9345 53.886C19.549 54.6126 19.2326 54.9463 18.4713 55.3714C17.4505 55.9399 16.4396 56.5282 15.4435 57.1387C15.2087 57.282 15.0234 57.4303 14.8874 57.5836C14.8232 57.6577 14.8281 57.7689 14.9023 57.8357C14.9121 57.8455 14.922 57.853 14.9344 57.8579C15.7772 58.3102 16.5706 58.812 17.3171 59.3607C18.0882 59.9316 18.9434 60.9697 20.0037 61.5604C20.2064 61.6717 20.2781 61.9262 20.1669 62.1289C20.157 62.1462 20.1446 62.166 20.1323 62.1808C20.0062 62.3464 19.848 62.5021 19.6602 62.648C18.2217 63.7577 16.8178 64.907 15.451 66.1008C15.3076 66.2269 15.1939 66.3554 15.1074 66.4889C14.969 66.7039 15.0234 66.8473 15.2681 66.9214C16.2987 67.2279 17.4332 67.2872 18.3873 67.5245C19.1658 67.7198 20.8169 67.9175 21.3903 68.4341C21.4546 68.4934 21.4793 68.5651 21.467 68.6516C21.4225 68.9704 21.3384 69.2398 21.2173 69.4648C20.4462 70.8711 19.0645 72.7125 18.501 74.4896C18.4763 74.5638 18.5183 74.6453 18.5924 74.67C18.6073 74.675 18.6246 74.6775 18.6419 74.6775C19.4624 74.6478 20.2954 74.6651 21.1382 74.7318C22.5891 74.848 23.8818 74.7022 25.3005 74.413C25.4587 74.3809 25.6119 74.4822 25.6465 74.6379C25.6514 74.6626 25.6539 74.6874 25.6515 74.7121L25.3697 81.1581C25.3647 81.2842 25.4636 81.3929 25.5897 81.3979C25.6342 81.3979 25.6762 81.388 25.7157 81.3658C27.4632 80.3326 29.3911 79.4305 31.0644 78.2515C31.136 78.1996 31.2127 78.1872 31.2967 78.2144C32.2854 78.5184 31.5488 79.4478 31.7119 80.1027C32.0258 81.3732 32.2335 82.6658 32.3323 83.9808C32.3373 84.0673 32.3793 84.0895 32.4584 84.0524C32.886 83.8498 33.1776 83.6644 33.3383 83.4963C34.3195 82.4656 35.3774 81.5215 36.5168 80.6663C36.9592 80.3351 37.325 80.3845 37.6142 80.8171C38.1605 81.6278 38.3458 82.3692 38.7586 83.1602C39.3666 84.3293 39.6237 85.6986 40.4294 86.7441C40.5258 86.8701 40.6074 86.8627 40.6741 86.7169L43.4374 80.5995C43.4621 80.5427 43.5165 80.5081 43.5783 80.5056V80.5081Z" stroke="#EAFE01" stroke-width="6" mask="url(#path-2-outside-2_192_340)"/>
</svg>
