<svg width="83" height="103" viewBox="0 0 83 103" fill="none" xmlns="http://www.w3.org/2000/svg">
<mask id="path-1-outside-1_192_360" maskUnits="userSpaceOnUse" x="1.30664" y="2.39551" width="81" height="99" fill="black">
<rect fill="white" x="1.30664" y="2.39551" width="81" height="99"/>
<path d="M28.735 6.1843C28.7918 6.46854 28.8684 6.47102 28.9623 6.19667C28.9821 6.13982 29.034 6.08049 29.1205 6.01623C29.1774 5.97421 29.249 5.94949 29.3356 5.93714C30.6851 5.74682 32.0346 5.732 33.3841 5.88771C33.4657 5.8976 33.5472 5.88524 33.6239 5.85063C33.8191 5.76413 33.96 5.72211 34.0441 5.72458C35.3713 5.75671 36.7011 5.74189 38.0283 5.68504C38.7105 5.65538 39.3185 5.94208 40.0452 5.84569C41.6888 5.62818 43.335 5.55404 44.986 5.62572C46.1205 5.67515 47.4354 5.5046 48.6861 5.66526C48.9827 5.70234 49.2719 5.70976 49.5512 5.68751C52.3145 5.47495 55.1445 5.5911 57.9152 5.59605C57.93 5.59605 58.4491 5.62572 59.4748 5.68751C60.2139 5.732 60.9578 5.59359 61.6548 5.62325C63.0933 5.68257 64.6505 5.54167 65.953 5.56886C67.7845 5.60594 69.616 5.6183 71.4475 5.60594C71.6477 5.60594 71.8776 5.68503 72.1074 5.67267C74.7224 5.51201 76.4476 5.43293 78.1605 5.70234C78.3904 5.73942 78.5535 5.94208 78.5411 6.17442C78.4571 7.76863 78.4225 9.31342 78.4398 10.8137C78.4546 12.2497 78.1803 14.012 78.4126 15.668C78.4497 15.9399 78.4003 16.1821 78.2618 16.3947C78.2198 16.4589 78.1383 16.4812 78.069 16.4466C77.854 16.3378 77.6266 16.3131 77.3918 16.3749C77.2855 16.4021 77.2484 16.4664 77.2806 16.5726C77.3325 16.7407 77.4635 16.8173 77.6711 16.8025C77.8565 16.7901 77.9801 16.7778 78.0394 16.7654C78.3187 16.7086 78.4546 16.8223 78.4472 17.109C78.4274 17.7541 78.289 18.3794 78.3014 18.9825C78.3582 21.7903 78.3459 24.5981 78.2618 27.4059C78.2272 28.5676 78.3285 30.0555 78.2322 31.3803C78.1753 32.1885 78.1605 32.9621 78.1902 33.7012C78.2346 34.7541 78.1803 35.9998 78.1827 36.8451C78.2 40.8146 78.1827 43.3554 78.1259 44.4652C78.0443 46.0742 78.0023 47.2483 77.9998 47.9873C77.985 51.5045 77.901 55.0166 77.7477 58.5289C77.592 62.0584 77.8293 65.7906 77.0829 69.1915C76.4452 72.0957 75.323 75.0864 73.6423 77.7113C72.3496 79.7282 71.1212 81.399 69.962 82.7238C69.6333 83.0995 68.8226 83.8731 67.525 85.0472C65.6589 86.7353 63.9535 87.9909 62.4037 88.8189C57.9869 91.1769 54.2399 92.9169 51.1627 94.039C49.7761 94.5457 48.3944 95.0573 47.0128 95.5764C45.2184 96.2462 43.1545 96.7924 41.239 97.487C40.72 97.6748 40.4061 97.6625 40.0526 97.2546C39.9982 97.1929 39.934 97.1508 39.8574 97.1261C38.8465 96.7974 37.7268 96.3846 36.5033 95.8878C35.0302 95.2922 32.4647 94.2911 28.8066 92.8872C27.0468 92.2125 25.4131 91.3894 23.6928 90.6677C21.4708 89.7359 19.3353 88.636 17.2912 87.3681C16.5176 86.8886 15.7662 86.2954 15.0371 85.591C13.9496 84.5405 12.8892 83.5543 11.9599 82.3333C10.4991 80.4128 8.80359 78.4652 7.76549 76.4384C6.22318 73.4181 5.39023 70.2519 4.7303 66.9423C4.52516 65.9117 4.41146 64.8019 4.38921 63.6155C4.33237 60.2368 4.23597 56.7962 4.38921 53.4224C4.51032 50.7432 4.37438 47.7574 4.44606 44.2798C4.47819 42.6164 4.4164 40.4883 4.49302 38.5926C4.582 36.3236 4.63391 33.9681 4.6438 31.6719C4.6611 27.5937 4.79951 23.5674 4.76491 19.4422C4.74761 17.1733 4.90084 14.8573 4.88107 12.4895C4.87118 11.1004 4.9404 9.1058 4.84153 7.41272C4.81187 6.92086 4.9577 6.32766 4.85883 5.85311C4.81434 5.64796 4.94534 5.44776 5.15296 5.40327C5.19992 5.39338 5.24688 5.39338 5.29137 5.40079C5.88951 5.49966 6.47775 5.5392 7.05859 5.5219C9.84414 5.43292 12.647 5.69491 15.3707 5.67267C16.96 5.66031 18.5493 5.65784 20.1386 5.66279C21.3917 5.66526 22.672 5.61582 23.9128 5.78389C25.292 5.9668 26.6909 6.0459 28.0478 5.83828C28.4458 5.77649 28.6732 5.89017 28.735 6.1843ZM34.8992 6.71324C35.0376 6.74537 35.1884 6.60943 35.2379 6.40675C35.2873 6.20408 35.2131 6.0113 35.0772 5.97916C34.9388 5.94703 34.788 6.08297 34.7386 6.28565C34.6891 6.48832 34.7633 6.68111 34.8992 6.71324ZM72.2483 6.44629C72.2977 6.38203 72.2557 6.26834 72.1544 6.18925C72.053 6.11016 71.9319 6.0978 71.8825 6.16206C71.8331 6.22633 71.8751 6.34002 71.9764 6.41911C72.0778 6.4982 72.1989 6.51056 72.2483 6.44629ZM41.543 7.15813C41.7581 7.14824 41.8965 7.13095 41.9533 7.10624C42.0917 7.04444 42.1535 6.95052 42.1387 6.82199C42.1288 6.73795 42.0868 6.67864 42.0102 6.64404C41.5875 6.45125 41.2637 6.53528 41.0437 6.89861C41.0017 6.96534 40.9449 7.01231 40.8683 7.03702C40.6755 7.10376 40.5222 7.13837 40.4085 7.13837C38.32 7.13837 36.2241 7.09635 34.138 7.16803C33.5819 7.18533 33.0233 7.18533 32.4647 7.16803C31.4266 7.13095 30.0968 7.30149 28.8931 7.08151C28.6138 7.02961 28.342 7.02961 28.0775 7.08151C27.1358 7.26441 26.1224 7.09881 25.1585 7.12847C22.2098 7.21992 19.2586 7.24711 16.31 7.20509C15.9343 7.20015 15.5017 7.09882 15.0717 7.13342C12.6421 7.33609 10.1951 7.04691 7.74572 7.15813C7.46642 7.17049 7.19947 7.12353 6.9177 7.08646C6.82873 7.0741 6.78177 7.11364 6.77436 7.20509C6.74223 7.67471 6.70515 8.14432 6.66313 8.61146C6.55191 9.81515 6.64336 11.046 6.57168 12.2621C6.40361 15.0649 6.54449 17.8604 6.38136 20.6731C6.35417 21.1551 6.3517 21.6939 6.37641 22.2896C6.43326 23.6366 6.34429 25.4706 6.3517 26.3431C6.37889 29.6452 6.4135 32.9473 6.45057 36.2494C6.45305 36.5905 6.35912 36.9267 6.35912 37.2381C6.35171 38.2935 6.31463 39.3489 6.24542 40.4018C6.16386 41.6673 6.29239 42.9204 6.23307 44.2007C6.1515 45.9086 6.11442 47.619 6.11689 49.3269C6.11689 49.7199 6.24789 50.1969 6.19846 50.6542C5.90186 53.4719 6.11937 56.2871 5.97848 59.0949C5.92411 60.1428 5.92164 61.1019 5.97107 61.9743C6.02298 62.9358 6.06994 63.8973 6.10949 64.8588C6.19599 67.0091 6.67302 69.419 7.54304 72.0883C7.93603 73.297 8.7838 75.1532 10.0864 77.6619C10.3484 78.1612 10.7142 78.7593 11.0701 79.182C11.7967 80.0421 12.4171 80.964 13.1957 81.7599C13.8878 82.4668 14.5625 83.1885 15.2225 83.9275C15.6253 84.3798 16.6338 85.1782 18.2527 86.3275C18.9917 86.854 19.8667 87.3458 20.67 87.8649C21.3175 88.285 21.9453 88.6261 22.5509 88.8881C24.1723 89.5851 25.7986 90.2722 27.4299 90.947C28.3123 91.3128 29.5456 91.7033 30.5739 92.1803C31.4365 92.5783 32.3559 92.7192 33.1938 93.0701C35.0451 93.8462 36.6343 94.3826 38.3373 95.1117C38.8588 95.3366 39.3927 95.4454 39.929 95.6456C40.018 95.6777 40.065 95.6456 40.0699 95.5542C40.1985 93.0553 40.2528 90.554 40.233 88.0527C40.2232 86.592 40.3121 85.0398 40.3072 83.5197C40.3072 83.1762 40.1515 82.9413 39.845 82.8104C37.8158 81.9453 35.6308 81.3446 33.6931 80.5018C31.5106 79.5478 28.9722 78.7222 27.1383 77.6298C24.8718 76.2802 22.9241 74.5427 21.2903 72.4195C20.5884 71.505 20.1262 70.3038 19.622 69.3053C19.1721 68.413 18.9818 67.3551 18.6753 66.3862C18.3392 65.3185 18.1785 64.0258 18.1687 63.1286C18.1291 59.4038 18.27 53.8995 18.2774 49.0377C18.2823 46.1879 18.5616 43.3727 18.4208 40.513C18.3689 39.4626 18.3862 38.4121 18.4751 37.3617C18.4974 37.1096 18.4059 36.8055 18.4133 36.5386C18.4479 35.0779 18.4998 33.6146 18.5691 32.1539C18.6012 31.4989 18.532 30.7302 18.5839 30.0036C18.7223 28.1004 18.7124 26.2121 18.7421 24.3064C18.7618 23.0286 18.6333 21.2193 18.7643 19.7092C18.794 19.3458 19.1054 19.0715 19.4687 19.0838C20.2102 19.1085 20.9196 19.0937 21.5993 19.0393C22.1752 18.9924 22.6226 19.1086 23.1639 19.2321C23.6335 19.3384 23.9869 19.116 24.5059 19.2222C25.1288 19.3508 25.6405 19.1703 26.2584 19.242C26.9059 19.3186 27.5461 19.1258 28.1096 19.1605C28.4828 19.1827 28.861 19.1926 29.2416 19.1951C29.3257 19.1951 29.4072 19.2173 29.4789 19.2593C29.9312 19.5287 30.3712 19.2198 30.7296 19.2C31.9679 19.1382 33.1617 19.3063 34.4049 19.2593C34.9067 19.2396 35.4109 19.247 35.9151 19.2816C37.0174 19.3533 38.0803 19.0987 39.2617 19.5485C39.3408 19.5782 39.4224 19.5831 39.5064 19.5658C40.018 19.4546 40.5321 19.4249 41.0536 19.4744C41.113 19.4818 41.1426 19.4546 41.1451 19.3928L41.3749 7.33362C41.3749 7.2224 41.4318 7.16555 41.543 7.1606V7.15813ZM54.9393 90.6158C56.0639 90.1536 57.7323 89.4789 59.0077 88.7077C59.5811 88.3641 60.0211 88.1194 60.3251 87.9785C63.081 86.6908 65.0781 84.931 67.4385 82.84C68.2121 82.1554 68.8102 81.3298 69.4751 80.5315C70.5379 79.261 71.3387 77.8992 72.231 76.5324C73.3012 74.8961 74.364 72.4418 74.9202 70.2544C75.2563 68.9345 75.627 67.6147 75.7951 66.3096C76.0546 64.2903 76.2202 62.2611 76.2894 60.222C76.3043 59.8141 76.3191 59.4088 76.3339 59.0034C76.4946 55.0438 76.591 51.0843 76.6207 47.1222C76.638 44.8607 76.6157 42.6016 76.6231 40.34C76.6256 39.1759 76.6157 37.9524 76.7269 36.7858C76.8134 35.8836 76.7442 34.9098 76.7789 34.0917C76.8456 32.5741 76.7591 30.8538 76.7789 29.5488C76.8357 25.5422 76.848 21.5332 76.8184 17.5242C76.8159 17.1312 76.9617 16.8075 76.8925 16.3724C76.7566 15.5074 76.8184 14.6522 77.0779 13.8069C77.1026 13.7278 77.1051 13.6487 77.0853 13.5671C76.8555 12.5809 76.7813 11.5873 76.8629 10.5888C76.8975 10.1612 76.9049 9.71629 76.8826 9.25903C76.8579 8.72763 76.769 7.86008 77.0878 7.39294C77.1694 7.27677 77.1397 7.20756 76.9963 7.19026C76.2227 7.09634 75.6864 7.04196 74.846 7.15566C73.8524 7.28913 72.8489 7.1087 71.8973 7.16308C70.7629 7.22487 69.6556 7.04938 68.5532 7.13342C67.4088 7.21993 66.2644 7.23723 65.1151 7.18286C64.0622 7.13589 62.9994 7.23969 61.9316 7.21745C59.806 7.17296 58.2959 7.2051 56.4718 7.23229C55.7476 7.24465 55.0506 7.04197 54.2844 7.14577C53.7901 7.21498 53.4391 7.24711 53.2315 7.2397C51.6545 7.18779 50.0776 7.17297 48.5032 7.19521C47.1784 7.21251 45.3815 7.07656 43.8095 7.20262C43.3646 7.23969 43.0235 7.19768 42.6207 7.08893C42.4378 7.0395 42.2524 7.14824 42.203 7.32867C42.1956 7.35833 42.1906 7.38801 42.1906 7.41767L42.1066 19.4002C42.1066 19.4941 42.1807 19.5683 42.2746 19.5683C42.2746 19.5683 42.2746 19.5683 42.2771 19.5683C42.7986 19.5559 43.2262 19.3335 43.7082 19.3359C44.2495 19.3359 45.1047 19.3607 46.2787 19.4027C47.0029 19.4299 48.7726 19.4397 51.5928 19.4373C52.3268 19.4373 53.6862 19.4126 55.671 19.3681C57.2355 19.3335 59.8184 19.5411 61.9094 19.4224C62.8956 19.3681 64.7172 19.247 64.7098 20.3691C64.6974 22.7987 64.5911 27.0623 64.3909 33.1574C64.3613 34.0002 64.1883 34.6552 64.2921 35.5401C64.3909 36.3508 64.1734 37.0527 64.297 37.8609C64.4256 38.6914 64.2921 39.7517 64.3217 40.4018C64.3712 41.4671 64.2476 42.515 64.2822 43.5754C64.3118 44.5319 64.1092 45.261 64.2822 46.3609C64.3242 46.6254 64.255 46.9022 64.2525 47.184C64.2402 51.3487 64.1265 55.5085 63.9114 59.6658C63.8793 60.301 63.8323 60.9362 63.7755 61.5665C63.6939 62.4242 63.7928 63.4104 63.6717 64.3446C63.511 65.5805 63.469 67.0511 62.9969 68.2029C62.5817 69.2138 62.2085 70.2544 61.6969 71.1466C60.9652 72.4146 60.2534 73.3884 59.5613 74.0657C59.0497 74.5674 57.8287 75.5387 55.9033 76.9797C55.2359 77.479 54.3981 77.9412 53.6121 78.2427C52.4529 78.6876 50.8488 79.35 48.8023 80.2299C47.9347 80.6032 46.6841 80.9838 45.6311 81.4732C44.3632 82.0614 43.0853 82.62 41.7951 83.149C41.4096 83.3072 41.2267 83.5543 41.2489 83.888C41.3552 85.6157 41.4021 86.9454 41.3873 87.8797C41.3799 88.4383 41.1896 89.0611 41.2094 89.7013C41.2613 91.5773 41.0858 93.4359 41.1006 95.302C41.1006 95.3935 41.1748 95.4676 41.2662 95.4676C41.2959 95.4676 41.3255 95.4602 41.3527 95.4429C41.5999 95.2946 41.7902 95.1933 42.0819 95.1389C44.907 94.6124 47.3761 93.8932 49.4919 92.9812C51.007 92.3286 52.2131 91.8442 53.1153 91.5303C53.7554 91.3054 54.2868 90.8852 54.9393 90.6158ZM5.8722 8.16904C5.97848 8.14927 6.04275 8.02073 6.01804 7.88232C5.99332 7.74391 5.88456 7.64752 5.78075 7.66729C5.67447 7.68706 5.6102 7.8156 5.63492 7.95401C5.65964 8.09242 5.76839 8.18881 5.8722 8.16904ZM5.73626 10.3317C5.78323 10.3391 5.83512 10.2353 5.85242 10.1043C5.86973 9.97088 5.84749 9.85965 5.803 9.85223C5.75604 9.84482 5.70413 9.94862 5.68683 10.0796C5.66953 10.2131 5.69178 10.3243 5.73626 10.3317ZM43.1422 81.5448C45.295 80.786 47.2822 79.6318 49.4276 78.8186C50.5126 78.4059 51.4024 78.0351 52.0994 77.7039C53.664 76.9624 55.3991 76.3396 56.6992 75.2397C58.1723 73.994 59.1832 72.642 60.3078 70.9291C60.8713 70.0739 61.2124 69.0902 61.6647 68.146C61.8526 67.758 61.7636 67.3576 61.8699 67.0363C62.1961 66.055 62.3592 65.1826 62.3592 64.4238C62.3592 61.6184 62.4309 58.8131 62.5767 56.0127C62.7127 53.4595 62.7473 50.7407 62.9129 48.1035C62.95 47.5276 62.7572 46.7836 63.0958 46.0693C63.1329 45.9927 63.1452 45.9136 63.1378 45.832C63.0711 45.0238 62.9796 44.2205 62.8585 43.4172C62.772 42.8463 63.0711 42.3074 63.0291 41.6796C62.8882 39.6356 62.9574 37.6039 63.2416 35.5821C63.3529 34.7936 63.3998 34.0398 63.385 33.3156C63.3479 31.4149 63.4641 28.9531 63.474 27.6135C63.4814 26.7904 63.4937 25.9649 63.511 25.1418C63.5333 24.0247 63.3751 22.1536 63.5876 20.6187C63.6025 20.5149 63.5283 20.4185 63.4245 20.4037C63.4196 20.4037 63.4171 20.4037 63.4122 20.4037C62.3518 20.3221 61.2767 20.2999 60.1867 20.3394C58.4293 20.4062 57.3542 20.4358 56.9612 20.4334C53.4761 20.4062 49.9911 20.3493 46.5086 20.2628C44.9885 20.2257 43.0211 20.248 41.543 20.5915C41.4639 20.6088 41.3848 20.6064 41.3058 20.5792C40.285 20.2356 39.4866 20.4952 38.4757 20.3469C37.8182 20.248 37.2424 20.4161 36.6072 20.2851C35.8063 20.1195 35.0352 20.2826 34.2492 20.3444C33.8265 20.3765 33.3198 20.3592 32.7266 20.29C31.6317 20.1639 30.5318 20.1491 29.4295 20.2505C29.0983 20.2801 28.7893 20.1392 28.4557 20.1442C27.7043 20.1565 26.9504 20.1516 26.1966 20.1293C25.4872 20.1071 24.7655 20.3839 23.9622 20.2208C22.7882 19.981 21.5647 20.117 20.3437 20.033C20.1559 20.0206 19.9878 20.1442 19.9408 20.3271C19.7727 21.0068 19.7011 21.4344 19.7975 22.1932C19.884 22.8902 19.7307 23.6836 19.7184 24.2199C19.617 28.0312 19.5973 31.7288 19.6393 35.5055C19.6442 36.1481 19.5454 36.8154 19.5478 37.4012C19.5701 42.5497 19.355 47.6808 19.3279 52.8268C19.3106 55.7754 18.9917 59.6609 19.1054 62.0584C19.1252 62.4909 19.2858 63.4845 19.5849 65.0392C19.8889 66.6087 20.1979 67.7778 20.5167 68.5464C21.147 70.0715 21.6908 71.1368 22.148 71.7423C22.7585 72.5505 23.2059 73.4181 23.9325 74.0953C24.543 74.6687 25.0942 75.2001 25.8382 75.6401C26.5228 76.0454 27.1951 76.4705 27.855 76.9154C29.3059 77.8917 31.1671 78.1711 32.5858 78.9126C33.6782 79.481 34.9857 79.837 35.7248 80.1509C37.3758 80.8503 39.2839 81.3916 40.8683 82.3679C40.9375 82.4099 41.0215 82.4198 41.0981 82.3951C41.805 82.1578 42.5045 81.7698 43.1422 81.5448ZM5.26417 53.1753C5.27653 53.0566 5.16284 52.9479 5.00713 52.9306C4.85141 52.9133 4.71548 52.9949 4.70312 53.1135C4.69076 53.2321 4.80445 53.3409 4.96016 53.3582C5.11588 53.3755 5.25181 53.2939 5.26417 53.1753ZM9.04581 76.9847C9.1249 76.9328 9.11007 76.7696 9.01367 76.6213C8.91728 76.4706 8.77391 76.3915 8.69482 76.4409C8.61573 76.4903 8.63056 76.6559 8.72695 76.8042C8.82335 76.955 8.96671 77.0341 9.04581 76.9847Z"/>
</mask>
<path d="M28.735 6.1843C28.7918 6.46854 28.8684 6.47102 28.9623 6.19667C28.9821 6.13982 29.034 6.08049 29.1205 6.01623C29.1774 5.97421 29.249 5.94949 29.3356 5.93714C30.6851 5.74682 32.0346 5.732 33.3841 5.88771C33.4657 5.8976 33.5472 5.88524 33.6239 5.85063C33.8191 5.76413 33.96 5.72211 34.0441 5.72458C35.3713 5.75671 36.7011 5.74189 38.0283 5.68504C38.7105 5.65538 39.3185 5.94208 40.0452 5.84569C41.6888 5.62818 43.335 5.55404 44.986 5.62572C46.1205 5.67515 47.4354 5.5046 48.6861 5.66526C48.9827 5.70234 49.2719 5.70976 49.5512 5.68751C52.3145 5.47495 55.1445 5.5911 57.9152 5.59605C57.93 5.59605 58.4491 5.62572 59.4748 5.68751C60.2139 5.732 60.9578 5.59359 61.6548 5.62325C63.0933 5.68257 64.6505 5.54167 65.953 5.56886C67.7845 5.60594 69.616 5.6183 71.4475 5.60594C71.6477 5.60594 71.8776 5.68503 72.1074 5.67267C74.7224 5.51201 76.4476 5.43293 78.1605 5.70234C78.3904 5.73942 78.5535 5.94208 78.5411 6.17442C78.4571 7.76863 78.4225 9.31342 78.4398 10.8137C78.4546 12.2497 78.1803 14.012 78.4126 15.668C78.4497 15.9399 78.4003 16.1821 78.2618 16.3947C78.2198 16.4589 78.1383 16.4812 78.069 16.4466C77.854 16.3378 77.6266 16.3131 77.3918 16.3749C77.2855 16.4021 77.2484 16.4664 77.2806 16.5726C77.3325 16.7407 77.4635 16.8173 77.6711 16.8025C77.8565 16.7901 77.9801 16.7778 78.0394 16.7654C78.3187 16.7086 78.4546 16.8223 78.4472 17.109C78.4274 17.7541 78.289 18.3794 78.3014 18.9825C78.3582 21.7903 78.3459 24.5981 78.2618 27.4059C78.2272 28.5676 78.3285 30.0555 78.2322 31.3803C78.1753 32.1885 78.1605 32.9621 78.1902 33.7012C78.2346 34.7541 78.1803 35.9998 78.1827 36.8451C78.2 40.8146 78.1827 43.3554 78.1259 44.4652C78.0443 46.0742 78.0023 47.2483 77.9998 47.9873C77.985 51.5045 77.901 55.0166 77.7477 58.5289C77.592 62.0584 77.8293 65.7906 77.0829 69.1915C76.4452 72.0957 75.323 75.0864 73.6423 77.7113C72.3496 79.7282 71.1212 81.399 69.962 82.7238C69.6333 83.0995 68.8226 83.8731 67.525 85.0472C65.6589 86.7353 63.9535 87.9909 62.4037 88.8189C57.9869 91.1769 54.2399 92.9169 51.1627 94.039C49.7761 94.5457 48.3944 95.0573 47.0128 95.5764C45.2184 96.2462 43.1545 96.7924 41.239 97.487C40.72 97.6748 40.4061 97.6625 40.0526 97.2546C39.9982 97.1929 39.934 97.1508 39.8574 97.1261C38.8465 96.7974 37.7268 96.3846 36.5033 95.8878C35.0302 95.2922 32.4647 94.2911 28.8066 92.8872C27.0468 92.2125 25.4131 91.3894 23.6928 90.6677C21.4708 89.7359 19.3353 88.636 17.2912 87.3681C16.5176 86.8886 15.7662 86.2954 15.0371 85.591C13.9496 84.5405 12.8892 83.5543 11.9599 82.3333C10.4991 80.4128 8.80359 78.4652 7.76549 76.4384C6.22318 73.4181 5.39023 70.2519 4.7303 66.9423C4.52516 65.9117 4.41146 64.8019 4.38921 63.6155C4.33237 60.2368 4.23597 56.7962 4.38921 53.4224C4.51032 50.7432 4.37438 47.7574 4.44606 44.2798C4.47819 42.6164 4.4164 40.4883 4.49302 38.5926C4.582 36.3236 4.63391 33.9681 4.6438 31.6719C4.6611 27.5937 4.79951 23.5674 4.76491 19.4422C4.74761 17.1733 4.90084 14.8573 4.88107 12.4895C4.87118 11.1004 4.9404 9.1058 4.84153 7.41272C4.81187 6.92086 4.9577 6.32766 4.85883 5.85311C4.81434 5.64796 4.94534 5.44776 5.15296 5.40327C5.19992 5.39338 5.24688 5.39338 5.29137 5.40079C5.88951 5.49966 6.47775 5.5392 7.05859 5.5219C9.84414 5.43292 12.647 5.69491 15.3707 5.67267C16.96 5.66031 18.5493 5.65784 20.1386 5.66279C21.3917 5.66526 22.672 5.61582 23.9128 5.78389C25.292 5.9668 26.6909 6.0459 28.0478 5.83828C28.4458 5.77649 28.6732 5.89017 28.735 6.1843ZM34.8992 6.71324C35.0376 6.74537 35.1884 6.60943 35.2379 6.40675C35.2873 6.20408 35.2131 6.0113 35.0772 5.97916C34.9388 5.94703 34.788 6.08297 34.7386 6.28565C34.6891 6.48832 34.7633 6.68111 34.8992 6.71324ZM72.2483 6.44629C72.2977 6.38203 72.2557 6.26834 72.1544 6.18925C72.053 6.11016 71.9319 6.0978 71.8825 6.16206C71.8331 6.22633 71.8751 6.34002 71.9764 6.41911C72.0778 6.4982 72.1989 6.51056 72.2483 6.44629ZM41.543 7.15813C41.7581 7.14824 41.8965 7.13095 41.9533 7.10624C42.0917 7.04444 42.1535 6.95052 42.1387 6.82199C42.1288 6.73795 42.0868 6.67864 42.0102 6.64404C41.5875 6.45125 41.2637 6.53528 41.0437 6.89861C41.0017 6.96534 40.9449 7.01231 40.8683 7.03702C40.6755 7.10376 40.5222 7.13837 40.4085 7.13837C38.32 7.13837 36.2241 7.09635 34.138 7.16803C33.5819 7.18533 33.0233 7.18533 32.4647 7.16803C31.4266 7.13095 30.0968 7.30149 28.8931 7.08151C28.6138 7.02961 28.342 7.02961 28.0775 7.08151C27.1358 7.26441 26.1224 7.09881 25.1585 7.12847C22.2098 7.21992 19.2586 7.24711 16.31 7.20509C15.9343 7.20015 15.5017 7.09882 15.0717 7.13342C12.6421 7.33609 10.1951 7.04691 7.74572 7.15813C7.46642 7.17049 7.19947 7.12353 6.9177 7.08646C6.82873 7.0741 6.78177 7.11364 6.77436 7.20509C6.74223 7.67471 6.70515 8.14432 6.66313 8.61146C6.55191 9.81515 6.64336 11.046 6.57168 12.2621C6.40361 15.0649 6.54449 17.8604 6.38136 20.6731C6.35417 21.1551 6.3517 21.6939 6.37641 22.2896C6.43326 23.6366 6.34429 25.4706 6.3517 26.3431C6.37889 29.6452 6.4135 32.9473 6.45057 36.2494C6.45305 36.5905 6.35912 36.9267 6.35912 37.2381C6.35171 38.2935 6.31463 39.3489 6.24542 40.4018C6.16386 41.6673 6.29239 42.9204 6.23307 44.2007C6.1515 45.9086 6.11442 47.619 6.11689 49.3269C6.11689 49.7199 6.24789 50.1969 6.19846 50.6542C5.90186 53.4719 6.11937 56.2871 5.97848 59.0949C5.92411 60.1428 5.92164 61.1019 5.97107 61.9743C6.02298 62.9358 6.06994 63.8973 6.10949 64.8588C6.19599 67.0091 6.67302 69.419 7.54304 72.0883C7.93603 73.297 8.7838 75.1532 10.0864 77.6619C10.3484 78.1612 10.7142 78.7593 11.0701 79.182C11.7967 80.0421 12.4171 80.964 13.1957 81.7599C13.8878 82.4668 14.5625 83.1885 15.2225 83.9275C15.6253 84.3798 16.6338 85.1782 18.2527 86.3275C18.9917 86.854 19.8667 87.3458 20.67 87.8649C21.3175 88.285 21.9453 88.6261 22.5509 88.8881C24.1723 89.5851 25.7986 90.2722 27.4299 90.947C28.3123 91.3128 29.5456 91.7033 30.5739 92.1803C31.4365 92.5783 32.3559 92.7192 33.1938 93.0701C35.0451 93.8462 36.6343 94.3826 38.3373 95.1117C38.8588 95.3366 39.3927 95.4454 39.929 95.6456C40.018 95.6777 40.065 95.6456 40.0699 95.5542C40.1985 93.0553 40.2528 90.554 40.233 88.0527C40.2232 86.592 40.3121 85.0398 40.3072 83.5197C40.3072 83.1762 40.1515 82.9413 39.845 82.8104C37.8158 81.9453 35.6308 81.3446 33.6931 80.5018C31.5106 79.5478 28.9722 78.7222 27.1383 77.6298C24.8718 76.2802 22.9241 74.5427 21.2903 72.4195C20.5884 71.505 20.1262 70.3038 19.622 69.3053C19.1721 68.413 18.9818 67.3551 18.6753 66.3862C18.3392 65.3185 18.1785 64.0258 18.1687 63.1286C18.1291 59.4038 18.27 53.8995 18.2774 49.0377C18.2823 46.1879 18.5616 43.3727 18.4208 40.513C18.3689 39.4626 18.3862 38.4121 18.4751 37.3617C18.4974 37.1096 18.4059 36.8055 18.4133 36.5386C18.4479 35.0779 18.4998 33.6146 18.5691 32.1539C18.6012 31.4989 18.532 30.7302 18.5839 30.0036C18.7223 28.1004 18.7124 26.2121 18.7421 24.3064C18.7618 23.0286 18.6333 21.2193 18.7643 19.7092C18.794 19.3458 19.1054 19.0715 19.4687 19.0838C20.2102 19.1085 20.9196 19.0937 21.5993 19.0393C22.1752 18.9924 22.6226 19.1086 23.1639 19.2321C23.6335 19.3384 23.9869 19.116 24.5059 19.2222C25.1288 19.3508 25.6405 19.1703 26.2584 19.242C26.9059 19.3186 27.5461 19.1258 28.1096 19.1605C28.4828 19.1827 28.861 19.1926 29.2416 19.1951C29.3257 19.1951 29.4072 19.2173 29.4789 19.2593C29.9312 19.5287 30.3712 19.2198 30.7296 19.2C31.9679 19.1382 33.1617 19.3063 34.4049 19.2593C34.9067 19.2396 35.4109 19.247 35.9151 19.2816C37.0174 19.3533 38.0803 19.0987 39.2617 19.5485C39.3408 19.5782 39.4224 19.5831 39.5064 19.5658C40.018 19.4546 40.5321 19.4249 41.0536 19.4744C41.113 19.4818 41.1426 19.4546 41.1451 19.3928L41.3749 7.33362C41.3749 7.2224 41.4318 7.16555 41.543 7.1606V7.15813ZM54.9393 90.6158C56.0639 90.1536 57.7323 89.4789 59.0077 88.7077C59.5811 88.3641 60.0211 88.1194 60.3251 87.9785C63.081 86.6908 65.0781 84.931 67.4385 82.84C68.2121 82.1554 68.8102 81.3298 69.4751 80.5315C70.5379 79.261 71.3387 77.8992 72.231 76.5324C73.3012 74.8961 74.364 72.4418 74.9202 70.2544C75.2563 68.9345 75.627 67.6147 75.7951 66.3096C76.0546 64.2903 76.2202 62.2611 76.2894 60.222C76.3043 59.8141 76.3191 59.4088 76.3339 59.0034C76.4946 55.0438 76.591 51.0843 76.6207 47.1222C76.638 44.8607 76.6157 42.6016 76.6231 40.34C76.6256 39.1759 76.6157 37.9524 76.7269 36.7858C76.8134 35.8836 76.7442 34.9098 76.7789 34.0917C76.8456 32.5741 76.7591 30.8538 76.7789 29.5488C76.8357 25.5422 76.848 21.5332 76.8184 17.5242C76.8159 17.1312 76.9617 16.8075 76.8925 16.3724C76.7566 15.5074 76.8184 14.6522 77.0779 13.8069C77.1026 13.7278 77.1051 13.6487 77.0853 13.5671C76.8555 12.5809 76.7813 11.5873 76.8629 10.5888C76.8975 10.1612 76.9049 9.71629 76.8826 9.25903C76.8579 8.72763 76.769 7.86008 77.0878 7.39294C77.1694 7.27677 77.1397 7.20756 76.9963 7.19026C76.2227 7.09634 75.6864 7.04196 74.846 7.15566C73.8524 7.28913 72.8489 7.1087 71.8973 7.16308C70.7629 7.22487 69.6556 7.04938 68.5532 7.13342C67.4088 7.21993 66.2644 7.23723 65.1151 7.18286C64.0622 7.13589 62.9994 7.23969 61.9316 7.21745C59.806 7.17296 58.2959 7.2051 56.4718 7.23229C55.7476 7.24465 55.0506 7.04197 54.2844 7.14577C53.7901 7.21498 53.4391 7.24711 53.2315 7.2397C51.6545 7.18779 50.0776 7.17297 48.5032 7.19521C47.1784 7.21251 45.3815 7.07656 43.8095 7.20262C43.3646 7.23969 43.0235 7.19768 42.6207 7.08893C42.4378 7.0395 42.2524 7.14824 42.203 7.32867C42.1956 7.35833 42.1906 7.38801 42.1906 7.41767L42.1066 19.4002C42.1066 19.4941 42.1807 19.5683 42.2746 19.5683C42.2746 19.5683 42.2746 19.5683 42.2771 19.5683C42.7986 19.5559 43.2262 19.3335 43.7082 19.3359C44.2495 19.3359 45.1047 19.3607 46.2787 19.4027C47.0029 19.4299 48.7726 19.4397 51.5928 19.4373C52.3268 19.4373 53.6862 19.4126 55.671 19.3681C57.2355 19.3335 59.8184 19.5411 61.9094 19.4224C62.8956 19.3681 64.7172 19.247 64.7098 20.3691C64.6974 22.7987 64.5911 27.0623 64.3909 33.1574C64.3613 34.0002 64.1883 34.6552 64.2921 35.5401C64.3909 36.3508 64.1734 37.0527 64.297 37.8609C64.4256 38.6914 64.2921 39.7517 64.3217 40.4018C64.3712 41.4671 64.2476 42.515 64.2822 43.5754C64.3118 44.5319 64.1092 45.261 64.2822 46.3609C64.3242 46.6254 64.255 46.9022 64.2525 47.184C64.2402 51.3487 64.1265 55.5085 63.9114 59.6658C63.8793 60.301 63.8323 60.9362 63.7755 61.5665C63.6939 62.4242 63.7928 63.4104 63.6717 64.3446C63.511 65.5805 63.469 67.0511 62.9969 68.2029C62.5817 69.2138 62.2085 70.2544 61.6969 71.1466C60.9652 72.4146 60.2534 73.3884 59.5613 74.0657C59.0497 74.5674 57.8287 75.5387 55.9033 76.9797C55.2359 77.479 54.3981 77.9412 53.6121 78.2427C52.4529 78.6876 50.8488 79.35 48.8023 80.2299C47.9347 80.6032 46.6841 80.9838 45.6311 81.4732C44.3632 82.0614 43.0853 82.62 41.7951 83.149C41.4096 83.3072 41.2267 83.5543 41.2489 83.888C41.3552 85.6157 41.4021 86.9454 41.3873 87.8797C41.3799 88.4383 41.1896 89.0611 41.2094 89.7013C41.2613 91.5773 41.0858 93.4359 41.1006 95.302C41.1006 95.3935 41.1748 95.4676 41.2662 95.4676C41.2959 95.4676 41.3255 95.4602 41.3527 95.4429C41.5999 95.2946 41.7902 95.1933 42.0819 95.1389C44.907 94.6124 47.3761 93.8932 49.4919 92.9812C51.007 92.3286 52.2131 91.8442 53.1153 91.5303C53.7554 91.3054 54.2868 90.8852 54.9393 90.6158ZM5.8722 8.16904C5.97848 8.14927 6.04275 8.02073 6.01804 7.88232C5.99332 7.74391 5.88456 7.64752 5.78075 7.66729C5.67447 7.68706 5.6102 7.8156 5.63492 7.95401C5.65964 8.09242 5.76839 8.18881 5.8722 8.16904ZM5.73626 10.3317C5.78323 10.3391 5.83512 10.2353 5.85242 10.1043C5.86973 9.97088 5.84749 9.85965 5.803 9.85223C5.75604 9.84482 5.70413 9.94862 5.68683 10.0796C5.66953 10.2131 5.69178 10.3243 5.73626 10.3317ZM43.1422 81.5448C45.295 80.786 47.2822 79.6318 49.4276 78.8186C50.5126 78.4059 51.4024 78.0351 52.0994 77.7039C53.664 76.9624 55.3991 76.3396 56.6992 75.2397C58.1723 73.994 59.1832 72.642 60.3078 70.9291C60.8713 70.0739 61.2124 69.0902 61.6647 68.146C61.8526 67.758 61.7636 67.3576 61.8699 67.0363C62.1961 66.055 62.3592 65.1826 62.3592 64.4238C62.3592 61.6184 62.4309 58.8131 62.5767 56.0127C62.7127 53.4595 62.7473 50.7407 62.9129 48.1035C62.95 47.5276 62.7572 46.7836 63.0958 46.0693C63.1329 45.9927 63.1452 45.9136 63.1378 45.832C63.0711 45.0238 62.9796 44.2205 62.8585 43.4172C62.772 42.8463 63.0711 42.3074 63.0291 41.6796C62.8882 39.6356 62.9574 37.6039 63.2416 35.5821C63.3529 34.7936 63.3998 34.0398 63.385 33.3156C63.3479 31.4149 63.4641 28.9531 63.474 27.6135C63.4814 26.7904 63.4937 25.9649 63.511 25.1418C63.5333 24.0247 63.3751 22.1536 63.5876 20.6187C63.6025 20.5149 63.5283 20.4185 63.4245 20.4037C63.4196 20.4037 63.4171 20.4037 63.4122 20.4037C62.3518 20.3221 61.2767 20.2999 60.1867 20.3394C58.4293 20.4062 57.3542 20.4358 56.9612 20.4334C53.4761 20.4062 49.9911 20.3493 46.5086 20.2628C44.9885 20.2257 43.0211 20.248 41.543 20.5915C41.4639 20.6088 41.3848 20.6064 41.3058 20.5792C40.285 20.2356 39.4866 20.4952 38.4757 20.3469C37.8182 20.248 37.2424 20.4161 36.6072 20.2851C35.8063 20.1195 35.0352 20.2826 34.2492 20.3444C33.8265 20.3765 33.3198 20.3592 32.7266 20.29C31.6317 20.1639 30.5318 20.1491 29.4295 20.2505C29.0983 20.2801 28.7893 20.1392 28.4557 20.1442C27.7043 20.1565 26.9504 20.1516 26.1966 20.1293C25.4872 20.1071 24.7655 20.3839 23.9622 20.2208C22.7882 19.981 21.5647 20.117 20.3437 20.033C20.1559 20.0206 19.9878 20.1442 19.9408 20.3271C19.7727 21.0068 19.7011 21.4344 19.7975 22.1932C19.884 22.8902 19.7307 23.6836 19.7184 24.2199C19.617 28.0312 19.5973 31.7288 19.6393 35.5055C19.6442 36.1481 19.5454 36.8154 19.5478 37.4012C19.5701 42.5497 19.355 47.6808 19.3279 52.8268C19.3106 55.7754 18.9917 59.6609 19.1054 62.0584C19.1252 62.4909 19.2858 63.4845 19.5849 65.0392C19.8889 66.6087 20.1979 67.7778 20.5167 68.5464C21.147 70.0715 21.6908 71.1368 22.148 71.7423C22.7585 72.5505 23.2059 73.4181 23.9325 74.0953C24.543 74.6687 25.0942 75.2001 25.8382 75.6401C26.5228 76.0454 27.1951 76.4705 27.855 76.9154C29.3059 77.8917 31.1671 78.1711 32.5858 78.9126C33.6782 79.481 34.9857 79.837 35.7248 80.1509C37.3758 80.8503 39.2839 81.3916 40.8683 82.3679C40.9375 82.4099 41.0215 82.4198 41.0981 82.3951C41.805 82.1578 42.5045 81.7698 43.1422 81.5448ZM5.26417 53.1753C5.27653 53.0566 5.16284 52.9479 5.00713 52.9306C4.85141 52.9133 4.71548 52.9949 4.70312 53.1135C4.69076 53.2321 4.80445 53.3409 4.96016 53.3582C5.11588 53.3755 5.25181 53.2939 5.26417 53.1753ZM9.04581 76.9847C9.1249 76.9328 9.11007 76.7696 9.01367 76.6213C8.91728 76.4706 8.77391 76.3915 8.69482 76.4409C8.61573 76.4903 8.63056 76.6559 8.72695 76.8042C8.82335 76.955 8.96671 77.0341 9.04581 76.9847Z" fill="#EAFE01"/>
<path d="M28.735 6.1843C28.7918 6.46854 28.8684 6.47102 28.9623 6.19667C28.9821 6.13982 29.034 6.08049 29.1205 6.01623C29.1774 5.97421 29.249 5.94949 29.3356 5.93714C30.6851 5.74682 32.0346 5.732 33.3841 5.88771C33.4657 5.8976 33.5472 5.88524 33.6239 5.85063C33.8191 5.76413 33.96 5.72211 34.0441 5.72458C35.3713 5.75671 36.7011 5.74189 38.0283 5.68504C38.7105 5.65538 39.3185 5.94208 40.0452 5.84569C41.6888 5.62818 43.335 5.55404 44.986 5.62572C46.1205 5.67515 47.4354 5.5046 48.6861 5.66526C48.9827 5.70234 49.2719 5.70976 49.5512 5.68751C52.3145 5.47495 55.1445 5.5911 57.9152 5.59605C57.93 5.59605 58.4491 5.62572 59.4748 5.68751C60.2139 5.732 60.9578 5.59359 61.6548 5.62325C63.0933 5.68257 64.6505 5.54167 65.953 5.56886C67.7845 5.60594 69.616 5.6183 71.4475 5.60594C71.6477 5.60594 71.8776 5.68503 72.1074 5.67267C74.7224 5.51201 76.4476 5.43293 78.1605 5.70234C78.3904 5.73942 78.5535 5.94208 78.5411 6.17442C78.4571 7.76863 78.4225 9.31342 78.4398 10.8137C78.4546 12.2497 78.1803 14.012 78.4126 15.668C78.4497 15.9399 78.4003 16.1821 78.2618 16.3947C78.2198 16.4589 78.1383 16.4812 78.069 16.4466C77.854 16.3378 77.6266 16.3131 77.3918 16.3749C77.2855 16.4021 77.2484 16.4664 77.2806 16.5726C77.3325 16.7407 77.4635 16.8173 77.6711 16.8025C77.8565 16.7901 77.9801 16.7778 78.0394 16.7654C78.3187 16.7086 78.4546 16.8223 78.4472 17.109C78.4274 17.7541 78.289 18.3794 78.3014 18.9825C78.3582 21.7903 78.3459 24.5981 78.2618 27.4059C78.2272 28.5676 78.3285 30.0555 78.2322 31.3803C78.1753 32.1885 78.1605 32.9621 78.1902 33.7012C78.2346 34.7541 78.1803 35.9998 78.1827 36.8451C78.2 40.8146 78.1827 43.3554 78.1259 44.4652C78.0443 46.0742 78.0023 47.2483 77.9998 47.9873C77.985 51.5045 77.901 55.0166 77.7477 58.5289C77.592 62.0584 77.8293 65.7906 77.0829 69.1915C76.4452 72.0957 75.323 75.0864 73.6423 77.7113C72.3496 79.7282 71.1212 81.399 69.962 82.7238C69.6333 83.0995 68.8226 83.8731 67.525 85.0472C65.6589 86.7353 63.9535 87.9909 62.4037 88.8189C57.9869 91.1769 54.2399 92.9169 51.1627 94.039C49.7761 94.5457 48.3944 95.0573 47.0128 95.5764C45.2184 96.2462 43.1545 96.7924 41.239 97.487C40.72 97.6748 40.4061 97.6625 40.0526 97.2546C39.9982 97.1929 39.934 97.1508 39.8574 97.1261C38.8465 96.7974 37.7268 96.3846 36.5033 95.8878C35.0302 95.2922 32.4647 94.2911 28.8066 92.8872C27.0468 92.2125 25.4131 91.3894 23.6928 90.6677C21.4708 89.7359 19.3353 88.636 17.2912 87.3681C16.5176 86.8886 15.7662 86.2954 15.0371 85.591C13.9496 84.5405 12.8892 83.5543 11.9599 82.3333C10.4991 80.4128 8.80359 78.4652 7.76549 76.4384C6.22318 73.4181 5.39023 70.2519 4.7303 66.9423C4.52516 65.9117 4.41146 64.8019 4.38921 63.6155C4.33237 60.2368 4.23597 56.7962 4.38921 53.4224C4.51032 50.7432 4.37438 47.7574 4.44606 44.2798C4.47819 42.6164 4.4164 40.4883 4.49302 38.5926C4.582 36.3236 4.63391 33.9681 4.6438 31.6719C4.6611 27.5937 4.79951 23.5674 4.76491 19.4422C4.74761 17.1733 4.90084 14.8573 4.88107 12.4895C4.87118 11.1004 4.9404 9.1058 4.84153 7.41272C4.81187 6.92086 4.9577 6.32766 4.85883 5.85311C4.81434 5.64796 4.94534 5.44776 5.15296 5.40327C5.19992 5.39338 5.24688 5.39338 5.29137 5.40079C5.88951 5.49966 6.47775 5.5392 7.05859 5.5219C9.84414 5.43292 12.647 5.69491 15.3707 5.67267C16.96 5.66031 18.5493 5.65784 20.1386 5.66279C21.3917 5.66526 22.672 5.61582 23.9128 5.78389C25.292 5.9668 26.6909 6.0459 28.0478 5.83828C28.4458 5.77649 28.6732 5.89017 28.735 6.1843ZM34.8992 6.71324C35.0376 6.74537 35.1884 6.60943 35.2379 6.40675C35.2873 6.20408 35.2131 6.0113 35.0772 5.97916C34.9388 5.94703 34.788 6.08297 34.7386 6.28565C34.6891 6.48832 34.7633 6.68111 34.8992 6.71324ZM72.2483 6.44629C72.2977 6.38203 72.2557 6.26834 72.1544 6.18925C72.053 6.11016 71.9319 6.0978 71.8825 6.16206C71.8331 6.22633 71.8751 6.34002 71.9764 6.41911C72.0778 6.4982 72.1989 6.51056 72.2483 6.44629ZM41.543 7.15813C41.7581 7.14824 41.8965 7.13095 41.9533 7.10624C42.0917 7.04444 42.1535 6.95052 42.1387 6.82199C42.1288 6.73795 42.0868 6.67864 42.0102 6.64404C41.5875 6.45125 41.2637 6.53528 41.0437 6.89861C41.0017 6.96534 40.9449 7.01231 40.8683 7.03702C40.6755 7.10376 40.5222 7.13837 40.4085 7.13837C38.32 7.13837 36.2241 7.09635 34.138 7.16803C33.5819 7.18533 33.0233 7.18533 32.4647 7.16803C31.4266 7.13095 30.0968 7.30149 28.8931 7.08151C28.6138 7.02961 28.342 7.02961 28.0775 7.08151C27.1358 7.26441 26.1224 7.09881 25.1585 7.12847C22.2098 7.21992 19.2586 7.24711 16.31 7.20509C15.9343 7.20015 15.5017 7.09882 15.0717 7.13342C12.6421 7.33609 10.1951 7.04691 7.74572 7.15813C7.46642 7.17049 7.19947 7.12353 6.9177 7.08646C6.82873 7.0741 6.78177 7.11364 6.77436 7.20509C6.74223 7.67471 6.70515 8.14432 6.66313 8.61146C6.55191 9.81515 6.64336 11.046 6.57168 12.2621C6.40361 15.0649 6.54449 17.8604 6.38136 20.6731C6.35417 21.1551 6.3517 21.6939 6.37641 22.2896C6.43326 23.6366 6.34429 25.4706 6.3517 26.3431C6.37889 29.6452 6.4135 32.9473 6.45057 36.2494C6.45305 36.5905 6.35912 36.9267 6.35912 37.2381C6.35171 38.2935 6.31463 39.3489 6.24542 40.4018C6.16386 41.6673 6.29239 42.9204 6.23307 44.2007C6.1515 45.9086 6.11442 47.619 6.11689 49.3269C6.11689 49.7199 6.24789 50.1969 6.19846 50.6542C5.90186 53.4719 6.11937 56.2871 5.97848 59.0949C5.92411 60.1428 5.92164 61.1019 5.97107 61.9743C6.02298 62.9358 6.06994 63.8973 6.10949 64.8588C6.19599 67.0091 6.67302 69.419 7.54304 72.0883C7.93603 73.297 8.7838 75.1532 10.0864 77.6619C10.3484 78.1612 10.7142 78.7593 11.0701 79.182C11.7967 80.0421 12.4171 80.964 13.1957 81.7599C13.8878 82.4668 14.5625 83.1885 15.2225 83.9275C15.6253 84.3798 16.6338 85.1782 18.2527 86.3275C18.9917 86.854 19.8667 87.3458 20.67 87.8649C21.3175 88.285 21.9453 88.6261 22.5509 88.8881C24.1723 89.5851 25.7986 90.2722 27.4299 90.947C28.3123 91.3128 29.5456 91.7033 30.5739 92.1803C31.4365 92.5783 32.3559 92.7192 33.1938 93.0701C35.0451 93.8462 36.6343 94.3826 38.3373 95.1117C38.8588 95.3366 39.3927 95.4454 39.929 95.6456C40.018 95.6777 40.065 95.6456 40.0699 95.5542C40.1985 93.0553 40.2528 90.554 40.233 88.0527C40.2232 86.592 40.3121 85.0398 40.3072 83.5197C40.3072 83.1762 40.1515 82.9413 39.845 82.8104C37.8158 81.9453 35.6308 81.3446 33.6931 80.5018C31.5106 79.5478 28.9722 78.7222 27.1383 77.6298C24.8718 76.2802 22.9241 74.5427 21.2903 72.4195C20.5884 71.505 20.1262 70.3038 19.622 69.3053C19.1721 68.413 18.9818 67.3551 18.6753 66.3862C18.3392 65.3185 18.1785 64.0258 18.1687 63.1286C18.1291 59.4038 18.27 53.8995 18.2774 49.0377C18.2823 46.1879 18.5616 43.3727 18.4208 40.513C18.3689 39.4626 18.3862 38.4121 18.4751 37.3617C18.4974 37.1096 18.4059 36.8055 18.4133 36.5386C18.4479 35.0779 18.4998 33.6146 18.5691 32.1539C18.6012 31.4989 18.532 30.7302 18.5839 30.0036C18.7223 28.1004 18.7124 26.2121 18.7421 24.3064C18.7618 23.0286 18.6333 21.2193 18.7643 19.7092C18.794 19.3458 19.1054 19.0715 19.4687 19.0838C20.2102 19.1085 20.9196 19.0937 21.5993 19.0393C22.1752 18.9924 22.6226 19.1086 23.1639 19.2321C23.6335 19.3384 23.9869 19.116 24.5059 19.2222C25.1288 19.3508 25.6405 19.1703 26.2584 19.242C26.9059 19.3186 27.5461 19.1258 28.1096 19.1605C28.4828 19.1827 28.861 19.1926 29.2416 19.1951C29.3257 19.1951 29.4072 19.2173 29.4789 19.2593C29.9312 19.5287 30.3712 19.2198 30.7296 19.2C31.9679 19.1382 33.1617 19.3063 34.4049 19.2593C34.9067 19.2396 35.4109 19.247 35.9151 19.2816C37.0174 19.3533 38.0803 19.0987 39.2617 19.5485C39.3408 19.5782 39.4224 19.5831 39.5064 19.5658C40.018 19.4546 40.5321 19.4249 41.0536 19.4744C41.113 19.4818 41.1426 19.4546 41.1451 19.3928L41.3749 7.33362C41.3749 7.2224 41.4318 7.16555 41.543 7.1606V7.15813ZM54.9393 90.6158C56.0639 90.1536 57.7323 89.4789 59.0077 88.7077C59.5811 88.3641 60.0211 88.1194 60.3251 87.9785C63.081 86.6908 65.0781 84.931 67.4385 82.84C68.2121 82.1554 68.8102 81.3298 69.4751 80.5315C70.5379 79.261 71.3387 77.8992 72.231 76.5324C73.3012 74.8961 74.364 72.4418 74.9202 70.2544C75.2563 68.9345 75.627 67.6147 75.7951 66.3096C76.0546 64.2903 76.2202 62.2611 76.2894 60.222C76.3043 59.8141 76.3191 59.4088 76.3339 59.0034C76.4946 55.0438 76.591 51.0843 76.6207 47.1222C76.638 44.8607 76.6157 42.6016 76.6231 40.34C76.6256 39.1759 76.6157 37.9524 76.7269 36.7858C76.8134 35.8836 76.7442 34.9098 76.7789 34.0917C76.8456 32.5741 76.7591 30.8538 76.7789 29.5488C76.8357 25.5422 76.848 21.5332 76.8184 17.5242C76.8159 17.1312 76.9617 16.8075 76.8925 16.3724C76.7566 15.5074 76.8184 14.6522 77.0779 13.8069C77.1026 13.7278 77.1051 13.6487 77.0853 13.5671C76.8555 12.5809 76.7813 11.5873 76.8629 10.5888C76.8975 10.1612 76.9049 9.71629 76.8826 9.25903C76.8579 8.72763 76.769 7.86008 77.0878 7.39294C77.1694 7.27677 77.1397 7.20756 76.9963 7.19026C76.2227 7.09634 75.6864 7.04196 74.846 7.15566C73.8524 7.28913 72.8489 7.1087 71.8973 7.16308C70.7629 7.22487 69.6556 7.04938 68.5532 7.13342C67.4088 7.21993 66.2644 7.23723 65.1151 7.18286C64.0622 7.13589 62.9994 7.23969 61.9316 7.21745C59.806 7.17296 58.2959 7.2051 56.4718 7.23229C55.7476 7.24465 55.0506 7.04197 54.2844 7.14577C53.7901 7.21498 53.4391 7.24711 53.2315 7.2397C51.6545 7.18779 50.0776 7.17297 48.5032 7.19521C47.1784 7.21251 45.3815 7.07656 43.8095 7.20262C43.3646 7.23969 43.0235 7.19768 42.6207 7.08893C42.4378 7.0395 42.2524 7.14824 42.203 7.32867C42.1956 7.35833 42.1906 7.38801 42.1906 7.41767L42.1066 19.4002C42.1066 19.4941 42.1807 19.5683 42.2746 19.5683C42.2746 19.5683 42.2746 19.5683 42.2771 19.5683C42.7986 19.5559 43.2262 19.3335 43.7082 19.3359C44.2495 19.3359 45.1047 19.3607 46.2787 19.4027C47.0029 19.4299 48.7726 19.4397 51.5928 19.4373C52.3268 19.4373 53.6862 19.4126 55.671 19.3681C57.2355 19.3335 59.8184 19.5411 61.9094 19.4224C62.8956 19.3681 64.7172 19.247 64.7098 20.3691C64.6974 22.7987 64.5911 27.0623 64.3909 33.1574C64.3613 34.0002 64.1883 34.6552 64.2921 35.5401C64.3909 36.3508 64.1734 37.0527 64.297 37.8609C64.4256 38.6914 64.2921 39.7517 64.3217 40.4018C64.3712 41.4671 64.2476 42.515 64.2822 43.5754C64.3118 44.5319 64.1092 45.261 64.2822 46.3609C64.3242 46.6254 64.255 46.9022 64.2525 47.184C64.2402 51.3487 64.1265 55.5085 63.9114 59.6658C63.8793 60.301 63.8323 60.9362 63.7755 61.5665C63.6939 62.4242 63.7928 63.4104 63.6717 64.3446C63.511 65.5805 63.469 67.0511 62.9969 68.2029C62.5817 69.2138 62.2085 70.2544 61.6969 71.1466C60.9652 72.4146 60.2534 73.3884 59.5613 74.0657C59.0497 74.5674 57.8287 75.5387 55.9033 76.9797C55.2359 77.479 54.3981 77.9412 53.6121 78.2427C52.4529 78.6876 50.8488 79.35 48.8023 80.2299C47.9347 80.6032 46.6841 80.9838 45.6311 81.4732C44.3632 82.0614 43.0853 82.62 41.7951 83.149C41.4096 83.3072 41.2267 83.5543 41.2489 83.888C41.3552 85.6157 41.4021 86.9454 41.3873 87.8797C41.3799 88.4383 41.1896 89.0611 41.2094 89.7013C41.2613 91.5773 41.0858 93.4359 41.1006 95.302C41.1006 95.3935 41.1748 95.4676 41.2662 95.4676C41.2959 95.4676 41.3255 95.4602 41.3527 95.4429C41.5999 95.2946 41.7902 95.1933 42.0819 95.1389C44.907 94.6124 47.3761 93.8932 49.4919 92.9812C51.007 92.3286 52.2131 91.8442 53.1153 91.5303C53.7554 91.3054 54.2868 90.8852 54.9393 90.6158ZM5.8722 8.16904C5.97848 8.14927 6.04275 8.02073 6.01804 7.88232C5.99332 7.74391 5.88456 7.64752 5.78075 7.66729C5.67447 7.68706 5.6102 7.8156 5.63492 7.95401C5.65964 8.09242 5.76839 8.18881 5.8722 8.16904ZM5.73626 10.3317C5.78323 10.3391 5.83512 10.2353 5.85242 10.1043C5.86973 9.97088 5.84749 9.85965 5.803 9.85223C5.75604 9.84482 5.70413 9.94862 5.68683 10.0796C5.66953 10.2131 5.69178 10.3243 5.73626 10.3317ZM43.1422 81.5448C45.295 80.786 47.2822 79.6318 49.4276 78.8186C50.5126 78.4059 51.4024 78.0351 52.0994 77.7039C53.664 76.9624 55.3991 76.3396 56.6992 75.2397C58.1723 73.994 59.1832 72.642 60.3078 70.9291C60.8713 70.0739 61.2124 69.0902 61.6647 68.146C61.8526 67.758 61.7636 67.3576 61.8699 67.0363C62.1961 66.055 62.3592 65.1826 62.3592 64.4238C62.3592 61.6184 62.4309 58.8131 62.5767 56.0127C62.7127 53.4595 62.7473 50.7407 62.9129 48.1035C62.95 47.5276 62.7572 46.7836 63.0958 46.0693C63.1329 45.9927 63.1452 45.9136 63.1378 45.832C63.0711 45.0238 62.9796 44.2205 62.8585 43.4172C62.772 42.8463 63.0711 42.3074 63.0291 41.6796C62.8882 39.6356 62.9574 37.6039 63.2416 35.5821C63.3529 34.7936 63.3998 34.0398 63.385 33.3156C63.3479 31.4149 63.4641 28.9531 63.474 27.6135C63.4814 26.7904 63.4937 25.9649 63.511 25.1418C63.5333 24.0247 63.3751 22.1536 63.5876 20.6187C63.6025 20.5149 63.5283 20.4185 63.4245 20.4037C63.4196 20.4037 63.4171 20.4037 63.4122 20.4037C62.3518 20.3221 61.2767 20.2999 60.1867 20.3394C58.4293 20.4062 57.3542 20.4358 56.9612 20.4334C53.4761 20.4062 49.9911 20.3493 46.5086 20.2628C44.9885 20.2257 43.0211 20.248 41.543 20.5915C41.4639 20.6088 41.3848 20.6064 41.3058 20.5792C40.285 20.2356 39.4866 20.4952 38.4757 20.3469C37.8182 20.248 37.2424 20.4161 36.6072 20.2851C35.8063 20.1195 35.0352 20.2826 34.2492 20.3444C33.8265 20.3765 33.3198 20.3592 32.7266 20.29C31.6317 20.1639 30.5318 20.1491 29.4295 20.2505C29.0983 20.2801 28.7893 20.1392 28.4557 20.1442C27.7043 20.1565 26.9504 20.1516 26.1966 20.1293C25.4872 20.1071 24.7655 20.3839 23.9622 20.2208C22.7882 19.981 21.5647 20.117 20.3437 20.033C20.1559 20.0206 19.9878 20.1442 19.9408 20.3271C19.7727 21.0068 19.7011 21.4344 19.7975 22.1932C19.884 22.8902 19.7307 23.6836 19.7184 24.2199C19.617 28.0312 19.5973 31.7288 19.6393 35.5055C19.6442 36.1481 19.5454 36.8154 19.5478 37.4012C19.5701 42.5497 19.355 47.6808 19.3279 52.8268C19.3106 55.7754 18.9917 59.6609 19.1054 62.0584C19.1252 62.4909 19.2858 63.4845 19.5849 65.0392C19.8889 66.6087 20.1979 67.7778 20.5167 68.5464C21.147 70.0715 21.6908 71.1368 22.148 71.7423C22.7585 72.5505 23.2059 73.4181 23.9325 74.0953C24.543 74.6687 25.0942 75.2001 25.8382 75.6401C26.5228 76.0454 27.1951 76.4705 27.855 76.9154C29.3059 77.8917 31.1671 78.1711 32.5858 78.9126C33.6782 79.481 34.9857 79.837 35.7248 80.1509C37.3758 80.8503 39.2839 81.3916 40.8683 82.3679C40.9375 82.4099 41.0215 82.4198 41.0981 82.3951C41.805 82.1578 42.5045 81.7698 43.1422 81.5448ZM5.26417 53.1753C5.27653 53.0566 5.16284 52.9479 5.00713 52.9306C4.85141 52.9133 4.71548 52.9949 4.70312 53.1135C4.69076 53.2321 4.80445 53.3409 4.96016 53.3582C5.11588 53.3755 5.25181 53.2939 5.26417 53.1753ZM9.04581 76.9847C9.1249 76.9328 9.11007 76.7696 9.01367 76.6213C8.91728 76.4706 8.77391 76.3915 8.69482 76.4409C8.61573 76.4903 8.63056 76.6559 8.72695 76.8042C8.82335 76.955 8.96671 77.0341 9.04581 76.9847Z" stroke="#EAFE01" stroke-width="6" mask="url(#path-1-outside-1_192_360)"/>
</svg>
