<svg width="82" height="103" viewBox="0 0 82 103" fill="none" xmlns="http://www.w3.org/2000/svg">
<mask id="path-1-outside-1_192_328" maskUnits="userSpaceOnUse" x="1" y="2.24316" width="80" height="99" fill="black">
<rect fill="white" x="1" y="2.24316" width="80" height="99"/>
<path d="M35.3535 5.5699C36.3199 5.23128 37.3828 5.33015 38.7792 5.38452C39.5306 5.41418 40.5563 5.28813 41.4684 5.42654C42.0517 5.51305 42.4546 5.29801 43.0082 5.31284C44.8026 5.35981 46.5946 5.31532 48.3865 5.39194C48.9822 5.41665 49.5779 5.33015 50.1488 5.35733C51.6911 5.43396 53.4114 5.2906 54.7461 5.30296C56.7382 5.32026 58.7304 5.32026 60.7225 5.30296C62.3587 5.28566 64.1284 5.38947 65.8339 5.40182C66.1132 5.4043 66.4048 5.52046 66.7435 5.50069C67.7321 5.44384 68.5725 5.36228 69.6501 5.42407C70.9799 5.50069 72.3121 5.22387 73.7011 5.29801C75.0902 5.37464 76.2049 5.31284 77.4655 5.24364C77.6558 5.23375 77.8189 5.37958 77.8288 5.5699C77.8288 5.58225 77.8288 5.59708 77.8288 5.60944C77.8164 5.81953 77.7472 6.00738 77.6261 6.17792C77.5792 6.24466 77.5693 6.31386 77.6014 6.39048C77.9499 7.25803 77.5816 8.09592 77.6607 8.99066C77.7794 10.3402 77.7967 11.7144 77.7769 13.0689C77.7349 15.9904 77.8214 18.7092 77.814 21.5318C77.814 22.2288 77.7102 22.953 77.7102 23.5932C77.7052 26.8434 77.7102 30.0936 77.725 33.3438C77.7275 33.7615 77.8115 34.5252 77.7349 35.1283C77.6879 35.4941 77.6681 35.7907 77.6805 36.0181C77.7942 38.5392 77.7151 40.9738 77.7497 43.5888C77.767 44.7851 77.7423 45.9813 77.6805 47.1751C77.6731 47.3037 77.7497 47.5113 77.7497 47.6719C77.725 54.5357 77.589 60.3218 77.3419 65.0353C77.2727 66.3724 77.0675 67.7986 76.724 69.3186C76.4471 70.552 75.9973 71.862 75.3769 73.2461C74.586 75.0059 73.7382 76.7385 72.8336 78.444C72.1366 79.7564 71.1776 80.8588 70.2433 82.0105C69.5933 82.8114 68.8641 83.5899 68.0534 84.3463C66.998 85.33 66.0168 86.331 64.8329 87.1491C62.8679 88.5085 61.5283 89.3513 60.814 89.6751C57.3734 91.2323 53.9799 92.9847 50.3886 94.2106C47.1729 95.308 43.9944 96.4722 40.8505 97.703C40.67 97.7747 40.4896 97.7747 40.3092 97.708C37.6967 96.7218 35.01 95.9062 32.3925 94.8977C29.3499 93.7262 26.1689 92.5348 21.2824 90.4413C20.5187 90.1126 19.8019 89.732 19.1321 89.2994C17.7307 88.3923 16.396 87.5545 15.1256 86.4126C14.2926 85.6612 13.4004 84.9197 12.6712 84.1436C10.4591 81.7955 8.58558 79.1212 7.04822 76.1206C6.3957 74.8477 6.00271 73.4142 5.55287 72.3069C4.4777 69.6523 4.13909 67.0596 4.13414 64.1059C4.12673 60.1513 3.96855 56.1571 4.00562 52.242C4.04022 48.7619 4.0427 45.2819 4.01304 41.8043C3.99079 39.0632 4.08471 35.8649 4.03775 32.8915C3.99821 30.4396 4.09954 27.7752 4.01798 25.9387C4.01056 25.7435 4.00809 25.5458 4.01056 25.3505C4.08718 19.6682 4.13909 13.9784 4.1638 8.27635C4.16627 7.44588 4.24043 6.69697 4.3912 5.93817C4.45052 5.6391 4.7224 5.43148 5.02641 5.44879C6.1782 5.51305 7.21629 5.68854 8.331 5.63663C9.97465 5.56248 11.5318 5.7528 13.2026 5.59461C14.4978 5.47103 15.7682 5.60697 17.0782 5.54765C17.6145 5.52293 18.1509 5.53035 18.6872 5.5699C19.5721 5.63663 20.6027 5.31284 21.4134 5.68112C21.4629 5.70089 21.5148 5.71078 21.5692 5.70337C24.7156 5.33262 27.8719 5.53035 31.0232 5.36228C31.3865 5.34498 31.7425 5.40677 32.0885 5.55259C32.1651 5.58473 32.2491 5.59461 32.3307 5.57731C33.1142 5.42407 34.4415 5.08298 35.1484 5.54518C35.2126 5.5872 35.2819 5.59708 35.3535 5.5699ZM66.3505 6.07658C66.2887 5.99502 66.1206 6.01479 65.9797 6.12355C65.8364 6.2323 65.7721 6.38554 65.8364 6.46958C65.8981 6.55114 66.0662 6.53137 66.2071 6.42261C66.3505 6.31386 66.4147 6.16062 66.3505 6.07658ZM41.0235 6.37812C41.021 6.28173 40.8801 6.21005 40.7121 6.215C40.544 6.21994 40.408 6.3015 40.4105 6.3979C40.413 6.49429 40.5539 6.56597 40.7219 6.56103C40.89 6.55608 41.026 6.47452 41.0235 6.37812ZM18.5834 6.77359C18.6921 6.74887 18.7539 6.61787 18.7243 6.47946C18.6946 6.34105 18.5809 6.24713 18.4746 6.27184C18.3659 6.29656 18.3041 6.42756 18.3338 6.56597C18.3634 6.70438 18.4771 6.7983 18.5834 6.77359ZM17.8716 86.4299C19.965 88.076 22.8593 89.1561 25.546 90.5625C26.2406 90.9258 27.5308 91.3781 29.4166 91.9194C31.609 92.5472 33.6852 93.4246 35.8726 94.1142C36.2804 94.2403 36.7253 94.4331 37.2097 94.6901C37.6719 94.9323 38.1168 95.1177 38.5469 95.2438C39.5454 95.5379 40.1634 95.9853 41.2039 95.5033C42.9118 94.7124 45.4107 94.2946 46.649 93.9041C47.7315 93.563 48.7845 93.1478 49.8077 92.6584C51.0435 92.0652 51.9754 91.6475 52.6032 91.4053C55.8608 90.1398 58.1223 88.9089 60.851 87.547C61.6568 87.1442 63.125 86.1283 65.258 84.497C66.0217 83.9137 66.7064 83.2488 67.4207 82.5939C67.9224 82.1366 68.2882 81.5805 68.748 81.0639C69.6106 80.0975 70.2705 79.0718 71.0441 78.0782C71.5558 77.4207 72.1638 76.2837 72.8731 74.6673C73.8618 72.4107 74.7986 69.9959 75.2706 67.5737C75.6538 65.5963 75.6785 63.9206 75.8811 62.0841C75.9034 61.8864 75.9083 61.6664 75.9009 61.4267C75.8095 58.9847 76.0888 56.5279 76.0739 54.0735C76.0616 52.0789 76.1703 50.0002 76.1456 48.0995C76.1159 45.9566 76.195 43.8186 76.1555 41.6757C76.1135 39.2906 76.2025 36.8931 76.2099 34.5055C76.2222 30.756 76.2272 27.009 76.2272 23.2595C76.2272 22.5155 76.2099 21.774 76.1777 21.0325C76.1357 20.0982 76.1135 19.3592 76.111 18.813C76.1036 17.3448 75.9751 15.8643 76.1209 14.4011C76.1481 14.1169 76.1604 13.882 76.158 13.7016C76.1258 12.1791 76.0715 10.7678 76.1357 9.14884C76.158 8.52352 76.1604 7.89077 76.1431 7.24814C76.1407 7.16164 76.0937 7.11715 76.0072 7.11962C73.4787 7.16658 70.9527 7.17152 68.4291 7.13198C68.0336 7.12703 67.5443 7.22837 67.1933 7.20366C65.8413 7.1122 64.2941 7.20366 63.1571 7.18141C61.7829 7.15175 60.4086 7.12456 59.0319 7.10232C54.1603 7.02322 49.5383 7.20613 44.8026 7.08007C43.9647 7.05783 43.248 7.30994 42.3953 7.1913C41.6414 7.08502 41.0111 7.05041 40.4995 7.08254C37.9957 7.24073 35.2695 7.08254 32.6224 7.2259C31.5917 7.28275 30.6228 7.29758 29.7108 7.27533C26.3988 7.1913 23.0892 7.38409 19.7772 7.38409C18.1607 7.38409 16.5393 7.33218 14.9229 7.45576C14.0479 7.52497 13.1334 7.43352 12.3153 7.48542C11.6134 7.52744 10.9732 7.59912 10.2441 7.50272C9.56188 7.41127 8.63255 7.50272 8.18518 7.49037C7.54008 7.47306 6.91228 7.48048 6.29931 7.51261C6.16831 7.52003 6.10158 7.58923 6.09663 7.72023C5.97305 10.706 5.89643 13.6818 5.8643 16.6478C5.82475 20.3133 5.79262 23.9787 5.76543 27.6442C5.76049 28.2967 5.65174 29.1296 5.67892 29.881C5.75802 31.9646 5.72094 34.0284 5.67645 36.1096C5.6542 37.1328 5.72836 38.1709 5.68634 39.1621C5.585 41.5645 5.77038 43.962 5.66657 46.3496C5.58253 48.2627 5.70117 49.973 5.68881 51.7872C5.67398 54.1328 5.75555 56.4784 5.66409 58.824C5.62208 59.9239 5.62949 61.0139 5.68386 62.0891C5.79015 64.143 5.68881 66.1747 6.18561 68.194C6.41547 69.1209 6.62804 70.0527 6.82824 70.987C7.14955 72.4725 7.82431 73.8418 8.41009 75.2382C8.64984 75.8042 8.85252 76.2368 9.02306 76.5359C10.1674 78.5329 11.339 80.226 12.5427 81.6176C14.3544 83.716 15.9486 84.9147 17.8716 86.4299ZM77.1664 8.48397C77.1021 8.39499 76.9563 8.39252 76.8352 8.47655C76.7165 8.56059 76.6721 8.70147 76.7339 8.79045C76.7981 8.87943 76.9439 8.8819 77.0651 8.79787C77.1837 8.71383 77.2282 8.57295 77.1664 8.48397ZM77.3715 47.1109C77.3468 47.0244 77.1713 46.9997 76.9761 47.054C76.7808 47.1084 76.6424 47.2221 76.6671 47.3061C76.6918 47.3926 76.8673 47.4174 77.0626 47.363C77.2579 47.3086 77.3963 47.1949 77.3715 47.1109Z"/>
</mask>
<path d="M35.3535 5.5699C36.3199 5.23128 37.3828 5.33015 38.7792 5.38452C39.5306 5.41418 40.5563 5.28813 41.4684 5.42654C42.0517 5.51305 42.4546 5.29801 43.0082 5.31284C44.8026 5.35981 46.5946 5.31532 48.3865 5.39194C48.9822 5.41665 49.5779 5.33015 50.1488 5.35733C51.6911 5.43396 53.4114 5.2906 54.7461 5.30296C56.7382 5.32026 58.7304 5.32026 60.7225 5.30296C62.3587 5.28566 64.1284 5.38947 65.8339 5.40182C66.1132 5.4043 66.4048 5.52046 66.7435 5.50069C67.7321 5.44384 68.5725 5.36228 69.6501 5.42407C70.9799 5.50069 72.3121 5.22387 73.7011 5.29801C75.0902 5.37464 76.2049 5.31284 77.4655 5.24364C77.6558 5.23375 77.8189 5.37958 77.8288 5.5699C77.8288 5.58225 77.8288 5.59708 77.8288 5.60944C77.8164 5.81953 77.7472 6.00738 77.6261 6.17792C77.5792 6.24466 77.5693 6.31386 77.6014 6.39048C77.9499 7.25803 77.5816 8.09592 77.6607 8.99066C77.7794 10.3402 77.7967 11.7144 77.7769 13.0689C77.7349 15.9904 77.8214 18.7092 77.814 21.5318C77.814 22.2288 77.7102 22.953 77.7102 23.5932C77.7052 26.8434 77.7102 30.0936 77.725 33.3438C77.7275 33.7615 77.8115 34.5252 77.7349 35.1283C77.6879 35.4941 77.6681 35.7907 77.6805 36.0181C77.7942 38.5392 77.7151 40.9738 77.7497 43.5888C77.767 44.7851 77.7423 45.9813 77.6805 47.1751C77.6731 47.3037 77.7497 47.5113 77.7497 47.6719C77.725 54.5357 77.589 60.3218 77.3419 65.0353C77.2727 66.3724 77.0675 67.7986 76.724 69.3186C76.4471 70.552 75.9973 71.862 75.3769 73.2461C74.586 75.0059 73.7382 76.7385 72.8336 78.444C72.1366 79.7564 71.1776 80.8588 70.2433 82.0105C69.5933 82.8114 68.8641 83.5899 68.0534 84.3463C66.998 85.33 66.0168 86.331 64.8329 87.1491C62.8679 88.5085 61.5283 89.3513 60.814 89.6751C57.3734 91.2323 53.9799 92.9847 50.3886 94.2106C47.1729 95.308 43.9944 96.4722 40.8505 97.703C40.67 97.7747 40.4896 97.7747 40.3092 97.708C37.6967 96.7218 35.01 95.9062 32.3925 94.8977C29.3499 93.7262 26.1689 92.5348 21.2824 90.4413C20.5187 90.1126 19.8019 89.732 19.1321 89.2994C17.7307 88.3923 16.396 87.5545 15.1256 86.4126C14.2926 85.6612 13.4004 84.9197 12.6712 84.1436C10.4591 81.7955 8.58558 79.1212 7.04822 76.1206C6.3957 74.8477 6.00271 73.4142 5.55287 72.3069C4.4777 69.6523 4.13909 67.0596 4.13414 64.1059C4.12673 60.1513 3.96855 56.1571 4.00562 52.242C4.04022 48.7619 4.0427 45.2819 4.01304 41.8043C3.99079 39.0632 4.08471 35.8649 4.03775 32.8915C3.99821 30.4396 4.09954 27.7752 4.01798 25.9387C4.01056 25.7435 4.00809 25.5458 4.01056 25.3505C4.08718 19.6682 4.13909 13.9784 4.1638 8.27635C4.16627 7.44588 4.24043 6.69697 4.3912 5.93817C4.45052 5.6391 4.7224 5.43148 5.02641 5.44879C6.1782 5.51305 7.21629 5.68854 8.331 5.63663C9.97465 5.56248 11.5318 5.7528 13.2026 5.59461C14.4978 5.47103 15.7682 5.60697 17.0782 5.54765C17.6145 5.52293 18.1509 5.53035 18.6872 5.5699C19.5721 5.63663 20.6027 5.31284 21.4134 5.68112C21.4629 5.70089 21.5148 5.71078 21.5692 5.70337C24.7156 5.33262 27.8719 5.53035 31.0232 5.36228C31.3865 5.34498 31.7425 5.40677 32.0885 5.55259C32.1651 5.58473 32.2491 5.59461 32.3307 5.57731C33.1142 5.42407 34.4415 5.08298 35.1484 5.54518C35.2126 5.5872 35.2819 5.59708 35.3535 5.5699ZM66.3505 6.07658C66.2887 5.99502 66.1206 6.01479 65.9797 6.12355C65.8364 6.2323 65.7721 6.38554 65.8364 6.46958C65.8981 6.55114 66.0662 6.53137 66.2071 6.42261C66.3505 6.31386 66.4147 6.16062 66.3505 6.07658ZM41.0235 6.37812C41.021 6.28173 40.8801 6.21005 40.7121 6.215C40.544 6.21994 40.408 6.3015 40.4105 6.3979C40.413 6.49429 40.5539 6.56597 40.7219 6.56103C40.89 6.55608 41.026 6.47452 41.0235 6.37812ZM18.5834 6.77359C18.6921 6.74887 18.7539 6.61787 18.7243 6.47946C18.6946 6.34105 18.5809 6.24713 18.4746 6.27184C18.3659 6.29656 18.3041 6.42756 18.3338 6.56597C18.3634 6.70438 18.4771 6.7983 18.5834 6.77359ZM17.8716 86.4299C19.965 88.076 22.8593 89.1561 25.546 90.5625C26.2406 90.9258 27.5308 91.3781 29.4166 91.9194C31.609 92.5472 33.6852 93.4246 35.8726 94.1142C36.2804 94.2403 36.7253 94.4331 37.2097 94.6901C37.6719 94.9323 38.1168 95.1177 38.5469 95.2438C39.5454 95.5379 40.1634 95.9853 41.2039 95.5033C42.9118 94.7124 45.4107 94.2946 46.649 93.9041C47.7315 93.563 48.7845 93.1478 49.8077 92.6584C51.0435 92.0652 51.9754 91.6475 52.6032 91.4053C55.8608 90.1398 58.1223 88.9089 60.851 87.547C61.6568 87.1442 63.125 86.1283 65.258 84.497C66.0217 83.9137 66.7064 83.2488 67.4207 82.5939C67.9224 82.1366 68.2882 81.5805 68.748 81.0639C69.6106 80.0975 70.2705 79.0718 71.0441 78.0782C71.5558 77.4207 72.1638 76.2837 72.8731 74.6673C73.8618 72.4107 74.7986 69.9959 75.2706 67.5737C75.6538 65.5963 75.6785 63.9206 75.8811 62.0841C75.9034 61.8864 75.9083 61.6664 75.9009 61.4267C75.8095 58.9847 76.0888 56.5279 76.0739 54.0735C76.0616 52.0789 76.1703 50.0002 76.1456 48.0995C76.1159 45.9566 76.195 43.8186 76.1555 41.6757C76.1135 39.2906 76.2025 36.8931 76.2099 34.5055C76.2222 30.756 76.2272 27.009 76.2272 23.2595C76.2272 22.5155 76.2099 21.774 76.1777 21.0325C76.1357 20.0982 76.1135 19.3592 76.111 18.813C76.1036 17.3448 75.9751 15.8643 76.1209 14.4011C76.1481 14.1169 76.1604 13.882 76.158 13.7016C76.1258 12.1791 76.0715 10.7678 76.1357 9.14884C76.158 8.52352 76.1604 7.89077 76.1431 7.24814C76.1407 7.16164 76.0937 7.11715 76.0072 7.11962C73.4787 7.16658 70.9527 7.17152 68.4291 7.13198C68.0336 7.12703 67.5443 7.22837 67.1933 7.20366C65.8413 7.1122 64.2941 7.20366 63.1571 7.18141C61.7829 7.15175 60.4086 7.12456 59.0319 7.10232C54.1603 7.02322 49.5383 7.20613 44.8026 7.08007C43.9647 7.05783 43.248 7.30994 42.3953 7.1913C41.6414 7.08502 41.0111 7.05041 40.4995 7.08254C37.9957 7.24073 35.2695 7.08254 32.6224 7.2259C31.5917 7.28275 30.6228 7.29758 29.7108 7.27533C26.3988 7.1913 23.0892 7.38409 19.7772 7.38409C18.1607 7.38409 16.5393 7.33218 14.9229 7.45576C14.0479 7.52497 13.1334 7.43352 12.3153 7.48542C11.6134 7.52744 10.9732 7.59912 10.2441 7.50272C9.56188 7.41127 8.63255 7.50272 8.18518 7.49037C7.54008 7.47306 6.91228 7.48048 6.29931 7.51261C6.16831 7.52003 6.10158 7.58923 6.09663 7.72023C5.97305 10.706 5.89643 13.6818 5.8643 16.6478C5.82475 20.3133 5.79262 23.9787 5.76543 27.6442C5.76049 28.2967 5.65174 29.1296 5.67892 29.881C5.75802 31.9646 5.72094 34.0284 5.67645 36.1096C5.6542 37.1328 5.72836 38.1709 5.68634 39.1621C5.585 41.5645 5.77038 43.962 5.66657 46.3496C5.58253 48.2627 5.70117 49.973 5.68881 51.7872C5.67398 54.1328 5.75555 56.4784 5.66409 58.824C5.62208 59.9239 5.62949 61.0139 5.68386 62.0891C5.79015 64.143 5.68881 66.1747 6.18561 68.194C6.41547 69.1209 6.62804 70.0527 6.82824 70.987C7.14955 72.4725 7.82431 73.8418 8.41009 75.2382C8.64984 75.8042 8.85252 76.2368 9.02306 76.5359C10.1674 78.5329 11.339 80.226 12.5427 81.6176C14.3544 83.716 15.9486 84.9147 17.8716 86.4299ZM77.1664 8.48397C77.1021 8.39499 76.9563 8.39252 76.8352 8.47655C76.7165 8.56059 76.6721 8.70147 76.7339 8.79045C76.7981 8.87943 76.9439 8.8819 77.0651 8.79787C77.1837 8.71383 77.2282 8.57295 77.1664 8.48397ZM77.3715 47.1109C77.3468 47.0244 77.1713 46.9997 76.9761 47.054C76.7808 47.1084 76.6424 47.2221 76.6671 47.3061C76.6918 47.3926 76.8673 47.4174 77.0626 47.363C77.2579 47.3086 77.3963 47.1949 77.3715 47.1109Z" fill="#EAFE01"/>
<path d="M35.3535 5.5699C36.3199 5.23128 37.3828 5.33015 38.7792 5.38452C39.5306 5.41418 40.5563 5.28813 41.4684 5.42654C42.0517 5.51305 42.4546 5.29801 43.0082 5.31284C44.8026 5.35981 46.5946 5.31532 48.3865 5.39194C48.9822 5.41665 49.5779 5.33015 50.1488 5.35733C51.6911 5.43396 53.4114 5.2906 54.7461 5.30296C56.7382 5.32026 58.7304 5.32026 60.7225 5.30296C62.3587 5.28566 64.1284 5.38947 65.8339 5.40182C66.1132 5.4043 66.4048 5.52046 66.7435 5.50069C67.7321 5.44384 68.5725 5.36228 69.6501 5.42407C70.9799 5.50069 72.3121 5.22387 73.7011 5.29801C75.0902 5.37464 76.2049 5.31284 77.4655 5.24364C77.6558 5.23375 77.8189 5.37958 77.8288 5.5699C77.8288 5.58225 77.8288 5.59708 77.8288 5.60944C77.8164 5.81953 77.7472 6.00738 77.6261 6.17792C77.5792 6.24466 77.5693 6.31386 77.6014 6.39048C77.9499 7.25803 77.5816 8.09592 77.6607 8.99066C77.7794 10.3402 77.7967 11.7144 77.7769 13.0689C77.7349 15.9904 77.8214 18.7092 77.814 21.5318C77.814 22.2288 77.7102 22.953 77.7102 23.5932C77.7052 26.8434 77.7102 30.0936 77.725 33.3438C77.7275 33.7615 77.8115 34.5252 77.7349 35.1283C77.6879 35.4941 77.6681 35.7907 77.6805 36.0181C77.7942 38.5392 77.7151 40.9738 77.7497 43.5888C77.767 44.7851 77.7423 45.9813 77.6805 47.1751C77.6731 47.3037 77.7497 47.5113 77.7497 47.6719C77.725 54.5357 77.589 60.3218 77.3419 65.0353C77.2727 66.3724 77.0675 67.7986 76.724 69.3186C76.4471 70.552 75.9973 71.862 75.3769 73.2461C74.586 75.0059 73.7382 76.7385 72.8336 78.444C72.1366 79.7564 71.1776 80.8588 70.2433 82.0105C69.5933 82.8114 68.8641 83.5899 68.0534 84.3463C66.998 85.33 66.0168 86.331 64.8329 87.1491C62.8679 88.5085 61.5283 89.3513 60.814 89.6751C57.3734 91.2323 53.9799 92.9847 50.3886 94.2106C47.1729 95.308 43.9944 96.4722 40.8505 97.703C40.67 97.7747 40.4896 97.7747 40.3092 97.708C37.6967 96.7218 35.01 95.9062 32.3925 94.8977C29.3499 93.7262 26.1689 92.5348 21.2824 90.4413C20.5187 90.1126 19.8019 89.732 19.1321 89.2994C17.7307 88.3923 16.396 87.5545 15.1256 86.4126C14.2926 85.6612 13.4004 84.9197 12.6712 84.1436C10.4591 81.7955 8.58558 79.1212 7.04822 76.1206C6.3957 74.8477 6.00271 73.4142 5.55287 72.3069C4.4777 69.6523 4.13909 67.0596 4.13414 64.1059C4.12673 60.1513 3.96855 56.1571 4.00562 52.242C4.04022 48.7619 4.0427 45.2819 4.01304 41.8043C3.99079 39.0632 4.08471 35.8649 4.03775 32.8915C3.99821 30.4396 4.09954 27.7752 4.01798 25.9387C4.01056 25.7435 4.00809 25.5458 4.01056 25.3505C4.08718 19.6682 4.13909 13.9784 4.1638 8.27635C4.16627 7.44588 4.24043 6.69697 4.3912 5.93817C4.45052 5.6391 4.7224 5.43148 5.02641 5.44879C6.1782 5.51305 7.21629 5.68854 8.331 5.63663C9.97465 5.56248 11.5318 5.7528 13.2026 5.59461C14.4978 5.47103 15.7682 5.60697 17.0782 5.54765C17.6145 5.52293 18.1509 5.53035 18.6872 5.5699C19.5721 5.63663 20.6027 5.31284 21.4134 5.68112C21.4629 5.70089 21.5148 5.71078 21.5692 5.70337C24.7156 5.33262 27.8719 5.53035 31.0232 5.36228C31.3865 5.34498 31.7425 5.40677 32.0885 5.55259C32.1651 5.58473 32.2491 5.59461 32.3307 5.57731C33.1142 5.42407 34.4415 5.08298 35.1484 5.54518C35.2126 5.5872 35.2819 5.59708 35.3535 5.5699ZM66.3505 6.07658C66.2887 5.99502 66.1206 6.01479 65.9797 6.12355C65.8364 6.2323 65.7721 6.38554 65.8364 6.46958C65.8981 6.55114 66.0662 6.53137 66.2071 6.42261C66.3505 6.31386 66.4147 6.16062 66.3505 6.07658ZM41.0235 6.37812C41.021 6.28173 40.8801 6.21005 40.7121 6.215C40.544 6.21994 40.408 6.3015 40.4105 6.3979C40.413 6.49429 40.5539 6.56597 40.7219 6.56103C40.89 6.55608 41.026 6.47452 41.0235 6.37812ZM18.5834 6.77359C18.6921 6.74887 18.7539 6.61787 18.7243 6.47946C18.6946 6.34105 18.5809 6.24713 18.4746 6.27184C18.3659 6.29656 18.3041 6.42756 18.3338 6.56597C18.3634 6.70438 18.4771 6.7983 18.5834 6.77359ZM17.8716 86.4299C19.965 88.076 22.8593 89.1561 25.546 90.5625C26.2406 90.9258 27.5308 91.3781 29.4166 91.9194C31.609 92.5472 33.6852 93.4246 35.8726 94.1142C36.2804 94.2403 36.7253 94.4331 37.2097 94.6901C37.6719 94.9323 38.1168 95.1177 38.5469 95.2438C39.5454 95.5379 40.1634 95.9853 41.2039 95.5033C42.9118 94.7124 45.4107 94.2946 46.649 93.9041C47.7315 93.563 48.7845 93.1478 49.8077 92.6584C51.0435 92.0652 51.9754 91.6475 52.6032 91.4053C55.8608 90.1398 58.1223 88.9089 60.851 87.547C61.6568 87.1442 63.125 86.1283 65.258 84.497C66.0217 83.9137 66.7064 83.2488 67.4207 82.5939C67.9224 82.1366 68.2882 81.5805 68.748 81.0639C69.6106 80.0975 70.2705 79.0718 71.0441 78.0782C71.5558 77.4207 72.1638 76.2837 72.8731 74.6673C73.8618 72.4107 74.7986 69.9959 75.2706 67.5737C75.6538 65.5963 75.6785 63.9206 75.8811 62.0841C75.9034 61.8864 75.9083 61.6664 75.9009 61.4267C75.8095 58.9847 76.0888 56.5279 76.0739 54.0735C76.0616 52.0789 76.1703 50.0002 76.1456 48.0995C76.1159 45.9566 76.195 43.8186 76.1555 41.6757C76.1135 39.2906 76.2025 36.8931 76.2099 34.5055C76.2222 30.756 76.2272 27.009 76.2272 23.2595C76.2272 22.5155 76.2099 21.774 76.1777 21.0325C76.1357 20.0982 76.1135 19.3592 76.111 18.813C76.1036 17.3448 75.9751 15.8643 76.1209 14.4011C76.1481 14.1169 76.1604 13.882 76.158 13.7016C76.1258 12.1791 76.0715 10.7678 76.1357 9.14884C76.158 8.52352 76.1604 7.89077 76.1431 7.24814C76.1407 7.16164 76.0937 7.11715 76.0072 7.11962C73.4787 7.16658 70.9527 7.17152 68.4291 7.13198C68.0336 7.12703 67.5443 7.22837 67.1933 7.20366C65.8413 7.1122 64.2941 7.20366 63.1571 7.18141C61.7829 7.15175 60.4086 7.12456 59.0319 7.10232C54.1603 7.02322 49.5383 7.20613 44.8026 7.08007C43.9647 7.05783 43.248 7.30994 42.3953 7.1913C41.6414 7.08502 41.0111 7.05041 40.4995 7.08254C37.9957 7.24073 35.2695 7.08254 32.6224 7.2259C31.5917 7.28275 30.6228 7.29758 29.7108 7.27533C26.3988 7.1913 23.0892 7.38409 19.7772 7.38409C18.1607 7.38409 16.5393 7.33218 14.9229 7.45576C14.0479 7.52497 13.1334 7.43352 12.3153 7.48542C11.6134 7.52744 10.9732 7.59912 10.2441 7.50272C9.56188 7.41127 8.63255 7.50272 8.18518 7.49037C7.54008 7.47306 6.91228 7.48048 6.29931 7.51261C6.16831 7.52003 6.10158 7.58923 6.09663 7.72023C5.97305 10.706 5.89643 13.6818 5.8643 16.6478C5.82475 20.3133 5.79262 23.9787 5.76543 27.6442C5.76049 28.2967 5.65174 29.1296 5.67892 29.881C5.75802 31.9646 5.72094 34.0284 5.67645 36.1096C5.6542 37.1328 5.72836 38.1709 5.68634 39.1621C5.585 41.5645 5.77038 43.962 5.66657 46.3496C5.58253 48.2627 5.70117 49.973 5.68881 51.7872C5.67398 54.1328 5.75555 56.4784 5.66409 58.824C5.62208 59.9239 5.62949 61.0139 5.68386 62.0891C5.79015 64.143 5.68881 66.1747 6.18561 68.194C6.41547 69.1209 6.62804 70.0527 6.82824 70.987C7.14955 72.4725 7.82431 73.8418 8.41009 75.2382C8.64984 75.8042 8.85252 76.2368 9.02306 76.5359C10.1674 78.5329 11.339 80.226 12.5427 81.6176C14.3544 83.716 15.9486 84.9147 17.8716 86.4299ZM77.1664 8.48397C77.1021 8.39499 76.9563 8.39252 76.8352 8.47655C76.7165 8.56059 76.6721 8.70147 76.7339 8.79045C76.7981 8.87943 76.9439 8.8819 77.0651 8.79787C77.1837 8.71383 77.2282 8.57295 77.1664 8.48397ZM77.3715 47.1109C77.3468 47.0244 77.1713 46.9997 76.9761 47.054C76.7808 47.1084 76.6424 47.2221 76.6671 47.3061C76.6918 47.3926 76.8673 47.4174 77.0626 47.363C77.2579 47.3086 77.3963 47.1949 77.3715 47.1109Z" stroke="#EAFE01" stroke-width="6" mask="url(#path-1-outside-1_192_328)"/>
<mask id="path-2-outside-2_192_328" maskUnits="userSpaceOnUse" x="11.1055" y="13.043" width="60" height="77" fill="black">
<rect fill="white" x="11.1055" y="13.043" width="60" height="77"/>
<path d="M16.5267 46.0898C14.8188 44.8391 13.835 44.0383 14.5444 41.7174C14.9596 40.3605 15.2315 39.3348 16.3907 38.4128C16.4476 38.3684 16.4574 38.2868 16.413 38.2299C16.4031 38.2176 16.3932 38.2102 16.3808 38.2003C15.6294 37.706 15.0264 37.0856 14.5716 36.3391C14.3417 35.9659 14.2206 35.5383 14.2083 35.0588C14.1687 33.776 14.8014 32.1176 15.8692 31.3563C15.9433 31.3044 15.9508 31.2426 15.8939 31.1734C15.4268 30.5975 15.0437 29.9821 14.7397 29.3271C14.3096 28.3977 14.2107 26.544 14.5839 25.5776C14.9127 24.7249 15.1623 24.0031 16.015 23.5632C16.1732 23.4816 16.1757 23.3951 16.0224 23.3037C14.9423 22.6586 14.6754 22.053 14.4085 20.6714C13.9957 18.5482 15.3452 17.7499 16.6453 16.519C17.0506 16.1334 18.0764 16.5536 18.6177 16.6352C20.0735 16.8527 21.1758 17.4632 22.0384 18.6866C22.1027 18.7781 22.2287 18.8003 22.3202 18.7361C22.3301 18.7286 22.34 18.7212 22.3499 18.7113C23.2347 17.7795 23.949 17.0158 25.175 16.5363C26.6901 15.9456 28.917 16.9837 29.9823 18.0366C30.2023 18.2541 30.405 18.2393 30.5953 17.9946C31.3467 17.0133 32.4762 16.1285 33.7664 16.0469C34.1989 16.0197 34.6735 16.1334 35.195 16.388C36.0576 16.8106 36.8411 17.3297 37.5431 17.9476C37.6592 18.0514 37.8372 18.0489 37.9509 17.9402C38.6059 17.3074 39.5599 16.4572 40.4497 16.3509C41.5373 16.2199 42.3084 16.0766 43.4033 16.6648C44.1547 17.0677 44.8419 17.7375 45.5833 18.2442C45.702 18.3258 45.8602 18.3134 45.964 18.217C46.6091 17.6213 47.18 16.9713 48.055 16.8131C49.7876 16.4992 51.5894 17.2654 52.8006 18.479C52.8747 18.5532 52.9958 18.5532 53.0675 18.479C53.0799 18.4666 53.0873 18.4543 53.0972 18.4419C53.3072 18.091 53.5371 17.7425 53.7892 17.3964C54.2218 16.8032 56.1027 16.5907 56.812 16.4448C57.0271 16.4003 57.2866 16.4943 57.5931 16.7266C57.6549 16.7711 57.7265 16.7983 57.8032 16.8057C58.8042 16.8873 59.2812 17.3865 59.9782 17.9105C60.087 17.9921 60.2402 17.9748 60.3267 17.8685C60.9867 17.0504 61.8542 16.5486 62.9343 16.3633C64.4049 16.1087 66.1845 17.2728 66.7654 18.6125C67.3116 19.873 67.2127 21.1014 66.4737 22.3002C66.1648 22.8019 65.6235 23.2394 65.1934 23.6843C65.1143 23.7659 65.1168 23.8944 65.1959 23.9735C65.2008 23.9784 65.2082 23.9858 65.2156 23.9908C66.3106 24.8509 67.0718 25.9805 67.0397 27.4338C67.0175 28.4694 66.7703 29.4605 66.3007 30.4072C66.0782 30.8545 65.6877 31.124 65.3293 31.465C65.2577 31.5342 65.2478 31.6479 65.3096 31.727C66.8593 33.6945 67.0101 35.044 66.365 37.397C66.1919 38.0297 65.8286 38.3758 65.4035 38.8306C65.0525 39.2038 65.2404 39.4781 65.5592 39.797C66.6591 40.8894 66.9606 42.3082 66.5454 43.7862C66.229 44.9158 65.9596 45.8006 64.9487 46.5915C64.8498 46.6681 64.8498 46.7472 64.9462 46.8288C65.668 47.422 66.187 48.2006 66.5058 49.162C67.2325 51.3618 66.4465 52.7484 65.0797 54.3822C65.0327 54.439 65.0402 54.523 65.0921 54.5725C66.3205 55.702 67.4352 57.6818 66.8099 59.3502C66.3402 60.6008 65.8608 61.6117 64.6867 62.3236C64.5804 62.3878 64.5483 62.5262 64.6126 62.635C64.62 62.6449 64.6274 62.6548 64.6348 62.6647C66.1054 64.3627 66.0807 66.4809 64.9092 68.3272C64.615 68.7869 64.4173 69.0736 64.3135 69.1849C63.8216 69.7187 63.2779 69.6668 62.655 69.9165C62.571 69.9511 62.5364 70.0129 62.5537 70.1018C62.6328 70.5418 62.7119 70.9743 62.7934 71.4019C63.1246 73.1593 61.7479 74.9908 60.2748 75.7842C59.9609 75.9522 59.2565 76.0486 58.1665 76.0733C58.0825 76.0733 58.0108 76.1376 58.0009 76.2216C57.7562 78.1199 56.7379 79.4817 55.5243 80.4926C54.7309 81.1526 52.5485 80.6953 51.587 80.248C51.4214 80.1713 51.3225 80.2232 51.2953 80.4037C51.1619 81.2416 50.2795 82.3933 49.9779 82.732C49.2636 83.5377 48.228 83.9678 46.8661 84.0197C46.4731 84.037 45.7341 83.8862 44.6491 83.5723C44.5626 83.5476 44.5008 83.5748 44.4612 83.6564C43.3935 85.8462 41.3395 86.6298 38.9643 86.0341C37.7729 85.7375 36.8535 85.0677 36.4185 83.8887C36.3715 83.7651 36.2331 83.6984 36.1071 83.7429C35.0121 84.1186 33.4154 84.6351 32.3304 84.1111C30.9685 83.4512 30.1281 82.4255 29.8118 81.0315C29.7673 80.8313 29.5671 80.7027 29.3644 80.7472C29.352 80.7497 29.3397 80.7522 29.3298 80.7571C28.8305 80.9178 28.4375 81.118 27.8987 81.0858C27.1152 81.0364 26.3836 81.1822 25.6816 80.767C24.0726 79.8179 23.0839 78.4437 22.7181 76.6468C22.6242 76.187 22.4265 76.0956 21.9593 76.0659C20.7581 75.9893 19.4259 75.9646 18.8376 74.6793C18.6473 74.2616 18.4966 74.1504 18.1209 73.9551C18.0492 73.9181 17.9899 73.8587 17.9503 73.7871C17.2558 72.4845 17.283 70.9101 17.6513 69.5086C17.6859 69.3776 17.6438 69.2763 17.5252 69.2096C16.0916 68.4236 14.888 66.3524 14.9547 64.7211C14.9992 63.5742 15.187 62.6375 16.2399 62.1036C16.2844 62.0813 16.3017 62.0294 16.282 61.9849C16.277 61.9726 16.2671 61.9627 16.2548 61.9528C15.2241 61.1545 14.5271 60.1189 14.1638 58.8484C13.84 57.7115 14.9399 55.5265 15.622 54.8073C15.9186 54.4934 16.1436 54.2512 16.2943 54.0831C16.3759 53.9916 16.3586 53.9299 16.2375 53.9002C15.36 53.6802 14.8855 53.1241 14.8138 52.2318C14.8064 52.1503 14.7792 52.0736 14.7347 52.0069C13.9907 50.9021 13.9685 49.8022 14.6185 48.6034C15.1623 47.5975 15.3971 47.0315 16.5242 46.2752C16.6132 46.2134 16.6132 46.1516 16.5267 46.0898ZM59.6965 20.2166C59.39 19.5319 59.5358 19.0005 58.7696 18.5334C57.9119 18.0119 57.0889 17.5398 56.1002 17.6436C55.1289 17.7449 54.3651 18.2615 53.9845 19.1735C53.8362 19.5369 53.6533 20.2611 53.2702 20.4267C53.0799 20.5082 52.8599 20.4267 52.766 20.2438C52.242 19.1983 51.278 18.5235 50.2004 18.1008C48.9621 17.6164 47.84 17.8512 46.8291 18.8077C46.2952 19.312 46.0085 20.9408 45.0346 20.397C44.958 20.355 44.9111 20.2907 44.8888 20.2042C44.7726 19.7148 44.7059 19.2946 44.3352 18.9165C43.2674 17.8191 42.2936 17.2803 40.8675 17.3989C39.293 17.5299 38.4873 18.5284 38.1017 19.9917C37.9855 20.439 37.6938 20.5774 37.2292 20.4044C37.1624 20.3797 37.1105 20.3278 37.0834 20.2635C36.9079 19.8532 36.7892 19.3713 36.5841 19.0327C35.2716 16.8724 32.454 16.9614 31.1217 19.1068C31.0822 19.1686 31.0624 19.2378 31.0599 19.3144C31.0476 19.92 30.8029 20.4143 30.3209 20.7974C30.1207 20.9581 29.8315 20.9259 29.6709 20.7257C29.6041 20.6417 29.5671 20.5379 29.5695 20.4316C29.5794 19.4355 29.7228 19.1958 28.8206 18.6248C27.4217 17.7375 25.9832 17.5423 24.5076 18.0415C23.7216 18.3085 22.7676 20.1696 22.4932 20.8666C22.3869 21.1336 22.0854 21.267 21.816 21.1607C21.7839 21.1484 21.7517 21.1311 21.7221 21.1113C21.5293 20.9853 21.3933 20.7875 21.3142 20.5206C21.0127 19.5072 21.119 19.0203 20.113 18.3134C19.2801 17.7276 18.4224 17.4879 17.54 17.5892C15.7407 17.7993 15.1153 20.0386 15.753 21.5043C16.2795 22.7105 18.1011 22.5745 18.5336 23.3655C18.6325 23.5459 18.5658 23.7733 18.3853 23.8721C18.3754 23.8771 18.3656 23.882 18.3557 23.887C16.5563 24.6557 15.7258 25.145 15.5108 27.2534C15.2982 29.3444 16.4377 29.8782 18.1851 30.2267C18.457 30.2836 18.6424 30.5382 18.6078 30.815C18.5386 31.3687 18.0121 31.5614 17.4659 31.6949C16.4525 31.9396 15.8272 32.6119 15.5924 33.7118C15.2884 35.1305 15.3279 36.5344 16.6947 37.1844C17.1816 37.4168 18.2815 37.8295 18.5954 38.2448C18.7437 38.44 18.7042 38.7193 18.5089 38.8676C18.4743 38.8923 18.4372 38.9146 18.3952 38.9294C17.5227 39.2507 16.885 39.3298 16.3635 40.2097C15.6838 41.3541 15.4515 42.5603 15.664 43.8258C15.842 44.9034 17.0506 45.2667 18.1975 45.7907C18.4224 45.8921 18.5336 46.0181 18.5336 46.1664C18.5336 46.3864 18.4372 46.5792 18.2815 46.6681C16.8183 47.5135 16.0941 47.9509 15.5083 49.6292C15.2908 50.252 15.4861 50.8304 15.5331 51.478C15.5652 51.9056 15.6715 52.2368 15.8494 52.474C16.3907 53.1908 17.5549 53.438 18.2914 53.9027C18.4323 53.9916 18.4743 54.1745 18.3853 54.3154C18.3656 54.3451 18.3433 54.3723 18.3161 54.392C17.7897 54.8048 17.1693 55.0495 16.7392 55.487C16.0645 56.1741 15.365 56.9403 15.3724 57.9636C15.3848 59.8396 16.3116 61.0853 18.1579 61.7032C18.2395 61.7304 18.2988 61.7847 18.3334 61.8638C18.4916 62.2099 18.2346 62.4298 17.9182 62.5608C16.9666 62.9563 16.3092 63.1615 16.2795 64.3256C16.2424 65.8457 16.7516 67.1532 17.8094 68.2481C17.9083 68.3494 18.0517 68.3915 18.1851 68.3569C18.7215 68.2209 19.2603 68.2011 19.8041 68.3025C19.8856 68.3198 19.9449 68.3643 19.9845 68.436C20.1649 68.777 20.1155 69.0341 19.8313 69.2096C19.2208 69.5853 18.8698 70.0475 18.7783 70.5937C18.5831 71.7232 18.6473 73.2211 19.5124 74.0861C20.7359 75.3096 22.0112 75.4282 23.341 74.4371C23.5041 74.316 23.734 74.3506 23.8576 74.5137C23.9144 74.5904 23.9391 74.6867 23.9268 74.7831C23.5288 77.801 25.39 80.7126 28.7885 79.719C29.315 79.5633 29.5424 79.2148 29.8686 78.8095C30.1034 78.5178 30.3382 78.4807 30.573 78.6958C30.6521 78.7674 30.6917 78.8712 30.6818 78.9751C30.5112 80.6854 31.1909 81.113 32.056 82.3662C32.5504 83.0805 33.2943 83.3375 34.2854 83.1348C35.6968 82.8457 35.9563 82.2401 36.8164 81.2638C36.8683 81.2045 36.9351 81.1798 37.0117 81.1921C37.4442 81.2465 37.6889 81.4739 37.7433 81.8768C37.7581 81.9905 37.7235 82.1066 37.6444 82.1907L37.3775 82.4848C37.3132 82.5565 37.2934 82.6405 37.3206 82.732C37.459 83.2016 37.5184 83.7429 37.8051 84.1087C38.2821 84.7241 38.9742 84.8403 39.6786 85.0528C40.1482 85.1937 41.4137 85.1468 41.8561 84.9317C42.4518 84.6425 42.8571 84.1804 43.0672 83.5451C43.2501 82.994 43.1463 82.3711 43.2204 81.8372C43.3391 80.9647 43.6011 80.9202 44.0064 81.7013C45.1261 83.8566 49.9211 82.6875 50.1584 80.2356C50.1781 80.0354 50.1534 79.5856 50.0842 78.8886C50.0768 78.8119 50.104 78.7501 50.1658 78.7032C50.4525 78.4881 50.717 78.4486 50.9617 78.5845C52.4372 79.4175 54.0611 79.9884 55.4798 78.9058C56.728 77.9518 57.0765 76.7654 56.5303 75.3442C56.3968 74.9982 56.3424 74.6274 56.5278 74.3407C56.6118 74.2122 56.7799 74.1652 56.9183 74.2344C57.3558 74.4544 57.7438 74.7164 58.2184 74.7757C61.4241 75.1737 62.6822 71.7801 60.7617 69.4988C60.5986 69.306 60.6208 69.0168 60.8161 68.8537C60.8186 68.8512 60.8235 68.8487 60.826 68.8438C61.6318 68.1962 63.179 69.1676 63.876 68.0009C65.1118 65.9346 64.8301 64.2317 63.0307 62.892C62.7218 62.6622 62.4375 62.3582 62.4869 62.0023C62.5908 61.241 64.1355 61.33 64.6917 60.801C65.8311 59.7209 66.0906 58.3936 65.4678 56.8143C65.0772 55.8281 64.1949 55.4623 63.1642 54.9828C62.786 54.8073 62.6822 54.4934 62.8552 54.0411C62.8824 53.9694 62.9318 53.9224 63.0035 53.8952C63.5621 53.6926 64.0243 53.6679 64.4445 53.1538C65.1786 52.2615 65.579 51.2802 65.6457 50.215C65.7471 48.6158 64.5557 48.6529 63.6882 47.8125C63.3471 47.4813 63.006 47.1921 62.6649 46.945C62.4474 46.7868 62.398 46.4828 62.5562 46.2653C62.6155 46.1837 62.697 46.1219 62.7934 46.0898C63.226 45.9415 63.6956 45.7784 64.2023 45.5979C64.8029 45.3854 65.1514 44.3053 65.3417 43.7911C66.0436 41.8855 64.9314 40.358 63.1864 39.6363C63.0282 39.572 62.9244 39.4188 62.9195 39.2483C62.9121 38.8849 63.0159 38.5686 63.2359 38.2942C63.2878 38.2275 63.3644 38.1879 63.4484 38.1855C63.9551 38.1657 64.3209 38.0989 64.6595 37.6837C65.7545 36.3441 66.0832 33.9268 64.4445 32.7429C64.0268 32.4413 63.6289 32.1868 63.2482 31.9767C63.0258 31.8556 62.9442 31.5763 63.0653 31.3513C63.1123 31.2673 63.1839 31.1981 63.2729 31.1561C64.2171 30.7062 65.181 30.3404 65.5666 29.2752C65.9497 28.2222 66.2265 26.2523 65.2478 25.3947C64.5804 24.8089 63.8266 24.3986 62.9887 24.1687C62.7737 24.1094 62.6377 23.8969 62.6773 23.6769C62.8132 22.9379 63.6906 22.8514 64.2863 22.7105C65.4653 22.4312 65.6136 21.838 65.967 20.7331C66.2315 19.9126 65.9423 18.7138 65.2033 18.2047C63.6511 17.1295 62.2769 17.2209 61.0806 18.4765C60.5195 19.0673 60.8211 19.8804 60.4305 20.3031C60.2872 20.4588 60.0944 20.4835 59.8546 20.3772C59.783 20.3451 59.7286 20.2907 59.6965 20.2166Z"/>
</mask>
<path d="M16.5267 46.0898C14.8188 44.8391 13.835 44.0383 14.5444 41.7174C14.9596 40.3605 15.2315 39.3348 16.3907 38.4128C16.4476 38.3684 16.4574 38.2868 16.413 38.2299C16.4031 38.2176 16.3932 38.2102 16.3808 38.2003C15.6294 37.706 15.0264 37.0856 14.5716 36.3391C14.3417 35.9659 14.2206 35.5383 14.2083 35.0588C14.1687 33.776 14.8014 32.1176 15.8692 31.3563C15.9433 31.3044 15.9508 31.2426 15.8939 31.1734C15.4268 30.5975 15.0437 29.9821 14.7397 29.3271C14.3096 28.3977 14.2107 26.544 14.5839 25.5776C14.9127 24.7249 15.1623 24.0031 16.015 23.5632C16.1732 23.4816 16.1757 23.3951 16.0224 23.3037C14.9423 22.6586 14.6754 22.053 14.4085 20.6714C13.9957 18.5482 15.3452 17.7499 16.6453 16.519C17.0506 16.1334 18.0764 16.5536 18.6177 16.6352C20.0735 16.8527 21.1758 17.4632 22.0384 18.6866C22.1027 18.7781 22.2287 18.8003 22.3202 18.7361C22.3301 18.7286 22.34 18.7212 22.3499 18.7113C23.2347 17.7795 23.949 17.0158 25.175 16.5363C26.6901 15.9456 28.917 16.9837 29.9823 18.0366C30.2023 18.2541 30.405 18.2393 30.5953 17.9946C31.3467 17.0133 32.4762 16.1285 33.7664 16.0469C34.1989 16.0197 34.6735 16.1334 35.195 16.388C36.0576 16.8106 36.8411 17.3297 37.5431 17.9476C37.6592 18.0514 37.8372 18.0489 37.9509 17.9402C38.6059 17.3074 39.5599 16.4572 40.4497 16.3509C41.5373 16.2199 42.3084 16.0766 43.4033 16.6648C44.1547 17.0677 44.8419 17.7375 45.5833 18.2442C45.702 18.3258 45.8602 18.3134 45.964 18.217C46.6091 17.6213 47.18 16.9713 48.055 16.8131C49.7876 16.4992 51.5894 17.2654 52.8006 18.479C52.8747 18.5532 52.9958 18.5532 53.0675 18.479C53.0799 18.4666 53.0873 18.4543 53.0972 18.4419C53.3072 18.091 53.5371 17.7425 53.7892 17.3964C54.2218 16.8032 56.1027 16.5907 56.812 16.4448C57.0271 16.4003 57.2866 16.4943 57.5931 16.7266C57.6549 16.7711 57.7265 16.7983 57.8032 16.8057C58.8042 16.8873 59.2812 17.3865 59.9782 17.9105C60.087 17.9921 60.2402 17.9748 60.3267 17.8685C60.9867 17.0504 61.8542 16.5486 62.9343 16.3633C64.4049 16.1087 66.1845 17.2728 66.7654 18.6125C67.3116 19.873 67.2127 21.1014 66.4737 22.3002C66.1648 22.8019 65.6235 23.2394 65.1934 23.6843C65.1143 23.7659 65.1168 23.8944 65.1959 23.9735C65.2008 23.9784 65.2082 23.9858 65.2156 23.9908C66.3106 24.8509 67.0718 25.9805 67.0397 27.4338C67.0175 28.4694 66.7703 29.4605 66.3007 30.4072C66.0782 30.8545 65.6877 31.124 65.3293 31.465C65.2577 31.5342 65.2478 31.6479 65.3096 31.727C66.8593 33.6945 67.0101 35.044 66.365 37.397C66.1919 38.0297 65.8286 38.3758 65.4035 38.8306C65.0525 39.2038 65.2404 39.4781 65.5592 39.797C66.6591 40.8894 66.9606 42.3082 66.5454 43.7862C66.229 44.9158 65.9596 45.8006 64.9487 46.5915C64.8498 46.6681 64.8498 46.7472 64.9462 46.8288C65.668 47.422 66.187 48.2006 66.5058 49.162C67.2325 51.3618 66.4465 52.7484 65.0797 54.3822C65.0327 54.439 65.0402 54.523 65.0921 54.5725C66.3205 55.702 67.4352 57.6818 66.8099 59.3502C66.3402 60.6008 65.8608 61.6117 64.6867 62.3236C64.5804 62.3878 64.5483 62.5262 64.6126 62.635C64.62 62.6449 64.6274 62.6548 64.6348 62.6647C66.1054 64.3627 66.0807 66.4809 64.9092 68.3272C64.615 68.7869 64.4173 69.0736 64.3135 69.1849C63.8216 69.7187 63.2779 69.6668 62.655 69.9165C62.571 69.9511 62.5364 70.0129 62.5537 70.1018C62.6328 70.5418 62.7119 70.9743 62.7934 71.4019C63.1246 73.1593 61.7479 74.9908 60.2748 75.7842C59.9609 75.9522 59.2565 76.0486 58.1665 76.0733C58.0825 76.0733 58.0108 76.1376 58.0009 76.2216C57.7562 78.1199 56.7379 79.4817 55.5243 80.4926C54.7309 81.1526 52.5485 80.6953 51.587 80.248C51.4214 80.1713 51.3225 80.2232 51.2953 80.4037C51.1619 81.2416 50.2795 82.3933 49.9779 82.732C49.2636 83.5377 48.228 83.9678 46.8661 84.0197C46.4731 84.037 45.7341 83.8862 44.6491 83.5723C44.5626 83.5476 44.5008 83.5748 44.4612 83.6564C43.3935 85.8462 41.3395 86.6298 38.9643 86.0341C37.7729 85.7375 36.8535 85.0677 36.4185 83.8887C36.3715 83.7651 36.2331 83.6984 36.1071 83.7429C35.0121 84.1186 33.4154 84.6351 32.3304 84.1111C30.9685 83.4512 30.1281 82.4255 29.8118 81.0315C29.7673 80.8313 29.5671 80.7027 29.3644 80.7472C29.352 80.7497 29.3397 80.7522 29.3298 80.7571C28.8305 80.9178 28.4375 81.118 27.8987 81.0858C27.1152 81.0364 26.3836 81.1822 25.6816 80.767C24.0726 79.8179 23.0839 78.4437 22.7181 76.6468C22.6242 76.187 22.4265 76.0956 21.9593 76.0659C20.7581 75.9893 19.4259 75.9646 18.8376 74.6793C18.6473 74.2616 18.4966 74.1504 18.1209 73.9551C18.0492 73.9181 17.9899 73.8587 17.9503 73.7871C17.2558 72.4845 17.283 70.9101 17.6513 69.5086C17.6859 69.3776 17.6438 69.2763 17.5252 69.2096C16.0916 68.4236 14.888 66.3524 14.9547 64.7211C14.9992 63.5742 15.187 62.6375 16.2399 62.1036C16.2844 62.0813 16.3017 62.0294 16.282 61.9849C16.277 61.9726 16.2671 61.9627 16.2548 61.9528C15.2241 61.1545 14.5271 60.1189 14.1638 58.8484C13.84 57.7115 14.9399 55.5265 15.622 54.8073C15.9186 54.4934 16.1436 54.2512 16.2943 54.0831C16.3759 53.9916 16.3586 53.9299 16.2375 53.9002C15.36 53.6802 14.8855 53.1241 14.8138 52.2318C14.8064 52.1503 14.7792 52.0736 14.7347 52.0069C13.9907 50.9021 13.9685 49.8022 14.6185 48.6034C15.1623 47.5975 15.3971 47.0315 16.5242 46.2752C16.6132 46.2134 16.6132 46.1516 16.5267 46.0898ZM59.6965 20.2166C59.39 19.5319 59.5358 19.0005 58.7696 18.5334C57.9119 18.0119 57.0889 17.5398 56.1002 17.6436C55.1289 17.7449 54.3651 18.2615 53.9845 19.1735C53.8362 19.5369 53.6533 20.2611 53.2702 20.4267C53.0799 20.5082 52.8599 20.4267 52.766 20.2438C52.242 19.1983 51.278 18.5235 50.2004 18.1008C48.9621 17.6164 47.84 17.8512 46.8291 18.8077C46.2952 19.312 46.0085 20.9408 45.0346 20.397C44.958 20.355 44.9111 20.2907 44.8888 20.2042C44.7726 19.7148 44.7059 19.2946 44.3352 18.9165C43.2674 17.8191 42.2936 17.2803 40.8675 17.3989C39.293 17.5299 38.4873 18.5284 38.1017 19.9917C37.9855 20.439 37.6938 20.5774 37.2292 20.4044C37.1624 20.3797 37.1105 20.3278 37.0834 20.2635C36.9079 19.8532 36.7892 19.3713 36.5841 19.0327C35.2716 16.8724 32.454 16.9614 31.1217 19.1068C31.0822 19.1686 31.0624 19.2378 31.0599 19.3144C31.0476 19.92 30.8029 20.4143 30.3209 20.7974C30.1207 20.9581 29.8315 20.9259 29.6709 20.7257C29.6041 20.6417 29.5671 20.5379 29.5695 20.4316C29.5794 19.4355 29.7228 19.1958 28.8206 18.6248C27.4217 17.7375 25.9832 17.5423 24.5076 18.0415C23.7216 18.3085 22.7676 20.1696 22.4932 20.8666C22.3869 21.1336 22.0854 21.267 21.816 21.1607C21.7839 21.1484 21.7517 21.1311 21.7221 21.1113C21.5293 20.9853 21.3933 20.7875 21.3142 20.5206C21.0127 19.5072 21.119 19.0203 20.113 18.3134C19.2801 17.7276 18.4224 17.4879 17.54 17.5892C15.7407 17.7993 15.1153 20.0386 15.753 21.5043C16.2795 22.7105 18.1011 22.5745 18.5336 23.3655C18.6325 23.5459 18.5658 23.7733 18.3853 23.8721C18.3754 23.8771 18.3656 23.882 18.3557 23.887C16.5563 24.6557 15.7258 25.145 15.5108 27.2534C15.2982 29.3444 16.4377 29.8782 18.1851 30.2267C18.457 30.2836 18.6424 30.5382 18.6078 30.815C18.5386 31.3687 18.0121 31.5614 17.4659 31.6949C16.4525 31.9396 15.8272 32.6119 15.5924 33.7118C15.2884 35.1305 15.3279 36.5344 16.6947 37.1844C17.1816 37.4168 18.2815 37.8295 18.5954 38.2448C18.7437 38.44 18.7042 38.7193 18.5089 38.8676C18.4743 38.8923 18.4372 38.9146 18.3952 38.9294C17.5227 39.2507 16.885 39.3298 16.3635 40.2097C15.6838 41.3541 15.4515 42.5603 15.664 43.8258C15.842 44.9034 17.0506 45.2667 18.1975 45.7907C18.4224 45.8921 18.5336 46.0181 18.5336 46.1664C18.5336 46.3864 18.4372 46.5792 18.2815 46.6681C16.8183 47.5135 16.0941 47.9509 15.5083 49.6292C15.2908 50.252 15.4861 50.8304 15.5331 51.478C15.5652 51.9056 15.6715 52.2368 15.8494 52.474C16.3907 53.1908 17.5549 53.438 18.2914 53.9027C18.4323 53.9916 18.4743 54.1745 18.3853 54.3154C18.3656 54.3451 18.3433 54.3723 18.3161 54.392C17.7897 54.8048 17.1693 55.0495 16.7392 55.487C16.0645 56.1741 15.365 56.9403 15.3724 57.9636C15.3848 59.8396 16.3116 61.0853 18.1579 61.7032C18.2395 61.7304 18.2988 61.7847 18.3334 61.8638C18.4916 62.2099 18.2346 62.4298 17.9182 62.5608C16.9666 62.9563 16.3092 63.1615 16.2795 64.3256C16.2424 65.8457 16.7516 67.1532 17.8094 68.2481C17.9083 68.3494 18.0517 68.3915 18.1851 68.3569C18.7215 68.2209 19.2603 68.2011 19.8041 68.3025C19.8856 68.3198 19.9449 68.3643 19.9845 68.436C20.1649 68.777 20.1155 69.0341 19.8313 69.2096C19.2208 69.5853 18.8698 70.0475 18.7783 70.5937C18.5831 71.7232 18.6473 73.2211 19.5124 74.0861C20.7359 75.3096 22.0112 75.4282 23.341 74.4371C23.5041 74.316 23.734 74.3506 23.8576 74.5137C23.9144 74.5904 23.9391 74.6867 23.9268 74.7831C23.5288 77.801 25.39 80.7126 28.7885 79.719C29.315 79.5633 29.5424 79.2148 29.8686 78.8095C30.1034 78.5178 30.3382 78.4807 30.573 78.6958C30.6521 78.7674 30.6917 78.8712 30.6818 78.9751C30.5112 80.6854 31.1909 81.113 32.056 82.3662C32.5504 83.0805 33.2943 83.3375 34.2854 83.1348C35.6968 82.8457 35.9563 82.2401 36.8164 81.2638C36.8683 81.2045 36.9351 81.1798 37.0117 81.1921C37.4442 81.2465 37.6889 81.4739 37.7433 81.8768C37.7581 81.9905 37.7235 82.1066 37.6444 82.1907L37.3775 82.4848C37.3132 82.5565 37.2934 82.6405 37.3206 82.732C37.459 83.2016 37.5184 83.7429 37.8051 84.1087C38.2821 84.7241 38.9742 84.8403 39.6786 85.0528C40.1482 85.1937 41.4137 85.1468 41.8561 84.9317C42.4518 84.6425 42.8571 84.1804 43.0672 83.5451C43.2501 82.994 43.1463 82.3711 43.2204 81.8372C43.3391 80.9647 43.6011 80.9202 44.0064 81.7013C45.1261 83.8566 49.9211 82.6875 50.1584 80.2356C50.1781 80.0354 50.1534 79.5856 50.0842 78.8886C50.0768 78.8119 50.104 78.7501 50.1658 78.7032C50.4525 78.4881 50.717 78.4486 50.9617 78.5845C52.4372 79.4175 54.0611 79.9884 55.4798 78.9058C56.728 77.9518 57.0765 76.7654 56.5303 75.3442C56.3968 74.9982 56.3424 74.6274 56.5278 74.3407C56.6118 74.2122 56.7799 74.1652 56.9183 74.2344C57.3558 74.4544 57.7438 74.7164 58.2184 74.7757C61.4241 75.1737 62.6822 71.7801 60.7617 69.4988C60.5986 69.306 60.6208 69.0168 60.8161 68.8537C60.8186 68.8512 60.8235 68.8487 60.826 68.8438C61.6318 68.1962 63.179 69.1676 63.876 68.0009C65.1118 65.9346 64.8301 64.2317 63.0307 62.892C62.7218 62.6622 62.4375 62.3582 62.4869 62.0023C62.5908 61.241 64.1355 61.33 64.6917 60.801C65.8311 59.7209 66.0906 58.3936 65.4678 56.8143C65.0772 55.8281 64.1949 55.4623 63.1642 54.9828C62.786 54.8073 62.6822 54.4934 62.8552 54.0411C62.8824 53.9694 62.9318 53.9224 63.0035 53.8952C63.5621 53.6926 64.0243 53.6679 64.4445 53.1538C65.1786 52.2615 65.579 51.2802 65.6457 50.215C65.7471 48.6158 64.5557 48.6529 63.6882 47.8125C63.3471 47.4813 63.006 47.1921 62.6649 46.945C62.4474 46.7868 62.398 46.4828 62.5562 46.2653C62.6155 46.1837 62.697 46.1219 62.7934 46.0898C63.226 45.9415 63.6956 45.7784 64.2023 45.5979C64.8029 45.3854 65.1514 44.3053 65.3417 43.7911C66.0436 41.8855 64.9314 40.358 63.1864 39.6363C63.0282 39.572 62.9244 39.4188 62.9195 39.2483C62.9121 38.8849 63.0159 38.5686 63.2359 38.2942C63.2878 38.2275 63.3644 38.1879 63.4484 38.1855C63.9551 38.1657 64.3209 38.0989 64.6595 37.6837C65.7545 36.3441 66.0832 33.9268 64.4445 32.7429C64.0268 32.4413 63.6289 32.1868 63.2482 31.9767C63.0258 31.8556 62.9442 31.5763 63.0653 31.3513C63.1123 31.2673 63.1839 31.1981 63.2729 31.1561C64.2171 30.7062 65.181 30.3404 65.5666 29.2752C65.9497 28.2222 66.2265 26.2523 65.2478 25.3947C64.5804 24.8089 63.8266 24.3986 62.9887 24.1687C62.7737 24.1094 62.6377 23.8969 62.6773 23.6769C62.8132 22.9379 63.6906 22.8514 64.2863 22.7105C65.4653 22.4312 65.6136 21.838 65.967 20.7331C66.2315 19.9126 65.9423 18.7138 65.2033 18.2047C63.6511 17.1295 62.2769 17.2209 61.0806 18.4765C60.5195 19.0673 60.8211 19.8804 60.4305 20.3031C60.2872 20.4588 60.0944 20.4835 59.8546 20.3772C59.783 20.3451 59.7286 20.2907 59.6965 20.2166Z" fill="#EAFE01"/>
<path d="M16.5267 46.0898C14.8188 44.8391 13.835 44.0383 14.5444 41.7174C14.9596 40.3605 15.2315 39.3348 16.3907 38.4128C16.4476 38.3684 16.4574 38.2868 16.413 38.2299C16.4031 38.2176 16.3932 38.2102 16.3808 38.2003C15.6294 37.706 15.0264 37.0856 14.5716 36.3391C14.3417 35.9659 14.2206 35.5383 14.2083 35.0588C14.1687 33.776 14.8014 32.1176 15.8692 31.3563C15.9433 31.3044 15.9508 31.2426 15.8939 31.1734C15.4268 30.5975 15.0437 29.9821 14.7397 29.3271C14.3096 28.3977 14.2107 26.544 14.5839 25.5776C14.9127 24.7249 15.1623 24.0031 16.015 23.5632C16.1732 23.4816 16.1757 23.3951 16.0224 23.3037C14.9423 22.6586 14.6754 22.053 14.4085 20.6714C13.9957 18.5482 15.3452 17.7499 16.6453 16.519C17.0506 16.1334 18.0764 16.5536 18.6177 16.6352C20.0735 16.8527 21.1758 17.4632 22.0384 18.6866C22.1027 18.7781 22.2287 18.8003 22.3202 18.7361C22.3301 18.7286 22.34 18.7212 22.3499 18.7113C23.2347 17.7795 23.949 17.0158 25.175 16.5363C26.6901 15.9456 28.917 16.9837 29.9823 18.0366C30.2023 18.2541 30.405 18.2393 30.5953 17.9946C31.3467 17.0133 32.4762 16.1285 33.7664 16.0469C34.1989 16.0197 34.6735 16.1334 35.195 16.388C36.0576 16.8106 36.8411 17.3297 37.5431 17.9476C37.6592 18.0514 37.8372 18.0489 37.9509 17.9402C38.6059 17.3074 39.5599 16.4572 40.4497 16.3509C41.5373 16.2199 42.3084 16.0766 43.4033 16.6648C44.1547 17.0677 44.8419 17.7375 45.5833 18.2442C45.702 18.3258 45.8602 18.3134 45.964 18.217C46.6091 17.6213 47.18 16.9713 48.055 16.8131C49.7876 16.4992 51.5894 17.2654 52.8006 18.479C52.8747 18.5532 52.9958 18.5532 53.0675 18.479C53.0799 18.4666 53.0873 18.4543 53.0972 18.4419C53.3072 18.091 53.5371 17.7425 53.7892 17.3964C54.2218 16.8032 56.1027 16.5907 56.812 16.4448C57.0271 16.4003 57.2866 16.4943 57.5931 16.7266C57.6549 16.7711 57.7265 16.7983 57.8032 16.8057C58.8042 16.8873 59.2812 17.3865 59.9782 17.9105C60.087 17.9921 60.2402 17.9748 60.3267 17.8685C60.9867 17.0504 61.8542 16.5486 62.9343 16.3633C64.4049 16.1087 66.1845 17.2728 66.7654 18.6125C67.3116 19.873 67.2127 21.1014 66.4737 22.3002C66.1648 22.8019 65.6235 23.2394 65.1934 23.6843C65.1143 23.7659 65.1168 23.8944 65.1959 23.9735C65.2008 23.9784 65.2082 23.9858 65.2156 23.9908C66.3106 24.8509 67.0718 25.9805 67.0397 27.4338C67.0175 28.4694 66.7703 29.4605 66.3007 30.4072C66.0782 30.8545 65.6877 31.124 65.3293 31.465C65.2577 31.5342 65.2478 31.6479 65.3096 31.727C66.8593 33.6945 67.0101 35.044 66.365 37.397C66.1919 38.0297 65.8286 38.3758 65.4035 38.8306C65.0525 39.2038 65.2404 39.4781 65.5592 39.797C66.6591 40.8894 66.9606 42.3082 66.5454 43.7862C66.229 44.9158 65.9596 45.8006 64.9487 46.5915C64.8498 46.6681 64.8498 46.7472 64.9462 46.8288C65.668 47.422 66.187 48.2006 66.5058 49.162C67.2325 51.3618 66.4465 52.7484 65.0797 54.3822C65.0327 54.439 65.0402 54.523 65.0921 54.5725C66.3205 55.702 67.4352 57.6818 66.8099 59.3502C66.3402 60.6008 65.8608 61.6117 64.6867 62.3236C64.5804 62.3878 64.5483 62.5262 64.6126 62.635C64.62 62.6449 64.6274 62.6548 64.6348 62.6647C66.1054 64.3627 66.0807 66.4809 64.9092 68.3272C64.615 68.7869 64.4173 69.0736 64.3135 69.1849C63.8216 69.7187 63.2779 69.6668 62.655 69.9165C62.571 69.9511 62.5364 70.0129 62.5537 70.1018C62.6328 70.5418 62.7119 70.9743 62.7934 71.4019C63.1246 73.1593 61.7479 74.9908 60.2748 75.7842C59.9609 75.9522 59.2565 76.0486 58.1665 76.0733C58.0825 76.0733 58.0108 76.1376 58.0009 76.2216C57.7562 78.1199 56.7379 79.4817 55.5243 80.4926C54.7309 81.1526 52.5485 80.6953 51.587 80.248C51.4214 80.1713 51.3225 80.2232 51.2953 80.4037C51.1619 81.2416 50.2795 82.3933 49.9779 82.732C49.2636 83.5377 48.228 83.9678 46.8661 84.0197C46.4731 84.037 45.7341 83.8862 44.6491 83.5723C44.5626 83.5476 44.5008 83.5748 44.4612 83.6564C43.3935 85.8462 41.3395 86.6298 38.9643 86.0341C37.7729 85.7375 36.8535 85.0677 36.4185 83.8887C36.3715 83.7651 36.2331 83.6984 36.1071 83.7429C35.0121 84.1186 33.4154 84.6351 32.3304 84.1111C30.9685 83.4512 30.1281 82.4255 29.8118 81.0315C29.7673 80.8313 29.5671 80.7027 29.3644 80.7472C29.352 80.7497 29.3397 80.7522 29.3298 80.7571C28.8305 80.9178 28.4375 81.118 27.8987 81.0858C27.1152 81.0364 26.3836 81.1822 25.6816 80.767C24.0726 79.8179 23.0839 78.4437 22.7181 76.6468C22.6242 76.187 22.4265 76.0956 21.9593 76.0659C20.7581 75.9893 19.4259 75.9646 18.8376 74.6793C18.6473 74.2616 18.4966 74.1504 18.1209 73.9551C18.0492 73.9181 17.9899 73.8587 17.9503 73.7871C17.2558 72.4845 17.283 70.9101 17.6513 69.5086C17.6859 69.3776 17.6438 69.2763 17.5252 69.2096C16.0916 68.4236 14.888 66.3524 14.9547 64.7211C14.9992 63.5742 15.187 62.6375 16.2399 62.1036C16.2844 62.0813 16.3017 62.0294 16.282 61.9849C16.277 61.9726 16.2671 61.9627 16.2548 61.9528C15.2241 61.1545 14.5271 60.1189 14.1638 58.8484C13.84 57.7115 14.9399 55.5265 15.622 54.8073C15.9186 54.4934 16.1436 54.2512 16.2943 54.0831C16.3759 53.9916 16.3586 53.9299 16.2375 53.9002C15.36 53.6802 14.8855 53.1241 14.8138 52.2318C14.8064 52.1503 14.7792 52.0736 14.7347 52.0069C13.9907 50.9021 13.9685 49.8022 14.6185 48.6034C15.1623 47.5975 15.3971 47.0315 16.5242 46.2752C16.6132 46.2134 16.6132 46.1516 16.5267 46.0898ZM59.6965 20.2166C59.39 19.5319 59.5358 19.0005 58.7696 18.5334C57.9119 18.0119 57.0889 17.5398 56.1002 17.6436C55.1289 17.7449 54.3651 18.2615 53.9845 19.1735C53.8362 19.5369 53.6533 20.2611 53.2702 20.4267C53.0799 20.5082 52.8599 20.4267 52.766 20.2438C52.242 19.1983 51.278 18.5235 50.2004 18.1008C48.9621 17.6164 47.84 17.8512 46.8291 18.8077C46.2952 19.312 46.0085 20.9408 45.0346 20.397C44.958 20.355 44.9111 20.2907 44.8888 20.2042C44.7726 19.7148 44.7059 19.2946 44.3352 18.9165C43.2674 17.8191 42.2936 17.2803 40.8675 17.3989C39.293 17.5299 38.4873 18.5284 38.1017 19.9917C37.9855 20.439 37.6938 20.5774 37.2292 20.4044C37.1624 20.3797 37.1105 20.3278 37.0834 20.2635C36.9079 19.8532 36.7892 19.3713 36.5841 19.0327C35.2716 16.8724 32.454 16.9614 31.1217 19.1068C31.0822 19.1686 31.0624 19.2378 31.0599 19.3144C31.0476 19.92 30.8029 20.4143 30.3209 20.7974C30.1207 20.9581 29.8315 20.9259 29.6709 20.7257C29.6041 20.6417 29.5671 20.5379 29.5695 20.4316C29.5794 19.4355 29.7228 19.1958 28.8206 18.6248C27.4217 17.7375 25.9832 17.5423 24.5076 18.0415C23.7216 18.3085 22.7676 20.1696 22.4932 20.8666C22.3869 21.1336 22.0854 21.267 21.816 21.1607C21.7839 21.1484 21.7517 21.1311 21.7221 21.1113C21.5293 20.9853 21.3933 20.7875 21.3142 20.5206C21.0127 19.5072 21.119 19.0203 20.113 18.3134C19.2801 17.7276 18.4224 17.4879 17.54 17.5892C15.7407 17.7993 15.1153 20.0386 15.753 21.5043C16.2795 22.7105 18.1011 22.5745 18.5336 23.3655C18.6325 23.5459 18.5658 23.7733 18.3853 23.8721C18.3754 23.8771 18.3656 23.882 18.3557 23.887C16.5563 24.6557 15.7258 25.145 15.5108 27.2534C15.2982 29.3444 16.4377 29.8782 18.1851 30.2267C18.457 30.2836 18.6424 30.5382 18.6078 30.815C18.5386 31.3687 18.0121 31.5614 17.4659 31.6949C16.4525 31.9396 15.8272 32.6119 15.5924 33.7118C15.2884 35.1305 15.3279 36.5344 16.6947 37.1844C17.1816 37.4168 18.2815 37.8295 18.5954 38.2448C18.7437 38.44 18.7042 38.7193 18.5089 38.8676C18.4743 38.8923 18.4372 38.9146 18.3952 38.9294C17.5227 39.2507 16.885 39.3298 16.3635 40.2097C15.6838 41.3541 15.4515 42.5603 15.664 43.8258C15.842 44.9034 17.0506 45.2667 18.1975 45.7907C18.4224 45.8921 18.5336 46.0181 18.5336 46.1664C18.5336 46.3864 18.4372 46.5792 18.2815 46.6681C16.8183 47.5135 16.0941 47.9509 15.5083 49.6292C15.2908 50.252 15.4861 50.8304 15.5331 51.478C15.5652 51.9056 15.6715 52.2368 15.8494 52.474C16.3907 53.1908 17.5549 53.438 18.2914 53.9027C18.4323 53.9916 18.4743 54.1745 18.3853 54.3154C18.3656 54.3451 18.3433 54.3723 18.3161 54.392C17.7897 54.8048 17.1693 55.0495 16.7392 55.487C16.0645 56.1741 15.365 56.9403 15.3724 57.9636C15.3848 59.8396 16.3116 61.0853 18.1579 61.7032C18.2395 61.7304 18.2988 61.7847 18.3334 61.8638C18.4916 62.2099 18.2346 62.4298 17.9182 62.5608C16.9666 62.9563 16.3092 63.1615 16.2795 64.3256C16.2424 65.8457 16.7516 67.1532 17.8094 68.2481C17.9083 68.3494 18.0517 68.3915 18.1851 68.3569C18.7215 68.2209 19.2603 68.2011 19.8041 68.3025C19.8856 68.3198 19.9449 68.3643 19.9845 68.436C20.1649 68.777 20.1155 69.0341 19.8313 69.2096C19.2208 69.5853 18.8698 70.0475 18.7783 70.5937C18.5831 71.7232 18.6473 73.2211 19.5124 74.0861C20.7359 75.3096 22.0112 75.4282 23.341 74.4371C23.5041 74.316 23.734 74.3506 23.8576 74.5137C23.9144 74.5904 23.9391 74.6867 23.9268 74.7831C23.5288 77.801 25.39 80.7126 28.7885 79.719C29.315 79.5633 29.5424 79.2148 29.8686 78.8095C30.1034 78.5178 30.3382 78.4807 30.573 78.6958C30.6521 78.7674 30.6917 78.8712 30.6818 78.9751C30.5112 80.6854 31.1909 81.113 32.056 82.3662C32.5504 83.0805 33.2943 83.3375 34.2854 83.1348C35.6968 82.8457 35.9563 82.2401 36.8164 81.2638C36.8683 81.2045 36.9351 81.1798 37.0117 81.1921C37.4442 81.2465 37.6889 81.4739 37.7433 81.8768C37.7581 81.9905 37.7235 82.1066 37.6444 82.1907L37.3775 82.4848C37.3132 82.5565 37.2934 82.6405 37.3206 82.732C37.459 83.2016 37.5184 83.7429 37.8051 84.1087C38.2821 84.7241 38.9742 84.8403 39.6786 85.0528C40.1482 85.1937 41.4137 85.1468 41.8561 84.9317C42.4518 84.6425 42.8571 84.1804 43.0672 83.5451C43.2501 82.994 43.1463 82.3711 43.2204 81.8372C43.3391 80.9647 43.6011 80.9202 44.0064 81.7013C45.1261 83.8566 49.9211 82.6875 50.1584 80.2356C50.1781 80.0354 50.1534 79.5856 50.0842 78.8886C50.0768 78.8119 50.104 78.7501 50.1658 78.7032C50.4525 78.4881 50.717 78.4486 50.9617 78.5845C52.4372 79.4175 54.0611 79.9884 55.4798 78.9058C56.728 77.9518 57.0765 76.7654 56.5303 75.3442C56.3968 74.9982 56.3424 74.6274 56.5278 74.3407C56.6118 74.2122 56.7799 74.1652 56.9183 74.2344C57.3558 74.4544 57.7438 74.7164 58.2184 74.7757C61.4241 75.1737 62.6822 71.7801 60.7617 69.4988C60.5986 69.306 60.6208 69.0168 60.8161 68.8537C60.8186 68.8512 60.8235 68.8487 60.826 68.8438C61.6318 68.1962 63.179 69.1676 63.876 68.0009C65.1118 65.9346 64.8301 64.2317 63.0307 62.892C62.7218 62.6622 62.4375 62.3582 62.4869 62.0023C62.5908 61.241 64.1355 61.33 64.6917 60.801C65.8311 59.7209 66.0906 58.3936 65.4678 56.8143C65.0772 55.8281 64.1949 55.4623 63.1642 54.9828C62.786 54.8073 62.6822 54.4934 62.8552 54.0411C62.8824 53.9694 62.9318 53.9224 63.0035 53.8952C63.5621 53.6926 64.0243 53.6679 64.4445 53.1538C65.1786 52.2615 65.579 51.2802 65.6457 50.215C65.7471 48.6158 64.5557 48.6529 63.6882 47.8125C63.3471 47.4813 63.006 47.1921 62.6649 46.945C62.4474 46.7868 62.398 46.4828 62.5562 46.2653C62.6155 46.1837 62.697 46.1219 62.7934 46.0898C63.226 45.9415 63.6956 45.7784 64.2023 45.5979C64.8029 45.3854 65.1514 44.3053 65.3417 43.7911C66.0436 41.8855 64.9314 40.358 63.1864 39.6363C63.0282 39.572 62.9244 39.4188 62.9195 39.2483C62.9121 38.8849 63.0159 38.5686 63.2359 38.2942C63.2878 38.2275 63.3644 38.1879 63.4484 38.1855C63.9551 38.1657 64.3209 38.0989 64.6595 37.6837C65.7545 36.3441 66.0832 33.9268 64.4445 32.7429C64.0268 32.4413 63.6289 32.1868 63.2482 31.9767C63.0258 31.8556 62.9442 31.5763 63.0653 31.3513C63.1123 31.2673 63.1839 31.1981 63.2729 31.1561C64.2171 30.7062 65.181 30.3404 65.5666 29.2752C65.9497 28.2222 66.2265 26.2523 65.2478 25.3947C64.5804 24.8089 63.8266 24.3986 62.9887 24.1687C62.7737 24.1094 62.6377 23.8969 62.6773 23.6769C62.8132 22.9379 63.6906 22.8514 64.2863 22.7105C65.4653 22.4312 65.6136 21.838 65.967 20.7331C66.2315 19.9126 65.9423 18.7138 65.2033 18.2047C63.6511 17.1295 62.2769 17.2209 61.0806 18.4765C60.5195 19.0673 60.8211 19.8804 60.4305 20.3031C60.2872 20.4588 60.0944 20.4835 59.8546 20.3772C59.783 20.3451 59.7286 20.2907 59.6965 20.2166Z" stroke="#EAFE01" stroke-width="6" mask="url(#path-2-outside-2_192_328)"/>
</svg>
