<svg width="84" height="103" viewBox="0 0 84 103" fill="none" xmlns="http://www.w3.org/2000/svg">
<mask id="path-1-outside-1_192_325" maskUnits="userSpaceOnUse" x="0" y="0.680664" width="84" height="102" fill="black">
<rect fill="white" y="0.680664" width="84" height="102"/>
<path d="M11.7526 4.27633C11.7724 4.33318 11.8366 4.36284 11.896 4.34307C11.9157 4.33565 11.933 4.32329 11.9454 4.30599C12.4002 3.71774 14.2811 3.86604 14.9756 3.87592C21.4835 3.98221 27.9938 4.05388 34.5017 4.08849C34.9985 4.09096 35.3915 4.25903 35.6757 4.58776C35.7523 4.67427 35.8833 4.68168 35.9698 4.60753C35.997 4.58282 36.0193 4.55068 36.0291 4.51608C36.2491 3.85368 37.7296 4.1305 38.2512 4.22937C38.654 4.30599 39.0396 4.32082 39.4104 4.27386C40.834 4.09096 42.5345 4.22937 43.6566 4.1923C46.7165 4.0959 49.114 4.19477 51.2471 4.21207C53.3158 4.2269 55.3797 4.36037 57.4262 4.27139C60.6566 4.1305 63.8871 4.0786 67.1225 4.11567C68.0864 4.12803 69.4063 4.09096 71.082 4.00692C72.4044 3.94019 73.7292 3.93524 75.0515 3.98715C76.7149 4.05141 78.4154 3.98468 80.069 3.78694C80.2321 3.76964 80.3779 3.88581 80.3977 4.04894C80.3977 4.06871 80.3977 4.08601 80.3977 4.10579C80.2271 6.18692 80.3408 8.45836 80.2741 10.3467C80.1777 13.1718 80.2939 16.5753 80.2914 18.8121C80.284 23.0436 80.3161 27.275 80.3903 31.5065C80.415 32.8684 80.3433 34.3563 80.3483 35.7898C80.3705 43.2888 80.3483 48.1283 80.279 50.3108C80.2123 52.4512 80.1752 54.0578 80.1678 55.1305C80.1332 59.6511 80.0492 62.5776 79.9157 63.9048C79.6216 66.809 79.3003 69.1769 78.9493 71.0133C78.6848 72.3949 78.193 73.7519 77.4737 75.0866C77.0708 75.8355 76.7743 76.441 76.5815 76.9082C73.9541 83.2331 67.7354 88.9846 61.4945 91.5576C58.4099 92.8281 55.1622 94.3531 52.3099 95.5024C50.4191 96.2636 48.5258 97.015 46.63 97.7565C45.1495 98.3374 43.5776 98.76 42.0352 99.2494C41.7386 99.3433 41.4396 99.3433 41.1405 99.2519C39.1632 98.6389 37.2254 98.0408 35.2703 97.3017C31.2712 95.7891 28.7427 94.7807 27.6824 94.274C26.2637 93.5967 24.835 92.9442 23.3941 92.314C22.917 92.1063 22.3065 91.9605 21.7776 91.6713C20.1266 90.7593 17.8477 89.652 16.6984 88.5051C15.8679 87.6747 14.9682 86.9381 14.1897 86.0706C13.2134 84.983 12.0418 83.9104 11.2064 82.8821C7.94875 78.8632 5.55372 73.5739 4.6837 69.0607C3.99658 65.4892 3.92985 61.71 4.04601 58.0347C4.10286 56.3218 4.21161 52.4092 4.37474 46.2919C4.49585 41.8083 4.39946 37.3099 4.36238 32.8239C4.34014 29.8974 4.36238 26.971 4.43406 24.047C4.45878 22.9916 4.48102 21.9338 4.5008 20.8759C4.5181 19.9243 4.51316 18.8689 4.4835 17.7073C4.37721 13.5178 4.37227 9.33085 4.46867 5.14141C4.47855 4.72864 4.45136 4.29858 4.38957 3.85615C4.37721 3.77212 4.43653 3.69302 4.52304 3.68066C4.5354 3.68066 4.54529 3.68066 4.55764 3.68066C6.66102 3.84874 8.77675 3.92289 10.9048 3.90311C11.3003 3.90311 11.5895 3.83143 11.7526 4.2788V4.27633ZM27.5193 92.1261C29.5435 93.0406 31.548 94.0367 33.6242 94.8251C36.1651 95.7916 38.7133 96.7481 41.269 97.6947C41.3432 97.7244 41.4247 97.7269 41.4989 97.7021C42.2478 97.4649 43.0017 97.2498 43.7605 97.0546C45.498 96.6122 47.1441 95.8113 48.9386 95.3739C49.5046 95.2354 49.942 94.8944 50.3795 94.7386C51.2866 94.4099 52.1962 94.0812 53.1058 93.75C54.8433 93.1172 56.6328 92.1953 58.4346 91.4662C60.8618 90.48 63.0121 89.212 65.2069 87.8922C65.8496 87.5041 66.6108 86.7008 67.6539 86.4611C67.7354 86.4413 67.8022 86.3968 67.8541 86.3301C68.168 85.9223 68.3731 85.4675 68.7266 85.1215C71.0326 82.8648 72.2239 81.0877 73.8157 78.8237C74.3693 78.0352 74.7426 77.1702 75.1825 76.31C76.8237 73.0969 77.7975 69.5402 78.2177 65.9662C78.3339 64.9825 78.3561 63.7664 78.4476 62.6665C78.5266 61.71 78.5687 60.887 78.5736 60.1949C78.6206 51.9198 78.8381 43.6299 78.7738 35.3573C78.7516 32.1639 78.7639 28.9706 78.8134 25.7797C78.8603 22.6876 79.0037 19.6673 78.8208 16.5728C78.7071 14.6548 78.9073 12.3018 78.932 10.8979C78.9617 9.11087 78.9221 7.29916 78.8158 5.46767C78.8109 5.37621 78.7417 5.30206 78.6527 5.29465C77.056 5.13399 75.7485 5.05984 74.0011 5.21061C72.266 5.36138 70.5309 5.31442 68.7982 5.06973C67.8541 4.93873 66.3093 5.16612 65.3725 5.19826C62.241 5.30948 59.1737 5.29465 56.005 5.31442C54.6604 5.32184 53.3134 5.32925 51.9663 5.33172C51.3385 5.3342 50.5476 5.21309 49.8234 5.25758C48.9559 5.31195 48.4195 5.33667 48.2193 5.33172C44.2622 5.24275 41.4841 5.32925 38.1251 5.31689C34.2199 5.30454 30.2924 5.29218 26.3996 5.3342C23.1345 5.37127 19.8646 5.2551 16.602 5.32184C14.6692 5.36386 13.3394 5.24275 11.7798 5.27241C9.8791 5.30948 8.08963 5.16118 6.25567 5.2551C6.09501 5.26252 5.96896 5.39599 5.96896 5.55664C5.96401 7.28433 5.94424 8.97988 5.90964 10.6408C5.89728 11.1945 5.78111 11.6418 5.84043 12.2078C5.95165 13.2163 5.70449 14.2297 5.73909 15.1417C5.8256 17.3662 5.69707 19.5659 5.70449 21.7855C5.72179 26.1702 5.53889 30.5401 5.61304 34.9248C5.63528 36.1482 5.62292 37.4656 5.58091 38.8769C5.49193 41.8454 5.53889 45.3872 5.50676 47.7798C5.45732 51.4032 5.62787 55.1181 5.39059 58.7243C5.33621 59.5473 5.4598 60.5088 5.3634 61.4134C5.33127 61.7125 5.33621 62.014 5.38318 62.3131C5.49687 63.062 5.48204 64.0161 5.54136 64.5845C5.66741 65.7759 5.69707 66.9301 6.01097 68.0943C6.27544 69.0656 6.5226 70.0395 6.75247 71.0182C6.94031 71.8116 7.2814 72.5531 7.53351 73.3465C7.7436 74.0139 7.97346 74.5799 8.22063 75.0421C9.42432 77.2888 10.6379 79.5899 12.1802 81.5475C14.5876 84.5999 17.2347 86.8615 20.6407 88.9748C21.2858 89.3727 22.1335 89.6248 22.8429 90.0722C23.5448 90.5171 24.0342 90.7988 24.3135 90.9175C25.3739 91.3624 26.5504 91.6862 27.5193 92.1261ZM45.0605 97.3957C45.0235 97.3314 44.8999 97.3339 44.7837 97.4006C44.6675 97.4673 44.6033 97.5736 44.6404 97.6354C44.6774 97.6997 44.801 97.6972 44.9172 97.6305C45.0334 97.5637 45.0976 97.4575 45.0605 97.3957Z"/>
</mask>
<path d="M11.7526 4.27633C11.7724 4.33318 11.8366 4.36284 11.896 4.34307C11.9157 4.33565 11.933 4.32329 11.9454 4.30599C12.4002 3.71774 14.2811 3.86604 14.9756 3.87592C21.4835 3.98221 27.9938 4.05388 34.5017 4.08849C34.9985 4.09096 35.3915 4.25903 35.6757 4.58776C35.7523 4.67427 35.8833 4.68168 35.9698 4.60753C35.997 4.58282 36.0193 4.55068 36.0291 4.51608C36.2491 3.85368 37.7296 4.1305 38.2512 4.22937C38.654 4.30599 39.0396 4.32082 39.4104 4.27386C40.834 4.09096 42.5345 4.22937 43.6566 4.1923C46.7165 4.0959 49.114 4.19477 51.2471 4.21207C53.3158 4.2269 55.3797 4.36037 57.4262 4.27139C60.6566 4.1305 63.8871 4.0786 67.1225 4.11567C68.0864 4.12803 69.4063 4.09096 71.082 4.00692C72.4044 3.94019 73.7292 3.93524 75.0515 3.98715C76.7149 4.05141 78.4154 3.98468 80.069 3.78694C80.2321 3.76964 80.3779 3.88581 80.3977 4.04894C80.3977 4.06871 80.3977 4.08601 80.3977 4.10579C80.2271 6.18692 80.3408 8.45836 80.2741 10.3467C80.1777 13.1718 80.2939 16.5753 80.2914 18.8121C80.284 23.0436 80.3161 27.275 80.3903 31.5065C80.415 32.8684 80.3433 34.3563 80.3483 35.7898C80.3705 43.2888 80.3483 48.1283 80.279 50.3108C80.2123 52.4512 80.1752 54.0578 80.1678 55.1305C80.1332 59.6511 80.0492 62.5776 79.9157 63.9048C79.6216 66.809 79.3003 69.1769 78.9493 71.0133C78.6848 72.3949 78.193 73.7519 77.4737 75.0866C77.0708 75.8355 76.7743 76.441 76.5815 76.9082C73.9541 83.2331 67.7354 88.9846 61.4945 91.5576C58.4099 92.8281 55.1622 94.3531 52.3099 95.5024C50.4191 96.2636 48.5258 97.015 46.63 97.7565C45.1495 98.3374 43.5776 98.76 42.0352 99.2494C41.7386 99.3433 41.4396 99.3433 41.1405 99.2519C39.1632 98.6389 37.2254 98.0408 35.2703 97.3017C31.2712 95.7891 28.7427 94.7807 27.6824 94.274C26.2637 93.5967 24.835 92.9442 23.3941 92.314C22.917 92.1063 22.3065 91.9605 21.7776 91.6713C20.1266 90.7593 17.8477 89.652 16.6984 88.5051C15.8679 87.6747 14.9682 86.9381 14.1897 86.0706C13.2134 84.983 12.0418 83.9104 11.2064 82.8821C7.94875 78.8632 5.55372 73.5739 4.6837 69.0607C3.99658 65.4892 3.92985 61.71 4.04601 58.0347C4.10286 56.3218 4.21161 52.4092 4.37474 46.2919C4.49585 41.8083 4.39946 37.3099 4.36238 32.8239C4.34014 29.8974 4.36238 26.971 4.43406 24.047C4.45878 22.9916 4.48102 21.9338 4.5008 20.8759C4.5181 19.9243 4.51316 18.8689 4.4835 17.7073C4.37721 13.5178 4.37227 9.33085 4.46867 5.14141C4.47855 4.72864 4.45136 4.29858 4.38957 3.85615C4.37721 3.77212 4.43653 3.69302 4.52304 3.68066C4.5354 3.68066 4.54529 3.68066 4.55764 3.68066C6.66102 3.84874 8.77675 3.92289 10.9048 3.90311C11.3003 3.90311 11.5895 3.83143 11.7526 4.2788V4.27633ZM27.5193 92.1261C29.5435 93.0406 31.548 94.0367 33.6242 94.8251C36.1651 95.7916 38.7133 96.7481 41.269 97.6947C41.3432 97.7244 41.4247 97.7269 41.4989 97.7021C42.2478 97.4649 43.0017 97.2498 43.7605 97.0546C45.498 96.6122 47.1441 95.8113 48.9386 95.3739C49.5046 95.2354 49.942 94.8944 50.3795 94.7386C51.2866 94.4099 52.1962 94.0812 53.1058 93.75C54.8433 93.1172 56.6328 92.1953 58.4346 91.4662C60.8618 90.48 63.0121 89.212 65.2069 87.8922C65.8496 87.5041 66.6108 86.7008 67.6539 86.4611C67.7354 86.4413 67.8022 86.3968 67.8541 86.3301C68.168 85.9223 68.3731 85.4675 68.7266 85.1215C71.0326 82.8648 72.2239 81.0877 73.8157 78.8237C74.3693 78.0352 74.7426 77.1702 75.1825 76.31C76.8237 73.0969 77.7975 69.5402 78.2177 65.9662C78.3339 64.9825 78.3561 63.7664 78.4476 62.6665C78.5266 61.71 78.5687 60.887 78.5736 60.1949C78.6206 51.9198 78.8381 43.6299 78.7738 35.3573C78.7516 32.1639 78.7639 28.9706 78.8134 25.7797C78.8603 22.6876 79.0037 19.6673 78.8208 16.5728C78.7071 14.6548 78.9073 12.3018 78.932 10.8979C78.9617 9.11087 78.9221 7.29916 78.8158 5.46767C78.8109 5.37621 78.7417 5.30206 78.6527 5.29465C77.056 5.13399 75.7485 5.05984 74.0011 5.21061C72.266 5.36138 70.5309 5.31442 68.7982 5.06973C67.8541 4.93873 66.3093 5.16612 65.3725 5.19826C62.241 5.30948 59.1737 5.29465 56.005 5.31442C54.6604 5.32184 53.3134 5.32925 51.9663 5.33172C51.3385 5.3342 50.5476 5.21309 49.8234 5.25758C48.9559 5.31195 48.4195 5.33667 48.2193 5.33172C44.2622 5.24275 41.4841 5.32925 38.1251 5.31689C34.2199 5.30454 30.2924 5.29218 26.3996 5.3342C23.1345 5.37127 19.8646 5.2551 16.602 5.32184C14.6692 5.36386 13.3394 5.24275 11.7798 5.27241C9.8791 5.30948 8.08963 5.16118 6.25567 5.2551C6.09501 5.26252 5.96896 5.39599 5.96896 5.55664C5.96401 7.28433 5.94424 8.97988 5.90964 10.6408C5.89728 11.1945 5.78111 11.6418 5.84043 12.2078C5.95165 13.2163 5.70449 14.2297 5.73909 15.1417C5.8256 17.3662 5.69707 19.5659 5.70449 21.7855C5.72179 26.1702 5.53889 30.5401 5.61304 34.9248C5.63528 36.1482 5.62292 37.4656 5.58091 38.8769C5.49193 41.8454 5.53889 45.3872 5.50676 47.7798C5.45732 51.4032 5.62787 55.1181 5.39059 58.7243C5.33621 59.5473 5.4598 60.5088 5.3634 61.4134C5.33127 61.7125 5.33621 62.014 5.38318 62.3131C5.49687 63.062 5.48204 64.0161 5.54136 64.5845C5.66741 65.7759 5.69707 66.9301 6.01097 68.0943C6.27544 69.0656 6.5226 70.0395 6.75247 71.0182C6.94031 71.8116 7.2814 72.5531 7.53351 73.3465C7.7436 74.0139 7.97346 74.5799 8.22063 75.0421C9.42432 77.2888 10.6379 79.5899 12.1802 81.5475C14.5876 84.5999 17.2347 86.8615 20.6407 88.9748C21.2858 89.3727 22.1335 89.6248 22.8429 90.0722C23.5448 90.5171 24.0342 90.7988 24.3135 90.9175C25.3739 91.3624 26.5504 91.6862 27.5193 92.1261ZM45.0605 97.3957C45.0235 97.3314 44.8999 97.3339 44.7837 97.4006C44.6675 97.4673 44.6033 97.5736 44.6404 97.6354C44.6774 97.6997 44.801 97.6972 44.9172 97.6305C45.0334 97.5637 45.0976 97.4575 45.0605 97.3957Z" fill="#EAFE01"/>
<path d="M11.7526 4.27633C11.7724 4.33318 11.8366 4.36284 11.896 4.34307C11.9157 4.33565 11.933 4.32329 11.9454 4.30599C12.4002 3.71774 14.2811 3.86604 14.9756 3.87592C21.4835 3.98221 27.9938 4.05388 34.5017 4.08849C34.9985 4.09096 35.3915 4.25903 35.6757 4.58776C35.7523 4.67427 35.8833 4.68168 35.9698 4.60753C35.997 4.58282 36.0193 4.55068 36.0291 4.51608C36.2491 3.85368 37.7296 4.1305 38.2512 4.22937C38.654 4.30599 39.0396 4.32082 39.4104 4.27386C40.834 4.09096 42.5345 4.22937 43.6566 4.1923C46.7165 4.0959 49.114 4.19477 51.2471 4.21207C53.3158 4.2269 55.3797 4.36037 57.4262 4.27139C60.6566 4.1305 63.8871 4.0786 67.1225 4.11567C68.0864 4.12803 69.4063 4.09096 71.082 4.00692C72.4044 3.94019 73.7292 3.93524 75.0515 3.98715C76.7149 4.05141 78.4154 3.98468 80.069 3.78694C80.2321 3.76964 80.3779 3.88581 80.3977 4.04894C80.3977 4.06871 80.3977 4.08601 80.3977 4.10579C80.2271 6.18692 80.3408 8.45836 80.2741 10.3467C80.1777 13.1718 80.2939 16.5753 80.2914 18.8121C80.284 23.0436 80.3161 27.275 80.3903 31.5065C80.415 32.8684 80.3433 34.3563 80.3483 35.7898C80.3705 43.2888 80.3483 48.1283 80.279 50.3108C80.2123 52.4512 80.1752 54.0578 80.1678 55.1305C80.1332 59.6511 80.0492 62.5776 79.9157 63.9048C79.6216 66.809 79.3003 69.1769 78.9493 71.0133C78.6848 72.3949 78.193 73.7519 77.4737 75.0866C77.0708 75.8355 76.7743 76.441 76.5815 76.9082C73.9541 83.2331 67.7354 88.9846 61.4945 91.5576C58.4099 92.8281 55.1622 94.3531 52.3099 95.5024C50.4191 96.2636 48.5258 97.015 46.63 97.7565C45.1495 98.3374 43.5776 98.76 42.0352 99.2494C41.7386 99.3433 41.4396 99.3433 41.1405 99.2519C39.1632 98.6389 37.2254 98.0408 35.2703 97.3017C31.2712 95.7891 28.7427 94.7807 27.6824 94.274C26.2637 93.5967 24.835 92.9442 23.3941 92.314C22.917 92.1063 22.3065 91.9605 21.7776 91.6713C20.1266 90.7593 17.8477 89.652 16.6984 88.5051C15.8679 87.6747 14.9682 86.9381 14.1897 86.0706C13.2134 84.983 12.0418 83.9104 11.2064 82.8821C7.94875 78.8632 5.55372 73.5739 4.6837 69.0607C3.99658 65.4892 3.92985 61.71 4.04601 58.0347C4.10286 56.3218 4.21161 52.4092 4.37474 46.2919C4.49585 41.8083 4.39946 37.3099 4.36238 32.8239C4.34014 29.8974 4.36238 26.971 4.43406 24.047C4.45878 22.9916 4.48102 21.9338 4.5008 20.8759C4.5181 19.9243 4.51316 18.8689 4.4835 17.7073C4.37721 13.5178 4.37227 9.33085 4.46867 5.14141C4.47855 4.72864 4.45136 4.29858 4.38957 3.85615C4.37721 3.77212 4.43653 3.69302 4.52304 3.68066C4.5354 3.68066 4.54529 3.68066 4.55764 3.68066C6.66102 3.84874 8.77675 3.92289 10.9048 3.90311C11.3003 3.90311 11.5895 3.83143 11.7526 4.2788V4.27633ZM27.5193 92.1261C29.5435 93.0406 31.548 94.0367 33.6242 94.8251C36.1651 95.7916 38.7133 96.7481 41.269 97.6947C41.3432 97.7244 41.4247 97.7269 41.4989 97.7021C42.2478 97.4649 43.0017 97.2498 43.7605 97.0546C45.498 96.6122 47.1441 95.8113 48.9386 95.3739C49.5046 95.2354 49.942 94.8944 50.3795 94.7386C51.2866 94.4099 52.1962 94.0812 53.1058 93.75C54.8433 93.1172 56.6328 92.1953 58.4346 91.4662C60.8618 90.48 63.0121 89.212 65.2069 87.8922C65.8496 87.5041 66.6108 86.7008 67.6539 86.4611C67.7354 86.4413 67.8022 86.3968 67.8541 86.3301C68.168 85.9223 68.3731 85.4675 68.7266 85.1215C71.0326 82.8648 72.2239 81.0877 73.8157 78.8237C74.3693 78.0352 74.7426 77.1702 75.1825 76.31C76.8237 73.0969 77.7975 69.5402 78.2177 65.9662C78.3339 64.9825 78.3561 63.7664 78.4476 62.6665C78.5266 61.71 78.5687 60.887 78.5736 60.1949C78.6206 51.9198 78.8381 43.6299 78.7738 35.3573C78.7516 32.1639 78.7639 28.9706 78.8134 25.7797C78.8603 22.6876 79.0037 19.6673 78.8208 16.5728C78.7071 14.6548 78.9073 12.3018 78.932 10.8979C78.9617 9.11087 78.9221 7.29916 78.8158 5.46767C78.8109 5.37621 78.7417 5.30206 78.6527 5.29465C77.056 5.13399 75.7485 5.05984 74.0011 5.21061C72.266 5.36138 70.5309 5.31442 68.7982 5.06973C67.8541 4.93873 66.3093 5.16612 65.3725 5.19826C62.241 5.30948 59.1737 5.29465 56.005 5.31442C54.6604 5.32184 53.3134 5.32925 51.9663 5.33172C51.3385 5.3342 50.5476 5.21309 49.8234 5.25758C48.9559 5.31195 48.4195 5.33667 48.2193 5.33172C44.2622 5.24275 41.4841 5.32925 38.1251 5.31689C34.2199 5.30454 30.2924 5.29218 26.3996 5.3342C23.1345 5.37127 19.8646 5.2551 16.602 5.32184C14.6692 5.36386 13.3394 5.24275 11.7798 5.27241C9.8791 5.30948 8.08963 5.16118 6.25567 5.2551C6.09501 5.26252 5.96896 5.39599 5.96896 5.55664C5.96401 7.28433 5.94424 8.97988 5.90964 10.6408C5.89728 11.1945 5.78111 11.6418 5.84043 12.2078C5.95165 13.2163 5.70449 14.2297 5.73909 15.1417C5.8256 17.3662 5.69707 19.5659 5.70449 21.7855C5.72179 26.1702 5.53889 30.5401 5.61304 34.9248C5.63528 36.1482 5.62292 37.4656 5.58091 38.8769C5.49193 41.8454 5.53889 45.3872 5.50676 47.7798C5.45732 51.4032 5.62787 55.1181 5.39059 58.7243C5.33621 59.5473 5.4598 60.5088 5.3634 61.4134C5.33127 61.7125 5.33621 62.014 5.38318 62.3131C5.49687 63.062 5.48204 64.0161 5.54136 64.5845C5.66741 65.7759 5.69707 66.9301 6.01097 68.0943C6.27544 69.0656 6.5226 70.0395 6.75247 71.0182C6.94031 71.8116 7.2814 72.5531 7.53351 73.3465C7.7436 74.0139 7.97346 74.5799 8.22063 75.0421C9.42432 77.2888 10.6379 79.5899 12.1802 81.5475C14.5876 84.5999 17.2347 86.8615 20.6407 88.9748C21.2858 89.3727 22.1335 89.6248 22.8429 90.0722C23.5448 90.5171 24.0342 90.7988 24.3135 90.9175C25.3739 91.3624 26.5504 91.6862 27.5193 92.1261ZM45.0605 97.3957C45.0235 97.3314 44.8999 97.3339 44.7837 97.4006C44.6675 97.4673 44.6033 97.5736 44.6404 97.6354C44.6774 97.6997 44.801 97.6972 44.9172 97.6305C45.0334 97.5637 45.0976 97.4575 45.0605 97.3957Z" stroke="#EAFE01" stroke-width="6" mask="url(#path-1-outside-1_192_325)"/>
<mask id="path-2-outside-2_192_325" maskUnits="userSpaceOnUse" x="15.3242" y="13.0439" width="54" height="75" fill="black">
<rect fill="white" x="15.3242" y="13.0439" width="54" height="75"/>
<path d="M63.8594 70.2177C62.8831 72.1951 61.2963 74.9757 59.2795 76.476C56.5928 78.4755 54.0149 79.4839 51.1502 80.6481C49.4843 81.3253 47.7912 81.8691 46.1674 82.618C45.023 83.1469 43.1693 83.7624 41.8099 84.7609C41.7382 84.8128 41.6616 84.8202 41.5825 84.7782C41.2834 84.6225 40.9744 84.4964 40.6556 84.4C39.5162 84.0565 38.4262 83.5152 37.3436 83.0233C35.8235 82.3362 34.0662 81.8345 32.4522 81.1226C31.5402 80.7198 30.5564 80.2946 29.501 79.8497C22.5508 76.9159 18.3094 70.717 18.3243 63.1315C18.344 53.1955 18.4824 43.2545 18.4651 33.3185C18.4627 32.624 18.569 31.922 18.5467 31.2596C18.4824 29.312 18.6233 27.0801 18.6258 25.4364C18.6283 22.6954 18.6555 19.9568 18.7074 17.2256C18.7074 17.1712 18.7519 17.1292 18.8062 17.1292C21.5868 17.1811 24.3674 17.2355 27.148 17.2899C28.2232 17.3121 29.3206 17.3986 30.3637 17.3739C34.5432 17.2775 38.7228 17.2306 42.9048 17.233C45.1935 17.2355 47.4724 17.1712 49.7636 17.1861C53.172 17.2034 56.5829 17.2009 59.9913 17.1737C61.5583 17.1613 63.6765 17.2627 65.5945 17.0452C65.7082 17.0328 65.812 17.1144 65.8244 17.2306C65.8244 17.238 65.8244 17.2454 65.8244 17.2528C65.8194 18.7358 65.9208 20.2979 65.9059 21.7018C65.8738 24.648 65.8639 27.5942 65.8763 30.5379C65.8812 31.7243 66.0048 32.9329 65.9776 34.0823C65.9183 36.5737 66.0271 39.5891 66.0172 41.5516C65.99 47.3328 65.7577 53.1214 65.5204 58.8976C65.4388 60.8799 65.6983 63.0055 65.4512 64.9581C65.2164 66.792 64.6874 68.5444 63.8594 70.2177ZM19.4835 27.4483C19.4489 28.5359 19.5551 29.3663 19.4785 30.7134C19.3895 32.2186 19.4785 33.7634 19.4192 35.2958C19.4019 35.8 19.4835 36.3438 19.4736 36.7788C19.434 38.4768 19.2808 40.6865 19.3327 42.7132C19.3846 44.7524 19.3945 46.7915 19.3673 48.8306C19.303 53.2647 19.3253 57.2836 19.2437 61.5052C19.2215 62.6273 19.3772 63.7692 19.4414 64.9136C19.4983 65.9566 19.6145 66.797 19.785 67.4371C20.1557 68.8138 20.6723 70.1288 21.3323 71.3844C22.9611 74.4838 26.1767 77.4498 29.4714 78.6757C30.25 78.9649 30.942 79.3431 31.7107 79.6322C32.2965 79.8547 32.8501 80.1019 33.3667 80.3713C34.7039 81.0658 36.3945 81.5626 37.4993 82.0273C38.7771 82.5661 39.6472 82.9393 40.1044 83.1469C41.5602 83.8093 42.5909 83.0579 43.9305 82.5389C44.4619 82.3338 45.0675 81.9902 45.6805 81.7826C47.3538 81.2141 48.9356 80.4726 50.6139 79.9264C54.6674 78.604 58.0412 77.168 60.7377 73.767C63.4936 70.2919 64.5021 66.839 64.6182 62.5186C64.6948 59.6243 64.7196 56.73 64.6924 53.8357C64.6454 48.9739 64.8085 44.1517 64.9544 39.3123C65.0013 37.8243 64.8975 36.2178 64.9222 34.8658C64.9643 32.4806 64.9741 30.093 64.9519 27.7079C64.9222 24.685 65.0458 21.4076 65.0038 18.2464C65.0038 18.1599 64.9618 18.1154 64.8753 18.108C63.1674 17.9745 60.8786 18.0363 59.759 18.0116C55.5028 17.9201 52.213 17.9078 49.8872 17.977C47.8061 18.0388 46.2119 18.0932 44.6992 18.019C44.3013 17.9992 43.7229 18.0017 42.9666 18.0264C38.6956 18.1624 32.7018 18.0141 27.457 18.0956C25.1905 18.1327 22.9265 18.1327 20.66 18.1006C20.5117 18.1006 20.2497 18.1327 19.8715 18.1994C19.785 18.2143 19.7331 18.2662 19.7183 18.3552C19.6738 18.6073 19.6515 18.8989 19.6491 19.2301C19.6392 21.5016 19.5848 24.2401 19.4835 27.4483Z"/>
</mask>
<path d="M63.8594 70.2177C62.8831 72.1951 61.2963 74.9757 59.2795 76.476C56.5928 78.4755 54.0149 79.4839 51.1502 80.6481C49.4843 81.3253 47.7912 81.8691 46.1674 82.618C45.023 83.1469 43.1693 83.7624 41.8099 84.7609C41.7382 84.8128 41.6616 84.8202 41.5825 84.7782C41.2834 84.6225 40.9744 84.4964 40.6556 84.4C39.5162 84.0565 38.4262 83.5152 37.3436 83.0233C35.8235 82.3362 34.0662 81.8345 32.4522 81.1226C31.5402 80.7198 30.5564 80.2946 29.501 79.8497C22.5508 76.9159 18.3094 70.717 18.3243 63.1315C18.344 53.1955 18.4824 43.2545 18.4651 33.3185C18.4627 32.624 18.569 31.922 18.5467 31.2596C18.4824 29.312 18.6233 27.0801 18.6258 25.4364C18.6283 22.6954 18.6555 19.9568 18.7074 17.2256C18.7074 17.1712 18.7519 17.1292 18.8062 17.1292C21.5868 17.1811 24.3674 17.2355 27.148 17.2899C28.2232 17.3121 29.3206 17.3986 30.3637 17.3739C34.5432 17.2775 38.7228 17.2306 42.9048 17.233C45.1935 17.2355 47.4724 17.1712 49.7636 17.1861C53.172 17.2034 56.5829 17.2009 59.9913 17.1737C61.5583 17.1613 63.6765 17.2627 65.5945 17.0452C65.7082 17.0328 65.812 17.1144 65.8244 17.2306C65.8244 17.238 65.8244 17.2454 65.8244 17.2528C65.8194 18.7358 65.9208 20.2979 65.9059 21.7018C65.8738 24.648 65.8639 27.5942 65.8763 30.5379C65.8812 31.7243 66.0048 32.9329 65.9776 34.0823C65.9183 36.5737 66.0271 39.5891 66.0172 41.5516C65.99 47.3328 65.7577 53.1214 65.5204 58.8976C65.4388 60.8799 65.6983 63.0055 65.4512 64.9581C65.2164 66.792 64.6874 68.5444 63.8594 70.2177ZM19.4835 27.4483C19.4489 28.5359 19.5551 29.3663 19.4785 30.7134C19.3895 32.2186 19.4785 33.7634 19.4192 35.2958C19.4019 35.8 19.4835 36.3438 19.4736 36.7788C19.434 38.4768 19.2808 40.6865 19.3327 42.7132C19.3846 44.7524 19.3945 46.7915 19.3673 48.8306C19.303 53.2647 19.3253 57.2836 19.2437 61.5052C19.2215 62.6273 19.3772 63.7692 19.4414 64.9136C19.4983 65.9566 19.6145 66.797 19.785 67.4371C20.1557 68.8138 20.6723 70.1288 21.3323 71.3844C22.9611 74.4838 26.1767 77.4498 29.4714 78.6757C30.25 78.9649 30.942 79.3431 31.7107 79.6322C32.2965 79.8547 32.8501 80.1019 33.3667 80.3713C34.7039 81.0658 36.3945 81.5626 37.4993 82.0273C38.7771 82.5661 39.6472 82.9393 40.1044 83.1469C41.5602 83.8093 42.5909 83.0579 43.9305 82.5389C44.4619 82.3338 45.0675 81.9902 45.6805 81.7826C47.3538 81.2141 48.9356 80.4726 50.6139 79.9264C54.6674 78.604 58.0412 77.168 60.7377 73.767C63.4936 70.2919 64.5021 66.839 64.6182 62.5186C64.6948 59.6243 64.7196 56.73 64.6924 53.8357C64.6454 48.9739 64.8085 44.1517 64.9544 39.3123C65.0013 37.8243 64.8975 36.2178 64.9222 34.8658C64.9643 32.4806 64.9741 30.093 64.9519 27.7079C64.9222 24.685 65.0458 21.4076 65.0038 18.2464C65.0038 18.1599 64.9618 18.1154 64.8753 18.108C63.1674 17.9745 60.8786 18.0363 59.759 18.0116C55.5028 17.9201 52.213 17.9078 49.8872 17.977C47.8061 18.0388 46.2119 18.0932 44.6992 18.019C44.3013 17.9992 43.7229 18.0017 42.9666 18.0264C38.6956 18.1624 32.7018 18.0141 27.457 18.0956C25.1905 18.1327 22.9265 18.1327 20.66 18.1006C20.5117 18.1006 20.2497 18.1327 19.8715 18.1994C19.785 18.2143 19.7331 18.2662 19.7183 18.3552C19.6738 18.6073 19.6515 18.8989 19.6491 19.2301C19.6392 21.5016 19.5848 24.2401 19.4835 27.4483Z" fill="#EAFE01"/>
<path d="M63.8594 70.2177L61.1706 68.8872L61.1695 68.8896L63.8594 70.2177ZM59.2795 76.476L57.4889 74.0689L57.4883 74.0693L59.2795 76.476ZM51.1502 80.6481L50.0208 77.8688L50.0204 77.869L51.1502 80.6481ZM46.1674 82.618L44.911 79.8937L44.9087 79.8948L46.1674 82.618ZM41.8099 84.7609L43.5694 87.1907L43.5776 87.1848L43.5859 87.1787L41.8099 84.7609ZM41.5825 84.7782L42.9899 82.1289L42.9789 82.123L42.9679 82.1173L41.5825 84.7782ZM40.6556 84.4L41.5238 81.5284L41.5216 81.5278L40.6556 84.4ZM37.3436 83.0233L38.5845 80.292L38.5793 80.2897L37.3436 83.0233ZM32.4522 81.1226L31.24 83.8668L31.2416 83.8675L32.4522 81.1226ZM29.501 79.8497L28.3344 82.6136L28.3357 82.6142L29.501 79.8497ZM18.3243 63.1315L15.3243 63.1256L15.3243 63.1257L18.3243 63.1315ZM18.4651 33.3185L21.4651 33.3133L21.4651 33.3078L18.4651 33.3185ZM18.5467 31.2596L15.5483 31.3586L15.5484 31.3603L18.5467 31.2596ZM18.6258 25.4364L21.6258 25.4409L21.6258 25.4391L18.6258 25.4364ZM18.7074 17.2256L21.7068 17.2826L21.7074 17.2541V17.2256H18.7074ZM18.8062 17.1292L18.8622 14.1297L18.8342 14.1292H18.8062V17.1292ZM27.148 17.2899L27.2101 14.2905L27.2067 14.2904L27.148 17.2899ZM30.3637 17.3739L30.2945 14.3747L30.2926 14.3748L30.3637 17.3739ZM42.9048 17.233L42.908 14.233L42.9066 14.233L42.9048 17.233ZM49.7636 17.1861L49.7442 20.186L49.7484 20.186L49.7636 17.1861ZM59.9913 17.1737L59.9676 14.1738L59.9674 14.1738L59.9913 17.1737ZM65.5945 17.0452L65.2703 14.0627L65.2565 14.0643L65.5945 17.0452ZM65.8244 17.2306H68.8244V17.0714L68.8076 16.9132L65.8244 17.2306ZM65.8244 17.2528L68.8244 17.2628V17.2528H65.8244ZM65.9059 21.7018L68.9058 21.7345L68.9058 21.7335L65.9059 21.7018ZM65.8763 30.5379L68.8763 30.5254L68.8763 30.5253L65.8763 30.5379ZM65.9776 34.0823L68.9768 34.1537L68.9768 34.1532L65.9776 34.0823ZM66.0172 41.5516L63.0172 41.5365L63.0172 41.5375L66.0172 41.5516ZM65.5204 58.8976L68.5178 59.0209L68.5178 59.0207L65.5204 58.8976ZM65.4512 64.9581L68.4269 65.3391L68.4274 65.3348L65.4512 64.9581ZM19.4835 27.4483L22.4819 27.5438L22.482 27.5431L19.4835 27.4483ZM19.4785 30.7134L22.4733 30.8904L22.4737 30.8838L19.4785 30.7134ZM19.4192 35.2958L16.4214 35.1798L16.421 35.1929L19.4192 35.2958ZM19.4736 36.7788L22.4728 36.8487L22.4728 36.847L19.4736 36.7788ZM19.3327 42.7132L22.3317 42.6369L22.3317 42.6364L19.3327 42.7132ZM19.3673 48.8306L22.367 48.874L22.367 48.8706L19.3673 48.8306ZM19.2437 61.5052L22.2431 61.5646L22.2432 61.5631L19.2437 61.5052ZM19.4414 64.9136L22.437 64.7503L22.4367 64.7454L19.4414 64.9136ZM19.785 67.4371L16.8861 68.2094L16.8882 68.2172L19.785 67.4371ZM21.3323 71.3844L23.9879 69.9888L23.9878 69.9886L21.3323 71.3844ZM29.4714 78.6757L28.4252 81.4874L28.4268 81.488L29.4714 78.6757ZM31.7107 79.6322L32.7757 76.8276L32.767 76.8244L31.7107 79.6322ZM33.3667 80.3713L31.9794 83.0313L31.9839 83.0336L33.3667 80.3713ZM37.4993 82.0273L38.6649 79.263L38.6624 79.2619L37.4993 82.0273ZM40.1044 83.1469L41.3469 80.4163L41.3447 80.4153L40.1044 83.1469ZM43.9305 82.5389L42.8501 79.7402L42.8467 79.7415L43.9305 82.5389ZM45.6805 81.7826L46.6429 84.624L46.6455 84.6231L45.6805 81.7826ZM50.6139 79.9264L51.5424 82.7791L51.5443 82.7784L50.6139 79.9264ZM60.7377 73.767L58.3872 71.9029L58.387 71.9032L60.7377 73.767ZM64.6182 62.5186L67.6171 62.5992L67.6172 62.5979L64.6182 62.5186ZM64.6924 53.8357L67.6922 53.8075L67.6922 53.8067L64.6924 53.8357ZM64.9544 39.3123L61.9559 39.2176L61.9557 39.2219L64.9544 39.3123ZM64.9222 34.8658L67.9217 34.9206L67.9218 34.9186L64.9222 34.8658ZM64.9519 27.7079L67.9518 27.6799L67.9517 27.6784L64.9519 27.7079ZM65.0038 18.2464H62.0038V18.2663L62.0041 18.2863L65.0038 18.2464ZM64.8753 18.108L65.1315 15.119L65.1202 15.118L65.109 15.1171L64.8753 18.108ZM59.759 18.0116L59.8252 15.0123L59.8234 15.0123L59.759 18.0116ZM49.8872 17.977L49.9762 20.9757L49.9764 20.9757L49.8872 17.977ZM44.6992 18.019L44.5503 21.0153L44.5523 21.0154L44.6992 18.019ZM42.9666 18.0264L43.062 21.0249L43.0646 21.0248L42.9666 18.0264ZM27.457 18.0956L27.4103 15.096L27.4079 15.096L27.457 18.0956ZM20.66 18.1006L20.7025 15.1009L20.6812 15.1006H20.66V18.1006ZM19.8715 18.1994L20.3784 21.1563L20.3856 21.1551L20.3929 21.1538L19.8715 18.1994ZM19.7183 18.3552L22.6726 18.8765L22.6751 18.8624L22.6774 18.8484L19.7183 18.3552ZM19.6491 19.2301L16.6491 19.2077L16.6491 19.2171L19.6491 19.2301ZM61.1695 68.8896C60.1934 70.8664 58.8711 73.0407 57.4889 74.0689L61.07 78.883C63.7216 76.9106 65.5729 73.5237 66.5494 71.5459L61.1695 68.8896ZM57.4883 74.0693C55.1577 75.8039 52.9392 76.6828 50.0208 77.8688L52.2797 83.4274C55.0906 82.2851 58.0279 81.1471 61.0706 78.8826L57.4883 74.0693ZM50.0204 77.869C48.687 78.411 46.565 79.131 44.911 79.8938L47.4238 85.3422C49.0175 84.6072 50.2817 84.2396 52.28 83.4272L50.0204 77.869ZM44.9087 79.8948C44.6863 79.9976 44.4125 80.1122 44.0453 80.2646C43.6971 80.409 43.28 80.5813 42.8516 80.7715C42.0097 81.1454 40.9743 81.6523 40.0339 82.3431L43.5859 87.1787C44.0048 86.871 44.576 86.5708 45.2869 86.2551C45.6349 86.1006 45.9807 85.9575 46.3445 85.8065C46.6892 85.6635 47.0762 85.5029 47.426 85.3412L44.9087 79.8948ZM40.0503 82.3311C40.3761 82.0952 40.8527 81.8637 41.4558 81.8146C42.0667 81.765 42.5964 81.9198 42.9899 82.1289L40.175 87.4276C40.6476 87.6786 41.2552 87.8508 41.9421 87.7949C42.6212 87.7397 43.1719 87.4785 43.5694 87.1907L40.0503 82.3311ZM42.9679 82.1173C42.5054 81.8765 42.0234 81.6795 41.5238 81.5284L39.7874 87.2717C39.9255 87.3134 40.0614 87.3685 40.197 87.4391L42.9679 82.1173ZM41.5216 81.5278C40.6315 81.2594 39.8041 80.8461 38.5845 80.292L36.1026 85.7547C37.0483 86.1843 38.4009 86.8536 39.7896 87.2723L41.5216 81.5278ZM38.5793 80.2897C37.695 79.8899 36.7649 79.5543 35.9526 79.2608C35.1011 78.9531 34.3585 78.6846 33.6628 78.3778L31.2416 83.8675C32.1599 84.2725 33.103 84.6108 33.9136 84.9037C34.7635 85.2108 35.4721 85.4696 36.1079 85.757L38.5793 80.2897ZM33.6644 78.3785C32.7366 77.9686 31.7372 77.5367 30.6664 77.0853L28.3357 82.6142C29.3757 83.0525 30.3437 83.4709 31.24 83.8668L33.6644 78.3785ZM30.6677 77.0859C24.7971 74.6078 21.3119 69.4788 21.3243 63.1374L15.3243 63.1257C15.307 71.9552 20.3045 79.224 28.3344 82.6136L30.6677 77.0859ZM21.3243 63.1375C21.3439 53.2764 21.4824 43.2296 21.4651 33.3133L15.4651 33.3237C15.4825 43.2795 15.3442 53.1146 15.3243 63.1256L21.3243 63.1375ZM21.4651 33.3078C21.4644 33.0916 21.4804 32.8634 21.5064 32.4807C21.5292 32.146 21.5619 31.6624 21.545 31.1589L15.5484 31.3603C15.5537 31.5192 15.5444 31.7179 15.5203 32.0734C15.4993 32.3808 15.4635 32.8509 15.4652 33.3292L21.4651 33.3078ZM21.5451 31.1607C21.4805 29.2048 21.6228 27.4371 21.6258 25.4409L15.6258 25.4319C15.6239 26.7231 15.4843 29.4191 15.5483 31.3586L21.5451 31.1607ZM21.6258 25.4391C21.6283 22.7161 21.6553 19.9956 21.7068 17.2826L15.7079 17.1686C15.6557 19.918 15.6283 22.6746 15.6258 25.4337L21.6258 25.4391ZM21.7074 17.2256C21.7074 18.9264 20.3086 20.1292 18.8062 20.1292V14.1292C17.1951 14.1292 15.7074 15.416 15.7074 17.2256H21.7074ZM18.7502 20.1287C21.5293 20.1806 24.3086 20.2349 27.0894 20.2893L27.2067 14.2904C24.4263 14.2361 21.6444 14.1817 18.8622 14.1297L18.7502 20.1287ZM27.086 20.2892C27.8898 20.3059 29.3349 20.3991 30.4347 20.3731L30.2926 14.3748C29.3063 14.3981 28.5566 14.3184 27.2101 14.2905L27.086 20.2892ZM30.4328 20.3731C34.5887 20.2773 38.7446 20.2306 42.903 20.233L42.9066 14.233C38.7009 14.2305 34.4977 14.2778 30.2945 14.3747L30.4328 20.3731ZM42.9016 20.233C45.4373 20.2358 47.3335 20.1704 49.7442 20.186L49.783 14.1861C47.6113 14.1721 44.9497 14.2352 42.908 14.233L42.9016 20.233ZM49.7484 20.186C53.1684 20.2034 56.5924 20.2009 60.0152 20.1736L59.9674 14.1738C56.5734 14.2009 53.1757 14.2033 49.7788 14.1861L49.7484 20.186ZM60.015 20.1736C61.3361 20.1632 63.8064 20.2672 65.9326 20.0261L65.2565 14.0643C63.5467 14.2582 61.7806 14.1595 59.9676 14.1738L60.015 20.1736ZM65.9187 20.0276C64.4025 20.1924 63.0065 19.1018 62.8412 17.5479L68.8076 16.9132C68.6175 15.127 67.014 13.8732 65.2703 14.0627L65.9187 20.0276ZM62.8244 17.2306C62.8244 17.2306 62.8244 17.2306 62.8244 17.2306C62.8244 17.2306 62.8244 17.2306 62.8244 17.2306C62.8244 17.2307 62.8244 17.2307 62.8244 17.2307C62.8244 17.2307 62.8244 17.2307 62.8244 17.2307C62.8244 17.2307 62.8244 17.2308 62.8244 17.2308C62.8244 17.2308 62.8244 17.2308 62.8244 17.2308C62.8244 17.2308 62.8244 17.2308 62.8244 17.2309C62.8244 17.2309 62.8244 17.2309 62.8244 17.2309C62.8244 17.2309 62.8244 17.2309 62.8244 17.2309C62.8244 17.231 62.8244 17.231 62.8244 17.231C62.8244 17.231 62.8244 17.231 62.8244 17.231C62.8244 17.231 62.8244 17.2311 62.8244 17.2311C62.8244 17.2311 62.8244 17.2311 62.8244 17.2311C62.8244 17.2311 62.8244 17.2311 62.8244 17.2312C62.8244 17.2312 62.8244 17.2312 62.8244 17.2312C62.8244 17.2312 62.8244 17.2312 62.8244 17.2313C62.8244 17.2313 62.8244 17.2313 62.8244 17.2313C62.8244 17.2313 62.8244 17.2313 62.8244 17.2313C62.8244 17.2314 62.8244 17.2314 62.8244 17.2314C62.8244 17.2314 62.8244 17.2314 62.8244 17.2314C62.8244 17.2314 62.8244 17.2315 62.8244 17.2315C62.8244 17.2315 62.8244 17.2315 62.8244 17.2315C62.8244 17.2315 62.8244 17.2315 62.8244 17.2316C62.8244 17.2316 62.8244 17.2316 62.8244 17.2316C62.8244 17.2316 62.8244 17.2316 62.8244 17.2316C62.8244 17.2317 62.8244 17.2317 62.8244 17.2317C62.8244 17.2317 62.8244 17.2317 62.8244 17.2317C62.8244 17.2317 62.8244 17.2318 62.8244 17.2318C62.8244 17.2318 62.8244 17.2318 62.8244 17.2318C62.8244 17.2318 62.8244 17.2318 62.8244 17.2319C62.8244 17.2319 62.8244 17.2319 62.8244 17.2319C62.8244 17.2319 62.8244 17.2319 62.8244 17.2319C62.8244 17.232 62.8244 17.232 62.8244 17.232C62.8244 17.232 62.8244 17.232 62.8244 17.232C62.8244 17.232 62.8244 17.2321 62.8244 17.2321C62.8244 17.2321 62.8244 17.2321 62.8244 17.2321C62.8244 17.2321 62.8244 17.2321 62.8244 17.2322C62.8244 17.2322 62.8244 17.2322 62.8244 17.2322C62.8244 17.2322 62.8244 17.2322 62.8244 17.2323C62.8244 17.2323 62.8244 17.2323 62.8244 17.2323C62.8244 17.2323 62.8244 17.2323 62.8244 17.2323C62.8244 17.2324 62.8244 17.2324 62.8244 17.2324C62.8244 17.2324 62.8244 17.2324 62.8244 17.2324C62.8244 17.2324 62.8244 17.2325 62.8244 17.2325C62.8244 17.2325 62.8244 17.2325 62.8244 17.2325C62.8244 17.2325 62.8244 17.2325 62.8244 17.2326C62.8244 17.2326 62.8244 17.2326 62.8244 17.2326C62.8244 17.2326 62.8244 17.2326 62.8244 17.2326C62.8244 17.2327 62.8244 17.2327 62.8244 17.2327C62.8244 17.2327 62.8244 17.2327 62.8244 17.2327C62.8244 17.2327 62.8244 17.2328 62.8244 17.2328C62.8244 17.2328 62.8244 17.2328 62.8244 17.2328C62.8244 17.2328 62.8244 17.2328 62.8244 17.2329C62.8244 17.2329 62.8244 17.2329 62.8244 17.2329C62.8244 17.2329 62.8244 17.2329 62.8244 17.2329C62.8244 17.233 62.8244 17.233 62.8244 17.233C62.8244 17.233 62.8244 17.233 62.8244 17.233C62.8244 17.233 62.8244 17.2331 62.8244 17.2331C62.8244 17.2331 62.8244 17.2331 62.8244 17.2331C62.8244 17.2331 62.8244 17.2331 62.8244 17.2332C62.8244 17.2332 62.8244 17.2332 62.8244 17.2332C62.8244 17.2332 62.8244 17.2332 62.8244 17.2332C62.8244 17.2333 62.8244 17.2333 62.8244 17.2333C62.8244 17.2333 62.8244 17.2333 62.8244 17.2333C62.8244 17.2334 62.8244 17.2334 62.8244 17.2334C62.8244 17.2334 62.8244 17.2334 62.8244 17.2334C62.8244 17.2334 62.8244 17.2335 62.8244 17.2335C62.8244 17.2335 62.8244 17.2335 62.8244 17.2335C62.8244 17.2335 62.8244 17.2335 62.8244 17.2336C62.8244 17.2336 62.8244 17.2336 62.8244 17.2336C62.8244 17.2336 62.8244 17.2336 62.8244 17.2336C62.8244 17.2337 62.8244 17.2337 62.8244 17.2337C62.8244 17.2337 62.8244 17.2337 62.8244 17.2337C62.8244 17.2337 62.8244 17.2338 62.8244 17.2338C62.8244 17.2338 62.8244 17.2338 62.8244 17.2338C62.8244 17.2338 62.8244 17.2338 62.8244 17.2339C62.8244 17.2339 62.8244 17.2339 62.8244 17.2339C62.8244 17.2339 62.8244 17.2339 62.8244 17.2339C62.8244 17.234 62.8244 17.234 62.8244 17.234C62.8244 17.234 62.8244 17.234 62.8244 17.234C62.8244 17.234 62.8244 17.2341 62.8244 17.2341C62.8244 17.2341 62.8244 17.2341 62.8244 17.2341C62.8244 17.2341 62.8244 17.2341 62.8244 17.2342C62.8244 17.2342 62.8244 17.2342 62.8244 17.2342C62.8244 17.2342 62.8244 17.2342 62.8244 17.2342C62.8244 17.2343 62.8244 17.2343 62.8244 17.2343C62.8244 17.2343 62.8244 17.2343 62.8244 17.2343C62.8244 17.2344 62.8244 17.2344 62.8244 17.2344C62.8244 17.2344 62.8244 17.2344 62.8244 17.2344C62.8244 17.2344 62.8244 17.2345 62.8244 17.2345C62.8244 17.2345 62.8244 17.2345 62.8244 17.2345C62.8244 17.2345 62.8244 17.2345 62.8244 17.2346C62.8244 17.2346 62.8244 17.2346 62.8244 17.2346C62.8244 17.2346 62.8244 17.2346 62.8244 17.2346C62.8244 17.2347 62.8244 17.2347 62.8244 17.2347C62.8244 17.2347 62.8244 17.2347 62.8244 17.2347C62.8244 17.2347 62.8244 17.2348 62.8244 17.2348C62.8244 17.2348 62.8244 17.2348 62.8244 17.2348C62.8244 17.2348 62.8244 17.2348 62.8244 17.2349C62.8244 17.2349 62.8244 17.2349 62.8244 17.2349C62.8244 17.2349 62.8244 17.2349 62.8244 17.2349C62.8244 17.235 62.8244 17.235 62.8244 17.235C62.8244 17.235 62.8244 17.235 62.8244 17.235C62.8244 17.235 62.8244 17.2351 62.8244 17.2351C62.8244 17.2351 62.8244 17.2351 62.8244 17.2351C62.8244 17.2351 62.8244 17.2351 62.8244 17.2352C62.8244 17.2352 62.8244 17.2352 62.8244 17.2352C62.8244 17.2352 62.8244 17.2352 62.8244 17.2352C62.8244 17.2353 62.8244 17.2353 62.8244 17.2353C62.8244 17.2353 62.8244 17.2353 62.8244 17.2353C62.8244 17.2353 62.8244 17.2354 62.8244 17.2354C62.8244 17.2354 62.8244 17.2354 62.8244 17.2354C62.8244 17.2354 62.8244 17.2355 62.8244 17.2355C62.8244 17.2355 62.8244 17.2355 62.8244 17.2355C62.8244 17.2355 62.8244 17.2355 62.8244 17.2356C62.8244 17.2356 62.8244 17.2356 62.8244 17.2356C62.8244 17.2356 62.8244 17.2356 62.8244 17.2356C62.8244 17.2357 62.8244 17.2357 62.8244 17.2357C62.8244 17.2357 62.8244 17.2357 62.8244 17.2357C62.8244 17.2357 62.8244 17.2358 62.8244 17.2358C62.8244 17.2358 62.8244 17.2358 62.8244 17.2358C62.8244 17.2358 62.8244 17.2358 62.8244 17.2359C62.8244 17.2359 62.8244 17.2359 62.8244 17.2359C62.8244 17.2359 62.8244 17.2359 62.8244 17.2359C62.8244 17.236 62.8244 17.236 62.8244 17.236C62.8244 17.236 62.8244 17.236 62.8244 17.236C62.8244 17.236 62.8244 17.2361 62.8244 17.2361C62.8244 17.2361 62.8244 17.2361 62.8244 17.2361C62.8244 17.2361 62.8244 17.2361 62.8244 17.2362C62.8244 17.2362 62.8244 17.2362 62.8244 17.2362C62.8244 17.2362 62.8244 17.2362 62.8244 17.2362C62.8244 17.2363 62.8244 17.2363 62.8244 17.2363C62.8244 17.2363 62.8244 17.2363 62.8244 17.2363C62.8244 17.2363 62.8244 17.2364 62.8244 17.2364C62.8244 17.2364 62.8244 17.2364 62.8244 17.2364C62.8244 17.2364 62.8244 17.2365 62.8244 17.2365C62.8244 17.2365 62.8244 17.2365 62.8244 17.2365C62.8244 17.2365 62.8244 17.2365 62.8244 17.2366C62.8244 17.2366 62.8244 17.2366 62.8244 17.2366C62.8244 17.2366 62.8244 17.2366 62.8244 17.2366C62.8244 17.2367 62.8244 17.2367 62.8244 17.2367C62.8244 17.2367 62.8244 17.2367 62.8244 17.2367C62.8244 17.2367 62.8244 17.2368 62.8244 17.2368C62.8244 17.2368 62.8244 17.2368 62.8244 17.2368C62.8244 17.2368 62.8244 17.2368 62.8244 17.2369C62.8244 17.2369 62.8244 17.2369 62.8244 17.2369C62.8244 17.2369 62.8244 17.2369 62.8244 17.2369C62.8244 17.237 62.8244 17.237 62.8244 17.237C62.8244 17.237 62.8244 17.237 62.8244 17.237C62.8244 17.237 62.8244 17.2371 62.8244 17.2371C62.8244 17.2371 62.8244 17.2371 62.8244 17.2371C62.8244 17.2371 62.8244 17.2371 62.8244 17.2372C62.8244 17.2372 62.8244 17.2372 62.8244 17.2372C62.8244 17.2372 62.8244 17.2372 62.8244 17.2372C62.8244 17.2373 62.8244 17.2373 62.8244 17.2373C62.8244 17.2373 62.8244 17.2373 62.8244 17.2373C62.8244 17.2373 62.8244 17.2374 62.8244 17.2374C62.8244 17.2374 62.8244 17.2374 62.8244 17.2374C62.8244 17.2374 62.8244 17.2374 62.8244 17.2375C62.8244 17.2375 62.8244 17.2375 62.8244 17.2375C62.8244 17.2375 62.8244 17.2375 62.8244 17.2376C62.8244 17.2376 62.8244 17.2376 62.8244 17.2376C62.8244 17.2376 62.8244 17.2376 62.8244 17.2376C62.8244 17.2377 62.8244 17.2377 62.8244 17.2377C62.8244 17.2377 62.8244 17.2377 62.8244 17.2377C62.8244 17.2377 62.8244 17.2378 62.8244 17.2378C62.8244 17.2378 62.8244 17.2378 62.8244 17.2378C62.8244 17.2378 62.8244 17.2378 62.8244 17.2379C62.8244 17.2379 62.8244 17.2379 62.8244 17.2379C62.8244 17.2379 62.8244 17.2379 62.8244 17.2379C62.8244 17.238 62.8244 17.238 62.8244 17.238C62.8244 17.238 62.8244 17.238 62.8244 17.238C62.8244 17.238 62.8244 17.2381 62.8244 17.2381C62.8244 17.2381 62.8244 17.2381 62.8244 17.2381C62.8244 17.2381 62.8244 17.2381 62.8244 17.2382C62.8244 17.2382 62.8244 17.2382 62.8244 17.2382C62.8244 17.2382 62.8244 17.2382 62.8244 17.2382C62.8244 17.2383 62.8244 17.2383 62.8244 17.2383C62.8244 17.2383 62.8244 17.2383 62.8244 17.2383C62.8244 17.2383 62.8244 17.2384 62.8244 17.2384C62.8244 17.2384 62.8244 17.2384 62.8244 17.2384C62.8244 17.2384 62.8244 17.2384 62.8244 17.2385C62.8244 17.2385 62.8244 17.2385 62.8244 17.2385C62.8244 17.2385 62.8244 17.2385 62.8244 17.2385C62.8244 17.2386 62.8244 17.2386 62.8244 17.2386C62.8244 17.2386 62.8244 17.2386 62.8244 17.2386C62.8244 17.2387 62.8244 17.2387 62.8244 17.2387C62.8244 17.2387 62.8244 17.2387 62.8244 17.2387C62.8244 17.2387 62.8244 17.2388 62.8244 17.2388C62.8244 17.2388 62.8244 17.2388 62.8244 17.2388C62.8244 17.2388 62.8244 17.2388 62.8244 17.2389C62.8244 17.2389 62.8244 17.2389 62.8244 17.2389C62.8244 17.2389 62.8244 17.2389 62.8244 17.2389C62.8244 17.239 62.8244 17.239 62.8244 17.239C62.8244 17.239 62.8244 17.239 62.8244 17.239C62.8244 17.239 62.8244 17.2391 62.8244 17.2391C62.8244 17.2391 62.8244 17.2391 62.8244 17.2391C62.8244 17.2391 62.8244 17.2391 62.8244 17.2392C62.8244 17.2392 62.8244 17.2392 62.8244 17.2392C62.8244 17.2392 62.8244 17.2392 62.8244 17.2392C62.8244 17.2393 62.8244 17.2393 62.8244 17.2393C62.8244 17.2393 62.8244 17.2393 62.8244 17.2393C62.8244 17.2393 62.8244 17.2394 62.8244 17.2394C62.8244 17.2394 62.8244 17.2394 62.8244 17.2394C62.8244 17.2394 62.8244 17.2394 62.8244 17.2395C62.8244 17.2395 62.8244 17.2395 62.8244 17.2395C62.8244 17.2395 62.8244 17.2395 62.8244 17.2395C62.8244 17.2396 62.8244 17.2396 62.8244 17.2396C62.8244 17.2396 62.8244 17.2396 62.8244 17.2396C62.8244 17.2397 62.8244 17.2397 62.8244 17.2397C62.8244 17.2397 62.8244 17.2397 62.8244 17.2397C62.8244 17.2397 62.8244 17.2398 62.8244 17.2398C62.8244 17.2398 62.8244 17.2398 62.8244 17.2398C62.8244 17.2398 62.8244 17.2398 62.8244 17.2399C62.8244 17.2399 62.8244 17.2399 62.8244 17.2399C62.8244 17.2399 62.8244 17.2399 62.8244 17.2399C62.8244 17.24 62.8244 17.24 62.8244 17.24C62.8244 17.24 62.8244 17.24 62.8244 17.24C62.8244 17.24 62.8244 17.2401 62.8244 17.2401C62.8244 17.2401 62.8244 17.2401 62.8244 17.2401C62.8244 17.2401 62.8244 17.2401 62.8244 17.2402C62.8244 17.2402 62.8244 17.2402 62.8244 17.2402C62.8244 17.2402 62.8244 17.2402 62.8244 17.2402C62.8244 17.2403 62.8244 17.2403 62.8244 17.2403C62.8244 17.2403 62.8244 17.2403 62.8244 17.2403C62.8244 17.2403 62.8244 17.2404 62.8244 17.2404C62.8244 17.2404 62.8244 17.2404 62.8244 17.2404C62.8244 17.2404 62.8244 17.2404 62.8244 17.2405C62.8244 17.2405 62.8244 17.2405 62.8244 17.2405C62.8244 17.2405 62.8244 17.2405 62.8244 17.2405C62.8244 17.2406 62.8244 17.2406 62.8244 17.2406C62.8244 17.2406 62.8244 17.2406 62.8244 17.2406C62.8244 17.2406 62.8244 17.2407 62.8244 17.2407C62.8244 17.2407 62.8244 17.2407 62.8244 17.2407C62.8244 17.2407 62.8244 17.2408 62.8244 17.2408C62.8244 17.2408 62.8244 17.2408 62.8244 17.2408C62.8244 17.2408 62.8244 17.2408 62.8244 17.2409C62.8244 17.2409 62.8244 17.2409 62.8244 17.2409C62.8244 17.2409 62.8244 17.2409 62.8244 17.2409C62.8244 17.241 62.8244 17.241 62.8244 17.241C62.8244 17.241 62.8244 17.241 62.8244 17.241C62.8244 17.241 62.8244 17.2411 62.8244 17.2411C62.8244 17.2411 62.8244 17.2411 62.8244 17.2411C62.8244 17.2411 62.8244 17.2411 62.8244 17.2412C62.8244 17.2412 62.8244 17.2412 62.8244 17.2412C62.8244 17.2412 62.8244 17.2412 62.8244 17.2412C62.8244 17.2413 62.8244 17.2413 62.8244 17.2413C62.8244 17.2413 62.8244 17.2413 62.8244 17.2413C62.8244 17.2413 62.8244 17.2414 62.8244 17.2414C62.8244 17.2414 62.8244 17.2414 62.8244 17.2414C62.8244 17.2414 62.8244 17.2414 62.8244 17.2415C62.8244 17.2415 62.8244 17.2415 62.8244 17.2415C62.8244 17.2415 62.8244 17.2415 62.8244 17.2415C62.8244 17.2416 62.8244 17.2416 62.8244 17.2416C62.8244 17.2416 62.8244 17.2416 62.8244 17.2416C62.8244 17.2416 62.8244 17.2417 62.8244 17.2417C62.8244 17.2417 62.8244 17.2417 62.8244 17.2417C62.8244 17.2417 62.8244 17.2418 62.8244 17.2418C62.8244 17.2418 62.8244 17.2418 62.8244 17.2418C62.8244 17.2418 62.8244 17.2418 62.8244 17.2419C62.8244 17.2419 62.8244 17.2419 62.8244 17.2419C62.8244 17.2419 62.8244 17.2419 62.8244 17.2419C62.8244 17.242 62.8244 17.242 62.8244 17.242C62.8244 17.242 62.8244 17.242 62.8244 17.242C62.8244 17.242 62.8244 17.2421 62.8244 17.2421C62.8244 17.2421 62.8244 17.2421 62.8244 17.2421C62.8244 17.2421 62.8244 17.2421 62.8244 17.2422C62.8244 17.2422 62.8244 17.2422 62.8244 17.2422C62.8244 17.2422 62.8244 17.2422 62.8244 17.2422C62.8244 17.2423 62.8244 17.2423 62.8244 17.2423C62.8244 17.2423 62.8244 17.2423 62.8244 17.2423C62.8244 17.2423 62.8244 17.2424 62.8244 17.2424C62.8244 17.2424 62.8244 17.2424 62.8244 17.2424C62.8244 17.2424 62.8244 17.2424 62.8244 17.2425C62.8244 17.2425 62.8244 17.2425 62.8244 17.2425C62.8244 17.2425 62.8244 17.2425 62.8244 17.2425C62.8244 17.2426 62.8244 17.2426 62.8244 17.2426C62.8244 17.2426 62.8244 17.2426 62.8244 17.2426C62.8244 17.2426 62.8244 17.2427 62.8244 17.2427C62.8244 17.2427 62.8244 17.2427 62.8244 17.2427C62.8244 17.2427 62.8244 17.2427 62.8244 17.2428C62.8244 17.2428 62.8244 17.2428 62.8244 17.2428C62.8244 17.2428 62.8244 17.2428 62.8244 17.2429C62.8244 17.2429 62.8244 17.2429 62.8244 17.2429C62.8244 17.2429 62.8244 17.2429 62.8244 17.2429C62.8244 17.243 62.8244 17.243 62.8244 17.243C62.8244 17.243 62.8244 17.243 62.8244 17.243C62.8244 17.243 62.8244 17.2431 62.8244 17.2431C62.8244 17.2431 62.8244 17.2431 62.8244 17.2431C62.8244 17.2431 62.8244 17.2431 62.8244 17.2432C62.8244 17.2432 62.8244 17.2432 62.8244 17.2432C62.8244 17.2432 62.8244 17.2432 62.8244 17.2432C62.8244 17.2433 62.8244 17.2433 62.8244 17.2433C62.8244 17.2433 62.8244 17.2433 62.8244 17.2433C62.8244 17.2433 62.8244 17.2434 62.8244 17.2434C62.8244 17.2434 62.8244 17.2434 62.8244 17.2434C62.8244 17.2434 62.8244 17.2434 62.8244 17.2435C62.8244 17.2435 62.8244 17.2435 62.8244 17.2435C62.8244 17.2435 62.8244 17.2435 62.8244 17.2435C62.8244 17.2436 62.8244 17.2436 62.8244 17.2436C62.8244 17.2436 62.8244 17.2436 62.8244 17.2436C62.8244 17.2436 62.8244 17.2437 62.8244 17.2437C62.8244 17.2437 62.8244 17.2437 62.8244 17.2437C62.8244 17.2437 62.8244 17.2437 62.8244 17.2438C62.8244 17.2438 62.8244 17.2438 62.8244 17.2438C62.8244 17.2438 62.8244 17.2438 62.8244 17.2439C62.8244 17.2439 62.8244 17.2439 62.8244 17.2439C62.8244 17.2439 62.8244 17.2439 62.8244 17.2439C62.8244 17.244 62.8244 17.244 62.8244 17.244C62.8244 17.244 62.8244 17.244 62.8244 17.244C62.8244 17.244 62.8244 17.2441 62.8244 17.2441C62.8244 17.2441 62.8244 17.2441 62.8244 17.2441C62.8244 17.2441 62.8244 17.2441 62.8244 17.2442C62.8244 17.2442 62.8244 17.2442 62.8244 17.2442C62.8244 17.2442 62.8244 17.2442 62.8244 17.2442C62.8244 17.2443 62.8244 17.2443 62.8244 17.2443C62.8244 17.2443 62.8244 17.2443 62.8244 17.2443C62.8244 17.2443 62.8244 17.2444 62.8244 17.2444C62.8244 17.2444 62.8244 17.2444 62.8244 17.2444C62.8244 17.2444 62.8244 17.2444 62.8244 17.2445C62.8244 17.2445 62.8244 17.2445 62.8244 17.2445C62.8244 17.2445 62.8244 17.2445 62.8244 17.2445C62.8244 17.2446 62.8244 17.2446 62.8244 17.2446C62.8244 17.2446 62.8244 17.2446 62.8244 17.2446C62.8244 17.2446 62.8244 17.2447 62.8244 17.2447C62.8244 17.2447 62.8244 17.2447 62.8244 17.2447C62.8244 17.2447 62.8244 17.2447 62.8244 17.2448C62.8244 17.2448 62.8244 17.2448 62.8244 17.2448C62.8244 17.2448 62.8244 17.2448 62.8244 17.2448C62.8244 17.2449 62.8244 17.2449 62.8244 17.2449C62.8244 17.2449 62.8244 17.2449 62.8244 17.2449C62.8244 17.245 62.8244 17.245 62.8244 17.245C62.8244 17.245 62.8244 17.245 62.8244 17.245C62.8244 17.245 62.8244 17.2451 62.8244 17.2451C62.8244 17.2451 62.8244 17.2451 62.8244 17.2451C62.8244 17.2451 62.8244 17.2451 62.8244 17.2452C62.8244 17.2452 62.8244 17.2452 62.8244 17.2452C62.8244 17.2452 62.8244 17.2452 62.8244 17.2452C62.8244 17.2453 62.8244 17.2453 62.8244 17.2453C62.8244 17.2453 62.8244 17.2453 62.8244 17.2453C62.8244 17.2453 62.8244 17.2454 62.8244 17.2454C62.8244 17.2454 62.8244 17.2454 62.8244 17.2454C62.8244 17.2454 62.8244 17.2454 62.8244 17.2455C62.8244 17.2455 62.8244 17.2455 62.8244 17.2455C62.8244 17.2455 62.8244 17.2455 62.8244 17.2455C62.8244 17.2456 62.8244 17.2456 62.8244 17.2456C62.8244 17.2456 62.8244 17.2456 62.8244 17.2456C62.8244 17.2456 62.8244 17.2457 62.8244 17.2457C62.8244 17.2457 62.8244 17.2457 62.8244 17.2457C62.8244 17.2457 62.8244 17.2457 62.8244 17.2458C62.8244 17.2458 62.8244 17.2458 62.8244 17.2458C62.8244 17.2458 62.8244 17.2458 62.8244 17.2458C62.8244 17.2459 62.8244 17.2459 62.8244 17.2459C62.8244 17.2459 62.8244 17.2459 62.8244 17.2459C62.8244 17.2459 62.8244 17.246 62.8244 17.246C62.8244 17.246 62.8244 17.246 62.8244 17.246C62.8244 17.246 62.8244 17.2461 62.8244 17.2461C62.8244 17.2461 62.8244 17.2461 62.8244 17.2461C62.8244 17.2461 62.8244 17.2461 62.8244 17.2462C62.8244 17.2462 62.8244 17.2462 62.8244 17.2462C62.8244 17.2462 62.8244 17.2462 62.8244 17.2462C62.8244 17.2463 62.8244 17.2463 62.8244 17.2463C62.8244 17.2463 62.8244 17.2463 62.8244 17.2463C62.8244 17.2463 62.8244 17.2464 62.8244 17.2464C62.8244 17.2464 62.8244 17.2464 62.8244 17.2464C62.8244 17.2464 62.8244 17.2464 62.8244 17.2465C62.8244 17.2465 62.8244 17.2465 62.8244 17.2465C62.8244 17.2465 62.8244 17.2465 62.8244 17.2465C62.8244 17.2466 62.8244 17.2466 62.8244 17.2466C62.8244 17.2466 62.8244 17.2466 62.8244 17.2466C62.8244 17.2466 62.8244 17.2467 62.8244 17.2467C62.8244 17.2467 62.8244 17.2467 62.8244 17.2467C62.8244 17.2467 62.8244 17.2467 62.8244 17.2468C62.8244 17.2468 62.8244 17.2468 62.8244 17.2468C62.8244 17.2468 62.8244 17.2468 62.8244 17.2468C62.8244 17.2469 62.8244 17.2469 62.8244 17.2469C62.8244 17.2469 62.8244 17.2469 62.8244 17.2469C62.8244 17.2469 62.8244 17.247 62.8244 17.247C62.8244 17.247 62.8244 17.247 62.8244 17.247C62.8244 17.247 62.8244 17.2471 62.8244 17.2471C62.8244 17.2471 62.8244 17.2471 62.8244 17.2471C62.8244 17.2471 62.8244 17.2471 62.8244 17.2472C62.8244 17.2472 62.8244 17.2472 62.8244 17.2472C62.8244 17.2472 62.8244 17.2472 62.8244 17.2472C62.8244 17.2473 62.8244 17.2473 62.8244 17.2473C62.8244 17.2473 62.8244 17.2473 62.8244 17.2473C62.8244 17.2473 62.8244 17.2474 62.8244 17.2474C62.8244 17.2474 62.8244 17.2474 62.8244 17.2474C62.8244 17.2474 62.8244 17.2474 62.8244 17.2475C62.8244 17.2475 62.8244 17.2475 62.8244 17.2475C62.8244 17.2475 62.8244 17.2475 62.8244 17.2475C62.8244 17.2476 62.8244 17.2476 62.8244 17.2476C62.8244 17.2476 62.8244 17.2476 62.8244 17.2476C62.8244 17.2476 62.8244 17.2477 62.8244 17.2477C62.8244 17.2477 62.8244 17.2477 62.8244 17.2477C62.8244 17.2477 62.8244 17.2477 62.8244 17.2478C62.8244 17.2478 62.8244 17.2478 62.8244 17.2478C62.8244 17.2478 62.8244 17.2478 62.8244 17.2478C62.8244 17.2479 62.8244 17.2479 62.8244 17.2479C62.8244 17.2479 62.8244 17.2479 62.8244 17.2479C62.8244 17.2479 62.8244 17.248 62.8244 17.248C62.8244 17.248 62.8244 17.248 62.8244 17.248C62.8244 17.248 62.8244 17.248 62.8244 17.2481C62.8244 17.2481 62.8244 17.2481 62.8244 17.2481C62.8244 17.2481 62.8244 17.2481 62.8244 17.2482C62.8244 17.2482 62.8244 17.2482 62.8244 17.2482C62.8244 17.2482 62.8244 17.2482 62.8244 17.2482C62.8244 17.2483 62.8244 17.2483 62.8244 17.2483C62.8244 17.2483 62.8244 17.2483 62.8244 17.2483C62.8244 17.2483 62.8244 17.2484 62.8244 17.2484C62.8244 17.2484 62.8244 17.2484 62.8244 17.2484C62.8244 17.2484 62.8244 17.2484 62.8244 17.2485C62.8244 17.2485 62.8244 17.2485 62.8244 17.2485C62.8244 17.2485 62.8244 17.2485 62.8244 17.2485C62.8244 17.2486 62.8244 17.2486 62.8244 17.2486C62.8244 17.2486 62.8244 17.2486 62.8244 17.2486C62.8244 17.2486 62.8244 17.2487 62.8244 17.2487C62.8244 17.2487 62.8244 17.2487 62.8244 17.2487C62.8244 17.2487 62.8244 17.2487 62.8244 17.2488C62.8244 17.2488 62.8244 17.2488 62.8244 17.2488C62.8244 17.2488 62.8244 17.2488 62.8244 17.2488C62.8244 17.2489 62.8244 17.2489 62.8244 17.2489C62.8244 17.2489 62.8244 17.2489 62.8244 17.2489C62.8244 17.2489 62.8244 17.249 62.8244 17.249C62.8244 17.249 62.8244 17.249 62.8244 17.249C62.8244 17.249 62.8244 17.249 62.8244 17.2491C62.8244 17.2491 62.8244 17.2491 62.8244 17.2491C62.8244 17.2491 62.8244 17.2491 62.8244 17.2492C62.8244 17.2492 62.8244 17.2492 62.8244 17.2492C62.8244 17.2492 62.8244 17.2492 62.8244 17.2492C62.8244 17.2493 62.8244 17.2493 62.8244 17.2493C62.8244 17.2493 62.8244 17.2493 62.8244 17.2493C62.8244 17.2493 62.8244 17.2494 62.8244 17.2494C62.8244 17.2494 62.8244 17.2494 62.8244 17.2494C62.8244 17.2494 62.8244 17.2494 62.8244 17.2495C62.8244 17.2495 62.8244 17.2495 62.8244 17.2495C62.8244 17.2495 62.8244 17.2495 62.8244 17.2495C62.8244 17.2496 62.8244 17.2496 62.8244 17.2496C62.8244 17.2496 62.8244 17.2496 62.8244 17.2496C62.8244 17.2496 62.8244 17.2497 62.8244 17.2497C62.8244 17.2497 62.8244 17.2497 62.8244 17.2497C62.8244 17.2497 62.8244 17.2497 62.8244 17.2498C62.8244 17.2498 62.8244 17.2498 62.8244 17.2498C62.8244 17.2498 62.8244 17.2498 62.8244 17.2498C62.8244 17.2499 62.8244 17.2499 62.8244 17.2499C62.8244 17.2499 62.8244 17.2499 62.8244 17.2499C62.8244 17.2499 62.8244 17.25 62.8244 17.25C62.8244 17.25 62.8244 17.25 62.8244 17.25C62.8244 17.25 62.8244 17.25 62.8244 17.2501C62.8244 17.2501 62.8244 17.2501 62.8244 17.2501C62.8244 17.2501 62.8244 17.2501 62.8244 17.2501C62.8244 17.2502 62.8244 17.2502 62.8244 17.2502C62.8244 17.2502 62.8244 17.2502 62.8244 17.2502C62.8244 17.2503 62.8244 17.2503 62.8244 17.2503C62.8244 17.2503 62.8244 17.2503 62.8244 17.2503C62.8244 17.2503 62.8244 17.2504 62.8244 17.2504C62.8244 17.2504 62.8244 17.2504 62.8244 17.2504C62.8244 17.2504 62.8244 17.2504 62.8244 17.2505C62.8244 17.2505 62.8244 17.2505 62.8244 17.2505C62.8244 17.2505 62.8244 17.2505 62.8244 17.2505C62.8244 17.2506 62.8244 17.2506 62.8244 17.2506C62.8244 17.2506 62.8244 17.2506 62.8244 17.2506C62.8244 17.2506 62.8244 17.2507 62.8244 17.2507C62.8244 17.2507 62.8244 17.2507 62.8244 17.2507C62.8244 17.2507 62.8244 17.2507 62.8244 17.2508C62.8244 17.2508 62.8244 17.2508 62.8244 17.2508C62.8244 17.2508 62.8244 17.2508 62.8244 17.2508C62.8244 17.2509 62.8244 17.2509 62.8244 17.2509C62.8244 17.2509 62.8244 17.2509 62.8244 17.2509C62.8244 17.2509 62.8244 17.251 62.8244 17.251C62.8244 17.251 62.8244 17.251 62.8244 17.251C62.8244 17.251 62.8244 17.251 62.8244 17.2511C62.8244 17.2511 62.8244 17.2511 62.8244 17.2511C62.8244 17.2511 62.8244 17.2511 62.8244 17.2511C62.8244 17.2512 62.8244 17.2512 62.8244 17.2512C62.8244 17.2512 62.8244 17.2512 62.8244 17.2512C62.8244 17.2513 62.8244 17.2513 62.8244 17.2513C62.8244 17.2513 62.8244 17.2513 62.8244 17.2513C62.8244 17.2513 62.8244 17.2514 62.8244 17.2514C62.8244 17.2514 62.8244 17.2514 62.8244 17.2514C62.8244 17.2514 62.8244 17.2514 62.8244 17.2515C62.8244 17.2515 62.8244 17.2515 62.8244 17.2515C62.8244 17.2515 62.8244 17.2515 62.8244 17.2515C62.8244 17.2516 62.8244 17.2516 62.8244 17.2516C62.8244 17.2516 62.8244 17.2516 62.8244 17.2516C62.8244 17.2516 62.8244 17.2517 62.8244 17.2517C62.8244 17.2517 62.8244 17.2517 62.8244 17.2517C62.8244 17.2517 62.8244 17.2517 62.8244 17.2518C62.8244 17.2518 62.8244 17.2518 62.8244 17.2518C62.8244 17.2518 62.8244 17.2518 62.8244 17.2518C62.8244 17.2519 62.8244 17.2519 62.8244 17.2519C62.8244 17.2519 62.8244 17.2519 62.8244 17.2519C62.8244 17.2519 62.8244 17.252 62.8244 17.252C62.8244 17.252 62.8244 17.252 62.8244 17.252C62.8244 17.252 62.8244 17.252 62.8244 17.2521C62.8244 17.2521 62.8244 17.2521 62.8244 17.2521C62.8244 17.2521 62.8244 17.2521 62.8244 17.2521C62.8244 17.2522 62.8244 17.2522 62.8244 17.2522C62.8244 17.2522 62.8244 17.2522 62.8244 17.2522C62.8244 17.2522 62.8244 17.2523 62.8244 17.2523C62.8244 17.2523 62.8244 17.2523 62.8244 17.2523C62.8244 17.2523 62.8244 17.2524 62.8244 17.2524C62.8244 17.2524 62.8244 17.2524 62.8244 17.2524C62.8244 17.2524 62.8244 17.2524 62.8244 17.2525C62.8244 17.2525 62.8244 17.2525 62.8244 17.2525C62.8244 17.2525 62.8244 17.2525 62.8244 17.2525C62.8244 17.2526 62.8244 17.2526 62.8244 17.2526C62.8244 17.2526 62.8244 17.2526 62.8244 17.2526C62.8244 17.2526 62.8244 17.2527 62.8244 17.2527C62.8244 17.2527 62.8244 17.2527 62.8244 17.2527C62.8244 17.2527 62.8244 17.2527 62.8244 17.2528C62.8244 17.2528 62.8244 17.2528 62.8244 17.2528H68.8244C68.8244 17.2528 68.8244 17.2528 68.8244 17.2528C68.8244 17.2527 68.8244 17.2527 68.8244 17.2527C68.8244 17.2527 68.8244 17.2527 68.8244 17.2527C68.8244 17.2527 68.8244 17.2526 68.8244 17.2526C68.8244 17.2526 68.8244 17.2526 68.8244 17.2526C68.8244 17.2526 68.8244 17.2526 68.8244 17.2525C68.8244 17.2525 68.8244 17.2525 68.8244 17.2525C68.8244 17.2525 68.8244 17.2525 68.8244 17.2525C68.8244 17.2524 68.8244 17.2524 68.8244 17.2524C68.8244 17.2524 68.8244 17.2524 68.8244 17.2524C68.8244 17.2524 68.8244 17.2523 68.8244 17.2523C68.8244 17.2523 68.8244 17.2523 68.8244 17.2523C68.8244 17.2523 68.8244 17.2522 68.8244 17.2522C68.8244 17.2522 68.8244 17.2522 68.8244 17.2522C68.8244 17.2522 68.8244 17.2522 68.8244 17.2521C68.8244 17.2521 68.8244 17.2521 68.8244 17.2521C68.8244 17.2521 68.8244 17.2521 68.8244 17.2521C68.8244 17.252 68.8244 17.252 68.8244 17.252C68.8244 17.252 68.8244 17.252 68.8244 17.252C68.8244 17.252 68.8244 17.2519 68.8244 17.2519C68.8244 17.2519 68.8244 17.2519 68.8244 17.2519C68.8244 17.2519 68.8244 17.2519 68.8244 17.2518C68.8244 17.2518 68.8244 17.2518 68.8244 17.2518C68.8244 17.2518 68.8244 17.2518 68.8244 17.2518C68.8244 17.2517 68.8244 17.2517 68.8244 17.2517C68.8244 17.2517 68.8244 17.2517 68.8244 17.2517C68.8244 17.2517 68.8244 17.2516 68.8244 17.2516C68.8244 17.2516 68.8244 17.2516 68.8244 17.2516C68.8244 17.2516 68.8244 17.2516 68.8244 17.2515C68.8244 17.2515 68.8244 17.2515 68.8244 17.2515C68.8244 17.2515 68.8244 17.2515 68.8244 17.2515C68.8244 17.2514 68.8244 17.2514 68.8244 17.2514C68.8244 17.2514 68.8244 17.2514 68.8244 17.2514C68.8244 17.2514 68.8244 17.2513 68.8244 17.2513C68.8244 17.2513 68.8244 17.2513 68.8244 17.2513C68.8244 17.2513 68.8244 17.2513 68.8244 17.2512C68.8244 17.2512 68.8244 17.2512 68.8244 17.2512C68.8244 17.2512 68.8244 17.2512 68.8244 17.2511C68.8244 17.2511 68.8244 17.2511 68.8244 17.2511C68.8244 17.2511 68.8244 17.2511 68.8244 17.2511C68.8244 17.251 68.8244 17.251 68.8244 17.251C68.8244 17.251 68.8244 17.251 68.8244 17.251C68.8244 17.251 68.8244 17.2509 68.8244 17.2509C68.8244 17.2509 68.8244 17.2509 68.8244 17.2509C68.8244 17.2509 68.8244 17.2509 68.8244 17.2508C68.8244 17.2508 68.8244 17.2508 68.8244 17.2508C68.8244 17.2508 68.8244 17.2508 68.8244 17.2508C68.8244 17.2507 68.8244 17.2507 68.8244 17.2507C68.8244 17.2507 68.8244 17.2507 68.8244 17.2507C68.8244 17.2507 68.8244 17.2506 68.8244 17.2506C68.8244 17.2506 68.8244 17.2506 68.8244 17.2506C68.8244 17.2506 68.8244 17.2506 68.8244 17.2505C68.8244 17.2505 68.8244 17.2505 68.8244 17.2505C68.8244 17.2505 68.8244 17.2505 68.8244 17.2505C68.8244 17.2504 68.8244 17.2504 68.8244 17.2504C68.8244 17.2504 68.8244 17.2504 68.8244 17.2504C68.8244 17.2504 68.8244 17.2503 68.8244 17.2503C68.8244 17.2503 68.8244 17.2503 68.8244 17.2503C68.8244 17.2503 68.8244 17.2503 68.8244 17.2502C68.8244 17.2502 68.8244 17.2502 68.8244 17.2502C68.8244 17.2502 68.8244 17.2502 68.8244 17.2501C68.8244 17.2501 68.8244 17.2501 68.8244 17.2501C68.8244 17.2501 68.8244 17.2501 68.8244 17.2501C68.8244 17.25 68.8244 17.25 68.8244 17.25C68.8244 17.25 68.8244 17.25 68.8244 17.25C68.8244 17.25 68.8244 17.2499 68.8244 17.2499C68.8244 17.2499 68.8244 17.2499 68.8244 17.2499C68.8244 17.2499 68.8244 17.2499 68.8244 17.2498C68.8244 17.2498 68.8244 17.2498 68.8244 17.2498C68.8244 17.2498 68.8244 17.2498 68.8244 17.2498C68.8244 17.2497 68.8244 17.2497 68.8244 17.2497C68.8244 17.2497 68.8244 17.2497 68.8244 17.2497C68.8244 17.2497 68.8244 17.2496 68.8244 17.2496C68.8244 17.2496 68.8244 17.2496 68.8244 17.2496C68.8244 17.2496 68.8244 17.2496 68.8244 17.2495C68.8244 17.2495 68.8244 17.2495 68.8244 17.2495C68.8244 17.2495 68.8244 17.2495 68.8244 17.2495C68.8244 17.2494 68.8244 17.2494 68.8244 17.2494C68.8244 17.2494 68.8244 17.2494 68.8244 17.2494C68.8244 17.2494 68.8244 17.2493 68.8244 17.2493C68.8244 17.2493 68.8244 17.2493 68.8244 17.2493C68.8244 17.2493 68.8244 17.2493 68.8244 17.2492C68.8244 17.2492 68.8244 17.2492 68.8244 17.2492C68.8244 17.2492 68.8244 17.2492 68.8244 17.2492C68.8244 17.2491 68.8244 17.2491 68.8244 17.2491C68.8244 17.2491 68.8244 17.2491 68.8244 17.2491C68.8244 17.249 68.8244 17.249 68.8244 17.249C68.8244 17.249 68.8244 17.249 68.8244 17.249C68.8244 17.249 68.8244 17.2489 68.8244 17.2489C68.8244 17.2489 68.8244 17.2489 68.8244 17.2489C68.8244 17.2489 68.8244 17.2489 68.8244 17.2488C68.8244 17.2488 68.8244 17.2488 68.8244 17.2488C68.8244 17.2488 68.8244 17.2488 68.8244 17.2488C68.8244 17.2487 68.8244 17.2487 68.8244 17.2487C68.8244 17.2487 68.8244 17.2487 68.8244 17.2487C68.8244 17.2487 68.8244 17.2486 68.8244 17.2486C68.8244 17.2486 68.8244 17.2486 68.8244 17.2486C68.8244 17.2486 68.8244 17.2486 68.8244 17.2485C68.8244 17.2485 68.8244 17.2485 68.8244 17.2485C68.8244 17.2485 68.8244 17.2485 68.8244 17.2485C68.8244 17.2484 68.8244 17.2484 68.8244 17.2484C68.8244 17.2484 68.8244 17.2484 68.8244 17.2484C68.8244 17.2484 68.8244 17.2483 68.8244 17.2483C68.8244 17.2483 68.8244 17.2483 68.8244 17.2483C68.8244 17.2483 68.8244 17.2483 68.8244 17.2482C68.8244 17.2482 68.8244 17.2482 68.8244 17.2482C68.8244 17.2482 68.8244 17.2482 68.8244 17.2482C68.8244 17.2481 68.8244 17.2481 68.8244 17.2481C68.8244 17.2481 68.8244 17.2481 68.8244 17.2481C68.8244 17.248 68.8244 17.248 68.8244 17.248C68.8244 17.248 68.8244 17.248 68.8244 17.248C68.8244 17.248 68.8244 17.2479 68.8244 17.2479C68.8244 17.2479 68.8244 17.2479 68.8244 17.2479C68.8244 17.2479 68.8244 17.2479 68.8244 17.2478C68.8244 17.2478 68.8244 17.2478 68.8244 17.2478C68.8244 17.2478 68.8244 17.2478 68.8244 17.2478C68.8244 17.2477 68.8244 17.2477 68.8244 17.2477C68.8244 17.2477 68.8244 17.2477 68.8244 17.2477C68.8244 17.2477 68.8244 17.2476 68.8244 17.2476C68.8244 17.2476 68.8244 17.2476 68.8244 17.2476C68.8244 17.2476 68.8244 17.2476 68.8244 17.2475C68.8244 17.2475 68.8244 17.2475 68.8244 17.2475C68.8244 17.2475 68.8244 17.2475 68.8244 17.2475C68.8244 17.2474 68.8244 17.2474 68.8244 17.2474C68.8244 17.2474 68.8244 17.2474 68.8244 17.2474C68.8244 17.2474 68.8244 17.2473 68.8244 17.2473C68.8244 17.2473 68.8244 17.2473 68.8244 17.2473C68.8244 17.2473 68.8244 17.2473 68.8244 17.2472C68.8244 17.2472 68.8244 17.2472 68.8244 17.2472C68.8244 17.2472 68.8244 17.2472 68.8244 17.2472C68.8244 17.2471 68.8244 17.2471 68.8244 17.2471C68.8244 17.2471 68.8244 17.2471 68.8244 17.2471C68.8244 17.2471 68.8244 17.247 68.8244 17.247C68.8244 17.247 68.8244 17.247 68.8244 17.247C68.8244 17.247 68.8244 17.2469 68.8244 17.2469C68.8244 17.2469 68.8244 17.2469 68.8244 17.2469C68.8244 17.2469 68.8244 17.2469 68.8244 17.2468C68.8244 17.2468 68.8244 17.2468 68.8244 17.2468C68.8244 17.2468 68.8244 17.2468 68.8244 17.2468C68.8244 17.2467 68.8244 17.2467 68.8244 17.2467C68.8244 17.2467 68.8244 17.2467 68.8244 17.2467C68.8244 17.2467 68.8244 17.2466 68.8244 17.2466C68.8244 17.2466 68.8244 17.2466 68.8244 17.2466C68.8244 17.2466 68.8244 17.2466 68.8244 17.2465C68.8244 17.2465 68.8244 17.2465 68.8244 17.2465C68.8244 17.2465 68.8244 17.2465 68.8244 17.2465C68.8244 17.2464 68.8244 17.2464 68.8244 17.2464C68.8244 17.2464 68.8244 17.2464 68.8244 17.2464C68.8244 17.2464 68.8244 17.2463 68.8244 17.2463C68.8244 17.2463 68.8244 17.2463 68.8244 17.2463C68.8244 17.2463 68.8244 17.2463 68.8244 17.2462C68.8244 17.2462 68.8244 17.2462 68.8244 17.2462C68.8244 17.2462 68.8244 17.2462 68.8244 17.2462C68.8244 17.2461 68.8244 17.2461 68.8244 17.2461C68.8244 17.2461 68.8244 17.2461 68.8244 17.2461C68.8244 17.2461 68.8244 17.246 68.8244 17.246C68.8244 17.246 68.8244 17.246 68.8244 17.246C68.8244 17.246 68.8244 17.2459 68.8244 17.2459C68.8244 17.2459 68.8244 17.2459 68.8244 17.2459C68.8244 17.2459 68.8244 17.2459 68.8244 17.2458C68.8244 17.2458 68.8244 17.2458 68.8244 17.2458C68.8244 17.2458 68.8244 17.2458 68.8244 17.2458C68.8244 17.2457 68.8244 17.2457 68.8244 17.2457C68.8244 17.2457 68.8244 17.2457 68.8244 17.2457C68.8244 17.2457 68.8244 17.2456 68.8244 17.2456C68.8244 17.2456 68.8244 17.2456 68.8244 17.2456C68.8244 17.2456 68.8244 17.2456 68.8244 17.2455C68.8244 17.2455 68.8244 17.2455 68.8244 17.2455C68.8244 17.2455 68.8244 17.2455 68.8244 17.2455C68.8244 17.2454 68.8244 17.2454 68.8244 17.2454C68.8244 17.2454 68.8244 17.2454 68.8244 17.2454C68.8244 17.2454 68.8244 17.2453 68.8244 17.2453C68.8244 17.2453 68.8244 17.2453 68.8244 17.2453C68.8244 17.2453 68.8244 17.2453 68.8244 17.2452C68.8244 17.2452 68.8244 17.2452 68.8244 17.2452C68.8244 17.2452 68.8244 17.2452 68.8244 17.2452C68.8244 17.2451 68.8244 17.2451 68.8244 17.2451C68.8244 17.2451 68.8244 17.2451 68.8244 17.2451C68.8244 17.2451 68.8244 17.245 68.8244 17.245C68.8244 17.245 68.8244 17.245 68.8244 17.245C68.8244 17.245 68.8244 17.245 68.8244 17.2449C68.8244 17.2449 68.8244 17.2449 68.8244 17.2449C68.8244 17.2449 68.8244 17.2449 68.8244 17.2448C68.8244 17.2448 68.8244 17.2448 68.8244 17.2448C68.8244 17.2448 68.8244 17.2448 68.8244 17.2448C68.8244 17.2447 68.8244 17.2447 68.8244 17.2447C68.8244 17.2447 68.8244 17.2447 68.8244 17.2447C68.8244 17.2447 68.8244 17.2446 68.8244 17.2446C68.8244 17.2446 68.8244 17.2446 68.8244 17.2446C68.8244 17.2446 68.8244 17.2446 68.8244 17.2445C68.8244 17.2445 68.8244 17.2445 68.8244 17.2445C68.8244 17.2445 68.8244 17.2445 68.8244 17.2445C68.8244 17.2444 68.8244 17.2444 68.8244 17.2444C68.8244 17.2444 68.8244 17.2444 68.8244 17.2444C68.8244 17.2444 68.8244 17.2443 68.8244 17.2443C68.8244 17.2443 68.8244 17.2443 68.8244 17.2443C68.8244 17.2443 68.8244 17.2443 68.8244 17.2442C68.8244 17.2442 68.8244 17.2442 68.8244 17.2442C68.8244 17.2442 68.8244 17.2442 68.8244 17.2442C68.8244 17.2441 68.8244 17.2441 68.8244 17.2441C68.8244 17.2441 68.8244 17.2441 68.8244 17.2441C68.8244 17.2441 68.8244 17.244 68.8244 17.244C68.8244 17.244 68.8244 17.244 68.8244 17.244C68.8244 17.244 68.8244 17.244 68.8244 17.2439C68.8244 17.2439 68.8244 17.2439 68.8244 17.2439C68.8244 17.2439 68.8244 17.2439 68.8244 17.2439C68.8244 17.2438 68.8244 17.2438 68.8244 17.2438C68.8244 17.2438 68.8244 17.2438 68.8244 17.2438C68.8244 17.2437 68.8244 17.2437 68.8244 17.2437C68.8244 17.2437 68.8244 17.2437 68.8244 17.2437C68.8244 17.2437 68.8244 17.2436 68.8244 17.2436C68.8244 17.2436 68.8244 17.2436 68.8244 17.2436C68.8244 17.2436 68.8244 17.2436 68.8244 17.2435C68.8244 17.2435 68.8244 17.2435 68.8244 17.2435C68.8244 17.2435 68.8244 17.2435 68.8244 17.2435C68.8244 17.2434 68.8244 17.2434 68.8244 17.2434C68.8244 17.2434 68.8244 17.2434 68.8244 17.2434C68.8244 17.2434 68.8244 17.2433 68.8244 17.2433C68.8244 17.2433 68.8244 17.2433 68.8244 17.2433C68.8244 17.2433 68.8244 17.2433 68.8244 17.2432C68.8244 17.2432 68.8244 17.2432 68.8244 17.2432C68.8244 17.2432 68.8244 17.2432 68.8244 17.2432C68.8244 17.2431 68.8244 17.2431 68.8244 17.2431C68.8244 17.2431 68.8244 17.2431 68.8244 17.2431C68.8244 17.2431 68.8244 17.243 68.8244 17.243C68.8244 17.243 68.8244 17.243 68.8244 17.243C68.8244 17.243 68.8244 17.243 68.8244 17.2429C68.8244 17.2429 68.8244 17.2429 68.8244 17.2429C68.8244 17.2429 68.8244 17.2429 68.8244 17.2429C68.8244 17.2428 68.8244 17.2428 68.8244 17.2428C68.8244 17.2428 68.8244 17.2428 68.8244 17.2428C68.8244 17.2427 68.8244 17.2427 68.8244 17.2427C68.8244 17.2427 68.8244 17.2427 68.8244 17.2427C68.8244 17.2427 68.8244 17.2426 68.8244 17.2426C68.8244 17.2426 68.8244 17.2426 68.8244 17.2426C68.8244 17.2426 68.8244 17.2426 68.8244 17.2425C68.8244 17.2425 68.8244 17.2425 68.8244 17.2425C68.8244 17.2425 68.8244 17.2425 68.8244 17.2425C68.8244 17.2424 68.8244 17.2424 68.8244 17.2424C68.8244 17.2424 68.8244 17.2424 68.8244 17.2424C68.8244 17.2424 68.8244 17.2423 68.8244 17.2423C68.8244 17.2423 68.8244 17.2423 68.8244 17.2423C68.8244 17.2423 68.8244 17.2423 68.8244 17.2422C68.8244 17.2422 68.8244 17.2422 68.8244 17.2422C68.8244 17.2422 68.8244 17.2422 68.8244 17.2422C68.8244 17.2421 68.8244 17.2421 68.8244 17.2421C68.8244 17.2421 68.8244 17.2421 68.8244 17.2421C68.8244 17.2421 68.8244 17.242 68.8244 17.242C68.8244 17.242 68.8244 17.242 68.8244 17.242C68.8244 17.242 68.8244 17.242 68.8244 17.2419C68.8244 17.2419 68.8244 17.2419 68.8244 17.2419C68.8244 17.2419 68.8244 17.2419 68.8244 17.2419C68.8244 17.2418 68.8244 17.2418 68.8244 17.2418C68.8244 17.2418 68.8244 17.2418 68.8244 17.2418C68.8244 17.2418 68.8244 17.2417 68.8244 17.2417C68.8244 17.2417 68.8244 17.2417 68.8244 17.2417C68.8244 17.2417 68.8244 17.2416 68.8244 17.2416C68.8244 17.2416 68.8244 17.2416 68.8244 17.2416C68.8244 17.2416 68.8244 17.2416 68.8244 17.2415C68.8244 17.2415 68.8244 17.2415 68.8244 17.2415C68.8244 17.2415 68.8244 17.2415 68.8244 17.2415C68.8244 17.2414 68.8244 17.2414 68.8244 17.2414C68.8244 17.2414 68.8244 17.2414 68.8244 17.2414C68.8244 17.2414 68.8244 17.2413 68.8244 17.2413C68.8244 17.2413 68.8244 17.2413 68.8244 17.2413C68.8244 17.2413 68.8244 17.2413 68.8244 17.2412C68.8244 17.2412 68.8244 17.2412 68.8244 17.2412C68.8244 17.2412 68.8244 17.2412 68.8244 17.2412C68.8244 17.2411 68.8244 17.2411 68.8244 17.2411C68.8244 17.2411 68.8244 17.2411 68.8244 17.2411C68.8244 17.2411 68.8244 17.241 68.8244 17.241C68.8244 17.241 68.8244 17.241 68.8244 17.241C68.8244 17.241 68.8244 17.241 68.8244 17.2409C68.8244 17.2409 68.8244 17.2409 68.8244 17.2409C68.8244 17.2409 68.8244 17.2409 68.8244 17.2409C68.8244 17.2408 68.8244 17.2408 68.8244 17.2408C68.8244 17.2408 68.8244 17.2408 68.8244 17.2408C68.8244 17.2408 68.8244 17.2407 68.8244 17.2407C68.8244 17.2407 68.8244 17.2407 68.8244 17.2407C68.8244 17.2407 68.8244 17.2406 68.8244 17.2406C68.8244 17.2406 68.8244 17.2406 68.8244 17.2406C68.8244 17.2406 68.8244 17.2406 68.8244 17.2405C68.8244 17.2405 68.8244 17.2405 68.8244 17.2405C68.8244 17.2405 68.8244 17.2405 68.8244 17.2405C68.8244 17.2404 68.8244 17.2404 68.8244 17.2404C68.8244 17.2404 68.8244 17.2404 68.8244 17.2404C68.8244 17.2404 68.8244 17.2403 68.8244 17.2403C68.8244 17.2403 68.8244 17.2403 68.8244 17.2403C68.8244 17.2403 68.8244 17.2403 68.8244 17.2402C68.8244 17.2402 68.8244 17.2402 68.8244 17.2402C68.8244 17.2402 68.8244 17.2402 68.8244 17.2402C68.8244 17.2401 68.8244 17.2401 68.8244 17.2401C68.8244 17.2401 68.8244 17.2401 68.8244 17.2401C68.8244 17.2401 68.8244 17.24 68.8244 17.24C68.8244 17.24 68.8244 17.24 68.8244 17.24C68.8244 17.24 68.8244 17.24 68.8244 17.2399C68.8244 17.2399 68.8244 17.2399 68.8244 17.2399C68.8244 17.2399 68.8244 17.2399 68.8244 17.2399C68.8244 17.2398 68.8244 17.2398 68.8244 17.2398C68.8244 17.2398 68.8244 17.2398 68.8244 17.2398C68.8244 17.2398 68.8244 17.2397 68.8244 17.2397C68.8244 17.2397 68.8244 17.2397 68.8244 17.2397C68.8244 17.2397 68.8244 17.2397 68.8244 17.2396C68.8244 17.2396 68.8244 17.2396 68.8244 17.2396C68.8244 17.2396 68.8244 17.2396 68.8244 17.2395C68.8244 17.2395 68.8244 17.2395 68.8244 17.2395C68.8244 17.2395 68.8244 17.2395 68.8244 17.2395C68.8244 17.2394 68.8244 17.2394 68.8244 17.2394C68.8244 17.2394 68.8244 17.2394 68.8244 17.2394C68.8244 17.2394 68.8244 17.2393 68.8244 17.2393C68.8244 17.2393 68.8244 17.2393 68.8244 17.2393C68.8244 17.2393 68.8244 17.2393 68.8244 17.2392C68.8244 17.2392 68.8244 17.2392 68.8244 17.2392C68.8244 17.2392 68.8244 17.2392 68.8244 17.2392C68.8244 17.2391 68.8244 17.2391 68.8244 17.2391C68.8244 17.2391 68.8244 17.2391 68.8244 17.2391C68.8244 17.2391 68.8244 17.239 68.8244 17.239C68.8244 17.239 68.8244 17.239 68.8244 17.239C68.8244 17.239 68.8244 17.239 68.8244 17.2389C68.8244 17.2389 68.8244 17.2389 68.8244 17.2389C68.8244 17.2389 68.8244 17.2389 68.8244 17.2389C68.8244 17.2388 68.8244 17.2388 68.8244 17.2388C68.8244 17.2388 68.8244 17.2388 68.8244 17.2388C68.8244 17.2388 68.8244 17.2387 68.8244 17.2387C68.8244 17.2387 68.8244 17.2387 68.8244 17.2387C68.8244 17.2387 68.8244 17.2387 68.8244 17.2386C68.8244 17.2386 68.8244 17.2386 68.8244 17.2386C68.8244 17.2386 68.8244 17.2386 68.8244 17.2385C68.8244 17.2385 68.8244 17.2385 68.8244 17.2385C68.8244 17.2385 68.8244 17.2385 68.8244 17.2385C68.8244 17.2384 68.8244 17.2384 68.8244 17.2384C68.8244 17.2384 68.8244 17.2384 68.8244 17.2384C68.8244 17.2384 68.8244 17.2383 68.8244 17.2383C68.8244 17.2383 68.8244 17.2383 68.8244 17.2383C68.8244 17.2383 68.8244 17.2383 68.8244 17.2382C68.8244 17.2382 68.8244 17.2382 68.8244 17.2382C68.8244 17.2382 68.8244 17.2382 68.8244 17.2382C68.8244 17.2381 68.8244 17.2381 68.8244 17.2381C68.8244 17.2381 68.8244 17.2381 68.8244 17.2381C68.8244 17.2381 68.8244 17.238 68.8244 17.238C68.8244 17.238 68.8244 17.238 68.8244 17.238C68.8244 17.238 68.8244 17.238 68.8244 17.2379C68.8244 17.2379 68.8244 17.2379 68.8244 17.2379C68.8244 17.2379 68.8244 17.2379 68.8244 17.2379C68.8244 17.2378 68.8244 17.2378 68.8244 17.2378C68.8244 17.2378 68.8244 17.2378 68.8244 17.2378C68.8244 17.2378 68.8244 17.2377 68.8244 17.2377C68.8244 17.2377 68.8244 17.2377 68.8244 17.2377C68.8244 17.2377 68.8244 17.2377 68.8244 17.2376C68.8244 17.2376 68.8244 17.2376 68.8244 17.2376C68.8244 17.2376 68.8244 17.2376 68.8244 17.2376C68.8244 17.2375 68.8244 17.2375 68.8244 17.2375C68.8244 17.2375 68.8244 17.2375 68.8244 17.2375C68.8244 17.2374 68.8244 17.2374 68.8244 17.2374C68.8244 17.2374 68.8244 17.2374 68.8244 17.2374C68.8244 17.2374 68.8244 17.2373 68.8244 17.2373C68.8244 17.2373 68.8244 17.2373 68.8244 17.2373C68.8244 17.2373 68.8244 17.2373 68.8244 17.2372C68.8244 17.2372 68.8244 17.2372 68.8244 17.2372C68.8244 17.2372 68.8244 17.2372 68.8244 17.2372C68.8244 17.2371 68.8244 17.2371 68.8244 17.2371C68.8244 17.2371 68.8244 17.2371 68.8244 17.2371C68.8244 17.2371 68.8244 17.237 68.8244 17.237C68.8244 17.237 68.8244 17.237 68.8244 17.237C68.8244 17.237 68.8244 17.237 68.8244 17.2369C68.8244 17.2369 68.8244 17.2369 68.8244 17.2369C68.8244 17.2369 68.8244 17.2369 68.8244 17.2369C68.8244 17.2368 68.8244 17.2368 68.8244 17.2368C68.8244 17.2368 68.8244 17.2368 68.8244 17.2368C68.8244 17.2368 68.8244 17.2367 68.8244 17.2367C68.8244 17.2367 68.8244 17.2367 68.8244 17.2367C68.8244 17.2367 68.8244 17.2367 68.8244 17.2366C68.8244 17.2366 68.8244 17.2366 68.8244 17.2366C68.8244 17.2366 68.8244 17.2366 68.8244 17.2366C68.8244 17.2365 68.8244 17.2365 68.8244 17.2365C68.8244 17.2365 68.8244 17.2365 68.8244 17.2365C68.8244 17.2365 68.8244 17.2364 68.8244 17.2364C68.8244 17.2364 68.8244 17.2364 68.8244 17.2364C68.8244 17.2364 68.8244 17.2363 68.8244 17.2363C68.8244 17.2363 68.8244 17.2363 68.8244 17.2363C68.8244 17.2363 68.8244 17.2363 68.8244 17.2362C68.8244 17.2362 68.8244 17.2362 68.8244 17.2362C68.8244 17.2362 68.8244 17.2362 68.8244 17.2362C68.8244 17.2361 68.8244 17.2361 68.8244 17.2361C68.8244 17.2361 68.8244 17.2361 68.8244 17.2361C68.8244 17.2361 68.8244 17.236 68.8244 17.236C68.8244 17.236 68.8244 17.236 68.8244 17.236C68.8244 17.236 68.8244 17.236 68.8244 17.2359C68.8244 17.2359 68.8244 17.2359 68.8244 17.2359C68.8244 17.2359 68.8244 17.2359 68.8244 17.2359C68.8244 17.2358 68.8244 17.2358 68.8244 17.2358C68.8244 17.2358 68.8244 17.2358 68.8244 17.2358C68.8244 17.2358 68.8244 17.2357 68.8244 17.2357C68.8244 17.2357 68.8244 17.2357 68.8244 17.2357C68.8244 17.2357 68.8244 17.2357 68.8244 17.2356C68.8244 17.2356 68.8244 17.2356 68.8244 17.2356C68.8244 17.2356 68.8244 17.2356 68.8244 17.2356C68.8244 17.2355 68.8244 17.2355 68.8244 17.2355C68.8244 17.2355 68.8244 17.2355 68.8244 17.2355C68.8244 17.2355 68.8244 17.2354 68.8244 17.2354C68.8244 17.2354 68.8244 17.2354 68.8244 17.2354C68.8244 17.2354 68.8244 17.2353 68.8244 17.2353C68.8244 17.2353 68.8244 17.2353 68.8244 17.2353C68.8244 17.2353 68.8244 17.2353 68.8244 17.2352C68.8244 17.2352 68.8244 17.2352 68.8244 17.2352C68.8244 17.2352 68.8244 17.2352 68.8244 17.2352C68.8244 17.2351 68.8244 17.2351 68.8244 17.2351C68.8244 17.2351 68.8244 17.2351 68.8244 17.2351C68.8244 17.2351 68.8244 17.235 68.8244 17.235C68.8244 17.235 68.8244 17.235 68.8244 17.235C68.8244 17.235 68.8244 17.235 68.8244 17.2349C68.8244 17.2349 68.8244 17.2349 68.8244 17.2349C68.8244 17.2349 68.8244 17.2349 68.8244 17.2349C68.8244 17.2348 68.8244 17.2348 68.8244 17.2348C68.8244 17.2348 68.8244 17.2348 68.8244 17.2348C68.8244 17.2348 68.8244 17.2347 68.8244 17.2347C68.8244 17.2347 68.8244 17.2347 68.8244 17.2347C68.8244 17.2347 68.8244 17.2347 68.8244 17.2346C68.8244 17.2346 68.8244 17.2346 68.8244 17.2346C68.8244 17.2346 68.8244 17.2346 68.8244 17.2346C68.8244 17.2345 68.8244 17.2345 68.8244 17.2345C68.8244 17.2345 68.8244 17.2345 68.8244 17.2345C68.8244 17.2345 68.8244 17.2344 68.8244 17.2344C68.8244 17.2344 68.8244 17.2344 68.8244 17.2344C68.8244 17.2344 68.8244 17.2344 68.8244 17.2343C68.8244 17.2343 68.8244 17.2343 68.8244 17.2343C68.8244 17.2343 68.8244 17.2343 68.8244 17.2342C68.8244 17.2342 68.8244 17.2342 68.8244 17.2342C68.8244 17.2342 68.8244 17.2342 68.8244 17.2342C68.8244 17.2341 68.8244 17.2341 68.8244 17.2341C68.8244 17.2341 68.8244 17.2341 68.8244 17.2341C68.8244 17.2341 68.8244 17.234 68.8244 17.234C68.8244 17.234 68.8244 17.234 68.8244 17.234C68.8244 17.234 68.8244 17.234 68.8244 17.2339C68.8244 17.2339 68.8244 17.2339 68.8244 17.2339C68.8244 17.2339 68.8244 17.2339 68.8244 17.2339C68.8244 17.2338 68.8244 17.2338 68.8244 17.2338C68.8244 17.2338 68.8244 17.2338 68.8244 17.2338C68.8244 17.2338 68.8244 17.2337 68.8244 17.2337C68.8244 17.2337 68.8244 17.2337 68.8244 17.2337C68.8244 17.2337 68.8244 17.2337 68.8244 17.2336C68.8244 17.2336 68.8244 17.2336 68.8244 17.2336C68.8244 17.2336 68.8244 17.2336 68.8244 17.2336C68.8244 17.2335 68.8244 17.2335 68.8244 17.2335C68.8244 17.2335 68.8244 17.2335 68.8244 17.2335C68.8244 17.2335 68.8244 17.2334 68.8244 17.2334C68.8244 17.2334 68.8244 17.2334 68.8244 17.2334C68.8244 17.2334 68.8244 17.2334 68.8244 17.2333C68.8244 17.2333 68.8244 17.2333 68.8244 17.2333C68.8244 17.2333 68.8244 17.2333 68.8244 17.2332C68.8244 17.2332 68.8244 17.2332 68.8244 17.2332C68.8244 17.2332 68.8244 17.2332 68.8244 17.2332C68.8244 17.2331 68.8244 17.2331 68.8244 17.2331C68.8244 17.2331 68.8244 17.2331 68.8244 17.2331C68.8244 17.2331 68.8244 17.233 68.8244 17.233C68.8244 17.233 68.8244 17.233 68.8244 17.233C68.8244 17.233 68.8244 17.233 68.8244 17.2329C68.8244 17.2329 68.8244 17.2329 68.8244 17.2329C68.8244 17.2329 68.8244 17.2329 68.8244 17.2329C68.8244 17.2328 68.8244 17.2328 68.8244 17.2328C68.8244 17.2328 68.8244 17.2328 68.8244 17.2328C68.8244 17.2328 68.8244 17.2327 68.8244 17.2327C68.8244 17.2327 68.8244 17.2327 68.8244 17.2327C68.8244 17.2327 68.8244 17.2327 68.8244 17.2326C68.8244 17.2326 68.8244 17.2326 68.8244 17.2326C68.8244 17.2326 68.8244 17.2326 68.8244 17.2326C68.8244 17.2325 68.8244 17.2325 68.8244 17.2325C68.8244 17.2325 68.8244 17.2325 68.8244 17.2325C68.8244 17.2325 68.8244 17.2324 68.8244 17.2324C68.8244 17.2324 68.8244 17.2324 68.8244 17.2324C68.8244 17.2324 68.8244 17.2324 68.8244 17.2323C68.8244 17.2323 68.8244 17.2323 68.8244 17.2323C68.8244 17.2323 68.8244 17.2323 68.8244 17.2323C68.8244 17.2322 68.8244 17.2322 68.8244 17.2322C68.8244 17.2322 68.8244 17.2322 68.8244 17.2322C68.8244 17.2321 68.8244 17.2321 68.8244 17.2321C68.8244 17.2321 68.8244 17.2321 68.8244 17.2321C68.8244 17.2321 68.8244 17.232 68.8244 17.232C68.8244 17.232 68.8244 17.232 68.8244 17.232C68.8244 17.232 68.8244 17.232 68.8244 17.2319C68.8244 17.2319 68.8244 17.2319 68.8244 17.2319C68.8244 17.2319 68.8244 17.2319 68.8244 17.2319C68.8244 17.2318 68.8244 17.2318 68.8244 17.2318C68.8244 17.2318 68.8244 17.2318 68.8244 17.2318C68.8244 17.2318 68.8244 17.2317 68.8244 17.2317C68.8244 17.2317 68.8244 17.2317 68.8244 17.2317C68.8244 17.2317 68.8244 17.2317 68.8244 17.2316C68.8244 17.2316 68.8244 17.2316 68.8244 17.2316C68.8244 17.2316 68.8244 17.2316 68.8244 17.2316C68.8244 17.2315 68.8244 17.2315 68.8244 17.2315C68.8244 17.2315 68.8244 17.2315 68.8244 17.2315C68.8244 17.2315 68.8244 17.2314 68.8244 17.2314C68.8244 17.2314 68.8244 17.2314 68.8244 17.2314C68.8244 17.2314 68.8244 17.2314 68.8244 17.2313C68.8244 17.2313 68.8244 17.2313 68.8244 17.2313C68.8244 17.2313 68.8244 17.2313 68.8244 17.2313C68.8244 17.2312 68.8244 17.2312 68.8244 17.2312C68.8244 17.2312 68.8244 17.2312 68.8244 17.2312C68.8244 17.2311 68.8244 17.2311 68.8244 17.2311C68.8244 17.2311 68.8244 17.2311 68.8244 17.2311C68.8244 17.2311 68.8244 17.231 68.8244 17.231C68.8244 17.231 68.8244 17.231 68.8244 17.231C68.8244 17.231 68.8244 17.231 68.8244 17.2309C68.8244 17.2309 68.8244 17.2309 68.8244 17.2309C68.8244 17.2309 68.8244 17.2309 68.8244 17.2309C68.8244 17.2308 68.8244 17.2308 68.8244 17.2308C68.8244 17.2308 68.8244 17.2308 68.8244 17.2308C68.8244 17.2308 68.8244 17.2307 68.8244 17.2307C68.8244 17.2307 68.8244 17.2307 68.8244 17.2307C68.8244 17.2307 68.8244 17.2307 68.8244 17.2306C68.8244 17.2306 68.8244 17.2306 68.8244 17.2306C68.8244 17.2306 68.8244 17.2306 68.8244 17.2306H62.8244ZM62.8244 17.2428C62.8217 18.0448 62.8478 18.8599 62.8703 19.5982C62.8934 20.3587 62.9128 21.0395 62.9061 21.6701L68.9058 21.7335C68.914 20.9602 68.8901 20.1579 68.8675 19.4157C68.8442 18.6512 68.8221 17.9438 68.8244 17.2628L62.8244 17.2428ZM62.9061 21.669C62.8738 24.6303 62.8639 27.5917 62.8763 30.5505L68.8763 30.5253C68.864 27.5967 68.8738 24.6656 68.9058 21.7345L62.9061 21.669ZM62.8763 30.5504C62.8791 31.2246 62.9157 31.9029 62.9424 32.4658C62.9705 33.0611 62.9893 33.5546 62.9785 34.0113L68.9768 34.1532C68.9932 33.4605 68.9637 32.7751 68.9357 32.1822C68.9061 31.5569 68.8784 31.0376 68.8763 30.5254L62.8763 30.5504ZM62.9785 34.0108C62.9201 36.4614 63.0257 39.8433 63.0172 41.5365L69.0171 41.5667C69.0284 39.3348 68.9165 36.686 68.9768 34.1537L62.9785 34.0108ZM63.0172 41.5375C62.9903 47.256 62.7604 52.9919 62.5229 58.7745L68.5178 59.0207C68.7549 53.2508 68.9897 47.4095 69.0171 41.5657L63.0172 41.5375ZM62.5229 58.7743C62.4769 59.8921 62.5269 61.0717 62.5487 62.0087C62.5721 63.0169 62.5682 63.844 62.4749 64.5813L68.4274 65.3348C68.5812 64.1195 68.5712 62.9075 68.5471 61.8692C68.5213 60.7597 68.4823 59.8853 68.5178 59.0209L62.5229 58.7743ZM62.4755 64.5771C62.2831 66.0797 61.8514 67.5114 61.1706 68.8872L66.5482 71.5482C67.5234 69.5775 68.1497 67.5043 68.4269 65.3391L62.4755 64.5771ZM16.485 27.3529C16.4643 28.0037 16.4861 28.591 16.4977 29.0578C16.5096 29.5396 16.5148 29.9898 16.4834 30.543L22.4737 30.8838C22.5188 30.0899 22.5092 29.4514 22.4958 28.9093C22.482 28.3523 22.468 27.9805 22.4819 27.5438L16.485 27.3529ZM16.4837 30.5364C16.4329 31.3958 16.4341 32.2457 16.4378 33.0089C16.4416 33.8008 16.448 34.494 16.4214 35.1798L22.417 35.4119C22.4497 34.5652 22.4413 33.7198 22.4377 32.9799C22.434 32.2113 22.4351 31.5363 22.4733 30.8904L16.4837 30.5364ZM16.421 35.1929C16.4064 35.6174 16.4341 36.0222 16.4503 36.264C16.471 36.5727 16.4755 36.6595 16.4743 36.7107L22.4728 36.847C22.4815 36.4631 22.4502 36.0605 22.4369 35.8625C22.4191 35.5977 22.4147 35.4785 22.4174 35.3987L16.421 35.1929ZM16.4744 36.709C16.4398 38.1933 16.2796 40.679 16.3337 42.79L22.3317 42.6364C22.282 40.694 22.4282 38.7604 22.4728 36.8487L16.4744 36.709ZM16.3337 42.7896C16.3845 44.7875 16.3943 46.7878 16.3676 48.7906L22.367 48.8706C22.3947 46.7951 22.3847 44.7172 22.3317 42.6369L16.3337 42.7896ZM16.3676 48.7871C16.3014 53.357 16.3268 57.1765 16.2443 61.4472L22.2432 61.5631C22.3238 57.3907 22.3047 53.1724 22.367 48.874L16.3676 48.7871ZM16.2443 61.4457C16.2195 62.6955 16.4014 64.2843 16.4462 65.0818L22.4367 64.7454C22.353 63.2541 22.2234 62.5591 22.2431 61.5646L16.2443 61.4457ZM16.4459 65.0768C16.5087 66.23 16.6425 67.295 16.8861 68.2094L22.6839 66.6648C22.5864 66.2989 22.4878 65.6833 22.437 64.7503L16.4459 65.0768ZM16.8882 68.2172C17.3167 69.8085 17.9144 71.3298 18.6767 72.7801L23.9878 69.9886C23.4302 68.9277 22.9948 67.8192 22.6818 66.657L16.8882 68.2172ZM18.6766 72.7799C20.6227 76.4831 24.3863 79.9845 28.4252 81.4874L30.5176 75.8641C27.9671 74.915 25.2994 72.4845 23.9879 69.9888L18.6766 72.7799ZM28.4268 81.488C28.7005 81.5897 28.9744 81.7125 29.3516 81.8843C29.7007 82.0432 30.1589 82.2537 30.6544 82.4401L32.767 76.8244C32.4939 76.7216 32.2217 76.5984 31.8379 76.4237C31.4823 76.2618 31.0208 76.051 30.5159 75.8634L28.4268 81.488ZM30.6457 82.4368C31.1291 82.6204 31.5745 82.82 31.9794 83.0312L34.754 77.7113C34.1258 77.3837 33.4639 77.089 32.7757 76.8277L30.6457 82.4368ZM31.9839 83.0336C32.8278 83.4719 33.7318 83.8228 34.4799 84.0993C35.3104 84.4064 35.8644 84.5942 36.3362 84.7926L38.6624 79.2619C38.0294 78.9957 37.1857 78.7028 36.5604 78.4716C35.8526 78.2099 35.2428 77.9652 34.7495 77.709L31.9839 83.0336ZM36.3337 84.7916C37.6183 85.3332 38.4503 85.6906 38.8641 85.8785L41.3447 80.4153C40.844 80.188 39.936 79.7989 38.6649 79.263L36.3337 84.7916ZM38.862 85.8775C40.3513 86.5552 41.7175 86.4974 42.8697 86.1749C43.3791 86.0323 43.8338 85.842 44.163 85.6996C44.5441 85.5348 44.7513 85.4382 45.0144 85.3363L42.8467 79.7415C42.44 79.8991 42.0159 80.0911 41.7815 80.1924C41.4952 80.3163 41.3501 80.3697 41.2524 80.397C41.1748 80.4187 41.1931 80.4042 41.2638 80.4074C41.344 80.4111 41.381 80.4318 41.3469 80.4163L38.862 85.8775ZM45.011 85.3376C45.3998 85.1875 45.8116 84.9885 46.0442 84.8799C46.3341 84.7445 46.5076 84.6698 46.6429 84.624L44.718 78.9411C44.2404 79.1029 43.8045 79.3038 43.5056 79.4434C43.1493 79.6098 42.9927 79.6852 42.8501 79.7402L45.011 85.3376ZM46.6455 84.6231C47.5709 84.3087 48.4627 83.9492 49.2564 83.6328C50.0766 83.3058 50.8076 83.0182 51.5424 82.7791L49.6854 77.0737C48.7419 77.3808 47.8428 77.7371 47.0342 78.0595C46.1991 78.3925 45.4633 78.6879 44.7154 78.942L46.6455 84.6231ZM51.5443 82.7784C55.7202 81.4162 59.8179 79.7558 63.0885 75.6309L58.387 71.9032C56.2644 74.5802 53.6146 75.7919 49.6835 77.0743L51.5443 82.7784ZM63.0883 75.6311C66.317 71.5598 67.4868 67.4473 67.6171 62.5992L61.6193 62.4379C61.5173 66.2307 60.6703 69.024 58.3872 71.9029L63.0883 75.6311ZM67.6172 62.5979C67.6947 59.6678 67.7198 56.7376 67.6922 53.8075L61.6925 53.8638C61.7194 56.7223 61.6949 59.5807 61.6193 62.4392L67.6172 62.5979ZM67.6922 53.8067C67.646 49.0178 67.8065 44.2631 67.953 39.4026L61.9557 39.2219C61.8105 44.0404 61.6448 48.93 61.6925 53.8646L67.6922 53.8067ZM67.9529 39.4069C67.9792 38.5722 67.9628 37.7241 67.9459 36.9707C67.9283 36.1856 67.9108 35.5203 67.9217 34.9206L61.9227 34.8109C61.909 35.5632 61.931 36.3772 61.9474 37.1054C61.9645 37.8652 61.9765 38.5644 61.9559 39.2176L67.9529 39.4069ZM67.9218 34.9186C67.9643 32.5065 67.9743 30.092 67.9518 27.6799L61.952 27.7358C61.974 30.0941 61.9642 32.4547 61.9227 34.8129L67.9218 34.9186ZM67.9517 27.6784C67.9373 26.2097 67.9601 24.6733 67.9822 23.0704C68.0041 21.4819 68.0252 19.8335 68.0035 18.2065L62.0041 18.2863C62.0245 19.8205 62.0048 21.3915 61.9828 22.9877C61.961 24.5695 61.9368 26.1832 61.952 27.7373L67.9517 27.6784ZM68.0038 18.2464C68.0038 17.7414 67.8778 16.8648 67.1661 16.1016C66.4621 15.3466 65.6103 15.16 65.1315 15.119L64.6191 21.097C64.2267 21.0634 63.4392 20.9027 62.7778 20.1935C62.1088 19.476 62.0038 18.6649 62.0038 18.2464H68.0038ZM65.109 15.1171C63.3112 14.9766 60.6722 15.031 59.8252 15.0123L59.6928 21.0109C61.085 21.0416 63.0236 20.9724 64.6415 21.0989L65.109 15.1171ZM59.8234 15.0123C55.5514 14.9205 52.2012 14.9068 49.798 14.9783L49.9764 20.9757C52.2249 20.9088 55.4541 20.9198 59.6945 21.0109L59.8234 15.0123ZM49.7982 14.9783C47.6713 15.0415 46.2137 15.0896 44.8461 15.0226L44.5523 21.0154C46.21 21.0967 47.9409 21.0361 49.9762 20.9757L49.7982 14.9783ZM44.8481 15.0227C44.3248 14.9967 43.6482 15.0025 42.8686 15.028L43.0646 21.0248C43.7976 21.0009 44.2778 21.0018 44.5503 21.0153L44.8481 15.0227ZM42.8711 15.0279C38.5418 15.1657 32.9324 15.0101 27.4103 15.096L27.5036 21.0953C32.4713 21.018 38.8494 21.159 43.062 21.0249L42.8711 15.0279ZM27.4079 15.096C25.1741 15.1326 22.9407 15.1326 20.7025 15.1009L20.6174 21.1003C22.9123 21.1328 25.2069 21.1328 27.5061 21.0952L27.4079 15.096ZM20.66 15.1006C20.2204 15.1006 19.7248 15.179 19.3502 15.2451L20.3929 21.1538C20.5503 21.126 20.6576 21.1101 20.7232 21.1019C20.7552 21.0979 20.7675 21.097 20.7637 21.0973C20.7631 21.0974 20.7246 21.1006 20.66 21.1006V15.1006ZM19.3646 15.2426C18.8357 15.3332 18.1858 15.5825 17.634 16.1409C17.0844 16.6971 16.8453 17.3445 16.7591 17.862L22.6774 18.8484C22.606 19.2768 22.4003 19.8537 21.902 20.3581C21.4015 20.8645 20.8208 21.0805 20.3784 21.1563L19.3646 15.2426ZM16.7639 17.8338C16.6821 18.2975 16.6525 18.7647 16.6491 19.2077L22.649 19.2525C22.6506 19.0331 22.6655 18.917 22.6726 18.8765L16.7639 17.8338ZM16.6491 19.2171C16.6394 21.4535 16.5857 24.1636 16.485 27.3536L22.482 27.5431C22.5839 24.3167 22.639 21.5496 22.649 19.2432L16.6491 19.2171Z" fill="#EAFE01" mask="url(#path-2-outside-2_192_325)"/>
</svg>
