<svg width="82" height="103" viewBox="0 0 82 103" fill="none" xmlns="http://www.w3.org/2000/svg">
<mask id="path-1-outside-1_192_352" maskUnits="userSpaceOnUse" x="0.564453" y="0.841797" width="81" height="101" fill="black">
<rect fill="white" x="0.564453" y="0.841797" width="81" height="101"/>
<path d="M26.5241 5.93474C26.5438 5.59613 26.7391 5.41816 27.1099 5.40333C29.4258 5.30447 31.6379 5.41076 34.0527 5.35144C35.506 5.31683 37.0137 5.41817 38.3929 5.36874C40.091 5.31189 41.789 5.28223 43.487 5.2847C43.7243 5.2847 43.9591 5.30201 44.1914 5.33908C44.7871 5.433 45.3086 5.20561 45.9339 5.24763C46.4851 5.28471 46.8336 5.29952 46.977 5.29458C52.4986 5.05977 57.9486 5.21549 63.5395 5.03506C64.3873 5.00787 65.2301 5.09191 66.063 5.28965C66.1446 5.30695 66.2262 5.302 66.3028 5.27234C66.6315 5.14135 66.9256 5.04743 67.2914 5.04496C69.2811 5.0326 71.3153 5.11663 73.3 4.96833C73.7326 4.9362 74.1676 4.92384 74.6001 4.9362C75.8038 4.96833 76.6343 4.92384 77.6773 4.84228C77.7861 4.83486 77.8775 4.91395 77.8874 5.02023C77.8874 5.02517 77.8874 5.03012 77.8874 5.03506C77.922 13.0679 78.0752 21.1255 77.9863 29.1732C77.9788 29.7935 77.9961 31.0838 78.0332 33.0462C78.0678 34.7715 77.9714 36.6277 77.9863 38.212C78.0134 40.7207 78.006 43.227 77.9665 45.7357C77.9492 46.9048 78.0555 48.2988 78.0233 49.2776C77.9863 50.4318 77.9714 51.4056 77.9813 52.2015C78.0283 55.6124 77.9962 59.0258 78.0308 62.4391C78.0678 65.8969 77.2522 69.2065 76.0559 73.2031C75.6777 74.4711 75.2378 75.5907 74.736 76.567C74.0465 77.9141 73.2877 79.2191 72.4621 80.487C71.911 81.3348 71.1522 82.1381 70.4947 82.9636C68.7052 85.2104 66.0853 87.3088 63.668 88.8313C62.6299 89.4863 61.1543 90.2105 59.2388 91.0089C53.9297 93.2185 49.2484 95.1983 43.2423 97.445C42.8024 97.6082 42.2561 97.9196 41.747 98.1321C41.6679 98.1643 41.5888 98.1667 41.5097 98.1346C35.1254 95.705 28.7313 93.3025 22.5447 90.4058C21.5165 89.9238 20.4463 89.338 19.3365 88.6484C18.1205 87.897 16.2865 87.0987 15.3374 86.0581C14.0818 84.6814 12.5345 83.5074 11.4619 82.0763C10.1642 80.3486 9.02234 78.4702 7.80629 76.6783C5.59416 73.4132 4.78346 69.4734 4.24711 65.8648C3.98017 64.058 3.99748 62.0782 4.10129 60.227C4.18532 58.7267 3.95299 57.1992 3.98265 54.9821C4.02219 51.7888 3.87142 48.588 3.89614 45.3847C3.91838 42.4583 3.68358 39.5665 3.80469 36.6326C3.83188 35.985 3.7429 35.2757 3.74537 34.7072C3.76267 30.2236 3.78986 25.7401 3.82446 21.259C3.82446 21.2441 3.83682 20.9747 3.85907 20.4483C3.88131 19.9193 3.79233 19.3261 3.80222 18.8466C3.8912 14.6028 3.90356 11.6047 3.83682 9.85477C3.80963 9.08609 3.80222 8.49785 3.81952 8.09003C3.85906 7.22742 3.40922 6.31785 3.62179 5.52198C3.63909 5.45772 3.69593 5.41075 3.7602 5.40581C3.94063 5.39098 4.1087 5.42311 4.26442 5.50468C4.33609 5.54175 4.37564 5.60108 4.388 5.68017C4.40777 5.82105 4.42507 5.9125 4.4399 5.94957C4.63269 6.45132 4.81312 6.45378 4.97872 5.95945L5.05781 5.72218C5.08747 5.63568 5.15668 5.56647 5.24319 5.53928C5.81661 5.35638 6.3925 5.3539 6.97087 5.52939C7.05985 5.55658 7.134 5.61591 7.17849 5.695C7.22298 5.77656 7.27983 5.8507 7.35151 5.91497C7.40835 5.96687 7.47261 5.98664 7.54676 5.97428C8.18939 5.87542 8.81225 5.43299 9.44746 5.47995C9.73664 5.49973 10.1296 5.50221 10.6289 5.48985C12.7125 5.43547 16.1728 5.34897 19.4304 5.52198C20.5353 5.5813 21.8774 5.39346 23.1552 5.73949C23.2269 5.75926 23.2986 5.74936 23.3653 5.71229C24.1562 5.27728 25.4192 5.34155 26.2201 5.42806C26.4944 5.45772 26.5958 5.62579 26.5241 5.93474ZM21.6426 6.70837C20.5155 6.79735 19.3118 6.6886 18.3083 6.7405C17.505 6.78005 16.6993 6.81713 15.896 6.8542C14.3685 6.92341 12.5815 6.84679 10.9156 6.92835C10.6956 6.94071 10.4114 6.93576 10.0629 6.91845C9.35601 6.88138 8.46375 6.98272 7.92987 6.98767C7.17107 6.99014 6.40486 7.01979 5.62629 7.07417C5.53731 7.07911 5.46811 7.1508 5.46564 7.23978C5.42362 8.72771 5.61641 10.1909 5.55709 11.6245C5.47058 13.7279 5.50271 15.7843 5.52496 17.8876C5.53979 19.3978 5.46317 20.8709 5.40879 22.3836C5.3643 23.6268 5.45081 25.0529 5.42609 26.3951C5.39396 28.1474 5.37913 29.1509 5.3816 29.403C5.43845 38.8077 5.5818 48.2123 5.65101 57.6194C5.65842 58.5413 5.68314 59.4607 5.72763 60.3802C5.84627 62.8518 5.88087 65.6868 6.26151 67.8198C6.67922 70.1506 7.50227 72.6544 8.73316 75.3312C9.09896 76.1271 9.62789 76.9131 10.0851 77.6966C11.7659 80.5662 14.0447 83.1391 16.5633 85.2944C17.3913 86.0013 18.4368 86.6736 19.3736 87.3409C20.0879 87.8526 20.8269 88.3049 21.5907 88.6979C22.7177 89.2812 23.7954 89.9411 25.0015 90.3465C26.1014 90.7172 27.0753 91.036 28.2221 91.5526C28.7584 91.7924 29.3022 92.0124 29.8583 92.2126C30.6023 92.4795 31.3537 92.9021 32.1471 93.1641C35.0809 94.1281 37.9406 95.3145 40.8547 96.355C40.9338 96.3822 41.0153 96.3847 41.0969 96.3625C42.088 96.0955 43.1558 95.658 44.011 95.4084C46.4505 94.699 47.9458 94.0416 49.9108 93.2951C52.5135 92.304 55.0518 91.1102 57.5779 89.9337C58.4973 89.5061 59.8073 89.212 60.6476 88.6855C62.8202 87.331 65.067 86.1274 66.8886 84.281C68.5792 82.5707 69.9682 81.1544 71.5896 78.8756C72.2248 77.9858 73.0998 76.3915 74.2145 74.0954C74.7904 72.909 75.1785 71.8462 75.3737 70.9045C75.7914 68.8827 76.3377 66.8707 76.481 64.8588C76.617 62.9383 76.6862 61.0129 76.6862 59.0826C76.6862 58.4029 76.5576 57.523 76.5824 56.6851C76.654 54.2184 76.6491 51.5836 76.5675 48.7832C76.5156 46.9616 76.7307 44.9621 76.6788 43.0985C76.6145 40.8517 76.6096 38.9807 76.5379 36.9638C76.4613 34.722 76.6269 32.5667 76.5057 30.1C76.4835 29.6502 76.6293 29.1979 76.6046 28.7184C76.392 24.613 76.3352 20.3469 76.5132 16.2366C76.5305 15.804 76.523 15.3394 76.4909 14.8426C76.4168 13.7451 76.4637 12.4006 76.4514 11.5676C76.4267 9.88443 76.4168 8.20618 76.4192 6.5304C76.4192 6.49086 76.3871 6.45873 76.35 6.45873C76.35 6.45873 76.3476 6.45873 76.3451 6.45873C74.741 6.55512 73.0479 6.48592 71.5427 6.523C69.4294 6.57243 67.3631 6.38952 65.235 6.50074C64.3873 6.54276 63.5395 6.56007 62.6917 6.55018C60.576 6.52052 59.308 6.51064 58.8854 6.52052C54.6836 6.6095 51.7349 6.63669 50.0369 6.59962C48.3932 6.56501 46.5543 6.62928 45.3407 6.62187C43.3288 6.60951 41.3169 6.62186 39.305 6.66141C34.6657 6.74792 29.9374 6.67624 25.3822 6.71332C24.1241 6.7232 22.9031 6.6095 21.6426 6.70837Z"/>
</mask>
<path d="M26.5241 5.93474C26.5438 5.59613 26.7391 5.41816 27.1099 5.40333C29.4258 5.30447 31.6379 5.41076 34.0527 5.35144C35.506 5.31683 37.0137 5.41817 38.3929 5.36874C40.091 5.31189 41.789 5.28223 43.487 5.2847C43.7243 5.2847 43.9591 5.30201 44.1914 5.33908C44.7871 5.433 45.3086 5.20561 45.9339 5.24763C46.4851 5.28471 46.8336 5.29952 46.977 5.29458C52.4986 5.05977 57.9486 5.21549 63.5395 5.03506C64.3873 5.00787 65.2301 5.09191 66.063 5.28965C66.1446 5.30695 66.2262 5.302 66.3028 5.27234C66.6315 5.14135 66.9256 5.04743 67.2914 5.04496C69.2811 5.0326 71.3153 5.11663 73.3 4.96833C73.7326 4.9362 74.1676 4.92384 74.6001 4.9362C75.8038 4.96833 76.6343 4.92384 77.6773 4.84228C77.7861 4.83486 77.8775 4.91395 77.8874 5.02023C77.8874 5.02517 77.8874 5.03012 77.8874 5.03506C77.922 13.0679 78.0752 21.1255 77.9863 29.1732C77.9788 29.7935 77.9961 31.0838 78.0332 33.0462C78.0678 34.7715 77.9714 36.6277 77.9863 38.212C78.0134 40.7207 78.006 43.227 77.9665 45.7357C77.9492 46.9048 78.0555 48.2988 78.0233 49.2776C77.9863 50.4318 77.9714 51.4056 77.9813 52.2015C78.0283 55.6124 77.9962 59.0258 78.0308 62.4391C78.0678 65.8969 77.2522 69.2065 76.0559 73.2031C75.6777 74.4711 75.2378 75.5907 74.736 76.567C74.0465 77.9141 73.2877 79.2191 72.4621 80.487C71.911 81.3348 71.1522 82.1381 70.4947 82.9636C68.7052 85.2104 66.0853 87.3088 63.668 88.8313C62.6299 89.4863 61.1543 90.2105 59.2388 91.0089C53.9297 93.2185 49.2484 95.1983 43.2423 97.445C42.8024 97.6082 42.2561 97.9196 41.747 98.1321C41.6679 98.1643 41.5888 98.1667 41.5097 98.1346C35.1254 95.705 28.7313 93.3025 22.5447 90.4058C21.5165 89.9238 20.4463 89.338 19.3365 88.6484C18.1205 87.897 16.2865 87.0987 15.3374 86.0581C14.0818 84.6814 12.5345 83.5074 11.4619 82.0763C10.1642 80.3486 9.02234 78.4702 7.80629 76.6783C5.59416 73.4132 4.78346 69.4734 4.24711 65.8648C3.98017 64.058 3.99748 62.0782 4.10129 60.227C4.18532 58.7267 3.95299 57.1992 3.98265 54.9821C4.02219 51.7888 3.87142 48.588 3.89614 45.3847C3.91838 42.4583 3.68358 39.5665 3.80469 36.6326C3.83188 35.985 3.7429 35.2757 3.74537 34.7072C3.76267 30.2236 3.78986 25.7401 3.82446 21.259C3.82446 21.2441 3.83682 20.9747 3.85907 20.4483C3.88131 19.9193 3.79233 19.3261 3.80222 18.8466C3.8912 14.6028 3.90356 11.6047 3.83682 9.85477C3.80963 9.08609 3.80222 8.49785 3.81952 8.09003C3.85906 7.22742 3.40922 6.31785 3.62179 5.52198C3.63909 5.45772 3.69593 5.41075 3.7602 5.40581C3.94063 5.39098 4.1087 5.42311 4.26442 5.50468C4.33609 5.54175 4.37564 5.60108 4.388 5.68017C4.40777 5.82105 4.42507 5.9125 4.4399 5.94957C4.63269 6.45132 4.81312 6.45378 4.97872 5.95945L5.05781 5.72218C5.08747 5.63568 5.15668 5.56647 5.24319 5.53928C5.81661 5.35638 6.3925 5.3539 6.97087 5.52939C7.05985 5.55658 7.134 5.61591 7.17849 5.695C7.22298 5.77656 7.27983 5.8507 7.35151 5.91497C7.40835 5.96687 7.47261 5.98664 7.54676 5.97428C8.18939 5.87542 8.81225 5.43299 9.44746 5.47995C9.73664 5.49973 10.1296 5.50221 10.6289 5.48985C12.7125 5.43547 16.1728 5.34897 19.4304 5.52198C20.5353 5.5813 21.8774 5.39346 23.1552 5.73949C23.2269 5.75926 23.2986 5.74936 23.3653 5.71229C24.1562 5.27728 25.4192 5.34155 26.2201 5.42806C26.4944 5.45772 26.5958 5.62579 26.5241 5.93474ZM21.6426 6.70837C20.5155 6.79735 19.3118 6.6886 18.3083 6.7405C17.505 6.78005 16.6993 6.81713 15.896 6.8542C14.3685 6.92341 12.5815 6.84679 10.9156 6.92835C10.6956 6.94071 10.4114 6.93576 10.0629 6.91845C9.35601 6.88138 8.46375 6.98272 7.92987 6.98767C7.17107 6.99014 6.40486 7.01979 5.62629 7.07417C5.53731 7.07911 5.46811 7.1508 5.46564 7.23978C5.42362 8.72771 5.61641 10.1909 5.55709 11.6245C5.47058 13.7279 5.50271 15.7843 5.52496 17.8876C5.53979 19.3978 5.46317 20.8709 5.40879 22.3836C5.3643 23.6268 5.45081 25.0529 5.42609 26.3951C5.39396 28.1474 5.37913 29.1509 5.3816 29.403C5.43845 38.8077 5.5818 48.2123 5.65101 57.6194C5.65842 58.5413 5.68314 59.4607 5.72763 60.3802C5.84627 62.8518 5.88087 65.6868 6.26151 67.8198C6.67922 70.1506 7.50227 72.6544 8.73316 75.3312C9.09896 76.1271 9.62789 76.9131 10.0851 77.6966C11.7659 80.5662 14.0447 83.1391 16.5633 85.2944C17.3913 86.0013 18.4368 86.6736 19.3736 87.3409C20.0879 87.8526 20.8269 88.3049 21.5907 88.6979C22.7177 89.2812 23.7954 89.9411 25.0015 90.3465C26.1014 90.7172 27.0753 91.036 28.2221 91.5526C28.7584 91.7924 29.3022 92.0124 29.8583 92.2126C30.6023 92.4795 31.3537 92.9021 32.1471 93.1641C35.0809 94.1281 37.9406 95.3145 40.8547 96.355C40.9338 96.3822 41.0153 96.3847 41.0969 96.3625C42.088 96.0955 43.1558 95.658 44.011 95.4084C46.4505 94.699 47.9458 94.0416 49.9108 93.2951C52.5135 92.304 55.0518 91.1102 57.5779 89.9337C58.4973 89.5061 59.8073 89.212 60.6476 88.6855C62.8202 87.331 65.067 86.1274 66.8886 84.281C68.5792 82.5707 69.9682 81.1544 71.5896 78.8756C72.2248 77.9858 73.0998 76.3915 74.2145 74.0954C74.7904 72.909 75.1785 71.8462 75.3737 70.9045C75.7914 68.8827 76.3377 66.8707 76.481 64.8588C76.617 62.9383 76.6862 61.0129 76.6862 59.0826C76.6862 58.4029 76.5576 57.523 76.5824 56.6851C76.654 54.2184 76.6491 51.5836 76.5675 48.7832C76.5156 46.9616 76.7307 44.9621 76.6788 43.0985C76.6145 40.8517 76.6096 38.9807 76.5379 36.9638C76.4613 34.722 76.6269 32.5667 76.5057 30.1C76.4835 29.6502 76.6293 29.1979 76.6046 28.7184C76.392 24.613 76.3352 20.3469 76.5132 16.2366C76.5305 15.804 76.523 15.3394 76.4909 14.8426C76.4168 13.7451 76.4637 12.4006 76.4514 11.5676C76.4267 9.88443 76.4168 8.20618 76.4192 6.5304C76.4192 6.49086 76.3871 6.45873 76.35 6.45873C76.35 6.45873 76.3476 6.45873 76.3451 6.45873C74.741 6.55512 73.0479 6.48592 71.5427 6.523C69.4294 6.57243 67.3631 6.38952 65.235 6.50074C64.3873 6.54276 63.5395 6.56007 62.6917 6.55018C60.576 6.52052 59.308 6.51064 58.8854 6.52052C54.6836 6.6095 51.7349 6.63669 50.0369 6.59962C48.3932 6.56501 46.5543 6.62928 45.3407 6.62187C43.3288 6.60951 41.3169 6.62186 39.305 6.66141C34.6657 6.74792 29.9374 6.67624 25.3822 6.71332C24.1241 6.7232 22.9031 6.6095 21.6426 6.70837Z" fill="#EAFE01"/>
<path d="M26.5241 5.93474C26.5438 5.59613 26.7391 5.41816 27.1099 5.40333C29.4258 5.30447 31.6379 5.41076 34.0527 5.35144C35.506 5.31683 37.0137 5.41817 38.3929 5.36874C40.091 5.31189 41.789 5.28223 43.487 5.2847C43.7243 5.2847 43.9591 5.30201 44.1914 5.33908C44.7871 5.433 45.3086 5.20561 45.9339 5.24763C46.4851 5.28471 46.8336 5.29952 46.977 5.29458C52.4986 5.05977 57.9486 5.21549 63.5395 5.03506C64.3873 5.00787 65.2301 5.09191 66.063 5.28965C66.1446 5.30695 66.2262 5.302 66.3028 5.27234C66.6315 5.14135 66.9256 5.04743 67.2914 5.04496C69.2811 5.0326 71.3153 5.11663 73.3 4.96833C73.7326 4.9362 74.1676 4.92384 74.6001 4.9362C75.8038 4.96833 76.6343 4.92384 77.6773 4.84228C77.7861 4.83486 77.8775 4.91395 77.8874 5.02023C77.8874 5.02517 77.8874 5.03012 77.8874 5.03506C77.922 13.0679 78.0752 21.1255 77.9863 29.1732C77.9788 29.7935 77.9961 31.0838 78.0332 33.0462C78.0678 34.7715 77.9714 36.6277 77.9863 38.212C78.0134 40.7207 78.006 43.227 77.9665 45.7357C77.9492 46.9048 78.0555 48.2988 78.0233 49.2776C77.9863 50.4318 77.9714 51.4056 77.9813 52.2015C78.0283 55.6124 77.9962 59.0258 78.0308 62.4391C78.0678 65.8969 77.2522 69.2065 76.0559 73.2031C75.6777 74.4711 75.2378 75.5907 74.736 76.567C74.0465 77.9141 73.2877 79.2191 72.4621 80.487C71.911 81.3348 71.1522 82.1381 70.4947 82.9636C68.7052 85.2104 66.0853 87.3088 63.668 88.8313C62.6299 89.4863 61.1543 90.2105 59.2388 91.0089C53.9297 93.2185 49.2484 95.1983 43.2423 97.445C42.8024 97.6082 42.2561 97.9196 41.747 98.1321C41.6679 98.1643 41.5888 98.1667 41.5097 98.1346C35.1254 95.705 28.7313 93.3025 22.5447 90.4058C21.5165 89.9238 20.4463 89.338 19.3365 88.6484C18.1205 87.897 16.2865 87.0987 15.3374 86.0581C14.0818 84.6814 12.5345 83.5074 11.4619 82.0763C10.1642 80.3486 9.02234 78.4702 7.80629 76.6783C5.59416 73.4132 4.78346 69.4734 4.24711 65.8648C3.98017 64.058 3.99748 62.0782 4.10129 60.227C4.18532 58.7267 3.95299 57.1992 3.98265 54.9821C4.02219 51.7888 3.87142 48.588 3.89614 45.3847C3.91838 42.4583 3.68358 39.5665 3.80469 36.6326C3.83188 35.985 3.7429 35.2757 3.74537 34.7072C3.76267 30.2236 3.78986 25.7401 3.82446 21.259C3.82446 21.2441 3.83682 20.9747 3.85907 20.4483C3.88131 19.9193 3.79233 19.3261 3.80222 18.8466C3.8912 14.6028 3.90356 11.6047 3.83682 9.85477C3.80963 9.08609 3.80222 8.49785 3.81952 8.09003C3.85906 7.22742 3.40922 6.31785 3.62179 5.52198C3.63909 5.45772 3.69593 5.41075 3.7602 5.40581C3.94063 5.39098 4.1087 5.42311 4.26442 5.50468C4.33609 5.54175 4.37564 5.60108 4.388 5.68017C4.40777 5.82105 4.42507 5.9125 4.4399 5.94957C4.63269 6.45132 4.81312 6.45378 4.97872 5.95945L5.05781 5.72218C5.08747 5.63568 5.15668 5.56647 5.24319 5.53928C5.81661 5.35638 6.3925 5.3539 6.97087 5.52939C7.05985 5.55658 7.134 5.61591 7.17849 5.695C7.22298 5.77656 7.27983 5.8507 7.35151 5.91497C7.40835 5.96687 7.47261 5.98664 7.54676 5.97428C8.18939 5.87542 8.81225 5.43299 9.44746 5.47995C9.73664 5.49973 10.1296 5.50221 10.6289 5.48985C12.7125 5.43547 16.1728 5.34897 19.4304 5.52198C20.5353 5.5813 21.8774 5.39346 23.1552 5.73949C23.2269 5.75926 23.2986 5.74936 23.3653 5.71229C24.1562 5.27728 25.4192 5.34155 26.2201 5.42806C26.4944 5.45772 26.5958 5.62579 26.5241 5.93474ZM21.6426 6.70837C20.5155 6.79735 19.3118 6.6886 18.3083 6.7405C17.505 6.78005 16.6993 6.81713 15.896 6.8542C14.3685 6.92341 12.5815 6.84679 10.9156 6.92835C10.6956 6.94071 10.4114 6.93576 10.0629 6.91845C9.35601 6.88138 8.46375 6.98272 7.92987 6.98767C7.17107 6.99014 6.40486 7.01979 5.62629 7.07417C5.53731 7.07911 5.46811 7.1508 5.46564 7.23978C5.42362 8.72771 5.61641 10.1909 5.55709 11.6245C5.47058 13.7279 5.50271 15.7843 5.52496 17.8876C5.53979 19.3978 5.46317 20.8709 5.40879 22.3836C5.3643 23.6268 5.45081 25.0529 5.42609 26.3951C5.39396 28.1474 5.37913 29.1509 5.3816 29.403C5.43845 38.8077 5.5818 48.2123 5.65101 57.6194C5.65842 58.5413 5.68314 59.4607 5.72763 60.3802C5.84627 62.8518 5.88087 65.6868 6.26151 67.8198C6.67922 70.1506 7.50227 72.6544 8.73316 75.3312C9.09896 76.1271 9.62789 76.9131 10.0851 77.6966C11.7659 80.5662 14.0447 83.1391 16.5633 85.2944C17.3913 86.0013 18.4368 86.6736 19.3736 87.3409C20.0879 87.8526 20.8269 88.3049 21.5907 88.6979C22.7177 89.2812 23.7954 89.9411 25.0015 90.3465C26.1014 90.7172 27.0753 91.036 28.2221 91.5526C28.7584 91.7924 29.3022 92.0124 29.8583 92.2126C30.6023 92.4795 31.3537 92.9021 32.1471 93.1641C35.0809 94.1281 37.9406 95.3145 40.8547 96.355C40.9338 96.3822 41.0153 96.3847 41.0969 96.3625C42.088 96.0955 43.1558 95.658 44.011 95.4084C46.4505 94.699 47.9458 94.0416 49.9108 93.2951C52.5135 92.304 55.0518 91.1102 57.5779 89.9337C58.4973 89.5061 59.8073 89.212 60.6476 88.6855C62.8202 87.331 65.067 86.1274 66.8886 84.281C68.5792 82.5707 69.9682 81.1544 71.5896 78.8756C72.2248 77.9858 73.0998 76.3915 74.2145 74.0954C74.7904 72.909 75.1785 71.8462 75.3737 70.9045C75.7914 68.8827 76.3377 66.8707 76.481 64.8588C76.617 62.9383 76.6862 61.0129 76.6862 59.0826C76.6862 58.4029 76.5576 57.523 76.5824 56.6851C76.654 54.2184 76.6491 51.5836 76.5675 48.7832C76.5156 46.9616 76.7307 44.9621 76.6788 43.0985C76.6145 40.8517 76.6096 38.9807 76.5379 36.9638C76.4613 34.722 76.6269 32.5667 76.5057 30.1C76.4835 29.6502 76.6293 29.1979 76.6046 28.7184C76.392 24.613 76.3352 20.3469 76.5132 16.2366C76.5305 15.804 76.523 15.3394 76.4909 14.8426C76.4168 13.7451 76.4637 12.4006 76.4514 11.5676C76.4267 9.88443 76.4168 8.20618 76.4192 6.5304C76.4192 6.49086 76.3871 6.45873 76.35 6.45873C76.35 6.45873 76.3476 6.45873 76.3451 6.45873C74.741 6.55512 73.0479 6.48592 71.5427 6.523C69.4294 6.57243 67.3631 6.38952 65.235 6.50074C64.3873 6.54276 63.5395 6.56007 62.6917 6.55018C60.576 6.52052 59.308 6.51064 58.8854 6.52052C54.6836 6.6095 51.7349 6.63669 50.0369 6.59962C48.3932 6.56501 46.5543 6.62928 45.3407 6.62187C43.3288 6.60951 41.3169 6.62186 39.305 6.66141C34.6657 6.74792 29.9374 6.67624 25.3822 6.71332C24.1241 6.7232 22.9031 6.6095 21.6426 6.70837Z" stroke="#EAFE01" stroke-width="6" mask="url(#path-1-outside-1_192_352)"/>
<mask id="path-2-outside-2_192_352" maskUnits="userSpaceOnUse" x="10.3418" y="11.792" width="62" height="79" fill="black">
<rect fill="white" x="10.3418" y="11.792" width="62" height="79"/>
<path d="M37.6111 15.9839L29.1408 16.0433C28.9999 16.0433 28.8837 16.1619 28.8862 16.3028C28.8862 16.3671 28.9134 16.4313 28.9579 16.4783C29.7859 17.3384 30.7226 18.1293 31.7682 18.8511C32.1661 19.1254 32.4256 19.642 31.9708 19.9682C31.2466 20.4823 30.6188 20.0968 30.0158 20.0374C28.9381 19.9312 26.4442 19.9386 22.5341 20.0547C21.8247 20.077 20.7298 20.0152 19.8054 20.1734C19.6917 20.1932 19.573 20.1734 19.4717 20.1116C19.2072 19.9559 19.1751 19.7631 19.3753 19.5332C20.3936 18.3691 21.5133 17.3038 22.7343 16.3324C22.7837 16.2929 22.7936 16.2187 22.7541 16.1693C22.7318 16.1421 22.6972 16.1248 22.6626 16.1248L14.9486 16.068C14.7904 16.068 14.7088 16.1446 14.7064 16.3028L14.5235 24.2244C14.5235 24.3085 14.5877 24.3752 14.6718 24.3777C14.7064 24.3777 14.741 24.3653 14.7682 24.3431C15.8334 23.436 16.4983 22.388 17.2423 21.2535C17.4598 20.9198 17.749 20.7962 18.1074 20.8803C18.2952 20.9248 18.4287 21.0928 18.4287 21.2856C18.4287 24.7435 18.4484 28.2038 18.4929 31.6666C18.4979 32.0991 18.5523 32.5465 18.6536 33.0136C18.6981 33.2163 18.619 33.4239 18.4534 33.55C18.2087 33.7329 17.9516 33.6958 17.6773 33.4387C16.7331 32.5563 15.9002 31.5776 15.176 30.5024C15.0326 30.2923 14.872 30.1292 14.694 30.0155C14.6199 29.9661 14.5185 29.9883 14.4691 30.0649C14.4493 30.097 14.4394 30.1341 14.4419 30.1712C14.6495 32.193 14.5704 34.7363 14.6001 36.1748C14.6223 37.2624 14.6372 38.3548 14.6446 39.4522C14.6446 39.6747 14.7509 39.7439 14.956 39.6574C15.045 39.6203 15.1562 39.5239 15.2872 39.3707C16.0386 38.4982 16.7751 37.4898 17.6847 36.7853C17.875 36.637 18.1469 36.6716 18.2952 36.8619C18.3422 36.9237 18.3718 36.9954 18.3842 37.0721C18.5621 38.3524 18.5572 39.9095 18.5967 40.9105C18.703 43.5749 18.708 46.2394 18.6116 48.9063C18.6042 49.151 18.5523 49.3438 18.4608 49.4822C18.3199 49.6898 18.0381 49.7467 17.8305 49.6058C17.7786 49.5712 17.7341 49.5267 17.702 49.4748C16.9753 48.3378 15.9249 47.4357 14.9708 46.5212C14.9165 46.4668 14.8275 46.4693 14.7756 46.5236C14.7509 46.5483 14.736 46.583 14.736 46.62V54.7369C14.7336 54.8432 14.8176 54.9272 14.9239 54.9272C14.9585 54.9272 14.9931 54.9174 15.0227 54.9C15.564 54.5664 16.1523 53.8199 16.6466 53.3726C17.1385 52.9277 17.4573 52.4185 17.8355 51.8896C17.9072 51.7882 18.0258 51.7314 18.1494 51.7413C18.4781 51.766 18.6511 51.9736 18.6684 52.3666C18.7104 53.3553 18.7277 54.3439 18.7203 55.3326C18.7006 57.5966 18.7772 59.616 18.7623 61.7589C18.7623 61.964 18.7722 62.1692 18.7994 62.3718C18.8983 63.1553 19.6892 64.055 19.1306 64.7001C19.0046 64.8459 18.7846 64.8608 18.6388 64.7372C18.6313 64.7322 18.6239 64.7248 18.619 64.7174C17.8058 63.9018 16.9457 63.1479 16.0386 62.4534C15.7321 62.2186 15.3984 62.0876 15.0351 62.0555C14.9609 62.048 14.8942 62.1049 14.8868 62.1815C14.8868 62.1865 14.8868 62.1914 14.8868 62.1963C14.9436 65.5677 15.7197 68.7586 17.2126 71.769C17.2398 71.8234 17.3041 71.8432 17.3584 71.8185C17.3807 71.8061 17.398 71.7888 17.4079 71.7641C17.9887 70.422 18.4237 69.0132 18.7104 67.5376C18.792 67.1273 18.9922 66.932 19.3135 66.9518C19.5211 66.9642 19.6991 67.1001 19.7634 67.2978C20.233 68.7462 20.757 70.3676 21.6739 71.5713C22.0249 72.0335 22.3042 72.5822 22.6675 72.99C23.5524 73.9861 24.5336 74.8784 25.6113 75.6644C26.1106 76.0277 26.3602 76.3169 26.2267 76.9274C26.1872 77.1152 26.0018 77.2338 25.8164 77.1943C25.8164 77.1943 25.8115 77.1943 25.809 77.1943C25.3542 77.0905 24.9637 76.9644 24.4867 77.0015C23.718 77.0608 22.5044 77.0262 21.8297 77.4118C21.7036 77.4835 21.6616 77.6441 21.7333 77.7702C21.7481 77.7949 21.7654 77.8171 21.7852 77.8344C23.9701 79.8068 26.4418 81.3121 29.2026 82.3502C29.2866 82.3823 29.3805 82.3378 29.4127 82.2538C29.4226 82.2266 29.425 82.1969 29.4201 82.1697C29.1803 80.8128 28.8343 79.53 28.3845 78.3263C28.293 78.0767 28.3672 77.8221 28.6069 77.5576C28.6563 77.5032 28.7181 77.486 28.7898 77.5057C30.5175 77.9803 32.2798 79.0752 33.5996 79.4385C35.6165 79.9971 37.6334 80.5508 39.6527 81.102C41.1308 81.5049 39.2128 83.2128 38.7061 83.371C37.9621 83.6008 37.2354 83.9765 36.5261 84.503C36.4223 84.582 36.4025 84.7279 36.4791 84.8292C36.4915 84.8441 36.5038 84.8589 36.5187 84.8713C36.6348 84.9652 36.7955 85.0369 36.9957 85.0863C38.1005 85.3631 39.1979 85.6646 40.2904 85.9909C41.6671 86.4012 42.6261 85.9093 43.9015 85.5262C44.8456 85.242 46.0172 84.765 47.1146 84.4931C47.1863 84.4758 47.2308 84.4041 47.2135 84.33C47.2085 84.3052 47.1937 84.283 47.1764 84.2657C46.9045 83.9913 46.5783 83.8084 46.2001 83.7145C45.0236 83.4229 43.9435 82.9038 42.9573 82.1598C42.7225 81.9819 42.678 81.6482 42.856 81.4134C42.856 81.4109 42.8609 81.4085 42.8609 81.406C43.0512 81.1613 43.3404 81.0006 43.726 80.9265C45.0854 80.662 46.2792 80.1825 47.5941 79.8513C49.1389 79.4657 50.4958 78.9665 51.9467 78.4845C52.8909 78.1706 53.7881 77.6936 54.6383 77.051C54.8237 76.9125 55.0857 76.9397 55.2365 77.1152C55.4144 77.3204 55.4416 77.6046 55.3155 77.9704C54.9102 79.1667 54.3887 80.2048 54.2082 81.4826C54.1984 81.5666 54.2552 81.6433 54.3392 81.6556C54.3664 81.6581 54.3936 81.6556 54.4208 81.6433C55.8815 81.0155 57.4683 80.2542 58.7239 79.2606C59.6879 78.4993 60.946 77.57 61.6751 76.5838C61.7122 76.5344 61.7023 76.4627 61.6529 76.4256C61.6331 76.4108 61.6108 76.4034 61.5886 76.4034L56.9023 76.2674C56.7812 76.2625 56.6799 76.176 56.6552 76.0573C56.5835 75.7212 56.6848 75.4221 56.9567 75.1626C58.0467 74.1171 59.243 73.0395 60.0611 71.8555C60.9731 70.5357 61.643 69.1417 62.0656 67.676C62.1818 67.278 62.3721 66.9691 62.6366 66.7541C62.7008 66.7022 62.7898 66.6923 62.864 66.7318C64.5051 67.5944 63.954 69.6459 65.2269 70.8422C65.2837 70.8941 65.343 70.899 65.4048 70.852C65.605 70.7037 65.7484 70.5134 65.8324 70.2836C66.8779 67.4437 67.4662 64.5963 67.3772 61.5587C67.3747 61.4524 67.3451 61.445 67.2932 61.5389C67.046 61.9788 66.8186 62.2631 66.611 62.3891C65.5581 63.0293 64.5768 63.7708 63.6697 64.6186C63.6129 64.6705 63.5362 64.6977 63.4596 64.6902C63.2644 64.6754 63.1531 64.5444 63.121 64.2972C62.9999 63.3679 62.8392 62.5275 62.8664 61.5686C62.8986 60.3105 62.8417 59.1636 62.8862 57.8067C62.9257 56.6426 62.775 55.4784 62.7898 54.3464C62.7997 53.6272 62.5995 52.6582 63.0073 52.0354C63.21 51.7264 63.4349 51.7091 63.6796 51.9835C64.4804 52.8832 65.6273 54.1066 66.7123 54.6924C66.7617 54.7196 66.826 54.7023 66.8532 54.6529C66.8606 54.6381 66.8656 54.6207 66.8656 54.6034L66.826 44.8281C66.826 44.7539 66.7642 44.6946 66.6925 44.6946C66.6579 44.6946 66.6258 44.707 66.6011 44.7317C65.5086 45.75 64.6435 47.0056 63.7117 48.1648C63.5461 48.3724 63.252 48.4268 63.0221 48.2909C62.4388 47.9473 62.864 46.9117 62.8689 46.4149C62.8788 44.7959 62.7107 43.0188 62.7033 41.5803C62.6934 39.9861 62.6885 38.3919 62.6909 36.7977C62.6909 36.4022 62.775 36.0612 62.9356 35.7769C63.0592 35.5594 63.336 35.4828 63.5535 35.6064C63.5585 35.6088 63.5659 35.6138 63.5709 35.6162C63.9045 35.8263 64.1097 36.2144 64.3988 36.4442C64.9945 36.9188 65.4394 37.2821 66.003 37.9223C66.3539 38.3227 66.9348 38.8936 67.5082 38.8145C67.6515 38.7948 67.7899 38.8837 67.8295 39.0246C67.9407 39.425 67.9654 39.8329 67.8987 40.2456C67.8715 40.4137 67.7133 40.5249 67.5453 40.4978C67.4934 40.4903 67.4464 40.4681 67.4044 40.436C66.9471 40.0751 66.4899 39.7142 66.0277 39.3559C65.3603 38.8343 64.7968 38.0854 64.0825 37.5219C64.0009 37.4576 63.9564 37.4774 63.9515 37.5837C63.9144 38.4191 63.9119 39.2693 63.9515 40.1369C64.0083 41.4543 64.0232 42.7717 63.996 44.0891C63.9836 44.7564 64.0256 45.4213 64.1171 46.0812C64.1344 46.2048 64.1789 46.2171 64.253 46.1183C64.5669 45.7055 64.824 45.2359 65.1478 44.88C65.7039 44.2744 66.2625 43.6738 66.826 43.0757C67.1152 42.7692 67.4365 42.6382 67.7974 42.8681C67.869 42.9125 67.9111 42.9892 67.9111 43.0732C67.9135 46.2517 67.9432 49.4229 67.9135 52.6014C67.9012 53.8051 67.9679 55.0038 68.1137 56.2026C68.1211 56.2471 68.1236 56.2891 68.1236 56.3262C68.1236 56.5536 67.9383 56.7365 67.7109 56.734C67.6219 56.734 67.5354 56.7043 67.4637 56.65L64.2159 54.1363C64.1542 54.0893 64.0652 54.0992 64.0182 54.161C63.9984 54.1857 63.9886 54.2179 63.9886 54.25L64.0503 61.9245C64.0503 62.0678 64.169 62.184 64.3099 62.1815C64.3272 62.1815 64.342 62.1815 64.3593 62.1766C65.5679 61.9319 66.522 61.2596 67.2264 60.1622C67.4118 59.8705 67.6342 59.7791 67.8938 59.8903C68.0346 59.9496 68.136 60.0757 68.1681 60.2264C68.6278 62.5003 68.487 64.7273 67.9926 66.9716C67.7949 67.8712 67.4068 68.8599 67.1078 69.809C66.737 70.983 66.2007 72.0978 65.5012 73.1581C65.39 73.3262 65.1922 73.4201 64.9896 73.4028C64.3865 73.3435 64.3296 72.0854 64.1294 71.6232C63.8699 71.0275 63.6672 70.4146 63.5214 69.7794C63.4497 69.463 63.3509 69.243 63.2298 69.1169C63.1111 68.9958 62.9159 68.9934 62.7948 69.112C62.7626 69.1417 62.7404 69.1787 62.7231 69.2183C62.4438 69.9351 62.1398 70.6049 61.816 71.2302C61.0844 72.6316 59.8535 73.9391 58.761 75.1552C58.7116 75.2096 58.7165 75.2936 58.7709 75.343C58.7907 75.3603 58.8154 75.3727 58.8401 75.3752C60.0809 75.5581 61.3291 75.5333 62.5847 75.3035C63.1408 75.1997 63.556 75.3925 63.383 76.0376C63.1408 76.9298 62.1348 77.7405 61.4848 78.393C59.2924 80.5903 56.2128 82.2612 53.2888 83.3932C53.0663 83.4772 52.8192 83.3685 52.7327 83.1485C52.708 83.0818 52.6981 83.0101 52.708 82.9384C52.7351 82.7258 52.8019 82.4663 52.9082 82.1574C53.2913 81.0426 53.6027 79.9255 53.84 78.8083C53.8746 78.6501 53.8326 78.6279 53.7164 78.7391C53.5656 78.8824 53.3654 79.006 53.1207 79.1123C51.6056 79.7525 50.0485 80.2616 48.4518 80.6422C47.384 80.8968 46.3904 81.359 45.3153 81.6482C44.8086 81.7842 44.7937 81.9596 45.2757 82.1747C45.5946 82.318 45.9801 82.4738 46.43 82.6394C47.1319 82.8964 47.8586 83.3462 48.6396 83.5934C48.9782 83.6997 49.1957 83.7961 49.2946 83.8801C49.9076 84.4016 49.4503 85.0937 48.736 85.1678C46.9762 85.3532 45.5797 86.0576 43.9608 86.4655C42.9771 86.7126 42.4383 87.2564 41.2667 87.1402C38.9903 86.9178 36.9388 86.0527 34.7168 85.2692C34.5067 85.195 34.4351 85.0517 34.5043 84.8416C34.6007 84.5401 34.828 84.2756 35.1864 84.0482C36.2023 83.408 37.1786 82.7357 38.1153 82.0338C38.1549 82.0016 38.1623 81.9448 38.1326 81.9053C38.1228 81.8904 38.1079 81.8806 38.0906 81.8756C37.6037 81.7001 37.1143 81.5493 36.6225 81.4233C34.4969 80.882 32.4281 80.1751 30.4137 79.2977C30.2827 79.2408 30.1764 79.2038 30.0949 79.1865C30.0232 79.1716 29.9515 79.2161 29.9367 79.2903C29.9317 79.3125 29.9317 79.3372 29.9391 79.3595C30.2431 80.3259 30.431 81.2849 30.5051 82.2389C30.5447 82.758 31.2862 83.3685 30.6806 83.8159C30.3371 84.0704 29.7686 83.8752 29.4003 83.712C25.4753 81.9844 22.2078 80.1627 19.2987 76.9348C19.0738 76.6851 19.0466 76.438 19.2147 76.1884C19.2616 76.1191 19.3259 76.0821 19.4099 76.0746C20.4801 75.9857 21.5429 76.0054 22.6033 76.1364C23.0803 76.1933 23.5376 76.1611 23.9726 76.04C24.0393 76.0227 24.0789 75.951 24.0591 75.8843C24.0517 75.8621 24.0418 75.8423 24.0245 75.825C23.1767 75.0365 22.3907 74.2011 21.6665 73.3187C20.8855 72.3672 20.2923 71.1709 19.6076 70.0661C19.5557 69.9796 19.442 69.9524 19.3555 70.0043C19.3185 70.0265 19.2888 70.0636 19.2764 70.1056C18.8612 71.3736 18.3224 72.6737 18.2062 74.0281C18.1988 74.1245 18.1716 74.2036 18.1222 74.2654C18.0554 74.3519 17.9838 74.4063 17.9121 74.4285C17.744 74.4804 17.5611 74.4236 17.4573 74.2852C16.1127 72.4982 15.433 70.5134 14.7212 68.4298C13.8116 65.7605 13.6559 62.8365 13.5941 59.9991C13.5917 59.8162 13.7029 59.6505 13.8734 59.5838C14.1206 59.4874 14.3628 59.5665 14.6001 59.8211C15.5294 60.8221 16.4884 61.6476 17.4796 62.3026C17.8379 62.5374 17.9467 62.4534 17.8058 62.048C17.5067 61.183 17.7613 60.0658 17.6971 59.1414C17.5883 57.5126 17.613 56.1062 17.5982 54.6578C17.5908 54.0102 17.3733 53.9287 16.9432 54.4106C16.3327 55.0903 15.5986 55.7676 14.741 56.4374C14.5556 56.5808 14.3702 56.8798 14.044 56.8205C13.7647 56.7711 13.5694 56.5214 13.5867 56.2397C13.6782 54.7937 13.5571 53.2193 13.609 51.9044C13.7177 49.1139 13.8166 47.317 13.5892 45.3249C13.5496 44.9813 13.5941 44.7218 13.7251 44.5438C13.8438 44.3782 14.0736 44.3412 14.2368 44.4598C14.2442 44.4648 14.2541 44.4722 14.2615 44.4796C15.3465 45.4064 16.3475 46.4174 17.2645 47.5148C17.3288 47.5939 17.4425 47.6062 17.5216 47.5419C17.5537 47.5148 17.5784 47.4777 17.5858 47.4357C17.6081 47.3318 17.6155 47.2058 17.6106 47.055C17.5339 44.6872 17.5166 42.3194 17.5611 39.9491C17.5685 39.5709 17.5339 39.2619 17.4573 39.0222C17.3955 38.8269 17.2892 38.7997 17.1434 38.9431C16.3006 39.7661 15.564 40.5348 14.9387 41.2467C14.7583 41.4568 14.5531 41.6075 14.3233 41.7039C14.0588 41.8151 13.7523 41.7014 13.6263 41.4419C13.3742 40.913 13.5818 40.2951 13.5669 39.86C13.4434 36.5555 13.3865 33.2484 13.3964 29.9389C13.3964 29.3803 13.4656 28.8291 13.5991 28.2878C13.6411 28.1123 13.819 28.006 13.9945 28.0481C14.0588 28.0629 14.1156 28.0975 14.1601 28.1469L17.0198 31.3255C17.0866 31.3996 17.2027 31.407 17.2794 31.3378C17.3189 31.3032 17.3411 31.2538 17.3387 31.2019L17.3535 23.3099C17.3535 23.2555 17.309 23.2135 17.2571 23.2135C17.2398 23.2135 17.225 23.2185 17.2101 23.2259C15.8928 23.9723 15.2748 26.1004 13.8017 26.3327C13.5867 26.3673 13.384 26.2215 13.347 26.004C13.342 25.9694 13.3395 25.9373 13.3445 25.9027C13.389 25.4256 13.5002 24.9758 13.5051 24.5235C13.5373 21.7355 13.5719 18.9474 13.6065 16.1619C13.6213 15.0299 14.0588 14.9829 15.0697 15.0076C17.3337 15.0645 19.5953 15.1139 21.8568 15.151C22.628 15.1634 23.3299 15.0324 24.0838 14.9187C24.8994 14.7975 24.9415 15.6923 24.4644 16.1224C23.498 16.9899 22.4031 17.808 21.585 18.8189C21.4144 19.029 21.4639 19.118 21.7333 19.0883C22.539 18.9994 23.2978 18.9252 24.0072 18.8659C24.6276 18.8165 25.5544 18.8881 26.3404 18.8115C27.3933 18.7077 28.4685 18.7201 29.4646 18.767C29.9119 18.7893 29.9688 18.6508 29.6326 18.3518C28.9282 17.724 28.2189 17.0566 27.5046 16.3473C27.0473 15.8974 26.684 15.6255 26.9015 15.0571C26.9509 14.9261 27.0794 14.8396 27.2203 14.8445C29.2817 14.8989 31.1725 14.9656 33.3401 14.8766C35.446 14.7901 37.5444 14.9162 39.6502 14.7926C39.8801 14.7803 40.0754 14.9533 40.0877 15.1807C40.0902 15.2301 40.0852 15.2795 40.0704 15.329C39.9987 15.5539 39.848 15.7566 39.6156 15.937C38.6591 16.6785 37.7619 17.504 36.9265 18.4111C36.877 18.4655 36.8746 18.552 36.924 18.6088C37.0056 18.7003 37.1341 18.7398 37.3121 18.7275C40.0531 18.5396 42.7299 18.5866 45.4413 18.636C45.6539 18.6385 45.6811 18.5718 45.5204 18.4309C44.6059 17.6325 43.7186 16.8169 42.8584 15.9864C42.6434 15.7813 42.5693 15.5489 42.636 15.2894C42.7052 15.0151 42.9524 14.8223 43.2341 14.8247L54.7891 14.9014C54.9399 14.9014 55.0684 15.0101 55.0956 15.1584C55.1425 15.4179 55.0362 15.6429 54.7817 15.8381C54.3491 16.1668 53.6175 17.0047 52.5819 18.3567C52.5399 18.4136 52.5522 18.4457 52.6214 18.4556C53.2863 18.5594 53.8573 18.6731 54.5394 18.6632C56.1435 18.636 57.7452 18.6509 59.3443 18.7102C59.8263 18.7275 60.1847 18.8585 60.6345 18.9993C60.6444 19.0018 60.6518 18.9994 60.6593 18.9944L60.721 18.9425C60.7655 18.903 60.7606 18.8708 60.7062 18.8461L60.291 18.6509C60.2094 18.6138 60.1501 18.5569 60.113 18.4778C59.9029 18.0453 59.725 17.719 59.3517 17.3705C58.934 16.985 57.9825 16.0284 58.0788 15.413C58.1332 15.0645 58.3779 14.8989 58.8129 14.9112C60.8323 14.9681 62.5179 14.9928 63.8699 14.9879C64.9253 14.9829 66.344 14.8346 67.6095 14.8618C67.8641 14.8668 68.0668 15.0769 68.0643 15.3314C68.0643 15.3932 68.0495 15.4525 68.0248 15.5094C67.8493 15.9123 67.7158 16.2682 67.7776 16.7477C67.8913 17.6523 67.7652 18.7003 67.7776 19.422C67.8073 21.2584 67.6713 23.1122 67.9506 24.9338C67.9729 25.0845 67.9753 25.1809 67.9556 25.223C67.8616 25.4133 67.7183 25.4677 67.523 25.3836C66.2724 24.8473 65.5408 24.1132 64.5793 23.1913C64.5447 23.1591 64.5051 23.1319 64.4631 23.1097C64.0454 22.8897 63.8452 22.9639 63.8625 23.3272C63.9218 24.6322 63.8057 25.7049 63.8872 27.2201C63.8996 27.4227 63.7488 27.7762 63.7562 28.0505C63.7785 28.8884 63.7562 29.7263 63.692 30.5592C63.6821 30.6853 63.7735 30.799 63.8996 30.8188C64.1418 30.8534 64.3692 30.7718 64.5818 30.5766C65.5655 29.6769 66.4355 29.0268 66.9916 27.7737C67.0534 27.6353 67.1968 27.5488 67.35 27.5612C67.6763 27.5859 67.8419 27.7811 67.8443 28.1469C67.869 31.407 67.8814 34.7042 67.8839 38.0384C67.8839 38.3968 67.7059 38.5723 67.3475 38.5674H67.2388C67.0262 38.5649 66.8532 38.3919 66.8507 38.1769L66.784 30.0674C66.784 29.9957 66.7222 29.9364 66.6505 29.9389C66.6258 29.9389 66.6036 29.9463 66.5838 29.9586C65.6371 30.5617 65.259 31.3428 64.4952 32.0546C64.0924 32.4278 63.9218 32.8356 63.6079 33.283C63.4918 33.4511 63.2619 33.4906 63.0963 33.3744C63.0913 33.372 63.0864 33.3671 63.0815 33.3646C62.4685 32.8925 62.7873 32.2326 62.7231 31.5751C62.5155 29.4495 62.6366 27.2448 62.7503 24.9906C62.8071 23.8784 62.5624 22.43 62.9431 21.3894C63.0172 21.1843 63.2421 21.0755 63.4497 21.1447C64.7721 21.5797 65.2886 22.9886 66.5146 23.4187C66.6357 23.4631 66.7024 23.4187 66.7098 23.2901C66.7519 22.6698 66.826 22.0691 66.7963 21.4438C66.7148 19.7903 66.4651 17.7685 66.8285 16.152C66.8433 16.0853 66.8013 16.0185 66.7321 16.0037C66.7271 16.0037 66.7222 16.0037 66.7173 16.0012C64.4779 15.7813 62.1966 16.1372 59.9449 16.0358C59.8337 16.0309 59.7398 16.1174 59.7348 16.2262C59.7348 16.2805 59.7522 16.3324 59.7892 16.372L62.0582 18.7967C62.1843 18.9326 62.2362 19.118 62.1966 19.2984C61.9989 20.2179 60.3157 19.7853 59.6187 19.815C56.7936 19.9386 53.924 19.7705 51.2176 20.0622C50.6763 20.119 50.4093 19.8916 50.4143 19.3775C50.4242 18.2307 52.7005 17.1777 53.2048 16.1298C53.2616 16.0161 53.2245 15.9592 53.0985 15.9568L44.7344 15.8974C44.6578 15.8974 44.596 15.9592 44.596 16.0334C44.596 16.0531 44.5985 16.0705 44.6059 16.0878C44.7023 16.3201 44.8605 16.5351 45.0804 16.7304C45.9159 17.4743 46.7463 18.2257 47.5719 18.9796C47.6287 19.0315 47.6658 19.0957 47.6782 19.1724C47.8363 19.988 46.8477 20.2278 46.2075 20.1783C43.8644 19.9954 41.5163 19.9509 39.1658 20.0473C38.8445 20.0622 38.4391 19.8471 38.0066 19.8694C37.144 19.9139 36.4939 19.946 36.0565 19.9633C34.4425 20.03 34.2151 19.5011 35.3743 18.3765C35.8661 17.897 36.6546 17.2198 37.7446 16.3423C38.0437 16.1001 38.0016 15.9815 37.6161 15.9839H37.6111ZM63.8032 32.146C63.8032 32.0472 63.6524 31.9706 63.4695 31.9755C63.2866 31.9805 63.1408 32.062 63.1433 32.1609C63.1433 32.2598 63.294 32.3364 63.4769 32.3314C63.6598 32.3265 63.8057 32.2449 63.8032 32.146Z"/>
</mask>
<path d="M37.6111 15.9839L29.1408 16.0433C28.9999 16.0433 28.8837 16.1619 28.8862 16.3028C28.8862 16.3671 28.9134 16.4313 28.9579 16.4783C29.7859 17.3384 30.7226 18.1293 31.7682 18.8511C32.1661 19.1254 32.4256 19.642 31.9708 19.9682C31.2466 20.4823 30.6188 20.0968 30.0158 20.0374C28.9381 19.9312 26.4442 19.9386 22.5341 20.0547C21.8247 20.077 20.7298 20.0152 19.8054 20.1734C19.6917 20.1932 19.573 20.1734 19.4717 20.1116C19.2072 19.9559 19.1751 19.7631 19.3753 19.5332C20.3936 18.3691 21.5133 17.3038 22.7343 16.3324C22.7837 16.2929 22.7936 16.2187 22.7541 16.1693C22.7318 16.1421 22.6972 16.1248 22.6626 16.1248L14.9486 16.068C14.7904 16.068 14.7088 16.1446 14.7064 16.3028L14.5235 24.2244C14.5235 24.3085 14.5877 24.3752 14.6718 24.3777C14.7064 24.3777 14.741 24.3653 14.7682 24.3431C15.8334 23.436 16.4983 22.388 17.2423 21.2535C17.4598 20.9198 17.749 20.7962 18.1074 20.8803C18.2952 20.9248 18.4287 21.0928 18.4287 21.2856C18.4287 24.7435 18.4484 28.2038 18.4929 31.6666C18.4979 32.0991 18.5523 32.5465 18.6536 33.0136C18.6981 33.2163 18.619 33.4239 18.4534 33.55C18.2087 33.7329 17.9516 33.6958 17.6773 33.4387C16.7331 32.5563 15.9002 31.5776 15.176 30.5024C15.0326 30.2923 14.872 30.1292 14.694 30.0155C14.6199 29.9661 14.5185 29.9883 14.4691 30.0649C14.4493 30.097 14.4394 30.1341 14.4419 30.1712C14.6495 32.193 14.5704 34.7363 14.6001 36.1748C14.6223 37.2624 14.6372 38.3548 14.6446 39.4522C14.6446 39.6747 14.7509 39.7439 14.956 39.6574C15.045 39.6203 15.1562 39.5239 15.2872 39.3707C16.0386 38.4982 16.7751 37.4898 17.6847 36.7853C17.875 36.637 18.1469 36.6716 18.2952 36.8619C18.3422 36.9237 18.3718 36.9954 18.3842 37.0721C18.5621 38.3524 18.5572 39.9095 18.5967 40.9105C18.703 43.5749 18.708 46.2394 18.6116 48.9063C18.6042 49.151 18.5523 49.3438 18.4608 49.4822C18.3199 49.6898 18.0381 49.7467 17.8305 49.6058C17.7786 49.5712 17.7341 49.5267 17.702 49.4748C16.9753 48.3378 15.9249 47.4357 14.9708 46.5212C14.9165 46.4668 14.8275 46.4693 14.7756 46.5236C14.7509 46.5483 14.736 46.583 14.736 46.62V54.7369C14.7336 54.8432 14.8176 54.9272 14.9239 54.9272C14.9585 54.9272 14.9931 54.9174 15.0227 54.9C15.564 54.5664 16.1523 53.8199 16.6466 53.3726C17.1385 52.9277 17.4573 52.4185 17.8355 51.8896C17.9072 51.7882 18.0258 51.7314 18.1494 51.7413C18.4781 51.766 18.6511 51.9736 18.6684 52.3666C18.7104 53.3553 18.7277 54.3439 18.7203 55.3326C18.7006 57.5966 18.7772 59.616 18.7623 61.7589C18.7623 61.964 18.7722 62.1692 18.7994 62.3718C18.8983 63.1553 19.6892 64.055 19.1306 64.7001C19.0046 64.8459 18.7846 64.8608 18.6388 64.7372C18.6313 64.7322 18.6239 64.7248 18.619 64.7174C17.8058 63.9018 16.9457 63.1479 16.0386 62.4534C15.7321 62.2186 15.3984 62.0876 15.0351 62.0555C14.9609 62.048 14.8942 62.1049 14.8868 62.1815C14.8868 62.1865 14.8868 62.1914 14.8868 62.1963C14.9436 65.5677 15.7197 68.7586 17.2126 71.769C17.2398 71.8234 17.3041 71.8432 17.3584 71.8185C17.3807 71.8061 17.398 71.7888 17.4079 71.7641C17.9887 70.422 18.4237 69.0132 18.7104 67.5376C18.792 67.1273 18.9922 66.932 19.3135 66.9518C19.5211 66.9642 19.6991 67.1001 19.7634 67.2978C20.233 68.7462 20.757 70.3676 21.6739 71.5713C22.0249 72.0335 22.3042 72.5822 22.6675 72.99C23.5524 73.9861 24.5336 74.8784 25.6113 75.6644C26.1106 76.0277 26.3602 76.3169 26.2267 76.9274C26.1872 77.1152 26.0018 77.2338 25.8164 77.1943C25.8164 77.1943 25.8115 77.1943 25.809 77.1943C25.3542 77.0905 24.9637 76.9644 24.4867 77.0015C23.718 77.0608 22.5044 77.0262 21.8297 77.4118C21.7036 77.4835 21.6616 77.6441 21.7333 77.7702C21.7481 77.7949 21.7654 77.8171 21.7852 77.8344C23.9701 79.8068 26.4418 81.3121 29.2026 82.3502C29.2866 82.3823 29.3805 82.3378 29.4127 82.2538C29.4226 82.2266 29.425 82.1969 29.4201 82.1697C29.1803 80.8128 28.8343 79.53 28.3845 78.3263C28.293 78.0767 28.3672 77.8221 28.6069 77.5576C28.6563 77.5032 28.7181 77.486 28.7898 77.5057C30.5175 77.9803 32.2798 79.0752 33.5996 79.4385C35.6165 79.9971 37.6334 80.5508 39.6527 81.102C41.1308 81.5049 39.2128 83.2128 38.7061 83.371C37.9621 83.6008 37.2354 83.9765 36.5261 84.503C36.4223 84.582 36.4025 84.7279 36.4791 84.8292C36.4915 84.8441 36.5038 84.8589 36.5187 84.8713C36.6348 84.9652 36.7955 85.0369 36.9957 85.0863C38.1005 85.3631 39.1979 85.6646 40.2904 85.9909C41.6671 86.4012 42.6261 85.9093 43.9015 85.5262C44.8456 85.242 46.0172 84.765 47.1146 84.4931C47.1863 84.4758 47.2308 84.4041 47.2135 84.33C47.2085 84.3052 47.1937 84.283 47.1764 84.2657C46.9045 83.9913 46.5783 83.8084 46.2001 83.7145C45.0236 83.4229 43.9435 82.9038 42.9573 82.1598C42.7225 81.9819 42.678 81.6482 42.856 81.4134C42.856 81.4109 42.8609 81.4085 42.8609 81.406C43.0512 81.1613 43.3404 81.0006 43.726 80.9265C45.0854 80.662 46.2792 80.1825 47.5941 79.8513C49.1389 79.4657 50.4958 78.9665 51.9467 78.4845C52.8909 78.1706 53.7881 77.6936 54.6383 77.051C54.8237 76.9125 55.0857 76.9397 55.2365 77.1152C55.4144 77.3204 55.4416 77.6046 55.3155 77.9704C54.9102 79.1667 54.3887 80.2048 54.2082 81.4826C54.1984 81.5666 54.2552 81.6433 54.3392 81.6556C54.3664 81.6581 54.3936 81.6556 54.4208 81.6433C55.8815 81.0155 57.4683 80.2542 58.7239 79.2606C59.6879 78.4993 60.946 77.57 61.6751 76.5838C61.7122 76.5344 61.7023 76.4627 61.6529 76.4256C61.6331 76.4108 61.6108 76.4034 61.5886 76.4034L56.9023 76.2674C56.7812 76.2625 56.6799 76.176 56.6552 76.0573C56.5835 75.7212 56.6848 75.4221 56.9567 75.1626C58.0467 74.1171 59.243 73.0395 60.0611 71.8555C60.9731 70.5357 61.643 69.1417 62.0656 67.676C62.1818 67.278 62.3721 66.9691 62.6366 66.7541C62.7008 66.7022 62.7898 66.6923 62.864 66.7318C64.5051 67.5944 63.954 69.6459 65.2269 70.8422C65.2837 70.8941 65.343 70.899 65.4048 70.852C65.605 70.7037 65.7484 70.5134 65.8324 70.2836C66.8779 67.4437 67.4662 64.5963 67.3772 61.5587C67.3747 61.4524 67.3451 61.445 67.2932 61.5389C67.046 61.9788 66.8186 62.2631 66.611 62.3891C65.5581 63.0293 64.5768 63.7708 63.6697 64.6186C63.6129 64.6705 63.5362 64.6977 63.4596 64.6902C63.2644 64.6754 63.1531 64.5444 63.121 64.2972C62.9999 63.3679 62.8392 62.5275 62.8664 61.5686C62.8986 60.3105 62.8417 59.1636 62.8862 57.8067C62.9257 56.6426 62.775 55.4784 62.7898 54.3464C62.7997 53.6272 62.5995 52.6582 63.0073 52.0354C63.21 51.7264 63.4349 51.7091 63.6796 51.9835C64.4804 52.8832 65.6273 54.1066 66.7123 54.6924C66.7617 54.7196 66.826 54.7023 66.8532 54.6529C66.8606 54.6381 66.8656 54.6207 66.8656 54.6034L66.826 44.8281C66.826 44.7539 66.7642 44.6946 66.6925 44.6946C66.6579 44.6946 66.6258 44.707 66.6011 44.7317C65.5086 45.75 64.6435 47.0056 63.7117 48.1648C63.5461 48.3724 63.252 48.4268 63.0221 48.2909C62.4388 47.9473 62.864 46.9117 62.8689 46.4149C62.8788 44.7959 62.7107 43.0188 62.7033 41.5803C62.6934 39.9861 62.6885 38.3919 62.6909 36.7977C62.6909 36.4022 62.775 36.0612 62.9356 35.7769C63.0592 35.5594 63.336 35.4828 63.5535 35.6064C63.5585 35.6088 63.5659 35.6138 63.5709 35.6162C63.9045 35.8263 64.1097 36.2144 64.3988 36.4442C64.9945 36.9188 65.4394 37.2821 66.003 37.9223C66.3539 38.3227 66.9348 38.8936 67.5082 38.8145C67.6515 38.7948 67.7899 38.8837 67.8295 39.0246C67.9407 39.425 67.9654 39.8329 67.8987 40.2456C67.8715 40.4137 67.7133 40.5249 67.5453 40.4978C67.4934 40.4903 67.4464 40.4681 67.4044 40.436C66.9471 40.0751 66.4899 39.7142 66.0277 39.3559C65.3603 38.8343 64.7968 38.0854 64.0825 37.5219C64.0009 37.4576 63.9564 37.4774 63.9515 37.5837C63.9144 38.4191 63.9119 39.2693 63.9515 40.1369C64.0083 41.4543 64.0232 42.7717 63.996 44.0891C63.9836 44.7564 64.0256 45.4213 64.1171 46.0812C64.1344 46.2048 64.1789 46.2171 64.253 46.1183C64.5669 45.7055 64.824 45.2359 65.1478 44.88C65.7039 44.2744 66.2625 43.6738 66.826 43.0757C67.1152 42.7692 67.4365 42.6382 67.7974 42.8681C67.869 42.9125 67.9111 42.9892 67.9111 43.0732C67.9135 46.2517 67.9432 49.4229 67.9135 52.6014C67.9012 53.8051 67.9679 55.0038 68.1137 56.2026C68.1211 56.2471 68.1236 56.2891 68.1236 56.3262C68.1236 56.5536 67.9383 56.7365 67.7109 56.734C67.6219 56.734 67.5354 56.7043 67.4637 56.65L64.2159 54.1363C64.1542 54.0893 64.0652 54.0992 64.0182 54.161C63.9984 54.1857 63.9886 54.2179 63.9886 54.25L64.0503 61.9245C64.0503 62.0678 64.169 62.184 64.3099 62.1815C64.3272 62.1815 64.342 62.1815 64.3593 62.1766C65.5679 61.9319 66.522 61.2596 67.2264 60.1622C67.4118 59.8705 67.6342 59.7791 67.8938 59.8903C68.0346 59.9496 68.136 60.0757 68.1681 60.2264C68.6278 62.5003 68.487 64.7273 67.9926 66.9716C67.7949 67.8712 67.4068 68.8599 67.1078 69.809C66.737 70.983 66.2007 72.0978 65.5012 73.1581C65.39 73.3262 65.1922 73.4201 64.9896 73.4028C64.3865 73.3435 64.3296 72.0854 64.1294 71.6232C63.8699 71.0275 63.6672 70.4146 63.5214 69.7794C63.4497 69.463 63.3509 69.243 63.2298 69.1169C63.1111 68.9958 62.9159 68.9934 62.7948 69.112C62.7626 69.1417 62.7404 69.1787 62.7231 69.2183C62.4438 69.9351 62.1398 70.6049 61.816 71.2302C61.0844 72.6316 59.8535 73.9391 58.761 75.1552C58.7116 75.2096 58.7165 75.2936 58.7709 75.343C58.7907 75.3603 58.8154 75.3727 58.8401 75.3752C60.0809 75.5581 61.3291 75.5333 62.5847 75.3035C63.1408 75.1997 63.556 75.3925 63.383 76.0376C63.1408 76.9298 62.1348 77.7405 61.4848 78.393C59.2924 80.5903 56.2128 82.2612 53.2888 83.3932C53.0663 83.4772 52.8192 83.3685 52.7327 83.1485C52.708 83.0818 52.6981 83.0101 52.708 82.9384C52.7351 82.7258 52.8019 82.4663 52.9082 82.1574C53.2913 81.0426 53.6027 79.9255 53.84 78.8083C53.8746 78.6501 53.8326 78.6279 53.7164 78.7391C53.5656 78.8824 53.3654 79.006 53.1207 79.1123C51.6056 79.7525 50.0485 80.2616 48.4518 80.6422C47.384 80.8968 46.3904 81.359 45.3153 81.6482C44.8086 81.7842 44.7937 81.9596 45.2757 82.1747C45.5946 82.318 45.9801 82.4738 46.43 82.6394C47.1319 82.8964 47.8586 83.3462 48.6396 83.5934C48.9782 83.6997 49.1957 83.7961 49.2946 83.8801C49.9076 84.4016 49.4503 85.0937 48.736 85.1678C46.9762 85.3532 45.5797 86.0576 43.9608 86.4655C42.9771 86.7126 42.4383 87.2564 41.2667 87.1402C38.9903 86.9178 36.9388 86.0527 34.7168 85.2692C34.5067 85.195 34.4351 85.0517 34.5043 84.8416C34.6007 84.5401 34.828 84.2756 35.1864 84.0482C36.2023 83.408 37.1786 82.7357 38.1153 82.0338C38.1549 82.0016 38.1623 81.9448 38.1326 81.9053C38.1228 81.8904 38.1079 81.8806 38.0906 81.8756C37.6037 81.7001 37.1143 81.5493 36.6225 81.4233C34.4969 80.882 32.4281 80.1751 30.4137 79.2977C30.2827 79.2408 30.1764 79.2038 30.0949 79.1865C30.0232 79.1716 29.9515 79.2161 29.9367 79.2903C29.9317 79.3125 29.9317 79.3372 29.9391 79.3595C30.2431 80.3259 30.431 81.2849 30.5051 82.2389C30.5447 82.758 31.2862 83.3685 30.6806 83.8159C30.3371 84.0704 29.7686 83.8752 29.4003 83.712C25.4753 81.9844 22.2078 80.1627 19.2987 76.9348C19.0738 76.6851 19.0466 76.438 19.2147 76.1884C19.2616 76.1191 19.3259 76.0821 19.4099 76.0746C20.4801 75.9857 21.5429 76.0054 22.6033 76.1364C23.0803 76.1933 23.5376 76.1611 23.9726 76.04C24.0393 76.0227 24.0789 75.951 24.0591 75.8843C24.0517 75.8621 24.0418 75.8423 24.0245 75.825C23.1767 75.0365 22.3907 74.2011 21.6665 73.3187C20.8855 72.3672 20.2923 71.1709 19.6076 70.0661C19.5557 69.9796 19.442 69.9524 19.3555 70.0043C19.3185 70.0265 19.2888 70.0636 19.2764 70.1056C18.8612 71.3736 18.3224 72.6737 18.2062 74.0281C18.1988 74.1245 18.1716 74.2036 18.1222 74.2654C18.0554 74.3519 17.9838 74.4063 17.9121 74.4285C17.744 74.4804 17.5611 74.4236 17.4573 74.2852C16.1127 72.4982 15.433 70.5134 14.7212 68.4298C13.8116 65.7605 13.6559 62.8365 13.5941 59.9991C13.5917 59.8162 13.7029 59.6505 13.8734 59.5838C14.1206 59.4874 14.3628 59.5665 14.6001 59.8211C15.5294 60.8221 16.4884 61.6476 17.4796 62.3026C17.8379 62.5374 17.9467 62.4534 17.8058 62.048C17.5067 61.183 17.7613 60.0658 17.6971 59.1414C17.5883 57.5126 17.613 56.1062 17.5982 54.6578C17.5908 54.0102 17.3733 53.9287 16.9432 54.4106C16.3327 55.0903 15.5986 55.7676 14.741 56.4374C14.5556 56.5808 14.3702 56.8798 14.044 56.8205C13.7647 56.7711 13.5694 56.5214 13.5867 56.2397C13.6782 54.7937 13.5571 53.2193 13.609 51.9044C13.7177 49.1139 13.8166 47.317 13.5892 45.3249C13.5496 44.9813 13.5941 44.7218 13.7251 44.5438C13.8438 44.3782 14.0736 44.3412 14.2368 44.4598C14.2442 44.4648 14.2541 44.4722 14.2615 44.4796C15.3465 45.4064 16.3475 46.4174 17.2645 47.5148C17.3288 47.5939 17.4425 47.6062 17.5216 47.5419C17.5537 47.5148 17.5784 47.4777 17.5858 47.4357C17.6081 47.3318 17.6155 47.2058 17.6106 47.055C17.5339 44.6872 17.5166 42.3194 17.5611 39.9491C17.5685 39.5709 17.5339 39.2619 17.4573 39.0222C17.3955 38.8269 17.2892 38.7997 17.1434 38.9431C16.3006 39.7661 15.564 40.5348 14.9387 41.2467C14.7583 41.4568 14.5531 41.6075 14.3233 41.7039C14.0588 41.8151 13.7523 41.7014 13.6263 41.4419C13.3742 40.913 13.5818 40.2951 13.5669 39.86C13.4434 36.5555 13.3865 33.2484 13.3964 29.9389C13.3964 29.3803 13.4656 28.8291 13.5991 28.2878C13.6411 28.1123 13.819 28.006 13.9945 28.0481C14.0588 28.0629 14.1156 28.0975 14.1601 28.1469L17.0198 31.3255C17.0866 31.3996 17.2027 31.407 17.2794 31.3378C17.3189 31.3032 17.3411 31.2538 17.3387 31.2019L17.3535 23.3099C17.3535 23.2555 17.309 23.2135 17.2571 23.2135C17.2398 23.2135 17.225 23.2185 17.2101 23.2259C15.8928 23.9723 15.2748 26.1004 13.8017 26.3327C13.5867 26.3673 13.384 26.2215 13.347 26.004C13.342 25.9694 13.3395 25.9373 13.3445 25.9027C13.389 25.4256 13.5002 24.9758 13.5051 24.5235C13.5373 21.7355 13.5719 18.9474 13.6065 16.1619C13.6213 15.0299 14.0588 14.9829 15.0697 15.0076C17.3337 15.0645 19.5953 15.1139 21.8568 15.151C22.628 15.1634 23.3299 15.0324 24.0838 14.9187C24.8994 14.7975 24.9415 15.6923 24.4644 16.1224C23.498 16.9899 22.4031 17.808 21.585 18.8189C21.4144 19.029 21.4639 19.118 21.7333 19.0883C22.539 18.9994 23.2978 18.9252 24.0072 18.8659C24.6276 18.8165 25.5544 18.8881 26.3404 18.8115C27.3933 18.7077 28.4685 18.7201 29.4646 18.767C29.9119 18.7893 29.9688 18.6508 29.6326 18.3518C28.9282 17.724 28.2189 17.0566 27.5046 16.3473C27.0473 15.8974 26.684 15.6255 26.9015 15.0571C26.9509 14.9261 27.0794 14.8396 27.2203 14.8445C29.2817 14.8989 31.1725 14.9656 33.3401 14.8766C35.446 14.7901 37.5444 14.9162 39.6502 14.7926C39.8801 14.7803 40.0754 14.9533 40.0877 15.1807C40.0902 15.2301 40.0852 15.2795 40.0704 15.329C39.9987 15.5539 39.848 15.7566 39.6156 15.937C38.6591 16.6785 37.7619 17.504 36.9265 18.4111C36.877 18.4655 36.8746 18.552 36.924 18.6088C37.0056 18.7003 37.1341 18.7398 37.3121 18.7275C40.0531 18.5396 42.7299 18.5866 45.4413 18.636C45.6539 18.6385 45.6811 18.5718 45.5204 18.4309C44.6059 17.6325 43.7186 16.8169 42.8584 15.9864C42.6434 15.7813 42.5693 15.5489 42.636 15.2894C42.7052 15.0151 42.9524 14.8223 43.2341 14.8247L54.7891 14.9014C54.9399 14.9014 55.0684 15.0101 55.0956 15.1584C55.1425 15.4179 55.0362 15.6429 54.7817 15.8381C54.3491 16.1668 53.6175 17.0047 52.5819 18.3567C52.5399 18.4136 52.5522 18.4457 52.6214 18.4556C53.2863 18.5594 53.8573 18.6731 54.5394 18.6632C56.1435 18.636 57.7452 18.6509 59.3443 18.7102C59.8263 18.7275 60.1847 18.8585 60.6345 18.9993C60.6444 19.0018 60.6518 18.9994 60.6593 18.9944L60.721 18.9425C60.7655 18.903 60.7606 18.8708 60.7062 18.8461L60.291 18.6509C60.2094 18.6138 60.1501 18.5569 60.113 18.4778C59.9029 18.0453 59.725 17.719 59.3517 17.3705C58.934 16.985 57.9825 16.0284 58.0788 15.413C58.1332 15.0645 58.3779 14.8989 58.8129 14.9112C60.8323 14.9681 62.5179 14.9928 63.8699 14.9879C64.9253 14.9829 66.344 14.8346 67.6095 14.8618C67.8641 14.8668 68.0668 15.0769 68.0643 15.3314C68.0643 15.3932 68.0495 15.4525 68.0248 15.5094C67.8493 15.9123 67.7158 16.2682 67.7776 16.7477C67.8913 17.6523 67.7652 18.7003 67.7776 19.422C67.8073 21.2584 67.6713 23.1122 67.9506 24.9338C67.9729 25.0845 67.9753 25.1809 67.9556 25.223C67.8616 25.4133 67.7183 25.4677 67.523 25.3836C66.2724 24.8473 65.5408 24.1132 64.5793 23.1913C64.5447 23.1591 64.5051 23.1319 64.4631 23.1097C64.0454 22.8897 63.8452 22.9639 63.8625 23.3272C63.9218 24.6322 63.8057 25.7049 63.8872 27.2201C63.8996 27.4227 63.7488 27.7762 63.7562 28.0505C63.7785 28.8884 63.7562 29.7263 63.692 30.5592C63.6821 30.6853 63.7735 30.799 63.8996 30.8188C64.1418 30.8534 64.3692 30.7718 64.5818 30.5766C65.5655 29.6769 66.4355 29.0268 66.9916 27.7737C67.0534 27.6353 67.1968 27.5488 67.35 27.5612C67.6763 27.5859 67.8419 27.7811 67.8443 28.1469C67.869 31.407 67.8814 34.7042 67.8839 38.0384C67.8839 38.3968 67.7059 38.5723 67.3475 38.5674H67.2388C67.0262 38.5649 66.8532 38.3919 66.8507 38.1769L66.784 30.0674C66.784 29.9957 66.7222 29.9364 66.6505 29.9389C66.6258 29.9389 66.6036 29.9463 66.5838 29.9586C65.6371 30.5617 65.259 31.3428 64.4952 32.0546C64.0924 32.4278 63.9218 32.8356 63.6079 33.283C63.4918 33.4511 63.2619 33.4906 63.0963 33.3744C63.0913 33.372 63.0864 33.3671 63.0815 33.3646C62.4685 32.8925 62.7873 32.2326 62.7231 31.5751C62.5155 29.4495 62.6366 27.2448 62.7503 24.9906C62.8071 23.8784 62.5624 22.43 62.9431 21.3894C63.0172 21.1843 63.2421 21.0755 63.4497 21.1447C64.7721 21.5797 65.2886 22.9886 66.5146 23.4187C66.6357 23.4631 66.7024 23.4187 66.7098 23.2901C66.7519 22.6698 66.826 22.0691 66.7963 21.4438C66.7148 19.7903 66.4651 17.7685 66.8285 16.152C66.8433 16.0853 66.8013 16.0185 66.7321 16.0037C66.7271 16.0037 66.7222 16.0037 66.7173 16.0012C64.4779 15.7813 62.1966 16.1372 59.9449 16.0358C59.8337 16.0309 59.7398 16.1174 59.7348 16.2262C59.7348 16.2805 59.7522 16.3324 59.7892 16.372L62.0582 18.7967C62.1843 18.9326 62.2362 19.118 62.1966 19.2984C61.9989 20.2179 60.3157 19.7853 59.6187 19.815C56.7936 19.9386 53.924 19.7705 51.2176 20.0622C50.6763 20.119 50.4093 19.8916 50.4143 19.3775C50.4242 18.2307 52.7005 17.1777 53.2048 16.1298C53.2616 16.0161 53.2245 15.9592 53.0985 15.9568L44.7344 15.8974C44.6578 15.8974 44.596 15.9592 44.596 16.0334C44.596 16.0531 44.5985 16.0705 44.6059 16.0878C44.7023 16.3201 44.8605 16.5351 45.0804 16.7304C45.9159 17.4743 46.7463 18.2257 47.5719 18.9796C47.6287 19.0315 47.6658 19.0957 47.6782 19.1724C47.8363 19.988 46.8477 20.2278 46.2075 20.1783C43.8644 19.9954 41.5163 19.9509 39.1658 20.0473C38.8445 20.0622 38.4391 19.8471 38.0066 19.8694C37.144 19.9139 36.4939 19.946 36.0565 19.9633C34.4425 20.03 34.2151 19.5011 35.3743 18.3765C35.8661 17.897 36.6546 17.2198 37.7446 16.3423C38.0437 16.1001 38.0016 15.9815 37.6161 15.9839H37.6111ZM63.8032 32.146C63.8032 32.0472 63.6524 31.9706 63.4695 31.9755C63.2866 31.9805 63.1408 32.062 63.1433 32.1609C63.1433 32.2598 63.294 32.3364 63.4769 32.3314C63.6598 32.3265 63.8057 32.2449 63.8032 32.146Z" fill="#EAFE01"/>
<path d="M37.6111 15.9839L29.1408 16.0433C28.9999 16.0433 28.8837 16.1619 28.8862 16.3028C28.8862 16.3671 28.9134 16.4313 28.9579 16.4783C29.7859 17.3384 30.7226 18.1293 31.7682 18.8511C32.1661 19.1254 32.4256 19.642 31.9708 19.9682C31.2466 20.4823 30.6188 20.0968 30.0158 20.0374C28.9381 19.9312 26.4442 19.9386 22.5341 20.0547C21.8247 20.077 20.7298 20.0152 19.8054 20.1734C19.6917 20.1932 19.573 20.1734 19.4717 20.1116C19.2072 19.9559 19.1751 19.7631 19.3753 19.5332C20.3936 18.3691 21.5133 17.3038 22.7343 16.3324C22.7837 16.2929 22.7936 16.2187 22.7541 16.1693C22.7318 16.1421 22.6972 16.1248 22.6626 16.1248L14.9486 16.068C14.7904 16.068 14.7088 16.1446 14.7064 16.3028L14.5235 24.2244C14.5235 24.3085 14.5877 24.3752 14.6718 24.3777C14.7064 24.3777 14.741 24.3653 14.7682 24.3431C15.8334 23.436 16.4983 22.388 17.2423 21.2535C17.4598 20.9198 17.749 20.7962 18.1074 20.8803C18.2952 20.9248 18.4287 21.0928 18.4287 21.2856C18.4287 24.7435 18.4484 28.2038 18.4929 31.6666C18.4979 32.0991 18.5523 32.5465 18.6536 33.0136C18.6981 33.2163 18.619 33.4239 18.4534 33.55C18.2087 33.7329 17.9516 33.6958 17.6773 33.4387C16.7331 32.5563 15.9002 31.5776 15.176 30.5024C15.0326 30.2923 14.872 30.1292 14.694 30.0155C14.6199 29.9661 14.5185 29.9883 14.4691 30.0649C14.4493 30.097 14.4394 30.1341 14.4419 30.1712C14.6495 32.193 14.5704 34.7363 14.6001 36.1748C14.6223 37.2624 14.6372 38.3548 14.6446 39.4522C14.6446 39.6747 14.7509 39.7439 14.956 39.6574C15.045 39.6203 15.1562 39.5239 15.2872 39.3707C16.0386 38.4982 16.7751 37.4898 17.6847 36.7853C17.875 36.637 18.1469 36.6716 18.2952 36.8619C18.3422 36.9237 18.3718 36.9954 18.3842 37.0721C18.5621 38.3524 18.5572 39.9095 18.5967 40.9105C18.703 43.5749 18.708 46.2394 18.6116 48.9063C18.6042 49.151 18.5523 49.3438 18.4608 49.4822C18.3199 49.6898 18.0381 49.7467 17.8305 49.6058C17.7786 49.5712 17.7341 49.5267 17.702 49.4748C16.9753 48.3378 15.9249 47.4357 14.9708 46.5212C14.9165 46.4668 14.8275 46.4693 14.7756 46.5236C14.7509 46.5483 14.736 46.583 14.736 46.62V54.7369C14.7336 54.8432 14.8176 54.9272 14.9239 54.9272C14.9585 54.9272 14.9931 54.9174 15.0227 54.9C15.564 54.5664 16.1523 53.8199 16.6466 53.3726C17.1385 52.9277 17.4573 52.4185 17.8355 51.8896C17.9072 51.7882 18.0258 51.7314 18.1494 51.7413C18.4781 51.766 18.6511 51.9736 18.6684 52.3666C18.7104 53.3553 18.7277 54.3439 18.7203 55.3326C18.7006 57.5966 18.7772 59.616 18.7623 61.7589C18.7623 61.964 18.7722 62.1692 18.7994 62.3718C18.8983 63.1553 19.6892 64.055 19.1306 64.7001C19.0046 64.8459 18.7846 64.8608 18.6388 64.7372C18.6313 64.7322 18.6239 64.7248 18.619 64.7174C17.8058 63.9018 16.9457 63.1479 16.0386 62.4534C15.7321 62.2186 15.3984 62.0876 15.0351 62.0555C14.9609 62.048 14.8942 62.1049 14.8868 62.1815C14.8868 62.1865 14.8868 62.1914 14.8868 62.1963C14.9436 65.5677 15.7197 68.7586 17.2126 71.769C17.2398 71.8234 17.3041 71.8432 17.3584 71.8185C17.3807 71.8061 17.398 71.7888 17.4079 71.7641C17.9887 70.422 18.4237 69.0132 18.7104 67.5376C18.792 67.1273 18.9922 66.932 19.3135 66.9518C19.5211 66.9642 19.6991 67.1001 19.7634 67.2978C20.233 68.7462 20.757 70.3676 21.6739 71.5713C22.0249 72.0335 22.3042 72.5822 22.6675 72.99C23.5524 73.9861 24.5336 74.8784 25.6113 75.6644C26.1106 76.0277 26.3602 76.3169 26.2267 76.9274C26.1872 77.1152 26.0018 77.2338 25.8164 77.1943C25.8164 77.1943 25.8115 77.1943 25.809 77.1943C25.3542 77.0905 24.9637 76.9644 24.4867 77.0015C23.718 77.0608 22.5044 77.0262 21.8297 77.4118C21.7036 77.4835 21.6616 77.6441 21.7333 77.7702C21.7481 77.7949 21.7654 77.8171 21.7852 77.8344C23.9701 79.8068 26.4418 81.3121 29.2026 82.3502C29.2866 82.3823 29.3805 82.3378 29.4127 82.2538C29.4226 82.2266 29.425 82.1969 29.4201 82.1697C29.1803 80.8128 28.8343 79.53 28.3845 78.3263C28.293 78.0767 28.3672 77.8221 28.6069 77.5576C28.6563 77.5032 28.7181 77.486 28.7898 77.5057C30.5175 77.9803 32.2798 79.0752 33.5996 79.4385C35.6165 79.9971 37.6334 80.5508 39.6527 81.102C41.1308 81.5049 39.2128 83.2128 38.7061 83.371C37.9621 83.6008 37.2354 83.9765 36.5261 84.503C36.4223 84.582 36.4025 84.7279 36.4791 84.8292C36.4915 84.8441 36.5038 84.8589 36.5187 84.8713C36.6348 84.9652 36.7955 85.0369 36.9957 85.0863C38.1005 85.3631 39.1979 85.6646 40.2904 85.9909C41.6671 86.4012 42.6261 85.9093 43.9015 85.5262C44.8456 85.242 46.0172 84.765 47.1146 84.4931C47.1863 84.4758 47.2308 84.4041 47.2135 84.33C47.2085 84.3052 47.1937 84.283 47.1764 84.2657C46.9045 83.9913 46.5783 83.8084 46.2001 83.7145C45.0236 83.4229 43.9435 82.9038 42.9573 82.1598C42.7225 81.9819 42.678 81.6482 42.856 81.4134C42.856 81.4109 42.8609 81.4085 42.8609 81.406C43.0512 81.1613 43.3404 81.0006 43.726 80.9265C45.0854 80.662 46.2792 80.1825 47.5941 79.8513C49.1389 79.4657 50.4958 78.9665 51.9467 78.4845C52.8909 78.1706 53.7881 77.6936 54.6383 77.051C54.8237 76.9125 55.0857 76.9397 55.2365 77.1152C55.4144 77.3204 55.4416 77.6046 55.3155 77.9704C54.9102 79.1667 54.3887 80.2048 54.2082 81.4826C54.1984 81.5666 54.2552 81.6433 54.3392 81.6556C54.3664 81.6581 54.3936 81.6556 54.4208 81.6433C55.8815 81.0155 57.4683 80.2542 58.7239 79.2606C59.6879 78.4993 60.946 77.57 61.6751 76.5838C61.7122 76.5344 61.7023 76.4627 61.6529 76.4256C61.6331 76.4108 61.6108 76.4034 61.5886 76.4034L56.9023 76.2674C56.7812 76.2625 56.6799 76.176 56.6552 76.0573C56.5835 75.7212 56.6848 75.4221 56.9567 75.1626C58.0467 74.1171 59.243 73.0395 60.0611 71.8555C60.9731 70.5357 61.643 69.1417 62.0656 67.676C62.1818 67.278 62.3721 66.9691 62.6366 66.7541C62.7008 66.7022 62.7898 66.6923 62.864 66.7318C64.5051 67.5944 63.954 69.6459 65.2269 70.8422C65.2837 70.8941 65.343 70.899 65.4048 70.852C65.605 70.7037 65.7484 70.5134 65.8324 70.2836C66.8779 67.4437 67.4662 64.5963 67.3772 61.5587C67.3747 61.4524 67.3451 61.445 67.2932 61.5389C67.046 61.9788 66.8186 62.2631 66.611 62.3891C65.5581 63.0293 64.5768 63.7708 63.6697 64.6186C63.6129 64.6705 63.5362 64.6977 63.4596 64.6902C63.2644 64.6754 63.1531 64.5444 63.121 64.2972C62.9999 63.3679 62.8392 62.5275 62.8664 61.5686C62.8986 60.3105 62.8417 59.1636 62.8862 57.8067C62.9257 56.6426 62.775 55.4784 62.7898 54.3464C62.7997 53.6272 62.5995 52.6582 63.0073 52.0354C63.21 51.7264 63.4349 51.7091 63.6796 51.9835C64.4804 52.8832 65.6273 54.1066 66.7123 54.6924C66.7617 54.7196 66.826 54.7023 66.8532 54.6529C66.8606 54.6381 66.8656 54.6207 66.8656 54.6034L66.826 44.8281C66.826 44.7539 66.7642 44.6946 66.6925 44.6946C66.6579 44.6946 66.6258 44.707 66.6011 44.7317C65.5086 45.75 64.6435 47.0056 63.7117 48.1648C63.5461 48.3724 63.252 48.4268 63.0221 48.2909C62.4388 47.9473 62.864 46.9117 62.8689 46.4149C62.8788 44.7959 62.7107 43.0188 62.7033 41.5803C62.6934 39.9861 62.6885 38.3919 62.6909 36.7977C62.6909 36.4022 62.775 36.0612 62.9356 35.7769C63.0592 35.5594 63.336 35.4828 63.5535 35.6064C63.5585 35.6088 63.5659 35.6138 63.5709 35.6162C63.9045 35.8263 64.1097 36.2144 64.3988 36.4442C64.9945 36.9188 65.4394 37.2821 66.003 37.9223C66.3539 38.3227 66.9348 38.8936 67.5082 38.8145C67.6515 38.7948 67.7899 38.8837 67.8295 39.0246C67.9407 39.425 67.9654 39.8329 67.8987 40.2456C67.8715 40.4137 67.7133 40.5249 67.5453 40.4978C67.4934 40.4903 67.4464 40.4681 67.4044 40.436C66.9471 40.0751 66.4899 39.7142 66.0277 39.3559C65.3603 38.8343 64.7968 38.0854 64.0825 37.5219C64.0009 37.4576 63.9564 37.4774 63.9515 37.5837C63.9144 38.4191 63.9119 39.2693 63.9515 40.1369C64.0083 41.4543 64.0232 42.7717 63.996 44.0891C63.9836 44.7564 64.0256 45.4213 64.1171 46.0812C64.1344 46.2048 64.1789 46.2171 64.253 46.1183C64.5669 45.7055 64.824 45.2359 65.1478 44.88C65.7039 44.2744 66.2625 43.6738 66.826 43.0757C67.1152 42.7692 67.4365 42.6382 67.7974 42.8681C67.869 42.9125 67.9111 42.9892 67.9111 43.0732C67.9135 46.2517 67.9432 49.4229 67.9135 52.6014C67.9012 53.8051 67.9679 55.0038 68.1137 56.2026C68.1211 56.2471 68.1236 56.2891 68.1236 56.3262C68.1236 56.5536 67.9383 56.7365 67.7109 56.734C67.6219 56.734 67.5354 56.7043 67.4637 56.65L64.2159 54.1363C64.1542 54.0893 64.0652 54.0992 64.0182 54.161C63.9984 54.1857 63.9886 54.2179 63.9886 54.25L64.0503 61.9245C64.0503 62.0678 64.169 62.184 64.3099 62.1815C64.3272 62.1815 64.342 62.1815 64.3593 62.1766C65.5679 61.9319 66.522 61.2596 67.2264 60.1622C67.4118 59.8705 67.6342 59.7791 67.8938 59.8903C68.0346 59.9496 68.136 60.0757 68.1681 60.2264C68.6278 62.5003 68.487 64.7273 67.9926 66.9716C67.7949 67.8712 67.4068 68.8599 67.1078 69.809C66.737 70.983 66.2007 72.0978 65.5012 73.1581C65.39 73.3262 65.1922 73.4201 64.9896 73.4028C64.3865 73.3435 64.3296 72.0854 64.1294 71.6232C63.8699 71.0275 63.6672 70.4146 63.5214 69.7794C63.4497 69.463 63.3509 69.243 63.2298 69.1169C63.1111 68.9958 62.9159 68.9934 62.7948 69.112C62.7626 69.1417 62.7404 69.1787 62.7231 69.2183C62.4438 69.9351 62.1398 70.6049 61.816 71.2302C61.0844 72.6316 59.8535 73.9391 58.761 75.1552C58.7116 75.2096 58.7165 75.2936 58.7709 75.343C58.7907 75.3603 58.8154 75.3727 58.8401 75.3752C60.0809 75.5581 61.3291 75.5333 62.5847 75.3035C63.1408 75.1997 63.556 75.3925 63.383 76.0376C63.1408 76.9298 62.1348 77.7405 61.4848 78.393C59.2924 80.5903 56.2128 82.2612 53.2888 83.3932C53.0663 83.4772 52.8192 83.3685 52.7327 83.1485C52.708 83.0818 52.6981 83.0101 52.708 82.9384C52.7351 82.7258 52.8019 82.4663 52.9082 82.1574C53.2913 81.0426 53.6027 79.9255 53.84 78.8083C53.8746 78.6501 53.8326 78.6279 53.7164 78.7391C53.5656 78.8824 53.3654 79.006 53.1207 79.1123C51.6056 79.7525 50.0485 80.2616 48.4518 80.6422C47.384 80.8968 46.3904 81.359 45.3153 81.6482C44.8086 81.7842 44.7937 81.9596 45.2757 82.1747C45.5946 82.318 45.9801 82.4738 46.43 82.6394C47.1319 82.8964 47.8586 83.3462 48.6396 83.5934C48.9782 83.6997 49.1957 83.7961 49.2946 83.8801C49.9076 84.4016 49.4503 85.0937 48.736 85.1678C46.9762 85.3532 45.5797 86.0576 43.9608 86.4655C42.9771 86.7126 42.4383 87.2564 41.2667 87.1402C38.9903 86.9178 36.9388 86.0527 34.7168 85.2692C34.5067 85.195 34.4351 85.0517 34.5043 84.8416C34.6007 84.5401 34.828 84.2756 35.1864 84.0482C36.2023 83.408 37.1786 82.7357 38.1153 82.0338C38.1549 82.0016 38.1623 81.9448 38.1326 81.9053C38.1228 81.8904 38.1079 81.8806 38.0906 81.8756C37.6037 81.7001 37.1143 81.5493 36.6225 81.4233C34.4969 80.882 32.4281 80.1751 30.4137 79.2977C30.2827 79.2408 30.1764 79.2038 30.0949 79.1865C30.0232 79.1716 29.9515 79.2161 29.9367 79.2903C29.9317 79.3125 29.9317 79.3372 29.9391 79.3595C30.2431 80.3259 30.431 81.2849 30.5051 82.2389C30.5447 82.758 31.2862 83.3685 30.6806 83.8159C30.3371 84.0704 29.7686 83.8752 29.4003 83.712C25.4753 81.9844 22.2078 80.1627 19.2987 76.9348C19.0738 76.6851 19.0466 76.438 19.2147 76.1884C19.2616 76.1191 19.3259 76.0821 19.4099 76.0746C20.4801 75.9857 21.5429 76.0054 22.6033 76.1364C23.0803 76.1933 23.5376 76.1611 23.9726 76.04C24.0393 76.0227 24.0789 75.951 24.0591 75.8843C24.0517 75.8621 24.0418 75.8423 24.0245 75.825C23.1767 75.0365 22.3907 74.2011 21.6665 73.3187C20.8855 72.3672 20.2923 71.1709 19.6076 70.0661C19.5557 69.9796 19.442 69.9524 19.3555 70.0043C19.3185 70.0265 19.2888 70.0636 19.2764 70.1056C18.8612 71.3736 18.3224 72.6737 18.2062 74.0281C18.1988 74.1245 18.1716 74.2036 18.1222 74.2654C18.0554 74.3519 17.9838 74.4063 17.9121 74.4285C17.744 74.4804 17.5611 74.4236 17.4573 74.2852C16.1127 72.4982 15.433 70.5134 14.7212 68.4298C13.8116 65.7605 13.6559 62.8365 13.5941 59.9991C13.5917 59.8162 13.7029 59.6505 13.8734 59.5838C14.1206 59.4874 14.3628 59.5665 14.6001 59.8211C15.5294 60.8221 16.4884 61.6476 17.4796 62.3026C17.8379 62.5374 17.9467 62.4534 17.8058 62.048C17.5067 61.183 17.7613 60.0658 17.6971 59.1414C17.5883 57.5126 17.613 56.1062 17.5982 54.6578C17.5908 54.0102 17.3733 53.9287 16.9432 54.4106C16.3327 55.0903 15.5986 55.7676 14.741 56.4374C14.5556 56.5808 14.3702 56.8798 14.044 56.8205C13.7647 56.7711 13.5694 56.5214 13.5867 56.2397C13.6782 54.7937 13.5571 53.2193 13.609 51.9044C13.7177 49.1139 13.8166 47.317 13.5892 45.3249C13.5496 44.9813 13.5941 44.7218 13.7251 44.5438C13.8438 44.3782 14.0736 44.3412 14.2368 44.4598C14.2442 44.4648 14.2541 44.4722 14.2615 44.4796C15.3465 45.4064 16.3475 46.4174 17.2645 47.5148C17.3288 47.5939 17.4425 47.6062 17.5216 47.5419C17.5537 47.5148 17.5784 47.4777 17.5858 47.4357C17.6081 47.3318 17.6155 47.2058 17.6106 47.055C17.5339 44.6872 17.5166 42.3194 17.5611 39.9491C17.5685 39.5709 17.5339 39.2619 17.4573 39.0222C17.3955 38.8269 17.2892 38.7997 17.1434 38.9431C16.3006 39.7661 15.564 40.5348 14.9387 41.2467C14.7583 41.4568 14.5531 41.6075 14.3233 41.7039C14.0588 41.8151 13.7523 41.7014 13.6263 41.4419C13.3742 40.913 13.5818 40.2951 13.5669 39.86C13.4434 36.5555 13.3865 33.2484 13.3964 29.9389C13.3964 29.3803 13.4656 28.8291 13.5991 28.2878C13.6411 28.1123 13.819 28.006 13.9945 28.0481C14.0588 28.0629 14.1156 28.0975 14.1601 28.1469L17.0198 31.3255C17.0866 31.3996 17.2027 31.407 17.2794 31.3378C17.3189 31.3032 17.3411 31.2538 17.3387 31.2019L17.3535 23.3099C17.3535 23.2555 17.309 23.2135 17.2571 23.2135C17.2398 23.2135 17.225 23.2185 17.2101 23.2259C15.8928 23.9723 15.2748 26.1004 13.8017 26.3327C13.5867 26.3673 13.384 26.2215 13.347 26.004C13.342 25.9694 13.3395 25.9373 13.3445 25.9027C13.389 25.4256 13.5002 24.9758 13.5051 24.5235C13.5373 21.7355 13.5719 18.9474 13.6065 16.1619C13.6213 15.0299 14.0588 14.9829 15.0697 15.0076C17.3337 15.0645 19.5953 15.1139 21.8568 15.151C22.628 15.1634 23.3299 15.0324 24.0838 14.9187C24.8994 14.7975 24.9415 15.6923 24.4644 16.1224C23.498 16.9899 22.4031 17.808 21.585 18.8189C21.4144 19.029 21.4639 19.118 21.7333 19.0883C22.539 18.9994 23.2978 18.9252 24.0072 18.8659C24.6276 18.8165 25.5544 18.8881 26.3404 18.8115C27.3933 18.7077 28.4685 18.7201 29.4646 18.767C29.9119 18.7893 29.9688 18.6508 29.6326 18.3518C28.9282 17.724 28.2189 17.0566 27.5046 16.3473C27.0473 15.8974 26.684 15.6255 26.9015 15.0571C26.9509 14.9261 27.0794 14.8396 27.2203 14.8445C29.2817 14.8989 31.1725 14.9656 33.3401 14.8766C35.446 14.7901 37.5444 14.9162 39.6502 14.7926C39.8801 14.7803 40.0754 14.9533 40.0877 15.1807C40.0902 15.2301 40.0852 15.2795 40.0704 15.329C39.9987 15.5539 39.848 15.7566 39.6156 15.937C38.6591 16.6785 37.7619 17.504 36.9265 18.4111C36.877 18.4655 36.8746 18.552 36.924 18.6088C37.0056 18.7003 37.1341 18.7398 37.3121 18.7275C40.0531 18.5396 42.7299 18.5866 45.4413 18.636C45.6539 18.6385 45.6811 18.5718 45.5204 18.4309C44.6059 17.6325 43.7186 16.8169 42.8584 15.9864C42.6434 15.7813 42.5693 15.5489 42.636 15.2894C42.7052 15.0151 42.9524 14.8223 43.2341 14.8247L54.7891 14.9014C54.9399 14.9014 55.0684 15.0101 55.0956 15.1584C55.1425 15.4179 55.0362 15.6429 54.7817 15.8381C54.3491 16.1668 53.6175 17.0047 52.5819 18.3567C52.5399 18.4136 52.5522 18.4457 52.6214 18.4556C53.2863 18.5594 53.8573 18.6731 54.5394 18.6632C56.1435 18.636 57.7452 18.6509 59.3443 18.7102C59.8263 18.7275 60.1847 18.8585 60.6345 18.9993C60.6444 19.0018 60.6518 18.9994 60.6593 18.9944L60.721 18.9425C60.7655 18.903 60.7606 18.8708 60.7062 18.8461L60.291 18.6509C60.2094 18.6138 60.1501 18.5569 60.113 18.4778C59.9029 18.0453 59.725 17.719 59.3517 17.3705C58.934 16.985 57.9825 16.0284 58.0788 15.413C58.1332 15.0645 58.3779 14.8989 58.8129 14.9112C60.8323 14.9681 62.5179 14.9928 63.8699 14.9879C64.9253 14.9829 66.344 14.8346 67.6095 14.8618C67.8641 14.8668 68.0668 15.0769 68.0643 15.3314C68.0643 15.3932 68.0495 15.4525 68.0248 15.5094C67.8493 15.9123 67.7158 16.2682 67.7776 16.7477C67.8913 17.6523 67.7652 18.7003 67.7776 19.422C67.8073 21.2584 67.6713 23.1122 67.9506 24.9338C67.9729 25.0845 67.9753 25.1809 67.9556 25.223C67.8616 25.4133 67.7183 25.4677 67.523 25.3836C66.2724 24.8473 65.5408 24.1132 64.5793 23.1913C64.5447 23.1591 64.5051 23.1319 64.4631 23.1097C64.0454 22.8897 63.8452 22.9639 63.8625 23.3272C63.9218 24.6322 63.8057 25.7049 63.8872 27.2201C63.8996 27.4227 63.7488 27.7762 63.7562 28.0505C63.7785 28.8884 63.7562 29.7263 63.692 30.5592C63.6821 30.6853 63.7735 30.799 63.8996 30.8188C64.1418 30.8534 64.3692 30.7718 64.5818 30.5766C65.5655 29.6769 66.4355 29.0268 66.9916 27.7737C67.0534 27.6353 67.1968 27.5488 67.35 27.5612C67.6763 27.5859 67.8419 27.7811 67.8443 28.1469C67.869 31.407 67.8814 34.7042 67.8839 38.0384C67.8839 38.3968 67.7059 38.5723 67.3475 38.5674H67.2388C67.0262 38.5649 66.8532 38.3919 66.8507 38.1769L66.784 30.0674C66.784 29.9957 66.7222 29.9364 66.6505 29.9389C66.6258 29.9389 66.6036 29.9463 66.5838 29.9586C65.6371 30.5617 65.259 31.3428 64.4952 32.0546C64.0924 32.4278 63.9218 32.8356 63.6079 33.283C63.4918 33.4511 63.2619 33.4906 63.0963 33.3744C63.0913 33.372 63.0864 33.3671 63.0815 33.3646C62.4685 32.8925 62.7873 32.2326 62.7231 31.5751C62.5155 29.4495 62.6366 27.2448 62.7503 24.9906C62.8071 23.8784 62.5624 22.43 62.9431 21.3894C63.0172 21.1843 63.2421 21.0755 63.4497 21.1447C64.7721 21.5797 65.2886 22.9886 66.5146 23.4187C66.6357 23.4631 66.7024 23.4187 66.7098 23.2901C66.7519 22.6698 66.826 22.0691 66.7963 21.4438C66.7148 19.7903 66.4651 17.7685 66.8285 16.152C66.8433 16.0853 66.8013 16.0185 66.7321 16.0037C66.7271 16.0037 66.7222 16.0037 66.7173 16.0012C64.4779 15.7813 62.1966 16.1372 59.9449 16.0358C59.8337 16.0309 59.7398 16.1174 59.7348 16.2262C59.7348 16.2805 59.7522 16.3324 59.7892 16.372L62.0582 18.7967C62.1843 18.9326 62.2362 19.118 62.1966 19.2984C61.9989 20.2179 60.3157 19.7853 59.6187 19.815C56.7936 19.9386 53.924 19.7705 51.2176 20.0622C50.6763 20.119 50.4093 19.8916 50.4143 19.3775C50.4242 18.2307 52.7005 17.1777 53.2048 16.1298C53.2616 16.0161 53.2245 15.9592 53.0985 15.9568L44.7344 15.8974C44.6578 15.8974 44.596 15.9592 44.596 16.0334C44.596 16.0531 44.5985 16.0705 44.6059 16.0878C44.7023 16.3201 44.8605 16.5351 45.0804 16.7304C45.9159 17.4743 46.7463 18.2257 47.5719 18.9796C47.6287 19.0315 47.6658 19.0957 47.6782 19.1724C47.8363 19.988 46.8477 20.2278 46.2075 20.1783C43.8644 19.9954 41.5163 19.9509 39.1658 20.0473C38.8445 20.0622 38.4391 19.8471 38.0066 19.8694C37.144 19.9139 36.4939 19.946 36.0565 19.9633C34.4425 20.03 34.2151 19.5011 35.3743 18.3765C35.8661 17.897 36.6546 17.2198 37.7446 16.3423C38.0437 16.1001 38.0016 15.9815 37.6161 15.9839H37.6111ZM63.8032 32.146C63.8032 32.0472 63.6524 31.9706 63.4695 31.9755C63.2866 31.9805 63.1408 32.062 63.1433 32.1609C63.1433 32.2598 63.294 32.3364 63.4769 32.3314C63.6598 32.3265 63.8057 32.2449 63.8032 32.146Z" stroke="#EAFE01" stroke-width="6" mask="url(#path-2-outside-2_192_352)"/>
</svg>
