<svg width="82" height="103" viewBox="0 0 82 103" fill="none" xmlns="http://www.w3.org/2000/svg">
<mask id="path-1-outside-1_192_356" maskUnits="userSpaceOnUse" x="0.0410156" y="2.35645" width="82" height="99" fill="black">
<rect fill="white" x="0.0410156" y="2.35645" width="82" height="99"/>
<path d="M6.34922 5.7554C6.58897 5.68125 6.76445 5.64664 6.87073 5.65158C8.06948 5.69854 9.27071 5.71833 10.4744 5.70844C11.3914 5.70103 12.3207 5.97537 13.255 5.80977C14.0039 5.67878 14.7553 5.66148 15.5042 5.75788C15.8923 5.80978 16.2704 5.80236 16.6436 5.73563C17.2294 5.63429 17.8251 5.59474 18.4257 5.61204C22.7288 5.74304 27.0344 5.79247 31.34 5.76528C33.0035 5.7554 35.1044 6.01245 36.5305 5.90864C38.3818 5.77518 40.2355 5.73316 42.0917 5.78506C42.4279 5.79495 42.7689 5.89382 43.0804 5.89382C48.0682 5.90617 53.1202 5.71092 58.0956 5.97538C58.5999 6.00257 59.1782 5.88145 59.7467 5.91853C60.7848 5.98526 61.9168 5.82213 62.8165 5.82955C65.8294 5.85179 68.8399 5.84191 71.8528 5.80237C72.4337 5.79495 72.9676 6.0001 73.541 5.92595C75.0017 5.74057 76.4946 5.62934 78.0196 5.59227C78.1951 5.58979 78.2841 5.67384 78.289 5.84685C78.3656 8.36052 78.1704 11.3388 78.1629 13.3928C78.1555 15.4863 78.1679 17.5773 78.1975 19.6683C78.2074 20.3579 77.9949 21.1488 78.0221 21.6926C78.1333 23.9022 77.9825 26.6655 77.98 28.2993C77.9702 33.4947 78.0171 38.6951 77.9553 43.8905C77.8812 49.9435 77.8466 55.9991 77.854 62.0546C77.854 63.0655 77.7452 64.808 77.5253 67.2821C77.414 68.5476 77.2114 69.6598 76.9197 70.6188C75.5776 75.0184 73.19 78.973 70.3056 82.5273C69.8879 83.0438 69.3565 83.595 68.7114 84.1808C67.9452 84.8753 67.1938 85.6415 66.4276 86.2323C64.6752 87.5818 62.2826 88.783 60.8787 89.6085C59.2845 90.5453 58.2093 91.1212 57.6507 91.3313C54.3264 92.5869 50.9748 93.8054 47.6875 95.1524C46.8818 95.4836 45.9994 95.7184 45.2604 96.02C43.9282 96.5662 42.591 97.0976 41.2489 97.6192C41.1723 97.6488 41.0957 97.6513 41.019 97.6241C37.319 96.3858 35.1439 95.496 32.22 94.4134C28.5372 93.054 24.9632 91.5809 21.4139 89.9026C20.6922 89.5616 19.7678 89.0697 18.9868 88.5062C17.8473 87.6856 16.6288 86.991 15.5784 86.1037C14.6144 85.2881 13.6134 84.5392 12.7953 83.5975C10.9935 81.5213 9.377 79.3957 8.16342 76.9117C6.67548 73.8666 5.30372 70.8561 4.70311 67.4972C4.55481 66.6642 4.46831 65.5421 4.44359 64.1357C4.33236 57.4647 4.28292 50.8012 4.26562 44.1277C4.25821 41.0851 4.26316 38.0327 4.21125 34.9901C4.19395 33.8877 4.30023 32.7384 4.2681 31.6929C4.22114 30.1975 4.20384 28.6997 4.21125 27.2044C4.25327 20.3505 4.20878 16.2797 4.18159 11.1139C4.17418 9.60623 4.29528 7.46825 4.04317 5.61204C4.02587 5.48846 4.11486 5.3723 4.23844 5.35747C4.26563 5.355 4.29034 5.35746 4.31753 5.35993L6.10948 5.76281C6.19104 5.78011 6.27013 5.77765 6.34922 5.7554ZM76.3537 65.7917C76.675 62.8134 76.7739 59.9562 76.7096 57.0668C76.6528 54.4444 76.8505 51.8146 76.7047 49.1996C76.5836 46.9899 76.806 44.7679 76.759 42.5459C76.7146 40.2794 76.8233 38.0524 76.7516 35.7983C76.6948 34.0607 76.8233 32.1649 76.7269 30.3359C76.68 29.4288 76.7912 28.4303 76.759 27.6987C76.6725 25.7214 76.6824 23.744 76.7838 21.7667C76.8035 21.396 76.6454 20.8769 76.6454 20.4444C76.6503 17.555 76.7838 15.6543 76.722 13.766C76.6552 11.6725 76.6775 9.5741 76.6157 7.46825C76.6132 7.36692 76.544 7.28288 76.4476 7.2557C76.0003 7.13706 75.5257 7.08021 75.0264 7.08515C70.0386 7.12964 65.0607 7.14694 60.073 7.06785C58.281 7.04066 56.4891 7.03818 54.6971 7.06043C54.5562 7.06043 54.4129 7.06043 54.2646 7.05302C51.3604 6.92944 48.4216 7.03818 45.5075 7.01099C43.6192 6.99369 40.846 7.02583 38.5177 6.94179C36.1647 6.85528 33.7796 7.03077 31.3969 6.95662C30.5417 6.92943 29.6074 7.00358 28.7003 6.97392C28.075 6.95168 27.4027 6.96404 26.6859 7.00606C25.7072 7.0629 24.6715 6.97886 23.7867 7.00111C22.2493 7.04065 20.6971 6.96157 19.182 7.02583C17.872 7.08021 16.7524 7.1247 15.2818 7.08268C14.5897 7.0629 13.8952 7.07032 13.2006 7.10245C12.5283 7.13459 11.8264 6.9937 11.1071 7.05302C9.3844 7.18896 7.68145 7.0802 5.95624 7.17165C5.83018 7.1766 5.73379 7.28534 5.7412 7.41387C5.7412 7.41881 5.7412 7.4213 5.7412 7.42624C5.86479 8.5459 5.77579 9.626 5.83511 10.8075C5.85489 11.2103 5.8104 11.6898 5.69918 12.246C5.59784 12.7601 5.76591 13.7487 5.74614 14.3938C5.70906 15.642 5.72636 16.8926 5.7931 18.1433C5.83017 18.8329 5.76344 19.5645 5.79557 20.2862C5.87219 22.093 5.75356 23.8849 5.78817 25.6917C5.80052 26.3541 5.68682 27.0758 5.7066 27.7827C5.7585 29.4437 5.7066 31.0799 5.67446 32.7384C5.6275 35.0543 5.72636 37.6965 5.66704 40.183C5.64727 41.0654 5.83512 42.1331 5.73626 43.1391C5.49651 45.6256 5.77581 47.813 5.75603 50.685C5.72885 54.5581 5.76097 58.4287 5.85736 62.3018C5.87714 63.1669 5.78816 64.0072 5.8895 64.85C6.13419 66.8323 6.35664 68.2683 6.55684 69.1556C7.33541 72.611 8.73684 75.7895 10.7611 78.6913C10.9737 78.9953 11.4581 79.6997 12.2145 80.8095C13.1166 82.1343 14.4488 83.4764 16.2111 84.8382C18.2774 86.4325 20.2448 87.9229 22.583 89.1093C24.7902 90.2264 28.0602 91.1805 30.7592 92.3323C32.4745 93.0639 34.4494 93.531 36.2339 94.3788C37.3066 94.888 38.4065 95.1623 39.499 95.622C40.0229 95.8445 40.5123 95.9458 41.0487 96.0768C41.1303 96.0991 41.2069 96.0843 41.2786 96.0323C41.5677 95.8223 41.7976 95.6937 41.9632 95.6468C45.0107 94.7693 47.1537 94.0624 48.3969 93.5211C49.4029 93.0837 50.2333 92.7673 50.8834 92.572C51.8646 92.2779 52.663 91.7243 53.6664 91.4202C54.6798 91.1138 55.3224 90.874 55.5943 90.7035C56.5855 90.0831 57.8559 89.6777 58.7086 89.2749C59.7368 88.788 60.7354 88.4246 61.7067 87.8017C62.9747 86.9861 64.4107 86.3632 65.518 85.3004C66.3905 84.4601 67.6387 83.6815 68.2862 82.8733C69.0525 81.9168 69.9596 80.9182 70.6195 80.026C72.4238 77.5741 74.2034 74.6995 75.0586 71.7607C75.627 69.8081 76.1288 67.8926 76.3537 65.7917Z"/>
</mask>
<path d="M6.34922 5.7554C6.58897 5.68125 6.76445 5.64664 6.87073 5.65158C8.06948 5.69854 9.27071 5.71833 10.4744 5.70844C11.3914 5.70103 12.3207 5.97537 13.255 5.80977C14.0039 5.67878 14.7553 5.66148 15.5042 5.75788C15.8923 5.80978 16.2704 5.80236 16.6436 5.73563C17.2294 5.63429 17.8251 5.59474 18.4257 5.61204C22.7288 5.74304 27.0344 5.79247 31.34 5.76528C33.0035 5.7554 35.1044 6.01245 36.5305 5.90864C38.3818 5.77518 40.2355 5.73316 42.0917 5.78506C42.4279 5.79495 42.7689 5.89382 43.0804 5.89382C48.0682 5.90617 53.1202 5.71092 58.0956 5.97538C58.5999 6.00257 59.1782 5.88145 59.7467 5.91853C60.7848 5.98526 61.9168 5.82213 62.8165 5.82955C65.8294 5.85179 68.8399 5.84191 71.8528 5.80237C72.4337 5.79495 72.9676 6.0001 73.541 5.92595C75.0017 5.74057 76.4946 5.62934 78.0196 5.59227C78.1951 5.58979 78.2841 5.67384 78.289 5.84685C78.3656 8.36052 78.1704 11.3388 78.1629 13.3928C78.1555 15.4863 78.1679 17.5773 78.1975 19.6683C78.2074 20.3579 77.9949 21.1488 78.0221 21.6926C78.1333 23.9022 77.9825 26.6655 77.98 28.2993C77.9702 33.4947 78.0171 38.6951 77.9553 43.8905C77.8812 49.9435 77.8466 55.9991 77.854 62.0546C77.854 63.0655 77.7452 64.808 77.5253 67.2821C77.414 68.5476 77.2114 69.6598 76.9197 70.6188C75.5776 75.0184 73.19 78.973 70.3056 82.5273C69.8879 83.0438 69.3565 83.595 68.7114 84.1808C67.9452 84.8753 67.1938 85.6415 66.4276 86.2323C64.6752 87.5818 62.2826 88.783 60.8787 89.6085C59.2845 90.5453 58.2093 91.1212 57.6507 91.3313C54.3264 92.5869 50.9748 93.8054 47.6875 95.1524C46.8818 95.4836 45.9994 95.7184 45.2604 96.02C43.9282 96.5662 42.591 97.0976 41.2489 97.6192C41.1723 97.6488 41.0957 97.6513 41.019 97.6241C37.319 96.3858 35.1439 95.496 32.22 94.4134C28.5372 93.054 24.9632 91.5809 21.4139 89.9026C20.6922 89.5616 19.7678 89.0697 18.9868 88.5062C17.8473 87.6856 16.6288 86.991 15.5784 86.1037C14.6144 85.2881 13.6134 84.5392 12.7953 83.5975C10.9935 81.5213 9.377 79.3957 8.16342 76.9117C6.67548 73.8666 5.30372 70.8561 4.70311 67.4972C4.55481 66.6642 4.46831 65.5421 4.44359 64.1357C4.33236 57.4647 4.28292 50.8012 4.26562 44.1277C4.25821 41.0851 4.26316 38.0327 4.21125 34.9901C4.19395 33.8877 4.30023 32.7384 4.2681 31.6929C4.22114 30.1975 4.20384 28.6997 4.21125 27.2044C4.25327 20.3505 4.20878 16.2797 4.18159 11.1139C4.17418 9.60623 4.29528 7.46825 4.04317 5.61204C4.02587 5.48846 4.11486 5.3723 4.23844 5.35747C4.26563 5.355 4.29034 5.35746 4.31753 5.35993L6.10948 5.76281C6.19104 5.78011 6.27013 5.77765 6.34922 5.7554ZM76.3537 65.7917C76.675 62.8134 76.7739 59.9562 76.7096 57.0668C76.6528 54.4444 76.8505 51.8146 76.7047 49.1996C76.5836 46.9899 76.806 44.7679 76.759 42.5459C76.7146 40.2794 76.8233 38.0524 76.7516 35.7983C76.6948 34.0607 76.8233 32.1649 76.7269 30.3359C76.68 29.4288 76.7912 28.4303 76.759 27.6987C76.6725 25.7214 76.6824 23.744 76.7838 21.7667C76.8035 21.396 76.6454 20.8769 76.6454 20.4444C76.6503 17.555 76.7838 15.6543 76.722 13.766C76.6552 11.6725 76.6775 9.5741 76.6157 7.46825C76.6132 7.36692 76.544 7.28288 76.4476 7.2557C76.0003 7.13706 75.5257 7.08021 75.0264 7.08515C70.0386 7.12964 65.0607 7.14694 60.073 7.06785C58.281 7.04066 56.4891 7.03818 54.6971 7.06043C54.5562 7.06043 54.4129 7.06043 54.2646 7.05302C51.3604 6.92944 48.4216 7.03818 45.5075 7.01099C43.6192 6.99369 40.846 7.02583 38.5177 6.94179C36.1647 6.85528 33.7796 7.03077 31.3969 6.95662C30.5417 6.92943 29.6074 7.00358 28.7003 6.97392C28.075 6.95168 27.4027 6.96404 26.6859 7.00606C25.7072 7.0629 24.6715 6.97886 23.7867 7.00111C22.2493 7.04065 20.6971 6.96157 19.182 7.02583C17.872 7.08021 16.7524 7.1247 15.2818 7.08268C14.5897 7.0629 13.8952 7.07032 13.2006 7.10245C12.5283 7.13459 11.8264 6.9937 11.1071 7.05302C9.3844 7.18896 7.68145 7.0802 5.95624 7.17165C5.83018 7.1766 5.73379 7.28534 5.7412 7.41387C5.7412 7.41881 5.7412 7.4213 5.7412 7.42624C5.86479 8.5459 5.77579 9.626 5.83511 10.8075C5.85489 11.2103 5.8104 11.6898 5.69918 12.246C5.59784 12.7601 5.76591 13.7487 5.74614 14.3938C5.70906 15.642 5.72636 16.8926 5.7931 18.1433C5.83017 18.8329 5.76344 19.5645 5.79557 20.2862C5.87219 22.093 5.75356 23.8849 5.78817 25.6917C5.80052 26.3541 5.68682 27.0758 5.7066 27.7827C5.7585 29.4437 5.7066 31.0799 5.67446 32.7384C5.6275 35.0543 5.72636 37.6965 5.66704 40.183C5.64727 41.0654 5.83512 42.1331 5.73626 43.1391C5.49651 45.6256 5.77581 47.813 5.75603 50.685C5.72885 54.5581 5.76097 58.4287 5.85736 62.3018C5.87714 63.1669 5.78816 64.0072 5.8895 64.85C6.13419 66.8323 6.35664 68.2683 6.55684 69.1556C7.33541 72.611 8.73684 75.7895 10.7611 78.6913C10.9737 78.9953 11.4581 79.6997 12.2145 80.8095C13.1166 82.1343 14.4488 83.4764 16.2111 84.8382C18.2774 86.4325 20.2448 87.9229 22.583 89.1093C24.7902 90.2264 28.0602 91.1805 30.7592 92.3323C32.4745 93.0639 34.4494 93.531 36.2339 94.3788C37.3066 94.888 38.4065 95.1623 39.499 95.622C40.0229 95.8445 40.5123 95.9458 41.0487 96.0768C41.1303 96.0991 41.2069 96.0843 41.2786 96.0323C41.5677 95.8223 41.7976 95.6937 41.9632 95.6468C45.0107 94.7693 47.1537 94.0624 48.3969 93.5211C49.4029 93.0837 50.2333 92.7673 50.8834 92.572C51.8646 92.2779 52.663 91.7243 53.6664 91.4202C54.6798 91.1138 55.3224 90.874 55.5943 90.7035C56.5855 90.0831 57.8559 89.6777 58.7086 89.2749C59.7368 88.788 60.7354 88.4246 61.7067 87.8017C62.9747 86.9861 64.4107 86.3632 65.518 85.3004C66.3905 84.4601 67.6387 83.6815 68.2862 82.8733C69.0525 81.9168 69.9596 80.9182 70.6195 80.026C72.4238 77.5741 74.2034 74.6995 75.0586 71.7607C75.627 69.8081 76.1288 67.8926 76.3537 65.7917Z" fill="#EAFE01"/>
<path d="M6.34922 5.7554C6.58897 5.68125 6.76445 5.64664 6.87073 5.65158C8.06948 5.69854 9.27071 5.71833 10.4744 5.70844C11.3914 5.70103 12.3207 5.97537 13.255 5.80977C14.0039 5.67878 14.7553 5.66148 15.5042 5.75788C15.8923 5.80978 16.2704 5.80236 16.6436 5.73563C17.2294 5.63429 17.8251 5.59474 18.4257 5.61204C22.7288 5.74304 27.0344 5.79247 31.34 5.76528C33.0035 5.7554 35.1044 6.01245 36.5305 5.90864C38.3818 5.77518 40.2355 5.73316 42.0917 5.78506C42.4279 5.79495 42.7689 5.89382 43.0804 5.89382C48.0682 5.90617 53.1202 5.71092 58.0956 5.97538C58.5999 6.00257 59.1782 5.88145 59.7467 5.91853C60.7848 5.98526 61.9168 5.82213 62.8165 5.82955C65.8294 5.85179 68.8399 5.84191 71.8528 5.80237C72.4337 5.79495 72.9676 6.0001 73.541 5.92595C75.0017 5.74057 76.4946 5.62934 78.0196 5.59227C78.1951 5.58979 78.2841 5.67384 78.289 5.84685C78.3656 8.36052 78.1704 11.3388 78.1629 13.3928C78.1555 15.4863 78.1679 17.5773 78.1975 19.6683C78.2074 20.3579 77.9949 21.1488 78.0221 21.6926C78.1333 23.9022 77.9825 26.6655 77.98 28.2993C77.9702 33.4947 78.0171 38.6951 77.9553 43.8905C77.8812 49.9435 77.8466 55.9991 77.854 62.0546C77.854 63.0655 77.7452 64.808 77.5253 67.2821C77.414 68.5476 77.2114 69.6598 76.9197 70.6188C75.5776 75.0184 73.19 78.973 70.3056 82.5273C69.8879 83.0438 69.3565 83.595 68.7114 84.1808C67.9452 84.8753 67.1938 85.6415 66.4276 86.2323C64.6752 87.5818 62.2826 88.783 60.8787 89.6085C59.2845 90.5453 58.2093 91.1212 57.6507 91.3313C54.3264 92.5869 50.9748 93.8054 47.6875 95.1524C46.8818 95.4836 45.9994 95.7184 45.2604 96.02C43.9282 96.5662 42.591 97.0976 41.2489 97.6192C41.1723 97.6488 41.0957 97.6513 41.019 97.6241C37.319 96.3858 35.1439 95.496 32.22 94.4134C28.5372 93.054 24.9632 91.5809 21.4139 89.9026C20.6922 89.5616 19.7678 89.0697 18.9868 88.5062C17.8473 87.6856 16.6288 86.991 15.5784 86.1037C14.6144 85.2881 13.6134 84.5392 12.7953 83.5975C10.9935 81.5213 9.377 79.3957 8.16342 76.9117C6.67548 73.8666 5.30372 70.8561 4.70311 67.4972C4.55481 66.6642 4.46831 65.5421 4.44359 64.1357C4.33236 57.4647 4.28292 50.8012 4.26562 44.1277C4.25821 41.0851 4.26316 38.0327 4.21125 34.9901C4.19395 33.8877 4.30023 32.7384 4.2681 31.6929C4.22114 30.1975 4.20384 28.6997 4.21125 27.2044C4.25327 20.3505 4.20878 16.2797 4.18159 11.1139C4.17418 9.60623 4.29528 7.46825 4.04317 5.61204C4.02587 5.48846 4.11486 5.3723 4.23844 5.35747C4.26563 5.355 4.29034 5.35746 4.31753 5.35993L6.10948 5.76281C6.19104 5.78011 6.27013 5.77765 6.34922 5.7554ZM76.3537 65.7917C76.675 62.8134 76.7739 59.9562 76.7096 57.0668C76.6528 54.4444 76.8505 51.8146 76.7047 49.1996C76.5836 46.9899 76.806 44.7679 76.759 42.5459C76.7146 40.2794 76.8233 38.0524 76.7516 35.7983C76.6948 34.0607 76.8233 32.1649 76.7269 30.3359C76.68 29.4288 76.7912 28.4303 76.759 27.6987C76.6725 25.7214 76.6824 23.744 76.7838 21.7667C76.8035 21.396 76.6454 20.8769 76.6454 20.4444C76.6503 17.555 76.7838 15.6543 76.722 13.766C76.6552 11.6725 76.6775 9.5741 76.6157 7.46825C76.6132 7.36692 76.544 7.28288 76.4476 7.2557C76.0003 7.13706 75.5257 7.08021 75.0264 7.08515C70.0386 7.12964 65.0607 7.14694 60.073 7.06785C58.281 7.04066 56.4891 7.03818 54.6971 7.06043C54.5562 7.06043 54.4129 7.06043 54.2646 7.05302C51.3604 6.92944 48.4216 7.03818 45.5075 7.01099C43.6192 6.99369 40.846 7.02583 38.5177 6.94179C36.1647 6.85528 33.7796 7.03077 31.3969 6.95662C30.5417 6.92943 29.6074 7.00358 28.7003 6.97392C28.075 6.95168 27.4027 6.96404 26.6859 7.00606C25.7072 7.0629 24.6715 6.97886 23.7867 7.00111C22.2493 7.04065 20.6971 6.96157 19.182 7.02583C17.872 7.08021 16.7524 7.1247 15.2818 7.08268C14.5897 7.0629 13.8952 7.07032 13.2006 7.10245C12.5283 7.13459 11.8264 6.9937 11.1071 7.05302C9.3844 7.18896 7.68145 7.0802 5.95624 7.17165C5.83018 7.1766 5.73379 7.28534 5.7412 7.41387C5.7412 7.41881 5.7412 7.4213 5.7412 7.42624C5.86479 8.5459 5.77579 9.626 5.83511 10.8075C5.85489 11.2103 5.8104 11.6898 5.69918 12.246C5.59784 12.7601 5.76591 13.7487 5.74614 14.3938C5.70906 15.642 5.72636 16.8926 5.7931 18.1433C5.83017 18.8329 5.76344 19.5645 5.79557 20.2862C5.87219 22.093 5.75356 23.8849 5.78817 25.6917C5.80052 26.3541 5.68682 27.0758 5.7066 27.7827C5.7585 29.4437 5.7066 31.0799 5.67446 32.7384C5.6275 35.0543 5.72636 37.6965 5.66704 40.183C5.64727 41.0654 5.83512 42.1331 5.73626 43.1391C5.49651 45.6256 5.77581 47.813 5.75603 50.685C5.72885 54.5581 5.76097 58.4287 5.85736 62.3018C5.87714 63.1669 5.78816 64.0072 5.8895 64.85C6.13419 66.8323 6.35664 68.2683 6.55684 69.1556C7.33541 72.611 8.73684 75.7895 10.7611 78.6913C10.9737 78.9953 11.4581 79.6997 12.2145 80.8095C13.1166 82.1343 14.4488 83.4764 16.2111 84.8382C18.2774 86.4325 20.2448 87.9229 22.583 89.1093C24.7902 90.2264 28.0602 91.1805 30.7592 92.3323C32.4745 93.0639 34.4494 93.531 36.2339 94.3788C37.3066 94.888 38.4065 95.1623 39.499 95.622C40.0229 95.8445 40.5123 95.9458 41.0487 96.0768C41.1303 96.0991 41.2069 96.0843 41.2786 96.0323C41.5677 95.8223 41.7976 95.6937 41.9632 95.6468C45.0107 94.7693 47.1537 94.0624 48.3969 93.5211C49.4029 93.0837 50.2333 92.7673 50.8834 92.572C51.8646 92.2779 52.663 91.7243 53.6664 91.4202C54.6798 91.1138 55.3224 90.874 55.5943 90.7035C56.5855 90.0831 57.8559 89.6777 58.7086 89.2749C59.7368 88.788 60.7354 88.4246 61.7067 87.8017C62.9747 86.9861 64.4107 86.3632 65.518 85.3004C66.3905 84.4601 67.6387 83.6815 68.2862 82.8733C69.0525 81.9168 69.9596 80.9182 70.6195 80.026C72.4238 77.5741 74.2034 74.6995 75.0586 71.7607C75.627 69.8081 76.1288 67.8926 76.3537 65.7917Z" stroke="#EAFE01" stroke-width="6" mask="url(#path-1-outside-1_192_356)"/>
<mask id="path-2-outside-2_192_356" maskUnits="userSpaceOnUse" x="11.0137" y="13.0342" width="61" height="77" fill="black">
<rect fill="white" x="11.0137" y="13.0342" width="61" height="77"/>
<path d="M58.7832 20.0413C57.9527 19.9696 57.2903 19.9375 56.796 19.94C55.4835 19.9474 55.6491 18.1505 55.6813 17.3175C55.6936 16.9567 55.7776 16.623 55.9334 16.3165C55.9853 16.2127 56.0916 16.1484 56.2077 16.1484L66.9594 16.2374C67.4809 16.2424 67.7429 16.5044 67.7478 17.0259C67.7602 18.9266 67.775 20.8372 67.7923 22.7576C67.7948 23.2297 67.7998 23.7018 67.8072 24.1763C67.822 25.1378 67.7973 26.1191 67.733 27.1225C67.7206 27.303 67.5724 27.4463 67.3919 27.4513L63.8179 27.5106C63.6696 27.5106 63.5485 27.3944 63.546 27.2486C63.546 27.2239 63.5485 27.1992 63.5559 27.1745C63.766 26.428 63.8303 25.6668 63.7438 24.8907C63.7339 24.8116 63.6696 24.7522 63.5881 24.7498L61.5069 24.7152C61.2672 24.7102 61.1436 24.8289 61.1411 25.0686C61.0892 27.7133 61.329 30.3629 61.1312 32.9853C61.1041 33.3635 61.2795 33.5612 61.6577 33.5735L63.6449 33.6502C63.7586 33.6551 63.8525 33.5661 63.8575 33.4524C63.8575 33.4524 63.8575 33.4524 63.8575 33.45L63.9168 31.0624C63.9217 30.8671 64.0231 30.7583 64.2183 30.7361C65.0661 30.6422 65.9534 30.6051 66.8803 30.6274C67.5254 30.6447 67.8442 31.0055 67.8344 31.7149C67.7998 34.54 67.7775 37.3453 67.7676 40.1284C67.7676 40.4472 67.513 40.7067 67.1967 40.7166L64.3345 40.813C64.1491 40.818 63.9934 40.6771 63.981 40.4942L63.8476 38.5317C63.8352 38.371 63.7042 38.2474 63.546 38.245C62.9553 38.2375 62.33 38.2054 61.675 38.1535C61.2919 38.1214 61.1139 38.3018 61.1461 38.6948C61.2845 40.4274 61.2993 42.1576 61.1881 43.8878C61.1214 44.9234 61.198 46.0282 61.1238 47.0959C61.1164 47.1948 61.1906 47.2789 61.2894 47.2887C61.2944 47.2887 61.2993 47.2887 61.3043 47.2887L63.7092 47.2937C63.897 47.2937 64.0478 47.1404 64.0478 46.955C64.0478 46.9427 64.0478 46.9328 64.0478 46.9204L63.8426 44.8468C63.813 44.5378 64.0379 44.2634 64.3469 44.2338C64.3567 44.2338 64.3666 44.2338 64.3765 44.2338L67.3128 44.1201C67.5996 44.1077 67.8418 44.3302 67.8541 44.6194C67.8541 44.6268 67.8541 44.6366 67.8541 44.6441L67.8121 53.8065C67.8121 54.2711 67.5773 54.5084 67.1126 54.5183C66.4675 54.5307 65.7903 54.5232 65.0785 54.501C63.902 54.4614 63.9341 52.6522 63.8921 51.8019C63.8871 51.7105 63.8179 51.6364 63.7265 51.6289C63.0443 51.5622 62.3621 51.5325 61.6775 51.535C61.2746 51.535 61.0942 51.75 61.1337 52.1727C61.2425 53.3072 61.287 54.4417 61.2647 55.5762C61.2301 57.242 61.3018 58.8437 61.2326 60.5145C61.2252 60.6653 61.3413 60.7913 61.4921 60.7987C61.4995 60.7987 61.5094 60.7987 61.5168 60.7987L63.635 60.7073C63.7957 60.6999 63.9242 60.5763 63.9366 60.4157L64.1022 58.2332C64.112 58.1121 64.2084 58.0157 64.3296 58.0108L67.3722 57.8699C67.5427 57.86 67.6984 57.9638 67.7602 58.122C67.9555 58.6287 68.0519 59.1354 68.0494 59.647C68.042 62.519 68.2076 65.5394 66.9891 68.5523C66.732 69.1949 66.1981 72.2202 64.9796 71.6468C63.9959 71.1821 63.0418 70.6705 62.1199 70.1144C62.0655 70.0823 62.0532 70.0353 62.0804 69.9785C62.6365 68.8291 63.069 67.6329 63.3804 66.3896C63.4299 66.1894 63.3557 66.0634 63.158 66.009L60.8693 65.3837C60.7012 65.3367 60.5257 65.4356 60.4763 65.6036C59.6186 68.5672 57.9997 71.019 55.6244 72.9543C55.5305 73.0309 55.5255 73.1125 55.6071 73.2015L57.3249 75.0725C57.4559 75.2134 57.6042 75.2357 57.7723 75.1442C58.6027 74.6771 59.3294 73.6686 60.0289 73.0606C60.2464 72.8727 60.5677 72.8678 60.7877 73.0507C61.5267 73.6612 62.6958 74.2668 63.2495 74.9835C63.3038 75.0552 63.3187 75.1368 63.2939 75.2233C63.074 75.992 62.021 76.7186 61.4056 77.1833C60.9088 77.5565 60.4169 77.9718 59.935 78.4266C58.0911 80.1542 55.9803 81.0267 53.6644 81.9561C52.955 82.2403 52.2432 82.2897 51.5264 82.4652C51.1631 82.5517 50.7948 82.3515 50.6737 82.0006L49.8383 79.5932C49.774 79.4053 49.8655 79.2026 50.0484 79.1285L52.6955 78.0608C52.787 78.0237 52.8314 77.9174 52.7944 77.8259L51.7662 75.4087C51.6895 75.2258 51.4819 75.1393 51.299 75.2134C50.8739 75.384 50.434 75.5471 49.9792 75.7003C48.9806 76.0365 48.0167 76.6297 47.0354 76.904C45.6661 77.2871 44.4674 77.7592 43.4367 78.3252C43.3626 78.3672 43.3378 78.429 43.3601 78.5106C43.5356 79.1334 43.7358 79.7538 43.9632 80.3693C44.6256 82.1637 46.4719 79.2027 47.1911 81.3579C47.421 82.0475 47.6756 82.7618 47.9549 83.4959C48.0068 83.6368 47.9425 83.7925 47.8066 83.8518C46.593 84.3931 45.3621 84.6007 44.1609 85.2285C43.4194 85.6141 42.5099 85.7822 41.7609 86.3408C41.2814 86.6992 40.9305 86.7486 40.4262 86.4668C38.3748 85.3175 36.8349 84.927 34.9046 84.2621C34.4449 84.1039 34.2002 83.6047 34.3584 83.1449L35.2135 80.6436C35.2432 80.5571 35.3347 80.5077 35.4212 80.5299L38.4638 81.306C38.6887 81.3629 38.9185 81.2418 38.9976 81.0243L39.6427 79.2249C39.6996 79.0667 39.6254 78.8887 39.4722 78.8195C38.5503 78.3994 37.4405 78.2511 36.7188 78.0237C34.2644 77.2501 32.5788 76.5605 30.8239 75.6138C30.6286 75.51 30.3889 75.5841 30.2875 75.7769C30.2752 75.8016 30.2628 75.8264 30.2554 75.8536C30.0824 76.4641 29.8155 77.0276 29.4571 77.5491C29.3656 77.6801 29.4002 77.8605 29.5312 77.952C30.2851 78.4686 31.0933 78.8789 31.9534 79.1829C32.2105 79.2718 32.344 79.5536 32.255 79.8107C32.2476 79.8305 32.2402 79.8502 32.2303 79.87C31.9114 80.5003 31.6717 81.1923 31.511 81.9437C31.4542 82.2082 31.3059 82.4356 31.0661 82.6259C30.9994 82.6778 30.9252 82.7 30.8437 82.6926C29.9094 82.5938 28.938 82.0821 28.0285 81.8251C27.24 81.6002 26.6023 81.3629 26.1154 81.1108C24.4347 80.2432 23.2038 79.4572 22.4228 78.7578C21.2438 77.6974 19.9981 76.7854 19.2096 75.4235C19.1429 75.3049 19.1379 75.159 19.1997 75.0354C19.6001 74.2346 21.0016 73.33 21.6961 72.9568C21.8617 72.8678 22.0668 72.8975 22.1978 73.0309C23.1025 73.938 23.8761 74.8426 24.9686 75.5619C25.1416 75.6781 25.3714 75.641 25.5024 75.4779L26.7259 73.9578C26.8791 73.7675 26.8816 73.4956 26.7309 73.3004C25.935 72.2771 24.887 71.4862 24.0936 70.4135C23.1939 69.1949 22.5315 67.4648 21.9383 66.0263C21.8518 65.8113 21.6912 65.7149 21.4588 65.7322C20.7593 65.7915 19.6669 65.9052 19.1281 66.3624C19.0663 66.4143 19.0292 66.4909 19.0292 66.5725C19.0292 66.8469 19.0811 67.1039 19.1923 67.3486C19.5754 68.1989 19.9091 69.0689 20.1933 69.9562C20.2205 70.0378 20.1983 70.107 20.1315 70.1589C19.2467 70.8682 18.3693 70.9078 17.5388 71.8371C17.4819 71.8989 17.4127 71.9385 17.3312 71.9508C16.9085 72.0225 16.6243 71.8619 16.476 71.4689C15.863 69.8623 15.2031 68.4559 14.9164 66.9037C14.7755 66.1351 14.6445 65.3614 14.5259 64.5878C14.2144 62.5561 14.422 60.6381 14.4665 58.6262C14.4739 58.2703 14.7681 57.991 15.1215 57.9984C15.124 57.9984 15.1289 57.9984 15.1314 57.9984L18.0331 58.1022C18.389 58.1146 18.6733 58.3988 18.6881 58.7547L18.7647 60.8136C18.7721 61.0385 18.96 61.214 19.1849 61.2066L21.2413 61.1398C21.397 61.1349 21.5231 61.0039 21.5206 60.8482L21.4193 52.101C21.4193 51.9552 21.3427 51.8835 21.1968 51.8811L19.1182 51.8563C18.7252 51.8514 18.5472 52.0442 18.5892 52.4372C18.6436 52.9587 18.6584 53.4852 18.6337 54.0215C18.6065 54.6369 18.4212 54.7976 17.8057 54.847C16.78 54.9286 15.821 54.894 14.9263 54.7407C14.6915 54.7012 14.5184 54.501 14.5135 54.2637C14.4369 51.1593 14.3825 48.134 14.3553 45.1878C14.3504 44.5922 14.6124 44.2857 15.1438 44.2634C16.0607 44.2263 16.9678 44.2881 17.8651 44.4488C18.9476 44.6465 18.6807 46.4039 18.6164 47.1726C18.6115 47.2516 18.6659 47.3209 18.745 47.3357C19.479 47.4692 20.2131 47.484 20.9472 47.3777C21.1869 47.3431 21.3624 47.1355 21.3624 46.8957L21.3229 38.7343C21.3229 38.5514 21.1746 38.4031 20.9917 38.4007L18.9946 38.3784C18.7845 38.3784 18.6115 38.5391 18.5966 38.7467L18.4607 40.8254C18.4409 41.1121 18.1962 41.3296 17.9095 41.3148L14.9732 41.1763C14.6445 41.1615 14.385 40.8921 14.3825 40.5658L14.2713 31.1983C14.2639 30.6323 14.5431 30.3505 15.1092 30.358L17.9219 30.3876C18.1789 30.3876 18.389 30.5928 18.3989 30.8498L18.5027 33.5068C18.5052 33.5859 18.5719 33.6477 18.651 33.6452C18.651 33.6452 18.6535 33.6452 18.656 33.6452C19.3703 33.5884 20.0574 33.6947 20.7223 33.9616C20.9942 34.0704 21.1301 33.9789 21.1326 33.6848L21.1647 24.8931C21.1647 24.7102 21.0164 24.5619 20.831 24.5619C20.8113 24.5619 20.7915 24.5619 20.7717 24.5669C20.0178 24.7053 19.2788 24.6583 18.5571 24.426C18.5126 24.4112 18.4657 24.4334 18.4508 24.4779C18.4459 24.4878 18.4459 24.5001 18.4459 24.5125C18.5225 25.4245 18.4459 26.3218 18.216 27.2066C18.1765 27.3574 18.0405 27.4636 17.8848 27.4661C17.1062 27.4809 16.3005 27.4439 15.4947 27.476C14.7087 27.5081 14.2441 27.1102 14.1798 26.2995C14.034 24.4606 14.3331 22.5895 14.2021 20.7655C14.1452 19.9869 14.0884 19.2108 14.029 18.4322C13.9771 17.7649 14.0711 17.1074 14.0982 16.4673C14.1081 16.2176 14.3207 16.0224 14.5703 16.0347C14.5778 16.0347 14.5827 16.0347 14.5901 16.0347C17.4127 16.272 20.2625 16.0347 23.142 16.1287C24.3778 16.1682 26.281 15.4737 26.0932 17.5696C26.0437 18.1258 26.0141 18.6819 26.0042 19.238C25.9844 20.4367 24.1727 20.113 23.4287 20.0116C23.2606 19.9894 23.1816 20.0611 23.189 20.2316L23.2878 22.3968C23.2977 22.6068 23.4707 22.7749 23.6833 22.7749L31.7236 22.7823C31.9164 22.7823 32.0721 22.6291 32.0746 22.4388C32.0746 22.4388 32.0746 22.4363 32.0746 22.4338V20.5233C32.0746 20.3132 31.9089 20.1377 31.6989 20.1278L29.3458 20.0042C29.2297 19.9968 29.1308 19.9128 29.111 19.7966C28.9207 18.7041 29.0394 17.6512 28.9973 16.5884C28.9875 16.319 29.1976 16.0941 29.467 16.0817C29.4769 16.0817 29.4867 16.0817 29.4966 16.0817C30.4457 16.1039 31.3924 16.23 32.2797 16.2102C34.0049 16.1682 35.7301 16.1509 37.4553 16.1583C38.3328 16.1633 39.4747 16.1064 39.4994 17.1989C39.5216 18.0961 39.4475 18.9859 39.2769 19.8707C39.2596 19.9548 39.2102 19.9968 39.1237 19.9993L36.5952 20.0487C36.4395 20.0512 36.3159 20.1797 36.3184 20.3354C36.3184 20.3379 36.3184 20.3403 36.3184 20.3428L36.4123 22.4264C36.4197 22.6019 36.5581 22.7428 36.7336 22.7551C39.576 22.9282 42.4209 22.9677 45.2657 22.8763C45.4313 22.8713 45.5648 22.7354 45.5623 22.5698L45.545 20.4046C45.545 20.281 45.4462 20.1797 45.3226 20.1723L43.0091 20.0413C42.8979 20.0339 42.8015 19.9548 42.7768 19.8436C42.5321 18.7783 42.4703 17.7031 42.5964 16.6205C42.6235 16.3857 42.8163 16.2053 43.0536 16.1954C44.3858 16.1435 45.8935 16.2399 47.0602 16.2251C47.8165 16.2176 48.5728 16.2102 49.3291 16.2028C50.083 16.1954 51.1433 16.3313 52.0158 16.2003C52.431 16.1361 52.8191 16.4203 52.8834 16.8355C52.8883 16.8726 52.8932 16.9097 52.8932 16.9492L52.913 19.3641C52.9155 19.8312 52.6832 20.0611 52.216 20.0586L50.3549 20.0388C50.167 20.0363 50.0113 20.1871 50.0064 20.3749L49.952 22.6464C49.9495 22.7848 50.0583 22.901 50.1967 22.9035C50.1967 22.9035 50.1967 22.9035 50.1991 22.9035L58.7239 23.0542C58.8203 23.0542 58.8969 22.9801 58.8993 22.8837C58.8993 22.8837 58.8993 22.8837 58.8993 22.8812V20.1723C58.9018 20.0932 58.8623 20.0512 58.7832 20.0438V20.0413ZM46.3285 19.4926C46.3557 19.5741 46.3681 19.673 46.3607 19.7892C46.2989 20.8396 46.2964 21.8901 46.3508 22.9405C46.3632 23.1284 46.3088 23.3187 46.1877 23.509C46.1456 23.5782 46.0814 23.6276 46.0048 23.6499C45.2558 23.8773 44.5267 23.9589 43.8174 23.8946C41.8376 23.7166 39.9443 23.6845 38.1375 23.7957C37.7544 23.818 37.4257 23.8105 37.1513 23.7685C36.4889 23.6647 35.8092 23.7908 35.6782 22.8787C35.5324 21.8481 35.5349 20.7754 35.6856 19.6607C35.7202 19.4011 35.955 19.2133 36.217 19.2405C37.0055 19.3171 37.7915 19.2924 38.57 19.1663C38.6936 19.1466 38.7826 19.0378 38.7801 18.9142L38.748 17.1569C38.7455 17.0209 38.6368 16.9147 38.5008 16.9122C37.5764 16.9072 36.6125 17.0358 35.7746 17.0209C33.8541 16.9888 31.9065 17.1025 30.0008 16.8405C29.8402 16.8183 29.6943 16.9295 29.6721 17.0901C29.6721 17.1074 29.6696 17.1223 29.6696 17.1396L29.7364 18.8104C29.7438 19.0131 29.9044 19.1787 30.1096 19.1935L32.4082 19.3393C32.7864 19.364 32.9693 19.5667 32.952 19.9449C32.905 21.0275 32.8679 22.1372 32.8358 23.2767C32.8235 23.6672 32.643 23.855 32.2945 23.8377C30.0676 23.7389 28.1224 23.7191 26.459 23.7809C25.4382 23.818 24.4891 23.7141 23.488 23.6524C22.7589 23.6054 22.3758 23.2198 22.3437 22.4956C22.3066 21.6948 22.225 20.1747 22.5686 19.3072C22.6131 19.196 22.7218 19.1268 22.8405 19.1317L24.8203 19.2232C25.1391 19.238 25.2948 19.0848 25.2899 18.7659L25.2726 17.4634C25.2676 17.1495 25.1094 16.9937 24.7955 16.9962L15.4577 17.011C15.213 17.011 15.0869 17.1346 15.0844 17.3793L14.988 26.1018C14.9856 26.3662 15.1957 26.5813 15.4601 26.5837C15.4626 26.5837 15.4651 26.5837 15.4675 26.5837L17.2298 26.5763C17.4523 26.5763 17.6327 26.3959 17.6352 26.1734L17.6673 23.7364C17.6673 23.5214 17.7785 23.4225 17.9936 23.4423L21.5503 23.7685C21.7406 23.7858 21.9013 23.9242 21.9433 24.1121C21.9853 24.2925 22.0051 24.4977 22.0026 24.7325C21.9927 26.4503 22.0248 28.1656 22.0965 29.8809C22.1113 30.2393 22.0916 30.7188 22.0347 31.3194C21.9532 32.2166 22.0718 33.146 22.0026 34.0778C21.9878 34.2903 21.8197 34.4584 21.6071 34.4732C20.5666 34.5498 19.5062 34.5597 18.4236 34.5078C17.7365 34.4757 17.5833 34.2113 17.6327 33.539C17.6772 32.9581 17.655 32.271 17.5685 31.4776C17.5536 31.3416 17.435 31.2403 17.299 31.2453L15.3563 31.317C15.2352 31.3219 15.1759 31.3861 15.1759 31.5072L15.1932 39.9306C15.1932 40.0814 15.3069 40.2075 15.4552 40.2248L17.3015 40.4373C17.4869 40.4596 17.6525 40.3286 17.6747 40.1432C17.6747 40.1358 17.6747 40.1308 17.6747 40.1234C17.7167 39.4783 17.7538 38.8826 17.7909 38.3315C17.828 37.7655 18.1172 37.4763 18.6634 37.4664C19.5112 37.4491 20.3812 37.454 21.2734 37.4862C21.7579 37.5035 22.1509 37.8816 22.1855 38.3636C22.3288 40.3236 22.141 42.2639 22.2399 44.2165C22.3016 45.4399 22.2003 46.6164 22.1978 47.8498C22.1978 48.2749 21.9828 48.4726 21.5602 48.4455C20.5295 48.3738 19.1404 48.4282 18.0974 48.0154C18.0158 47.9833 17.9614 47.9289 17.9293 47.8473C17.7118 47.3134 17.8972 46.1715 17.9516 45.5784C17.9689 45.393 17.8354 45.2299 17.65 45.2101C17.6451 45.2101 17.6377 45.2101 17.6327 45.2101L15.6134 45.1137C15.4231 45.1063 15.2624 45.2496 15.25 45.4375C15.1512 46.9031 15.1388 48.3342 15.2105 49.7332C15.2772 51.0209 15.0276 52.4372 15.2945 53.8238C15.3192 53.9498 15.3959 54.0067 15.5244 53.9943C16.2387 53.9152 16.9406 53.9721 17.6352 54.1649C17.7439 54.1945 17.8576 54.1303 17.8873 54.0215C17.8947 53.9943 17.8972 53.9671 17.8922 53.9399C17.7687 52.9562 17.5338 51.1346 19.0317 51.1396C19.7188 51.1396 20.401 51.0926 21.0782 50.9962C21.9013 50.8751 22.1385 51.4114 22.188 52.106C22.2868 53.5 22.3338 54.8965 22.3264 56.2954C22.3165 58.0528 22.3313 59.7705 22.3733 61.4488C22.3807 61.8097 22.0965 62.1087 21.7356 62.1162C21.701 62.1162 21.6664 62.1162 21.6343 62.1112C20.7495 61.9926 19.8424 61.9407 18.913 61.9555C17.655 61.9753 17.9441 59.998 17.9318 59.212C17.9268 58.9673 17.7217 58.772 17.477 58.777L15.4058 58.8289C15.3193 58.8289 15.2748 58.8733 15.2723 58.9599C15.2031 60.8803 15.2229 62.8008 15.3316 64.7188C15.3736 65.4973 15.4947 66.2883 15.6925 67.0866C16.0583 68.5573 16.2931 69.7634 17.0222 70.7892C17.0988 70.8954 17.2422 70.9276 17.3559 70.8682L19.0391 69.9958C19.2788 69.8697 19.3851 69.5855 19.2862 69.3358C18.9946 68.5869 18.6955 67.7812 18.3915 66.9186C18.132 66.1919 18.3717 65.7421 19.1058 65.569C20.0821 65.3392 21.0065 65.0624 21.879 64.741C22.1212 64.6521 22.3931 64.7756 22.4821 65.0179C22.4821 65.0179 22.4821 65.0228 22.4821 65.0253C22.8677 66.1153 23.1914 67.2547 23.6833 68.1915C24.447 69.6423 25.4382 70.9251 26.6592 72.0398C27.062 72.4081 27.4402 72.7665 27.7912 73.115C27.9494 73.2682 27.9543 73.5203 27.8035 73.681C27.0052 74.5362 26.4886 75.4902 25.7274 76.4023C25.5321 76.6371 25.1836 76.6692 24.9488 76.4764C24.9463 76.474 24.9414 76.4715 24.9389 76.4665L21.9902 73.9034C21.9062 73.8293 21.7826 73.8144 21.6813 73.8663C21.1153 74.1531 20.7766 74.5535 20.3392 75.0256C19.657 75.7646 22.3634 77.8136 23.32 78.4686C25.4629 79.9367 27.2919 80.9501 30.0873 81.741C30.505 81.8572 30.7819 81.7114 30.9178 81.3011L31.1922 80.478C31.3083 80.1345 31.16 79.7588 30.8437 79.5858L28.8787 78.5081C28.6217 78.3672 28.5154 78.0558 28.6315 77.7913L29.9415 74.7907C30.0379 74.5708 30.2925 74.4695 30.5125 74.5658C30.5149 74.5658 30.5199 74.5683 30.5224 74.5708C32.3415 75.4161 34.1384 76.1378 35.9995 76.8744C37.3837 77.4231 38.7554 77.6678 40.2063 77.9545C40.5597 78.0237 40.7896 78.3647 40.7204 78.7182C40.7105 78.7726 40.6907 78.827 40.666 78.8789C40.2681 79.697 39.9369 80.6288 39.6699 81.6743C39.5513 82.139 39.2448 82.3268 38.7529 82.2353C37.4899 82.0005 36.652 81.8374 36.2343 81.746C35.9822 81.6891 35.7252 81.8251 35.6288 82.0673L35.2432 83.0436C35.1419 83.3006 35.221 83.4761 35.4805 83.5676L40.923 85.5276C41.0096 85.5573 41.1035 85.5548 41.185 85.5202L46.6474 83.1524C46.8204 83.0757 46.8797 82.9497 46.8278 82.7692L46.4966 81.6323C46.4546 81.4889 46.3112 81.4 46.1629 81.4271C45.4956 81.5433 44.8777 81.7806 44.3092 82.139C44.1461 82.2428 43.931 82.1958 43.8272 82.0327C43.8248 82.0277 43.8223 82.0228 43.8198 82.0203C43.1129 80.8092 42.804 79.524 42.364 78.2659C42.2577 77.9545 42.4184 77.6159 42.7249 77.5046L51.5042 74.2841C51.6698 74.2248 51.8552 74.2692 51.9738 74.4002C52.9575 75.4902 53.1552 76.7557 53.7188 77.9866C53.7954 78.1522 53.7509 78.2733 53.5878 78.3499L51.1458 79.4844C50.8121 79.6401 50.7207 79.8848 50.8714 80.221L51.3386 81.2615C51.4943 81.6125 51.8996 81.7781 52.258 81.6372C53.4938 81.1454 54.7396 80.8043 55.8567 80.2012C58.4495 78.8022 60.4095 77.5392 62.3275 75.3518C62.3819 75.29 62.377 75.1936 62.3152 75.1368L60.936 73.9109C60.6839 73.6859 60.4318 73.6859 60.1797 73.9109L57.7204 76.1032C57.5004 76.2985 57.2952 76.2836 57.1074 76.0562L54.8162 73.2929C54.7272 73.1867 54.7148 73.0359 54.7841 72.9148C54.8804 72.7516 55.0287 72.5836 55.224 72.4105C57.4559 70.4555 58.9488 68.0456 59.7026 65.181C60.0709 63.7796 61.1782 64.484 62.1298 64.914C62.807 65.2205 64.5545 65.0945 64.2529 66.1721C63.9217 67.3659 63.4027 68.4213 63.1259 69.6324C63.1086 69.7165 63.1481 69.803 63.2247 69.8425L65.076 70.8114C65.1378 70.846 65.2169 70.8213 65.249 70.7595C66.255 68.7402 66.8828 66.6195 67.1349 64.3975C67.3005 62.9392 67.1571 60.9347 67.3128 59.1699C67.3351 58.9079 67.1423 58.6781 66.8803 58.6558C66.863 58.6558 66.8457 58.6558 66.8284 58.6558L65.1007 58.6929C64.9326 58.6978 64.7992 58.8313 64.7942 58.9994L64.7522 60.9693C64.7448 61.3153 64.4655 61.5921 64.1195 61.5971L60.8816 61.6342C60.5924 61.6391 60.3551 61.4068 60.3502 61.1176C60.3502 61.1151 60.3502 61.1126 60.3502 61.1102L60.3626 51.0184C60.3626 50.8182 60.4614 50.7218 60.6616 50.7268L64.0923 50.8306C64.3913 50.8405 64.6311 51.0778 64.6459 51.3768L64.73 53.1836C64.7473 53.5717 64.9499 53.7595 65.338 53.7496L66.2995 53.7274C66.7122 53.7175 66.9371 53.5074 66.9767 53.0971C67.0657 52.1752 67.1373 51.3348 67.078 50.3807C66.9544 48.4133 67.1324 46.9847 67.0261 45.2768C67.0187 45.1409 66.9248 45.0247 66.7913 44.9926C66.161 44.8369 65.5258 44.8245 64.8882 44.9555C64.7745 44.9777 64.7151 45.0469 64.7127 45.1631L64.6039 47.7139C64.594 47.9289 64.4185 48.0994 64.2035 48.0994C63.2964 48.1019 62.3498 48.134 61.3636 48.1933C61.1658 48.2057 60.9385 48.1241 60.6839 47.9487C60.6171 47.9042 60.5702 47.8448 60.543 47.7707C60.2909 47.0688 60.1846 46.3569 60.2242 45.6352C60.3131 43.999 60.2884 42.6297 60.3477 41.1145C60.3996 39.77 59.4777 37.4491 61.7912 37.3527C62.4511 37.3255 63.116 37.323 63.7833 37.3478C64.8585 37.3873 64.7127 38.8085 64.6805 39.466C64.6632 39.8219 64.8313 40.0023 65.1872 40.0048L66.5788 40.0171C66.8086 40.0171 66.9989 39.8342 67.0014 39.6019L67.1052 31.7495C67.1052 31.5938 66.9841 31.4628 66.8284 31.4529L64.9574 31.3417C64.7769 31.3318 64.6237 31.4677 64.6113 31.6481C64.6113 31.6556 64.6113 31.6654 64.6113 31.6729L64.6434 33.6996C64.6509 34.1667 64.421 34.3966 63.9539 34.3941L60.9434 34.3793C60.5998 34.3793 60.4219 34.2063 60.4071 33.8627C60.328 32.0387 60.2958 30.2517 60.3107 28.5042C60.3205 27.3598 60.1994 25.5975 60.4293 24.0972C60.4416 24.0206 60.5133 23.9663 60.5924 23.9786C60.5998 23.9786 60.6072 23.9811 60.6122 23.9836C60.9063 24.075 61.2178 24.1022 61.5465 24.0651C62.4387 23.9613 63.3384 23.8971 64.243 23.8723C64.3197 23.8723 64.379 23.9045 64.4161 23.9712C64.8189 24.7078 64.5446 25.5531 64.51 26.208C64.4976 26.4577 64.6187 26.5961 64.8684 26.6233L66.5837 26.7914C66.8482 26.8185 66.9767 26.6999 66.9742 26.4354L66.8556 17.315C66.8556 17.1519 66.7715 17.0704 66.6059 17.0679L57.0975 17.011C56.7638 17.011 56.5933 17.1742 56.5834 17.5078L56.5537 18.5509C56.5439 18.9191 56.7218 19.1144 57.0901 19.1317L59.5173 19.2479C59.6952 19.2578 59.8312 19.4085 59.8213 19.5865C59.8213 19.589 59.8213 19.5914 59.8213 19.5964C59.7595 20.2885 59.762 20.7729 59.8509 21.5885C59.935 22.3424 59.7694 22.9183 59.6211 23.6474C59.5667 23.9119 59.406 24.0305 59.1366 24.0033C58.41 23.9218 57.8538 23.8798 57.4683 23.8773C55.9729 23.8649 53.7484 23.8649 50.7948 23.8822C50.3623 23.8822 49.952 23.855 49.5689 23.7932C49.2797 23.7488 49.0745 23.4843 49.0993 23.1926C49.1808 22.2089 49.2154 21.203 49.1981 20.1747C49.1882 19.5816 49.2995 19.1984 49.9915 19.3097C50.6613 19.4184 51.3163 19.3542 51.9565 19.1169C52.0529 19.0798 52.0998 19.0106 52.1023 18.9093L52.1419 17.4238C52.1468 17.2458 52.0034 17.0976 51.8255 17.0926C51.8255 17.0926 51.8255 17.0926 51.823 17.0926L43.758 16.9344C43.459 16.9295 43.3082 17.0778 43.3107 17.3768L43.3156 18.8153C43.3156 19.0946 43.543 19.322 43.8223 19.3196L46.0641 19.3121C46.1802 19.3121 46.2841 19.3863 46.3211 19.4975L46.3285 19.4926Z"/>
</mask>
<path d="M58.7832 20.0413C57.9527 19.9696 57.2903 19.9375 56.796 19.94C55.4835 19.9474 55.6491 18.1505 55.6813 17.3175C55.6936 16.9567 55.7776 16.623 55.9334 16.3165C55.9853 16.2127 56.0916 16.1484 56.2077 16.1484L66.9594 16.2374C67.4809 16.2424 67.7429 16.5044 67.7478 17.0259C67.7602 18.9266 67.775 20.8372 67.7923 22.7576C67.7948 23.2297 67.7998 23.7018 67.8072 24.1763C67.822 25.1378 67.7973 26.1191 67.733 27.1225C67.7206 27.303 67.5724 27.4463 67.3919 27.4513L63.8179 27.5106C63.6696 27.5106 63.5485 27.3944 63.546 27.2486C63.546 27.2239 63.5485 27.1992 63.5559 27.1745C63.766 26.428 63.8303 25.6668 63.7438 24.8907C63.7339 24.8116 63.6696 24.7522 63.5881 24.7498L61.5069 24.7152C61.2672 24.7102 61.1436 24.8289 61.1411 25.0686C61.0892 27.7133 61.329 30.3629 61.1312 32.9853C61.1041 33.3635 61.2795 33.5612 61.6577 33.5735L63.6449 33.6502C63.7586 33.6551 63.8525 33.5661 63.8575 33.4524C63.8575 33.4524 63.8575 33.4524 63.8575 33.45L63.9168 31.0624C63.9217 30.8671 64.0231 30.7583 64.2183 30.7361C65.0661 30.6422 65.9534 30.6051 66.8803 30.6274C67.5254 30.6447 67.8442 31.0055 67.8344 31.7149C67.7998 34.54 67.7775 37.3453 67.7676 40.1284C67.7676 40.4472 67.513 40.7067 67.1967 40.7166L64.3345 40.813C64.1491 40.818 63.9934 40.6771 63.981 40.4942L63.8476 38.5317C63.8352 38.371 63.7042 38.2474 63.546 38.245C62.9553 38.2375 62.33 38.2054 61.675 38.1535C61.2919 38.1214 61.1139 38.3018 61.1461 38.6948C61.2845 40.4274 61.2993 42.1576 61.1881 43.8878C61.1214 44.9234 61.198 46.0282 61.1238 47.0959C61.1164 47.1948 61.1906 47.2789 61.2894 47.2887C61.2944 47.2887 61.2993 47.2887 61.3043 47.2887L63.7092 47.2937C63.897 47.2937 64.0478 47.1404 64.0478 46.955C64.0478 46.9427 64.0478 46.9328 64.0478 46.9204L63.8426 44.8468C63.813 44.5378 64.0379 44.2634 64.3469 44.2338C64.3567 44.2338 64.3666 44.2338 64.3765 44.2338L67.3128 44.1201C67.5996 44.1077 67.8418 44.3302 67.8541 44.6194C67.8541 44.6268 67.8541 44.6366 67.8541 44.6441L67.8121 53.8065C67.8121 54.2711 67.5773 54.5084 67.1126 54.5183C66.4675 54.5307 65.7903 54.5232 65.0785 54.501C63.902 54.4614 63.9341 52.6522 63.8921 51.8019C63.8871 51.7105 63.8179 51.6364 63.7265 51.6289C63.0443 51.5622 62.3621 51.5325 61.6775 51.535C61.2746 51.535 61.0942 51.75 61.1337 52.1727C61.2425 53.3072 61.287 54.4417 61.2647 55.5762C61.2301 57.242 61.3018 58.8437 61.2326 60.5145C61.2252 60.6653 61.3413 60.7913 61.4921 60.7987C61.4995 60.7987 61.5094 60.7987 61.5168 60.7987L63.635 60.7073C63.7957 60.6999 63.9242 60.5763 63.9366 60.4157L64.1022 58.2332C64.112 58.1121 64.2084 58.0157 64.3296 58.0108L67.3722 57.8699C67.5427 57.86 67.6984 57.9638 67.7602 58.122C67.9555 58.6287 68.0519 59.1354 68.0494 59.647C68.042 62.519 68.2076 65.5394 66.9891 68.5523C66.732 69.1949 66.1981 72.2202 64.9796 71.6468C63.9959 71.1821 63.0418 70.6705 62.1199 70.1144C62.0655 70.0823 62.0532 70.0353 62.0804 69.9785C62.6365 68.8291 63.069 67.6329 63.3804 66.3896C63.4299 66.1894 63.3557 66.0634 63.158 66.009L60.8693 65.3837C60.7012 65.3367 60.5257 65.4356 60.4763 65.6036C59.6186 68.5672 57.9997 71.019 55.6244 72.9543C55.5305 73.0309 55.5255 73.1125 55.6071 73.2015L57.3249 75.0725C57.4559 75.2134 57.6042 75.2357 57.7723 75.1442C58.6027 74.6771 59.3294 73.6686 60.0289 73.0606C60.2464 72.8727 60.5677 72.8678 60.7877 73.0507C61.5267 73.6612 62.6958 74.2668 63.2495 74.9835C63.3038 75.0552 63.3187 75.1368 63.2939 75.2233C63.074 75.992 62.021 76.7186 61.4056 77.1833C60.9088 77.5565 60.4169 77.9718 59.935 78.4266C58.0911 80.1542 55.9803 81.0267 53.6644 81.9561C52.955 82.2403 52.2432 82.2897 51.5264 82.4652C51.1631 82.5517 50.7948 82.3515 50.6737 82.0006L49.8383 79.5932C49.774 79.4053 49.8655 79.2026 50.0484 79.1285L52.6955 78.0608C52.787 78.0237 52.8314 77.9174 52.7944 77.8259L51.7662 75.4087C51.6895 75.2258 51.4819 75.1393 51.299 75.2134C50.8739 75.384 50.434 75.5471 49.9792 75.7003C48.9806 76.0365 48.0167 76.6297 47.0354 76.904C45.6661 77.2871 44.4674 77.7592 43.4367 78.3252C43.3626 78.3672 43.3378 78.429 43.3601 78.5106C43.5356 79.1334 43.7358 79.7538 43.9632 80.3693C44.6256 82.1637 46.4719 79.2027 47.1911 81.3579C47.421 82.0475 47.6756 82.7618 47.9549 83.4959C48.0068 83.6368 47.9425 83.7925 47.8066 83.8518C46.593 84.3931 45.3621 84.6007 44.1609 85.2285C43.4194 85.6141 42.5099 85.7822 41.7609 86.3408C41.2814 86.6992 40.9305 86.7486 40.4262 86.4668C38.3748 85.3175 36.8349 84.927 34.9046 84.2621C34.4449 84.1039 34.2002 83.6047 34.3584 83.1449L35.2135 80.6436C35.2432 80.5571 35.3347 80.5077 35.4212 80.5299L38.4638 81.306C38.6887 81.3629 38.9185 81.2418 38.9976 81.0243L39.6427 79.2249C39.6996 79.0667 39.6254 78.8887 39.4722 78.8195C38.5503 78.3994 37.4405 78.2511 36.7188 78.0237C34.2644 77.2501 32.5788 76.5605 30.8239 75.6138C30.6286 75.51 30.3889 75.5841 30.2875 75.7769C30.2752 75.8016 30.2628 75.8264 30.2554 75.8536C30.0824 76.4641 29.8155 77.0276 29.4571 77.5491C29.3656 77.6801 29.4002 77.8605 29.5312 77.952C30.2851 78.4686 31.0933 78.8789 31.9534 79.1829C32.2105 79.2718 32.344 79.5536 32.255 79.8107C32.2476 79.8305 32.2402 79.8502 32.2303 79.87C31.9114 80.5003 31.6717 81.1923 31.511 81.9437C31.4542 82.2082 31.3059 82.4356 31.0661 82.6259C30.9994 82.6778 30.9252 82.7 30.8437 82.6926C29.9094 82.5938 28.938 82.0821 28.0285 81.8251C27.24 81.6002 26.6023 81.3629 26.1154 81.1108C24.4347 80.2432 23.2038 79.4572 22.4228 78.7578C21.2438 77.6974 19.9981 76.7854 19.2096 75.4235C19.1429 75.3049 19.1379 75.159 19.1997 75.0354C19.6001 74.2346 21.0016 73.33 21.6961 72.9568C21.8617 72.8678 22.0668 72.8975 22.1978 73.0309C23.1025 73.938 23.8761 74.8426 24.9686 75.5619C25.1416 75.6781 25.3714 75.641 25.5024 75.4779L26.7259 73.9578C26.8791 73.7675 26.8816 73.4956 26.7309 73.3004C25.935 72.2771 24.887 71.4862 24.0936 70.4135C23.1939 69.1949 22.5315 67.4648 21.9383 66.0263C21.8518 65.8113 21.6912 65.7149 21.4588 65.7322C20.7593 65.7915 19.6669 65.9052 19.1281 66.3624C19.0663 66.4143 19.0292 66.4909 19.0292 66.5725C19.0292 66.8469 19.0811 67.1039 19.1923 67.3486C19.5754 68.1989 19.9091 69.0689 20.1933 69.9562C20.2205 70.0378 20.1983 70.107 20.1315 70.1589C19.2467 70.8682 18.3693 70.9078 17.5388 71.8371C17.4819 71.8989 17.4127 71.9385 17.3312 71.9508C16.9085 72.0225 16.6243 71.8619 16.476 71.4689C15.863 69.8623 15.2031 68.4559 14.9164 66.9037C14.7755 66.1351 14.6445 65.3614 14.5259 64.5878C14.2144 62.5561 14.422 60.6381 14.4665 58.6262C14.4739 58.2703 14.7681 57.991 15.1215 57.9984C15.124 57.9984 15.1289 57.9984 15.1314 57.9984L18.0331 58.1022C18.389 58.1146 18.6733 58.3988 18.6881 58.7547L18.7647 60.8136C18.7721 61.0385 18.96 61.214 19.1849 61.2066L21.2413 61.1398C21.397 61.1349 21.5231 61.0039 21.5206 60.8482L21.4193 52.101C21.4193 51.9552 21.3427 51.8835 21.1968 51.8811L19.1182 51.8563C18.7252 51.8514 18.5472 52.0442 18.5892 52.4372C18.6436 52.9587 18.6584 53.4852 18.6337 54.0215C18.6065 54.6369 18.4212 54.7976 17.8057 54.847C16.78 54.9286 15.821 54.894 14.9263 54.7407C14.6915 54.7012 14.5184 54.501 14.5135 54.2637C14.4369 51.1593 14.3825 48.134 14.3553 45.1878C14.3504 44.5922 14.6124 44.2857 15.1438 44.2634C16.0607 44.2263 16.9678 44.2881 17.8651 44.4488C18.9476 44.6465 18.6807 46.4039 18.6164 47.1726C18.6115 47.2516 18.6659 47.3209 18.745 47.3357C19.479 47.4692 20.2131 47.484 20.9472 47.3777C21.1869 47.3431 21.3624 47.1355 21.3624 46.8957L21.3229 38.7343C21.3229 38.5514 21.1746 38.4031 20.9917 38.4007L18.9946 38.3784C18.7845 38.3784 18.6115 38.5391 18.5966 38.7467L18.4607 40.8254C18.4409 41.1121 18.1962 41.3296 17.9095 41.3148L14.9732 41.1763C14.6445 41.1615 14.385 40.8921 14.3825 40.5658L14.2713 31.1983C14.2639 30.6323 14.5431 30.3505 15.1092 30.358L17.9219 30.3876C18.1789 30.3876 18.389 30.5928 18.3989 30.8498L18.5027 33.5068C18.5052 33.5859 18.5719 33.6477 18.651 33.6452C18.651 33.6452 18.6535 33.6452 18.656 33.6452C19.3703 33.5884 20.0574 33.6947 20.7223 33.9616C20.9942 34.0704 21.1301 33.9789 21.1326 33.6848L21.1647 24.8931C21.1647 24.7102 21.0164 24.5619 20.831 24.5619C20.8113 24.5619 20.7915 24.5619 20.7717 24.5669C20.0178 24.7053 19.2788 24.6583 18.5571 24.426C18.5126 24.4112 18.4657 24.4334 18.4508 24.4779C18.4459 24.4878 18.4459 24.5001 18.4459 24.5125C18.5225 25.4245 18.4459 26.3218 18.216 27.2066C18.1765 27.3574 18.0405 27.4636 17.8848 27.4661C17.1062 27.4809 16.3005 27.4439 15.4947 27.476C14.7087 27.5081 14.2441 27.1102 14.1798 26.2995C14.034 24.4606 14.3331 22.5895 14.2021 20.7655C14.1452 19.9869 14.0884 19.2108 14.029 18.4322C13.9771 17.7649 14.0711 17.1074 14.0982 16.4673C14.1081 16.2176 14.3207 16.0224 14.5703 16.0347C14.5778 16.0347 14.5827 16.0347 14.5901 16.0347C17.4127 16.272 20.2625 16.0347 23.142 16.1287C24.3778 16.1682 26.281 15.4737 26.0932 17.5696C26.0437 18.1258 26.0141 18.6819 26.0042 19.238C25.9844 20.4367 24.1727 20.113 23.4287 20.0116C23.2606 19.9894 23.1816 20.0611 23.189 20.2316L23.2878 22.3968C23.2977 22.6068 23.4707 22.7749 23.6833 22.7749L31.7236 22.7823C31.9164 22.7823 32.0721 22.6291 32.0746 22.4388C32.0746 22.4388 32.0746 22.4363 32.0746 22.4338V20.5233C32.0746 20.3132 31.9089 20.1377 31.6989 20.1278L29.3458 20.0042C29.2297 19.9968 29.1308 19.9128 29.111 19.7966C28.9207 18.7041 29.0394 17.6512 28.9973 16.5884C28.9875 16.319 29.1976 16.0941 29.467 16.0817C29.4769 16.0817 29.4867 16.0817 29.4966 16.0817C30.4457 16.1039 31.3924 16.23 32.2797 16.2102C34.0049 16.1682 35.7301 16.1509 37.4553 16.1583C38.3328 16.1633 39.4747 16.1064 39.4994 17.1989C39.5216 18.0961 39.4475 18.9859 39.2769 19.8707C39.2596 19.9548 39.2102 19.9968 39.1237 19.9993L36.5952 20.0487C36.4395 20.0512 36.3159 20.1797 36.3184 20.3354C36.3184 20.3379 36.3184 20.3403 36.3184 20.3428L36.4123 22.4264C36.4197 22.6019 36.5581 22.7428 36.7336 22.7551C39.576 22.9282 42.4209 22.9677 45.2657 22.8763C45.4313 22.8713 45.5648 22.7354 45.5623 22.5698L45.545 20.4046C45.545 20.281 45.4462 20.1797 45.3226 20.1723L43.0091 20.0413C42.8979 20.0339 42.8015 19.9548 42.7768 19.8436C42.5321 18.7783 42.4703 17.7031 42.5964 16.6205C42.6235 16.3857 42.8163 16.2053 43.0536 16.1954C44.3858 16.1435 45.8935 16.2399 47.0602 16.2251C47.8165 16.2176 48.5728 16.2102 49.3291 16.2028C50.083 16.1954 51.1433 16.3313 52.0158 16.2003C52.431 16.1361 52.8191 16.4203 52.8834 16.8355C52.8883 16.8726 52.8932 16.9097 52.8932 16.9492L52.913 19.3641C52.9155 19.8312 52.6832 20.0611 52.216 20.0586L50.3549 20.0388C50.167 20.0363 50.0113 20.1871 50.0064 20.3749L49.952 22.6464C49.9495 22.7848 50.0583 22.901 50.1967 22.9035C50.1967 22.9035 50.1967 22.9035 50.1991 22.9035L58.7239 23.0542C58.8203 23.0542 58.8969 22.9801 58.8993 22.8837C58.8993 22.8837 58.8993 22.8837 58.8993 22.8812V20.1723C58.9018 20.0932 58.8623 20.0512 58.7832 20.0438V20.0413ZM46.3285 19.4926C46.3557 19.5741 46.3681 19.673 46.3607 19.7892C46.2989 20.8396 46.2964 21.8901 46.3508 22.9405C46.3632 23.1284 46.3088 23.3187 46.1877 23.509C46.1456 23.5782 46.0814 23.6276 46.0048 23.6499C45.2558 23.8773 44.5267 23.9589 43.8174 23.8946C41.8376 23.7166 39.9443 23.6845 38.1375 23.7957C37.7544 23.818 37.4257 23.8105 37.1513 23.7685C36.4889 23.6647 35.8092 23.7908 35.6782 22.8787C35.5324 21.8481 35.5349 20.7754 35.6856 19.6607C35.7202 19.4011 35.955 19.2133 36.217 19.2405C37.0055 19.3171 37.7915 19.2924 38.57 19.1663C38.6936 19.1466 38.7826 19.0378 38.7801 18.9142L38.748 17.1569C38.7455 17.0209 38.6368 16.9147 38.5008 16.9122C37.5764 16.9072 36.6125 17.0358 35.7746 17.0209C33.8541 16.9888 31.9065 17.1025 30.0008 16.8405C29.8402 16.8183 29.6943 16.9295 29.6721 17.0901C29.6721 17.1074 29.6696 17.1223 29.6696 17.1396L29.7364 18.8104C29.7438 19.0131 29.9044 19.1787 30.1096 19.1935L32.4082 19.3393C32.7864 19.364 32.9693 19.5667 32.952 19.9449C32.905 21.0275 32.8679 22.1372 32.8358 23.2767C32.8235 23.6672 32.643 23.855 32.2945 23.8377C30.0676 23.7389 28.1224 23.7191 26.459 23.7809C25.4382 23.818 24.4891 23.7141 23.488 23.6524C22.7589 23.6054 22.3758 23.2198 22.3437 22.4956C22.3066 21.6948 22.225 20.1747 22.5686 19.3072C22.6131 19.196 22.7218 19.1268 22.8405 19.1317L24.8203 19.2232C25.1391 19.238 25.2948 19.0848 25.2899 18.7659L25.2726 17.4634C25.2676 17.1495 25.1094 16.9937 24.7955 16.9962L15.4577 17.011C15.213 17.011 15.0869 17.1346 15.0844 17.3793L14.988 26.1018C14.9856 26.3662 15.1957 26.5813 15.4601 26.5837C15.4626 26.5837 15.4651 26.5837 15.4675 26.5837L17.2298 26.5763C17.4523 26.5763 17.6327 26.3959 17.6352 26.1734L17.6673 23.7364C17.6673 23.5214 17.7785 23.4225 17.9936 23.4423L21.5503 23.7685C21.7406 23.7858 21.9013 23.9242 21.9433 24.1121C21.9853 24.2925 22.0051 24.4977 22.0026 24.7325C21.9927 26.4503 22.0248 28.1656 22.0965 29.8809C22.1113 30.2393 22.0916 30.7188 22.0347 31.3194C21.9532 32.2166 22.0718 33.146 22.0026 34.0778C21.9878 34.2903 21.8197 34.4584 21.6071 34.4732C20.5666 34.5498 19.5062 34.5597 18.4236 34.5078C17.7365 34.4757 17.5833 34.2113 17.6327 33.539C17.6772 32.9581 17.655 32.271 17.5685 31.4776C17.5536 31.3416 17.435 31.2403 17.299 31.2453L15.3563 31.317C15.2352 31.3219 15.1759 31.3861 15.1759 31.5072L15.1932 39.9306C15.1932 40.0814 15.3069 40.2075 15.4552 40.2248L17.3015 40.4373C17.4869 40.4596 17.6525 40.3286 17.6747 40.1432C17.6747 40.1358 17.6747 40.1308 17.6747 40.1234C17.7167 39.4783 17.7538 38.8826 17.7909 38.3315C17.828 37.7655 18.1172 37.4763 18.6634 37.4664C19.5112 37.4491 20.3812 37.454 21.2734 37.4862C21.7579 37.5035 22.1509 37.8816 22.1855 38.3636C22.3288 40.3236 22.141 42.2639 22.2399 44.2165C22.3016 45.4399 22.2003 46.6164 22.1978 47.8498C22.1978 48.2749 21.9828 48.4726 21.5602 48.4455C20.5295 48.3738 19.1404 48.4282 18.0974 48.0154C18.0158 47.9833 17.9614 47.9289 17.9293 47.8473C17.7118 47.3134 17.8972 46.1715 17.9516 45.5784C17.9689 45.393 17.8354 45.2299 17.65 45.2101C17.6451 45.2101 17.6377 45.2101 17.6327 45.2101L15.6134 45.1137C15.4231 45.1063 15.2624 45.2496 15.25 45.4375C15.1512 46.9031 15.1388 48.3342 15.2105 49.7332C15.2772 51.0209 15.0276 52.4372 15.2945 53.8238C15.3192 53.9498 15.3959 54.0067 15.5244 53.9943C16.2387 53.9152 16.9406 53.9721 17.6352 54.1649C17.7439 54.1945 17.8576 54.1303 17.8873 54.0215C17.8947 53.9943 17.8972 53.9671 17.8922 53.9399C17.7687 52.9562 17.5338 51.1346 19.0317 51.1396C19.7188 51.1396 20.401 51.0926 21.0782 50.9962C21.9013 50.8751 22.1385 51.4114 22.188 52.106C22.2868 53.5 22.3338 54.8965 22.3264 56.2954C22.3165 58.0528 22.3313 59.7705 22.3733 61.4488C22.3807 61.8097 22.0965 62.1087 21.7356 62.1162C21.701 62.1162 21.6664 62.1162 21.6343 62.1112C20.7495 61.9926 19.8424 61.9407 18.913 61.9555C17.655 61.9753 17.9441 59.998 17.9318 59.212C17.9268 58.9673 17.7217 58.772 17.477 58.777L15.4058 58.8289C15.3193 58.8289 15.2748 58.8733 15.2723 58.9599C15.2031 60.8803 15.2229 62.8008 15.3316 64.7188C15.3736 65.4973 15.4947 66.2883 15.6925 67.0866C16.0583 68.5573 16.2931 69.7634 17.0222 70.7892C17.0988 70.8954 17.2422 70.9276 17.3559 70.8682L19.0391 69.9958C19.2788 69.8697 19.3851 69.5855 19.2862 69.3358C18.9946 68.5869 18.6955 67.7812 18.3915 66.9186C18.132 66.1919 18.3717 65.7421 19.1058 65.569C20.0821 65.3392 21.0065 65.0624 21.879 64.741C22.1212 64.6521 22.3931 64.7756 22.4821 65.0179C22.4821 65.0179 22.4821 65.0228 22.4821 65.0253C22.8677 66.1153 23.1914 67.2547 23.6833 68.1915C24.447 69.6423 25.4382 70.9251 26.6592 72.0398C27.062 72.4081 27.4402 72.7665 27.7912 73.115C27.9494 73.2682 27.9543 73.5203 27.8035 73.681C27.0052 74.5362 26.4886 75.4902 25.7274 76.4023C25.5321 76.6371 25.1836 76.6692 24.9488 76.4764C24.9463 76.474 24.9414 76.4715 24.9389 76.4665L21.9902 73.9034C21.9062 73.8293 21.7826 73.8144 21.6813 73.8663C21.1153 74.1531 20.7766 74.5535 20.3392 75.0256C19.657 75.7646 22.3634 77.8136 23.32 78.4686C25.4629 79.9367 27.2919 80.9501 30.0873 81.741C30.505 81.8572 30.7819 81.7114 30.9178 81.3011L31.1922 80.478C31.3083 80.1345 31.16 79.7588 30.8437 79.5858L28.8787 78.5081C28.6217 78.3672 28.5154 78.0558 28.6315 77.7913L29.9415 74.7907C30.0379 74.5708 30.2925 74.4695 30.5125 74.5658C30.5149 74.5658 30.5199 74.5683 30.5224 74.5708C32.3415 75.4161 34.1384 76.1378 35.9995 76.8744C37.3837 77.4231 38.7554 77.6678 40.2063 77.9545C40.5597 78.0237 40.7896 78.3647 40.7204 78.7182C40.7105 78.7726 40.6907 78.827 40.666 78.8789C40.2681 79.697 39.9369 80.6288 39.6699 81.6743C39.5513 82.139 39.2448 82.3268 38.7529 82.2353C37.4899 82.0005 36.652 81.8374 36.2343 81.746C35.9822 81.6891 35.7252 81.8251 35.6288 82.0673L35.2432 83.0436C35.1419 83.3006 35.221 83.4761 35.4805 83.5676L40.923 85.5276C41.0096 85.5573 41.1035 85.5548 41.185 85.5202L46.6474 83.1524C46.8204 83.0757 46.8797 82.9497 46.8278 82.7692L46.4966 81.6323C46.4546 81.4889 46.3112 81.4 46.1629 81.4271C45.4956 81.5433 44.8777 81.7806 44.3092 82.139C44.1461 82.2428 43.931 82.1958 43.8272 82.0327C43.8248 82.0277 43.8223 82.0228 43.8198 82.0203C43.1129 80.8092 42.804 79.524 42.364 78.2659C42.2577 77.9545 42.4184 77.6159 42.7249 77.5046L51.5042 74.2841C51.6698 74.2248 51.8552 74.2692 51.9738 74.4002C52.9575 75.4902 53.1552 76.7557 53.7188 77.9866C53.7954 78.1522 53.7509 78.2733 53.5878 78.3499L51.1458 79.4844C50.8121 79.6401 50.7207 79.8848 50.8714 80.221L51.3386 81.2615C51.4943 81.6125 51.8996 81.7781 52.258 81.6372C53.4938 81.1454 54.7396 80.8043 55.8567 80.2012C58.4495 78.8022 60.4095 77.5392 62.3275 75.3518C62.3819 75.29 62.377 75.1936 62.3152 75.1368L60.936 73.9109C60.6839 73.6859 60.4318 73.6859 60.1797 73.9109L57.7204 76.1032C57.5004 76.2985 57.2952 76.2836 57.1074 76.0562L54.8162 73.2929C54.7272 73.1867 54.7148 73.0359 54.7841 72.9148C54.8804 72.7516 55.0287 72.5836 55.224 72.4105C57.4559 70.4555 58.9488 68.0456 59.7026 65.181C60.0709 63.7796 61.1782 64.484 62.1298 64.914C62.807 65.2205 64.5545 65.0945 64.2529 66.1721C63.9217 67.3659 63.4027 68.4213 63.1259 69.6324C63.1086 69.7165 63.1481 69.803 63.2247 69.8425L65.076 70.8114C65.1378 70.846 65.2169 70.8213 65.249 70.7595C66.255 68.7402 66.8828 66.6195 67.1349 64.3975C67.3005 62.9392 67.1571 60.9347 67.3128 59.1699C67.3351 58.9079 67.1423 58.6781 66.8803 58.6558C66.863 58.6558 66.8457 58.6558 66.8284 58.6558L65.1007 58.6929C64.9326 58.6978 64.7992 58.8313 64.7942 58.9994L64.7522 60.9693C64.7448 61.3153 64.4655 61.5921 64.1195 61.5971L60.8816 61.6342C60.5924 61.6391 60.3551 61.4068 60.3502 61.1176C60.3502 61.1151 60.3502 61.1126 60.3502 61.1102L60.3626 51.0184C60.3626 50.8182 60.4614 50.7218 60.6616 50.7268L64.0923 50.8306C64.3913 50.8405 64.6311 51.0778 64.6459 51.3768L64.73 53.1836C64.7473 53.5717 64.9499 53.7595 65.338 53.7496L66.2995 53.7274C66.7122 53.7175 66.9371 53.5074 66.9767 53.0971C67.0657 52.1752 67.1373 51.3348 67.078 50.3807C66.9544 48.4133 67.1324 46.9847 67.0261 45.2768C67.0187 45.1409 66.9248 45.0247 66.7913 44.9926C66.161 44.8369 65.5258 44.8245 64.8882 44.9555C64.7745 44.9777 64.7151 45.0469 64.7127 45.1631L64.6039 47.7139C64.594 47.9289 64.4185 48.0994 64.2035 48.0994C63.2964 48.1019 62.3498 48.134 61.3636 48.1933C61.1658 48.2057 60.9385 48.1241 60.6839 47.9487C60.6171 47.9042 60.5702 47.8448 60.543 47.7707C60.2909 47.0688 60.1846 46.3569 60.2242 45.6352C60.3131 43.999 60.2884 42.6297 60.3477 41.1145C60.3996 39.77 59.4777 37.4491 61.7912 37.3527C62.4511 37.3255 63.116 37.323 63.7833 37.3478C64.8585 37.3873 64.7127 38.8085 64.6805 39.466C64.6632 39.8219 64.8313 40.0023 65.1872 40.0048L66.5788 40.0171C66.8086 40.0171 66.9989 39.8342 67.0014 39.6019L67.1052 31.7495C67.1052 31.5938 66.9841 31.4628 66.8284 31.4529L64.9574 31.3417C64.7769 31.3318 64.6237 31.4677 64.6113 31.6481C64.6113 31.6556 64.6113 31.6654 64.6113 31.6729L64.6434 33.6996C64.6509 34.1667 64.421 34.3966 63.9539 34.3941L60.9434 34.3793C60.5998 34.3793 60.4219 34.2063 60.4071 33.8627C60.328 32.0387 60.2958 30.2517 60.3107 28.5042C60.3205 27.3598 60.1994 25.5975 60.4293 24.0972C60.4416 24.0206 60.5133 23.9663 60.5924 23.9786C60.5998 23.9786 60.6072 23.9811 60.6122 23.9836C60.9063 24.075 61.2178 24.1022 61.5465 24.0651C62.4387 23.9613 63.3384 23.8971 64.243 23.8723C64.3197 23.8723 64.379 23.9045 64.4161 23.9712C64.8189 24.7078 64.5446 25.5531 64.51 26.208C64.4976 26.4577 64.6187 26.5961 64.8684 26.6233L66.5837 26.7914C66.8482 26.8185 66.9767 26.6999 66.9742 26.4354L66.8556 17.315C66.8556 17.1519 66.7715 17.0704 66.6059 17.0679L57.0975 17.011C56.7638 17.011 56.5933 17.1742 56.5834 17.5078L56.5537 18.5509C56.5439 18.9191 56.7218 19.1144 57.0901 19.1317L59.5173 19.2479C59.6952 19.2578 59.8312 19.4085 59.8213 19.5865C59.8213 19.589 59.8213 19.5914 59.8213 19.5964C59.7595 20.2885 59.762 20.7729 59.8509 21.5885C59.935 22.3424 59.7694 22.9183 59.6211 23.6474C59.5667 23.9119 59.406 24.0305 59.1366 24.0033C58.41 23.9218 57.8538 23.8798 57.4683 23.8773C55.9729 23.8649 53.7484 23.8649 50.7948 23.8822C50.3623 23.8822 49.952 23.855 49.5689 23.7932C49.2797 23.7488 49.0745 23.4843 49.0993 23.1926C49.1808 22.2089 49.2154 21.203 49.1981 20.1747C49.1882 19.5816 49.2995 19.1984 49.9915 19.3097C50.6613 19.4184 51.3163 19.3542 51.9565 19.1169C52.0529 19.0798 52.0998 19.0106 52.1023 18.9093L52.1419 17.4238C52.1468 17.2458 52.0034 17.0976 51.8255 17.0926C51.8255 17.0926 51.8255 17.0926 51.823 17.0926L43.758 16.9344C43.459 16.9295 43.3082 17.0778 43.3107 17.3768L43.3156 18.8153C43.3156 19.0946 43.543 19.322 43.8223 19.3196L46.0641 19.3121C46.1802 19.3121 46.2841 19.3863 46.3211 19.4975L46.3285 19.4926Z" fill="#EAFE01"/>
<path d="M58.7832 20.0413C57.9527 19.9696 57.2903 19.9375 56.796 19.94C55.4835 19.9474 55.6491 18.1505 55.6813 17.3175C55.6936 16.9567 55.7776 16.623 55.9334 16.3165C55.9853 16.2127 56.0916 16.1484 56.2077 16.1484L66.9594 16.2374C67.4809 16.2424 67.7429 16.5044 67.7478 17.0259C67.7602 18.9266 67.775 20.8372 67.7923 22.7576C67.7948 23.2297 67.7998 23.7018 67.8072 24.1763C67.822 25.1378 67.7973 26.1191 67.733 27.1225C67.7206 27.303 67.5724 27.4463 67.3919 27.4513L63.8179 27.5106C63.6696 27.5106 63.5485 27.3944 63.546 27.2486C63.546 27.2239 63.5485 27.1992 63.5559 27.1745C63.766 26.428 63.8303 25.6668 63.7438 24.8907C63.7339 24.8116 63.6696 24.7522 63.5881 24.7498L61.5069 24.7152C61.2672 24.7102 61.1436 24.8289 61.1411 25.0686C61.0892 27.7133 61.329 30.3629 61.1312 32.9853C61.1041 33.3635 61.2795 33.5612 61.6577 33.5735L63.6449 33.6502C63.7586 33.6551 63.8525 33.5661 63.8575 33.4524C63.8575 33.4524 63.8575 33.4524 63.8575 33.45L63.9168 31.0624C63.9217 30.8671 64.0231 30.7583 64.2183 30.7361C65.0661 30.6422 65.9534 30.6051 66.8803 30.6274C67.5254 30.6447 67.8442 31.0055 67.8344 31.7149C67.7998 34.54 67.7775 37.3453 67.7676 40.1284C67.7676 40.4472 67.513 40.7067 67.1967 40.7166L64.3345 40.813C64.1491 40.818 63.9934 40.6771 63.981 40.4942L63.8476 38.5317C63.8352 38.371 63.7042 38.2474 63.546 38.245C62.9553 38.2375 62.33 38.2054 61.675 38.1535C61.2919 38.1214 61.1139 38.3018 61.1461 38.6948C61.2845 40.4274 61.2993 42.1576 61.1881 43.8878C61.1214 44.9234 61.198 46.0282 61.1238 47.0959C61.1164 47.1948 61.1906 47.2789 61.2894 47.2887C61.2944 47.2887 61.2993 47.2887 61.3043 47.2887L63.7092 47.2937C63.897 47.2937 64.0478 47.1404 64.0478 46.955C64.0478 46.9427 64.0478 46.9328 64.0478 46.9204L63.8426 44.8468C63.813 44.5378 64.0379 44.2634 64.3469 44.2338C64.3567 44.2338 64.3666 44.2338 64.3765 44.2338L67.3128 44.1201C67.5996 44.1077 67.8418 44.3302 67.8541 44.6194C67.8541 44.6268 67.8541 44.6366 67.8541 44.6441L67.8121 53.8065C67.8121 54.2711 67.5773 54.5084 67.1126 54.5183C66.4675 54.5307 65.7903 54.5232 65.0785 54.501C63.902 54.4614 63.9341 52.6522 63.8921 51.8019C63.8871 51.7105 63.8179 51.6364 63.7265 51.6289C63.0443 51.5622 62.3621 51.5325 61.6775 51.535C61.2746 51.535 61.0942 51.75 61.1337 52.1727C61.2425 53.3072 61.287 54.4417 61.2647 55.5762C61.2301 57.242 61.3018 58.8437 61.2326 60.5145C61.2252 60.6653 61.3413 60.7913 61.4921 60.7987C61.4995 60.7987 61.5094 60.7987 61.5168 60.7987L63.635 60.7073C63.7957 60.6999 63.9242 60.5763 63.9366 60.4157L64.1022 58.2332C64.112 58.1121 64.2084 58.0157 64.3296 58.0108L67.3722 57.8699C67.5427 57.86 67.6984 57.9638 67.7602 58.122C67.9555 58.6287 68.0519 59.1354 68.0494 59.647C68.042 62.519 68.2076 65.5394 66.9891 68.5523C66.732 69.1949 66.1981 72.2202 64.9796 71.6468C63.9959 71.1821 63.0418 70.6705 62.1199 70.1144C62.0655 70.0823 62.0532 70.0353 62.0804 69.9785C62.6365 68.8291 63.069 67.6329 63.3804 66.3896C63.4299 66.1894 63.3557 66.0634 63.158 66.009L60.8693 65.3837C60.7012 65.3367 60.5257 65.4356 60.4763 65.6036C59.6186 68.5672 57.9997 71.019 55.6244 72.9543C55.5305 73.0309 55.5255 73.1125 55.6071 73.2015L57.3249 75.0725C57.4559 75.2134 57.6042 75.2357 57.7723 75.1442C58.6027 74.6771 59.3294 73.6686 60.0289 73.0606C60.2464 72.8727 60.5677 72.8678 60.7877 73.0507C61.5267 73.6612 62.6958 74.2668 63.2495 74.9835C63.3038 75.0552 63.3187 75.1368 63.2939 75.2233C63.074 75.992 62.021 76.7186 61.4056 77.1833C60.9088 77.5565 60.4169 77.9718 59.935 78.4266C58.0911 80.1542 55.9803 81.0267 53.6644 81.9561C52.955 82.2403 52.2432 82.2897 51.5264 82.4652C51.1631 82.5517 50.7948 82.3515 50.6737 82.0006L49.8383 79.5932C49.774 79.4053 49.8655 79.2026 50.0484 79.1285L52.6955 78.0608C52.787 78.0237 52.8314 77.9174 52.7944 77.8259L51.7662 75.4087C51.6895 75.2258 51.4819 75.1393 51.299 75.2134C50.8739 75.384 50.434 75.5471 49.9792 75.7003C48.9806 76.0365 48.0167 76.6297 47.0354 76.904C45.6661 77.2871 44.4674 77.7592 43.4367 78.3252C43.3626 78.3672 43.3378 78.429 43.3601 78.5106C43.5356 79.1334 43.7358 79.7538 43.9632 80.3693C44.6256 82.1637 46.4719 79.2027 47.1911 81.3579C47.421 82.0475 47.6756 82.7618 47.9549 83.4959C48.0068 83.6368 47.9425 83.7925 47.8066 83.8518C46.593 84.3931 45.3621 84.6007 44.1609 85.2285C43.4194 85.6141 42.5099 85.7822 41.7609 86.3408C41.2814 86.6992 40.9305 86.7486 40.4262 86.4668C38.3748 85.3175 36.8349 84.927 34.9046 84.2621C34.4449 84.1039 34.2002 83.6047 34.3584 83.1449L35.2135 80.6436C35.2432 80.5571 35.3347 80.5077 35.4212 80.5299L38.4638 81.306C38.6887 81.3629 38.9185 81.2418 38.9976 81.0243L39.6427 79.2249C39.6996 79.0667 39.6254 78.8887 39.4722 78.8195C38.5503 78.3994 37.4405 78.2511 36.7188 78.0237C34.2644 77.2501 32.5788 76.5605 30.8239 75.6138C30.6286 75.51 30.3889 75.5841 30.2875 75.7769C30.2752 75.8016 30.2628 75.8264 30.2554 75.8536C30.0824 76.4641 29.8155 77.0276 29.4571 77.5491C29.3656 77.6801 29.4002 77.8605 29.5312 77.952C30.2851 78.4686 31.0933 78.8789 31.9534 79.1829C32.2105 79.2718 32.344 79.5536 32.255 79.8107C32.2476 79.8305 32.2402 79.8502 32.2303 79.87C31.9114 80.5003 31.6717 81.1923 31.511 81.9437C31.4542 82.2082 31.3059 82.4356 31.0661 82.6259C30.9994 82.6778 30.9252 82.7 30.8437 82.6926C29.9094 82.5938 28.938 82.0821 28.0285 81.8251C27.24 81.6002 26.6023 81.3629 26.1154 81.1108C24.4347 80.2432 23.2038 79.4572 22.4228 78.7578C21.2438 77.6974 19.9981 76.7854 19.2096 75.4235C19.1429 75.3049 19.1379 75.159 19.1997 75.0354C19.6001 74.2346 21.0016 73.33 21.6961 72.9568C21.8617 72.8678 22.0668 72.8975 22.1978 73.0309C23.1025 73.938 23.8761 74.8426 24.9686 75.5619C25.1416 75.6781 25.3714 75.641 25.5024 75.4779L26.7259 73.9578C26.8791 73.7675 26.8816 73.4956 26.7309 73.3004C25.935 72.2771 24.887 71.4862 24.0936 70.4135C23.1939 69.1949 22.5315 67.4648 21.9383 66.0263C21.8518 65.8113 21.6912 65.7149 21.4588 65.7322C20.7593 65.7915 19.6669 65.9052 19.1281 66.3624C19.0663 66.4143 19.0292 66.4909 19.0292 66.5725C19.0292 66.8469 19.0811 67.1039 19.1923 67.3486C19.5754 68.1989 19.9091 69.0689 20.1933 69.9562C20.2205 70.0378 20.1983 70.107 20.1315 70.1589C19.2467 70.8682 18.3693 70.9078 17.5388 71.8371C17.4819 71.8989 17.4127 71.9385 17.3312 71.9508C16.9085 72.0225 16.6243 71.8619 16.476 71.4689C15.863 69.8623 15.2031 68.4559 14.9164 66.9037C14.7755 66.1351 14.6445 65.3614 14.5259 64.5878C14.2144 62.5561 14.422 60.6381 14.4665 58.6262C14.4739 58.2703 14.7681 57.991 15.1215 57.9984C15.124 57.9984 15.1289 57.9984 15.1314 57.9984L18.0331 58.1022C18.389 58.1146 18.6733 58.3988 18.6881 58.7547L18.7647 60.8136C18.7721 61.0385 18.96 61.214 19.1849 61.2066L21.2413 61.1398C21.397 61.1349 21.5231 61.0039 21.5206 60.8482L21.4193 52.101C21.4193 51.9552 21.3427 51.8835 21.1968 51.8811L19.1182 51.8563C18.7252 51.8514 18.5472 52.0442 18.5892 52.4372C18.6436 52.9587 18.6584 53.4852 18.6337 54.0215C18.6065 54.6369 18.4212 54.7976 17.8057 54.847C16.78 54.9286 15.821 54.894 14.9263 54.7407C14.6915 54.7012 14.5184 54.501 14.5135 54.2637C14.4369 51.1593 14.3825 48.134 14.3553 45.1878C14.3504 44.5922 14.6124 44.2857 15.1438 44.2634C16.0607 44.2263 16.9678 44.2881 17.8651 44.4488C18.9476 44.6465 18.6807 46.4039 18.6164 47.1726C18.6115 47.2516 18.6659 47.3209 18.745 47.3357C19.479 47.4692 20.2131 47.484 20.9472 47.3777C21.1869 47.3431 21.3624 47.1355 21.3624 46.8957L21.3229 38.7343C21.3229 38.5514 21.1746 38.4031 20.9917 38.4007L18.9946 38.3784C18.7845 38.3784 18.6115 38.5391 18.5966 38.7467L18.4607 40.8254C18.4409 41.1121 18.1962 41.3296 17.9095 41.3148L14.9732 41.1763C14.6445 41.1615 14.385 40.8921 14.3825 40.5658L14.2713 31.1983C14.2639 30.6323 14.5431 30.3505 15.1092 30.358L17.9219 30.3876C18.1789 30.3876 18.389 30.5928 18.3989 30.8498L18.5027 33.5068C18.5052 33.5859 18.5719 33.6477 18.651 33.6452C18.651 33.6452 18.6535 33.6452 18.656 33.6452C19.3703 33.5884 20.0574 33.6947 20.7223 33.9616C20.9942 34.0704 21.1301 33.9789 21.1326 33.6848L21.1647 24.8931C21.1647 24.7102 21.0164 24.5619 20.831 24.5619C20.8113 24.5619 20.7915 24.5619 20.7717 24.5669C20.0178 24.7053 19.2788 24.6583 18.5571 24.426C18.5126 24.4112 18.4657 24.4334 18.4508 24.4779C18.4459 24.4878 18.4459 24.5001 18.4459 24.5125C18.5225 25.4245 18.4459 26.3218 18.216 27.2066C18.1765 27.3574 18.0405 27.4636 17.8848 27.4661C17.1062 27.4809 16.3005 27.4439 15.4947 27.476C14.7087 27.5081 14.2441 27.1102 14.1798 26.2995C14.034 24.4606 14.3331 22.5895 14.2021 20.7655C14.1452 19.9869 14.0884 19.2108 14.029 18.4322C13.9771 17.7649 14.0711 17.1074 14.0982 16.4673C14.1081 16.2176 14.3207 16.0224 14.5703 16.0347C14.5778 16.0347 14.5827 16.0347 14.5901 16.0347C17.4127 16.272 20.2625 16.0347 23.142 16.1287C24.3778 16.1682 26.281 15.4737 26.0932 17.5696C26.0437 18.1258 26.0141 18.6819 26.0042 19.238C25.9844 20.4367 24.1727 20.113 23.4287 20.0116C23.2606 19.9894 23.1816 20.0611 23.189 20.2316L23.2878 22.3968C23.2977 22.6068 23.4707 22.7749 23.6833 22.7749L31.7236 22.7823C31.9164 22.7823 32.0721 22.6291 32.0746 22.4388C32.0746 22.4388 32.0746 22.4363 32.0746 22.4338V20.5233C32.0746 20.3132 31.9089 20.1377 31.6989 20.1278L29.3458 20.0042C29.2297 19.9968 29.1308 19.9128 29.111 19.7966C28.9207 18.7041 29.0394 17.6512 28.9973 16.5884C28.9875 16.319 29.1976 16.0941 29.467 16.0817C29.4769 16.0817 29.4867 16.0817 29.4966 16.0817C30.4457 16.1039 31.3924 16.23 32.2797 16.2102C34.0049 16.1682 35.7301 16.1509 37.4553 16.1583C38.3328 16.1633 39.4747 16.1064 39.4994 17.1989C39.5216 18.0961 39.4475 18.9859 39.2769 19.8707C39.2596 19.9548 39.2102 19.9968 39.1237 19.9993L36.5952 20.0487C36.4395 20.0512 36.3159 20.1797 36.3184 20.3354C36.3184 20.3379 36.3184 20.3403 36.3184 20.3428L36.4123 22.4264C36.4197 22.6019 36.5581 22.7428 36.7336 22.7551C39.576 22.9282 42.4209 22.9677 45.2657 22.8763C45.4313 22.8713 45.5648 22.7354 45.5623 22.5698L45.545 20.4046C45.545 20.281 45.4462 20.1797 45.3226 20.1723L43.0091 20.0413C42.8979 20.0339 42.8015 19.9548 42.7768 19.8436C42.5321 18.7783 42.4703 17.7031 42.5964 16.6205C42.6235 16.3857 42.8163 16.2053 43.0536 16.1954C44.3858 16.1435 45.8935 16.2399 47.0602 16.2251C47.8165 16.2176 48.5728 16.2102 49.3291 16.2028C50.083 16.1954 51.1433 16.3313 52.0158 16.2003C52.431 16.1361 52.8191 16.4203 52.8834 16.8355C52.8883 16.8726 52.8932 16.9097 52.8932 16.9492L52.913 19.3641C52.9155 19.8312 52.6832 20.0611 52.216 20.0586L50.3549 20.0388C50.167 20.0363 50.0113 20.1871 50.0064 20.3749L49.952 22.6464C49.9495 22.7848 50.0583 22.901 50.1967 22.9035C50.1967 22.9035 50.1967 22.9035 50.1991 22.9035L58.7239 23.0542C58.8203 23.0542 58.8969 22.9801 58.8993 22.8837C58.8993 22.8837 58.8993 22.8837 58.8993 22.8812V20.1723C58.9018 20.0932 58.8623 20.0512 58.7832 20.0438V20.0413ZM46.3285 19.4926C46.3557 19.5741 46.3681 19.673 46.3607 19.7892C46.2989 20.8396 46.2964 21.8901 46.3508 22.9405C46.3632 23.1284 46.3088 23.3187 46.1877 23.509C46.1456 23.5782 46.0814 23.6276 46.0048 23.6499C45.2558 23.8773 44.5267 23.9589 43.8174 23.8946C41.8376 23.7166 39.9443 23.6845 38.1375 23.7957C37.7544 23.818 37.4257 23.8105 37.1513 23.7685C36.4889 23.6647 35.8092 23.7908 35.6782 22.8787C35.5324 21.8481 35.5349 20.7754 35.6856 19.6607C35.7202 19.4011 35.955 19.2133 36.217 19.2405C37.0055 19.3171 37.7915 19.2924 38.57 19.1663C38.6936 19.1466 38.7826 19.0378 38.7801 18.9142L38.748 17.1569C38.7455 17.0209 38.6368 16.9147 38.5008 16.9122C37.5764 16.9072 36.6125 17.0358 35.7746 17.0209C33.8541 16.9888 31.9065 17.1025 30.0008 16.8405C29.8402 16.8183 29.6943 16.9295 29.6721 17.0901C29.6721 17.1074 29.6696 17.1223 29.6696 17.1396L29.7364 18.8104C29.7438 19.0131 29.9044 19.1787 30.1096 19.1935L32.4082 19.3393C32.7864 19.364 32.9693 19.5667 32.952 19.9449C32.905 21.0275 32.8679 22.1372 32.8358 23.2767C32.8235 23.6672 32.643 23.855 32.2945 23.8377C30.0676 23.7389 28.1224 23.7191 26.459 23.7809C25.4382 23.818 24.4891 23.7141 23.488 23.6524C22.7589 23.6054 22.3758 23.2198 22.3437 22.4956C22.3066 21.6948 22.225 20.1747 22.5686 19.3072C22.6131 19.196 22.7218 19.1268 22.8405 19.1317L24.8203 19.2232C25.1391 19.238 25.2948 19.0848 25.2899 18.7659L25.2726 17.4634C25.2676 17.1495 25.1094 16.9937 24.7955 16.9962L15.4577 17.011C15.213 17.011 15.0869 17.1346 15.0844 17.3793L14.988 26.1018C14.9856 26.3662 15.1957 26.5813 15.4601 26.5837C15.4626 26.5837 15.4651 26.5837 15.4675 26.5837L17.2298 26.5763C17.4523 26.5763 17.6327 26.3959 17.6352 26.1734L17.6673 23.7364C17.6673 23.5214 17.7785 23.4225 17.9936 23.4423L21.5503 23.7685C21.7406 23.7858 21.9013 23.9242 21.9433 24.1121C21.9853 24.2925 22.0051 24.4977 22.0026 24.7325C21.9927 26.4503 22.0248 28.1656 22.0965 29.8809C22.1113 30.2393 22.0916 30.7188 22.0347 31.3194C21.9532 32.2166 22.0718 33.146 22.0026 34.0778C21.9878 34.2903 21.8197 34.4584 21.6071 34.4732C20.5666 34.5498 19.5062 34.5597 18.4236 34.5078C17.7365 34.4757 17.5833 34.2113 17.6327 33.539C17.6772 32.9581 17.655 32.271 17.5685 31.4776C17.5536 31.3416 17.435 31.2403 17.299 31.2453L15.3563 31.317C15.2352 31.3219 15.1759 31.3861 15.1759 31.5072L15.1932 39.9306C15.1932 40.0814 15.3069 40.2075 15.4552 40.2248L17.3015 40.4373C17.4869 40.4596 17.6525 40.3286 17.6747 40.1432C17.6747 40.1358 17.6747 40.1308 17.6747 40.1234C17.7167 39.4783 17.7538 38.8826 17.7909 38.3315C17.828 37.7655 18.1172 37.4763 18.6634 37.4664C19.5112 37.4491 20.3812 37.454 21.2734 37.4862C21.7579 37.5035 22.1509 37.8816 22.1855 38.3636C22.3288 40.3236 22.141 42.2639 22.2399 44.2165C22.3016 45.4399 22.2003 46.6164 22.1978 47.8498C22.1978 48.2749 21.9828 48.4726 21.5602 48.4455C20.5295 48.3738 19.1404 48.4282 18.0974 48.0154C18.0158 47.9833 17.9614 47.9289 17.9293 47.8473C17.7118 47.3134 17.8972 46.1715 17.9516 45.5784C17.9689 45.393 17.8354 45.2299 17.65 45.2101C17.6451 45.2101 17.6377 45.2101 17.6327 45.2101L15.6134 45.1137C15.4231 45.1063 15.2624 45.2496 15.25 45.4375C15.1512 46.9031 15.1388 48.3342 15.2105 49.7332C15.2772 51.0209 15.0276 52.4372 15.2945 53.8238C15.3192 53.9498 15.3959 54.0067 15.5244 53.9943C16.2387 53.9152 16.9406 53.9721 17.6352 54.1649C17.7439 54.1945 17.8576 54.1303 17.8873 54.0215C17.8947 53.9943 17.8972 53.9671 17.8922 53.9399C17.7687 52.9562 17.5338 51.1346 19.0317 51.1396C19.7188 51.1396 20.401 51.0926 21.0782 50.9962C21.9013 50.8751 22.1385 51.4114 22.188 52.106C22.2868 53.5 22.3338 54.8965 22.3264 56.2954C22.3165 58.0528 22.3313 59.7705 22.3733 61.4488C22.3807 61.8097 22.0965 62.1087 21.7356 62.1162C21.701 62.1162 21.6664 62.1162 21.6343 62.1112C20.7495 61.9926 19.8424 61.9407 18.913 61.9555C17.655 61.9753 17.9441 59.998 17.9318 59.212C17.9268 58.9673 17.7217 58.772 17.477 58.777L15.4058 58.8289C15.3193 58.8289 15.2748 58.8733 15.2723 58.9599C15.2031 60.8803 15.2229 62.8008 15.3316 64.7188C15.3736 65.4973 15.4947 66.2883 15.6925 67.0866C16.0583 68.5573 16.2931 69.7634 17.0222 70.7892C17.0988 70.8954 17.2422 70.9276 17.3559 70.8682L19.0391 69.9958C19.2788 69.8697 19.3851 69.5855 19.2862 69.3358C18.9946 68.5869 18.6955 67.7812 18.3915 66.9186C18.132 66.1919 18.3717 65.7421 19.1058 65.569C20.0821 65.3392 21.0065 65.0624 21.879 64.741C22.1212 64.6521 22.3931 64.7756 22.4821 65.0179C22.4821 65.0179 22.4821 65.0228 22.4821 65.0253C22.8677 66.1153 23.1914 67.2547 23.6833 68.1915C24.447 69.6423 25.4382 70.9251 26.6592 72.0398C27.062 72.4081 27.4402 72.7665 27.7912 73.115C27.9494 73.2682 27.9543 73.5203 27.8035 73.681C27.0052 74.5362 26.4886 75.4902 25.7274 76.4023C25.5321 76.6371 25.1836 76.6692 24.9488 76.4764C24.9463 76.474 24.9414 76.4715 24.9389 76.4665L21.9902 73.9034C21.9062 73.8293 21.7826 73.8144 21.6813 73.8663C21.1153 74.1531 20.7766 74.5535 20.3392 75.0256C19.657 75.7646 22.3634 77.8136 23.32 78.4686C25.4629 79.9367 27.2919 80.9501 30.0873 81.741C30.505 81.8572 30.7819 81.7114 30.9178 81.3011L31.1922 80.478C31.3083 80.1345 31.16 79.7588 30.8437 79.5858L28.8787 78.5081C28.6217 78.3672 28.5154 78.0558 28.6315 77.7913L29.9415 74.7907C30.0379 74.5708 30.2925 74.4695 30.5125 74.5658C30.5149 74.5658 30.5199 74.5683 30.5224 74.5708C32.3415 75.4161 34.1384 76.1378 35.9995 76.8744C37.3837 77.4231 38.7554 77.6678 40.2063 77.9545C40.5597 78.0237 40.7896 78.3647 40.7204 78.7182C40.7105 78.7726 40.6907 78.827 40.666 78.8789C40.2681 79.697 39.9369 80.6288 39.6699 81.6743C39.5513 82.139 39.2448 82.3268 38.7529 82.2353C37.4899 82.0005 36.652 81.8374 36.2343 81.746C35.9822 81.6891 35.7252 81.8251 35.6288 82.0673L35.2432 83.0436C35.1419 83.3006 35.221 83.4761 35.4805 83.5676L40.923 85.5276C41.0096 85.5573 41.1035 85.5548 41.185 85.5202L46.6474 83.1524C46.8204 83.0757 46.8797 82.9497 46.8278 82.7692L46.4966 81.6323C46.4546 81.4889 46.3112 81.4 46.1629 81.4271C45.4956 81.5433 44.8777 81.7806 44.3092 82.139C44.1461 82.2428 43.931 82.1958 43.8272 82.0327C43.8248 82.0277 43.8223 82.0228 43.8198 82.0203C43.1129 80.8092 42.804 79.524 42.364 78.2659C42.2577 77.9545 42.4184 77.6159 42.7249 77.5046L51.5042 74.2841C51.6698 74.2248 51.8552 74.2692 51.9738 74.4002C52.9575 75.4902 53.1552 76.7557 53.7188 77.9866C53.7954 78.1522 53.7509 78.2733 53.5878 78.3499L51.1458 79.4844C50.8121 79.6401 50.7207 79.8848 50.8714 80.221L51.3386 81.2615C51.4943 81.6125 51.8996 81.7781 52.258 81.6372C53.4938 81.1454 54.7396 80.8043 55.8567 80.2012C58.4495 78.8022 60.4095 77.5392 62.3275 75.3518C62.3819 75.29 62.377 75.1936 62.3152 75.1368L60.936 73.9109C60.6839 73.6859 60.4318 73.6859 60.1797 73.9109L57.7204 76.1032C57.5004 76.2985 57.2952 76.2836 57.1074 76.0562L54.8162 73.2929C54.7272 73.1867 54.7148 73.0359 54.7841 72.9148C54.8804 72.7516 55.0287 72.5836 55.224 72.4105C57.4559 70.4555 58.9488 68.0456 59.7026 65.181C60.0709 63.7796 61.1782 64.484 62.1298 64.914C62.807 65.2205 64.5545 65.0945 64.2529 66.1721C63.9217 67.3659 63.4027 68.4213 63.1259 69.6324C63.1086 69.7165 63.1481 69.803 63.2247 69.8425L65.076 70.8114C65.1378 70.846 65.2169 70.8213 65.249 70.7595C66.255 68.7402 66.8828 66.6195 67.1349 64.3975C67.3005 62.9392 67.1571 60.9347 67.3128 59.1699C67.3351 58.9079 67.1423 58.6781 66.8803 58.6558C66.863 58.6558 66.8457 58.6558 66.8284 58.6558L65.1007 58.6929C64.9326 58.6978 64.7992 58.8313 64.7942 58.9994L64.7522 60.9693C64.7448 61.3153 64.4655 61.5921 64.1195 61.5971L60.8816 61.6342C60.5924 61.6391 60.3551 61.4068 60.3502 61.1176C60.3502 61.1151 60.3502 61.1126 60.3502 61.1102L60.3626 51.0184C60.3626 50.8182 60.4614 50.7218 60.6616 50.7268L64.0923 50.8306C64.3913 50.8405 64.6311 51.0778 64.6459 51.3768L64.73 53.1836C64.7473 53.5717 64.9499 53.7595 65.338 53.7496L66.2995 53.7274C66.7122 53.7175 66.9371 53.5074 66.9767 53.0971C67.0657 52.1752 67.1373 51.3348 67.078 50.3807C66.9544 48.4133 67.1324 46.9847 67.0261 45.2768C67.0187 45.1409 66.9248 45.0247 66.7913 44.9926C66.161 44.8369 65.5258 44.8245 64.8882 44.9555C64.7745 44.9777 64.7151 45.0469 64.7127 45.1631L64.6039 47.7139C64.594 47.9289 64.4185 48.0994 64.2035 48.0994C63.2964 48.1019 62.3498 48.134 61.3636 48.1933C61.1658 48.2057 60.9385 48.1241 60.6839 47.9487C60.6171 47.9042 60.5702 47.8448 60.543 47.7707C60.2909 47.0688 60.1846 46.3569 60.2242 45.6352C60.3131 43.999 60.2884 42.6297 60.3477 41.1145C60.3996 39.77 59.4777 37.4491 61.7912 37.3527C62.4511 37.3255 63.116 37.323 63.7833 37.3478C64.8585 37.3873 64.7127 38.8085 64.6805 39.466C64.6632 39.8219 64.8313 40.0023 65.1872 40.0048L66.5788 40.0171C66.8086 40.0171 66.9989 39.8342 67.0014 39.6019L67.1052 31.7495C67.1052 31.5938 66.9841 31.4628 66.8284 31.4529L64.9574 31.3417C64.7769 31.3318 64.6237 31.4677 64.6113 31.6481C64.6113 31.6556 64.6113 31.6654 64.6113 31.6729L64.6434 33.6996C64.6509 34.1667 64.421 34.3966 63.9539 34.3941L60.9434 34.3793C60.5998 34.3793 60.4219 34.2063 60.4071 33.8627C60.328 32.0387 60.2958 30.2517 60.3107 28.5042C60.3205 27.3598 60.1994 25.5975 60.4293 24.0972C60.4416 24.0206 60.5133 23.9663 60.5924 23.9786C60.5998 23.9786 60.6072 23.9811 60.6122 23.9836C60.9063 24.075 61.2178 24.1022 61.5465 24.0651C62.4387 23.9613 63.3384 23.8971 64.243 23.8723C64.3197 23.8723 64.379 23.9045 64.4161 23.9712C64.8189 24.7078 64.5446 25.5531 64.51 26.208C64.4976 26.4577 64.6187 26.5961 64.8684 26.6233L66.5837 26.7914C66.8482 26.8185 66.9767 26.6999 66.9742 26.4354L66.8556 17.315C66.8556 17.1519 66.7715 17.0704 66.6059 17.0679L57.0975 17.011C56.7638 17.011 56.5933 17.1742 56.5834 17.5078L56.5537 18.5509C56.5439 18.9191 56.7218 19.1144 57.0901 19.1317L59.5173 19.2479C59.6952 19.2578 59.8312 19.4085 59.8213 19.5865C59.8213 19.589 59.8213 19.5914 59.8213 19.5964C59.7595 20.2885 59.762 20.7729 59.8509 21.5885C59.935 22.3424 59.7694 22.9183 59.6211 23.6474C59.5667 23.9119 59.406 24.0305 59.1366 24.0033C58.41 23.9218 57.8538 23.8798 57.4683 23.8773C55.9729 23.8649 53.7484 23.8649 50.7948 23.8822C50.3623 23.8822 49.952 23.855 49.5689 23.7932C49.2797 23.7488 49.0745 23.4843 49.0993 23.1926C49.1808 22.2089 49.2154 21.203 49.1981 20.1747C49.1882 19.5816 49.2995 19.1984 49.9915 19.3097C50.6613 19.4184 51.3163 19.3542 51.9565 19.1169C52.0529 19.0798 52.0998 19.0106 52.1023 18.9093L52.1419 17.4238C52.1468 17.2458 52.0034 17.0976 51.8255 17.0926C51.8255 17.0926 51.8255 17.0926 51.823 17.0926L43.758 16.9344C43.459 16.9295 43.3082 17.0778 43.3107 17.3768L43.3156 18.8153C43.3156 19.0946 43.543 19.322 43.8223 19.3196L46.0641 19.3121C46.1802 19.3121 46.2841 19.3863 46.3211 19.4975L46.3285 19.4926Z" stroke="#EAFE01" stroke-width="6" mask="url(#path-2-outside-2_192_356)"/>
</svg>
