<svg width="82" height="103" viewBox="0 0 82 103" fill="none" xmlns="http://www.w3.org/2000/svg">
<mask id="path-1-outside-1_192_348" maskUnits="userSpaceOnUse" x="0.664062" y="2.37305" width="80" height="99" fill="black">
<rect fill="white" x="0.664062" y="2.37305" width="80" height="99"/>
<path d="M25.6323 92.1475C23.4004 91.2873 21.3218 90.3506 19.3 88.9566C17.2238 87.523 14.8634 86.2897 13.1382 84.4063C10.7184 81.7666 8.10341 78.7437 6.71681 75.407C5.6367 72.8093 4.83342 70.135 4.30448 67.3865C3.69399 64.2104 3.7533 60.7576 3.84969 57.4282C3.87194 56.6843 3.72364 55.9082 3.72364 55.1222C3.71622 50.2259 3.73106 45.332 3.77307 40.4357C3.77802 39.7411 3.65692 38.053 3.73848 36.8641C3.77803 36.2858 3.79284 35.8112 3.78543 35.438C3.65937 30.1709 3.85217 24.9211 3.7014 18.391C3.60254 14.1126 3.90407 9.81937 3.66432 5.55825C3.65938 5.47174 3.72612 5.39512 3.81263 5.39017C3.81757 5.39017 3.82251 5.39017 3.82746 5.39017C4.89274 5.43219 5.96296 5.4841 7.04307 5.54836C9.63089 5.69913 12.2928 5.44456 14.9425 5.58791C16.2598 5.66206 17.5698 5.34322 18.9663 5.52365C19.4483 5.58544 19.903 5.59038 20.3331 5.536C21.957 5.33333 23.8107 5.50387 25.1924 5.45444C26.4554 5.40748 27.7184 5.39018 28.9814 5.40006C30.8104 5.41737 32.5307 5.52365 34.4413 5.43467C36.169 5.35311 37.3974 5.3704 38.1265 5.4841C38.9916 5.62004 40.1038 5.60274 41.4632 5.42972C42.0589 5.3531 42.9586 5.54095 43.6877 5.5014C45.1584 5.42478 46.6265 5.41736 48.0947 5.48162C49.1328 5.52611 50.1709 5.39512 51.2263 5.38276C53.6658 5.36052 56.0979 5.46185 58.5349 5.41242C62.3684 5.3358 66.417 5.47422 71.2614 5.38029C73.0558 5.34569 75.179 5.44949 77.1365 5.39017C77.2824 5.38523 77.4059 5.49893 77.4109 5.64723C77.4109 5.64723 77.4109 5.6497 77.4109 5.65217C77.4628 8.20044 77.3318 10.8179 77.3862 13.2797C77.4405 15.7489 77.3738 18.2156 77.4307 20.6798C77.448 21.493 77.3664 22.3457 77.3936 23.1045C77.4554 24.8865 77.4925 26.681 77.485 28.463C77.4628 32.8996 77.4554 37.3387 77.4603 41.7753C77.4628 45.505 77.4974 49.2323 77.5616 52.9595C77.5765 53.8567 77.5493 55.0678 77.4776 56.5879C77.443 57.3244 77.4801 58.5652 77.4059 59.5415C77.3738 59.9765 77.3614 60.3695 77.3738 60.7205C77.4504 62.9672 77.4554 65.3202 77.0575 67.5398C76.7238 69.4108 76.4123 71.1854 75.6016 72.9255C75.3619 73.4371 75.1889 74.0624 75.006 74.5049C74.2991 76.2177 73.6342 77.5129 73.0114 78.3903C72.1092 79.6583 71.2886 80.9658 70.2035 82.1027C67.9 84.52 65.7966 86.7988 62.8776 88.4944C61.6566 89.2013 60.4875 90.1504 59.1578 90.6769C55.5022 92.1277 51.8441 93.5637 48.1787 94.9874C45.9517 95.85 43.4405 96.7003 41.0727 97.5901C40.9664 97.6296 40.8503 97.637 40.7415 97.6098C38.8878 97.1377 37.2466 96.2405 35.3904 95.7141C32.0364 94.7625 28.8751 93.3981 25.6323 92.1475ZM52.0889 6.364C52.1235 6.22312 51.943 6.05752 51.686 5.99573C51.4289 5.93394 51.1941 6.00067 51.1595 6.14156C51.1249 6.28244 51.3053 6.44804 51.5624 6.50983C51.8194 6.57162 52.0543 6.50489 52.0889 6.364ZM75.7994 68.2565C75.9106 68.3282 76.0243 68.3332 76.138 68.2738C76.1948 68.2442 76.2171 68.175 76.1874 68.1181C76.1825 68.1107 76.1775 68.1033 76.1726 68.0959L75.8216 67.693C75.7648 67.6263 75.7425 67.5472 75.7574 67.4607C76.1627 65.0508 76.3209 62.6286 76.2344 60.1915C76.1948 59.0966 76.3654 57.846 76.316 56.9735C76.2443 55.6462 76.2097 54.8034 76.2171 54.4425C76.2591 52.5023 76.2566 50.5645 76.2097 48.6242C76.1775 47.3365 76.3332 46.0982 76.2912 44.7808C76.222 42.6181 76.311 40.2577 76.2715 38.3002C76.2344 36.4662 76.2072 34.6322 76.1899 32.7958C76.1874 32.4152 76.2591 31.9653 76.2492 31.6415C76.1429 28.4704 76.0737 25.2993 76.0465 22.1232C76.0441 21.7648 76.1627 21.3051 76.1058 20.8998C75.9748 19.9482 76.0292 19.0955 76.0762 18.1439C76.1034 17.6347 75.9279 17.1404 75.9452 16.5991C75.9848 15.4102 76.0095 14.2189 76.0169 13.03C76.0169 12.857 76.0416 12.6741 76.0836 12.4813C76.2072 11.9178 76.0787 11.3839 76.091 10.8154C76.1108 9.86633 75.5893 7.71847 76.1825 6.96956C76.2319 6.90777 76.222 6.81632 76.1602 6.76936C76.1355 6.74959 76.1034 6.7397 76.0713 6.73723C74.4993 6.7397 72.9471 6.70757 71.4147 6.63589C70.5965 6.59634 69.7611 6.76935 68.9455 6.77924C64.2963 6.83609 59.6447 6.888 54.9955 6.93249C54.1626 6.9399 53.3321 6.93248 52.5016 6.9053C49.2242 6.80149 46.1717 6.99922 43.008 6.92754C42.615 6.92013 42.2369 6.84845 41.8538 6.88305C40.3559 7.01899 38.69 6.89541 37.3776 6.95226C34.8392 7.05854 32.4615 6.95473 30.0022 7.06349C29.5721 7.08079 29.016 7.06595 28.3314 7.01899C27.3724 6.95473 26.4702 7.06348 25.5013 7.00663C24.5374 6.94731 23.4771 7.0882 22.6194 7.04371C20.8003 6.94979 18.8625 7.06842 17.1818 7.01158C15.679 6.96214 14.4358 6.91765 13.1406 7.07337C12.7377 7.1228 12.3423 7.13516 11.9493 7.11045C9.82367 6.98192 7.71782 7.13763 5.59468 7.01899C5.48098 7.01157 5.38459 7.09808 5.37717 7.21425C5.37717 7.22167 5.37717 7.23156 5.37717 7.23897C5.46615 8.53164 5.29561 9.82678 5.392 11.1293C5.41919 11.5174 5.42909 11.8881 5.42167 12.2416C5.35494 15.215 5.43155 18.0178 5.34751 21.1618C5.33763 21.5251 5.17204 21.7401 4.84825 21.8044C4.71725 21.8291 4.7123 21.8711 4.82847 21.9329C4.88532 21.9601 4.94463 21.9725 5.0089 21.97C5.09541 21.9675 5.16214 22.0021 5.2091 22.0787C5.3401 22.3037 5.39695 22.5261 5.38459 22.7461C5.20169 25.7467 5.34999 29.6272 5.33763 31.7256C5.3228 34.1503 5.31292 36.5725 5.30797 38.9947C5.30303 40.0995 5.22393 41.6295 5.25606 42.9518C5.28819 44.1802 5.29068 45.1664 5.26596 45.9153C5.18439 48.3647 5.31539 50.4335 5.29809 52.6085C5.27585 55.2433 5.46368 58.3428 5.41425 60.1891C5.32033 63.5999 5.68613 66.4992 6.24225 69.569C6.28921 69.8285 6.38067 70.1128 6.51414 70.4217C6.81321 71.1064 7.05295 72.0728 7.23091 72.5523C7.45088 73.1479 7.66593 73.7189 7.87602 74.2651C8.02432 74.6581 7.91557 74.757 7.55223 74.5617C7.51516 74.5419 7.47313 74.5321 7.42123 74.5296C7.33225 74.5296 7.29271 74.5716 7.30012 74.6606C7.31742 74.8336 7.41876 74.9374 7.6066 74.972C7.79692 75.0091 7.95757 75.0486 8.08363 75.0857C8.17014 75.1129 8.2344 75.1648 8.27395 75.2464C9.95714 78.6894 11.6725 81.1734 14.0576 83.5412C16.2376 85.7039 18.1457 87.1375 21.04 88.8108C22.1177 89.4311 23.3238 89.6857 24.4558 90.2666C24.9551 90.5236 25.5087 90.5681 25.9116 90.751C28.1682 91.7718 29.9701 92.4886 31.3171 92.9013C32.2959 93.2004 33.1091 93.5712 33.9642 93.7565C36.0726 94.2113 38.1562 94.9652 40.1508 95.7808C40.2274 95.8129 40.304 95.8179 40.3856 95.7956C41.2581 95.5559 42.1553 95.4471 42.9932 95.1777C43.4801 95.022 43.9695 94.8713 44.4614 94.7254C45.7343 94.3522 46.9898 93.8554 48.2899 93.497C49.4689 93.1732 50.6306 92.6863 51.8343 92.3477C52.1877 92.2488 52.5931 92.0808 53.0503 91.8435C53.861 91.4208 54.6841 91.3145 55.4701 90.8696C56.2635 90.4173 57.1854 90.0886 57.917 89.6931C60.5295 88.2818 63.3447 87.1152 65.6187 84.9179C66.6296 83.9416 67.6355 82.9604 68.6415 81.9767C70.3914 80.2663 71.5852 78.0517 72.8136 75.9706C73.3055 75.1351 73.8962 73.8153 74.5809 72.011C75.0183 70.8641 75.2927 69.5912 75.4855 68.3999C75.5028 68.2862 75.6115 68.2096 75.7228 68.2294C75.7499 68.2343 75.7746 68.2442 75.7994 68.2565ZM76.7188 20.9937C76.7065 20.927 76.6101 20.8924 76.5062 20.9121C76.4024 20.9319 76.3283 21.0036 76.3407 21.0678C76.353 21.1346 76.4494 21.1692 76.5532 21.1494C76.657 21.1296 76.7312 21.058 76.7188 20.9937Z"/>
</mask>
<path d="M25.6323 92.1475C23.4004 91.2873 21.3218 90.3506 19.3 88.9566C17.2238 87.523 14.8634 86.2897 13.1382 84.4063C10.7184 81.7666 8.10341 78.7437 6.71681 75.407C5.6367 72.8093 4.83342 70.135 4.30448 67.3865C3.69399 64.2104 3.7533 60.7576 3.84969 57.4282C3.87194 56.6843 3.72364 55.9082 3.72364 55.1222C3.71622 50.2259 3.73106 45.332 3.77307 40.4357C3.77802 39.7411 3.65692 38.053 3.73848 36.8641C3.77803 36.2858 3.79284 35.8112 3.78543 35.438C3.65937 30.1709 3.85217 24.9211 3.7014 18.391C3.60254 14.1126 3.90407 9.81937 3.66432 5.55825C3.65938 5.47174 3.72612 5.39512 3.81263 5.39017C3.81757 5.39017 3.82251 5.39017 3.82746 5.39017C4.89274 5.43219 5.96296 5.4841 7.04307 5.54836C9.63089 5.69913 12.2928 5.44456 14.9425 5.58791C16.2598 5.66206 17.5698 5.34322 18.9663 5.52365C19.4483 5.58544 19.903 5.59038 20.3331 5.536C21.957 5.33333 23.8107 5.50387 25.1924 5.45444C26.4554 5.40748 27.7184 5.39018 28.9814 5.40006C30.8104 5.41737 32.5307 5.52365 34.4413 5.43467C36.169 5.35311 37.3974 5.3704 38.1265 5.4841C38.9916 5.62004 40.1038 5.60274 41.4632 5.42972C42.0589 5.3531 42.9586 5.54095 43.6877 5.5014C45.1584 5.42478 46.6265 5.41736 48.0947 5.48162C49.1328 5.52611 50.1709 5.39512 51.2263 5.38276C53.6658 5.36052 56.0979 5.46185 58.5349 5.41242C62.3684 5.3358 66.417 5.47422 71.2614 5.38029C73.0558 5.34569 75.179 5.44949 77.1365 5.39017C77.2824 5.38523 77.4059 5.49893 77.4109 5.64723C77.4109 5.64723 77.4109 5.6497 77.4109 5.65217C77.4628 8.20044 77.3318 10.8179 77.3862 13.2797C77.4405 15.7489 77.3738 18.2156 77.4307 20.6798C77.448 21.493 77.3664 22.3457 77.3936 23.1045C77.4554 24.8865 77.4925 26.681 77.485 28.463C77.4628 32.8996 77.4554 37.3387 77.4603 41.7753C77.4628 45.505 77.4974 49.2323 77.5616 52.9595C77.5765 53.8567 77.5493 55.0678 77.4776 56.5879C77.443 57.3244 77.4801 58.5652 77.4059 59.5415C77.3738 59.9765 77.3614 60.3695 77.3738 60.7205C77.4504 62.9672 77.4554 65.3202 77.0575 67.5398C76.7238 69.4108 76.4123 71.1854 75.6016 72.9255C75.3619 73.4371 75.1889 74.0624 75.006 74.5049C74.2991 76.2177 73.6342 77.5129 73.0114 78.3903C72.1092 79.6583 71.2886 80.9658 70.2035 82.1027C67.9 84.52 65.7966 86.7988 62.8776 88.4944C61.6566 89.2013 60.4875 90.1504 59.1578 90.6769C55.5022 92.1277 51.8441 93.5637 48.1787 94.9874C45.9517 95.85 43.4405 96.7003 41.0727 97.5901C40.9664 97.6296 40.8503 97.637 40.7415 97.6098C38.8878 97.1377 37.2466 96.2405 35.3904 95.7141C32.0364 94.7625 28.8751 93.3981 25.6323 92.1475ZM52.0889 6.364C52.1235 6.22312 51.943 6.05752 51.686 5.99573C51.4289 5.93394 51.1941 6.00067 51.1595 6.14156C51.1249 6.28244 51.3053 6.44804 51.5624 6.50983C51.8194 6.57162 52.0543 6.50489 52.0889 6.364ZM75.7994 68.2565C75.9106 68.3282 76.0243 68.3332 76.138 68.2738C76.1948 68.2442 76.2171 68.175 76.1874 68.1181C76.1825 68.1107 76.1775 68.1033 76.1726 68.0959L75.8216 67.693C75.7648 67.6263 75.7425 67.5472 75.7574 67.4607C76.1627 65.0508 76.3209 62.6286 76.2344 60.1915C76.1948 59.0966 76.3654 57.846 76.316 56.9735C76.2443 55.6462 76.2097 54.8034 76.2171 54.4425C76.2591 52.5023 76.2566 50.5645 76.2097 48.6242C76.1775 47.3365 76.3332 46.0982 76.2912 44.7808C76.222 42.6181 76.311 40.2577 76.2715 38.3002C76.2344 36.4662 76.2072 34.6322 76.1899 32.7958C76.1874 32.4152 76.2591 31.9653 76.2492 31.6415C76.1429 28.4704 76.0737 25.2993 76.0465 22.1232C76.0441 21.7648 76.1627 21.3051 76.1058 20.8998C75.9748 19.9482 76.0292 19.0955 76.0762 18.1439C76.1034 17.6347 75.9279 17.1404 75.9452 16.5991C75.9848 15.4102 76.0095 14.2189 76.0169 13.03C76.0169 12.857 76.0416 12.6741 76.0836 12.4813C76.2072 11.9178 76.0787 11.3839 76.091 10.8154C76.1108 9.86633 75.5893 7.71847 76.1825 6.96956C76.2319 6.90777 76.222 6.81632 76.1602 6.76936C76.1355 6.74959 76.1034 6.7397 76.0713 6.73723C74.4993 6.7397 72.9471 6.70757 71.4147 6.63589C70.5965 6.59634 69.7611 6.76935 68.9455 6.77924C64.2963 6.83609 59.6447 6.888 54.9955 6.93249C54.1626 6.9399 53.3321 6.93248 52.5016 6.9053C49.2242 6.80149 46.1717 6.99922 43.008 6.92754C42.615 6.92013 42.2369 6.84845 41.8538 6.88305C40.3559 7.01899 38.69 6.89541 37.3776 6.95226C34.8392 7.05854 32.4615 6.95473 30.0022 7.06349C29.5721 7.08079 29.016 7.06595 28.3314 7.01899C27.3724 6.95473 26.4702 7.06348 25.5013 7.00663C24.5374 6.94731 23.4771 7.0882 22.6194 7.04371C20.8003 6.94979 18.8625 7.06842 17.1818 7.01158C15.679 6.96214 14.4358 6.91765 13.1406 7.07337C12.7377 7.1228 12.3423 7.13516 11.9493 7.11045C9.82367 6.98192 7.71782 7.13763 5.59468 7.01899C5.48098 7.01157 5.38459 7.09808 5.37717 7.21425C5.37717 7.22167 5.37717 7.23156 5.37717 7.23897C5.46615 8.53164 5.29561 9.82678 5.392 11.1293C5.41919 11.5174 5.42909 11.8881 5.42167 12.2416C5.35494 15.215 5.43155 18.0178 5.34751 21.1618C5.33763 21.5251 5.17204 21.7401 4.84825 21.8044C4.71725 21.8291 4.7123 21.8711 4.82847 21.9329C4.88532 21.9601 4.94463 21.9725 5.0089 21.97C5.09541 21.9675 5.16214 22.0021 5.2091 22.0787C5.3401 22.3037 5.39695 22.5261 5.38459 22.7461C5.20169 25.7467 5.34999 29.6272 5.33763 31.7256C5.3228 34.1503 5.31292 36.5725 5.30797 38.9947C5.30303 40.0995 5.22393 41.6295 5.25606 42.9518C5.28819 44.1802 5.29068 45.1664 5.26596 45.9153C5.18439 48.3647 5.31539 50.4335 5.29809 52.6085C5.27585 55.2433 5.46368 58.3428 5.41425 60.1891C5.32033 63.5999 5.68613 66.4992 6.24225 69.569C6.28921 69.8285 6.38067 70.1128 6.51414 70.4217C6.81321 71.1064 7.05295 72.0728 7.23091 72.5523C7.45088 73.1479 7.66593 73.7189 7.87602 74.2651C8.02432 74.6581 7.91557 74.757 7.55223 74.5617C7.51516 74.5419 7.47313 74.5321 7.42123 74.5296C7.33225 74.5296 7.29271 74.5716 7.30012 74.6606C7.31742 74.8336 7.41876 74.9374 7.6066 74.972C7.79692 75.0091 7.95757 75.0486 8.08363 75.0857C8.17014 75.1129 8.2344 75.1648 8.27395 75.2464C9.95714 78.6894 11.6725 81.1734 14.0576 83.5412C16.2376 85.7039 18.1457 87.1375 21.04 88.8108C22.1177 89.4311 23.3238 89.6857 24.4558 90.2666C24.9551 90.5236 25.5087 90.5681 25.9116 90.751C28.1682 91.7718 29.9701 92.4886 31.3171 92.9013C32.2959 93.2004 33.1091 93.5712 33.9642 93.7565C36.0726 94.2113 38.1562 94.9652 40.1508 95.7808C40.2274 95.8129 40.304 95.8179 40.3856 95.7956C41.2581 95.5559 42.1553 95.4471 42.9932 95.1777C43.4801 95.022 43.9695 94.8713 44.4614 94.7254C45.7343 94.3522 46.9898 93.8554 48.2899 93.497C49.4689 93.1732 50.6306 92.6863 51.8343 92.3477C52.1877 92.2488 52.5931 92.0808 53.0503 91.8435C53.861 91.4208 54.6841 91.3145 55.4701 90.8696C56.2635 90.4173 57.1854 90.0886 57.917 89.6931C60.5295 88.2818 63.3447 87.1152 65.6187 84.9179C66.6296 83.9416 67.6355 82.9604 68.6415 81.9767C70.3914 80.2663 71.5852 78.0517 72.8136 75.9706C73.3055 75.1351 73.8962 73.8153 74.5809 72.011C75.0183 70.8641 75.2927 69.5912 75.4855 68.3999C75.5028 68.2862 75.6115 68.2096 75.7228 68.2294C75.7499 68.2343 75.7746 68.2442 75.7994 68.2565ZM76.7188 20.9937C76.7065 20.927 76.6101 20.8924 76.5062 20.9121C76.4024 20.9319 76.3283 21.0036 76.3407 21.0678C76.353 21.1346 76.4494 21.1692 76.5532 21.1494C76.657 21.1296 76.7312 21.058 76.7188 20.9937Z" fill="#EAFE01"/>
<path d="M25.6323 92.1475C23.4004 91.2873 21.3218 90.3506 19.3 88.9566C17.2238 87.523 14.8634 86.2897 13.1382 84.4063C10.7184 81.7666 8.10341 78.7437 6.71681 75.407C5.6367 72.8093 4.83342 70.135 4.30448 67.3865C3.69399 64.2104 3.7533 60.7576 3.84969 57.4282C3.87194 56.6843 3.72364 55.9082 3.72364 55.1222C3.71622 50.2259 3.73106 45.332 3.77307 40.4357C3.77802 39.7411 3.65692 38.053 3.73848 36.8641C3.77803 36.2858 3.79284 35.8112 3.78543 35.438C3.65937 30.1709 3.85217 24.9211 3.7014 18.391C3.60254 14.1126 3.90407 9.81937 3.66432 5.55825C3.65938 5.47174 3.72612 5.39512 3.81263 5.39017C3.81757 5.39017 3.82251 5.39017 3.82746 5.39017C4.89274 5.43219 5.96296 5.4841 7.04307 5.54836C9.63089 5.69913 12.2928 5.44456 14.9425 5.58791C16.2598 5.66206 17.5698 5.34322 18.9663 5.52365C19.4483 5.58544 19.903 5.59038 20.3331 5.536C21.957 5.33333 23.8107 5.50387 25.1924 5.45444C26.4554 5.40748 27.7184 5.39018 28.9814 5.40006C30.8104 5.41737 32.5307 5.52365 34.4413 5.43467C36.169 5.35311 37.3974 5.3704 38.1265 5.4841C38.9916 5.62004 40.1038 5.60274 41.4632 5.42972C42.0589 5.3531 42.9586 5.54095 43.6877 5.5014C45.1584 5.42478 46.6265 5.41736 48.0947 5.48162C49.1328 5.52611 50.1709 5.39512 51.2263 5.38276C53.6658 5.36052 56.0979 5.46185 58.5349 5.41242C62.3684 5.3358 66.417 5.47422 71.2614 5.38029C73.0558 5.34569 75.179 5.44949 77.1365 5.39017C77.2824 5.38523 77.4059 5.49893 77.4109 5.64723C77.4109 5.64723 77.4109 5.6497 77.4109 5.65217C77.4628 8.20044 77.3318 10.8179 77.3862 13.2797C77.4405 15.7489 77.3738 18.2156 77.4307 20.6798C77.448 21.493 77.3664 22.3457 77.3936 23.1045C77.4554 24.8865 77.4925 26.681 77.485 28.463C77.4628 32.8996 77.4554 37.3387 77.4603 41.7753C77.4628 45.505 77.4974 49.2323 77.5616 52.9595C77.5765 53.8567 77.5493 55.0678 77.4776 56.5879C77.443 57.3244 77.4801 58.5652 77.4059 59.5415C77.3738 59.9765 77.3614 60.3695 77.3738 60.7205C77.4504 62.9672 77.4554 65.3202 77.0575 67.5398C76.7238 69.4108 76.4123 71.1854 75.6016 72.9255C75.3619 73.4371 75.1889 74.0624 75.006 74.5049C74.2991 76.2177 73.6342 77.5129 73.0114 78.3903C72.1092 79.6583 71.2886 80.9658 70.2035 82.1027C67.9 84.52 65.7966 86.7988 62.8776 88.4944C61.6566 89.2013 60.4875 90.1504 59.1578 90.6769C55.5022 92.1277 51.8441 93.5637 48.1787 94.9874C45.9517 95.85 43.4405 96.7003 41.0727 97.5901C40.9664 97.6296 40.8503 97.637 40.7415 97.6098C38.8878 97.1377 37.2466 96.2405 35.3904 95.7141C32.0364 94.7625 28.8751 93.3981 25.6323 92.1475ZM52.0889 6.364C52.1235 6.22312 51.943 6.05752 51.686 5.99573C51.4289 5.93394 51.1941 6.00067 51.1595 6.14156C51.1249 6.28244 51.3053 6.44804 51.5624 6.50983C51.8194 6.57162 52.0543 6.50489 52.0889 6.364ZM75.7994 68.2565C75.9106 68.3282 76.0243 68.3332 76.138 68.2738C76.1948 68.2442 76.2171 68.175 76.1874 68.1181C76.1825 68.1107 76.1775 68.1033 76.1726 68.0959L75.8216 67.693C75.7648 67.6263 75.7425 67.5472 75.7574 67.4607C76.1627 65.0508 76.3209 62.6286 76.2344 60.1915C76.1948 59.0966 76.3654 57.846 76.316 56.9735C76.2443 55.6462 76.2097 54.8034 76.2171 54.4425C76.2591 52.5023 76.2566 50.5645 76.2097 48.6242C76.1775 47.3365 76.3332 46.0982 76.2912 44.7808C76.222 42.6181 76.311 40.2577 76.2715 38.3002C76.2344 36.4662 76.2072 34.6322 76.1899 32.7958C76.1874 32.4152 76.2591 31.9653 76.2492 31.6415C76.1429 28.4704 76.0737 25.2993 76.0465 22.1232C76.0441 21.7648 76.1627 21.3051 76.1058 20.8998C75.9748 19.9482 76.0292 19.0955 76.0762 18.1439C76.1034 17.6347 75.9279 17.1404 75.9452 16.5991C75.9848 15.4102 76.0095 14.2189 76.0169 13.03C76.0169 12.857 76.0416 12.6741 76.0836 12.4813C76.2072 11.9178 76.0787 11.3839 76.091 10.8154C76.1108 9.86633 75.5893 7.71847 76.1825 6.96956C76.2319 6.90777 76.222 6.81632 76.1602 6.76936C76.1355 6.74959 76.1034 6.7397 76.0713 6.73723C74.4993 6.7397 72.9471 6.70757 71.4147 6.63589C70.5965 6.59634 69.7611 6.76935 68.9455 6.77924C64.2963 6.83609 59.6447 6.888 54.9955 6.93249C54.1626 6.9399 53.3321 6.93248 52.5016 6.9053C49.2242 6.80149 46.1717 6.99922 43.008 6.92754C42.615 6.92013 42.2369 6.84845 41.8538 6.88305C40.3559 7.01899 38.69 6.89541 37.3776 6.95226C34.8392 7.05854 32.4615 6.95473 30.0022 7.06349C29.5721 7.08079 29.016 7.06595 28.3314 7.01899C27.3724 6.95473 26.4702 7.06348 25.5013 7.00663C24.5374 6.94731 23.4771 7.0882 22.6194 7.04371C20.8003 6.94979 18.8625 7.06842 17.1818 7.01158C15.679 6.96214 14.4358 6.91765 13.1406 7.07337C12.7377 7.1228 12.3423 7.13516 11.9493 7.11045C9.82367 6.98192 7.71782 7.13763 5.59468 7.01899C5.48098 7.01157 5.38459 7.09808 5.37717 7.21425C5.37717 7.22167 5.37717 7.23156 5.37717 7.23897C5.46615 8.53164 5.29561 9.82678 5.392 11.1293C5.41919 11.5174 5.42909 11.8881 5.42167 12.2416C5.35494 15.215 5.43155 18.0178 5.34751 21.1618C5.33763 21.5251 5.17204 21.7401 4.84825 21.8044C4.71725 21.8291 4.7123 21.8711 4.82847 21.9329C4.88532 21.9601 4.94463 21.9725 5.0089 21.97C5.09541 21.9675 5.16214 22.0021 5.2091 22.0787C5.3401 22.3037 5.39695 22.5261 5.38459 22.7461C5.20169 25.7467 5.34999 29.6272 5.33763 31.7256C5.3228 34.1503 5.31292 36.5725 5.30797 38.9947C5.30303 40.0995 5.22393 41.6295 5.25606 42.9518C5.28819 44.1802 5.29068 45.1664 5.26596 45.9153C5.18439 48.3647 5.31539 50.4335 5.29809 52.6085C5.27585 55.2433 5.46368 58.3428 5.41425 60.1891C5.32033 63.5999 5.68613 66.4992 6.24225 69.569C6.28921 69.8285 6.38067 70.1128 6.51414 70.4217C6.81321 71.1064 7.05295 72.0728 7.23091 72.5523C7.45088 73.1479 7.66593 73.7189 7.87602 74.2651C8.02432 74.6581 7.91557 74.757 7.55223 74.5617C7.51516 74.5419 7.47313 74.5321 7.42123 74.5296C7.33225 74.5296 7.29271 74.5716 7.30012 74.6606C7.31742 74.8336 7.41876 74.9374 7.6066 74.972C7.79692 75.0091 7.95757 75.0486 8.08363 75.0857C8.17014 75.1129 8.2344 75.1648 8.27395 75.2464C9.95714 78.6894 11.6725 81.1734 14.0576 83.5412C16.2376 85.7039 18.1457 87.1375 21.04 88.8108C22.1177 89.4311 23.3238 89.6857 24.4558 90.2666C24.9551 90.5236 25.5087 90.5681 25.9116 90.751C28.1682 91.7718 29.9701 92.4886 31.3171 92.9013C32.2959 93.2004 33.1091 93.5712 33.9642 93.7565C36.0726 94.2113 38.1562 94.9652 40.1508 95.7808C40.2274 95.8129 40.304 95.8179 40.3856 95.7956C41.2581 95.5559 42.1553 95.4471 42.9932 95.1777C43.4801 95.022 43.9695 94.8713 44.4614 94.7254C45.7343 94.3522 46.9898 93.8554 48.2899 93.497C49.4689 93.1732 50.6306 92.6863 51.8343 92.3477C52.1877 92.2488 52.5931 92.0808 53.0503 91.8435C53.861 91.4208 54.6841 91.3145 55.4701 90.8696C56.2635 90.4173 57.1854 90.0886 57.917 89.6931C60.5295 88.2818 63.3447 87.1152 65.6187 84.9179C66.6296 83.9416 67.6355 82.9604 68.6415 81.9767C70.3914 80.2663 71.5852 78.0517 72.8136 75.9706C73.3055 75.1351 73.8962 73.8153 74.5809 72.011C75.0183 70.8641 75.2927 69.5912 75.4855 68.3999C75.5028 68.2862 75.6115 68.2096 75.7228 68.2294C75.7499 68.2343 75.7746 68.2442 75.7994 68.2565ZM76.7188 20.9937C76.7065 20.927 76.6101 20.8924 76.5062 20.9121C76.4024 20.9319 76.3283 21.0036 76.3407 21.0678C76.353 21.1346 76.4494 21.1692 76.5532 21.1494C76.657 21.1296 76.7312 21.058 76.7188 20.9937Z" stroke="#EAFE01" stroke-width="6" mask="url(#path-1-outside-1_192_348)"/>
<mask id="path-2-outside-2_192_348" maskUnits="userSpaceOnUse" x="10.2832" y="12.3369" width="61" height="77" fill="black">
<rect fill="white" x="10.2832" y="12.3369" width="61" height="77"/>
<path d="M62.3578 55.5743C62.5926 55.6831 62.8719 55.5793 62.9781 55.3445C62.9905 55.3173 63.0004 55.2901 63.0078 55.2629C63.2154 54.4275 63.5788 53.377 64.3203 52.947C65.5413 52.2376 66.9773 54.0098 67.3011 55.0083C67.4469 55.4606 67.5631 56.2837 67.6446 57.4824C67.7806 59.4597 67.6842 61.4272 67.3505 63.3823C67.1552 64.534 66.2506 66.8277 64.7726 66.7758C63.7271 66.7388 63.5022 66.0022 63.1883 65.1421C62.9139 64.3907 61.7794 63.8346 61.1195 64.4574C59.6043 65.8836 58.8011 67.3987 57.7976 69.2845C57.4194 69.9939 57.1994 70.5401 57.1352 70.9232C57.019 71.6277 57.0808 72.8734 57.7308 73.3677C57.8025 73.4196 57.8792 73.4394 57.9657 73.4221C58.8901 73.2342 59.2064 72.3123 59.8367 71.8551C61.1936 70.8713 62.3726 72.1022 62.5333 73.4147C62.6766 74.5788 61.6385 76.2002 60.9662 77.0974C60.6845 77.4706 60.2692 77.8809 59.7181 78.3234C59.0977 78.8202 58.5588 79.3441 57.8569 79.7347C56.9399 80.2438 56.1614 80.8197 55.143 81.1188C54.0703 81.4327 53.0149 81.927 51.8854 81.3585C51.0994 80.9631 50.8177 80.2166 51.1686 79.4208C51.4282 78.835 52.1202 78.7757 52.3352 78.1973C52.9482 76.5438 50.2813 76.6105 49.3693 76.7094C48.7736 76.7761 48.2249 76.6896 47.6564 76.87C46.3761 77.2754 44.987 77.5571 43.9391 78.311C43.4002 78.6991 42.8713 79.1538 42.3523 79.6778C42.0285 80.0041 42.0137 80.3328 42.3028 80.6665C43.2272 81.7268 44.337 80.8024 45.4393 81.2152C47.2313 81.8875 46.3019 83.756 45.2812 84.5321C42.6711 86.5144 38.1504 86.1189 35.2364 84.6928C33.9165 84.0477 31.6995 81.4327 34.2675 80.5627C34.9497 80.3328 35.8518 80.7209 36.6279 80.8321C36.8232 80.8617 37.016 80.7629 37.105 80.5849C37.446 79.9151 36.6675 78.9017 36.2275 78.4568C35.1449 77.3619 33.8028 76.346 32.2605 76.0247C31.6426 75.8962 26.9712 74.5788 27.7819 76.6698C28.1106 77.5176 29.0671 77.8241 29.3341 78.662C29.5343 79.2898 29.4255 79.8978 29.0078 80.4836C28.296 81.4821 26.3286 81.2424 25.3473 80.8617C23.6147 80.1919 22.2034 79.2478 20.9404 77.8809C19.5661 76.393 17.7322 74.7419 18.3007 72.4853C18.5157 71.6351 19.4722 70.9579 20.3546 71.336C21.1529 71.6771 21.4174 72.7374 22.3369 72.8412C22.4135 72.8511 22.4827 72.8289 22.542 72.777C23.8495 71.6474 23.1006 69.2574 22.7546 68.0438C22.5296 67.2504 22.0971 66.4397 21.8549 65.587C21.6942 65.0333 21.3531 64.9246 21.101 64.4747C20.8539 64.0372 20.5251 63.6887 20.1148 63.4292C19.3981 62.9744 18.3921 62.9225 18.1252 63.9112C17.9769 64.4574 17.8829 64.7664 17.8409 64.8356C17.3861 65.587 16.4074 66.0714 15.6016 65.4733C14.0222 64.3042 13.2807 59.833 13.2832 58.1003C13.2882 55.7671 13.3178 54.1877 15.0529 52.5194C15.3767 52.2079 15.7202 52.0522 16.0885 52.0522C18.3006 52.0547 17.2181 54.1037 18.6615 54.6821C19.712 55.1072 20.3299 53.157 20.5968 52.4328C20.8934 51.6271 20.7748 50.5124 20.8786 49.6424C20.9503 49.0467 20.9527 48.498 20.8909 47.9938C20.7921 47.2004 20.7031 46.407 20.624 45.6136C20.5227 44.5977 20.2656 44.2665 19.4549 43.7524C18.9581 43.436 18.5824 43.5448 18.3229 44.0812C17.8557 45.055 17.2428 47.0125 15.651 46.0609C14.4696 45.3565 13.9308 43.3397 13.7578 41.9778C13.5254 40.1611 13.4958 38.3395 13.6663 36.5179C13.8319 34.7655 13.8937 33.7076 15.043 32.6028C15.614 32.0541 16.2393 32.0245 16.919 32.5138C17.7717 33.1293 17.7297 33.5791 18.1079 34.4121C18.3674 34.983 18.7505 35.2079 19.2597 35.0843C19.8405 34.9459 20.5325 33.8362 20.797 33.2504C21.2246 32.2889 21.2666 30.9122 21.3902 29.8618C21.494 28.9868 21.5163 28.2379 21.4594 27.6126C21.363 26.5621 20.7649 22.9733 19.0743 24.1448C18.6294 24.4538 18.397 24.7603 18.3748 25.0618C18.2908 26.2581 17.8014 27.8498 16.1973 27.3283C13.6292 26.4978 14.5017 22.3826 15.7326 20.865C16.4939 19.9233 17.0871 19.1224 18.1128 18.3241C18.8296 17.7655 19.2918 17.0561 20.0728 16.6706C21.3877 16.023 23.8124 15.4125 25.1001 16.4012C25.6464 16.8238 25.9974 17.3107 26.1531 17.8619C26.4422 18.9 24.6998 19.3548 23.9756 19.5995C23.6048 19.7255 23.328 19.9628 23.1476 20.3138C22.4506 21.6633 26.4398 22.4048 27.0033 22.4172C27.5051 22.427 27.9252 22.4444 28.2589 22.4715C29.5985 22.5778 30.8764 22.5828 32.2061 22.212C32.8315 22.0365 35.2117 21.6065 35.2388 20.6277C35.2463 20.4077 35.1153 20.2817 34.8483 20.2446C33.5903 20.0716 32.6634 19.9801 32.2803 18.5416C32.1864 18.1832 32.2408 17.8767 32.4459 17.6246C33.8103 15.9489 37.1396 15.3853 39.1515 15.4496C39.5914 15.4644 39.9943 15.3211 40.4095 15.3384C41.46 15.3779 42.5129 15.4125 43.5634 15.4422C44.725 15.4768 46.5713 15.9884 47.4661 16.9252C48.042 17.5258 48.1829 18.4625 47.5477 19.0656C46.863 19.7181 46.0919 19.4388 45.2021 19.4833C44.9623 19.4932 44.772 19.6835 44.7596 19.9233C44.6978 21.0602 46.3168 21.6831 47.2066 22.0217C47.7059 22.212 48.299 22.3158 48.9837 22.3282C50.2071 22.3504 51.4282 22.3826 52.6467 22.4295C53.8528 22.4765 57.3107 22.2046 57.9311 20.9539C57.9657 20.8823 57.9706 20.8106 57.9483 20.7364C57.8223 20.3286 57.6444 20.0938 57.4095 20.032C56.2652 19.728 55.3037 19.4438 54.8341 18.2252C54.5498 17.4887 55.1331 16.7867 55.7189 16.4308C56.8732 15.7264 57.9904 15.5262 59.0754 15.8277C60.3508 16.1812 61.945 16.5223 62.8126 17.2069C64.0879 18.2129 65.1211 19.4141 65.9095 20.8106C66.6288 22.0835 68.1167 27.8696 64.8863 27.3679C63.3118 27.1232 63.5565 25.7242 63.0919 24.8418C62.5629 23.8384 61.5199 24.2091 61.117 25.0915C60.3904 26.6783 60.2322 28.3046 60.2692 30.0298C60.3038 31.6933 60.3879 34.0438 61.7102 35.1783C61.9277 35.3636 62.2466 35.3686 62.469 35.1882C63.5961 34.2712 63.1932 32.3952 65.3312 32.8228C67.5383 33.2652 67.7287 38.955 67.6026 40.5887C67.526 41.6194 67.6471 42.6649 67.2838 43.5967C67.0045 44.3184 65.9862 46.5306 64.995 46.3724C63.8111 46.1821 63.5615 45.5098 63.1883 44.4865C63.1586 44.4099 63.1067 44.3456 63.0375 44.3061C62.3059 43.8661 61.8288 44.353 61.5743 45.0377C60.8773 46.9087 60.6425 48.849 60.8699 50.8584C61.0256 52.2252 61.1714 53.5945 61.3123 54.9712C61.3197 55.0528 61.3691 55.122 61.4433 55.1566L62.3578 55.5743ZM46.8581 17.7631C45.8249 16.6904 44.7053 16.4654 43.2865 16.2702C42.508 16.1614 41.6923 16.2726 40.894 16.2158C40.2687 16.1688 39.7348 16.4308 39.238 16.4308C37.3941 16.4259 35.6467 16.8164 33.9931 17.6024C33.3975 17.8866 32.9353 18.8506 33.872 19.0532C34.3317 19.1521 34.7841 19.2732 35.2289 19.419C37.2359 20.0691 35.8889 21.8512 34.7322 22.3282C33.7114 22.7484 32.562 23.1389 31.2793 23.4973C30.3178 23.7691 29.3514 23.5665 28.3553 23.5492C27.6064 23.5343 26.9242 23.3341 26.1803 23.2303C24.4625 22.9931 22.7743 22.3307 22.0551 20.6326C21.9982 20.4967 22.0155 20.3434 22.102 20.2248L23.15 18.7962C23.2044 18.722 23.286 18.6726 23.3774 18.6578C23.8495 18.5812 24.287 18.4353 24.6923 18.2178C24.8827 18.114 24.9518 17.8767 24.848 17.6889C24.5045 17.071 23.3997 16.8535 22.6779 16.8535C20.8539 16.856 19.1484 18.6553 17.9225 19.7206C17.0574 20.4695 16.5038 21.5249 15.9328 22.5061C15.6412 23.0079 15.4706 23.48 15.4212 23.9273C15.3025 25.0149 15.6535 26.3743 16.8696 26.4558C17.1933 26.4781 17.4726 26.2334 17.4924 25.9096C17.4924 25.8799 17.4924 25.8503 17.4924 25.8206C17.3812 24.5181 17.9077 23.6159 19.0718 23.1142C19.8701 22.7706 20.4905 22.8942 20.9379 23.4899C22.3195 25.3288 22.5741 27.4395 22.3863 29.8024C22.2924 30.9765 22.3517 32.6028 21.7956 33.6533C21.4495 34.3107 20.5746 35.68 20.0283 35.9222C18.5997 36.5575 17.4974 35.3216 17.0525 34.0809C16.9066 33.678 16.7831 33.4234 16.6768 33.3196C16.1701 32.8228 15.4632 33.3196 15.1839 33.7966C14.9293 34.2391 14.7761 34.7186 14.7266 35.2302C14.5734 36.8343 14.4894 38.295 14.6031 39.998C14.6698 40.9891 14.5734 42.0272 14.8379 42.9887C15.0331 43.7055 15.5917 44.3629 15.9995 44.9907C16.1923 45.2848 16.4271 45.3738 16.7015 45.2527C16.8424 45.1934 16.9487 45.0772 16.9981 44.9339C17.4751 43.5745 18.3402 42.1038 20.0654 42.9541C20.8539 43.3421 21.3927 43.96 21.6868 44.8078C21.8747 45.3516 21.7659 45.9176 21.7412 46.5034C21.7362 46.5998 21.761 46.6863 21.8153 46.7654L22.0699 47.1386C22.1218 47.2127 22.1367 47.2943 22.1194 47.3808C21.9982 48.0012 22.0007 48.6142 22.1243 49.2247C22.3047 50.1095 22.0996 50.7249 21.8351 51.5183C21.6571 52.0572 21.8771 52.4922 21.6151 53.0137C21.1282 53.9875 20.5795 55.4779 19.2053 55.604C18.7604 55.6435 18.3427 55.7028 18.0411 55.4433C17.2848 54.7908 17.1118 53.9826 16.7386 53.1125C16.6768 52.9692 16.5359 52.8777 16.3802 52.8802C14.3287 52.9173 14.1582 57.1883 14.3164 58.4637C14.519 60.1123 14.8156 61.7411 15.2037 63.3526C15.3396 63.9062 16.049 65.3497 16.8004 64.801C17.4331 64.3388 17.0277 63.3823 17.663 62.8212C18.9507 61.6818 20.9972 62.3615 21.9488 63.5775C22.4431 64.2078 22.6235 65.3324 22.9646 66.1035C23.7976 67.982 24.4575 69.8926 23.9582 71.8748C23.6913 72.9327 23.4664 73.7656 22.1787 73.5061C21.2864 73.3282 20.8786 72.7795 20.3225 72.2258C20.1025 72.0058 19.8776 72.0009 19.6477 72.206C18.3624 73.3578 20.1321 75.9407 20.9404 76.9219C21.7288 77.8809 23.323 79.1538 24.3438 79.7075C25.1916 80.1697 26.2841 80.4144 27.6163 80.4366C28.6667 80.4564 28.7631 79.0624 28.2861 78.4395C27.987 78.049 26.9341 77.2309 26.7982 76.4919C26.7883 76.4375 26.7932 76.3807 26.813 76.3263C27.2159 75.2734 27.6361 74.6505 28.6692 74.5788C30.5131 74.4503 33.2418 75.1028 34.7791 76.0495C35.9383 76.7613 37.9107 78.5928 37.9972 80.0634C38.0293 80.6072 37.3818 81.9764 36.7021 81.7046C35.7184 81.3091 34.4158 80.837 34.0772 82.0135C33.5606 83.8005 37.7006 84.7398 38.9191 84.9004C39.7372 85.0092 40.59 84.94 41.4402 84.9326C42.2855 84.9276 42.9109 84.8658 43.3187 84.7472C44.159 84.505 46.5318 83.0912 45.3874 82.0284C45.3331 81.9765 45.2688 81.9517 45.1922 81.9517C44.2703 81.9468 42.8886 82.236 42.1372 81.7763C41.2647 81.2399 40.9928 80.5182 41.3191 79.6061C41.4526 79.2304 41.7936 78.9956 42.0878 78.7386C42.9331 78.002 43.3582 77.2334 44.4878 76.8774C45.8645 76.4449 46.8408 76.1261 47.4191 75.9259C48 75.7232 48.4449 75.7899 49.0356 75.738C49.9229 75.6614 51.5171 75.6392 52.2833 76.0791C52.6837 76.309 53.0372 76.5734 53.3461 76.8725C53.5093 77.0282 53.5884 77.2556 53.5562 77.4805C53.4549 78.2023 52.9532 78.7707 52.3896 79.4109C51.9917 79.8632 51.7124 80.3155 52.4316 80.6615C53.3808 81.1163 54.0703 80.3946 54.9403 80.1573C55.3976 80.0313 55.7733 79.878 56.0674 79.6951C57.6468 78.7213 58.8505 78.1454 60.3038 76.5586C60.9069 75.8987 62.0661 74.1315 61.7918 73.2071C61.6336 72.6707 60.9415 72.0528 60.4027 72.3889C60.3236 72.4384 60.1605 72.6485 59.9109 73.0167C59.5895 73.4938 59.1718 73.8398 58.6552 74.0598C57.1327 74.7049 56.0328 73.3405 56.0946 71.8724C56.1613 70.2287 56.7743 68.7927 57.6715 67.3715C57.983 66.8747 58.4526 66.3507 58.8184 65.8144C59.3399 65.0531 60.3656 63.664 61.1862 63.3378C62.1625 62.9522 63.7913 63.2191 64.0236 64.3932C64.1027 64.7861 64.1917 65.1742 64.2906 65.5548C64.4488 66.1629 65.0024 66.1184 65.3213 65.6957C66.5324 64.0867 66.3816 62.836 66.693 60.9897C66.9155 59.6822 66.9081 58.088 66.6708 56.8077C66.4681 55.7127 66.5448 54.9342 65.8082 54.0122C65.4152 53.5179 64.6094 53.3177 64.3771 54.0122C64.1349 54.7315 63.8853 56.6668 62.4962 56.3949C61.4729 56.1947 60.7611 55.6559 60.3607 54.7785C60.1877 54.4028 60.2667 54.0444 60.2569 53.639C60.2297 52.6652 59.7749 51.8644 59.8738 50.8658C60.0245 49.3532 60.0666 47.8331 59.9998 46.3056C59.9974 46.2241 60.0171 46.1524 60.0641 46.0857C60.3533 45.6679 60.5708 45.2206 60.7215 44.7436C60.9514 44.0119 62.076 42.8701 62.7829 42.9887C63.8334 43.1642 64.0632 44.1998 64.3672 45.0525C64.4661 45.3293 64.7701 45.4752 65.0469 45.3763C65.0716 45.3664 65.0964 45.3565 65.1211 45.3442C66.2061 44.7559 66.6881 42.6847 66.6881 41.5897C66.6881 40.779 66.9748 39.7657 66.866 39.1206C66.6387 37.7883 66.6115 35.4922 66.001 34.4219C65.6006 33.7175 64.5625 33.1491 64.12 34.1946C63.9149 34.6815 63.6603 35.1363 63.3588 35.5589C61.8758 37.6376 59.9183 34.9237 59.6241 33.6261C59.3251 32.2988 59.2287 30.712 59.3349 28.8607C59.4313 27.1924 60.1432 23.6826 61.8165 23.3959C63.4527 23.1166 64.0311 24.738 64.2881 25.9838C64.3499 26.2754 64.5971 26.4929 65.0346 26.6363C65.1038 26.6585 65.173 26.656 65.2397 26.6264C66.5818 26.0208 65.9837 23.2575 65.5759 22.2071C65.3312 21.5793 64.8863 20.9416 64.5279 20.3088C64.1744 19.6934 63.8729 19.246 63.6183 18.9692C62.5308 17.7828 61.2801 17.5258 59.8565 17.0561C58.5242 16.6162 56.7076 16.3616 55.7906 17.7482C55.7436 17.8174 55.7263 17.8916 55.7338 17.9731C55.7931 18.5416 56.0921 18.7542 56.6557 18.9074C57.7655 19.209 59.4561 19.7849 58.7516 21.3766C58.0966 22.8596 55.3161 23.2254 53.8504 23.4132C53.3338 23.48 52.6145 23.4775 51.6902 23.4058C50.3826 23.3045 48.9268 23.5319 47.7874 23.26C46.7617 23.0153 45.8224 22.558 44.9673 21.8932C43.9638 21.1121 42.9825 19.7478 44.3147 18.947C45.0142 18.5268 46.9075 19.0335 46.9396 17.9781C46.9421 17.8965 46.9149 17.8248 46.8581 17.7655V17.7631Z"/>
</mask>
<path d="M62.3578 55.5743C62.5926 55.6831 62.8719 55.5793 62.9781 55.3445C62.9905 55.3173 63.0004 55.2901 63.0078 55.2629C63.2154 54.4275 63.5788 53.377 64.3203 52.947C65.5413 52.2376 66.9773 54.0098 67.3011 55.0083C67.4469 55.4606 67.5631 56.2837 67.6446 57.4824C67.7806 59.4597 67.6842 61.4272 67.3505 63.3823C67.1552 64.534 66.2506 66.8277 64.7726 66.7758C63.7271 66.7388 63.5022 66.0022 63.1883 65.1421C62.9139 64.3907 61.7794 63.8346 61.1195 64.4574C59.6043 65.8836 58.8011 67.3987 57.7976 69.2845C57.4194 69.9939 57.1994 70.5401 57.1352 70.9232C57.019 71.6277 57.0808 72.8734 57.7308 73.3677C57.8025 73.4196 57.8792 73.4394 57.9657 73.4221C58.8901 73.2342 59.2064 72.3123 59.8367 71.8551C61.1936 70.8713 62.3726 72.1022 62.5333 73.4147C62.6766 74.5788 61.6385 76.2002 60.9662 77.0974C60.6845 77.4706 60.2692 77.8809 59.7181 78.3234C59.0977 78.8202 58.5588 79.3441 57.8569 79.7347C56.9399 80.2438 56.1614 80.8197 55.143 81.1188C54.0703 81.4327 53.0149 81.927 51.8854 81.3585C51.0994 80.9631 50.8177 80.2166 51.1686 79.4208C51.4282 78.835 52.1202 78.7757 52.3352 78.1973C52.9482 76.5438 50.2813 76.6105 49.3693 76.7094C48.7736 76.7761 48.2249 76.6896 47.6564 76.87C46.3761 77.2754 44.987 77.5571 43.9391 78.311C43.4002 78.6991 42.8713 79.1538 42.3523 79.6778C42.0285 80.0041 42.0137 80.3328 42.3028 80.6665C43.2272 81.7268 44.337 80.8024 45.4393 81.2152C47.2313 81.8875 46.3019 83.756 45.2812 84.5321C42.6711 86.5144 38.1504 86.1189 35.2364 84.6928C33.9165 84.0477 31.6995 81.4327 34.2675 80.5627C34.9497 80.3328 35.8518 80.7209 36.6279 80.8321C36.8232 80.8617 37.016 80.7629 37.105 80.5849C37.446 79.9151 36.6675 78.9017 36.2275 78.4568C35.1449 77.3619 33.8028 76.346 32.2605 76.0247C31.6426 75.8962 26.9712 74.5788 27.7819 76.6698C28.1106 77.5176 29.0671 77.8241 29.3341 78.662C29.5343 79.2898 29.4255 79.8978 29.0078 80.4836C28.296 81.4821 26.3286 81.2424 25.3473 80.8617C23.6147 80.1919 22.2034 79.2478 20.9404 77.8809C19.5661 76.393 17.7322 74.7419 18.3007 72.4853C18.5157 71.6351 19.4722 70.9579 20.3546 71.336C21.1529 71.6771 21.4174 72.7374 22.3369 72.8412C22.4135 72.8511 22.4827 72.8289 22.542 72.777C23.8495 71.6474 23.1006 69.2574 22.7546 68.0438C22.5296 67.2504 22.0971 66.4397 21.8549 65.587C21.6942 65.0333 21.3531 64.9246 21.101 64.4747C20.8539 64.0372 20.5251 63.6887 20.1148 63.4292C19.3981 62.9744 18.3921 62.9225 18.1252 63.9112C17.9769 64.4574 17.8829 64.7664 17.8409 64.8356C17.3861 65.587 16.4074 66.0714 15.6016 65.4733C14.0222 64.3042 13.2807 59.833 13.2832 58.1003C13.2882 55.7671 13.3178 54.1877 15.0529 52.5194C15.3767 52.2079 15.7202 52.0522 16.0885 52.0522C18.3006 52.0547 17.2181 54.1037 18.6615 54.6821C19.712 55.1072 20.3299 53.157 20.5968 52.4328C20.8934 51.6271 20.7748 50.5124 20.8786 49.6424C20.9503 49.0467 20.9527 48.498 20.8909 47.9938C20.7921 47.2004 20.7031 46.407 20.624 45.6136C20.5227 44.5977 20.2656 44.2665 19.4549 43.7524C18.9581 43.436 18.5824 43.5448 18.3229 44.0812C17.8557 45.055 17.2428 47.0125 15.651 46.0609C14.4696 45.3565 13.9308 43.3397 13.7578 41.9778C13.5254 40.1611 13.4958 38.3395 13.6663 36.5179C13.8319 34.7655 13.8937 33.7076 15.043 32.6028C15.614 32.0541 16.2393 32.0245 16.919 32.5138C17.7717 33.1293 17.7297 33.5791 18.1079 34.4121C18.3674 34.983 18.7505 35.2079 19.2597 35.0843C19.8405 34.9459 20.5325 33.8362 20.797 33.2504C21.2246 32.2889 21.2666 30.9122 21.3902 29.8618C21.494 28.9868 21.5163 28.2379 21.4594 27.6126C21.363 26.5621 20.7649 22.9733 19.0743 24.1448C18.6294 24.4538 18.397 24.7603 18.3748 25.0618C18.2908 26.2581 17.8014 27.8498 16.1973 27.3283C13.6292 26.4978 14.5017 22.3826 15.7326 20.865C16.4939 19.9233 17.0871 19.1224 18.1128 18.3241C18.8296 17.7655 19.2918 17.0561 20.0728 16.6706C21.3877 16.023 23.8124 15.4125 25.1001 16.4012C25.6464 16.8238 25.9974 17.3107 26.1531 17.8619C26.4422 18.9 24.6998 19.3548 23.9756 19.5995C23.6048 19.7255 23.328 19.9628 23.1476 20.3138C22.4506 21.6633 26.4398 22.4048 27.0033 22.4172C27.5051 22.427 27.9252 22.4444 28.2589 22.4715C29.5985 22.5778 30.8764 22.5828 32.2061 22.212C32.8315 22.0365 35.2117 21.6065 35.2388 20.6277C35.2463 20.4077 35.1153 20.2817 34.8483 20.2446C33.5903 20.0716 32.6634 19.9801 32.2803 18.5416C32.1864 18.1832 32.2408 17.8767 32.4459 17.6246C33.8103 15.9489 37.1396 15.3853 39.1515 15.4496C39.5914 15.4644 39.9943 15.3211 40.4095 15.3384C41.46 15.3779 42.5129 15.4125 43.5634 15.4422C44.725 15.4768 46.5713 15.9884 47.4661 16.9252C48.042 17.5258 48.1829 18.4625 47.5477 19.0656C46.863 19.7181 46.0919 19.4388 45.2021 19.4833C44.9623 19.4932 44.772 19.6835 44.7596 19.9233C44.6978 21.0602 46.3168 21.6831 47.2066 22.0217C47.7059 22.212 48.299 22.3158 48.9837 22.3282C50.2071 22.3504 51.4282 22.3826 52.6467 22.4295C53.8528 22.4765 57.3107 22.2046 57.9311 20.9539C57.9657 20.8823 57.9706 20.8106 57.9483 20.7364C57.8223 20.3286 57.6444 20.0938 57.4095 20.032C56.2652 19.728 55.3037 19.4438 54.8341 18.2252C54.5498 17.4887 55.1331 16.7867 55.7189 16.4308C56.8732 15.7264 57.9904 15.5262 59.0754 15.8277C60.3508 16.1812 61.945 16.5223 62.8126 17.2069C64.0879 18.2129 65.1211 19.4141 65.9095 20.8106C66.6288 22.0835 68.1167 27.8696 64.8863 27.3679C63.3118 27.1232 63.5565 25.7242 63.0919 24.8418C62.5629 23.8384 61.5199 24.2091 61.117 25.0915C60.3904 26.6783 60.2322 28.3046 60.2692 30.0298C60.3038 31.6933 60.3879 34.0438 61.7102 35.1783C61.9277 35.3636 62.2466 35.3686 62.469 35.1882C63.5961 34.2712 63.1932 32.3952 65.3312 32.8228C67.5383 33.2652 67.7287 38.955 67.6026 40.5887C67.526 41.6194 67.6471 42.6649 67.2838 43.5967C67.0045 44.3184 65.9862 46.5306 64.995 46.3724C63.8111 46.1821 63.5615 45.5098 63.1883 44.4865C63.1586 44.4099 63.1067 44.3456 63.0375 44.3061C62.3059 43.8661 61.8288 44.353 61.5743 45.0377C60.8773 46.9087 60.6425 48.849 60.8699 50.8584C61.0256 52.2252 61.1714 53.5945 61.3123 54.9712C61.3197 55.0528 61.3691 55.122 61.4433 55.1566L62.3578 55.5743ZM46.8581 17.7631C45.8249 16.6904 44.7053 16.4654 43.2865 16.2702C42.508 16.1614 41.6923 16.2726 40.894 16.2158C40.2687 16.1688 39.7348 16.4308 39.238 16.4308C37.3941 16.4259 35.6467 16.8164 33.9931 17.6024C33.3975 17.8866 32.9353 18.8506 33.872 19.0532C34.3317 19.1521 34.7841 19.2732 35.2289 19.419C37.2359 20.0691 35.8889 21.8512 34.7322 22.3282C33.7114 22.7484 32.562 23.1389 31.2793 23.4973C30.3178 23.7691 29.3514 23.5665 28.3553 23.5492C27.6064 23.5343 26.9242 23.3341 26.1803 23.2303C24.4625 22.9931 22.7743 22.3307 22.0551 20.6326C21.9982 20.4967 22.0155 20.3434 22.102 20.2248L23.15 18.7962C23.2044 18.722 23.286 18.6726 23.3774 18.6578C23.8495 18.5812 24.287 18.4353 24.6923 18.2178C24.8827 18.114 24.9518 17.8767 24.848 17.6889C24.5045 17.071 23.3997 16.8535 22.6779 16.8535C20.8539 16.856 19.1484 18.6553 17.9225 19.7206C17.0574 20.4695 16.5038 21.5249 15.9328 22.5061C15.6412 23.0079 15.4706 23.48 15.4212 23.9273C15.3025 25.0149 15.6535 26.3743 16.8696 26.4558C17.1933 26.4781 17.4726 26.2334 17.4924 25.9096C17.4924 25.8799 17.4924 25.8503 17.4924 25.8206C17.3812 24.5181 17.9077 23.6159 19.0718 23.1142C19.8701 22.7706 20.4905 22.8942 20.9379 23.4899C22.3195 25.3288 22.5741 27.4395 22.3863 29.8024C22.2924 30.9765 22.3517 32.6028 21.7956 33.6533C21.4495 34.3107 20.5746 35.68 20.0283 35.9222C18.5997 36.5575 17.4974 35.3216 17.0525 34.0809C16.9066 33.678 16.7831 33.4234 16.6768 33.3196C16.1701 32.8228 15.4632 33.3196 15.1839 33.7966C14.9293 34.2391 14.7761 34.7186 14.7266 35.2302C14.5734 36.8343 14.4894 38.295 14.6031 39.998C14.6698 40.9891 14.5734 42.0272 14.8379 42.9887C15.0331 43.7055 15.5917 44.3629 15.9995 44.9907C16.1923 45.2848 16.4271 45.3738 16.7015 45.2527C16.8424 45.1934 16.9487 45.0772 16.9981 44.9339C17.4751 43.5745 18.3402 42.1038 20.0654 42.9541C20.8539 43.3421 21.3927 43.96 21.6868 44.8078C21.8747 45.3516 21.7659 45.9176 21.7412 46.5034C21.7362 46.5998 21.761 46.6863 21.8153 46.7654L22.0699 47.1386C22.1218 47.2127 22.1367 47.2943 22.1194 47.3808C21.9982 48.0012 22.0007 48.6142 22.1243 49.2247C22.3047 50.1095 22.0996 50.7249 21.8351 51.5183C21.6571 52.0572 21.8771 52.4922 21.6151 53.0137C21.1282 53.9875 20.5795 55.4779 19.2053 55.604C18.7604 55.6435 18.3427 55.7028 18.0411 55.4433C17.2848 54.7908 17.1118 53.9826 16.7386 53.1125C16.6768 52.9692 16.5359 52.8777 16.3802 52.8802C14.3287 52.9173 14.1582 57.1883 14.3164 58.4637C14.519 60.1123 14.8156 61.7411 15.2037 63.3526C15.3396 63.9062 16.049 65.3497 16.8004 64.801C17.4331 64.3388 17.0277 63.3823 17.663 62.8212C18.9507 61.6818 20.9972 62.3615 21.9488 63.5775C22.4431 64.2078 22.6235 65.3324 22.9646 66.1035C23.7976 67.982 24.4575 69.8926 23.9582 71.8748C23.6913 72.9327 23.4664 73.7656 22.1787 73.5061C21.2864 73.3282 20.8786 72.7795 20.3225 72.2258C20.1025 72.0058 19.8776 72.0009 19.6477 72.206C18.3624 73.3578 20.1321 75.9407 20.9404 76.9219C21.7288 77.8809 23.323 79.1538 24.3438 79.7075C25.1916 80.1697 26.2841 80.4144 27.6163 80.4366C28.6667 80.4564 28.7631 79.0624 28.2861 78.4395C27.987 78.049 26.9341 77.2309 26.7982 76.4919C26.7883 76.4375 26.7932 76.3807 26.813 76.3263C27.2159 75.2734 27.6361 74.6505 28.6692 74.5788C30.5131 74.4503 33.2418 75.1028 34.7791 76.0495C35.9383 76.7613 37.9107 78.5928 37.9972 80.0634C38.0293 80.6072 37.3818 81.9764 36.7021 81.7046C35.7184 81.3091 34.4158 80.837 34.0772 82.0135C33.5606 83.8005 37.7006 84.7398 38.9191 84.9004C39.7372 85.0092 40.59 84.94 41.4402 84.9326C42.2855 84.9276 42.9109 84.8658 43.3187 84.7472C44.159 84.505 46.5318 83.0912 45.3874 82.0284C45.3331 81.9765 45.2688 81.9517 45.1922 81.9517C44.2703 81.9468 42.8886 82.236 42.1372 81.7763C41.2647 81.2399 40.9928 80.5182 41.3191 79.6061C41.4526 79.2304 41.7936 78.9956 42.0878 78.7386C42.9331 78.002 43.3582 77.2334 44.4878 76.8774C45.8645 76.4449 46.8408 76.1261 47.4191 75.9259C48 75.7232 48.4449 75.7899 49.0356 75.738C49.9229 75.6614 51.5171 75.6392 52.2833 76.0791C52.6837 76.309 53.0372 76.5734 53.3461 76.8725C53.5093 77.0282 53.5884 77.2556 53.5562 77.4805C53.4549 78.2023 52.9532 78.7707 52.3896 79.4109C51.9917 79.8632 51.7124 80.3155 52.4316 80.6615C53.3808 81.1163 54.0703 80.3946 54.9403 80.1573C55.3976 80.0313 55.7733 79.878 56.0674 79.6951C57.6468 78.7213 58.8505 78.1454 60.3038 76.5586C60.9069 75.8987 62.0661 74.1315 61.7918 73.2071C61.6336 72.6707 60.9415 72.0528 60.4027 72.3889C60.3236 72.4384 60.1605 72.6485 59.9109 73.0167C59.5895 73.4938 59.1718 73.8398 58.6552 74.0598C57.1327 74.7049 56.0328 73.3405 56.0946 71.8724C56.1613 70.2287 56.7743 68.7927 57.6715 67.3715C57.983 66.8747 58.4526 66.3507 58.8184 65.8144C59.3399 65.0531 60.3656 63.664 61.1862 63.3378C62.1625 62.9522 63.7913 63.2191 64.0236 64.3932C64.1027 64.7861 64.1917 65.1742 64.2906 65.5548C64.4488 66.1629 65.0024 66.1184 65.3213 65.6957C66.5324 64.0867 66.3816 62.836 66.693 60.9897C66.9155 59.6822 66.9081 58.088 66.6708 56.8077C66.4681 55.7127 66.5448 54.9342 65.8082 54.0122C65.4152 53.5179 64.6094 53.3177 64.3771 54.0122C64.1349 54.7315 63.8853 56.6668 62.4962 56.3949C61.4729 56.1947 60.7611 55.6559 60.3607 54.7785C60.1877 54.4028 60.2667 54.0444 60.2569 53.639C60.2297 52.6652 59.7749 51.8644 59.8738 50.8658C60.0245 49.3532 60.0666 47.8331 59.9998 46.3056C59.9974 46.2241 60.0171 46.1524 60.0641 46.0857C60.3533 45.6679 60.5708 45.2206 60.7215 44.7436C60.9514 44.0119 62.076 42.8701 62.7829 42.9887C63.8334 43.1642 64.0632 44.1998 64.3672 45.0525C64.4661 45.3293 64.7701 45.4752 65.0469 45.3763C65.0716 45.3664 65.0964 45.3565 65.1211 45.3442C66.2061 44.7559 66.6881 42.6847 66.6881 41.5897C66.6881 40.779 66.9748 39.7657 66.866 39.1206C66.6387 37.7883 66.6115 35.4922 66.001 34.4219C65.6006 33.7175 64.5625 33.1491 64.12 34.1946C63.9149 34.6815 63.6603 35.1363 63.3588 35.5589C61.8758 37.6376 59.9183 34.9237 59.6241 33.6261C59.3251 32.2988 59.2287 30.712 59.3349 28.8607C59.4313 27.1924 60.1432 23.6826 61.8165 23.3959C63.4527 23.1166 64.0311 24.738 64.2881 25.9838C64.3499 26.2754 64.5971 26.4929 65.0346 26.6363C65.1038 26.6585 65.173 26.656 65.2397 26.6264C66.5818 26.0208 65.9837 23.2575 65.5759 22.2071C65.3312 21.5793 64.8863 20.9416 64.5279 20.3088C64.1744 19.6934 63.8729 19.246 63.6183 18.9692C62.5308 17.7828 61.2801 17.5258 59.8565 17.0561C58.5242 16.6162 56.7076 16.3616 55.7906 17.7482C55.7436 17.8174 55.7263 17.8916 55.7338 17.9731C55.7931 18.5416 56.0921 18.7542 56.6557 18.9074C57.7655 19.209 59.4561 19.7849 58.7516 21.3766C58.0966 22.8596 55.3161 23.2254 53.8504 23.4132C53.3338 23.48 52.6145 23.4775 51.6902 23.4058C50.3826 23.3045 48.9268 23.5319 47.7874 23.26C46.7617 23.0153 45.8224 22.558 44.9673 21.8932C43.9638 21.1121 42.9825 19.7478 44.3147 18.947C45.0142 18.5268 46.9075 19.0335 46.9396 17.9781C46.9421 17.8965 46.9149 17.8248 46.8581 17.7655V17.7631Z" fill="#EAFE01"/>
<path d="M62.3578 55.5743C62.5926 55.6831 62.8719 55.5793 62.9781 55.3445C62.9905 55.3173 63.0004 55.2901 63.0078 55.2629C63.2154 54.4275 63.5788 53.377 64.3203 52.947C65.5413 52.2376 66.9773 54.0098 67.3011 55.0083C67.4469 55.4606 67.5631 56.2837 67.6446 57.4824C67.7806 59.4597 67.6842 61.4272 67.3505 63.3823C67.1552 64.534 66.2506 66.8277 64.7726 66.7758C63.7271 66.7388 63.5022 66.0022 63.1883 65.1421C62.9139 64.3907 61.7794 63.8346 61.1195 64.4574C59.6043 65.8836 58.8011 67.3987 57.7976 69.2845C57.4194 69.9939 57.1994 70.5401 57.1352 70.9232C57.019 71.6277 57.0808 72.8734 57.7308 73.3677C57.8025 73.4196 57.8792 73.4394 57.9657 73.4221C58.8901 73.2342 59.2064 72.3123 59.8367 71.8551C61.1936 70.8713 62.3726 72.1022 62.5333 73.4147C62.6766 74.5788 61.6385 76.2002 60.9662 77.0974C60.6845 77.4706 60.2692 77.8809 59.7181 78.3234C59.0977 78.8202 58.5588 79.3441 57.8569 79.7347C56.9399 80.2438 56.1614 80.8197 55.143 81.1188C54.0703 81.4327 53.0149 81.927 51.8854 81.3585C51.0994 80.9631 50.8177 80.2166 51.1686 79.4208C51.4282 78.835 52.1202 78.7757 52.3352 78.1973C52.9482 76.5438 50.2813 76.6105 49.3693 76.7094C48.7736 76.7761 48.2249 76.6896 47.6564 76.87C46.3761 77.2754 44.987 77.5571 43.9391 78.311C43.4002 78.6991 42.8713 79.1538 42.3523 79.6778C42.0285 80.0041 42.0137 80.3328 42.3028 80.6665C43.2272 81.7268 44.337 80.8024 45.4393 81.2152C47.2313 81.8875 46.3019 83.756 45.2812 84.5321C42.6711 86.5144 38.1504 86.1189 35.2364 84.6928C33.9165 84.0477 31.6995 81.4327 34.2675 80.5627C34.9497 80.3328 35.8518 80.7209 36.6279 80.8321C36.8232 80.8617 37.016 80.7629 37.105 80.5849C37.446 79.9151 36.6675 78.9017 36.2275 78.4568C35.1449 77.3619 33.8028 76.346 32.2605 76.0247C31.6426 75.8962 26.9712 74.5788 27.7819 76.6698C28.1106 77.5176 29.0671 77.8241 29.3341 78.662C29.5343 79.2898 29.4255 79.8978 29.0078 80.4836C28.296 81.4821 26.3286 81.2424 25.3473 80.8617C23.6147 80.1919 22.2034 79.2478 20.9404 77.8809C19.5661 76.393 17.7322 74.7419 18.3007 72.4853C18.5157 71.6351 19.4722 70.9579 20.3546 71.336C21.1529 71.6771 21.4174 72.7374 22.3369 72.8412C22.4135 72.8511 22.4827 72.8289 22.542 72.777C23.8495 71.6474 23.1006 69.2574 22.7546 68.0438C22.5296 67.2504 22.0971 66.4397 21.8549 65.587C21.6942 65.0333 21.3531 64.9246 21.101 64.4747C20.8539 64.0372 20.5251 63.6887 20.1148 63.4292C19.3981 62.9744 18.3921 62.9225 18.1252 63.9112C17.9769 64.4574 17.8829 64.7664 17.8409 64.8356C17.3861 65.587 16.4074 66.0714 15.6016 65.4733C14.0222 64.3042 13.2807 59.833 13.2832 58.1003C13.2882 55.7671 13.3178 54.1877 15.0529 52.5194C15.3767 52.2079 15.7202 52.0522 16.0885 52.0522C18.3006 52.0547 17.2181 54.1037 18.6615 54.6821C19.712 55.1072 20.3299 53.157 20.5968 52.4328C20.8934 51.6271 20.7748 50.5124 20.8786 49.6424C20.9503 49.0467 20.9527 48.498 20.8909 47.9938C20.7921 47.2004 20.7031 46.407 20.624 45.6136C20.5227 44.5977 20.2656 44.2665 19.4549 43.7524C18.9581 43.436 18.5824 43.5448 18.3229 44.0812C17.8557 45.055 17.2428 47.0125 15.651 46.0609C14.4696 45.3565 13.9308 43.3397 13.7578 41.9778C13.5254 40.1611 13.4958 38.3395 13.6663 36.5179C13.8319 34.7655 13.8937 33.7076 15.043 32.6028C15.614 32.0541 16.2393 32.0245 16.919 32.5138C17.7717 33.1293 17.7297 33.5791 18.1079 34.4121C18.3674 34.983 18.7505 35.2079 19.2597 35.0843C19.8405 34.9459 20.5325 33.8362 20.797 33.2504C21.2246 32.2889 21.2666 30.9122 21.3902 29.8618C21.494 28.9868 21.5163 28.2379 21.4594 27.6126C21.363 26.5621 20.7649 22.9733 19.0743 24.1448C18.6294 24.4538 18.397 24.7603 18.3748 25.0618C18.2908 26.2581 17.8014 27.8498 16.1973 27.3283C13.6292 26.4978 14.5017 22.3826 15.7326 20.865C16.4939 19.9233 17.0871 19.1224 18.1128 18.3241C18.8296 17.7655 19.2918 17.0561 20.0728 16.6706C21.3877 16.023 23.8124 15.4125 25.1001 16.4012C25.6464 16.8238 25.9974 17.3107 26.1531 17.8619C26.4422 18.9 24.6998 19.3548 23.9756 19.5995C23.6048 19.7255 23.328 19.9628 23.1476 20.3138C22.4506 21.6633 26.4398 22.4048 27.0033 22.4172C27.5051 22.427 27.9252 22.4444 28.2589 22.4715C29.5985 22.5778 30.8764 22.5828 32.2061 22.212C32.8315 22.0365 35.2117 21.6065 35.2388 20.6277C35.2463 20.4077 35.1153 20.2817 34.8483 20.2446C33.5903 20.0716 32.6634 19.9801 32.2803 18.5416C32.1864 18.1832 32.2408 17.8767 32.4459 17.6246C33.8103 15.9489 37.1396 15.3853 39.1515 15.4496C39.5914 15.4644 39.9943 15.3211 40.4095 15.3384C41.46 15.3779 42.5129 15.4125 43.5634 15.4422C44.725 15.4768 46.5713 15.9884 47.4661 16.9252C48.042 17.5258 48.1829 18.4625 47.5477 19.0656C46.863 19.7181 46.0919 19.4388 45.2021 19.4833C44.9623 19.4932 44.772 19.6835 44.7596 19.9233C44.6978 21.0602 46.3168 21.6831 47.2066 22.0217C47.7059 22.212 48.299 22.3158 48.9837 22.3282C50.2071 22.3504 51.4282 22.3826 52.6467 22.4295C53.8528 22.4765 57.3107 22.2046 57.9311 20.9539C57.9657 20.8823 57.9706 20.8106 57.9483 20.7364C57.8223 20.3286 57.6444 20.0938 57.4095 20.032C56.2652 19.728 55.3037 19.4438 54.8341 18.2252C54.5498 17.4887 55.1331 16.7867 55.7189 16.4308C56.8732 15.7264 57.9904 15.5262 59.0754 15.8277C60.3508 16.1812 61.945 16.5223 62.8126 17.2069C64.0879 18.2129 65.1211 19.4141 65.9095 20.8106C66.6288 22.0835 68.1167 27.8696 64.8863 27.3679C63.3118 27.1232 63.5565 25.7242 63.0919 24.8418C62.5629 23.8384 61.5199 24.2091 61.117 25.0915C60.3904 26.6783 60.2322 28.3046 60.2692 30.0298C60.3038 31.6933 60.3879 34.0438 61.7102 35.1783C61.9277 35.3636 62.2466 35.3686 62.469 35.1882C63.5961 34.2712 63.1932 32.3952 65.3312 32.8228C67.5383 33.2652 67.7287 38.955 67.6026 40.5887C67.526 41.6194 67.6471 42.6649 67.2838 43.5967C67.0045 44.3184 65.9862 46.5306 64.995 46.3724C63.8111 46.1821 63.5615 45.5098 63.1883 44.4865C63.1586 44.4099 63.1067 44.3456 63.0375 44.3061C62.3059 43.8661 61.8288 44.353 61.5743 45.0377C60.8773 46.9087 60.6425 48.849 60.8699 50.8584C61.0256 52.2252 61.1714 53.5945 61.3123 54.9712C61.3197 55.0528 61.3691 55.122 61.4433 55.1566L62.3578 55.5743ZM46.8581 17.7631C45.8249 16.6904 44.7053 16.4654 43.2865 16.2702C42.508 16.1614 41.6923 16.2726 40.894 16.2158C40.2687 16.1688 39.7348 16.4308 39.238 16.4308C37.3941 16.4259 35.6467 16.8164 33.9931 17.6024C33.3975 17.8866 32.9353 18.8506 33.872 19.0532C34.3317 19.1521 34.7841 19.2732 35.2289 19.419C37.2359 20.0691 35.8889 21.8512 34.7322 22.3282C33.7114 22.7484 32.562 23.1389 31.2793 23.4973C30.3178 23.7691 29.3514 23.5665 28.3553 23.5492C27.6064 23.5343 26.9242 23.3341 26.1803 23.2303C24.4625 22.9931 22.7743 22.3307 22.0551 20.6326C21.9982 20.4967 22.0155 20.3434 22.102 20.2248L23.15 18.7962C23.2044 18.722 23.286 18.6726 23.3774 18.6578C23.8495 18.5812 24.287 18.4353 24.6923 18.2178C24.8827 18.114 24.9518 17.8767 24.848 17.6889C24.5045 17.071 23.3997 16.8535 22.6779 16.8535C20.8539 16.856 19.1484 18.6553 17.9225 19.7206C17.0574 20.4695 16.5038 21.5249 15.9328 22.5061C15.6412 23.0079 15.4706 23.48 15.4212 23.9273C15.3025 25.0149 15.6535 26.3743 16.8696 26.4558C17.1933 26.4781 17.4726 26.2334 17.4924 25.9096C17.4924 25.8799 17.4924 25.8503 17.4924 25.8206C17.3812 24.5181 17.9077 23.6159 19.0718 23.1142C19.8701 22.7706 20.4905 22.8942 20.9379 23.4899C22.3195 25.3288 22.5741 27.4395 22.3863 29.8024C22.2924 30.9765 22.3517 32.6028 21.7956 33.6533C21.4495 34.3107 20.5746 35.68 20.0283 35.9222C18.5997 36.5575 17.4974 35.3216 17.0525 34.0809C16.9066 33.678 16.7831 33.4234 16.6768 33.3196C16.1701 32.8228 15.4632 33.3196 15.1839 33.7966C14.9293 34.2391 14.7761 34.7186 14.7266 35.2302C14.5734 36.8343 14.4894 38.295 14.6031 39.998C14.6698 40.9891 14.5734 42.0272 14.8379 42.9887C15.0331 43.7055 15.5917 44.3629 15.9995 44.9907C16.1923 45.2848 16.4271 45.3738 16.7015 45.2527C16.8424 45.1934 16.9487 45.0772 16.9981 44.9339C17.4751 43.5745 18.3402 42.1038 20.0654 42.9541C20.8539 43.3421 21.3927 43.96 21.6868 44.8078C21.8747 45.3516 21.7659 45.9176 21.7412 46.5034C21.7362 46.5998 21.761 46.6863 21.8153 46.7654L22.0699 47.1386C22.1218 47.2127 22.1367 47.2943 22.1194 47.3808C21.9982 48.0012 22.0007 48.6142 22.1243 49.2247C22.3047 50.1095 22.0996 50.7249 21.8351 51.5183C21.6571 52.0572 21.8771 52.4922 21.6151 53.0137C21.1282 53.9875 20.5795 55.4779 19.2053 55.604C18.7604 55.6435 18.3427 55.7028 18.0411 55.4433C17.2848 54.7908 17.1118 53.9826 16.7386 53.1125C16.6768 52.9692 16.5359 52.8777 16.3802 52.8802C14.3287 52.9173 14.1582 57.1883 14.3164 58.4637C14.519 60.1123 14.8156 61.7411 15.2037 63.3526C15.3396 63.9062 16.049 65.3497 16.8004 64.801C17.4331 64.3388 17.0277 63.3823 17.663 62.8212C18.9507 61.6818 20.9972 62.3615 21.9488 63.5775C22.4431 64.2078 22.6235 65.3324 22.9646 66.1035C23.7976 67.982 24.4575 69.8926 23.9582 71.8748C23.6913 72.9327 23.4664 73.7656 22.1787 73.5061C21.2864 73.3282 20.8786 72.7795 20.3225 72.2258C20.1025 72.0058 19.8776 72.0009 19.6477 72.206C18.3624 73.3578 20.1321 75.9407 20.9404 76.9219C21.7288 77.8809 23.323 79.1538 24.3438 79.7075C25.1916 80.1697 26.2841 80.4144 27.6163 80.4366C28.6667 80.4564 28.7631 79.0624 28.2861 78.4395C27.987 78.049 26.9341 77.2309 26.7982 76.4919C26.7883 76.4375 26.7932 76.3807 26.813 76.3263C27.2159 75.2734 27.6361 74.6505 28.6692 74.5788C30.5131 74.4503 33.2418 75.1028 34.7791 76.0495C35.9383 76.7613 37.9107 78.5928 37.9972 80.0634C38.0293 80.6072 37.3818 81.9764 36.7021 81.7046C35.7184 81.3091 34.4158 80.837 34.0772 82.0135C33.5606 83.8005 37.7006 84.7398 38.9191 84.9004C39.7372 85.0092 40.59 84.94 41.4402 84.9326C42.2855 84.9276 42.9109 84.8658 43.3187 84.7472C44.159 84.505 46.5318 83.0912 45.3874 82.0284C45.3331 81.9765 45.2688 81.9517 45.1922 81.9517C44.2703 81.9468 42.8886 82.236 42.1372 81.7763C41.2647 81.2399 40.9928 80.5182 41.3191 79.6061C41.4526 79.2304 41.7936 78.9956 42.0878 78.7386C42.9331 78.002 43.3582 77.2334 44.4878 76.8774C45.8645 76.4449 46.8408 76.1261 47.4191 75.9259C48 75.7232 48.4449 75.7899 49.0356 75.738C49.9229 75.6614 51.5171 75.6392 52.2833 76.0791C52.6837 76.309 53.0372 76.5734 53.3461 76.8725C53.5093 77.0282 53.5884 77.2556 53.5562 77.4805C53.4549 78.2023 52.9532 78.7707 52.3896 79.4109C51.9917 79.8632 51.7124 80.3155 52.4316 80.6615C53.3808 81.1163 54.0703 80.3946 54.9403 80.1573C55.3976 80.0313 55.7733 79.878 56.0674 79.6951C57.6468 78.7213 58.8505 78.1454 60.3038 76.5586C60.9069 75.8987 62.0661 74.1315 61.7918 73.2071C61.6336 72.6707 60.9415 72.0528 60.4027 72.3889C60.3236 72.4384 60.1605 72.6485 59.9109 73.0167C59.5895 73.4938 59.1718 73.8398 58.6552 74.0598C57.1327 74.7049 56.0328 73.3405 56.0946 71.8724C56.1613 70.2287 56.7743 68.7927 57.6715 67.3715C57.983 66.8747 58.4526 66.3507 58.8184 65.8144C59.3399 65.0531 60.3656 63.664 61.1862 63.3378C62.1625 62.9522 63.7913 63.2191 64.0236 64.3932C64.1027 64.7861 64.1917 65.1742 64.2906 65.5548C64.4488 66.1629 65.0024 66.1184 65.3213 65.6957C66.5324 64.0867 66.3816 62.836 66.693 60.9897C66.9155 59.6822 66.9081 58.088 66.6708 56.8077C66.4681 55.7127 66.5448 54.9342 65.8082 54.0122C65.4152 53.5179 64.6094 53.3177 64.3771 54.0122C64.1349 54.7315 63.8853 56.6668 62.4962 56.3949C61.4729 56.1947 60.7611 55.6559 60.3607 54.7785C60.1877 54.4028 60.2667 54.0444 60.2569 53.639C60.2297 52.6652 59.7749 51.8644 59.8738 50.8658C60.0245 49.3532 60.0666 47.8331 59.9998 46.3056C59.9974 46.2241 60.0171 46.1524 60.0641 46.0857C60.3533 45.6679 60.5708 45.2206 60.7215 44.7436C60.9514 44.0119 62.076 42.8701 62.7829 42.9887C63.8334 43.1642 64.0632 44.1998 64.3672 45.0525C64.4661 45.3293 64.7701 45.4752 65.0469 45.3763C65.0716 45.3664 65.0964 45.3565 65.1211 45.3442C66.2061 44.7559 66.6881 42.6847 66.6881 41.5897C66.6881 40.779 66.9748 39.7657 66.866 39.1206C66.6387 37.7883 66.6115 35.4922 66.001 34.4219C65.6006 33.7175 64.5625 33.1491 64.12 34.1946C63.9149 34.6815 63.6603 35.1363 63.3588 35.5589C61.8758 37.6376 59.9183 34.9237 59.6241 33.6261C59.3251 32.2988 59.2287 30.712 59.3349 28.8607C59.4313 27.1924 60.1432 23.6826 61.8165 23.3959C63.4527 23.1166 64.0311 24.738 64.2881 25.9838C64.3499 26.2754 64.5971 26.4929 65.0346 26.6363C65.1038 26.6585 65.173 26.656 65.2397 26.6264C66.5818 26.0208 65.9837 23.2575 65.5759 22.2071C65.3312 21.5793 64.8863 20.9416 64.5279 20.3088C64.1744 19.6934 63.8729 19.246 63.6183 18.9692C62.5308 17.7828 61.2801 17.5258 59.8565 17.0561C58.5242 16.6162 56.7076 16.3616 55.7906 17.7482C55.7436 17.8174 55.7263 17.8916 55.7338 17.9731C55.7931 18.5416 56.0921 18.7542 56.6557 18.9074C57.7655 19.209 59.4561 19.7849 58.7516 21.3766C58.0966 22.8596 55.3161 23.2254 53.8504 23.4132C53.3338 23.48 52.6145 23.4775 51.6902 23.4058C50.3826 23.3045 48.9268 23.5319 47.7874 23.26C46.7617 23.0153 45.8224 22.558 44.9673 21.8932C43.9638 21.1121 42.9825 19.7478 44.3147 18.947C45.0142 18.5268 46.9075 19.0335 46.9396 17.9781C46.9421 17.8965 46.9149 17.8248 46.8581 17.7655V17.7631Z" stroke="#EAFE01" stroke-width="6" mask="url(#path-2-outside-2_192_348)"/>
</svg>
