<svg width="82" height="103" viewBox="0 0 82 103" fill="none" xmlns="http://www.w3.org/2000/svg">
<mask id="path-1-outside-1_192_336" maskUnits="userSpaceOnUse" x="0.865234" y="2.2002" width="80" height="99" fill="black">
<rect fill="white" x="0.865234" y="2.2002" width="80" height="99"/>
<path d="M74.5695 5.7021C74.9996 5.26956 76.4505 5.34618 77.0511 5.32146C77.4144 5.30663 77.7234 5.5884 77.7382 5.95173C77.7382 5.96162 77.7382 5.97398 77.7382 5.98387C77.711 10.6874 77.7209 15.3415 77.7703 19.9462C77.8173 24.6596 77.7802 31.5283 77.6566 40.5523C77.6171 43.3923 77.6566 47.4878 77.5775 51.1186C77.491 55.0757 77.4614 59.0353 77.4836 62.9924C77.491 64.426 77.2982 65.9189 77.2265 67.3895C77.1104 69.7969 76.2503 71.7495 75.4445 73.9641C75.2023 74.6339 74.9008 75.279 74.5374 75.9043C73.9022 76.9993 73.3634 78.0967 72.6145 79.157C72.1918 79.7527 71.8186 80.4052 71.3638 80.944C70.301 82.1971 69.2036 83.4157 68.0691 84.6045C66.5342 86.2136 64.5618 87.5433 62.6784 88.8434C62.0976 89.2438 61.3734 89.6665 60.5083 90.1089C59.1267 90.8158 57.9032 91.6388 56.3288 92.1035C55.6639 92.2988 55.0979 92.4891 54.6357 92.672C50.4215 94.328 46.1678 95.8678 41.8696 97.2915C41.5236 97.4077 41.2567 97.6177 40.8933 97.7735C40.8118 97.8056 40.7327 97.8081 40.6511 97.7784C39.3708 97.2915 38.0855 96.8318 36.7953 96.3943C35.8808 96.0853 34.9194 95.633 33.9554 95.3018C32.8407 94.9187 31.637 94.4244 30.3295 93.9844C28.7946 93.4679 26.5009 92.2864 24.3432 91.4633C22.5586 90.7836 20.8829 89.8419 19.1799 88.9892C18.5546 88.6778 17.949 88.2873 17.3632 87.8201C16.2164 86.9056 14.9633 86.0826 13.9697 85.0766C9.88157 80.9218 6.76976 76.4506 5.30654 70.7608C4.41428 67.2956 3.89772 63.6178 3.90514 59.9721C3.90761 58.7115 3.83097 57.5202 3.92242 56.1855C3.9595 55.6269 3.9669 55.0906 3.94466 54.5789C3.87051 52.918 3.84829 51.257 3.87795 49.5936C3.91008 47.8042 3.86311 45.6785 3.9249 43.5801C4.0905 38.009 3.97186 33.8937 3.95208 29.3063C3.93231 24.6176 3.95208 19.18 4.00893 12.9935C4.01387 12.2124 4.12759 11.4783 4.09298 10.769C4.04849 9.84705 4.03613 8.9276 4.05343 8.00815C4.06826 7.25677 3.92242 6.31507 4.01387 5.45493C4.03117 5.30663 4.15724 5.19541 4.30554 5.20035C5.98132 5.24732 7.61261 5.46976 9.31558 5.32888C10.0694 5.26462 10.8183 5.30169 11.5672 5.43763C12.3557 5.58346 12.9662 5.33135 13.7275 5.37337C14.3577 5.40797 14.9855 5.39314 15.6133 5.32888C15.7246 5.31652 15.8383 5.35854 15.9544 5.45246C16.0063 5.49201 16.0113 5.53897 15.9742 5.59087L15.9346 5.64278C15.9173 5.6675 15.9149 5.69221 15.9322 5.71693C15.9939 5.81332 16.078 5.85287 16.1818 5.8331C16.2337 5.82568 16.2906 5.78613 16.3573 5.71693C16.6069 5.45741 16.9381 5.35112 17.346 5.40056C18.2877 5.51672 19.3777 5.51425 20.6184 5.39561C21.8617 5.2745 23.142 5.63289 24.3753 5.55133C26.0783 5.4401 27.9024 5.24732 29.5831 5.5884C30.0132 5.67738 30.3814 5.56121 30.8164 5.5365C33.9777 5.35112 37.1438 5.2918 40.31 5.36348C40.7475 5.3709 41.5854 5.36101 42.8187 5.32888C43.9409 5.29922 45.1273 5.40797 46.1753 5.38326C49.2203 5.30911 52.2555 5.38326 55.3006 5.34371C56.3214 5.33135 57.3421 5.48707 58.3234 5.44258C61.6675 5.28192 65.0265 5.55133 68.3657 5.4055C68.9614 5.38078 69.4681 5.37831 69.8858 5.39809C71.0746 5.45493 72.2635 5.44999 73.4524 5.38326C73.8182 5.36348 74.1074 5.46729 74.3174 5.69716C74.3842 5.76883 74.4954 5.7713 74.5646 5.70704C74.5646 5.70704 74.5671 5.70457 74.5695 5.7021ZM9.05357 6.22856C9.05357 6.0679 8.83608 5.94185 8.57408 5.94679C8.31209 5.94926 8.10199 6.08273 8.10446 6.24339C8.10446 6.40405 8.32195 6.5301 8.58395 6.52516C8.84594 6.52269 9.05604 6.38922 9.05357 6.22856ZM76.9077 6.30024C76.8756 6.1816 76.6507 6.13711 76.406 6.20384C76.1613 6.27058 75.9883 6.42135 76.0229 6.54246C76.055 6.6611 76.2799 6.70559 76.5246 6.63885C76.7693 6.57212 76.9423 6.42135 76.9077 6.30024ZM75.9883 6.85883C73.6748 6.89343 71.3465 6.73772 69.0627 6.80693C67.2238 6.8613 65.9435 6.75255 64.4457 6.8094C61.9444 6.90085 59.4406 6.77479 56.9368 6.8094C54.831 6.83906 52.6905 6.75996 50.5649 6.77727C45.7822 6.81681 41.0021 6.72783 36.217 6.74761C35.5595 6.75008 34.6821 6.59436 33.8714 6.70312C33.3647 6.77232 32.9322 6.78962 32.5738 6.75749C30.8906 6.60425 29.2667 6.83906 27.6033 6.79457C26.5158 6.76738 25.4529 6.90579 24.3407 6.78468C23.9724 6.74266 23.5918 6.74266 23.1963 6.78468C21.7652 6.93051 20.2254 6.75255 18.9377 6.81187C17.1309 6.89838 15.3242 6.91815 13.5174 6.87119C12.3335 6.84153 11.0457 7.00466 9.79754 6.98241C8.52464 6.96264 7.33331 6.99477 6.10243 6.90085C6.02334 6.89343 5.97884 6.93051 5.97143 7.0096C5.80583 8.78672 5.75392 10.3389 5.81571 11.6687C5.87503 13.0454 5.76875 14.3479 5.84785 15.6604C5.91705 16.8196 5.8429 18.0752 5.87998 19.1108C5.9739 21.6838 5.77123 23.4411 5.88245 25.6013C5.91458 26.2464 5.76876 26.9014 5.791 27.5787C5.81819 28.5154 5.833 29.0122 5.83053 29.0641C5.74402 31.9856 5.76874 34.9145 5.65258 37.8335C5.6155 38.7851 5.60069 39.6502 5.6081 40.4288C5.64024 43.2662 5.61551 46.1037 5.53394 48.9411C5.5117 49.6777 5.52898 50.5131 5.58089 51.4449C5.91703 57.4065 5.29915 62.1026 6.09996 67.4068C6.31499 68.8329 6.79943 70.2146 7.20725 71.6234C7.93392 74.1272 9.02884 76.458 10.4945 78.6157C11.4931 80.0839 12.4323 81.5446 13.6434 82.815C14.9311 84.1695 16.0014 85.1409 16.8492 85.7291C18.9328 87.175 20.569 88.4702 23.1963 89.5033C25.3986 90.3709 27.6008 91.2409 29.803 92.1134C30.1565 92.2543 30.3295 92.5212 30.7398 92.6102C31.7878 92.8401 32.8086 93.1638 33.7997 93.5791C34.3138 93.7941 34.8477 93.7422 35.2629 93.8658C36.3801 94.1945 38.0732 94.7852 40.3446 95.638C40.4212 95.6651 40.5004 95.6701 40.5819 95.6503C41.9932 95.2796 43.4243 94.9854 44.7985 94.5307C49.7196 92.8944 54.6184 91.4559 59.1316 89.0362C61.7788 87.6175 64.196 86.174 66.5021 84.1522C66.9692 83.7444 67.9505 82.7211 69.4433 81.0824C69.9772 80.4942 70.385 79.8021 70.867 79.1496C74.0777 74.7945 76.0674 68.7118 76.2774 63.6029C76.3541 61.806 76.3615 58.1183 76.3022 52.5423C76.2404 46.8971 76.49 41.667 76.3763 36.227C76.3022 32.6183 76.3887 29.0419 76.3244 25.4432C76.2997 24.101 76.3961 22.4055 76.3269 20.883C76.2997 20.2997 76.3714 19.5137 76.3071 18.7425C76.2404 17.9244 76.2453 16.1003 76.3269 13.2728C76.3541 12.3212 76.2898 11.3869 76.2453 10.4402C76.2231 9.93356 76.3392 9.36014 76.2774 8.79166C76.2107 8.18858 76.2972 7.65964 76.233 7.07881C76.2157 6.93298 76.1341 6.85883 75.9883 6.8613V6.85883ZM73.2027 77.0833C73.2695 77.113 73.4153 76.935 73.5265 76.6854C73.6377 76.4357 73.6723 76.2083 73.6056 76.1787C73.5389 76.149 73.393 76.327 73.2818 76.5766C73.1706 76.8262 73.136 77.0536 73.2027 77.0833ZM32.5688 93.8905C32.5787 93.8015 32.4724 93.715 32.3291 93.6977C32.1857 93.6804 32.0597 93.7373 32.0498 93.8287C32.0399 93.9177 32.1462 94.0042 32.2895 94.0215C32.4329 94.0388 32.5589 93.982 32.5688 93.8905ZM35.0009 94.716C35.0924 94.6369 35.0875 94.4812 34.9911 94.3725C34.8947 94.2637 34.7414 94.239 34.6524 94.3181C34.561 94.3972 34.5659 94.5529 34.6623 94.6617C34.7587 94.7704 34.9119 94.7951 35.0009 94.716Z"/>
</mask>
<path d="M74.5695 5.7021C74.9996 5.26956 76.4505 5.34618 77.0511 5.32146C77.4144 5.30663 77.7234 5.5884 77.7382 5.95173C77.7382 5.96162 77.7382 5.97398 77.7382 5.98387C77.711 10.6874 77.7209 15.3415 77.7703 19.9462C77.8173 24.6596 77.7802 31.5283 77.6566 40.5523C77.6171 43.3923 77.6566 47.4878 77.5775 51.1186C77.491 55.0757 77.4614 59.0353 77.4836 62.9924C77.491 64.426 77.2982 65.9189 77.2265 67.3895C77.1104 69.7969 76.2503 71.7495 75.4445 73.9641C75.2023 74.6339 74.9008 75.279 74.5374 75.9043C73.9022 76.9993 73.3634 78.0967 72.6145 79.157C72.1918 79.7527 71.8186 80.4052 71.3638 80.944C70.301 82.1971 69.2036 83.4157 68.0691 84.6045C66.5342 86.2136 64.5618 87.5433 62.6784 88.8434C62.0976 89.2438 61.3734 89.6665 60.5083 90.1089C59.1267 90.8158 57.9032 91.6388 56.3288 92.1035C55.6639 92.2988 55.0979 92.4891 54.6357 92.672C50.4215 94.328 46.1678 95.8678 41.8696 97.2915C41.5236 97.4077 41.2567 97.6177 40.8933 97.7735C40.8118 97.8056 40.7327 97.8081 40.6511 97.7784C39.3708 97.2915 38.0855 96.8318 36.7953 96.3943C35.8808 96.0853 34.9194 95.633 33.9554 95.3018C32.8407 94.9187 31.637 94.4244 30.3295 93.9844C28.7946 93.4679 26.5009 92.2864 24.3432 91.4633C22.5586 90.7836 20.8829 89.8419 19.1799 88.9892C18.5546 88.6778 17.949 88.2873 17.3632 87.8201C16.2164 86.9056 14.9633 86.0826 13.9697 85.0766C9.88157 80.9218 6.76976 76.4506 5.30654 70.7608C4.41428 67.2956 3.89772 63.6178 3.90514 59.9721C3.90761 58.7115 3.83097 57.5202 3.92242 56.1855C3.9595 55.6269 3.9669 55.0906 3.94466 54.5789C3.87051 52.918 3.84829 51.257 3.87795 49.5936C3.91008 47.8042 3.86311 45.6785 3.9249 43.5801C4.0905 38.009 3.97186 33.8937 3.95208 29.3063C3.93231 24.6176 3.95208 19.18 4.00893 12.9935C4.01387 12.2124 4.12759 11.4783 4.09298 10.769C4.04849 9.84705 4.03613 8.9276 4.05343 8.00815C4.06826 7.25677 3.92242 6.31507 4.01387 5.45493C4.03117 5.30663 4.15724 5.19541 4.30554 5.20035C5.98132 5.24732 7.61261 5.46976 9.31558 5.32888C10.0694 5.26462 10.8183 5.30169 11.5672 5.43763C12.3557 5.58346 12.9662 5.33135 13.7275 5.37337C14.3577 5.40797 14.9855 5.39314 15.6133 5.32888C15.7246 5.31652 15.8383 5.35854 15.9544 5.45246C16.0063 5.49201 16.0113 5.53897 15.9742 5.59087L15.9346 5.64278C15.9173 5.6675 15.9149 5.69221 15.9322 5.71693C15.9939 5.81332 16.078 5.85287 16.1818 5.8331C16.2337 5.82568 16.2906 5.78613 16.3573 5.71693C16.6069 5.45741 16.9381 5.35112 17.346 5.40056C18.2877 5.51672 19.3777 5.51425 20.6184 5.39561C21.8617 5.2745 23.142 5.63289 24.3753 5.55133C26.0783 5.4401 27.9024 5.24732 29.5831 5.5884C30.0132 5.67738 30.3814 5.56121 30.8164 5.5365C33.9777 5.35112 37.1438 5.2918 40.31 5.36348C40.7475 5.3709 41.5854 5.36101 42.8187 5.32888C43.9409 5.29922 45.1273 5.40797 46.1753 5.38326C49.2203 5.30911 52.2555 5.38326 55.3006 5.34371C56.3214 5.33135 57.3421 5.48707 58.3234 5.44258C61.6675 5.28192 65.0265 5.55133 68.3657 5.4055C68.9614 5.38078 69.4681 5.37831 69.8858 5.39809C71.0746 5.45493 72.2635 5.44999 73.4524 5.38326C73.8182 5.36348 74.1074 5.46729 74.3174 5.69716C74.3842 5.76883 74.4954 5.7713 74.5646 5.70704C74.5646 5.70704 74.5671 5.70457 74.5695 5.7021ZM9.05357 6.22856C9.05357 6.0679 8.83608 5.94185 8.57408 5.94679C8.31209 5.94926 8.10199 6.08273 8.10446 6.24339C8.10446 6.40405 8.32195 6.5301 8.58395 6.52516C8.84594 6.52269 9.05604 6.38922 9.05357 6.22856ZM76.9077 6.30024C76.8756 6.1816 76.6507 6.13711 76.406 6.20384C76.1613 6.27058 75.9883 6.42135 76.0229 6.54246C76.055 6.6611 76.2799 6.70559 76.5246 6.63885C76.7693 6.57212 76.9423 6.42135 76.9077 6.30024ZM75.9883 6.85883C73.6748 6.89343 71.3465 6.73772 69.0627 6.80693C67.2238 6.8613 65.9435 6.75255 64.4457 6.8094C61.9444 6.90085 59.4406 6.77479 56.9368 6.8094C54.831 6.83906 52.6905 6.75996 50.5649 6.77727C45.7822 6.81681 41.0021 6.72783 36.217 6.74761C35.5595 6.75008 34.6821 6.59436 33.8714 6.70312C33.3647 6.77232 32.9322 6.78962 32.5738 6.75749C30.8906 6.60425 29.2667 6.83906 27.6033 6.79457C26.5158 6.76738 25.4529 6.90579 24.3407 6.78468C23.9724 6.74266 23.5918 6.74266 23.1963 6.78468C21.7652 6.93051 20.2254 6.75255 18.9377 6.81187C17.1309 6.89838 15.3242 6.91815 13.5174 6.87119C12.3335 6.84153 11.0457 7.00466 9.79754 6.98241C8.52464 6.96264 7.33331 6.99477 6.10243 6.90085C6.02334 6.89343 5.97884 6.93051 5.97143 7.0096C5.80583 8.78672 5.75392 10.3389 5.81571 11.6687C5.87503 13.0454 5.76875 14.3479 5.84785 15.6604C5.91705 16.8196 5.8429 18.0752 5.87998 19.1108C5.9739 21.6838 5.77123 23.4411 5.88245 25.6013C5.91458 26.2464 5.76876 26.9014 5.791 27.5787C5.81819 28.5154 5.833 29.0122 5.83053 29.0641C5.74402 31.9856 5.76874 34.9145 5.65258 37.8335C5.6155 38.7851 5.60069 39.6502 5.6081 40.4288C5.64024 43.2662 5.61551 46.1037 5.53394 48.9411C5.5117 49.6777 5.52898 50.5131 5.58089 51.4449C5.91703 57.4065 5.29915 62.1026 6.09996 67.4068C6.31499 68.8329 6.79943 70.2146 7.20725 71.6234C7.93392 74.1272 9.02884 76.458 10.4945 78.6157C11.4931 80.0839 12.4323 81.5446 13.6434 82.815C14.9311 84.1695 16.0014 85.1409 16.8492 85.7291C18.9328 87.175 20.569 88.4702 23.1963 89.5033C25.3986 90.3709 27.6008 91.2409 29.803 92.1134C30.1565 92.2543 30.3295 92.5212 30.7398 92.6102C31.7878 92.8401 32.8086 93.1638 33.7997 93.5791C34.3138 93.7941 34.8477 93.7422 35.2629 93.8658C36.3801 94.1945 38.0732 94.7852 40.3446 95.638C40.4212 95.6651 40.5004 95.6701 40.5819 95.6503C41.9932 95.2796 43.4243 94.9854 44.7985 94.5307C49.7196 92.8944 54.6184 91.4559 59.1316 89.0362C61.7788 87.6175 64.196 86.174 66.5021 84.1522C66.9692 83.7444 67.9505 82.7211 69.4433 81.0824C69.9772 80.4942 70.385 79.8021 70.867 79.1496C74.0777 74.7945 76.0674 68.7118 76.2774 63.6029C76.3541 61.806 76.3615 58.1183 76.3022 52.5423C76.2404 46.8971 76.49 41.667 76.3763 36.227C76.3022 32.6183 76.3887 29.0419 76.3244 25.4432C76.2997 24.101 76.3961 22.4055 76.3269 20.883C76.2997 20.2997 76.3714 19.5137 76.3071 18.7425C76.2404 17.9244 76.2453 16.1003 76.3269 13.2728C76.3541 12.3212 76.2898 11.3869 76.2453 10.4402C76.2231 9.93356 76.3392 9.36014 76.2774 8.79166C76.2107 8.18858 76.2972 7.65964 76.233 7.07881C76.2157 6.93298 76.1341 6.85883 75.9883 6.8613V6.85883ZM73.2027 77.0833C73.2695 77.113 73.4153 76.935 73.5265 76.6854C73.6377 76.4357 73.6723 76.2083 73.6056 76.1787C73.5389 76.149 73.393 76.327 73.2818 76.5766C73.1706 76.8262 73.136 77.0536 73.2027 77.0833ZM32.5688 93.8905C32.5787 93.8015 32.4724 93.715 32.3291 93.6977C32.1857 93.6804 32.0597 93.7373 32.0498 93.8287C32.0399 93.9177 32.1462 94.0042 32.2895 94.0215C32.4329 94.0388 32.5589 93.982 32.5688 93.8905ZM35.0009 94.716C35.0924 94.6369 35.0875 94.4812 34.9911 94.3725C34.8947 94.2637 34.7414 94.239 34.6524 94.3181C34.561 94.3972 34.5659 94.5529 34.6623 94.6617C34.7587 94.7704 34.9119 94.7951 35.0009 94.716Z" fill="#EAFE01"/>
<path d="M74.5695 5.7021C74.9996 5.26956 76.4505 5.34618 77.0511 5.32146C77.4144 5.30663 77.7234 5.5884 77.7382 5.95173C77.7382 5.96162 77.7382 5.97398 77.7382 5.98387C77.711 10.6874 77.7209 15.3415 77.7703 19.9462C77.8173 24.6596 77.7802 31.5283 77.6566 40.5523C77.6171 43.3923 77.6566 47.4878 77.5775 51.1186C77.491 55.0757 77.4614 59.0353 77.4836 62.9924C77.491 64.426 77.2982 65.9189 77.2265 67.3895C77.1104 69.7969 76.2503 71.7495 75.4445 73.9641C75.2023 74.6339 74.9008 75.279 74.5374 75.9043C73.9022 76.9993 73.3634 78.0967 72.6145 79.157C72.1918 79.7527 71.8186 80.4052 71.3638 80.944C70.301 82.1971 69.2036 83.4157 68.0691 84.6045C66.5342 86.2136 64.5618 87.5433 62.6784 88.8434C62.0976 89.2438 61.3734 89.6665 60.5083 90.1089C59.1267 90.8158 57.9032 91.6388 56.3288 92.1035C55.6639 92.2988 55.0979 92.4891 54.6357 92.672C50.4215 94.328 46.1678 95.8678 41.8696 97.2915C41.5236 97.4077 41.2567 97.6177 40.8933 97.7735C40.8118 97.8056 40.7327 97.8081 40.6511 97.7784C39.3708 97.2915 38.0855 96.8318 36.7953 96.3943C35.8808 96.0853 34.9194 95.633 33.9554 95.3018C32.8407 94.9187 31.637 94.4244 30.3295 93.9844C28.7946 93.4679 26.5009 92.2864 24.3432 91.4633C22.5586 90.7836 20.8829 89.8419 19.1799 88.9892C18.5546 88.6778 17.949 88.2873 17.3632 87.8201C16.2164 86.9056 14.9633 86.0826 13.9697 85.0766C9.88157 80.9218 6.76976 76.4506 5.30654 70.7608C4.41428 67.2956 3.89772 63.6178 3.90514 59.9721C3.90761 58.7115 3.83097 57.5202 3.92242 56.1855C3.9595 55.6269 3.9669 55.0906 3.94466 54.5789C3.87051 52.918 3.84829 51.257 3.87795 49.5936C3.91008 47.8042 3.86311 45.6785 3.9249 43.5801C4.0905 38.009 3.97186 33.8937 3.95208 29.3063C3.93231 24.6176 3.95208 19.18 4.00893 12.9935C4.01387 12.2124 4.12759 11.4783 4.09298 10.769C4.04849 9.84705 4.03613 8.9276 4.05343 8.00815C4.06826 7.25677 3.92242 6.31507 4.01387 5.45493C4.03117 5.30663 4.15724 5.19541 4.30554 5.20035C5.98132 5.24732 7.61261 5.46976 9.31558 5.32888C10.0694 5.26462 10.8183 5.30169 11.5672 5.43763C12.3557 5.58346 12.9662 5.33135 13.7275 5.37337C14.3577 5.40797 14.9855 5.39314 15.6133 5.32888C15.7246 5.31652 15.8383 5.35854 15.9544 5.45246C16.0063 5.49201 16.0113 5.53897 15.9742 5.59087L15.9346 5.64278C15.9173 5.6675 15.9149 5.69221 15.9322 5.71693C15.9939 5.81332 16.078 5.85287 16.1818 5.8331C16.2337 5.82568 16.2906 5.78613 16.3573 5.71693C16.6069 5.45741 16.9381 5.35112 17.346 5.40056C18.2877 5.51672 19.3777 5.51425 20.6184 5.39561C21.8617 5.2745 23.142 5.63289 24.3753 5.55133C26.0783 5.4401 27.9024 5.24732 29.5831 5.5884C30.0132 5.67738 30.3814 5.56121 30.8164 5.5365C33.9777 5.35112 37.1438 5.2918 40.31 5.36348C40.7475 5.3709 41.5854 5.36101 42.8187 5.32888C43.9409 5.29922 45.1273 5.40797 46.1753 5.38326C49.2203 5.30911 52.2555 5.38326 55.3006 5.34371C56.3214 5.33135 57.3421 5.48707 58.3234 5.44258C61.6675 5.28192 65.0265 5.55133 68.3657 5.4055C68.9614 5.38078 69.4681 5.37831 69.8858 5.39809C71.0746 5.45493 72.2635 5.44999 73.4524 5.38326C73.8182 5.36348 74.1074 5.46729 74.3174 5.69716C74.3842 5.76883 74.4954 5.7713 74.5646 5.70704C74.5646 5.70704 74.5671 5.70457 74.5695 5.7021ZM9.05357 6.22856C9.05357 6.0679 8.83608 5.94185 8.57408 5.94679C8.31209 5.94926 8.10199 6.08273 8.10446 6.24339C8.10446 6.40405 8.32195 6.5301 8.58395 6.52516C8.84594 6.52269 9.05604 6.38922 9.05357 6.22856ZM76.9077 6.30024C76.8756 6.1816 76.6507 6.13711 76.406 6.20384C76.1613 6.27058 75.9883 6.42135 76.0229 6.54246C76.055 6.6611 76.2799 6.70559 76.5246 6.63885C76.7693 6.57212 76.9423 6.42135 76.9077 6.30024ZM75.9883 6.85883C73.6748 6.89343 71.3465 6.73772 69.0627 6.80693C67.2238 6.8613 65.9435 6.75255 64.4457 6.8094C61.9444 6.90085 59.4406 6.77479 56.9368 6.8094C54.831 6.83906 52.6905 6.75996 50.5649 6.77727C45.7822 6.81681 41.0021 6.72783 36.217 6.74761C35.5595 6.75008 34.6821 6.59436 33.8714 6.70312C33.3647 6.77232 32.9322 6.78962 32.5738 6.75749C30.8906 6.60425 29.2667 6.83906 27.6033 6.79457C26.5158 6.76738 25.4529 6.90579 24.3407 6.78468C23.9724 6.74266 23.5918 6.74266 23.1963 6.78468C21.7652 6.93051 20.2254 6.75255 18.9377 6.81187C17.1309 6.89838 15.3242 6.91815 13.5174 6.87119C12.3335 6.84153 11.0457 7.00466 9.79754 6.98241C8.52464 6.96264 7.33331 6.99477 6.10243 6.90085C6.02334 6.89343 5.97884 6.93051 5.97143 7.0096C5.80583 8.78672 5.75392 10.3389 5.81571 11.6687C5.87503 13.0454 5.76875 14.3479 5.84785 15.6604C5.91705 16.8196 5.8429 18.0752 5.87998 19.1108C5.9739 21.6838 5.77123 23.4411 5.88245 25.6013C5.91458 26.2464 5.76876 26.9014 5.791 27.5787C5.81819 28.5154 5.833 29.0122 5.83053 29.0641C5.74402 31.9856 5.76874 34.9145 5.65258 37.8335C5.6155 38.7851 5.60069 39.6502 5.6081 40.4288C5.64024 43.2662 5.61551 46.1037 5.53394 48.9411C5.5117 49.6777 5.52898 50.5131 5.58089 51.4449C5.91703 57.4065 5.29915 62.1026 6.09996 67.4068C6.31499 68.8329 6.79943 70.2146 7.20725 71.6234C7.93392 74.1272 9.02884 76.458 10.4945 78.6157C11.4931 80.0839 12.4323 81.5446 13.6434 82.815C14.9311 84.1695 16.0014 85.1409 16.8492 85.7291C18.9328 87.175 20.569 88.4702 23.1963 89.5033C25.3986 90.3709 27.6008 91.2409 29.803 92.1134C30.1565 92.2543 30.3295 92.5212 30.7398 92.6102C31.7878 92.8401 32.8086 93.1638 33.7997 93.5791C34.3138 93.7941 34.8477 93.7422 35.2629 93.8658C36.3801 94.1945 38.0732 94.7852 40.3446 95.638C40.4212 95.6651 40.5004 95.6701 40.5819 95.6503C41.9932 95.2796 43.4243 94.9854 44.7985 94.5307C49.7196 92.8944 54.6184 91.4559 59.1316 89.0362C61.7788 87.6175 64.196 86.174 66.5021 84.1522C66.9692 83.7444 67.9505 82.7211 69.4433 81.0824C69.9772 80.4942 70.385 79.8021 70.867 79.1496C74.0777 74.7945 76.0674 68.7118 76.2774 63.6029C76.3541 61.806 76.3615 58.1183 76.3022 52.5423C76.2404 46.8971 76.49 41.667 76.3763 36.227C76.3022 32.6183 76.3887 29.0419 76.3244 25.4432C76.2997 24.101 76.3961 22.4055 76.3269 20.883C76.2997 20.2997 76.3714 19.5137 76.3071 18.7425C76.2404 17.9244 76.2453 16.1003 76.3269 13.2728C76.3541 12.3212 76.2898 11.3869 76.2453 10.4402C76.2231 9.93356 76.3392 9.36014 76.2774 8.79166C76.2107 8.18858 76.2972 7.65964 76.233 7.07881C76.2157 6.93298 76.1341 6.85883 75.9883 6.8613V6.85883ZM73.2027 77.0833C73.2695 77.113 73.4153 76.935 73.5265 76.6854C73.6377 76.4357 73.6723 76.2083 73.6056 76.1787C73.5389 76.149 73.393 76.327 73.2818 76.5766C73.1706 76.8262 73.136 77.0536 73.2027 77.0833ZM32.5688 93.8905C32.5787 93.8015 32.4724 93.715 32.3291 93.6977C32.1857 93.6804 32.0597 93.7373 32.0498 93.8287C32.0399 93.9177 32.1462 94.0042 32.2895 94.0215C32.4329 94.0388 32.5589 93.982 32.5688 93.8905ZM35.0009 94.716C35.0924 94.6369 35.0875 94.4812 34.9911 94.3725C34.8947 94.2637 34.7414 94.239 34.6524 94.3181C34.561 94.3972 34.5659 94.5529 34.6623 94.6617C34.7587 94.7704 34.9119 94.7951 35.0009 94.716Z" stroke="#EAFE01" stroke-width="6" mask="url(#path-1-outside-1_192_336)"/>
<mask id="path-2-outside-2_192_336" maskUnits="userSpaceOnUse" x="9.67383" y="11.3643" width="63" height="78" fill="black">
<rect fill="white" x="9.67383" y="11.3643" width="63" height="78"/>
<path d="M18.6877 64.117C18.4974 61.7763 18.2997 59.841 18.6433 57.2384C18.6655 57.0629 18.6284 56.7737 18.5295 56.3733C18.5098 56.2967 18.4603 56.2547 18.3837 56.2472C16.6091 56.094 14.9877 56.0742 13.5171 56.1879C12.9436 56.2324 12.6619 55.9852 12.6742 55.4464C12.7113 53.7237 12.7558 52.0009 12.8077 50.2831C12.8374 49.3588 12.7459 48.2119 12.8151 47.1985C12.8447 46.7437 13.2328 46.3952 13.6901 46.4126L18.3961 46.6053C18.4653 46.6078 18.5246 46.5534 18.5271 46.4842C18.5271 46.4842 18.5271 46.4842 18.5271 46.4818L18.5518 39.9344C18.5518 39.9022 18.5271 39.8775 18.4949 39.875C17.0144 39.8132 15.5314 39.8009 14.0509 39.8429C13.8037 39.8503 13.5566 39.7564 13.3119 39.5661C12.4814 38.9259 12.8645 35.7227 12.9041 34.692C12.9387 33.7948 12.9016 32.1363 13.0796 30.8585C13.1092 30.6286 13.307 30.4556 13.5393 30.4556L18.4949 30.4432C18.5987 30.4432 18.6828 30.3592 18.6828 30.2554L18.6605 23.3249C18.6605 23.1964 18.5963 23.1197 18.4677 23.095C18.2453 23.053 17.9932 23.0283 17.7139 23.0209C16.4064 22.9813 15.0964 22.9467 13.7865 22.9171C13.2995 22.9072 13.0474 22.6279 13.0301 22.0792C12.9856 20.7568 12.998 19.4345 13.0647 18.1122C13.1191 17.0741 13.0153 15.8506 13.1414 14.7087C13.1611 14.5283 13.3144 14.3923 13.4948 14.3973L21.0457 14.5901C21.2879 14.5975 21.4807 14.7977 21.4733 15.0424C21.4733 15.0449 21.4733 15.0473 21.4733 15.0498C21.3991 16.5971 21.6512 18.1913 21.2533 19.7089C21.236 19.7756 21.2755 19.8448 21.3423 19.8621C21.3695 19.8695 21.3967 19.867 21.4239 19.8572C22.7808 19.264 24.5406 19.5531 25.9939 19.5136C26.6637 19.4963 27.3262 19.5507 27.9762 19.6817C28.0405 19.694 28.1022 19.652 28.1146 19.5878C28.1146 19.5803 28.1146 19.5754 28.1146 19.568L28.1789 14.8966C28.1813 14.637 28.3123 14.4838 28.5669 14.4368C29.6173 14.249 30.742 14.4863 31.6169 14.4764C33.7673 14.4492 35.2898 14.4195 36.1845 14.3825C36.9186 14.3528 37.3141 14.6914 37.3709 15.4008C37.4772 16.644 37.4253 17.9268 37.2152 19.2467C37.1954 19.3851 37.2894 19.5136 37.4253 19.5334C37.4426 19.5358 37.4574 19.5358 37.4747 19.5334C39.7239 19.4246 41.9237 19.3925 44.163 19.8374C44.2545 19.8547 44.2965 19.8151 44.294 19.7237C44.2495 18.5744 44.2223 17.43 44.2149 16.2906C44.2124 15.8828 44.0567 15.4873 44.0123 15.0547C43.9826 14.7804 44.1062 14.6395 44.3805 14.6321C46.6594 14.5777 48.9333 14.5851 51.2023 14.6568C51.4939 14.6667 52.0105 14.5827 52.7495 14.4047C53.2562 14.2836 53.4959 14.511 53.4737 15.0918C53.4218 16.429 53.3674 17.8527 53.3106 19.3628C53.3056 19.4691 53.3575 19.526 53.4638 19.5284C54.9888 19.5705 56.541 19.6051 58.1229 19.6273C58.768 19.6347 59.4131 19.694 60.0557 19.8028C60.12 19.8127 60.1818 19.7707 60.1916 19.7064C60.1916 19.699 60.1916 19.694 60.1916 19.6866L60.1373 15.0103C60.1348 14.7186 60.2782 14.5777 60.5698 14.5901C62.6806 14.6766 64.8136 14.7186 66.9664 14.7186C67.5671 14.7186 68.0836 14.6148 68.6669 14.8867C68.8919 14.993 69.0327 15.2203 69.0278 15.4675C68.9858 17.6277 69.0451 19.8053 69.2033 22.0001C69.2527 22.7045 69.0945 23.1222 68.3135 23.1024C66.7909 23.0629 65.2289 23.0505 63.6297 23.0654C63.4765 23.0654 63.3504 23.1914 63.3529 23.3471C63.3529 23.3521 63.3529 23.3545 63.3529 23.3595C63.4122 24.4396 63.3084 25.5247 63.3455 26.5899C63.3875 27.8455 63.3306 29.1333 63.1774 30.4531C63.165 30.5569 63.2417 30.6533 63.3455 30.6657C63.3554 30.6657 63.3652 30.6657 63.3751 30.6657L68.2146 30.5001C68.8078 30.4778 69.0995 30.7645 69.0921 31.3577C69.0599 33.471 69.055 35.5991 69.0772 37.742C69.0846 38.4143 69.6136 40.0184 68.3555 39.8207C67.6906 39.7193 67.0233 39.6921 66.3559 39.744C65.3475 39.8207 64.5319 39.7045 63.5679 39.6773C63.4419 39.6748 63.3356 39.7737 63.3331 39.9022C63.3331 39.9096 63.3331 39.9146 63.3331 39.922C63.4962 42.144 63.3751 44.3636 63.3455 46.5584C63.3455 46.6572 63.4221 46.7388 63.5185 46.7388C63.5234 46.7388 63.5284 46.7388 63.5333 46.7388C64.3836 46.6869 65.1127 46.6202 66.042 46.6375C66.8033 46.6523 67.9551 46.4101 68.6867 46.7438C68.7608 46.7784 68.8152 46.8327 68.8474 46.9069C69.0426 47.3493 69.139 47.7423 69.1341 48.0883C69.092 50.5328 69.0747 52.9871 69.0772 55.4538C69.0772 55.8666 68.8696 56.0742 68.4568 56.0742L63.6371 56.0594C63.343 56.0594 63.2021 56.2027 63.2169 56.4969C63.3232 58.5706 63.3158 60.5652 63.1972 62.4807C63.165 63.022 63.0019 63.6251 62.9574 64.2158C62.9302 64.5742 63.0489 64.7843 63.3084 64.8486C64.8952 65.2317 66.6476 65.5085 68.5631 65.6766C69.4504 65.7532 68.6892 66.9346 68.5557 67.3968C67.5547 70.8843 65.9333 73.964 63.689 76.6359C63.4468 76.925 63.165 76.9349 62.8437 76.668C61.5461 75.5953 60.2608 74.5152 58.983 73.4301C58.8594 73.3239 58.6765 73.3189 58.5455 73.4178C58.0067 73.8207 57.4877 74.268 56.9859 74.7574C56.2148 75.5113 54.9567 76.2972 53.2092 77.1154C53.1227 77.1574 53.1005 77.2192 53.145 77.3057C53.6418 78.2474 54.146 79.1841 54.6576 80.1159C55.0012 80.7462 55.5721 81.3369 55.8762 81.8461C56.3309 82.6074 54.801 83.0449 54.3215 83.1931C53.6986 83.3835 53.2389 83.5491 52.9448 83.685C50.6486 84.7453 48.2214 85.4943 45.6583 85.9268C45.5002 85.954 45.3519 85.8477 45.3247 85.6895C45.3247 85.6895 45.3247 85.687 45.3247 85.6846L44.3088 79.1668C44.294 79.0704 44.2446 79.0482 44.1605 79.0952C42.8802 79.807 41.4541 79.7477 40.0625 79.6785C39.2716 79.6389 38.5079 79.7304 37.7268 79.629C37.3833 79.5845 37.0273 79.545 36.6615 79.5104C36.5355 79.498 36.4737 79.5574 36.4762 79.6834C36.5132 80.8352 36.229 81.9993 36.1573 83.161C36.1153 83.8284 35.925 84.5278 35.8879 85.2372C35.7792 87.3208 32.8701 85.7291 31.9234 85.4498C31.3228 85.2743 30.7395 85.0617 30.171 84.8121C29.1057 84.3425 27.818 83.9964 26.7379 83.3439C26.0656 82.9361 25.2574 82.7038 24.5925 82.1674C24.2934 81.9252 24.2415 81.6162 24.4393 81.2405C25.2228 79.7501 25.942 78.2424 26.5945 76.7174C26.6563 76.5741 26.6019 76.406 26.466 76.3269C24.7087 75.316 23.238 73.9887 22.0492 72.3476C21.9973 72.2783 21.9009 72.2635 21.8341 72.313C21.8267 72.3179 21.8193 72.3253 21.8119 72.3327C21.5178 72.6466 21.1693 72.9136 20.7664 73.1385C19.6912 73.7391 18.6309 74.3694 17.5854 75.0244C17.1034 75.3259 16.7129 75.2468 16.4138 74.7846C15.393 73.2003 14.5453 71.5319 13.8754 69.7795C13.6036 69.0702 13.4627 68.2693 13.2452 67.5031C12.993 66.6158 12.9807 65.8125 12.9041 64.9079C12.8843 64.6756 13.0573 64.4729 13.2872 64.4531C13.3045 64.4531 13.3218 64.4531 13.3391 64.4531C14.5947 64.5001 15.8874 64.4185 17.2146 64.2134C17.6669 64.1442 18.1168 64.1466 18.5666 64.2232C18.6531 64.2381 18.6902 64.201 18.6828 64.1145L18.6877 64.117ZM51.7633 76.6284C51.919 76.4085 52.1044 76.2626 52.317 76.1885C54.6774 75.3704 55.9132 74.3471 57.9029 72.3426C58.1006 72.1424 58.281 71.9373 58.4417 71.7272C58.5134 71.6308 58.6518 71.6135 58.7457 71.6852C58.7507 71.6901 58.7581 71.695 58.763 71.7C59.5416 72.4341 60.3498 73.1632 61.1853 73.8923C61.4571 74.1271 61.645 74.4188 61.9687 74.5745C62.4309 74.797 62.866 75.0787 63.2713 75.4173C63.3405 75.4767 63.4023 75.4692 63.4592 75.3976C64.0499 74.6388 64.4651 73.7391 64.999 73.0025C66.1582 71.4034 66.6352 69.7078 67.357 67.995C67.4781 67.7033 67.5028 67.3647 67.4286 66.9767C67.4138 66.8951 67.352 66.8284 67.2704 66.8036C66.1632 66.4823 64.6456 66.2302 62.7201 66.0498C62.0108 65.9831 61.6301 65.5357 61.5782 64.7126C61.5733 64.6459 61.5857 64.5792 61.6153 64.5198C61.9836 63.7808 62.0874 63.0022 61.9267 62.1817C61.8897 61.9913 61.9564 61.7442 62.1269 61.4426C62.169 61.371 62.1887 61.2968 62.1863 61.2153C62.1591 60.0165 62.075 58.8202 62.0899 57.6215C62.1022 56.7836 61.6993 55.9259 62.3074 55.1177C62.3469 55.0633 62.4087 55.0337 62.473 55.0312L67.7475 54.9966C67.9304 54.9966 68.0218 54.9051 68.0243 54.7198L68.0737 47.9895C68.0737 47.9079 68.0342 47.8609 67.9526 47.851C66.5957 47.683 65.2338 47.6681 63.8719 47.8041C63.3356 47.8585 62.1121 47.725 62.1764 46.8525C62.2629 45.6463 62.2678 44.5662 62.1912 43.6122C62.1171 42.6754 62.2184 41.8993 62.295 41.0095C62.3618 40.2408 61.907 38.654 63.2219 38.5997C64.7469 38.5379 66.2595 38.57 67.7623 38.6936C67.8735 38.7035 67.9724 38.6219 67.9823 38.5107C67.9823 38.5057 67.9823 38.4983 67.9823 38.4934L67.9403 31.8718C67.9403 31.7557 67.8463 31.6618 67.7277 31.6618C67.7252 31.6618 67.7227 31.6618 67.7203 31.6618C66.047 31.7211 64.3761 31.5728 62.7374 31.7656C62.2851 31.8199 62.0726 31.6197 62.0998 31.165C62.2654 28.4041 62.3469 25.6408 62.3469 22.875C62.3469 22.3436 62.6311 22.0742 63.1996 22.0668C63.516 22.0619 64.0079 22.0396 64.6777 21.9976C65.7257 21.9333 66.8404 22.0594 67.9328 22.005C68.0268 22.0001 68.1009 21.9235 68.0984 21.8295L67.9749 15.8481C67.9724 15.7394 67.8859 15.6554 67.7771 15.6529L61.2866 15.5639C61.1877 15.5639 61.1408 15.6109 61.1457 15.7097C61.2273 17.0864 61.2643 18.4607 61.2569 19.8374C61.252 21.2438 60.0359 20.5616 59.2969 20.7025C58.1402 20.9249 56.8722 20.7124 55.9256 20.747C55.1347 20.7766 54.3437 20.7964 53.5528 20.8063C51.4643 20.8285 52.3096 19.1602 52.3417 17.996C52.3639 17.1581 52.4035 16.3276 52.4579 15.4996C52.4653 15.4107 52.4233 15.3736 52.3367 15.3884C50.4929 15.6998 49.0865 15.774 48.1152 15.6133C47.2377 15.4675 46.3949 15.4354 45.5867 15.5145C45.4582 15.5268 45.3642 15.6356 45.3667 15.7641C45.389 16.7602 45.3988 17.7414 45.3964 18.7103C45.3964 19.5161 45.2777 20.087 45.0404 20.4256C44.2816 21.5082 42.3463 21.0089 41.1723 20.878C40.5396 20.8087 39.9513 21.1128 39.242 20.8087C39.1703 20.7791 39.0912 20.7667 39.0121 20.7766C38.3472 20.8631 37.5514 21.1523 36.9285 20.7346C36.4169 20.391 35.9126 20.0524 36.0189 19.4197C36.2661 17.9466 36.3427 16.5946 36.2463 15.3637C36.2389 15.2723 36.1895 15.2327 36.098 15.25C33.8884 15.6306 31.5897 15.2599 29.3554 15.2624C29.3035 15.2624 29.2614 15.3019 29.259 15.3538C29.1823 16.56 29.1675 17.7711 29.212 18.9871C29.2269 19.3777 29.4592 19.8127 29.2862 20.218C28.8437 21.2611 26.7651 20.6777 25.853 20.7395C24.2539 20.8508 22.6473 20.569 21.1272 20.6654C20.6799 20.6926 20.4574 20.4825 20.4574 20.0351L20.4525 15.732C20.4525 15.5936 20.3413 15.4823 20.2053 15.4799L14.0682 15.3736C13.999 15.3736 13.9446 15.428 13.9422 15.4947C13.9422 15.5169 13.9471 15.5392 13.9595 15.559C14.2783 16.1101 14.1325 17.3262 14.1597 17.9886C14.2116 19.1972 13.9842 20.4874 14.0633 21.7776C14.0707 21.8716 14.1201 21.9185 14.214 21.921C14.8616 21.9259 15.5265 21.8122 16.1222 21.8493C17.2047 21.9185 18.6012 21.7208 19.5207 22.3609C19.5825 22.4054 19.6245 22.4648 19.6443 22.5389C19.7654 22.9912 19.8247 23.3916 19.8222 23.7451C19.8024 25.6161 19.837 27.759 19.9235 30.1713C19.9359 30.4927 19.8716 30.8263 19.7357 31.1724C19.7036 31.249 19.6541 31.3058 19.5849 31.3479C19.1277 31.6222 18.6259 31.7458 18.0822 31.7211C16.9304 31.6692 15.7366 31.6197 14.4983 31.5728C14.303 31.5654 14.2017 31.6593 14.1992 31.8545C14.1819 32.9767 14.1918 34.121 14.2239 35.2852C14.2561 36.3604 13.8359 37.2724 14.1622 38.4242C14.2141 38.6021 14.3327 38.6911 14.5181 38.6911C15.7811 38.6862 17.012 38.6293 18.2107 38.523C18.9052 38.4613 19.3452 38.6936 19.6986 39.2448C19.8692 39.5092 19.9384 39.9047 19.9087 40.4312C19.8074 42.3022 19.7827 44.4006 19.8346 46.7314C19.8543 47.7176 19.1746 47.9178 18.3096 47.8634C16.9254 47.7769 15.5364 47.6953 14.1424 47.6162C14.0756 47.6138 14.0435 47.6434 14.041 47.7102L13.9545 54.8285C13.9545 54.9224 14.0287 54.9991 14.1226 54.9991C15.7465 54.9818 17.353 54.9422 18.9398 54.8829C20.2251 54.8335 20.0002 56.1459 19.8939 56.9813C19.8272 57.5177 19.8049 57.9799 19.8296 58.3679C19.8964 59.4357 19.7629 60.6171 19.7777 61.5539C19.7975 62.6908 19.8099 63.8303 19.8148 64.9722C19.8148 65.0883 19.7604 65.1526 19.6443 65.1625L14.2066 65.637C14.1176 65.6444 14.0806 65.6914 14.0954 65.7804C14.5551 68.3583 15.4177 70.7731 16.6832 73.0297C16.8513 73.3313 17.0391 73.5661 17.2468 73.7342C17.3456 73.8157 17.4494 73.8207 17.5607 73.7539C18.5913 73.1162 19.6245 72.5008 20.6576 71.9051C21.2508 71.564 21.6166 71.2551 21.8094 70.6396C21.844 70.5259 21.9651 70.4592 22.0813 70.4963C22.1233 70.5086 22.1604 70.5334 22.1876 70.568C23.3493 72.0435 24.9558 74.1617 26.4413 74.8933C27.1185 75.227 27.7636 75.6373 28.3741 76.1242C28.5644 76.2775 28.5966 76.5543 28.4458 76.7446C28.4112 76.7891 28.3667 76.8262 28.3173 76.8534C26.9678 77.6171 26.2238 79.8391 25.6232 81.2677C25.5391 81.4679 25.5985 81.6064 25.7987 81.6879C27.1284 82.2317 28.0528 82.9682 29.7088 83.3884C30.4305 83.5738 30.9125 83.9396 31.7034 84.031C32.0717 84.0755 32.3312 84.1571 32.487 84.2782C33.0876 84.7429 33.7549 84.9282 34.4865 84.8319C34.5656 84.8195 34.6101 84.775 34.6224 84.6959C34.7806 83.5318 34.9759 82.375 35.2107 81.2232C35.3713 80.4274 35.3145 79.7131 35.2799 78.9246C35.2428 78.062 35.7965 77.8569 36.5355 78.0941C37.1979 78.3092 37.8776 78.4426 38.5746 78.4945C39.0467 78.5316 39.5954 78.3067 40.1713 78.6008C40.2455 78.6379 40.3344 78.633 40.4036 78.586C40.6384 78.4303 40.7299 78.3685 41.029 78.3759C42.2524 78.413 43.4561 78.2548 44.64 77.8964C44.7241 77.8717 44.8056 77.8791 44.8847 77.9187C45.1442 78.0497 45.2876 78.2845 45.3173 78.6206C45.4903 80.5262 45.8264 82.4022 46.3282 84.2485C46.3677 84.3894 46.4962 84.4858 46.6396 84.4834C46.8324 84.4834 47.0524 84.4487 47.302 84.382C48.916 83.9594 50.5003 83.4502 52.0574 82.8521C52.8162 82.5629 53.5874 82.3058 54.366 82.0858C54.4302 82.0661 54.4698 81.9993 54.45 81.9351C54.45 81.9277 54.4451 81.9178 54.4401 81.9104L51.746 76.8237C51.7114 76.757 51.7164 76.6902 51.7609 76.6284H51.7633Z"/>
</mask>
<path d="M18.6877 64.117C18.4974 61.7763 18.2997 59.841 18.6433 57.2384C18.6655 57.0629 18.6284 56.7737 18.5295 56.3733C18.5098 56.2967 18.4603 56.2547 18.3837 56.2472C16.6091 56.094 14.9877 56.0742 13.5171 56.1879C12.9436 56.2324 12.6619 55.9852 12.6742 55.4464C12.7113 53.7237 12.7558 52.0009 12.8077 50.2831C12.8374 49.3588 12.7459 48.2119 12.8151 47.1985C12.8447 46.7437 13.2328 46.3952 13.6901 46.4126L18.3961 46.6053C18.4653 46.6078 18.5246 46.5534 18.5271 46.4842C18.5271 46.4842 18.5271 46.4842 18.5271 46.4818L18.5518 39.9344C18.5518 39.9022 18.5271 39.8775 18.4949 39.875C17.0144 39.8132 15.5314 39.8009 14.0509 39.8429C13.8037 39.8503 13.5566 39.7564 13.3119 39.5661C12.4814 38.9259 12.8645 35.7227 12.9041 34.692C12.9387 33.7948 12.9016 32.1363 13.0796 30.8585C13.1092 30.6286 13.307 30.4556 13.5393 30.4556L18.4949 30.4432C18.5987 30.4432 18.6828 30.3592 18.6828 30.2554L18.6605 23.3249C18.6605 23.1964 18.5963 23.1197 18.4677 23.095C18.2453 23.053 17.9932 23.0283 17.7139 23.0209C16.4064 22.9813 15.0964 22.9467 13.7865 22.9171C13.2995 22.9072 13.0474 22.6279 13.0301 22.0792C12.9856 20.7568 12.998 19.4345 13.0647 18.1122C13.1191 17.0741 13.0153 15.8506 13.1414 14.7087C13.1611 14.5283 13.3144 14.3923 13.4948 14.3973L21.0457 14.5901C21.2879 14.5975 21.4807 14.7977 21.4733 15.0424C21.4733 15.0449 21.4733 15.0473 21.4733 15.0498C21.3991 16.5971 21.6512 18.1913 21.2533 19.7089C21.236 19.7756 21.2755 19.8448 21.3423 19.8621C21.3695 19.8695 21.3967 19.867 21.4239 19.8572C22.7808 19.264 24.5406 19.5531 25.9939 19.5136C26.6637 19.4963 27.3262 19.5507 27.9762 19.6817C28.0405 19.694 28.1022 19.652 28.1146 19.5878C28.1146 19.5803 28.1146 19.5754 28.1146 19.568L28.1789 14.8966C28.1813 14.637 28.3123 14.4838 28.5669 14.4368C29.6173 14.249 30.742 14.4863 31.6169 14.4764C33.7673 14.4492 35.2898 14.4195 36.1845 14.3825C36.9186 14.3528 37.3141 14.6914 37.3709 15.4008C37.4772 16.644 37.4253 17.9268 37.2152 19.2467C37.1954 19.3851 37.2894 19.5136 37.4253 19.5334C37.4426 19.5358 37.4574 19.5358 37.4747 19.5334C39.7239 19.4246 41.9237 19.3925 44.163 19.8374C44.2545 19.8547 44.2965 19.8151 44.294 19.7237C44.2495 18.5744 44.2223 17.43 44.2149 16.2906C44.2124 15.8828 44.0567 15.4873 44.0123 15.0547C43.9826 14.7804 44.1062 14.6395 44.3805 14.6321C46.6594 14.5777 48.9333 14.5851 51.2023 14.6568C51.4939 14.6667 52.0105 14.5827 52.7495 14.4047C53.2562 14.2836 53.4959 14.511 53.4737 15.0918C53.4218 16.429 53.3674 17.8527 53.3106 19.3628C53.3056 19.4691 53.3575 19.526 53.4638 19.5284C54.9888 19.5705 56.541 19.6051 58.1229 19.6273C58.768 19.6347 59.4131 19.694 60.0557 19.8028C60.12 19.8127 60.1818 19.7707 60.1916 19.7064C60.1916 19.699 60.1916 19.694 60.1916 19.6866L60.1373 15.0103C60.1348 14.7186 60.2782 14.5777 60.5698 14.5901C62.6806 14.6766 64.8136 14.7186 66.9664 14.7186C67.5671 14.7186 68.0836 14.6148 68.6669 14.8867C68.8919 14.993 69.0327 15.2203 69.0278 15.4675C68.9858 17.6277 69.0451 19.8053 69.2033 22.0001C69.2527 22.7045 69.0945 23.1222 68.3135 23.1024C66.7909 23.0629 65.2289 23.0505 63.6297 23.0654C63.4765 23.0654 63.3504 23.1914 63.3529 23.3471C63.3529 23.3521 63.3529 23.3545 63.3529 23.3595C63.4122 24.4396 63.3084 25.5247 63.3455 26.5899C63.3875 27.8455 63.3306 29.1333 63.1774 30.4531C63.165 30.5569 63.2417 30.6533 63.3455 30.6657C63.3554 30.6657 63.3652 30.6657 63.3751 30.6657L68.2146 30.5001C68.8078 30.4778 69.0995 30.7645 69.0921 31.3577C69.0599 33.471 69.055 35.5991 69.0772 37.742C69.0846 38.4143 69.6136 40.0184 68.3555 39.8207C67.6906 39.7193 67.0233 39.6921 66.3559 39.744C65.3475 39.8207 64.5319 39.7045 63.5679 39.6773C63.4419 39.6748 63.3356 39.7737 63.3331 39.9022C63.3331 39.9096 63.3331 39.9146 63.3331 39.922C63.4962 42.144 63.3751 44.3636 63.3455 46.5584C63.3455 46.6572 63.4221 46.7388 63.5185 46.7388C63.5234 46.7388 63.5284 46.7388 63.5333 46.7388C64.3836 46.6869 65.1127 46.6202 66.042 46.6375C66.8033 46.6523 67.9551 46.4101 68.6867 46.7438C68.7608 46.7784 68.8152 46.8327 68.8474 46.9069C69.0426 47.3493 69.139 47.7423 69.1341 48.0883C69.092 50.5328 69.0747 52.9871 69.0772 55.4538C69.0772 55.8666 68.8696 56.0742 68.4568 56.0742L63.6371 56.0594C63.343 56.0594 63.2021 56.2027 63.2169 56.4969C63.3232 58.5706 63.3158 60.5652 63.1972 62.4807C63.165 63.022 63.0019 63.6251 62.9574 64.2158C62.9302 64.5742 63.0489 64.7843 63.3084 64.8486C64.8952 65.2317 66.6476 65.5085 68.5631 65.6766C69.4504 65.7532 68.6892 66.9346 68.5557 67.3968C67.5547 70.8843 65.9333 73.964 63.689 76.6359C63.4468 76.925 63.165 76.9349 62.8437 76.668C61.5461 75.5953 60.2608 74.5152 58.983 73.4301C58.8594 73.3239 58.6765 73.3189 58.5455 73.4178C58.0067 73.8207 57.4877 74.268 56.9859 74.7574C56.2148 75.5113 54.9567 76.2972 53.2092 77.1154C53.1227 77.1574 53.1005 77.2192 53.145 77.3057C53.6418 78.2474 54.146 79.1841 54.6576 80.1159C55.0012 80.7462 55.5721 81.3369 55.8762 81.8461C56.3309 82.6074 54.801 83.0449 54.3215 83.1931C53.6986 83.3835 53.2389 83.5491 52.9448 83.685C50.6486 84.7453 48.2214 85.4943 45.6583 85.9268C45.5002 85.954 45.3519 85.8477 45.3247 85.6895C45.3247 85.6895 45.3247 85.687 45.3247 85.6846L44.3088 79.1668C44.294 79.0704 44.2446 79.0482 44.1605 79.0952C42.8802 79.807 41.4541 79.7477 40.0625 79.6785C39.2716 79.6389 38.5079 79.7304 37.7268 79.629C37.3833 79.5845 37.0273 79.545 36.6615 79.5104C36.5355 79.498 36.4737 79.5574 36.4762 79.6834C36.5132 80.8352 36.229 81.9993 36.1573 83.161C36.1153 83.8284 35.925 84.5278 35.8879 85.2372C35.7792 87.3208 32.8701 85.7291 31.9234 85.4498C31.3228 85.2743 30.7395 85.0617 30.171 84.8121C29.1057 84.3425 27.818 83.9964 26.7379 83.3439C26.0656 82.9361 25.2574 82.7038 24.5925 82.1674C24.2934 81.9252 24.2415 81.6162 24.4393 81.2405C25.2228 79.7501 25.942 78.2424 26.5945 76.7174C26.6563 76.5741 26.6019 76.406 26.466 76.3269C24.7087 75.316 23.238 73.9887 22.0492 72.3476C21.9973 72.2783 21.9009 72.2635 21.8341 72.313C21.8267 72.3179 21.8193 72.3253 21.8119 72.3327C21.5178 72.6466 21.1693 72.9136 20.7664 73.1385C19.6912 73.7391 18.6309 74.3694 17.5854 75.0244C17.1034 75.3259 16.7129 75.2468 16.4138 74.7846C15.393 73.2003 14.5453 71.5319 13.8754 69.7795C13.6036 69.0702 13.4627 68.2693 13.2452 67.5031C12.993 66.6158 12.9807 65.8125 12.9041 64.9079C12.8843 64.6756 13.0573 64.4729 13.2872 64.4531C13.3045 64.4531 13.3218 64.4531 13.3391 64.4531C14.5947 64.5001 15.8874 64.4185 17.2146 64.2134C17.6669 64.1442 18.1168 64.1466 18.5666 64.2232C18.6531 64.2381 18.6902 64.201 18.6828 64.1145L18.6877 64.117ZM51.7633 76.6284C51.919 76.4085 52.1044 76.2626 52.317 76.1885C54.6774 75.3704 55.9132 74.3471 57.9029 72.3426C58.1006 72.1424 58.281 71.9373 58.4417 71.7272C58.5134 71.6308 58.6518 71.6135 58.7457 71.6852C58.7507 71.6901 58.7581 71.695 58.763 71.7C59.5416 72.4341 60.3498 73.1632 61.1853 73.8923C61.4571 74.1271 61.645 74.4188 61.9687 74.5745C62.4309 74.797 62.866 75.0787 63.2713 75.4173C63.3405 75.4767 63.4023 75.4692 63.4592 75.3976C64.0499 74.6388 64.4651 73.7391 64.999 73.0025C66.1582 71.4034 66.6352 69.7078 67.357 67.995C67.4781 67.7033 67.5028 67.3647 67.4286 66.9767C67.4138 66.8951 67.352 66.8284 67.2704 66.8036C66.1632 66.4823 64.6456 66.2302 62.7201 66.0498C62.0108 65.9831 61.6301 65.5357 61.5782 64.7126C61.5733 64.6459 61.5857 64.5792 61.6153 64.5198C61.9836 63.7808 62.0874 63.0022 61.9267 62.1817C61.8897 61.9913 61.9564 61.7442 62.1269 61.4426C62.169 61.371 62.1887 61.2968 62.1863 61.2153C62.1591 60.0165 62.075 58.8202 62.0899 57.6215C62.1022 56.7836 61.6993 55.9259 62.3074 55.1177C62.3469 55.0633 62.4087 55.0337 62.473 55.0312L67.7475 54.9966C67.9304 54.9966 68.0218 54.9051 68.0243 54.7198L68.0737 47.9895C68.0737 47.9079 68.0342 47.8609 67.9526 47.851C66.5957 47.683 65.2338 47.6681 63.8719 47.8041C63.3356 47.8585 62.1121 47.725 62.1764 46.8525C62.2629 45.6463 62.2678 44.5662 62.1912 43.6122C62.1171 42.6754 62.2184 41.8993 62.295 41.0095C62.3618 40.2408 61.907 38.654 63.2219 38.5997C64.7469 38.5379 66.2595 38.57 67.7623 38.6936C67.8735 38.7035 67.9724 38.6219 67.9823 38.5107C67.9823 38.5057 67.9823 38.4983 67.9823 38.4934L67.9403 31.8718C67.9403 31.7557 67.8463 31.6618 67.7277 31.6618C67.7252 31.6618 67.7227 31.6618 67.7203 31.6618C66.047 31.7211 64.3761 31.5728 62.7374 31.7656C62.2851 31.8199 62.0726 31.6197 62.0998 31.165C62.2654 28.4041 62.3469 25.6408 62.3469 22.875C62.3469 22.3436 62.6311 22.0742 63.1996 22.0668C63.516 22.0619 64.0079 22.0396 64.6777 21.9976C65.7257 21.9333 66.8404 22.0594 67.9328 22.005C68.0268 22.0001 68.1009 21.9235 68.0984 21.8295L67.9749 15.8481C67.9724 15.7394 67.8859 15.6554 67.7771 15.6529L61.2866 15.5639C61.1877 15.5639 61.1408 15.6109 61.1457 15.7097C61.2273 17.0864 61.2643 18.4607 61.2569 19.8374C61.252 21.2438 60.0359 20.5616 59.2969 20.7025C58.1402 20.9249 56.8722 20.7124 55.9256 20.747C55.1347 20.7766 54.3437 20.7964 53.5528 20.8063C51.4643 20.8285 52.3096 19.1602 52.3417 17.996C52.3639 17.1581 52.4035 16.3276 52.4579 15.4996C52.4653 15.4107 52.4233 15.3736 52.3367 15.3884C50.4929 15.6998 49.0865 15.774 48.1152 15.6133C47.2377 15.4675 46.3949 15.4354 45.5867 15.5145C45.4582 15.5268 45.3642 15.6356 45.3667 15.7641C45.389 16.7602 45.3988 17.7414 45.3964 18.7103C45.3964 19.5161 45.2777 20.087 45.0404 20.4256C44.2816 21.5082 42.3463 21.0089 41.1723 20.878C40.5396 20.8087 39.9513 21.1128 39.242 20.8087C39.1703 20.7791 39.0912 20.7667 39.0121 20.7766C38.3472 20.8631 37.5514 21.1523 36.9285 20.7346C36.4169 20.391 35.9126 20.0524 36.0189 19.4197C36.2661 17.9466 36.3427 16.5946 36.2463 15.3637C36.2389 15.2723 36.1895 15.2327 36.098 15.25C33.8884 15.6306 31.5897 15.2599 29.3554 15.2624C29.3035 15.2624 29.2614 15.3019 29.259 15.3538C29.1823 16.56 29.1675 17.7711 29.212 18.9871C29.2269 19.3777 29.4592 19.8127 29.2862 20.218C28.8437 21.2611 26.7651 20.6777 25.853 20.7395C24.2539 20.8508 22.6473 20.569 21.1272 20.6654C20.6799 20.6926 20.4574 20.4825 20.4574 20.0351L20.4525 15.732C20.4525 15.5936 20.3413 15.4823 20.2053 15.4799L14.0682 15.3736C13.999 15.3736 13.9446 15.428 13.9422 15.4947C13.9422 15.5169 13.9471 15.5392 13.9595 15.559C14.2783 16.1101 14.1325 17.3262 14.1597 17.9886C14.2116 19.1972 13.9842 20.4874 14.0633 21.7776C14.0707 21.8716 14.1201 21.9185 14.214 21.921C14.8616 21.9259 15.5265 21.8122 16.1222 21.8493C17.2047 21.9185 18.6012 21.7208 19.5207 22.3609C19.5825 22.4054 19.6245 22.4648 19.6443 22.5389C19.7654 22.9912 19.8247 23.3916 19.8222 23.7451C19.8024 25.6161 19.837 27.759 19.9235 30.1713C19.9359 30.4927 19.8716 30.8263 19.7357 31.1724C19.7036 31.249 19.6541 31.3058 19.5849 31.3479C19.1277 31.6222 18.6259 31.7458 18.0822 31.7211C16.9304 31.6692 15.7366 31.6197 14.4983 31.5728C14.303 31.5654 14.2017 31.6593 14.1992 31.8545C14.1819 32.9767 14.1918 34.121 14.2239 35.2852C14.2561 36.3604 13.8359 37.2724 14.1622 38.4242C14.2141 38.6021 14.3327 38.6911 14.5181 38.6911C15.7811 38.6862 17.012 38.6293 18.2107 38.523C18.9052 38.4613 19.3452 38.6936 19.6986 39.2448C19.8692 39.5092 19.9384 39.9047 19.9087 40.4312C19.8074 42.3022 19.7827 44.4006 19.8346 46.7314C19.8543 47.7176 19.1746 47.9178 18.3096 47.8634C16.9254 47.7769 15.5364 47.6953 14.1424 47.6162C14.0756 47.6138 14.0435 47.6434 14.041 47.7102L13.9545 54.8285C13.9545 54.9224 14.0287 54.9991 14.1226 54.9991C15.7465 54.9818 17.353 54.9422 18.9398 54.8829C20.2251 54.8335 20.0002 56.1459 19.8939 56.9813C19.8272 57.5177 19.8049 57.9799 19.8296 58.3679C19.8964 59.4357 19.7629 60.6171 19.7777 61.5539C19.7975 62.6908 19.8099 63.8303 19.8148 64.9722C19.8148 65.0883 19.7604 65.1526 19.6443 65.1625L14.2066 65.637C14.1176 65.6444 14.0806 65.6914 14.0954 65.7804C14.5551 68.3583 15.4177 70.7731 16.6832 73.0297C16.8513 73.3313 17.0391 73.5661 17.2468 73.7342C17.3456 73.8157 17.4494 73.8207 17.5607 73.7539C18.5913 73.1162 19.6245 72.5008 20.6576 71.9051C21.2508 71.564 21.6166 71.2551 21.8094 70.6396C21.844 70.5259 21.9651 70.4592 22.0813 70.4963C22.1233 70.5086 22.1604 70.5334 22.1876 70.568C23.3493 72.0435 24.9558 74.1617 26.4413 74.8933C27.1185 75.227 27.7636 75.6373 28.3741 76.1242C28.5644 76.2775 28.5966 76.5543 28.4458 76.7446C28.4112 76.7891 28.3667 76.8262 28.3173 76.8534C26.9678 77.6171 26.2238 79.8391 25.6232 81.2677C25.5391 81.4679 25.5985 81.6064 25.7987 81.6879C27.1284 82.2317 28.0528 82.9682 29.7088 83.3884C30.4305 83.5738 30.9125 83.9396 31.7034 84.031C32.0717 84.0755 32.3312 84.1571 32.487 84.2782C33.0876 84.7429 33.7549 84.9282 34.4865 84.8319C34.5656 84.8195 34.6101 84.775 34.6224 84.6959C34.7806 83.5318 34.9759 82.375 35.2107 81.2232C35.3713 80.4274 35.3145 79.7131 35.2799 78.9246C35.2428 78.062 35.7965 77.8569 36.5355 78.0941C37.1979 78.3092 37.8776 78.4426 38.5746 78.4945C39.0467 78.5316 39.5954 78.3067 40.1713 78.6008C40.2455 78.6379 40.3344 78.633 40.4036 78.586C40.6384 78.4303 40.7299 78.3685 41.029 78.3759C42.2524 78.413 43.4561 78.2548 44.64 77.8964C44.7241 77.8717 44.8056 77.8791 44.8847 77.9187C45.1442 78.0497 45.2876 78.2845 45.3173 78.6206C45.4903 80.5262 45.8264 82.4022 46.3282 84.2485C46.3677 84.3894 46.4962 84.4858 46.6396 84.4834C46.8324 84.4834 47.0524 84.4487 47.302 84.382C48.916 83.9594 50.5003 83.4502 52.0574 82.8521C52.8162 82.5629 53.5874 82.3058 54.366 82.0858C54.4302 82.0661 54.4698 81.9993 54.45 81.9351C54.45 81.9277 54.4451 81.9178 54.4401 81.9104L51.746 76.8237C51.7114 76.757 51.7164 76.6902 51.7609 76.6284H51.7633Z" fill="#EAFE01"/>
<path d="M18.6877 64.117C18.4974 61.7763 18.2997 59.841 18.6433 57.2384C18.6655 57.0629 18.6284 56.7737 18.5295 56.3733C18.5098 56.2967 18.4603 56.2547 18.3837 56.2472C16.6091 56.094 14.9877 56.0742 13.5171 56.1879C12.9436 56.2324 12.6619 55.9852 12.6742 55.4464C12.7113 53.7237 12.7558 52.0009 12.8077 50.2831C12.8374 49.3588 12.7459 48.2119 12.8151 47.1985C12.8447 46.7437 13.2328 46.3952 13.6901 46.4126L18.3961 46.6053C18.4653 46.6078 18.5246 46.5534 18.5271 46.4842C18.5271 46.4842 18.5271 46.4842 18.5271 46.4818L18.5518 39.9344C18.5518 39.9022 18.5271 39.8775 18.4949 39.875C17.0144 39.8132 15.5314 39.8009 14.0509 39.8429C13.8037 39.8503 13.5566 39.7564 13.3119 39.5661C12.4814 38.9259 12.8645 35.7227 12.9041 34.692C12.9387 33.7948 12.9016 32.1363 13.0796 30.8585C13.1092 30.6286 13.307 30.4556 13.5393 30.4556L18.4949 30.4432C18.5987 30.4432 18.6828 30.3592 18.6828 30.2554L18.6605 23.3249C18.6605 23.1964 18.5963 23.1197 18.4677 23.095C18.2453 23.053 17.9932 23.0283 17.7139 23.0209C16.4064 22.9813 15.0964 22.9467 13.7865 22.9171C13.2995 22.9072 13.0474 22.6279 13.0301 22.0792C12.9856 20.7568 12.998 19.4345 13.0647 18.1122C13.1191 17.0741 13.0153 15.8506 13.1414 14.7087C13.1611 14.5283 13.3144 14.3923 13.4948 14.3973L21.0457 14.5901C21.2879 14.5975 21.4807 14.7977 21.4733 15.0424C21.4733 15.0449 21.4733 15.0473 21.4733 15.0498C21.3991 16.5971 21.6512 18.1913 21.2533 19.7089C21.236 19.7756 21.2755 19.8448 21.3423 19.8621C21.3695 19.8695 21.3967 19.867 21.4239 19.8572C22.7808 19.264 24.5406 19.5531 25.9939 19.5136C26.6637 19.4963 27.3262 19.5507 27.9762 19.6817C28.0405 19.694 28.1022 19.652 28.1146 19.5878C28.1146 19.5803 28.1146 19.5754 28.1146 19.568L28.1789 14.8966C28.1813 14.637 28.3123 14.4838 28.5669 14.4368C29.6173 14.249 30.742 14.4863 31.6169 14.4764C33.7673 14.4492 35.2898 14.4195 36.1845 14.3825C36.9186 14.3528 37.3141 14.6914 37.3709 15.4008C37.4772 16.644 37.4253 17.9268 37.2152 19.2467C37.1954 19.3851 37.2894 19.5136 37.4253 19.5334C37.4426 19.5358 37.4574 19.5358 37.4747 19.5334C39.7239 19.4246 41.9237 19.3925 44.163 19.8374C44.2545 19.8547 44.2965 19.8151 44.294 19.7237C44.2495 18.5744 44.2223 17.43 44.2149 16.2906C44.2124 15.8828 44.0567 15.4873 44.0123 15.0547C43.9826 14.7804 44.1062 14.6395 44.3805 14.6321C46.6594 14.5777 48.9333 14.5851 51.2023 14.6568C51.4939 14.6667 52.0105 14.5827 52.7495 14.4047C53.2562 14.2836 53.4959 14.511 53.4737 15.0918C53.4218 16.429 53.3674 17.8527 53.3106 19.3628C53.3056 19.4691 53.3575 19.526 53.4638 19.5284C54.9888 19.5705 56.541 19.6051 58.1229 19.6273C58.768 19.6347 59.4131 19.694 60.0557 19.8028C60.12 19.8127 60.1818 19.7707 60.1916 19.7064C60.1916 19.699 60.1916 19.694 60.1916 19.6866L60.1373 15.0103C60.1348 14.7186 60.2782 14.5777 60.5698 14.5901C62.6806 14.6766 64.8136 14.7186 66.9664 14.7186C67.5671 14.7186 68.0836 14.6148 68.6669 14.8867C68.8919 14.993 69.0327 15.2203 69.0278 15.4675C68.9858 17.6277 69.0451 19.8053 69.2033 22.0001C69.2527 22.7045 69.0945 23.1222 68.3135 23.1024C66.7909 23.0629 65.2289 23.0505 63.6297 23.0654C63.4765 23.0654 63.3504 23.1914 63.3529 23.3471C63.3529 23.3521 63.3529 23.3545 63.3529 23.3595C63.4122 24.4396 63.3084 25.5247 63.3455 26.5899C63.3875 27.8455 63.3306 29.1333 63.1774 30.4531C63.165 30.5569 63.2417 30.6533 63.3455 30.6657C63.3554 30.6657 63.3652 30.6657 63.3751 30.6657L68.2146 30.5001C68.8078 30.4778 69.0995 30.7645 69.0921 31.3577C69.0599 33.471 69.055 35.5991 69.0772 37.742C69.0846 38.4143 69.6136 40.0184 68.3555 39.8207C67.6906 39.7193 67.0233 39.6921 66.3559 39.744C65.3475 39.8207 64.5319 39.7045 63.5679 39.6773C63.4419 39.6748 63.3356 39.7737 63.3331 39.9022C63.3331 39.9096 63.3331 39.9146 63.3331 39.922C63.4962 42.144 63.3751 44.3636 63.3455 46.5584C63.3455 46.6572 63.4221 46.7388 63.5185 46.7388C63.5234 46.7388 63.5284 46.7388 63.5333 46.7388C64.3836 46.6869 65.1127 46.6202 66.042 46.6375C66.8033 46.6523 67.9551 46.4101 68.6867 46.7438C68.7608 46.7784 68.8152 46.8327 68.8474 46.9069C69.0426 47.3493 69.139 47.7423 69.1341 48.0883C69.092 50.5328 69.0747 52.9871 69.0772 55.4538C69.0772 55.8666 68.8696 56.0742 68.4568 56.0742L63.6371 56.0594C63.343 56.0594 63.2021 56.2027 63.2169 56.4969C63.3232 58.5706 63.3158 60.5652 63.1972 62.4807C63.165 63.022 63.0019 63.6251 62.9574 64.2158C62.9302 64.5742 63.0489 64.7843 63.3084 64.8486C64.8952 65.2317 66.6476 65.5085 68.5631 65.6766C69.4504 65.7532 68.6892 66.9346 68.5557 67.3968C67.5547 70.8843 65.9333 73.964 63.689 76.6359C63.4468 76.925 63.165 76.9349 62.8437 76.668C61.5461 75.5953 60.2608 74.5152 58.983 73.4301C58.8594 73.3239 58.6765 73.3189 58.5455 73.4178C58.0067 73.8207 57.4877 74.268 56.9859 74.7574C56.2148 75.5113 54.9567 76.2972 53.2092 77.1154C53.1227 77.1574 53.1005 77.2192 53.145 77.3057C53.6418 78.2474 54.146 79.1841 54.6576 80.1159C55.0012 80.7462 55.5721 81.3369 55.8762 81.8461C56.3309 82.6074 54.801 83.0449 54.3215 83.1931C53.6986 83.3835 53.2389 83.5491 52.9448 83.685C50.6486 84.7453 48.2214 85.4943 45.6583 85.9268C45.5002 85.954 45.3519 85.8477 45.3247 85.6895C45.3247 85.6895 45.3247 85.687 45.3247 85.6846L44.3088 79.1668C44.294 79.0704 44.2446 79.0482 44.1605 79.0952C42.8802 79.807 41.4541 79.7477 40.0625 79.6785C39.2716 79.6389 38.5079 79.7304 37.7268 79.629C37.3833 79.5845 37.0273 79.545 36.6615 79.5104C36.5355 79.498 36.4737 79.5574 36.4762 79.6834C36.5132 80.8352 36.229 81.9993 36.1573 83.161C36.1153 83.8284 35.925 84.5278 35.8879 85.2372C35.7792 87.3208 32.8701 85.7291 31.9234 85.4498C31.3228 85.2743 30.7395 85.0617 30.171 84.8121C29.1057 84.3425 27.818 83.9964 26.7379 83.3439C26.0656 82.9361 25.2574 82.7038 24.5925 82.1674C24.2934 81.9252 24.2415 81.6162 24.4393 81.2405C25.2228 79.7501 25.942 78.2424 26.5945 76.7174C26.6563 76.5741 26.6019 76.406 26.466 76.3269C24.7087 75.316 23.238 73.9887 22.0492 72.3476C21.9973 72.2783 21.9009 72.2635 21.8341 72.313C21.8267 72.3179 21.8193 72.3253 21.8119 72.3327C21.5178 72.6466 21.1693 72.9136 20.7664 73.1385C19.6912 73.7391 18.6309 74.3694 17.5854 75.0244C17.1034 75.3259 16.7129 75.2468 16.4138 74.7846C15.393 73.2003 14.5453 71.5319 13.8754 69.7795C13.6036 69.0702 13.4627 68.2693 13.2452 67.5031C12.993 66.6158 12.9807 65.8125 12.9041 64.9079C12.8843 64.6756 13.0573 64.4729 13.2872 64.4531C13.3045 64.4531 13.3218 64.4531 13.3391 64.4531C14.5947 64.5001 15.8874 64.4185 17.2146 64.2134C17.6669 64.1442 18.1168 64.1466 18.5666 64.2232C18.6531 64.2381 18.6902 64.201 18.6828 64.1145L18.6877 64.117ZM51.7633 76.6284C51.919 76.4085 52.1044 76.2626 52.317 76.1885C54.6774 75.3704 55.9132 74.3471 57.9029 72.3426C58.1006 72.1424 58.281 71.9373 58.4417 71.7272C58.5134 71.6308 58.6518 71.6135 58.7457 71.6852C58.7507 71.6901 58.7581 71.695 58.763 71.7C59.5416 72.4341 60.3498 73.1632 61.1853 73.8923C61.4571 74.1271 61.645 74.4188 61.9687 74.5745C62.4309 74.797 62.866 75.0787 63.2713 75.4173C63.3405 75.4767 63.4023 75.4692 63.4592 75.3976C64.0499 74.6388 64.4651 73.7391 64.999 73.0025C66.1582 71.4034 66.6352 69.7078 67.357 67.995C67.4781 67.7033 67.5028 67.3647 67.4286 66.9767C67.4138 66.8951 67.352 66.8284 67.2704 66.8036C66.1632 66.4823 64.6456 66.2302 62.7201 66.0498C62.0108 65.9831 61.6301 65.5357 61.5782 64.7126C61.5733 64.6459 61.5857 64.5792 61.6153 64.5198C61.9836 63.7808 62.0874 63.0022 61.9267 62.1817C61.8897 61.9913 61.9564 61.7442 62.1269 61.4426C62.169 61.371 62.1887 61.2968 62.1863 61.2153C62.1591 60.0165 62.075 58.8202 62.0899 57.6215C62.1022 56.7836 61.6993 55.9259 62.3074 55.1177C62.3469 55.0633 62.4087 55.0337 62.473 55.0312L67.7475 54.9966C67.9304 54.9966 68.0218 54.9051 68.0243 54.7198L68.0737 47.9895C68.0737 47.9079 68.0342 47.8609 67.9526 47.851C66.5957 47.683 65.2338 47.6681 63.8719 47.8041C63.3356 47.8585 62.1121 47.725 62.1764 46.8525C62.2629 45.6463 62.2678 44.5662 62.1912 43.6122C62.1171 42.6754 62.2184 41.8993 62.295 41.0095C62.3618 40.2408 61.907 38.654 63.2219 38.5997C64.7469 38.5379 66.2595 38.57 67.7623 38.6936C67.8735 38.7035 67.9724 38.6219 67.9823 38.5107C67.9823 38.5057 67.9823 38.4983 67.9823 38.4934L67.9403 31.8718C67.9403 31.7557 67.8463 31.6618 67.7277 31.6618C67.7252 31.6618 67.7227 31.6618 67.7203 31.6618C66.047 31.7211 64.3761 31.5728 62.7374 31.7656C62.2851 31.8199 62.0726 31.6197 62.0998 31.165C62.2654 28.4041 62.3469 25.6408 62.3469 22.875C62.3469 22.3436 62.6311 22.0742 63.1996 22.0668C63.516 22.0619 64.0079 22.0396 64.6777 21.9976C65.7257 21.9333 66.8404 22.0594 67.9328 22.005C68.0268 22.0001 68.1009 21.9235 68.0984 21.8295L67.9749 15.8481C67.9724 15.7394 67.8859 15.6554 67.7771 15.6529L61.2866 15.5639C61.1877 15.5639 61.1408 15.6109 61.1457 15.7097C61.2273 17.0864 61.2643 18.4607 61.2569 19.8374C61.252 21.2438 60.0359 20.5616 59.2969 20.7025C58.1402 20.9249 56.8722 20.7124 55.9256 20.747C55.1347 20.7766 54.3437 20.7964 53.5528 20.8063C51.4643 20.8285 52.3096 19.1602 52.3417 17.996C52.3639 17.1581 52.4035 16.3276 52.4579 15.4996C52.4653 15.4107 52.4233 15.3736 52.3367 15.3884C50.4929 15.6998 49.0865 15.774 48.1152 15.6133C47.2377 15.4675 46.3949 15.4354 45.5867 15.5145C45.4582 15.5268 45.3642 15.6356 45.3667 15.7641C45.389 16.7602 45.3988 17.7414 45.3964 18.7103C45.3964 19.5161 45.2777 20.087 45.0404 20.4256C44.2816 21.5082 42.3463 21.0089 41.1723 20.878C40.5396 20.8087 39.9513 21.1128 39.242 20.8087C39.1703 20.7791 39.0912 20.7667 39.0121 20.7766C38.3472 20.8631 37.5514 21.1523 36.9285 20.7346C36.4169 20.391 35.9126 20.0524 36.0189 19.4197C36.2661 17.9466 36.3427 16.5946 36.2463 15.3637C36.2389 15.2723 36.1895 15.2327 36.098 15.25C33.8884 15.6306 31.5897 15.2599 29.3554 15.2624C29.3035 15.2624 29.2614 15.3019 29.259 15.3538C29.1823 16.56 29.1675 17.7711 29.212 18.9871C29.2269 19.3777 29.4592 19.8127 29.2862 20.218C28.8437 21.2611 26.7651 20.6777 25.853 20.7395C24.2539 20.8508 22.6473 20.569 21.1272 20.6654C20.6799 20.6926 20.4574 20.4825 20.4574 20.0351L20.4525 15.732C20.4525 15.5936 20.3413 15.4823 20.2053 15.4799L14.0682 15.3736C13.999 15.3736 13.9446 15.428 13.9422 15.4947C13.9422 15.5169 13.9471 15.5392 13.9595 15.559C14.2783 16.1101 14.1325 17.3262 14.1597 17.9886C14.2116 19.1972 13.9842 20.4874 14.0633 21.7776C14.0707 21.8716 14.1201 21.9185 14.214 21.921C14.8616 21.9259 15.5265 21.8122 16.1222 21.8493C17.2047 21.9185 18.6012 21.7208 19.5207 22.3609C19.5825 22.4054 19.6245 22.4648 19.6443 22.5389C19.7654 22.9912 19.8247 23.3916 19.8222 23.7451C19.8024 25.6161 19.837 27.759 19.9235 30.1713C19.9359 30.4927 19.8716 30.8263 19.7357 31.1724C19.7036 31.249 19.6541 31.3058 19.5849 31.3479C19.1277 31.6222 18.6259 31.7458 18.0822 31.7211C16.9304 31.6692 15.7366 31.6197 14.4983 31.5728C14.303 31.5654 14.2017 31.6593 14.1992 31.8545C14.1819 32.9767 14.1918 34.121 14.2239 35.2852C14.2561 36.3604 13.8359 37.2724 14.1622 38.4242C14.2141 38.6021 14.3327 38.6911 14.5181 38.6911C15.7811 38.6862 17.012 38.6293 18.2107 38.523C18.9052 38.4613 19.3452 38.6936 19.6986 39.2448C19.8692 39.5092 19.9384 39.9047 19.9087 40.4312C19.8074 42.3022 19.7827 44.4006 19.8346 46.7314C19.8543 47.7176 19.1746 47.9178 18.3096 47.8634C16.9254 47.7769 15.5364 47.6953 14.1424 47.6162C14.0756 47.6138 14.0435 47.6434 14.041 47.7102L13.9545 54.8285C13.9545 54.9224 14.0287 54.9991 14.1226 54.9991C15.7465 54.9818 17.353 54.9422 18.9398 54.8829C20.2251 54.8335 20.0002 56.1459 19.8939 56.9813C19.8272 57.5177 19.8049 57.9799 19.8296 58.3679C19.8964 59.4357 19.7629 60.6171 19.7777 61.5539C19.7975 62.6908 19.8099 63.8303 19.8148 64.9722C19.8148 65.0883 19.7604 65.1526 19.6443 65.1625L14.2066 65.637C14.1176 65.6444 14.0806 65.6914 14.0954 65.7804C14.5551 68.3583 15.4177 70.7731 16.6832 73.0297C16.8513 73.3313 17.0391 73.5661 17.2468 73.7342C17.3456 73.8157 17.4494 73.8207 17.5607 73.7539C18.5913 73.1162 19.6245 72.5008 20.6576 71.9051C21.2508 71.564 21.6166 71.2551 21.8094 70.6396C21.844 70.5259 21.9651 70.4592 22.0813 70.4963C22.1233 70.5086 22.1604 70.5334 22.1876 70.568C23.3493 72.0435 24.9558 74.1617 26.4413 74.8933C27.1185 75.227 27.7636 75.6373 28.3741 76.1242C28.5644 76.2775 28.5966 76.5543 28.4458 76.7446C28.4112 76.7891 28.3667 76.8262 28.3173 76.8534C26.9678 77.6171 26.2238 79.8391 25.6232 81.2677C25.5391 81.4679 25.5985 81.6064 25.7987 81.6879C27.1284 82.2317 28.0528 82.9682 29.7088 83.3884C30.4305 83.5738 30.9125 83.9396 31.7034 84.031C32.0717 84.0755 32.3312 84.1571 32.487 84.2782C33.0876 84.7429 33.7549 84.9282 34.4865 84.8319C34.5656 84.8195 34.6101 84.775 34.6224 84.6959C34.7806 83.5318 34.9759 82.375 35.2107 81.2232C35.3713 80.4274 35.3145 79.7131 35.2799 78.9246C35.2428 78.062 35.7965 77.8569 36.5355 78.0941C37.1979 78.3092 37.8776 78.4426 38.5746 78.4945C39.0467 78.5316 39.5954 78.3067 40.1713 78.6008C40.2455 78.6379 40.3344 78.633 40.4036 78.586C40.6384 78.4303 40.7299 78.3685 41.029 78.3759C42.2524 78.413 43.4561 78.2548 44.64 77.8964C44.7241 77.8717 44.8056 77.8791 44.8847 77.9187C45.1442 78.0497 45.2876 78.2845 45.3173 78.6206C45.4903 80.5262 45.8264 82.4022 46.3282 84.2485C46.3677 84.3894 46.4962 84.4858 46.6396 84.4834C46.8324 84.4834 47.0524 84.4487 47.302 84.382C48.916 83.9594 50.5003 83.4502 52.0574 82.8521C52.8162 82.5629 53.5874 82.3058 54.366 82.0858C54.4302 82.0661 54.4698 81.9993 54.45 81.9351C54.45 81.9277 54.4451 81.9178 54.4401 81.9104L51.746 76.8237C51.7114 76.757 51.7164 76.6902 51.7609 76.6284H51.7633Z" stroke="#EAFE01" stroke-width="6" mask="url(#path-2-outside-2_192_336)"/>
</svg>
