<svg width="42" height="45" viewBox="0 0 42 45" fill="none" xmlns="http://www.w3.org/2000/svg">
<path d="M19.7809 0.142578C20.7098 4.53302 22.9441 5.73726 26.032 3.00264C28.9582 5.8595 31.6292 4.64811 36.5759 1.22137C34.0173 8.53934 33.2748 11.8867 35.6972 13.7655C33.2396 17.6358 33.9457 19.2633 38.6596 21.2669C33.6536 23.764 33.131 25.3393 35.3458 28.392C31.9062 31.1501 31.7611 33.2006 33.237 37.3485C29.3698 34.9179 28.0193 35.7414 26.509 39.6315C22.7465 38.3503 20.9904 39.7661 19.5801 45.0004C18.1698 39.7661 16.8154 38.4005 13.0529 39.6817C11.5426 35.7916 10.1921 34.9179 6.32492 37.3485C7.8008 33.2006 7.65571 31.1501 4.21614 28.392C6.43086 25.3393 5.90826 23.764 0.902344 21.2669C5.61616 19.2633 6.32227 17.6358 3.86468 13.7655C6.28712 11.8867 5.54455 8.53934 2.98602 1.22137C7.93268 4.64811 10.6037 5.8595 13.5299 3.00264C16.6178 5.73726 18.8521 4.53302 19.7809 0.142578Z" fill="#FF0000"/>
<path d="M19.4977 13.765L17.4022 14.9175V20.0515L22.8086 14.8547L21.4255 13.765H26.811L23.6048 15.1061L19.1833 19.5276L25.5746 26.2332L27.251 27.3857H23.8982L17.4022 20.4916V26.2332L19.4977 27.3857H13.316L15.4115 26.2332V14.9175L13.316 13.765H19.4977Z" fill="white"/>
<path d="M39.6017 4.05688C39.7718 4.05688 39.9379 4.10076 40.1 4.18851C40.2621 4.27537 40.3883 4.40029 40.4788 4.56326C40.5692 4.72534 40.6144 4.89458 40.6144 5.07099C40.6144 5.2456 40.5697 5.4135 40.4801 5.57468C40.3915 5.73586 40.2666 5.86123 40.1054 5.95077C39.9451 6.03942 39.7772 6.08375 39.6017 6.08375C39.4262 6.08375 39.2578 6.03942 39.0966 5.95077C38.9364 5.86123 38.8114 5.73586 38.7219 5.57468C38.6324 5.4135 38.5876 5.2456 38.5876 5.07099C38.5876 4.89458 38.6328 4.72534 38.7232 4.56326C38.8146 4.40029 38.9413 4.27537 39.1034 4.18851C39.2654 4.10076 39.4315 4.05688 39.6017 4.05688ZM39.6017 4.22478C39.4593 4.22478 39.3205 4.26149 39.1853 4.33492C39.051 4.40745 38.9458 4.51177 38.8697 4.64788C38.7935 4.7831 38.7555 4.92413 38.7555 5.07099C38.7555 5.21695 38.7926 5.35708 38.867 5.4914C38.9422 5.62483 39.047 5.72915 39.1813 5.80437C39.3156 5.87869 39.4557 5.91585 39.6017 5.91585C39.7476 5.91585 39.8878 5.87869 40.0221 5.80437C40.1564 5.72915 40.2607 5.62483 40.3351 5.4914C40.4094 5.35708 40.4465 5.21695 40.4465 5.07099C40.4465 4.92413 40.4085 4.7831 40.3324 4.64788C40.2572 4.51177 40.1519 4.40745 40.0167 4.33492C39.8815 4.26149 39.7432 4.22478 39.6017 4.22478ZM39.1571 5.63109V4.54043H39.5318C39.6599 4.54043 39.7526 4.55073 39.8099 4.57132C39.8672 4.59102 39.9129 4.62594 39.9469 4.67609C39.9809 4.72624 39.9979 4.77952 39.9979 4.83593C39.9979 4.91563 39.9693 4.98502 39.912 5.04412C39.8555 5.10322 39.7803 5.13635 39.6863 5.14352C39.7248 5.15964 39.7557 5.17889 39.779 5.20128C39.8229 5.24426 39.8766 5.31634 39.9402 5.41753L40.0731 5.63109H39.8582L39.7615 5.45917C39.6854 5.32395 39.6241 5.23933 39.5775 5.20531C39.5453 5.18023 39.4983 5.1677 39.4365 5.1677H39.333V5.63109H39.1571ZM39.333 5.01726H39.5466C39.6487 5.01726 39.7181 5.00204 39.7548 4.97159C39.7924 4.94115 39.8112 4.90085 39.8112 4.8507C39.8112 4.81847 39.8023 4.78981 39.7844 4.76474C39.7664 4.73877 39.7414 4.71952 39.7091 4.70698C39.6778 4.69445 39.6191 4.68818 39.5332 4.68818H39.333V5.01726Z" fill="#FF0000"/>
</svg>
