<svg width="214" height="3110" viewBox="0 0 214 3110" fill="none" xmlns="http://www.w3.org/2000/svg">
<g clip-path="url(#clip0_280_627)">
<rect width="53" height="53" fill="#FF0000"/>
<rect x="53" width="54" height="53" fill="#E1E1E1"/>
<rect y="53" width="53" height="53" fill="#E1E1E1"/>
<rect x="53" y="53" width="54" height="53" fill="#FF0000"/>
<rect y="106" width="53" height="53" fill="#FF0000"/>
<rect x="53" y="106" width="54" height="53" fill="#E1E1E1"/>
<rect y="159" width="53" height="54" fill="#E1E1E1"/>
<rect x="53" y="159" width="54" height="54" fill="#FF0000"/>
<rect y="213" width="53" height="53" fill="#FF0000"/>
<rect x="53" y="213" width="54" height="53" fill="#E1E1E1"/>
<rect y="266" width="53" height="53" fill="#E1E1E1"/>
<rect x="53" y="266" width="54" height="53" fill="#FF0000"/>
<rect y="319" width="53" height="53" fill="#FF0000"/>
<rect x="53" y="319" width="54" height="53" fill="#E1E1E1"/>
<rect y="372" width="53" height="53" fill="#E1E1E1"/>
<rect x="53" y="372" width="54" height="53" fill="#FF0000"/>
<rect y="425" width="53" height="54" fill="#FF0000"/>
<rect x="53" y="425" width="54" height="54" fill="#E1E1E1"/>
<rect y="479" width="53" height="54" fill="#E1E1E1"/>
<rect x="53" y="479" width="54" height="54" fill="#FF0000"/>
<rect y="533" width="53" height="54" fill="#FF0000"/>
<rect x="53" y="533" width="54" height="54" fill="#E1E1E1"/>
<rect y="587" width="53" height="55" fill="#E1E1E1"/>
<rect x="53" y="587" width="54" height="55" fill="#FF0000"/>
<rect y="642" width="53" height="54" fill="#FF0000"/>
<rect x="53" y="642" width="54" height="54" fill="#E1E1E1"/>
<rect y="696" width="53" height="54" fill="#E1E1E1"/>
<rect x="53" y="696" width="54" height="54" fill="#FF0000"/>
<rect y="750" width="53" height="54" fill="#FF0000"/>
<rect x="53" y="750" width="54" height="54" fill="#E1E1E1"/>
</g>
<g clip-path="url(#clip1_280_627)">
<rect x="107" width="53" height="53" fill="#FF0000"/>
<rect x="160" width="54" height="53" fill="#E1E1E1"/>
<rect x="107" y="53" width="53" height="53" fill="#E1E1E1"/>
<rect x="160" y="53" width="54" height="53" fill="#FF0000"/>
<rect x="107" y="106" width="53" height="53" fill="#FF0000"/>
<rect x="160" y="106" width="54" height="53" fill="#E1E1E1"/>
<rect x="107" y="159" width="53" height="54" fill="#E1E1E1"/>
<rect x="160" y="159" width="54" height="54" fill="#FF0000"/>
<rect x="107" y="213" width="53" height="53" fill="#FF0000"/>
<rect x="160" y="213" width="54" height="53" fill="#E1E1E1"/>
<rect x="107" y="266" width="53" height="53" fill="#E1E1E1"/>
<rect x="160" y="266" width="54" height="53" fill="#FF0000"/>
<rect x="107" y="319" width="53" height="53" fill="#FF0000"/>
<rect x="160" y="319" width="54" height="53" fill="#E1E1E1"/>
<rect x="107" y="372" width="53" height="53" fill="#E1E1E1"/>
<rect x="160" y="372" width="54" height="53" fill="#FF0000"/>
<rect x="107" y="425" width="53" height="54" fill="#FF0000"/>
<rect x="160" y="425" width="54" height="54" fill="#E1E1E1"/>
<rect x="107" y="479" width="53" height="54" fill="#E1E1E1"/>
<rect x="160" y="479" width="54" height="54" fill="#FF0000"/>
<rect x="107" y="533" width="53" height="54" fill="#FF0000"/>
<rect x="160" y="533" width="54" height="54" fill="#E1E1E1"/>
<rect x="107" y="587" width="53" height="55" fill="#E1E1E1"/>
<rect x="160" y="587" width="54" height="55" fill="#FF0000"/>
<rect x="107" y="642" width="53" height="54" fill="#FF0000"/>
<rect x="160" y="642" width="54" height="54" fill="#E1E1E1"/>
<rect x="107" y="696" width="53" height="54" fill="#E1E1E1"/>
<rect x="160" y="696" width="54" height="54" fill="#FF0000"/>
<rect x="107" y="750" width="53" height="54" fill="#FF0000"/>
<rect x="160" y="750" width="54" height="54" fill="#E1E1E1"/>
</g>
<rect y="804" width="53" height="53" fill="#E1E1E1"/>
<rect x="53" y="804" width="54" height="53" fill="#FF0000"/>
<rect y="857" width="53" height="53" fill="#FF0000"/>
<rect x="53" y="857" width="54" height="53" fill="#E1E1E1"/>
<rect y="910" width="53" height="54" fill="#E1E1E1"/>
<rect x="53" y="910" width="54" height="54" fill="#FF0000"/>
<rect y="964" width="53" height="53" fill="#FF0000"/>
<rect x="53" y="964" width="54" height="53" fill="#E1E1E1"/>
<rect y="1017" width="53" height="53" fill="#E1E1E1"/>
<rect x="53" y="1017" width="54" height="53" fill="#FF0000"/>
<rect y="1070" width="53" height="53" fill="#FF0000"/>
<rect x="53" y="1070" width="54" height="53" fill="#E1E1E1"/>
<rect y="1123" width="53" height="53" fill="#E1E1E1"/>
<rect x="53" y="1123" width="54" height="53" fill="#FF0000"/>
<rect y="1176" width="53" height="54" fill="#FF0000"/>
<rect x="53" y="1176" width="54" height="54" fill="#E1E1E1"/>
<rect y="1230" width="53" height="54" fill="#E1E1E1"/>
<rect x="53" y="1230" width="54" height="54" fill="#FF0000"/>
<rect y="1284" width="53" height="54" fill="#FF0000"/>
<rect x="53" y="1284" width="54" height="54" fill="#E1E1E1"/>
<rect y="1338" width="53" height="55" fill="#E1E1E1"/>
<rect x="53" y="1338" width="54" height="55" fill="#FF0000"/>
<rect y="1393" width="53" height="54" fill="#FF0000"/>
<rect x="53" y="1393" width="54" height="54" fill="#E1E1E1"/>
<rect y="1447" width="53" height="54" fill="#E1E1E1"/>
<rect x="53" y="1447" width="54" height="54" fill="#FF0000"/>
<rect y="1501" width="53" height="54" fill="#FF0000"/>
<rect x="53" y="1501" width="54" height="54" fill="#E1E1E1"/>
<rect x="107" y="804" width="53" height="53" fill="#E1E1E1"/>
<rect x="160" y="804" width="54" height="53" fill="#FF0000"/>
<rect x="107" y="857" width="53" height="53" fill="#FF0000"/>
<rect x="160" y="857" width="54" height="53" fill="#E1E1E1"/>
<rect x="107" y="910" width="53" height="54" fill="#E1E1E1"/>
<rect x="160" y="910" width="54" height="54" fill="#FF0000"/>
<rect x="107" y="964" width="53" height="53" fill="#FF0000"/>
<rect x="160" y="964" width="54" height="53" fill="#E1E1E1"/>
<rect x="107" y="1017" width="53" height="53" fill="#E1E1E1"/>
<rect x="160" y="1017" width="54" height="53" fill="#FF0000"/>
<rect x="107" y="1070" width="53" height="53" fill="#FF0000"/>
<rect x="160" y="1070" width="54" height="53" fill="#E1E1E1"/>
<rect x="107" y="1123" width="53" height="53" fill="#E1E1E1"/>
<rect x="160" y="1123" width="54" height="53" fill="#FF0000"/>
<rect x="107" y="1176" width="53" height="54" fill="#FF0000"/>
<rect x="160" y="1176" width="54" height="54" fill="#E1E1E1"/>
<rect x="107" y="1230" width="53" height="54" fill="#E1E1E1"/>
<rect x="160" y="1230" width="54" height="54" fill="#FF0000"/>
<rect x="107" y="1284" width="53" height="54" fill="#FF0000"/>
<rect x="160" y="1284" width="54" height="54" fill="#E1E1E1"/>
<rect x="107" y="1338" width="53" height="55" fill="#E1E1E1"/>
<rect x="160" y="1338" width="54" height="55" fill="#FF0000"/>
<rect x="107" y="1393" width="53" height="54" fill="#FF0000"/>
<rect x="160" y="1393" width="54" height="54" fill="#E1E1E1"/>
<rect x="107" y="1447" width="53" height="54" fill="#E1E1E1"/>
<rect x="160" y="1447" width="54" height="54" fill="#FF0000"/>
<rect x="107" y="1501" width="53" height="54" fill="#FF0000"/>
<rect x="160" y="1501" width="54" height="54" fill="#E1E1E1"/>
<rect y="1555" width="53" height="53" fill="#E1E1E1"/>
<rect x="53" y="1555" width="54" height="53" fill="#FF0000"/>
<rect y="1608" width="53" height="53" fill="#FF0000"/>
<rect x="53" y="1608" width="54" height="53" fill="#E1E1E1"/>
<rect y="1661" width="53" height="54" fill="#E1E1E1"/>
<rect x="53" y="1661" width="54" height="54" fill="#FF0000"/>
<rect y="1715" width="53" height="53" fill="#FF0000"/>
<rect x="53" y="1715" width="54" height="53" fill="#E1E1E1"/>
<rect y="1768" width="53" height="53" fill="#E1E1E1"/>
<rect x="53" y="1768" width="54" height="53" fill="#FF0000"/>
<rect y="1821" width="53" height="53" fill="#FF0000"/>
<rect x="53" y="1821" width="54" height="53" fill="#E1E1E1"/>
<rect y="1874" width="53" height="53" fill="#E1E1E1"/>
<rect x="53" y="1874" width="54" height="53" fill="#FF0000"/>
<rect y="1927" width="53" height="54" fill="#FF0000"/>
<rect x="53" y="1927" width="54" height="54" fill="#E1E1E1"/>
<rect y="1981" width="53" height="54" fill="#E1E1E1"/>
<rect x="53" y="1981" width="54" height="54" fill="#FF0000"/>
<rect y="2035" width="53" height="54" fill="#FF0000"/>
<rect x="53" y="2035" width="54" height="54" fill="#E1E1E1"/>
<rect y="2089" width="53" height="55" fill="#E1E1E1"/>
<rect x="53" y="2089" width="54" height="55" fill="#FF0000"/>
<rect y="2144" width="53" height="54" fill="#FF0000"/>
<rect x="53" y="2144" width="54" height="54" fill="#E1E1E1"/>
<rect y="2198" width="53" height="54" fill="#E1E1E1"/>
<rect x="53" y="2198" width="54" height="54" fill="#FF0000"/>
<rect y="2252" width="53" height="54" fill="#FF0000"/>
<rect x="53" y="2252" width="54" height="54" fill="#E1E1E1"/>
<rect x="107" y="1555" width="53" height="53" fill="#E1E1E1"/>
<rect x="160" y="1555" width="54" height="53" fill="#FF0000"/>
<rect x="107" y="1608" width="53" height="53" fill="#FF0000"/>
<rect x="160" y="1608" width="54" height="53" fill="#E1E1E1"/>
<rect x="107" y="1661" width="53" height="54" fill="#E1E1E1"/>
<rect x="160" y="1661" width="54" height="54" fill="#FF0000"/>
<rect x="107" y="1715" width="53" height="53" fill="#FF0000"/>
<rect x="160" y="1715" width="54" height="53" fill="#E1E1E1"/>
<rect x="107" y="1768" width="53" height="53" fill="#E1E1E1"/>
<rect x="160" y="1768" width="54" height="53" fill="#FF0000"/>
<rect x="107" y="1821" width="53" height="53" fill="#FF0000"/>
<rect x="160" y="1821" width="54" height="53" fill="#E1E1E1"/>
<rect x="107" y="1874" width="53" height="53" fill="#E1E1E1"/>
<rect x="160" y="1874" width="54" height="53" fill="#FF0000"/>
<rect x="107" y="1927" width="53" height="54" fill="#FF0000"/>
<rect x="160" y="1927" width="54" height="54" fill="#E1E1E1"/>
<rect x="107" y="1981" width="53" height="54" fill="#E1E1E1"/>
<rect x="160" y="1981" width="54" height="54" fill="#FF0000"/>
<rect x="107" y="2035" width="53" height="54" fill="#FF0000"/>
<rect x="160" y="2035" width="54" height="54" fill="#E1E1E1"/>
<rect x="107" y="2089" width="53" height="55" fill="#E1E1E1"/>
<rect x="160" y="2089" width="54" height="55" fill="#FF0000"/>
<rect x="107" y="2144" width="53" height="54" fill="#FF0000"/>
<rect x="160" y="2144" width="54" height="54" fill="#E1E1E1"/>
<rect x="107" y="2198" width="53" height="54" fill="#E1E1E1"/>
<rect x="160" y="2198" width="54" height="54" fill="#FF0000"/>
<rect x="107" y="2252" width="53" height="54" fill="#FF0000"/>
<rect x="160" y="2252" width="54" height="54" fill="#E1E1E1"/>
<rect y="2306" width="53" height="53" fill="#E1E1E1"/>
<rect x="53" y="2306" width="54" height="53" fill="#FF0000"/>
<rect y="2359" width="53" height="53" fill="#FF0000"/>
<rect x="53" y="2359" width="54" height="53" fill="#E1E1E1"/>
<rect y="2412" width="53" height="54" fill="#E1E1E1"/>
<rect x="53" y="2412" width="54" height="54" fill="#FF0000"/>
<rect y="2466" width="53" height="53" fill="#FF0000"/>
<rect x="53" y="2466" width="54" height="53" fill="#E1E1E1"/>
<rect y="2519" width="53" height="53" fill="#E1E1E1"/>
<rect x="53" y="2519" width="54" height="53" fill="#FF0000"/>
<rect y="2572" width="53" height="53" fill="#FF0000"/>
<rect x="53" y="2572" width="54" height="53" fill="#E1E1E1"/>
<rect y="2625" width="53" height="53" fill="#E1E1E1"/>
<rect x="53" y="2625" width="54" height="53" fill="#FF0000"/>
<rect y="2678" width="53" height="54" fill="#FF0000"/>
<rect x="53" y="2678" width="54" height="54" fill="#E1E1E1"/>
<rect y="2732" width="53" height="54" fill="#E1E1E1"/>
<rect x="53" y="2732" width="54" height="54" fill="#FF0000"/>
<rect y="2786" width="53" height="54" fill="#FF0000"/>
<rect x="53" y="2786" width="54" height="54" fill="#E1E1E1"/>
<rect y="2840" width="53" height="55" fill="#E1E1E1"/>
<rect x="53" y="2840" width="54" height="55" fill="#FF0000"/>
<rect y="2895" width="53" height="54" fill="#FF0000"/>
<rect x="53" y="2895" width="54" height="54" fill="#E1E1E1"/>
<rect y="2949" width="53" height="54" fill="#E1E1E1"/>
<rect x="53" y="2949" width="54" height="54" fill="#FF0000"/>
<rect y="3003" width="53" height="54" fill="#FF0000"/>
<rect x="53" y="3003" width="54" height="54" fill="#E1E1E1"/>
<rect x="107" y="2306" width="53" height="53" fill="#E1E1E1"/>
<rect x="160" y="2306" width="54" height="53" fill="#FF0000"/>
<rect x="107" y="2359" width="53" height="53" fill="#FF0000"/>
<rect x="160" y="2359" width="54" height="53" fill="#E1E1E1"/>
<rect x="107" y="2412" width="53" height="54" fill="#E1E1E1"/>
<rect x="160" y="2412" width="54" height="54" fill="#FF0000"/>
<rect x="107" y="2466" width="53" height="53" fill="#FF0000"/>
<rect x="160" y="2466" width="54" height="53" fill="#E1E1E1"/>
<rect x="107" y="2519" width="53" height="53" fill="#E1E1E1"/>
<rect x="160" y="2519" width="54" height="53" fill="#FF0000"/>
<rect x="107" y="2572" width="53" height="53" fill="#FF0000"/>
<rect x="160" y="2572" width="54" height="53" fill="#E1E1E1"/>
<rect x="107" y="2625" width="53" height="53" fill="#E1E1E1"/>
<rect x="160" y="2625" width="54" height="53" fill="#FF0000"/>
<rect x="107" y="2678" width="53" height="54" fill="#FF0000"/>
<rect x="160" y="2678" width="54" height="54" fill="#E1E1E1"/>
<rect x="107" y="2732" width="53" height="54" fill="#E1E1E1"/>
<rect x="160" y="2732" width="54" height="54" fill="#FF0000"/>
<rect x="107" y="2786" width="53" height="54" fill="#FF0000"/>
<rect x="160" y="2786" width="54" height="54" fill="#E1E1E1"/>
<rect x="107" y="2840" width="53" height="55" fill="#E1E1E1"/>
<rect x="160" y="2840" width="54" height="55" fill="#FF0000"/>
<rect x="107" y="2895" width="53" height="54" fill="#FF0000"/>
<rect x="160" y="2895" width="54" height="54" fill="#E1E1E1"/>
<rect x="107" y="2949" width="53" height="54" fill="#E1E1E1"/>
<rect x="160" y="2949" width="54" height="54" fill="#FF0000"/>
<rect x="107" y="3003" width="53" height="54" fill="#FF0000"/>
<rect x="160" y="3003" width="54" height="54" fill="#E1E1E1"/>
<defs>
<clipPath id="clip0_280_627">
<rect width="107" height="804" fill="white"/>
</clipPath>
<clipPath id="clip1_280_627">
<rect width="107" height="804" fill="white" transform="translate(107)"/>
</clipPath>
</defs>
</svg>
