<svg width="182" height="234" viewBox="0 0 182 234" fill="none" xmlns="http://www.w3.org/2000/svg">
<mask id="path-1-outside-1_181_416" maskUnits="userSpaceOnUse" x="2.66992" y="-0.0380859" width="177" height="233" fill="black">
<rect fill="white" x="2.66992" y="-0.0380859" width="177" height="233"/>
<path d="M67.4392 218.714C66.2809 218.156 63.6229 217.086 61.8184 216.08C60.881 215.556 60.0261 215.137 59.2539 214.823C55.3767 213.251 52.0332 211.586 49.2235 209.827C48.2535 209.22 47.442 208.736 46.789 208.376C45.6836 207.76 44.8762 207.275 44.3668 206.921C41.5733 204.981 38.7053 203.172 35.7629 201.493C35.1492 201.139 34.4623 200.591 34.0193 200.189C32.1227 198.459 30.2098 196.748 28.2807 195.055C25.5685 192.672 22.4933 189.178 19.055 184.575C18.8138 184.256 18.4575 183.638 17.9861 182.723C16.3658 179.565 14.751 176.403 13.1416 173.236C12.1052 171.19 11.3005 168.802 10.2844 166.608C9.34967 164.587 8.84977 162.584 8.14667 160.503C7.78902 159.449 7.97191 158.542 7.7118 157.536C6.69168 153.62 6.74045 149.159 6.78516 145.528C6.8827 137.6 6.84612 129.672 6.67543 121.744C6.63072 119.568 6.87457 117.495 6.82174 115.362C6.72826 111.757 7.11436 108 7.07372 104.628C7.01682 100.039 7.11165 95.4533 7.35821 90.8705C7.39614 90.1336 7.39614 88.8641 7.35821 87.062C7.32163 85.3607 7.55329 83.4867 7.56142 81.9711C7.58852 76.326 7.64677 70.6824 7.73618 65.0402C7.75244 63.8485 7.93939 61.8492 7.78089 60.2257C7.59394 58.2955 7.91501 56.5381 7.77276 54.6252C7.71857 53.8883 7.69825 53.0276 7.7118 52.043C7.72805 50.8211 7.4842 49.8495 7.6549 48.6016C7.86624 47.086 7.63458 45.4754 7.70773 44.1238C7.93126 40.0779 7.74838 35.5181 7.78089 32.0032C7.80121 29.529 7.91094 27.1282 7.69148 24.654C7.64271 24.1042 7.63864 23.5788 7.67928 23.0779C7.88656 20.5432 7.6996 17.9999 7.80121 15.4998C7.87978 13.6085 7.82695 11.7216 7.64271 9.83892C7.49233 8.28876 7.7565 7.01927 7.95158 5.52956C8.04642 4.82716 8.4271 4.47884 9.09362 4.4846C11.7922 4.51483 14.4299 4.70914 17.1285 4.61846C17.7788 4.59543 18.3627 4.59975 18.8802 4.63141C21.9392 4.80989 24.9995 4.81853 28.0612 4.65732C29.565 4.5796 31.5158 4.77391 33.2106 4.70914C39.063 4.49324 45.0943 4.76959 50.7191 4.57528C53.5424 4.4774 56.3656 4.40688 59.1889 4.3637C61.1153 4.33347 65.2039 4.66164 68.2195 4.45869C70.9873 4.2687 73.3851 4.42415 75.9943 4.49755C78.8312 4.57096 82.5336 4.24279 85.8419 4.45006C86.9717 4.52346 88.2967 4.34211 89.2274 4.41983C90.6823 4.54073 93.7644 4.59111 98.4734 4.57096C105.045 4.54505 111.406 4.60119 118.181 4.39392C121.261 4.29893 124.618 4.49755 127.398 4.45006C132.189 4.36658 136.979 4.31908 141.769 4.30756C142.375 4.30756 143.074 4.18666 143.749 4.19961C152.243 4.36658 158.821 4.36226 163.484 4.18666C165.972 4.09166 168.369 4.11757 170.78 4.21257C172.767 4.29029 173.937 2.98625 174.852 5.6591C175.226 6.75299 175.38 7.87279 175.315 9.0185C175.201 11.0264 175.201 12.9954 175.169 15.0032C175.153 16.1389 174.738 17.1709 174.762 18.3022C174.909 25.116 175.218 32.0723 174.97 38.8731C174.901 40.8378 175.018 42.9882 174.856 45.0738C174.409 50.7995 175.071 56.5726 174.803 62.3328C174.608 66.5472 175.051 69.1726 175.226 72.6572C175.352 75.1487 174.75 77.8258 175.157 80.6152C175.327 81.8027 174.909 82.662 174.982 83.8063C175.161 86.5611 175.092 89.6471 174.775 93.064C174.669 94.2011 174.803 95.4965 175.177 96.9502C175.256 97.2496 175.207 97.6973 175.031 98.2931C174.604 99.7354 174.884 101.812 175.01 103.315C175.116 104.55 174.726 105.625 174.823 106.851C174.997 109.117 175.002 111.382 174.84 113.648C174.685 115.79 175.014 117.759 174.803 119.857C174.616 121.692 174.86 123.743 174.819 125.302C174.738 128.374 174.664 131.445 174.596 134.517C174.433 141.852 174.151 146.672 173.75 148.978C172.617 155.52 171.783 160.818 169.8 168.314C169.217 170.507 168.674 172.086 168.17 173.051C167.103 175.089 165.957 177.075 164.732 179.01C163.273 181.311 161.33 183.777 159.615 186.156C157.14 189.58 154.494 192.667 151.889 195.91C150.377 197.784 147.813 199.952 145.573 201.528C140.436 205.151 135.181 208.044 130.585 210.764C129.493 211.412 128.489 211.975 127.573 212.452C125.606 213.48 123.708 214.607 121.66 215.376C120.343 215.872 119.026 216.295 117.766 216.952C112.405 219.737 106.61 221.693 100.997 223.839C97.498 225.178 92.9867 226.343 89.077 227.95C88.9778 227.991 88.8709 228.007 88.7649 227.997C88.659 227.986 88.5571 227.95 88.4674 227.889C86.7008 226.709 84.8123 225.832 82.8019 225.26C81.4173 224.865 80.3146 224.49 79.4936 224.133C77.364 223.204 75.1368 222.436 73.1169 221.451C71.2284 220.53 69.3358 219.617 67.4392 218.714ZM11.0973 87.8047C11.0079 89.0872 11.2151 90.5207 11.1948 91.6477C11.1298 95.1885 11.0119 98.6774 11.1786 102.266C11.333 105.565 11.2883 108.859 11.146 112.279C11.062 114.326 11.1962 118.347 11.5484 124.344C11.5972 125.186 11.1176 125.773 11.1664 126.731C11.2151 127.693 11.2287 128.31 11.207 128.584C11.0065 130.835 10.9604 132.417 11.0688 133.329C11.1853 134.294 11.1637 136.159 11.0038 138.926C10.955 139.729 11.3371 140.411 11.3167 141.3C11.1867 146.409 11.8776 150.718 12.5766 155.451C12.7555 156.648 12.9248 157.486 13.0847 157.964C13.8081 160.127 14.1779 162.433 14.9542 164.475C15.32 165.442 15.679 166.414 16.0312 167.39C17.0635 170.244 18.4616 172.995 19.754 175.724C21.1968 178.768 24.2002 183.332 26.9842 186.67C29.4715 189.662 31.78 192.853 34.7428 195.37C36.9537 197.244 39.0183 199.093 41.4446 200.651C41.8212 200.893 42.4566 201.354 43.3507 202.033C46.6549 204.538 51.2678 206.563 54.576 208.057C56.2627 208.821 57.738 209.633 59.319 210.432C59.9123 210.731 60.9162 211.112 62.3305 211.576C63.3357 211.907 64.5103 212.383 65.8542 213.005C68.6043 214.28 71.3544 215.56 74.1045 216.844C75.4457 217.47 77.0957 217.984 78.5589 218.683C80.3308 219.532 81.4187 220.043 81.8224 220.216C83.8748 221.101 85.7525 222.159 88.0325 222.725C88.6096 222.869 89.2003 222.854 89.8045 222.682C91.9341 222.082 94.1085 221.607 96.1731 220.778C96.8233 220.516 97.4845 220.294 98.1564 220.113C99.3892 219.781 100.377 219.461 101.119 219.15C103.359 218.204 105.732 217.466 107.878 216.516C110.501 215.356 113.151 214.272 115.828 213.264C117.579 212.604 119.282 211.641 121.05 210.872C123.684 209.728 126.297 208.277 129.264 207.046C132.942 205.513 136.222 203.272 139.607 201.118C140.751 200.392 141.811 199.624 142.789 198.812C144.789 197.158 146.89 195.565 148.67 193.643C152.442 189.571 155.892 184.977 159.176 179.951C160.314 178.211 161.155 176.302 162.078 174.411C162.812 172.914 163.444 171.479 163.972 170.106C165.329 166.574 166.675 163.115 167.609 159.423C168.808 154.691 169.361 151.75 169.662 147.117C169.942 142.816 169.654 138.325 169.613 133.947C169.605 133.023 169.873 132.06 169.861 131.062C169.824 128.321 170.32 124.633 169.52 122.059C169.48 121.931 169.483 121.791 169.528 121.662C169.785 120.922 169.8 120.174 169.572 119.417C169.533 119.277 169.537 119.128 169.585 118.994C170.075 117.618 170.242 116.495 170.085 115.626C169.632 113.144 169.548 110.657 169.833 108.164C170.011 106.614 169.967 105.31 169.938 103.846C169.906 102.136 170.507 100.517 170.247 98.6083C170.229 98.4785 170.176 98.3573 170.097 98.2586C169.036 96.9632 170.174 95.7498 170.141 94.2947C170.08 91.8291 170.491 89.2124 170.028 86.8029C169.816 85.6759 170.028 85.27 170.312 84.2121C170.58 83.206 170.231 81.8631 170.3 80.8355C170.387 79.6034 170.473 78.3699 170.56 77.1349C170.645 75.9604 170.446 74.7255 170.479 73.4862C170.509 72.2426 170.507 71.3344 170.475 70.7616C170.178 65.2302 170.8 59.7118 170.666 53.9257C170.617 51.7926 170.857 49.6941 170.792 47.5437C170.7 44.3916 170.693 41.9087 170.771 40.0951C171.121 31.8348 170.832 23.6263 171.003 15.3746C171.044 13.4272 170.702 10.9875 170.922 8.75942C170.965 8.32762 170.785 8.14914 170.381 8.22399C168.325 8.60829 166.63 8.68601 164.321 8.52625C161.55 8.32762 158.29 8.52625 156.047 8.4917C148.975 8.39383 141.903 8.40966 134.832 8.5392C132.726 8.57806 130.264 8.4183 127.971 8.47443C126.004 8.51761 124.288 8.53344 122.822 8.52193C120.485 8.50466 117.965 8.66442 115.828 8.64283C109.191 8.57375 102.704 8.53488 95.9089 8.44421C94.076 8.4183 91.9626 8.86305 89.9305 8.74647C87.3809 8.59678 86.0952 8.52193 86.0736 8.52193C82.6271 8.51761 79.1604 8.42693 75.7139 8.59965C74.9363 8.63996 73.8877 8.62124 72.5682 8.54352C71.2839 8.47155 68.5067 8.54064 64.2366 8.75078C61.4689 8.88464 58.6037 8.75078 55.8319 8.65147C53.5722 8.56511 50.7069 8.94509 48.1302 8.78533C44.8464 8.58238 41.7047 8.91919 38.4452 8.69897C37.7191 8.65003 37.0282 8.65435 36.3725 8.71192C32.1295 9.07895 27.7889 8.99259 23.4809 9.16531C22.0747 9.22145 20.5384 9.07032 19.0509 9.10918C16.2791 9.17395 14.5112 9.13509 12.2109 8.96237C11.9345 8.93934 11.795 9.07463 11.7922 9.36826C11.7597 12.3563 11.6094 15.4912 11.6053 18.3411C11.5999 27.3801 11.5999 36.4191 11.6053 45.4581C11.6094 50.2295 11.7069 55.0268 11.6012 59.8068C11.524 63.4426 11.7597 66.4479 11.6622 71.1113C11.6094 73.5942 11.2029 78.2317 11.4224 81.8502C11.5403 83.7458 11.2517 85.555 11.0973 87.8047Z"/>
</mask>
<path d="M67.4392 218.714C66.2809 218.156 63.6229 217.086 61.8184 216.08C60.881 215.556 60.0261 215.137 59.2539 214.823C55.3767 213.251 52.0332 211.586 49.2235 209.827C48.2535 209.22 47.442 208.736 46.789 208.376C45.6836 207.76 44.8762 207.275 44.3668 206.921C41.5733 204.981 38.7053 203.172 35.7629 201.493C35.1492 201.139 34.4623 200.591 34.0193 200.189C32.1227 198.459 30.2098 196.748 28.2807 195.055C25.5685 192.672 22.4933 189.178 19.055 184.575C18.8138 184.256 18.4575 183.638 17.9861 182.723C16.3658 179.565 14.751 176.403 13.1416 173.236C12.1052 171.19 11.3005 168.802 10.2844 166.608C9.34967 164.587 8.84977 162.584 8.14667 160.503C7.78902 159.449 7.97191 158.542 7.7118 157.536C6.69168 153.62 6.74045 149.159 6.78516 145.528C6.8827 137.6 6.84612 129.672 6.67543 121.744C6.63072 119.568 6.87457 117.495 6.82174 115.362C6.72826 111.757 7.11436 108 7.07372 104.628C7.01682 100.039 7.11165 95.4533 7.35821 90.8705C7.39614 90.1336 7.39614 88.8641 7.35821 87.062C7.32163 85.3607 7.55329 83.4867 7.56142 81.9711C7.58852 76.326 7.64677 70.6824 7.73618 65.0402C7.75244 63.8485 7.93939 61.8492 7.78089 60.2257C7.59394 58.2955 7.91501 56.5381 7.77276 54.6252C7.71857 53.8883 7.69825 53.0276 7.7118 52.043C7.72805 50.8211 7.4842 49.8495 7.6549 48.6016C7.86624 47.086 7.63458 45.4754 7.70773 44.1238C7.93126 40.0779 7.74838 35.5181 7.78089 32.0032C7.80121 29.529 7.91094 27.1282 7.69148 24.654C7.64271 24.1042 7.63864 23.5788 7.67928 23.0779C7.88656 20.5432 7.6996 17.9999 7.80121 15.4998C7.87978 13.6085 7.82695 11.7216 7.64271 9.83892C7.49233 8.28876 7.7565 7.01927 7.95158 5.52956C8.04642 4.82716 8.4271 4.47884 9.09362 4.4846C11.7922 4.51483 14.4299 4.70914 17.1285 4.61846C17.7788 4.59543 18.3627 4.59975 18.8802 4.63141C21.9392 4.80989 24.9995 4.81853 28.0612 4.65732C29.565 4.5796 31.5158 4.77391 33.2106 4.70914C39.063 4.49324 45.0943 4.76959 50.7191 4.57528C53.5424 4.4774 56.3656 4.40688 59.1889 4.3637C61.1153 4.33347 65.2039 4.66164 68.2195 4.45869C70.9873 4.2687 73.3851 4.42415 75.9943 4.49755C78.8312 4.57096 82.5336 4.24279 85.8419 4.45006C86.9717 4.52346 88.2967 4.34211 89.2274 4.41983C90.6823 4.54073 93.7644 4.59111 98.4734 4.57096C105.045 4.54505 111.406 4.60119 118.181 4.39392C121.261 4.29893 124.618 4.49755 127.398 4.45006C132.189 4.36658 136.979 4.31908 141.769 4.30756C142.375 4.30756 143.074 4.18666 143.749 4.19961C152.243 4.36658 158.821 4.36226 163.484 4.18666C165.972 4.09166 168.369 4.11757 170.78 4.21257C172.767 4.29029 173.937 2.98625 174.852 5.6591C175.226 6.75299 175.38 7.87279 175.315 9.0185C175.201 11.0264 175.201 12.9954 175.169 15.0032C175.153 16.1389 174.738 17.1709 174.762 18.3022C174.909 25.116 175.218 32.0723 174.97 38.8731C174.901 40.8378 175.018 42.9882 174.856 45.0738C174.409 50.7995 175.071 56.5726 174.803 62.3328C174.608 66.5472 175.051 69.1726 175.226 72.6572C175.352 75.1487 174.75 77.8258 175.157 80.6152C175.327 81.8027 174.909 82.662 174.982 83.8063C175.161 86.5611 175.092 89.6471 174.775 93.064C174.669 94.2011 174.803 95.4965 175.177 96.9502C175.256 97.2496 175.207 97.6973 175.031 98.2931C174.604 99.7354 174.884 101.812 175.01 103.315C175.116 104.55 174.726 105.625 174.823 106.851C174.997 109.117 175.002 111.382 174.84 113.648C174.685 115.79 175.014 117.759 174.803 119.857C174.616 121.692 174.86 123.743 174.819 125.302C174.738 128.374 174.664 131.445 174.596 134.517C174.433 141.852 174.151 146.672 173.75 148.978C172.617 155.52 171.783 160.818 169.8 168.314C169.217 170.507 168.674 172.086 168.17 173.051C167.103 175.089 165.957 177.075 164.732 179.01C163.273 181.311 161.33 183.777 159.615 186.156C157.14 189.58 154.494 192.667 151.889 195.91C150.377 197.784 147.813 199.952 145.573 201.528C140.436 205.151 135.181 208.044 130.585 210.764C129.493 211.412 128.489 211.975 127.573 212.452C125.606 213.48 123.708 214.607 121.66 215.376C120.343 215.872 119.026 216.295 117.766 216.952C112.405 219.737 106.61 221.693 100.997 223.839C97.498 225.178 92.9867 226.343 89.077 227.95C88.9778 227.991 88.8709 228.007 88.7649 227.997C88.659 227.986 88.5571 227.95 88.4674 227.889C86.7008 226.709 84.8123 225.832 82.8019 225.26C81.4173 224.865 80.3146 224.49 79.4936 224.133C77.364 223.204 75.1368 222.436 73.1169 221.451C71.2284 220.53 69.3358 219.617 67.4392 218.714ZM11.0973 87.8047C11.0079 89.0872 11.2151 90.5207 11.1948 91.6477C11.1298 95.1885 11.0119 98.6774 11.1786 102.266C11.333 105.565 11.2883 108.859 11.146 112.279C11.062 114.326 11.1962 118.347 11.5484 124.344C11.5972 125.186 11.1176 125.773 11.1664 126.731C11.2151 127.693 11.2287 128.31 11.207 128.584C11.0065 130.835 10.9604 132.417 11.0688 133.329C11.1853 134.294 11.1637 136.159 11.0038 138.926C10.955 139.729 11.3371 140.411 11.3167 141.3C11.1867 146.409 11.8776 150.718 12.5766 155.451C12.7555 156.648 12.9248 157.486 13.0847 157.964C13.8081 160.127 14.1779 162.433 14.9542 164.475C15.32 165.442 15.679 166.414 16.0312 167.39C17.0635 170.244 18.4616 172.995 19.754 175.724C21.1968 178.768 24.2002 183.332 26.9842 186.67C29.4715 189.662 31.78 192.853 34.7428 195.37C36.9537 197.244 39.0183 199.093 41.4446 200.651C41.8212 200.893 42.4566 201.354 43.3507 202.033C46.6549 204.538 51.2678 206.563 54.576 208.057C56.2627 208.821 57.738 209.633 59.319 210.432C59.9123 210.731 60.9162 211.112 62.3305 211.576C63.3357 211.907 64.5103 212.383 65.8542 213.005C68.6043 214.28 71.3544 215.56 74.1045 216.844C75.4457 217.47 77.0957 217.984 78.5589 218.683C80.3308 219.532 81.4187 220.043 81.8224 220.216C83.8748 221.101 85.7525 222.159 88.0325 222.725C88.6096 222.869 89.2003 222.854 89.8045 222.682C91.9341 222.082 94.1085 221.607 96.1731 220.778C96.8233 220.516 97.4845 220.294 98.1564 220.113C99.3892 219.781 100.377 219.461 101.119 219.15C103.359 218.204 105.732 217.466 107.878 216.516C110.501 215.356 113.151 214.272 115.828 213.264C117.579 212.604 119.282 211.641 121.05 210.872C123.684 209.728 126.297 208.277 129.264 207.046C132.942 205.513 136.222 203.272 139.607 201.118C140.751 200.392 141.811 199.624 142.789 198.812C144.789 197.158 146.89 195.565 148.67 193.643C152.442 189.571 155.892 184.977 159.176 179.951C160.314 178.211 161.155 176.302 162.078 174.411C162.812 172.914 163.444 171.479 163.972 170.106C165.329 166.574 166.675 163.115 167.609 159.423C168.808 154.691 169.361 151.75 169.662 147.117C169.942 142.816 169.654 138.325 169.613 133.947C169.605 133.023 169.873 132.06 169.861 131.062C169.824 128.321 170.32 124.633 169.52 122.059C169.48 121.931 169.483 121.791 169.528 121.662C169.785 120.922 169.8 120.174 169.572 119.417C169.533 119.277 169.537 119.128 169.585 118.994C170.075 117.618 170.242 116.495 170.085 115.626C169.632 113.144 169.548 110.657 169.833 108.164C170.011 106.614 169.967 105.31 169.938 103.846C169.906 102.136 170.507 100.517 170.247 98.6083C170.229 98.4785 170.176 98.3573 170.097 98.2586C169.036 96.9632 170.174 95.7498 170.141 94.2947C170.08 91.8291 170.491 89.2124 170.028 86.8029C169.816 85.6759 170.028 85.27 170.312 84.2121C170.58 83.206 170.231 81.8631 170.3 80.8355C170.387 79.6034 170.473 78.3699 170.56 77.1349C170.645 75.9604 170.446 74.7255 170.479 73.4862C170.509 72.2426 170.507 71.3344 170.475 70.7616C170.178 65.2302 170.8 59.7118 170.666 53.9257C170.617 51.7926 170.857 49.6941 170.792 47.5437C170.7 44.3916 170.693 41.9087 170.771 40.0951C171.121 31.8348 170.832 23.6263 171.003 15.3746C171.044 13.4272 170.702 10.9875 170.922 8.75942C170.965 8.32762 170.785 8.14914 170.381 8.22399C168.325 8.60829 166.63 8.68601 164.321 8.52625C161.55 8.32762 158.29 8.52625 156.047 8.4917C148.975 8.39383 141.903 8.40966 134.832 8.5392C132.726 8.57806 130.264 8.4183 127.971 8.47443C126.004 8.51761 124.288 8.53344 122.822 8.52193C120.485 8.50466 117.965 8.66442 115.828 8.64283C109.191 8.57375 102.704 8.53488 95.9089 8.44421C94.076 8.4183 91.9626 8.86305 89.9305 8.74647C87.3809 8.59678 86.0952 8.52193 86.0736 8.52193C82.6271 8.51761 79.1604 8.42693 75.7139 8.59965C74.9363 8.63996 73.8877 8.62124 72.5682 8.54352C71.2839 8.47155 68.5067 8.54064 64.2366 8.75078C61.4689 8.88464 58.6037 8.75078 55.8319 8.65147C53.5722 8.56511 50.7069 8.94509 48.1302 8.78533C44.8464 8.58238 41.7047 8.91919 38.4452 8.69897C37.7191 8.65003 37.0282 8.65435 36.3725 8.71192C32.1295 9.07895 27.7889 8.99259 23.4809 9.16531C22.0747 9.22145 20.5384 9.07032 19.0509 9.10918C16.2791 9.17395 14.5112 9.13509 12.2109 8.96237C11.9345 8.93934 11.795 9.07463 11.7922 9.36826C11.7597 12.3563 11.6094 15.4912 11.6053 18.3411C11.5999 27.3801 11.5999 36.4191 11.6053 45.4581C11.6094 50.2295 11.7069 55.0268 11.6012 59.8068C11.524 63.4426 11.7597 66.4479 11.6622 71.1113C11.6094 73.5942 11.2029 78.2317 11.4224 81.8502C11.5403 83.7458 11.2517 85.555 11.0973 87.8047Z" fill="#010101"/>
<path d="M67.4392 218.714C66.2809 218.156 63.6229 217.086 61.8184 216.08C60.881 215.556 60.0261 215.137 59.2539 214.823C55.3767 213.251 52.0332 211.586 49.2235 209.827C48.2535 209.22 47.442 208.736 46.789 208.376C45.6836 207.76 44.8762 207.275 44.3668 206.921C41.5733 204.981 38.7053 203.172 35.7629 201.493C35.1492 201.139 34.4623 200.591 34.0193 200.189C32.1227 198.459 30.2098 196.748 28.2807 195.055C25.5685 192.672 22.4933 189.178 19.055 184.575C18.8138 184.256 18.4575 183.638 17.9861 182.723C16.3658 179.565 14.751 176.403 13.1416 173.236C12.1052 171.19 11.3005 168.802 10.2844 166.608C9.34967 164.587 8.84977 162.584 8.14667 160.503C7.78902 159.449 7.97191 158.542 7.7118 157.536C6.69168 153.62 6.74045 149.159 6.78516 145.528C6.8827 137.6 6.84612 129.672 6.67543 121.744C6.63072 119.568 6.87457 117.495 6.82174 115.362C6.72826 111.757 7.11436 108 7.07372 104.628C7.01682 100.039 7.11165 95.4533 7.35821 90.8705C7.39614 90.1336 7.39614 88.8641 7.35821 87.062C7.32163 85.3607 7.55329 83.4867 7.56142 81.9711C7.58852 76.326 7.64677 70.6824 7.73618 65.0402C7.75244 63.8485 7.93939 61.8492 7.78089 60.2257C7.59394 58.2955 7.91501 56.5381 7.77276 54.6252C7.71857 53.8883 7.69825 53.0276 7.7118 52.043C7.72805 50.8211 7.4842 49.8495 7.6549 48.6016C7.86624 47.086 7.63458 45.4754 7.70773 44.1238C7.93126 40.0779 7.74838 35.5181 7.78089 32.0032C7.80121 29.529 7.91094 27.1282 7.69148 24.654C7.64271 24.1042 7.63864 23.5788 7.67928 23.0779C7.88656 20.5432 7.6996 17.9999 7.80121 15.4998C7.87978 13.6085 7.82695 11.7216 7.64271 9.83892C7.49233 8.28876 7.7565 7.01927 7.95158 5.52956C8.04642 4.82716 8.4271 4.47884 9.09362 4.4846C11.7922 4.51483 14.4299 4.70914 17.1285 4.61846C17.7788 4.59543 18.3627 4.59975 18.8802 4.63141C21.9392 4.80989 24.9995 4.81853 28.0612 4.65732C29.565 4.5796 31.5158 4.77391 33.2106 4.70914C39.063 4.49324 45.0943 4.76959 50.7191 4.57528C53.5424 4.4774 56.3656 4.40688 59.1889 4.3637C61.1153 4.33347 65.2039 4.66164 68.2195 4.45869C70.9873 4.2687 73.3851 4.42415 75.9943 4.49755C78.8312 4.57096 82.5336 4.24279 85.8419 4.45006C86.9717 4.52346 88.2967 4.34211 89.2274 4.41983C90.6823 4.54073 93.7644 4.59111 98.4734 4.57096C105.045 4.54505 111.406 4.60119 118.181 4.39392C121.261 4.29893 124.618 4.49755 127.398 4.45006C132.189 4.36658 136.979 4.31908 141.769 4.30756C142.375 4.30756 143.074 4.18666 143.749 4.19961C152.243 4.36658 158.821 4.36226 163.484 4.18666C165.972 4.09166 168.369 4.11757 170.78 4.21257C172.767 4.29029 173.937 2.98625 174.852 5.6591C175.226 6.75299 175.38 7.87279 175.315 9.0185C175.201 11.0264 175.201 12.9954 175.169 15.0032C175.153 16.1389 174.738 17.1709 174.762 18.3022C174.909 25.116 175.218 32.0723 174.97 38.8731C174.901 40.8378 175.018 42.9882 174.856 45.0738C174.409 50.7995 175.071 56.5726 174.803 62.3328C174.608 66.5472 175.051 69.1726 175.226 72.6572C175.352 75.1487 174.75 77.8258 175.157 80.6152C175.327 81.8027 174.909 82.662 174.982 83.8063C175.161 86.5611 175.092 89.6471 174.775 93.064C174.669 94.2011 174.803 95.4965 175.177 96.9502C175.256 97.2496 175.207 97.6973 175.031 98.2931C174.604 99.7354 174.884 101.812 175.01 103.315C175.116 104.55 174.726 105.625 174.823 106.851C174.997 109.117 175.002 111.382 174.84 113.648C174.685 115.79 175.014 117.759 174.803 119.857C174.616 121.692 174.86 123.743 174.819 125.302C174.738 128.374 174.664 131.445 174.596 134.517C174.433 141.852 174.151 146.672 173.75 148.978C172.617 155.52 171.783 160.818 169.8 168.314C169.217 170.507 168.674 172.086 168.17 173.051C167.103 175.089 165.957 177.075 164.732 179.01C163.273 181.311 161.33 183.777 159.615 186.156C157.14 189.58 154.494 192.667 151.889 195.91C150.377 197.784 147.813 199.952 145.573 201.528C140.436 205.151 135.181 208.044 130.585 210.764C129.493 211.412 128.489 211.975 127.573 212.452C125.606 213.48 123.708 214.607 121.66 215.376C120.343 215.872 119.026 216.295 117.766 216.952C112.405 219.737 106.61 221.693 100.997 223.839C97.498 225.178 92.9867 226.343 89.077 227.95C88.9778 227.991 88.8709 228.007 88.7649 227.997C88.659 227.986 88.5571 227.95 88.4674 227.889C86.7008 226.709 84.8123 225.832 82.8019 225.26C81.4173 224.865 80.3146 224.49 79.4936 224.133C77.364 223.204 75.1368 222.436 73.1169 221.451C71.2284 220.53 69.3358 219.617 67.4392 218.714ZM11.0973 87.8047C11.0079 89.0872 11.2151 90.5207 11.1948 91.6477C11.1298 95.1885 11.0119 98.6774 11.1786 102.266C11.333 105.565 11.2883 108.859 11.146 112.279C11.062 114.326 11.1962 118.347 11.5484 124.344C11.5972 125.186 11.1176 125.773 11.1664 126.731C11.2151 127.693 11.2287 128.31 11.207 128.584C11.0065 130.835 10.9604 132.417 11.0688 133.329C11.1853 134.294 11.1637 136.159 11.0038 138.926C10.955 139.729 11.3371 140.411 11.3167 141.3C11.1867 146.409 11.8776 150.718 12.5766 155.451C12.7555 156.648 12.9248 157.486 13.0847 157.964C13.8081 160.127 14.1779 162.433 14.9542 164.475C15.32 165.442 15.679 166.414 16.0312 167.39C17.0635 170.244 18.4616 172.995 19.754 175.724C21.1968 178.768 24.2002 183.332 26.9842 186.67C29.4715 189.662 31.78 192.853 34.7428 195.37C36.9537 197.244 39.0183 199.093 41.4446 200.651C41.8212 200.893 42.4566 201.354 43.3507 202.033C46.6549 204.538 51.2678 206.563 54.576 208.057C56.2627 208.821 57.738 209.633 59.319 210.432C59.9123 210.731 60.9162 211.112 62.3305 211.576C63.3357 211.907 64.5103 212.383 65.8542 213.005C68.6043 214.28 71.3544 215.56 74.1045 216.844C75.4457 217.47 77.0957 217.984 78.5589 218.683C80.3308 219.532 81.4187 220.043 81.8224 220.216C83.8748 221.101 85.7525 222.159 88.0325 222.725C88.6096 222.869 89.2003 222.854 89.8045 222.682C91.9341 222.082 94.1085 221.607 96.1731 220.778C96.8233 220.516 97.4845 220.294 98.1564 220.113C99.3892 219.781 100.377 219.461 101.119 219.15C103.359 218.204 105.732 217.466 107.878 216.516C110.501 215.356 113.151 214.272 115.828 213.264C117.579 212.604 119.282 211.641 121.05 210.872C123.684 209.728 126.297 208.277 129.264 207.046C132.942 205.513 136.222 203.272 139.607 201.118C140.751 200.392 141.811 199.624 142.789 198.812C144.789 197.158 146.89 195.565 148.67 193.643C152.442 189.571 155.892 184.977 159.176 179.951C160.314 178.211 161.155 176.302 162.078 174.411C162.812 172.914 163.444 171.479 163.972 170.106C165.329 166.574 166.675 163.115 167.609 159.423C168.808 154.691 169.361 151.75 169.662 147.117C169.942 142.816 169.654 138.325 169.613 133.947C169.605 133.023 169.873 132.06 169.861 131.062C169.824 128.321 170.32 124.633 169.52 122.059C169.48 121.931 169.483 121.791 169.528 121.662C169.785 120.922 169.8 120.174 169.572 119.417C169.533 119.277 169.537 119.128 169.585 118.994C170.075 117.618 170.242 116.495 170.085 115.626C169.632 113.144 169.548 110.657 169.833 108.164C170.011 106.614 169.967 105.31 169.938 103.846C169.906 102.136 170.507 100.517 170.247 98.6083C170.229 98.4785 170.176 98.3573 170.097 98.2586C169.036 96.9632 170.174 95.7498 170.141 94.2947C170.08 91.8291 170.491 89.2124 170.028 86.8029C169.816 85.6759 170.028 85.27 170.312 84.2121C170.58 83.206 170.231 81.8631 170.3 80.8355C170.387 79.6034 170.473 78.3699 170.56 77.1349C170.645 75.9604 170.446 74.7255 170.479 73.4862C170.509 72.2426 170.507 71.3344 170.475 70.7616C170.178 65.2302 170.8 59.7118 170.666 53.9257C170.617 51.7926 170.857 49.6941 170.792 47.5437C170.7 44.3916 170.693 41.9087 170.771 40.0951C171.121 31.8348 170.832 23.6263 171.003 15.3746C171.044 13.4272 170.702 10.9875 170.922 8.75942C170.965 8.32762 170.785 8.14914 170.381 8.22399C168.325 8.60829 166.63 8.68601 164.321 8.52625C161.55 8.32762 158.29 8.52625 156.047 8.4917C148.975 8.39383 141.903 8.40966 134.832 8.5392C132.726 8.57806 130.264 8.4183 127.971 8.47443C126.004 8.51761 124.288 8.53344 122.822 8.52193C120.485 8.50466 117.965 8.66442 115.828 8.64283C109.191 8.57375 102.704 8.53488 95.9089 8.44421C94.076 8.4183 91.9626 8.86305 89.9305 8.74647C87.3809 8.59678 86.0952 8.52193 86.0736 8.52193C82.6271 8.51761 79.1604 8.42693 75.7139 8.59965C74.9363 8.63996 73.8877 8.62124 72.5682 8.54352C71.2839 8.47155 68.5067 8.54064 64.2366 8.75078C61.4689 8.88464 58.6037 8.75078 55.8319 8.65147C53.5722 8.56511 50.7069 8.94509 48.1302 8.78533C44.8464 8.58238 41.7047 8.91919 38.4452 8.69897C37.7191 8.65003 37.0282 8.65435 36.3725 8.71192C32.1295 9.07895 27.7889 8.99259 23.4809 9.16531C22.0747 9.22145 20.5384 9.07032 19.0509 9.10918C16.2791 9.17395 14.5112 9.13509 12.2109 8.96237C11.9345 8.93934 11.795 9.07463 11.7922 9.36826C11.7597 12.3563 11.6094 15.4912 11.6053 18.3411C11.5999 27.3801 11.5999 36.4191 11.6053 45.4581C11.6094 50.2295 11.7069 55.0268 11.6012 59.8068C11.524 63.4426 11.7597 66.4479 11.6622 71.1113C11.6094 73.5942 11.2029 78.2317 11.4224 81.8502C11.5403 83.7458 11.2517 85.555 11.0973 87.8047Z" stroke="black" stroke-width="8" stroke-linecap="round" stroke-dasharray="4 4" mask="url(#path-1-outside-1_181_416)"/>
<path d="M156.081 18.471C158.09 18.4911 160.096 18.425 162.1 18.2726C163.929 18.1303 163.905 21.3176 163.892 22.9738C163.846 29.4089 163.717 35.8425 163.504 42.2747C163.458 43.6779 163.36 45.0696 163.21 46.4497C163.182 46.7064 163.101 46.9532 162.974 47.173C162.846 47.3928 162.675 47.5802 162.471 47.7221C161.124 48.658 160.009 49.7277 158.853 51.1121C154.977 55.7731 150.948 60.2817 146.767 64.6379C146.249 65.1755 145.524 66.0108 144.59 67.1437C143.643 68.2953 142.532 69.3736 141.617 70.4389C140.618 71.5977 139.585 72.7176 138.518 73.7988C136.493 75.8518 134.741 78.3188 132.646 80.4193C131.086 81.9892 129.909 83.2371 129.114 84.163C127.121 86.4892 125.658 88.0102 124.724 88.7262C121.45 91.2278 119.2 93.8846 116.639 96.5112C114.834 98.3659 114.855 100.622 112.311 102.166C111.775 102.491 111.391 102.864 111.159 103.287C110.645 104.222 110.413 105.015 110.465 105.668C110.78 109.692 110.437 112.53 110.494 115.687C110.543 118.357 110.461 121.022 110.351 123.692C110.22 126.707 110.277 129.989 110.134 133.146C110.017 135.748 109.971 137.925 109.996 139.676C110.036 142.6 110.081 145.287 109.91 148.393C109.649 153.12 109.898 157.899 109.571 162.531C109.502 163.536 109.689 164.429 109.824 165.412C109.985 166.591 109.978 169.251 109.804 173.391C109.771 174.168 109.436 175.091 109.424 175.992C109.395 178.153 109.395 179.792 109.575 182.367C109.669 183.661 109.477 185.153 109.469 186.21C109.417 190.638 109.286 195.064 109.077 199.49C108.967 201.819 108.289 202.185 106.472 203.643C103.787 205.791 101.05 207.861 98.2599 209.854C97.2717 210.561 96.4428 211.566 95.4097 212.148C94.1575 212.853 93.0264 213.668 92.0164 214.594C91.8985 214.701 91.7557 214.774 91.6024 214.805C91.449 214.836 91.2905 214.824 91.1426 214.771C89.9216 214.322 88.8436 213.766 87.6962 212.933C85.4313 211.291 83.1282 209.709 80.7871 208.185C79.6723 207.46 78.3493 206.192 77.3856 205.692C75.7604 204.855 74.221 203.874 72.7673 202.75C72.265 202.362 72.0894 201.97 72.1384 201.284C72.461 197.005 71.7056 192.662 72.1303 188.379C72.6203 183.467 71.6321 178.571 72.0078 173.628C72.1262 172.084 71.9669 170.575 72.0649 169.044C72.2528 166.193 72.1139 163.338 72.2324 160.482C72.3099 158.692 72.0935 156.674 72.1956 154.737C72.3508 151.862 72.5168 148.987 72.6938 146.111C72.7428 145.3 72.559 144.201 72.6162 143.239C72.8857 138.753 72.6815 133.931 72.7632 129.799C72.8095 127.473 72.7986 125.147 72.7305 122.821C72.7142 122.277 72.8694 121.548 72.8734 120.949C72.8925 117.835 72.9197 114.721 72.9551 111.607C72.966 110.736 73.1089 110.023 73.3839 109.468C73.4135 109.408 73.431 109.342 73.4352 109.276C73.4394 109.209 73.4303 109.142 73.4084 109.079C72.8231 107.34 72.5373 105.541 72.5509 103.684C72.5713 101.092 68.296 96.8951 66.8627 95.2777C64.7516 92.8969 62.4853 90.818 60.5334 88.282C59.3792 86.7839 58.3597 85.5748 57.475 84.6547C54.5621 81.6212 51.7351 78.5043 48.9938 75.304C47.9117 74.036 46.462 73.1173 45.5229 71.7716C43.944 69.5202 42.2602 67.3608 40.4717 65.2934C40.0062 64.7586 39.214 64.1979 38.6628 63.607C36.7354 61.5569 34.8026 59.514 32.8643 57.4782C31.1629 55.6955 29.5282 53.848 27.9602 51.9359C27.0863 50.8692 26.0859 49.7981 24.9589 48.7227C23.3541 47.1959 22.0964 45.393 20.263 44.1164C20.1841 44.0609 20.1196 43.9853 20.0754 43.8964C20.0311 43.8075 20.0086 43.7082 20.0098 43.6074L20.1936 19.2646C20.1958 19.0649 20.2633 18.8721 20.3845 18.7189C20.5058 18.5656 20.6735 18.4613 20.8592 18.4236C21.5887 18.2798 22.3918 18.2266 23.2684 18.264C28.9824 18.5026 34.6991 18.586 40.4186 18.5141C41.0597 18.5098 41.8478 18.3114 42.5992 18.3416C43.8813 18.3991 45.1268 18.3387 46.3355 18.1605C46.4387 18.1461 46.5437 18.1618 46.6388 18.2059C46.7338 18.25 46.8154 18.3209 46.8745 18.4106C48.3241 20.6275 50.0473 22.3786 51.6275 24.4489C52.1883 25.1879 52.956 26.072 53.9306 27.1014C55.0168 28.2487 55.9478 29.6159 56.985 30.6856C60.3823 34.1791 63.7144 37.7388 66.9811 41.3647C69.7456 44.4269 72.8735 47.5668 75.7482 50.7542C80.5176 56.0463 85.4626 60.5232 89.7705 66.6952C90.0673 67.1178 90.6553 67.6081 91.5346 68.1659C91.6516 68.2407 91.7728 68.2479 91.898 68.1875C92.4016 67.946 92.8372 67.6139 93.2047 67.1912C96.1284 63.8471 99.131 60.585 102.213 57.4049C103.425 56.1541 104.789 55.0974 105.847 53.769C106.839 52.5311 107.627 51.4097 108.934 50.3013C110.302 49.1411 111.441 47.3469 112.56 46.3333C115.59 43.5902 118.232 40.5538 121.082 37.6209C122.299 36.3702 123.401 35.0331 124.655 33.8298C127.154 31.436 129.78 28.2573 131.699 26.2388C133.795 24.0305 135.898 21.828 138.008 19.6312C139.813 17.7507 141.658 18.4322 143.92 18.4279C147.974 18.4164 152.027 18.4308 156.081 18.471ZM74.7518 182.617C74.4088 184.92 75.0866 187.215 74.8825 189.63C74.5599 193.443 74.7886 197.29 75.1071 201.077C75.1197 201.236 75.1671 201.391 75.2456 201.529C75.3242 201.668 75.4318 201.786 75.5603 201.875L90.3055 212.015C90.4265 212.098 90.568 212.142 90.7124 212.141C90.8568 212.14 90.9978 212.095 91.1181 212.01C94.7359 209.513 98.411 207.033 101.894 204.307C103.225 203.263 105.545 201.913 106.517 200.335C106.593 200.215 106.631 200.071 106.623 199.925C106.255 193.046 106.929 185.77 106.643 180.292C106.532 178.118 106.526 176.17 106.627 174.448C106.819 171.131 106.492 168.155 106.398 164.972C106.341 163.074 106.839 161.056 106.766 158.977C106.684 156.764 106.708 154.996 106.566 152.796C106.48 151.55 106.664 149.717 106.602 148.199C106.303 140.631 106.419 133.071 106.949 125.521C107.056 124.007 106.839 122.523 106.831 120.971C106.823 119.884 106.813 118.746 106.802 117.559C106.766 113.418 106.904 108.778 107.149 105.344C107.28 103.537 107.86 102.351 108.971 101.092C111.434 98.294 113.995 95.5998 116.652 93.0091C117.229 92.4455 117.806 91.7841 118.383 91.0251C119.755 89.2222 121.307 87.9757 122.805 86.4877C125.002 84.314 126.966 81.3293 129.102 79.3324C130.773 77.7711 132.175 76.3233 133.308 74.9892C135.162 72.8024 137.101 71.047 138.857 68.9078C140.36 67.0747 141.732 65.7247 143.288 64.1979C146.289 61.2607 149.082 57.9052 152.042 54.83C155.086 51.6671 158.125 48.5142 161.161 45.3715C161.199 45.332 161.23 45.2845 161.251 45.2319C161.272 45.1792 161.283 45.1226 161.283 45.0653L161.744 21.5893C161.748 21.386 161.68 21.1886 161.552 21.0366C161.424 20.8847 161.246 20.7894 161.054 20.7699C159.784 20.6405 158.49 20.5154 157.138 20.5456C152.805 20.6405 148.471 20.6448 144.137 20.5585C142.687 20.5283 140.241 20.3041 139.151 21.4815C132.844 28.2818 126.52 35.0633 120.18 41.8262C118.644 43.4651 116.672 45.9882 114.687 47.8687C112.593 49.857 110.845 51.7203 108.697 54.1226C106.68 56.3784 104.218 58.5306 102.405 60.5491C101.117 61.9868 99.8415 63.4374 98.5784 64.9009C97.8761 65.7118 96.8348 67.2904 95.6833 68.2824C95.245 68.659 94.9129 69.0328 94.6869 69.4038C94.0581 70.4432 92.7555 73.3718 91.1466 71.9441C89.7665 70.7279 88.4598 69.0501 87.4185 67.9675C84.7235 65.1669 82.1033 62.2901 79.558 59.3371C79.2994 59.0352 79.0489 58.6902 78.8066 58.302C77.1406 55.6408 74.7886 53.4498 72.6774 51.1768C71.7668 50.1978 70.4602 49.0548 69.4475 47.8644C65.948 43.7498 62.1913 39.799 58.5326 35.8353C57.509 34.7254 56.5385 33.5609 55.6211 32.3418C54.8003 31.2506 53.7101 30.4527 52.8689 29.3744C51.6275 27.7757 50.3045 26.2546 48.8998 24.8112C48.0097 23.8968 47.2379 22.8229 46.3559 21.8568C45.6821 21.1192 44.9267 20.9941 44.0161 20.9553C40.5983 20.8001 36.8007 21.0502 33.7749 20.9985C30.6797 20.9467 27.5859 20.9208 24.4934 20.9208C24.0388 20.9208 23.5828 20.9697 23.1254 21.0675C22.9839 21.0991 22.8804 21.1825 22.8151 21.3176C22.6191 21.7259 22.5157 22.1673 22.5048 22.6417C22.4204 27.0439 22.3523 31.4461 22.3006 35.8483C22.2802 37.6252 22.468 39.5834 22.4639 41.4337C22.4612 41.9022 22.6243 42.3546 22.9213 42.7017C26.4167 46.7818 30.1734 50.6506 33.6565 54.7394C34.3943 55.6078 35.3906 56.6889 36.6456 57.9828C38.3851 59.7727 40.0103 61.7783 41.7457 63.4086C44.1958 65.7075 46.36 67.5492 48.6385 70.5553C49.5491 71.7544 50.6843 72.7636 51.697 73.9152C52.5109 74.8382 53.2731 75.6145 53.9837 76.2442C56.3929 78.3878 58.5203 81.4846 60.0679 83.0891C62.1586 85.2628 63.7198 86.955 64.7516 88.1655C66.1481 89.8001 67.9203 90.9604 68.3858 93.2592C68.4259 93.4547 68.5105 93.6369 68.6321 93.7902C68.7537 93.9435 68.9089 94.0632 69.0841 94.1391C72.2528 95.5106 75.25 99.3579 76.8956 102.433C76.9664 102.562 76.995 102.702 76.9813 102.851C76.9242 103.464 76.8221 104.071 76.6751 104.672C76.4505 105.603 76.9528 106.341 76.8956 107.195C76.8466 107.928 76.5989 108.552 76.1524 109.067C76.0054 109.236 76 109.412 76.1361 109.593C76.9895 110.723 76.7118 112.737 76.4178 114.048C76.2341 114.859 76.6628 115.691 76.5893 116.588C76.2341 120.91 76.3852 125.163 76.2627 129.484C76.1048 135.025 75.9428 140.566 75.7767 146.107C75.6093 151.597 75.8421 156.1 75.4256 162.863C75.2541 165.641 75.4664 168.785 75.2908 171.774C75.0785 175.418 75.2827 179.003 74.7518 182.617Z" fill="#010101"/>
</svg>
