<svg width="182" height="233" viewBox="0 0 182 233" fill="none" xmlns="http://www.w3.org/2000/svg">
<mask id="path-1-outside-1_181_414" maskUnits="userSpaceOnUse" x="1" y="-1" width="179" height="233" fill="black">
<rect fill="white" x="1" y="-1" width="179" height="233"/>
<path d="M148.371 4.11777C149.906 3.44107 151.407 3.48899 152.874 4.2615C153.064 4.36331 153.294 4.30341 153.42 4.12376C153.719 3.69259 154.265 3.40513 154.818 3.44106C161.632 3.84828 168.401 3.70457 175.135 3.00392C175.526 2.962 175.876 3.26141 175.917 3.66863C175.917 3.69857 175.917 3.72253 175.917 3.75248C175.899 9.56729 175.957 15.3462 176.078 21.0891C176.095 21.7958 175.836 22.694 175.871 23.2929C176.049 26.6285 175.83 30.2395 175.928 33.2697C176.308 45.3425 176.314 57.4032 176.687 69.476C177.193 85.8844 176.923 102.389 176.963 118.809C176.998 131.032 176.377 143.278 176.009 155.489C175.98 156.411 175.825 157.543 175.531 158.884C173.593 167.825 170.793 176.574 165.312 183.766C158.492 192.713 152.327 199.558 143.696 206.331C142.264 207.451 140.148 208.672 138.244 209.547C124.46 215.882 110.371 221.523 96.3331 227.195C94.5332 227.919 91.1403 229.524 89.2713 228.829C86.718 227.883 84.1877 226.871 81.6862 225.799C75.1304 222.997 68.6436 220.595 62.2374 217.649C61.2828 217.212 59.9544 216.715 58.2464 216.158C54.8363 215.044 51.7999 213.092 48.5565 211.577C36.5204 205.953 25.7954 196.39 17.917 185.611C14.4205 180.832 12.0053 174.742 9.67624 169.058C6.16258 160.483 5.52426 150.44 5.438 141.236C5.13321 108.772 5.01819 72.5481 4.44312 43.8034C4.31086 37.0065 4.60414 31.1797 4.2821 25.2511C4.16709 23.1012 4.36262 20.7538 4.30511 18.8434C4.1901 14.5257 4.08659 10.1362 4.00033 5.66878C3.98308 4.78847 4.65015 4.05788 5.4955 4.03991C5.52425 4.03991 5.54725 4.03991 5.57601 4.03991C8.54335 4.11776 11.5395 4.27347 14.5586 4.51301C15.4269 4.57888 16.3988 4.56091 17.4626 4.45312C21.1603 4.08183 25.0708 4.24353 28.78 4.33336C30.0451 4.3633 32.2131 4.32138 35.2897 4.20161C38.2111 4.09382 41.2877 4.40521 43.9963 4.32137C48.7176 4.16567 51.8057 4.513 55.5379 4.30341C58.3614 4.14771 60.6215 4.34533 62.9562 4.24951C68.1663 4.03992 73.4109 4.09381 78.6268 4.0998C86.7755 4.11777 94.9242 4.00398 103.073 3.75845C106.696 3.65066 110.319 3.55486 113.942 3.47102C115.126 3.44108 116.886 3.477 119.215 3.57881C121.584 3.6866 124.333 3.5848 126.248 3.60276C132.856 3.66864 139.469 3.69858 146.076 3.68062C146.813 3.68062 147.123 3.86626 147.796 4.12975C147.986 4.20162 148.175 4.19562 148.365 4.11777H148.371ZM7.90503 7.12399L7.61175 6.82457C7.2092 6.41136 7.16319 6.44728 7.47948 6.94433C7.79576 7.44736 8.0833 7.77672 8.07755 8.43545C8.0603 15.2324 8.11205 23.0474 7.89353 30.8324C7.6405 39.7253 7.90503 48.678 8.05454 57.5769C8.10055 60.2717 8.00855 64.3439 8.16957 67.7394C8.20407 68.3921 8.12356 69.2904 7.92804 70.4402C7.5945 72.4523 8.18681 74.7219 8.15806 76.4107C8.0948 80.0457 8.4801 83.8065 8.4226 87.2319C8.37084 90.5555 8.38809 93.8791 8.47435 97.2027C8.5031 98.3764 8.16381 99.6819 8.26157 100.981C8.39959 102.778 8.46859 103.688 8.46859 103.712C8.46859 114.294 8.9804 124.887 8.62961 135.457C8.5261 138.595 8.89415 141.733 9.05517 144.907C9.56698 155.165 11.6545 165.435 16.1802 174.712C17.2614 176.933 19.0958 180.239 21.6894 184.634C21.8734 184.946 21.8389 185.221 21.9194 185.569C21.9654 185.754 22.0804 185.916 22.2357 186.024C22.9603 186.515 23.4261 186.892 23.6331 187.162C30.0566 195.605 39.0909 203.283 48.6371 207.78C53.1226 209.9 57.5506 212.259 62.1741 214.038C66.8264 215.828 71.5132 217.888 76.223 219.685C77.6607 220.23 79.0754 220.847 80.4613 221.529C82.9686 222.757 85.6829 222.997 88.2879 224.027C89.001 224.308 89.4726 224.41 89.7084 224.332C94.8552 222.679 99.9906 221.008 105.12 219.314C106.725 218.787 108.927 218.314 110.802 217.583C113.188 216.649 114.574 216.116 114.954 215.99C122.602 213.409 129.446 210.044 136.628 206.756C141.2 204.666 145.197 201.151 149.073 197.965C152.143 195.438 154.691 192.33 157.382 189.311C158.705 187.832 160.654 184.958 163.231 180.694C166.612 175.101 169.884 167.783 171.126 161.273C171.621 158.674 172.311 156.093 172.587 153.524C173.352 146.386 173.668 141.452 173.53 138.721C173.294 134.08 173.622 127.199 173.478 121.354C173.335 115.623 173.404 109.671 173.616 103.94C173.68 102.227 173.496 100.227 173.461 98.1489C173.306 89.1601 173.329 80.1355 173.323 71.1468C173.323 60.0442 172.564 49.0433 173.082 37.9227C173.11 37.24 173.07 36.3717 172.949 35.3117C172.754 33.5451 172.955 31.2995 172.955 30.0778C172.955 28.3112 172.932 26.5506 172.898 24.784C172.857 22.9875 173.421 21.5263 173.179 19.6459C172.771 16.478 172.714 13.3041 173.001 10.1242C173.064 9.36367 172.834 8.49535 172.305 7.53121C172.213 7.36353 172.075 7.27969 171.885 7.27371C169.493 7.1719 167.25 6.8545 164.852 7.02218C158.757 7.44137 152.684 7.2258 146.583 7.3276C144.748 7.35754 142.505 7.118 140.441 7.23178C136.801 7.44138 133.839 7.30364 130.101 7.39946C121.078 7.63301 109.801 7.65697 96.2641 7.47731C90.3639 7.39946 84.0382 7.71684 78.6268 7.68689C73.3822 7.65096 67.7465 8.1061 62.5939 7.02218C62.4099 6.98026 62.2316 6.99822 62.0534 7.07008C60.1844 7.81864 58.1487 7.62703 56.1762 7.70488C51.1098 7.91447 45.7387 7.69888 40.3906 7.78871C36.9402 7.8426 33.3058 7.40544 28.2279 7.71085C25.2088 7.89051 21.9654 7.56115 18.7853 7.69888C17.9745 7.72882 17.4511 7.41741 16.7668 7.03415C16.6058 6.94432 16.4103 6.94434 16.2493 7.04614C14.4493 8.18994 11.7695 7.55516 9.67049 7.71685C9.15868 7.75877 8.76763 7.57312 8.29032 7.38149C8.14656 7.3276 8.01429 7.23777 7.90503 7.12399Z"/>
</mask>
<path d="M148.371 4.11777C149.906 3.44107 151.407 3.48899 152.874 4.2615C153.064 4.36331 153.294 4.30341 153.42 4.12376C153.719 3.69259 154.265 3.40513 154.818 3.44106C161.632 3.84828 168.401 3.70457 175.135 3.00392C175.526 2.962 175.876 3.26141 175.917 3.66863C175.917 3.69857 175.917 3.72253 175.917 3.75248C175.899 9.56729 175.957 15.3462 176.078 21.0891C176.095 21.7958 175.836 22.694 175.871 23.2929C176.049 26.6285 175.83 30.2395 175.928 33.2697C176.308 45.3425 176.314 57.4032 176.687 69.476C177.193 85.8844 176.923 102.389 176.963 118.809C176.998 131.032 176.377 143.278 176.009 155.489C175.98 156.411 175.825 157.543 175.531 158.884C173.593 167.825 170.793 176.574 165.312 183.766C158.492 192.713 152.327 199.558 143.696 206.331C142.264 207.451 140.148 208.672 138.244 209.547C124.46 215.882 110.371 221.523 96.3331 227.195C94.5332 227.919 91.1403 229.524 89.2713 228.829C86.718 227.883 84.1877 226.871 81.6862 225.799C75.1304 222.997 68.6436 220.595 62.2374 217.649C61.2828 217.212 59.9544 216.715 58.2464 216.158C54.8363 215.044 51.7999 213.092 48.5565 211.577C36.5204 205.953 25.7954 196.39 17.917 185.611C14.4205 180.832 12.0053 174.742 9.67624 169.058C6.16258 160.483 5.52426 150.44 5.438 141.236C5.13321 108.772 5.01819 72.5481 4.44312 43.8034C4.31086 37.0065 4.60414 31.1797 4.2821 25.2511C4.16709 23.1012 4.36262 20.7538 4.30511 18.8434C4.1901 14.5257 4.08659 10.1362 4.00033 5.66878C3.98308 4.78847 4.65015 4.05788 5.4955 4.03991C5.52425 4.03991 5.54725 4.03991 5.57601 4.03991C8.54335 4.11776 11.5395 4.27347 14.5586 4.51301C15.4269 4.57888 16.3988 4.56091 17.4626 4.45312C21.1603 4.08183 25.0708 4.24353 28.78 4.33336C30.0451 4.3633 32.2131 4.32138 35.2897 4.20161C38.2111 4.09382 41.2877 4.40521 43.9963 4.32137C48.7176 4.16567 51.8057 4.513 55.5379 4.30341C58.3614 4.14771 60.6215 4.34533 62.9562 4.24951C68.1663 4.03992 73.4109 4.09381 78.6268 4.0998C86.7755 4.11777 94.9242 4.00398 103.073 3.75845C106.696 3.65066 110.319 3.55486 113.942 3.47102C115.126 3.44108 116.886 3.477 119.215 3.57881C121.584 3.6866 124.333 3.5848 126.248 3.60276C132.856 3.66864 139.469 3.69858 146.076 3.68062C146.813 3.68062 147.123 3.86626 147.796 4.12975C147.986 4.20162 148.175 4.19562 148.365 4.11777H148.371ZM7.90503 7.12399L7.61175 6.82457C7.2092 6.41136 7.16319 6.44728 7.47948 6.94433C7.79576 7.44736 8.0833 7.77672 8.07755 8.43545C8.0603 15.2324 8.11205 23.0474 7.89353 30.8324C7.6405 39.7253 7.90503 48.678 8.05454 57.5769C8.10055 60.2717 8.00855 64.3439 8.16957 67.7394C8.20407 68.3921 8.12356 69.2904 7.92804 70.4402C7.5945 72.4523 8.18681 74.7219 8.15806 76.4107C8.0948 80.0457 8.4801 83.8065 8.4226 87.2319C8.37084 90.5555 8.38809 93.8791 8.47435 97.2027C8.5031 98.3764 8.16381 99.6819 8.26157 100.981C8.39959 102.778 8.46859 103.688 8.46859 103.712C8.46859 114.294 8.9804 124.887 8.62961 135.457C8.5261 138.595 8.89415 141.733 9.05517 144.907C9.56698 155.165 11.6545 165.435 16.1802 174.712C17.2614 176.933 19.0958 180.239 21.6894 184.634C21.8734 184.946 21.8389 185.221 21.9194 185.569C21.9654 185.754 22.0804 185.916 22.2357 186.024C22.9603 186.515 23.4261 186.892 23.6331 187.162C30.0566 195.605 39.0909 203.283 48.6371 207.78C53.1226 209.9 57.5506 212.259 62.1741 214.038C66.8264 215.828 71.5132 217.888 76.223 219.685C77.6607 220.23 79.0754 220.847 80.4613 221.529C82.9686 222.757 85.6829 222.997 88.2879 224.027C89.001 224.308 89.4726 224.41 89.7084 224.332C94.8552 222.679 99.9906 221.008 105.12 219.314C106.725 218.787 108.927 218.314 110.802 217.583C113.188 216.649 114.574 216.116 114.954 215.99C122.602 213.409 129.446 210.044 136.628 206.756C141.2 204.666 145.197 201.151 149.073 197.965C152.143 195.438 154.691 192.33 157.382 189.311C158.705 187.832 160.654 184.958 163.231 180.694C166.612 175.101 169.884 167.783 171.126 161.273C171.621 158.674 172.311 156.093 172.587 153.524C173.352 146.386 173.668 141.452 173.53 138.721C173.294 134.08 173.622 127.199 173.478 121.354C173.335 115.623 173.404 109.671 173.616 103.94C173.68 102.227 173.496 100.227 173.461 98.1489C173.306 89.1601 173.329 80.1355 173.323 71.1468C173.323 60.0442 172.564 49.0433 173.082 37.9227C173.11 37.24 173.07 36.3717 172.949 35.3117C172.754 33.5451 172.955 31.2995 172.955 30.0778C172.955 28.3112 172.932 26.5506 172.898 24.784C172.857 22.9875 173.421 21.5263 173.179 19.6459C172.771 16.478 172.714 13.3041 173.001 10.1242C173.064 9.36367 172.834 8.49535 172.305 7.53121C172.213 7.36353 172.075 7.27969 171.885 7.27371C169.493 7.1719 167.25 6.8545 164.852 7.02218C158.757 7.44137 152.684 7.2258 146.583 7.3276C144.748 7.35754 142.505 7.118 140.441 7.23178C136.801 7.44138 133.839 7.30364 130.101 7.39946C121.078 7.63301 109.801 7.65697 96.2641 7.47731C90.3639 7.39946 84.0382 7.71684 78.6268 7.68689C73.3822 7.65096 67.7465 8.1061 62.5939 7.02218C62.4099 6.98026 62.2316 6.99822 62.0534 7.07008C60.1844 7.81864 58.1487 7.62703 56.1762 7.70488C51.1098 7.91447 45.7387 7.69888 40.3906 7.78871C36.9402 7.8426 33.3058 7.40544 28.2279 7.71085C25.2088 7.89051 21.9654 7.56115 18.7853 7.69888C17.9745 7.72882 17.4511 7.41741 16.7668 7.03415C16.6058 6.94432 16.4103 6.94434 16.2493 7.04614C14.4493 8.18994 11.7695 7.55516 9.67049 7.71685C9.15868 7.75877 8.76763 7.57312 8.29032 7.38149C8.14656 7.3276 8.01429 7.23777 7.90503 7.12399Z" fill="black"/>
<path d="M148.371 4.11777C149.906 3.44107 151.407 3.48899 152.874 4.2615C153.064 4.36331 153.294 4.30341 153.42 4.12376C153.719 3.69259 154.265 3.40513 154.818 3.44106C161.632 3.84828 168.401 3.70457 175.135 3.00392C175.526 2.962 175.876 3.26141 175.917 3.66863C175.917 3.69857 175.917 3.72253 175.917 3.75248C175.899 9.56729 175.957 15.3462 176.078 21.0891C176.095 21.7958 175.836 22.694 175.871 23.2929C176.049 26.6285 175.83 30.2395 175.928 33.2697C176.308 45.3425 176.314 57.4032 176.687 69.476C177.193 85.8844 176.923 102.389 176.963 118.809C176.998 131.032 176.377 143.278 176.009 155.489C175.98 156.411 175.825 157.543 175.531 158.884C173.593 167.825 170.793 176.574 165.312 183.766C158.492 192.713 152.327 199.558 143.696 206.331C142.264 207.451 140.148 208.672 138.244 209.547C124.46 215.882 110.371 221.523 96.3331 227.195C94.5332 227.919 91.1403 229.524 89.2713 228.829C86.718 227.883 84.1877 226.871 81.6862 225.799C75.1304 222.997 68.6436 220.595 62.2374 217.649C61.2828 217.212 59.9544 216.715 58.2464 216.158C54.8363 215.044 51.7999 213.092 48.5565 211.577C36.5204 205.953 25.7954 196.39 17.917 185.611C14.4205 180.832 12.0053 174.742 9.67624 169.058C6.16258 160.483 5.52426 150.44 5.438 141.236C5.13321 108.772 5.01819 72.5481 4.44312 43.8034C4.31086 37.0065 4.60414 31.1797 4.2821 25.2511C4.16709 23.1012 4.36262 20.7538 4.30511 18.8434C4.1901 14.5257 4.08659 10.1362 4.00033 5.66878C3.98308 4.78847 4.65015 4.05788 5.4955 4.03991C5.52425 4.03991 5.54725 4.03991 5.57601 4.03991C8.54335 4.11776 11.5395 4.27347 14.5586 4.51301C15.4269 4.57888 16.3988 4.56091 17.4626 4.45312C21.1603 4.08183 25.0708 4.24353 28.78 4.33336C30.0451 4.3633 32.2131 4.32138 35.2897 4.20161C38.2111 4.09382 41.2877 4.40521 43.9963 4.32137C48.7176 4.16567 51.8057 4.513 55.5379 4.30341C58.3614 4.14771 60.6215 4.34533 62.9562 4.24951C68.1663 4.03992 73.4109 4.09381 78.6268 4.0998C86.7755 4.11777 94.9242 4.00398 103.073 3.75845C106.696 3.65066 110.319 3.55486 113.942 3.47102C115.126 3.44108 116.886 3.477 119.215 3.57881C121.584 3.6866 124.333 3.5848 126.248 3.60276C132.856 3.66864 139.469 3.69858 146.076 3.68062C146.813 3.68062 147.123 3.86626 147.796 4.12975C147.986 4.20162 148.175 4.19562 148.365 4.11777H148.371ZM7.90503 7.12399L7.61175 6.82457C7.2092 6.41136 7.16319 6.44728 7.47948 6.94433C7.79576 7.44736 8.0833 7.77672 8.07755 8.43545C8.0603 15.2324 8.11205 23.0474 7.89353 30.8324C7.6405 39.7253 7.90503 48.678 8.05454 57.5769C8.10055 60.2717 8.00855 64.3439 8.16957 67.7394C8.20407 68.3921 8.12356 69.2904 7.92804 70.4402C7.5945 72.4523 8.18681 74.7219 8.15806 76.4107C8.0948 80.0457 8.4801 83.8065 8.4226 87.2319C8.37084 90.5555 8.38809 93.8791 8.47435 97.2027C8.5031 98.3764 8.16381 99.6819 8.26157 100.981C8.39959 102.778 8.46859 103.688 8.46859 103.712C8.46859 114.294 8.9804 124.887 8.62961 135.457C8.5261 138.595 8.89415 141.733 9.05517 144.907C9.56698 155.165 11.6545 165.435 16.1802 174.712C17.2614 176.933 19.0958 180.239 21.6894 184.634C21.8734 184.946 21.8389 185.221 21.9194 185.569C21.9654 185.754 22.0804 185.916 22.2357 186.024C22.9603 186.515 23.4261 186.892 23.6331 187.162C30.0566 195.605 39.0909 203.283 48.6371 207.78C53.1226 209.9 57.5506 212.259 62.1741 214.038C66.8264 215.828 71.5132 217.888 76.223 219.685C77.6607 220.23 79.0754 220.847 80.4613 221.529C82.9686 222.757 85.6829 222.997 88.2879 224.027C89.001 224.308 89.4726 224.41 89.7084 224.332C94.8552 222.679 99.9906 221.008 105.12 219.314C106.725 218.787 108.927 218.314 110.802 217.583C113.188 216.649 114.574 216.116 114.954 215.99C122.602 213.409 129.446 210.044 136.628 206.756C141.2 204.666 145.197 201.151 149.073 197.965C152.143 195.438 154.691 192.33 157.382 189.311C158.705 187.832 160.654 184.958 163.231 180.694C166.612 175.101 169.884 167.783 171.126 161.273C171.621 158.674 172.311 156.093 172.587 153.524C173.352 146.386 173.668 141.452 173.53 138.721C173.294 134.08 173.622 127.199 173.478 121.354C173.335 115.623 173.404 109.671 173.616 103.94C173.68 102.227 173.496 100.227 173.461 98.1489C173.306 89.1601 173.329 80.1355 173.323 71.1468C173.323 60.0442 172.564 49.0433 173.082 37.9227C173.11 37.24 173.07 36.3717 172.949 35.3117C172.754 33.5451 172.955 31.2995 172.955 30.0778C172.955 28.3112 172.932 26.5506 172.898 24.784C172.857 22.9875 173.421 21.5263 173.179 19.6459C172.771 16.478 172.714 13.3041 173.001 10.1242C173.064 9.36367 172.834 8.49535 172.305 7.53121C172.213 7.36353 172.075 7.27969 171.885 7.27371C169.493 7.1719 167.25 6.8545 164.852 7.02218C158.757 7.44137 152.684 7.2258 146.583 7.3276C144.748 7.35754 142.505 7.118 140.441 7.23178C136.801 7.44138 133.839 7.30364 130.101 7.39946C121.078 7.63301 109.801 7.65697 96.2641 7.47731C90.3639 7.39946 84.0382 7.71684 78.6268 7.68689C73.3822 7.65096 67.7465 8.1061 62.5939 7.02218C62.4099 6.98026 62.2316 6.99822 62.0534 7.07008C60.1844 7.81864 58.1487 7.62703 56.1762 7.70488C51.1098 7.91447 45.7387 7.69888 40.3906 7.78871C36.9402 7.8426 33.3058 7.40544 28.2279 7.71085C25.2088 7.89051 21.9654 7.56115 18.7853 7.69888C17.9745 7.72882 17.4511 7.41741 16.7668 7.03415C16.6058 6.94432 16.4103 6.94434 16.2493 7.04614C14.4493 8.18994 11.7695 7.55516 9.67049 7.71685C9.15868 7.75877 8.76763 7.57312 8.29032 7.38149C8.14656 7.3276 8.01429 7.23777 7.90503 7.12399Z" stroke="black" stroke-width="6" mask="url(#path-1-outside-1_181_414)"/>
<mask id="path-2-outside-2_181_414" maskUnits="userSpaceOnUse" x="21.1582" y="21.0801" width="139" height="189" fill="black">
<rect fill="white" x="21.1582" y="21.0801" width="139" height="189"/>
<path d="M134.517 38.8139C134.609 38.7541 134.678 38.6584 134.724 38.5267C134.764 38.4071 134.839 38.3054 134.943 38.2336C138.818 35.4995 142.727 32.8192 146.672 30.1928C148.626 28.8945 151.518 26.6629 154.146 25.5083C155.152 25.0656 156.187 25.6219 156.164 26.8424C156.135 28.4996 154.267 31.2278 153.399 32.6337C151.323 36.014 149.443 39.5139 147.758 43.1215C147.051 44.6411 146.091 46.059 145.246 47.5906C145.056 47.9316 145.108 48.2368 145.395 48.494C148.626 51.4196 152.03 54.1058 155.612 56.5588C155.94 56.7741 156.032 57.2288 155.819 57.5698C155.79 57.6177 155.756 57.6596 155.716 57.7014C154.577 58.8501 153.663 60.1125 152.364 61.0817C151.202 61.9492 150.047 62.8287 148.897 63.7082C147.942 64.438 146.39 65.2098 145.407 66.544C145.349 66.6158 145.361 66.7235 145.43 66.7773C145.43 66.7773 145.435 66.7833 145.441 66.7892L155.934 74.2019C156.187 74.3814 156.279 74.7224 156.153 75.0155C155.641 76.1941 154.997 77.1035 154.221 77.7317C151.421 79.9992 148.753 82.1231 146.212 84.0914C145.688 84.4922 145.7 84.8871 146.24 85.264C149.978 87.8785 153.548 90.7203 156.946 93.8014C157.09 93.939 157.124 94.1005 157.044 94.286C156.032 96.6133 153.962 97.3132 152.502 98.456C150.53 99.9935 148.379 101.22 146.062 102.135C145.706 102.273 145.527 102.692 145.66 103.063C145.706 103.188 145.786 103.302 145.89 103.38C149.328 106.066 152.697 108.872 156.204 111.421C157.912 112.665 155.946 114.334 154.738 115.208C152.065 117.152 149.27 119.096 146.355 121.047C146.085 121.226 146.005 121.609 146.177 121.89C146.212 121.944 146.252 121.992 146.304 122.034L156.63 130.787C157.038 131.128 157.084 131.523 156.779 131.965C154.819 134.759 152.019 135.687 149.414 137.727C148.316 138.582 147.166 139.372 145.964 140.09C145.545 140.347 145.361 140.724 145.424 141.227C145.481 141.711 145.809 142.16 146.401 142.567C149.966 144.996 152.565 148.119 155.681 151.206C155.888 151.409 155.946 151.72 155.836 151.984C154.56 155.047 150.834 156.525 147.845 157.332C145.838 157.877 143.929 158.589 142.13 159.468C141.859 159.6 141.721 159.917 141.802 160.21C142.325 162.065 143.251 163.907 143.774 165.505C144.636 168.143 145.55 170.758 146.522 173.354C147.206 175.197 147.482 176.926 145.062 177.38C144.711 177.446 144.251 177.404 143.693 177.255C141.71 176.704 139.479 176.609 137.708 176.274C135.587 175.879 133.517 175.61 131.493 175.466C131.246 175.448 131.119 175.568 131.119 175.825L131.085 191.075C131.085 191.745 130.556 192.289 129.918 192.283C129.728 192.283 129.538 192.236 129.371 192.14L116.544 184.919C116.309 184.787 116.107 184.829 115.935 185.038C115.417 185.661 115.113 186.217 115.021 186.702C114.313 190.495 113.503 193.785 112.589 196.579C112.324 197.387 111.818 198.141 111.065 198.835C110.927 198.96 110.777 198.978 110.611 198.888C106.471 196.495 102.975 193.342 99.198 190.381C98.9968 190.225 98.7208 190.267 98.5713 190.477C98.5713 190.483 98.5598 190.495 98.554 190.501C97.3179 192.511 96.0588 194.246 95.2998 196.573C94.4259 199.259 93.345 201.09 92.5286 203.435C91.9364 205.14 91.2579 206.032 89.8091 206.816C89.3721 207.049 88.8431 206.875 88.6132 206.421C88.6074 206.409 88.6017 206.391 88.5959 206.379L81.7253 190.489C81.6793 190.387 81.5643 190.339 81.4665 190.381C81.455 190.381 81.4435 190.393 81.432 190.405C79.5174 191.763 77.7236 192.876 75.9297 194.593C74.6821 195.795 72.2903 198.47 70.3412 199.104C67.8057 199.917 68.3289 195.191 68.1679 193.863C67.9034 191.661 66.8685 189.065 66.8513 186.402C66.8513 186.008 66.5408 185.696 66.1613 185.696C66.0751 185.696 65.9889 185.714 65.9141 185.75C63.5453 186.749 61.2858 188.431 59.3769 189.424C58.0603 190.112 56.7494 190.818 55.4443 191.542C53.4089 192.666 51.6381 189.837 51.8163 187.904C52.167 184.045 52.3108 180.258 52.2533 176.543C52.2418 175.998 51.8221 175.556 51.2989 175.544L35.5625 175.203C34.815 175.185 34.2286 174.539 34.2458 173.761C34.2458 173.51 34.3206 173.264 34.4471 173.055C35.9937 170.482 37.3966 167.329 38.7707 165.032C39.8976 163.147 41.0935 161.317 42.3584 159.534C42.4676 159.384 42.4331 159.169 42.2894 159.055C42.2664 159.037 42.2434 159.025 42.2147 159.013C39.6619 157.931 36.7526 157.601 34.3321 156.89C31.4861 156.046 28.6113 156.118 26.3575 154.084C25.9666 153.731 25.9666 153.378 26.3575 153.025L38.6442 141.897C38.811 141.741 38.8282 141.478 38.6845 141.31C38.6845 141.31 38.673 141.298 38.6672 141.292C36.9251 139.444 34.976 137.858 32.82 136.53C30.5374 135.124 28.5538 133.413 26.208 132.109C25.6791 131.816 25.4836 131.134 25.7653 130.583C25.8573 130.41 25.9838 130.26 26.1448 130.159L37.9888 122.447C38.2188 122.297 38.2935 121.98 38.1498 121.741C38.1095 121.675 38.0635 121.621 38.0003 121.579C34.0561 118.851 30.4684 115.549 26.346 113.329C25.9493 113.114 25.7941 112.599 26.0011 112.18C26.0643 112.049 26.162 111.941 26.2828 111.863C27.8467 110.816 29.169 109.476 30.7501 108.549C32.8487 107.322 35.0335 105.952 37.3046 104.433C37.8335 104.08 37.8508 103.703 37.3506 103.308L26.3863 94.6868C26.0413 94.4176 25.9723 93.9031 26.231 93.5501C26.2368 93.5382 26.2425 93.5322 26.254 93.5202C28.7206 90.4391 33.0212 88.6502 36.9654 86.9033C37.7645 86.5503 37.8853 85.958 37.3333 85.1264C36.7296 84.211 35.6315 83.1999 34.0389 82.0872C31.2101 80.1128 28.7091 78.1086 25.5468 76.7206C25.2364 76.589 25.0926 76.2181 25.2249 75.895C25.6503 74.848 26.3633 74.0045 27.3694 73.3523C30.6007 71.2763 33.9871 69.1764 37.5288 67.0585C37.6955 66.9568 37.7588 66.7354 37.6726 66.55C37.5518 66.2927 37.3391 66.0474 37.0401 65.826C33.1017 62.8406 29.4508 59.5023 25.4204 56.6605C25.1501 56.469 25.0754 56.0861 25.2594 55.8049C25.3169 55.7212 25.3916 55.6494 25.4778 55.6015C27.0475 54.74 28.1341 53.1785 29.4393 52.2392C31.6701 50.6298 33.9239 49.1342 36.2007 47.7402C36.5399 47.5308 36.6204 47.2496 36.4479 46.8847C35.3268 44.4975 33.6134 42.4335 32.59 40.3275C31.8828 38.8797 31.1699 37.4379 30.4512 35.996C29.675 34.4345 28.4101 31.3893 27.0647 29.2475C26.6393 28.5714 26.4438 27.8356 26.484 27.0458C26.4898 26.8544 26.576 26.7168 26.7427 26.627C27.5592 26.2023 28.2491 26.1664 28.8183 26.5253C31.3538 28.1347 34.2688 29.3851 36.5342 30.9286C39.4894 32.9448 42.3986 35.1465 45.2561 37.5456C45.7678 37.9823 46.521 37.8985 46.9408 37.3661C46.958 37.3421 46.9752 37.3242 46.9867 37.3003C49.436 33.6987 51.9831 30.3962 54.0241 26.4416C54.1046 26.292 54.2254 26.1903 54.3864 26.1424C55.6857 25.7655 56.5999 25.9869 57.1346 26.8065C59.3827 30.2586 61.5157 33.914 63.5281 37.7849C63.7983 38.3054 64.1145 38.3353 64.4767 37.8866C65.9084 36.1037 67.0353 33.4713 67.9149 31.9397C68.9786 30.097 70.1113 28.1526 71.3186 26.1125C71.4739 25.8553 71.6694 25.8074 71.9166 25.957C73.8484 27.1416 75.0501 28.5176 76.3207 30.6594C77.7466 33.0645 79.2415 35.3619 80.8111 37.5515C80.9663 37.7609 81.2538 37.8028 81.455 37.6473C81.501 37.6114 81.547 37.5635 81.5758 37.5037L88.3027 25.604C88.5844 25.1074 88.9811 24.9638 89.4928 25.1732C90.6485 25.6459 91.5454 26.3578 92.1721 27.321C94.5006 30.8808 96.7775 34.4405 99.0083 38.0002C99.106 38.1558 99.313 38.1977 99.4625 38.096C99.4912 38.0721 99.52 38.0481 99.543 38.0182C102.193 34.4525 103.815 30.0612 106.218 26.2202C106.517 25.7356 107.127 25.5741 107.615 25.8553C109.685 27.0339 110.628 29.2894 111.703 30.797C113.215 32.9089 114.664 35.1405 116.05 37.4917C116.55 38.3353 117.062 38.3473 117.591 37.5216C118.925 35.4456 120.396 33.25 122.012 30.9466C123.208 29.2475 123.973 27.5005 124.841 25.6399C124.95 25.4126 125.214 25.3168 125.427 25.4305C125.427 25.4305 125.439 25.4305 125.444 25.4365C127.785 26.7646 129.745 31.2457 131.228 33.3636C132.286 34.8713 133.902 36.7917 134.184 38.6643C134.218 38.8917 134.327 38.9455 134.517 38.8199V38.8139ZM97.0477 186.66C98.8128 186.612 100.204 187.031 101.222 187.922C104.166 190.489 107.086 192.87 109.978 195.077C110.329 195.347 110.559 195.257 110.657 194.814C111.22 192.289 111.83 190.106 112.301 187.354C112.583 185.702 112.928 182.328 114.009 180.635C114.135 180.438 114.308 180.36 114.532 180.402C115.274 180.551 115.969 180.821 116.625 181.215C120.419 183.477 123.806 186.277 127.825 187.802C128.084 187.904 128.371 187.761 128.469 187.491C128.492 187.431 128.497 187.366 128.497 187.306L128.285 172.857C128.273 172.229 128.566 171.96 129.164 172.044L143.607 174.024C143.728 174.042 143.843 173.958 143.866 173.827C143.866 173.791 143.866 173.749 143.854 173.713C142.934 170.764 141.842 167.832 140.583 164.912C139.985 163.524 139.611 161.807 138.881 160.306C138.019 158.523 137.875 157.153 140.077 156.632C141.52 156.291 142.814 156.094 144.079 155.603C146.568 154.64 149.109 153.755 151.702 152.953C152.64 152.66 152.772 152.145 152.105 151.403C148.948 147.885 145.47 144.786 141.67 142.112C141.135 141.735 140.98 140.993 141.313 140.419C141.957 139.324 142.963 138.558 144.171 137.882C147.247 136.153 150.15 134.203 152.87 132.019C153.094 131.84 153.134 131.505 152.962 131.277C152.939 131.247 152.916 131.218 152.887 131.194C149.357 128.16 145.694 125.39 141.905 122.872C140.83 122.16 140.75 121.31 141.664 120.335C142.417 119.521 145.269 118.654 146.562 117.792C148.563 116.464 150.604 115.082 152.68 113.646C152.967 113.449 153.042 113.042 152.852 112.743C152.824 112.701 152.795 112.665 152.76 112.629C149.753 109.68 146.355 107.185 142.561 105.151C141.957 104.828 141.549 104.235 141.325 103.374C141.273 103.188 141.302 103.015 141.405 102.853C142.055 101.836 142.796 101.1 143.624 100.652C146.815 98.9047 149.903 96.9842 152.893 94.8843C153.019 94.7945 153.054 94.6151 152.967 94.4834C152.967 94.4834 152.962 94.4715 152.956 94.4715C151.191 91.9886 147.655 90.14 145.286 88.2075C144.09 87.2323 142.819 86.5623 141.514 85.7307C141.118 85.4734 140.968 84.9529 141.164 84.5161C141.336 84.1333 141.687 83.7563 142.216 83.3914C145.568 81.0701 148.994 78.6889 152.507 76.254C152.743 76.0924 152.806 75.7574 152.645 75.5121C152.611 75.4583 152.565 75.4104 152.513 75.3745C149.713 73.3643 146.603 70.9473 143.486 69.3678C142.308 68.7695 141.175 68.5542 140.571 67.1303C140.387 66.7055 140.531 66.203 140.916 65.9517C144.452 63.6423 147.891 61.1535 151.231 58.4852C151.587 58.198 151.737 57.9108 151.685 57.6297C151.61 57.2348 151.409 56.8998 151.139 56.7023L141.118 49.3914C140.853 49.2 140.79 48.823 140.974 48.5478C140.98 48.5359 140.991 48.5239 140.997 48.5179C145.137 43.1275 147.781 36.8216 151.57 31.144C151.783 30.8269 152.007 30.4919 152.243 30.1509C152.352 30.0013 152.318 29.8996 152.139 29.8577C151.829 29.78 151.541 29.8278 151.283 30.0013C149.293 31.3534 146.735 33.1602 143.607 35.4157C141.175 37.1746 137.645 39.0233 134.908 41.3566C134.189 41.9608 133.609 41.913 133.16 41.201C130.866 37.5934 128.584 33.92 126.318 30.1928C126.221 30.0252 126.008 29.9774 125.853 30.0791C125.818 30.097 125.789 30.127 125.766 30.1569C125.059 31.0603 124.433 32.0355 123.875 33.0765C122.639 35.3858 120.937 37.0849 119.862 39.5737C119.408 40.6327 118.511 42.0386 117.7 42.4514C116.676 42.9779 115.941 42.7984 115.492 41.913C113.037 37.067 110.461 33.0106 107.759 29.7441C107.604 29.5586 107.477 29.5765 107.38 29.7979C106.672 31.3893 105.62 32.8252 104.965 34.3209C104.516 35.3379 100.607 46.1966 98.4103 42.1702C95.984 37.7251 93.322 33.4952 90.4185 29.4808C90.1943 29.1697 89.7688 29.1099 89.4641 29.3432C89.3893 29.403 89.3261 29.4748 89.2801 29.5646C87.423 33.0047 85.5889 36.3969 83.7778 39.7412C83.3121 40.6087 82.6567 41.2848 81.8115 41.7754C81.6505 41.8711 81.4838 41.8891 81.3055 41.8352C80.2534 41.5062 79.5059 40.9557 79.069 40.178C77.2234 36.9174 75.2226 33.6987 73.0722 30.5158C72.802 30.115 72.4858 30.0731 72.1351 30.4022C71.5371 30.9586 71.0139 31.7303 70.5597 32.7175C68.9786 36.1516 67.7137 39.4122 64.9827 42.1224C64.2985 42.7924 63.7121 42.7147 63.2118 41.889L55.8525 29.7321C55.7088 29.4928 55.565 29.4928 55.4213 29.7321C54.3404 31.5628 53.3112 33.0166 52.1498 35.1166C51.1149 36.9951 49.0508 40.7523 46.8028 41.5361C46.613 41.6019 46.4291 41.5779 46.2566 41.4702C43.0196 39.4062 39.7769 36.5165 37.0574 34.6978C35.2118 33.4653 33.3202 32.2748 31.3826 31.1201C31.2274 31.0303 31.0319 31.0842 30.9456 31.2457C30.9111 31.3115 30.8939 31.3893 30.9054 31.4671C30.9226 31.5927 30.9916 31.7842 31.1124 32.0414C33.5789 37.3661 36.0972 42.5292 39.9896 46.8787C40.4841 47.4351 40.4553 48.3085 39.9149 48.8231C39.8516 48.8829 39.7826 48.9367 39.7136 48.9846L29.859 55.2904C29.3875 55.5896 29.238 56.2297 29.5313 56.7203C29.7957 57.157 30.2384 57.5998 30.8594 58.0485C33.6996 60.0886 36.5514 62.1167 39.4089 64.127C40.4093 64.8269 41.22 65.6107 41.8352 66.4722C42.2147 66.9927 42.1169 67.7405 41.611 68.1354C41.565 68.1713 41.519 68.2012 41.4672 68.2311L30.1177 74.6147C29.4105 75.0155 29.3818 75.4642 30.0372 75.9488C32.8947 78.0727 35.8442 80.3522 38.8742 82.7991C39.8171 83.5589 40.8693 83.9957 41.9444 84.5999C42.3182 84.8153 42.4791 85.2939 42.3067 85.7008C41.565 87.4477 40.4726 88.4229 38.673 89.1947C36.1087 90.2955 32.199 91.7493 30.1982 93.7296C29.8992 94.0228 29.9107 94.304 30.2384 94.5612C32.5727 96.4039 34.0561 97.5526 37.2356 99.7662C38.9547 100.963 40.4266 102.452 41.6627 104.235C41.8352 104.487 41.7777 104.834 41.5362 105.013C41.5247 105.019 41.5132 105.025 41.5075 105.037L30.9801 111.857C30.2269 112.342 30.2212 112.844 30.9514 113.365L41.7662 121.029C42.1399 121.292 42.2607 121.807 42.0479 122.219C41.151 123.978 40.4151 124.786 38.6442 125.815C36.2697 127.191 33.9181 128.615 31.6011 130.093C31.0549 130.44 30.6237 130.799 30.3074 131.17C30.158 131.349 30.1694 131.618 30.3419 131.78C30.3649 131.804 30.3879 131.822 30.4167 131.834C32.3773 132.929 34.2229 134.143 35.9592 135.471C37.753 136.853 39.7424 139.366 42.2089 140.796C42.6804 141.065 42.8471 141.681 42.5884 142.172C42.5654 142.214 42.5366 142.262 42.5079 142.298C42.2147 142.698 41.8467 143.075 41.4097 143.428C38.0635 146.115 34.7978 148.897 31.6183 151.786C31.2849 152.091 31.0204 152.402 30.8191 152.726C30.4972 153.246 30.6237 153.593 31.1929 153.772C33.5904 154.514 36.2294 154.658 38.4487 155.232C40.2598 155.705 44.1005 156.184 45.4344 157.434C45.5839 157.578 45.6414 157.751 45.6126 157.96C45.5091 158.732 45.3136 159.384 45.0319 159.929C43.2381 163.333 40.0241 167.79 38.7132 172.092C38.6557 172.271 38.7535 172.469 38.9259 172.528C38.9604 172.54 39.0007 172.546 39.0409 172.546C40.9498 172.475 42.8873 172.516 44.8479 172.678C48.2229 172.959 51.2299 172.606 54.5301 171.906C54.8981 171.828 55.2545 172.074 55.335 172.451C55.3465 172.51 55.3523 172.57 55.3465 172.63L54.6911 188.233C54.6796 188.538 54.9096 188.802 55.2028 188.813C55.3063 188.813 55.404 188.79 55.496 188.736C59.5609 186.235 64.0455 184.051 67.9379 181.197C68.1047 181.072 68.2829 181.042 68.4784 181.108C70.7782 181.844 69.0648 184.093 69.4443 185.679C70.1745 188.754 70.6575 191.883 70.8874 195.065C70.8989 195.275 70.9967 195.329 71.1806 195.239C72.1753 194.748 72.8538 194.3 73.2275 193.893C75.51 191.398 77.9708 189.113 80.6213 187.043C81.6505 186.241 82.5014 186.361 83.1741 187.408C84.4448 189.37 84.876 191.165 85.8361 193.079C87.2505 195.909 87.8485 199.223 89.7228 201.754C89.947 202.059 90.1368 202.041 90.292 201.688L96.72 186.881C96.7775 186.743 96.9039 186.66 97.0477 186.654V186.66Z"/>
</mask>
<path d="M134.517 38.8139C134.609 38.7541 134.678 38.6584 134.724 38.5267C134.764 38.4071 134.839 38.3054 134.943 38.2336C138.818 35.4995 142.727 32.8192 146.672 30.1928C148.626 28.8945 151.518 26.6629 154.146 25.5083C155.152 25.0656 156.187 25.6219 156.164 26.8424C156.135 28.4996 154.267 31.2278 153.399 32.6337C151.323 36.014 149.443 39.5139 147.758 43.1215C147.051 44.6411 146.091 46.059 145.246 47.5906C145.056 47.9316 145.108 48.2368 145.395 48.494C148.626 51.4196 152.03 54.1058 155.612 56.5588C155.94 56.7741 156.032 57.2288 155.819 57.5698C155.79 57.6177 155.756 57.6596 155.716 57.7014C154.577 58.8501 153.663 60.1125 152.364 61.0817C151.202 61.9492 150.047 62.8287 148.897 63.7082C147.942 64.438 146.39 65.2098 145.407 66.544C145.349 66.6158 145.361 66.7235 145.43 66.7773C145.43 66.7773 145.435 66.7833 145.441 66.7892L155.934 74.2019C156.187 74.3814 156.279 74.7224 156.153 75.0155C155.641 76.1941 154.997 77.1035 154.221 77.7317C151.421 79.9992 148.753 82.1231 146.212 84.0914C145.688 84.4922 145.7 84.8871 146.24 85.264C149.978 87.8785 153.548 90.7203 156.946 93.8014C157.09 93.939 157.124 94.1005 157.044 94.286C156.032 96.6133 153.962 97.3132 152.502 98.456C150.53 99.9935 148.379 101.22 146.062 102.135C145.706 102.273 145.527 102.692 145.66 103.063C145.706 103.188 145.786 103.302 145.89 103.38C149.328 106.066 152.697 108.872 156.204 111.421C157.912 112.665 155.946 114.334 154.738 115.208C152.065 117.152 149.27 119.096 146.355 121.047C146.085 121.226 146.005 121.609 146.177 121.89C146.212 121.944 146.252 121.992 146.304 122.034L156.63 130.787C157.038 131.128 157.084 131.523 156.779 131.965C154.819 134.759 152.019 135.687 149.414 137.727C148.316 138.582 147.166 139.372 145.964 140.09C145.545 140.347 145.361 140.724 145.424 141.227C145.481 141.711 145.809 142.16 146.401 142.567C149.966 144.996 152.565 148.119 155.681 151.206C155.888 151.409 155.946 151.72 155.836 151.984C154.56 155.047 150.834 156.525 147.845 157.332C145.838 157.877 143.929 158.589 142.13 159.468C141.859 159.6 141.721 159.917 141.802 160.21C142.325 162.065 143.251 163.907 143.774 165.505C144.636 168.143 145.55 170.758 146.522 173.354C147.206 175.197 147.482 176.926 145.062 177.38C144.711 177.446 144.251 177.404 143.693 177.255C141.71 176.704 139.479 176.609 137.708 176.274C135.587 175.879 133.517 175.61 131.493 175.466C131.246 175.448 131.119 175.568 131.119 175.825L131.085 191.075C131.085 191.745 130.556 192.289 129.918 192.283C129.728 192.283 129.538 192.236 129.371 192.14L116.544 184.919C116.309 184.787 116.107 184.829 115.935 185.038C115.417 185.661 115.113 186.217 115.021 186.702C114.313 190.495 113.503 193.785 112.589 196.579C112.324 197.387 111.818 198.141 111.065 198.835C110.927 198.96 110.777 198.978 110.611 198.888C106.471 196.495 102.975 193.342 99.198 190.381C98.9968 190.225 98.7208 190.267 98.5713 190.477C98.5713 190.483 98.5598 190.495 98.554 190.501C97.3179 192.511 96.0588 194.246 95.2998 196.573C94.4259 199.259 93.345 201.09 92.5286 203.435C91.9364 205.14 91.2579 206.032 89.8091 206.816C89.3721 207.049 88.8431 206.875 88.6132 206.421C88.6074 206.409 88.6017 206.391 88.5959 206.379L81.7253 190.489C81.6793 190.387 81.5643 190.339 81.4665 190.381C81.455 190.381 81.4435 190.393 81.432 190.405C79.5174 191.763 77.7236 192.876 75.9297 194.593C74.6821 195.795 72.2903 198.47 70.3412 199.104C67.8057 199.917 68.3289 195.191 68.1679 193.863C67.9034 191.661 66.8685 189.065 66.8513 186.402C66.8513 186.008 66.5408 185.696 66.1613 185.696C66.0751 185.696 65.9889 185.714 65.9141 185.75C63.5453 186.749 61.2858 188.431 59.3769 189.424C58.0603 190.112 56.7494 190.818 55.4443 191.542C53.4089 192.666 51.6381 189.837 51.8163 187.904C52.167 184.045 52.3108 180.258 52.2533 176.543C52.2418 175.998 51.8221 175.556 51.2989 175.544L35.5625 175.203C34.815 175.185 34.2286 174.539 34.2458 173.761C34.2458 173.51 34.3206 173.264 34.4471 173.055C35.9937 170.482 37.3966 167.329 38.7707 165.032C39.8976 163.147 41.0935 161.317 42.3584 159.534C42.4676 159.384 42.4331 159.169 42.2894 159.055C42.2664 159.037 42.2434 159.025 42.2147 159.013C39.6619 157.931 36.7526 157.601 34.3321 156.89C31.4861 156.046 28.6113 156.118 26.3575 154.084C25.9666 153.731 25.9666 153.378 26.3575 153.025L38.6442 141.897C38.811 141.741 38.8282 141.478 38.6845 141.31C38.6845 141.31 38.673 141.298 38.6672 141.292C36.9251 139.444 34.976 137.858 32.82 136.53C30.5374 135.124 28.5538 133.413 26.208 132.109C25.6791 131.816 25.4836 131.134 25.7653 130.583C25.8573 130.41 25.9838 130.26 26.1448 130.159L37.9888 122.447C38.2188 122.297 38.2935 121.98 38.1498 121.741C38.1095 121.675 38.0635 121.621 38.0003 121.579C34.0561 118.851 30.4684 115.549 26.346 113.329C25.9493 113.114 25.7941 112.599 26.0011 112.18C26.0643 112.049 26.162 111.941 26.2828 111.863C27.8467 110.816 29.169 109.476 30.7501 108.549C32.8487 107.322 35.0335 105.952 37.3046 104.433C37.8335 104.08 37.8508 103.703 37.3506 103.308L26.3863 94.6868C26.0413 94.4176 25.9723 93.9031 26.231 93.5501C26.2368 93.5382 26.2425 93.5322 26.254 93.5202C28.7206 90.4391 33.0212 88.6502 36.9654 86.9033C37.7645 86.5503 37.8853 85.958 37.3333 85.1264C36.7296 84.211 35.6315 83.1999 34.0389 82.0872C31.2101 80.1128 28.7091 78.1086 25.5468 76.7206C25.2364 76.589 25.0926 76.2181 25.2249 75.895C25.6503 74.848 26.3633 74.0045 27.3694 73.3523C30.6007 71.2763 33.9871 69.1764 37.5288 67.0585C37.6955 66.9568 37.7588 66.7354 37.6726 66.55C37.5518 66.2927 37.3391 66.0474 37.0401 65.826C33.1017 62.8406 29.4508 59.5023 25.4204 56.6605C25.1501 56.469 25.0754 56.0861 25.2594 55.8049C25.3169 55.7212 25.3916 55.6494 25.4778 55.6015C27.0475 54.74 28.1341 53.1785 29.4393 52.2392C31.6701 50.6298 33.9239 49.1342 36.2007 47.7402C36.5399 47.5308 36.6204 47.2496 36.4479 46.8847C35.3268 44.4975 33.6134 42.4335 32.59 40.3275C31.8828 38.8797 31.1699 37.4379 30.4512 35.996C29.675 34.4345 28.4101 31.3893 27.0647 29.2475C26.6393 28.5714 26.4438 27.8356 26.484 27.0458C26.4898 26.8544 26.576 26.7168 26.7427 26.627C27.5592 26.2023 28.2491 26.1664 28.8183 26.5253C31.3538 28.1347 34.2688 29.3851 36.5342 30.9286C39.4894 32.9448 42.3986 35.1465 45.2561 37.5456C45.7678 37.9823 46.521 37.8985 46.9408 37.3661C46.958 37.3421 46.9752 37.3242 46.9867 37.3003C49.436 33.6987 51.9831 30.3962 54.0241 26.4416C54.1046 26.292 54.2254 26.1903 54.3864 26.1424C55.6857 25.7655 56.5999 25.9869 57.1346 26.8065C59.3827 30.2586 61.5157 33.914 63.5281 37.7849C63.7983 38.3054 64.1145 38.3353 64.4767 37.8866C65.9084 36.1037 67.0353 33.4713 67.9149 31.9397C68.9786 30.097 70.1113 28.1526 71.3186 26.1125C71.4739 25.8553 71.6694 25.8074 71.9166 25.957C73.8484 27.1416 75.0501 28.5176 76.3207 30.6594C77.7466 33.0645 79.2415 35.3619 80.8111 37.5515C80.9663 37.7609 81.2538 37.8028 81.455 37.6473C81.501 37.6114 81.547 37.5635 81.5758 37.5037L88.3027 25.604C88.5844 25.1074 88.9811 24.9638 89.4928 25.1732C90.6485 25.6459 91.5454 26.3578 92.1721 27.321C94.5006 30.8808 96.7775 34.4405 99.0083 38.0002C99.106 38.1558 99.313 38.1977 99.4625 38.096C99.4912 38.0721 99.52 38.0481 99.543 38.0182C102.193 34.4525 103.815 30.0612 106.218 26.2202C106.517 25.7356 107.127 25.5741 107.615 25.8553C109.685 27.0339 110.628 29.2894 111.703 30.797C113.215 32.9089 114.664 35.1405 116.05 37.4917C116.55 38.3353 117.062 38.3473 117.591 37.5216C118.925 35.4456 120.396 33.25 122.012 30.9466C123.208 29.2475 123.973 27.5005 124.841 25.6399C124.95 25.4126 125.214 25.3168 125.427 25.4305C125.427 25.4305 125.439 25.4305 125.444 25.4365C127.785 26.7646 129.745 31.2457 131.228 33.3636C132.286 34.8713 133.902 36.7917 134.184 38.6643C134.218 38.8917 134.327 38.9455 134.517 38.8199V38.8139ZM97.0477 186.66C98.8128 186.612 100.204 187.031 101.222 187.922C104.166 190.489 107.086 192.87 109.978 195.077C110.329 195.347 110.559 195.257 110.657 194.814C111.22 192.289 111.83 190.106 112.301 187.354C112.583 185.702 112.928 182.328 114.009 180.635C114.135 180.438 114.308 180.36 114.532 180.402C115.274 180.551 115.969 180.821 116.625 181.215C120.419 183.477 123.806 186.277 127.825 187.802C128.084 187.904 128.371 187.761 128.469 187.491C128.492 187.431 128.497 187.366 128.497 187.306L128.285 172.857C128.273 172.229 128.566 171.96 129.164 172.044L143.607 174.024C143.728 174.042 143.843 173.958 143.866 173.827C143.866 173.791 143.866 173.749 143.854 173.713C142.934 170.764 141.842 167.832 140.583 164.912C139.985 163.524 139.611 161.807 138.881 160.306C138.019 158.523 137.875 157.153 140.077 156.632C141.52 156.291 142.814 156.094 144.079 155.603C146.568 154.64 149.109 153.755 151.702 152.953C152.64 152.66 152.772 152.145 152.105 151.403C148.948 147.885 145.47 144.786 141.67 142.112C141.135 141.735 140.98 140.993 141.313 140.419C141.957 139.324 142.963 138.558 144.171 137.882C147.247 136.153 150.15 134.203 152.87 132.019C153.094 131.84 153.134 131.505 152.962 131.277C152.939 131.247 152.916 131.218 152.887 131.194C149.357 128.16 145.694 125.39 141.905 122.872C140.83 122.16 140.75 121.31 141.664 120.335C142.417 119.521 145.269 118.654 146.562 117.792C148.563 116.464 150.604 115.082 152.68 113.646C152.967 113.449 153.042 113.042 152.852 112.743C152.824 112.701 152.795 112.665 152.76 112.629C149.753 109.68 146.355 107.185 142.561 105.151C141.957 104.828 141.549 104.235 141.325 103.374C141.273 103.188 141.302 103.015 141.405 102.853C142.055 101.836 142.796 101.1 143.624 100.652C146.815 98.9047 149.903 96.9842 152.893 94.8843C153.019 94.7945 153.054 94.6151 152.967 94.4834C152.967 94.4834 152.962 94.4715 152.956 94.4715C151.191 91.9886 147.655 90.14 145.286 88.2075C144.09 87.2323 142.819 86.5623 141.514 85.7307C141.118 85.4734 140.968 84.9529 141.164 84.5161C141.336 84.1333 141.687 83.7563 142.216 83.3914C145.568 81.0701 148.994 78.6889 152.507 76.254C152.743 76.0924 152.806 75.7574 152.645 75.5121C152.611 75.4583 152.565 75.4104 152.513 75.3745C149.713 73.3643 146.603 70.9473 143.486 69.3678C142.308 68.7695 141.175 68.5542 140.571 67.1303C140.387 66.7055 140.531 66.203 140.916 65.9517C144.452 63.6423 147.891 61.1535 151.231 58.4852C151.587 58.198 151.737 57.9108 151.685 57.6297C151.61 57.2348 151.409 56.8998 151.139 56.7023L141.118 49.3914C140.853 49.2 140.79 48.823 140.974 48.5478C140.98 48.5359 140.991 48.5239 140.997 48.5179C145.137 43.1275 147.781 36.8216 151.57 31.144C151.783 30.8269 152.007 30.4919 152.243 30.1509C152.352 30.0013 152.318 29.8996 152.139 29.8577C151.829 29.78 151.541 29.8278 151.283 30.0013C149.293 31.3534 146.735 33.1602 143.607 35.4157C141.175 37.1746 137.645 39.0233 134.908 41.3566C134.189 41.9608 133.609 41.913 133.16 41.201C130.866 37.5934 128.584 33.92 126.318 30.1928C126.221 30.0252 126.008 29.9774 125.853 30.0791C125.818 30.097 125.789 30.127 125.766 30.1569C125.059 31.0603 124.433 32.0355 123.875 33.0765C122.639 35.3858 120.937 37.0849 119.862 39.5737C119.408 40.6327 118.511 42.0386 117.7 42.4514C116.676 42.9779 115.941 42.7984 115.492 41.913C113.037 37.067 110.461 33.0106 107.759 29.7441C107.604 29.5586 107.477 29.5765 107.38 29.7979C106.672 31.3893 105.62 32.8252 104.965 34.3209C104.516 35.3379 100.607 46.1966 98.4103 42.1702C95.984 37.7251 93.322 33.4952 90.4185 29.4808C90.1943 29.1697 89.7688 29.1099 89.4641 29.3432C89.3893 29.403 89.3261 29.4748 89.2801 29.5646C87.423 33.0047 85.5889 36.3969 83.7778 39.7412C83.3121 40.6087 82.6567 41.2848 81.8115 41.7754C81.6505 41.8711 81.4838 41.8891 81.3055 41.8352C80.2534 41.5062 79.5059 40.9557 79.069 40.178C77.2234 36.9174 75.2226 33.6987 73.0722 30.5158C72.802 30.115 72.4858 30.0731 72.1351 30.4022C71.5371 30.9586 71.0139 31.7303 70.5597 32.7175C68.9786 36.1516 67.7137 39.4122 64.9827 42.1224C64.2985 42.7924 63.7121 42.7147 63.2118 41.889L55.8525 29.7321C55.7088 29.4928 55.565 29.4928 55.4213 29.7321C54.3404 31.5628 53.3112 33.0166 52.1498 35.1166C51.1149 36.9951 49.0508 40.7523 46.8028 41.5361C46.613 41.6019 46.4291 41.5779 46.2566 41.4702C43.0196 39.4062 39.7769 36.5165 37.0574 34.6978C35.2118 33.4653 33.3202 32.2748 31.3826 31.1201C31.2274 31.0303 31.0319 31.0842 30.9456 31.2457C30.9111 31.3115 30.8939 31.3893 30.9054 31.4671C30.9226 31.5927 30.9916 31.7842 31.1124 32.0414C33.5789 37.3661 36.0972 42.5292 39.9896 46.8787C40.4841 47.4351 40.4553 48.3085 39.9149 48.8231C39.8516 48.8829 39.7826 48.9367 39.7136 48.9846L29.859 55.2904C29.3875 55.5896 29.238 56.2297 29.5313 56.7203C29.7957 57.157 30.2384 57.5998 30.8594 58.0485C33.6996 60.0886 36.5514 62.1167 39.4089 64.127C40.4093 64.8269 41.22 65.6107 41.8352 66.4722C42.2147 66.9927 42.1169 67.7405 41.611 68.1354C41.565 68.1713 41.519 68.2012 41.4672 68.2311L30.1177 74.6147C29.4105 75.0155 29.3818 75.4642 30.0372 75.9488C32.8947 78.0727 35.8442 80.3522 38.8742 82.7991C39.8171 83.5589 40.8693 83.9957 41.9444 84.5999C42.3182 84.8153 42.4791 85.2939 42.3067 85.7008C41.565 87.4477 40.4726 88.4229 38.673 89.1947C36.1087 90.2955 32.199 91.7493 30.1982 93.7296C29.8992 94.0228 29.9107 94.304 30.2384 94.5612C32.5727 96.4039 34.0561 97.5526 37.2356 99.7662C38.9547 100.963 40.4266 102.452 41.6627 104.235C41.8352 104.487 41.7777 104.834 41.5362 105.013C41.5247 105.019 41.5132 105.025 41.5075 105.037L30.9801 111.857C30.2269 112.342 30.2212 112.844 30.9514 113.365L41.7662 121.029C42.1399 121.292 42.2607 121.807 42.0479 122.219C41.151 123.978 40.4151 124.786 38.6442 125.815C36.2697 127.191 33.9181 128.615 31.6011 130.093C31.0549 130.44 30.6237 130.799 30.3074 131.17C30.158 131.349 30.1694 131.618 30.3419 131.78C30.3649 131.804 30.3879 131.822 30.4167 131.834C32.3773 132.929 34.2229 134.143 35.9592 135.471C37.753 136.853 39.7424 139.366 42.2089 140.796C42.6804 141.065 42.8471 141.681 42.5884 142.172C42.5654 142.214 42.5366 142.262 42.5079 142.298C42.2147 142.698 41.8467 143.075 41.4097 143.428C38.0635 146.115 34.7978 148.897 31.6183 151.786C31.2849 152.091 31.0204 152.402 30.8191 152.726C30.4972 153.246 30.6237 153.593 31.1929 153.772C33.5904 154.514 36.2294 154.658 38.4487 155.232C40.2598 155.705 44.1005 156.184 45.4344 157.434C45.5839 157.578 45.6414 157.751 45.6126 157.96C45.5091 158.732 45.3136 159.384 45.0319 159.929C43.2381 163.333 40.0241 167.79 38.7132 172.092C38.6557 172.271 38.7535 172.469 38.9259 172.528C38.9604 172.54 39.0007 172.546 39.0409 172.546C40.9498 172.475 42.8873 172.516 44.8479 172.678C48.2229 172.959 51.2299 172.606 54.5301 171.906C54.8981 171.828 55.2545 172.074 55.335 172.451C55.3465 172.51 55.3523 172.57 55.3465 172.63L54.6911 188.233C54.6796 188.538 54.9096 188.802 55.2028 188.813C55.3063 188.813 55.404 188.79 55.496 188.736C59.5609 186.235 64.0455 184.051 67.9379 181.197C68.1047 181.072 68.2829 181.042 68.4784 181.108C70.7782 181.844 69.0648 184.093 69.4443 185.679C70.1745 188.754 70.6575 191.883 70.8874 195.065C70.8989 195.275 70.9967 195.329 71.1806 195.239C72.1753 194.748 72.8538 194.3 73.2275 193.893C75.51 191.398 77.9708 189.113 80.6213 187.043C81.6505 186.241 82.5014 186.361 83.1741 187.408C84.4448 189.37 84.876 191.165 85.8361 193.079C87.2505 195.909 87.8485 199.223 89.7228 201.754C89.947 202.059 90.1368 202.041 90.292 201.688L96.72 186.881C96.7775 186.743 96.9039 186.66 97.0477 186.654V186.66Z" fill="black"/>
<path d="M134.517 38.8139C134.609 38.7541 134.678 38.6584 134.724 38.5267C134.764 38.4071 134.839 38.3054 134.943 38.2336C138.818 35.4995 142.727 32.8192 146.672 30.1928C148.626 28.8945 151.518 26.6629 154.146 25.5083C155.152 25.0656 156.187 25.6219 156.164 26.8424C156.135 28.4996 154.267 31.2278 153.399 32.6337C151.323 36.014 149.443 39.5139 147.758 43.1215C147.051 44.6411 146.091 46.059 145.246 47.5906C145.056 47.9316 145.108 48.2368 145.395 48.494C148.626 51.4196 152.03 54.1058 155.612 56.5588C155.94 56.7741 156.032 57.2288 155.819 57.5698C155.79 57.6177 155.756 57.6596 155.716 57.7014C154.577 58.8501 153.663 60.1125 152.364 61.0817C151.202 61.9492 150.047 62.8287 148.897 63.7082C147.942 64.438 146.39 65.2098 145.407 66.544C145.349 66.6158 145.361 66.7235 145.43 66.7773C145.43 66.7773 145.435 66.7833 145.441 66.7892L155.934 74.2019C156.187 74.3814 156.279 74.7224 156.153 75.0155C155.641 76.1941 154.997 77.1035 154.221 77.7317C151.421 79.9992 148.753 82.1231 146.212 84.0914C145.688 84.4922 145.7 84.8871 146.24 85.264C149.978 87.8785 153.548 90.7203 156.946 93.8014C157.09 93.939 157.124 94.1005 157.044 94.286C156.032 96.6133 153.962 97.3132 152.502 98.456C150.53 99.9935 148.379 101.22 146.062 102.135C145.706 102.273 145.527 102.692 145.66 103.063C145.706 103.188 145.786 103.302 145.89 103.38C149.328 106.066 152.697 108.872 156.204 111.421C157.912 112.665 155.946 114.334 154.738 115.208C152.065 117.152 149.27 119.096 146.355 121.047C146.085 121.226 146.005 121.609 146.177 121.89C146.212 121.944 146.252 121.992 146.304 122.034L156.63 130.787C157.038 131.128 157.084 131.523 156.779 131.965C154.819 134.759 152.019 135.687 149.414 137.727C148.316 138.582 147.166 139.372 145.964 140.09C145.545 140.347 145.361 140.724 145.424 141.227C145.481 141.711 145.809 142.16 146.401 142.567C149.966 144.996 152.565 148.119 155.681 151.206C155.888 151.409 155.946 151.72 155.836 151.984C154.56 155.047 150.834 156.525 147.845 157.332C145.838 157.877 143.929 158.589 142.13 159.468C141.859 159.6 141.721 159.917 141.802 160.21C142.325 162.065 143.251 163.907 143.774 165.505C144.636 168.143 145.55 170.758 146.522 173.354C147.206 175.197 147.482 176.926 145.062 177.38C144.711 177.446 144.251 177.404 143.693 177.255C141.71 176.704 139.479 176.609 137.708 176.274C135.587 175.879 133.517 175.61 131.493 175.466C131.246 175.448 131.119 175.568 131.119 175.825L131.085 191.075C131.085 191.745 130.556 192.289 129.918 192.283C129.728 192.283 129.538 192.236 129.371 192.14L116.544 184.919C116.309 184.787 116.107 184.829 115.935 185.038C115.417 185.661 115.113 186.217 115.021 186.702C114.313 190.495 113.503 193.785 112.589 196.579C112.324 197.387 111.818 198.141 111.065 198.835C110.927 198.96 110.777 198.978 110.611 198.888C106.471 196.495 102.975 193.342 99.198 190.381C98.9968 190.225 98.7208 190.267 98.5713 190.477C98.5713 190.483 98.5598 190.495 98.554 190.501C97.3179 192.511 96.0588 194.246 95.2998 196.573C94.4259 199.259 93.345 201.09 92.5286 203.435C91.9364 205.14 91.2579 206.032 89.8091 206.816C89.3721 207.049 88.8431 206.875 88.6132 206.421C88.6074 206.409 88.6017 206.391 88.5959 206.379L81.7253 190.489C81.6793 190.387 81.5643 190.339 81.4665 190.381C81.455 190.381 81.4435 190.393 81.432 190.405C79.5174 191.763 77.7236 192.876 75.9297 194.593C74.6821 195.795 72.2903 198.47 70.3412 199.104C67.8057 199.917 68.3289 195.191 68.1679 193.863C67.9034 191.661 66.8685 189.065 66.8513 186.402C66.8513 186.008 66.5408 185.696 66.1613 185.696C66.0751 185.696 65.9889 185.714 65.9141 185.75C63.5453 186.749 61.2858 188.431 59.3769 189.424C58.0603 190.112 56.7494 190.818 55.4443 191.542C53.4089 192.666 51.6381 189.837 51.8163 187.904C52.167 184.045 52.3108 180.258 52.2533 176.543C52.2418 175.998 51.8221 175.556 51.2989 175.544L35.5625 175.203C34.815 175.185 34.2286 174.539 34.2458 173.761C34.2458 173.51 34.3206 173.264 34.4471 173.055C35.9937 170.482 37.3966 167.329 38.7707 165.032C39.8976 163.147 41.0935 161.317 42.3584 159.534C42.4676 159.384 42.4331 159.169 42.2894 159.055C42.2664 159.037 42.2434 159.025 42.2147 159.013C39.6619 157.931 36.7526 157.601 34.3321 156.89C31.4861 156.046 28.6113 156.118 26.3575 154.084C25.9666 153.731 25.9666 153.378 26.3575 153.025L38.6442 141.897C38.811 141.741 38.8282 141.478 38.6845 141.31C38.6845 141.31 38.673 141.298 38.6672 141.292C36.9251 139.444 34.976 137.858 32.82 136.53C30.5374 135.124 28.5538 133.413 26.208 132.109C25.6791 131.816 25.4836 131.134 25.7653 130.583C25.8573 130.41 25.9838 130.26 26.1448 130.159L37.9888 122.447C38.2188 122.297 38.2935 121.98 38.1498 121.741C38.1095 121.675 38.0635 121.621 38.0003 121.579C34.0561 118.851 30.4684 115.549 26.346 113.329C25.9493 113.114 25.7941 112.599 26.0011 112.18C26.0643 112.049 26.162 111.941 26.2828 111.863C27.8467 110.816 29.169 109.476 30.7501 108.549C32.8487 107.322 35.0335 105.952 37.3046 104.433C37.8335 104.08 37.8508 103.703 37.3506 103.308L26.3863 94.6868C26.0413 94.4176 25.9723 93.9031 26.231 93.5501C26.2368 93.5382 26.2425 93.5322 26.254 93.5202C28.7206 90.4391 33.0212 88.6502 36.9654 86.9033C37.7645 86.5503 37.8853 85.958 37.3333 85.1264C36.7296 84.211 35.6315 83.1999 34.0389 82.0872C31.2101 80.1128 28.7091 78.1086 25.5468 76.7206C25.2364 76.589 25.0926 76.2181 25.2249 75.895C25.6503 74.848 26.3633 74.0045 27.3694 73.3523C30.6007 71.2763 33.9871 69.1764 37.5288 67.0585C37.6955 66.9568 37.7588 66.7354 37.6726 66.55C37.5518 66.2927 37.3391 66.0474 37.0401 65.826C33.1017 62.8406 29.4508 59.5023 25.4204 56.6605C25.1501 56.469 25.0754 56.0861 25.2594 55.8049C25.3169 55.7212 25.3916 55.6494 25.4778 55.6015C27.0475 54.74 28.1341 53.1785 29.4393 52.2392C31.6701 50.6298 33.9239 49.1342 36.2007 47.7402C36.5399 47.5308 36.6204 47.2496 36.4479 46.8847C35.3268 44.4975 33.6134 42.4335 32.59 40.3275C31.8828 38.8797 31.1699 37.4379 30.4512 35.996C29.675 34.4345 28.4101 31.3893 27.0647 29.2475C26.6393 28.5714 26.4438 27.8356 26.484 27.0458C26.4898 26.8544 26.576 26.7168 26.7427 26.627C27.5592 26.2023 28.2491 26.1664 28.8183 26.5253C31.3538 28.1347 34.2688 29.3851 36.5342 30.9286C39.4894 32.9448 42.3986 35.1465 45.2561 37.5456C45.7678 37.9823 46.521 37.8985 46.9408 37.3661C46.958 37.3421 46.9752 37.3242 46.9867 37.3003C49.436 33.6987 51.9831 30.3962 54.0241 26.4416C54.1046 26.292 54.2254 26.1903 54.3864 26.1424C55.6857 25.7655 56.5999 25.9869 57.1346 26.8065C59.3827 30.2586 61.5157 33.914 63.5281 37.7849C63.7983 38.3054 64.1145 38.3353 64.4767 37.8866C65.9084 36.1037 67.0353 33.4713 67.9149 31.9397C68.9786 30.097 70.1113 28.1526 71.3186 26.1125C71.4739 25.8553 71.6694 25.8074 71.9166 25.957C73.8484 27.1416 75.0501 28.5176 76.3207 30.6594C77.7466 33.0645 79.2415 35.3619 80.8111 37.5515C80.9663 37.7609 81.2538 37.8028 81.455 37.6473C81.501 37.6114 81.547 37.5635 81.5758 37.5037L88.3027 25.604C88.5844 25.1074 88.9811 24.9638 89.4928 25.1732C90.6485 25.6459 91.5454 26.3578 92.1721 27.321C94.5006 30.8808 96.7775 34.4405 99.0083 38.0002C99.106 38.1558 99.313 38.1977 99.4625 38.096C99.4912 38.0721 99.52 38.0481 99.543 38.0182C102.193 34.4525 103.815 30.0612 106.218 26.2202C106.517 25.7356 107.127 25.5741 107.615 25.8553C109.685 27.0339 110.628 29.2894 111.703 30.797C113.215 32.9089 114.664 35.1405 116.05 37.4917C116.55 38.3353 117.062 38.3473 117.591 37.5216C118.925 35.4456 120.396 33.25 122.012 30.9466C123.208 29.2475 123.973 27.5005 124.841 25.6399C124.95 25.4126 125.214 25.3168 125.427 25.4305C125.427 25.4305 125.439 25.4305 125.444 25.4365C127.785 26.7646 129.745 31.2457 131.228 33.3636C132.286 34.8713 133.902 36.7917 134.184 38.6643C134.218 38.8917 134.327 38.9455 134.517 38.8199V38.8139ZM97.0477 186.66C98.8128 186.612 100.204 187.031 101.222 187.922C104.166 190.489 107.086 192.87 109.978 195.077C110.329 195.347 110.559 195.257 110.657 194.814C111.22 192.289 111.83 190.106 112.301 187.354C112.583 185.702 112.928 182.328 114.009 180.635C114.135 180.438 114.308 180.36 114.532 180.402C115.274 180.551 115.969 180.821 116.625 181.215C120.419 183.477 123.806 186.277 127.825 187.802C128.084 187.904 128.371 187.761 128.469 187.491C128.492 187.431 128.497 187.366 128.497 187.306L128.285 172.857C128.273 172.229 128.566 171.96 129.164 172.044L143.607 174.024C143.728 174.042 143.843 173.958 143.866 173.827C143.866 173.791 143.866 173.749 143.854 173.713C142.934 170.764 141.842 167.832 140.583 164.912C139.985 163.524 139.611 161.807 138.881 160.306C138.019 158.523 137.875 157.153 140.077 156.632C141.52 156.291 142.814 156.094 144.079 155.603C146.568 154.64 149.109 153.755 151.702 152.953C152.64 152.66 152.772 152.145 152.105 151.403C148.948 147.885 145.47 144.786 141.67 142.112C141.135 141.735 140.98 140.993 141.313 140.419C141.957 139.324 142.963 138.558 144.171 137.882C147.247 136.153 150.15 134.203 152.87 132.019C153.094 131.84 153.134 131.505 152.962 131.277C152.939 131.247 152.916 131.218 152.887 131.194C149.357 128.16 145.694 125.39 141.905 122.872C140.83 122.16 140.75 121.31 141.664 120.335C142.417 119.521 145.269 118.654 146.562 117.792C148.563 116.464 150.604 115.082 152.68 113.646C152.967 113.449 153.042 113.042 152.852 112.743C152.824 112.701 152.795 112.665 152.76 112.629C149.753 109.68 146.355 107.185 142.561 105.151C141.957 104.828 141.549 104.235 141.325 103.374C141.273 103.188 141.302 103.015 141.405 102.853C142.055 101.836 142.796 101.1 143.624 100.652C146.815 98.9047 149.903 96.9842 152.893 94.8843C153.019 94.7945 153.054 94.6151 152.967 94.4834C152.967 94.4834 152.962 94.4715 152.956 94.4715C151.191 91.9886 147.655 90.14 145.286 88.2075C144.09 87.2323 142.819 86.5623 141.514 85.7307C141.118 85.4734 140.968 84.9529 141.164 84.5161C141.336 84.1333 141.687 83.7563 142.216 83.3914C145.568 81.0701 148.994 78.6889 152.507 76.254C152.743 76.0924 152.806 75.7574 152.645 75.5121C152.611 75.4583 152.565 75.4104 152.513 75.3745C149.713 73.3643 146.603 70.9473 143.486 69.3678C142.308 68.7695 141.175 68.5542 140.571 67.1303C140.387 66.7055 140.531 66.203 140.916 65.9517C144.452 63.6423 147.891 61.1535 151.231 58.4852C151.587 58.198 151.737 57.9108 151.685 57.6297C151.61 57.2348 151.409 56.8998 151.139 56.7023L141.118 49.3914C140.853 49.2 140.79 48.823 140.974 48.5478C140.98 48.5359 140.991 48.5239 140.997 48.5179C145.137 43.1275 147.781 36.8216 151.57 31.144C151.783 30.8269 152.007 30.4919 152.243 30.1509C152.352 30.0013 152.318 29.8996 152.139 29.8577C151.829 29.78 151.541 29.8278 151.283 30.0013C149.293 31.3534 146.735 33.1602 143.607 35.4157C141.175 37.1746 137.645 39.0233 134.908 41.3566C134.189 41.9608 133.609 41.913 133.16 41.201C130.866 37.5934 128.584 33.92 126.318 30.1928C126.221 30.0252 126.008 29.9774 125.853 30.0791C125.818 30.097 125.789 30.127 125.766 30.1569C125.059 31.0603 124.433 32.0355 123.875 33.0765C122.639 35.3858 120.937 37.0849 119.862 39.5737C119.408 40.6327 118.511 42.0386 117.7 42.4514C116.676 42.9779 115.941 42.7984 115.492 41.913C113.037 37.067 110.461 33.0106 107.759 29.7441C107.604 29.5586 107.477 29.5765 107.38 29.7979C106.672 31.3893 105.62 32.8252 104.965 34.3209C104.516 35.3379 100.607 46.1966 98.4103 42.1702C95.984 37.7251 93.322 33.4952 90.4185 29.4808C90.1943 29.1697 89.7688 29.1099 89.4641 29.3432C89.3893 29.403 89.3261 29.4748 89.2801 29.5646C87.423 33.0047 85.5889 36.3969 83.7778 39.7412C83.3121 40.6087 82.6567 41.2848 81.8115 41.7754C81.6505 41.8711 81.4838 41.8891 81.3055 41.8352C80.2534 41.5062 79.5059 40.9557 79.069 40.178C77.2234 36.9174 75.2226 33.6987 73.0722 30.5158C72.802 30.115 72.4858 30.0731 72.1351 30.4022C71.5371 30.9586 71.0139 31.7303 70.5597 32.7175C68.9786 36.1516 67.7137 39.4122 64.9827 42.1224C64.2985 42.7924 63.7121 42.7147 63.2118 41.889L55.8525 29.7321C55.7088 29.4928 55.565 29.4928 55.4213 29.7321C54.3404 31.5628 53.3112 33.0166 52.1498 35.1166C51.1149 36.9951 49.0508 40.7523 46.8028 41.5361C46.613 41.6019 46.4291 41.5779 46.2566 41.4702C43.0196 39.4062 39.7769 36.5165 37.0574 34.6978C35.2118 33.4653 33.3202 32.2748 31.3826 31.1201C31.2274 31.0303 31.0319 31.0842 30.9456 31.2457C30.9111 31.3115 30.8939 31.3893 30.9054 31.4671C30.9226 31.5927 30.9916 31.7842 31.1124 32.0414C33.5789 37.3661 36.0972 42.5292 39.9896 46.8787C40.4841 47.4351 40.4553 48.3085 39.9149 48.8231C39.8516 48.8829 39.7826 48.9367 39.7136 48.9846L29.859 55.2904C29.3875 55.5896 29.238 56.2297 29.5313 56.7203C29.7957 57.157 30.2384 57.5998 30.8594 58.0485C33.6996 60.0886 36.5514 62.1167 39.4089 64.127C40.4093 64.8269 41.22 65.6107 41.8352 66.4722C42.2147 66.9927 42.1169 67.7405 41.611 68.1354C41.565 68.1713 41.519 68.2012 41.4672 68.2311L30.1177 74.6147C29.4105 75.0155 29.3818 75.4642 30.0372 75.9488C32.8947 78.0727 35.8442 80.3522 38.8742 82.7991C39.8171 83.5589 40.8693 83.9957 41.9444 84.5999C42.3182 84.8153 42.4791 85.2939 42.3067 85.7008C41.565 87.4477 40.4726 88.4229 38.673 89.1947C36.1087 90.2955 32.199 91.7493 30.1982 93.7296C29.8992 94.0228 29.9107 94.304 30.2384 94.5612C32.5727 96.4039 34.0561 97.5526 37.2356 99.7662C38.9547 100.963 40.4266 102.452 41.6627 104.235C41.8352 104.487 41.7777 104.834 41.5362 105.013C41.5247 105.019 41.5132 105.025 41.5075 105.037L30.9801 111.857C30.2269 112.342 30.2212 112.844 30.9514 113.365L41.7662 121.029C42.1399 121.292 42.2607 121.807 42.0479 122.219C41.151 123.978 40.4151 124.786 38.6442 125.815C36.2697 127.191 33.9181 128.615 31.6011 130.093C31.0549 130.44 30.6237 130.799 30.3074 131.17C30.158 131.349 30.1694 131.618 30.3419 131.78C30.3649 131.804 30.3879 131.822 30.4167 131.834C32.3773 132.929 34.2229 134.143 35.9592 135.471C37.753 136.853 39.7424 139.366 42.2089 140.796C42.6804 141.065 42.8471 141.681 42.5884 142.172C42.5654 142.214 42.5366 142.262 42.5079 142.298C42.2147 142.698 41.8467 143.075 41.4097 143.428C38.0635 146.115 34.7978 148.897 31.6183 151.786C31.2849 152.091 31.0204 152.402 30.8191 152.726C30.4972 153.246 30.6237 153.593 31.1929 153.772C33.5904 154.514 36.2294 154.658 38.4487 155.232C40.2598 155.705 44.1005 156.184 45.4344 157.434C45.5839 157.578 45.6414 157.751 45.6126 157.96C45.5091 158.732 45.3136 159.384 45.0319 159.929C43.2381 163.333 40.0241 167.79 38.7132 172.092C38.6557 172.271 38.7535 172.469 38.9259 172.528C38.9604 172.54 39.0007 172.546 39.0409 172.546C40.9498 172.475 42.8873 172.516 44.8479 172.678C48.2229 172.959 51.2299 172.606 54.5301 171.906C54.8981 171.828 55.2545 172.074 55.335 172.451C55.3465 172.51 55.3523 172.57 55.3465 172.63L54.6911 188.233C54.6796 188.538 54.9096 188.802 55.2028 188.813C55.3063 188.813 55.404 188.79 55.496 188.736C59.5609 186.235 64.0455 184.051 67.9379 181.197C68.1047 181.072 68.2829 181.042 68.4784 181.108C70.7782 181.844 69.0648 184.093 69.4443 185.679C70.1745 188.754 70.6575 191.883 70.8874 195.065C70.8989 195.275 70.9967 195.329 71.1806 195.239C72.1753 194.748 72.8538 194.3 73.2275 193.893C75.51 191.398 77.9708 189.113 80.6213 187.043C81.6505 186.241 82.5014 186.361 83.1741 187.408C84.4448 189.37 84.876 191.165 85.8361 193.079C87.2505 195.909 87.8485 199.223 89.7228 201.754C89.947 202.059 90.1368 202.041 90.292 201.688L96.72 186.881C96.7775 186.743 96.9039 186.66 97.0477 186.654V186.66Z" stroke="black" stroke-width="6" mask="url(#path-2-outside-2_181_414)"/>
</svg>
