<svg width="421" height="343" viewBox="0 0 421 343" fill="none" xmlns="http://www.w3.org/2000/svg">
<path d="M231.016 322.526C305.983 300.86 371.314 216.838 371.314 216.838C389.686 193.193 410.193 145.207 416.891 110.198C416.891 110.198 435.699 11.8417 391.797 0.953995C370.44 -4.21491 339.571 11.4752 301.25 51.5801C262.905 90.6218 198.302 176.293 198.302 176.293C180.173 200.342 160.491 226.516 154.569 234.471L149.182 241.253C170.431 216.017 190.641 190.553 209.748 166.479L209.748 166.478C237.908 130.997 263.672 98.5361 286.834 74.2718C325.664 32.444 357.165 13.7482 379.347 16.131C424.633 20.8966 408.761 111.701 408.761 111.701C402.597 146.93 382.623 195.319 364.373 219.148C364.373 219.148 302.221 300.384 228.322 322.123C168.651 340.928 103.032 341.342 40.7148 341.736L40.7109 341.736C26.9464 341.822 13.3428 341.908 0 342.191L2.76668 342.17C16.0757 341.899 29.6448 341.824 43.378 341.747C105.522 341.401 171.027 341.036 231.016 322.526Z" fill="#EAFE01"/>
</svg>
