<svg width="9861" height="845" viewBox="0 0 9861 845" fill="none" xmlns="http://www.w3.org/2000/svg">
<path d="M1521.37 340.199C1497.3 276.509 1488.86 214.876 1484.8 157.781C1481 100.776 1481.54 48.293 1481.45 1.45191C1481.45 1.46703 1481.45 1.49734 1481.45 1.51247C1481.91 48.3989 1480.41 100.881 1487.32 154.226C1494.3 207.465 1509.71 261.581 1545.68 307.772C1580.53 353.766 1636.88 391.774 1705.35 410.65C1772.7 429.888 1879.97 412.888 1879.97 412.888C1894.78 410.544 1905.26 407.065 1903.26 405.144C1901.25 403.224 1883.8 400.456 1869.06 403.178C1869.06 403.178 1769.4 421.661 1703.82 403.723C1637.13 386.163 1581.22 349.455 1546.45 304.429C1510.53 259.237 1494.77 205.831 1487.59 153.062C1480.5 100.488 1481.86 48.5503 1481.44 1.98142C1482.19 48.641 1480.05 100.73 1489.57 147.45C1498.48 194.17 1533.04 234.886 1533.04 234.886C1542.77 246.335 1562.51 259.116 1576.91 263.29C1576.91 263.29 1617.36 275.012 1621.84 247.651C1623.97 234.342 1617.52 215.103 1601.02 191.221C1584.96 167.324 1549.72 127.062 1549.72 127.062C1539.83 115.764 1529.06 103.498 1525.79 99.8076L1523 96.45C1548.68 129.21 1574.93 158.007 1591.68 182.237C1608.89 206.437 1616.58 226.068 1615.6 239.892C1613.63 268.115 1576.29 258.223 1576.29 258.223C1561.8 254.382 1541.89 241.934 1532.09 230.56C1532.09 230.56 1498.67 191.826 1489.73 145.772C1480.11 99.5203 1482.19 47.5368 1481.44 0.907443C1481.44 0.695698 1481.44 0.49921 1481.44 0.287465V0.907443C1480.67 47.5519 1482.77 99.5354 1473.15 145.787C1464.2 191.856 1430.79 230.575 1430.79 230.575C1420.97 241.949 1401.08 254.397 1386.59 258.239C1386.59 258.239 1349.25 268.13 1347.28 239.907C1346.3 226.068 1353.99 206.452 1371.19 182.252C1387.95 158.022 1414.2 129.225 1439.88 96.4652L1437.09 99.8228C1433.82 103.498 1423.05 115.764 1413.16 127.077C1413.16 127.077 1377.92 167.355 1361.86 191.236C1345.36 215.103 1338.91 234.357 1341.03 247.666C1345.51 275.012 1385.97 263.305 1385.97 263.305C1400.37 259.131 1420.13 246.351 1429.84 234.901C1429.84 234.901 1464.4 194.186 1473.31 147.465C1482.83 100.745 1480.69 48.641 1481.44 1.99656C1481.02 48.5654 1482.37 100.518 1475.29 153.077C1468.11 205.847 1452.35 259.252 1416.43 304.444C1381.66 349.455 1325.74 386.178 1259.06 403.738L1248.31 406.672C1236.1 409.047 1216.1 409.047 1203.89 406.672L1193.14 403.738C1126.45 386.178 1070.54 349.471 1035.77 304.444C999.848 259.252 984.09 205.847 976.912 153.077C969.825 100.503 971.182 48.5654 970.76 1.99656C971.514 48.6561 969.372 100.745 978.887 147.465C987.799 194.186 1022.36 234.901 1022.36 234.901C1032.09 246.351 1051.83 259.131 1066.23 263.305C1066.23 263.305 1106.69 275.027 1111.16 247.666C1113.29 234.357 1106.84 215.118 1090.34 191.236C1074.28 167.339 1039.04 127.077 1039.04 127.077C1029.15 115.779 1018.38 103.513 1015.11 99.8228L1012.32 96.4652C1038 129.225 1064.25 158.022 1081.01 182.252C1098.21 206.452 1105.9 226.083 1104.92 239.907C1102.96 268.13 1065.61 258.239 1065.61 258.239C1051.12 254.397 1031.21 241.949 1021.41 230.575C1021.41 230.575 987.995 191.841 979.053 145.787C969.433 99.5354 971.514 47.5519 970.76 0.922582C970.76 0.710837 970.76 0.514165 970.76 0.302419V0.362977C970.76 0.544473 970.76 0.725962 970.76 0.922582C969.991 47.567 972.087 99.5506 962.466 145.802C953.524 191.872 920.108 230.591 920.108 230.591C910.291 241.964 890.401 254.412 875.91 258.254C875.91 258.254 838.573 268.145 836.598 239.923C835.618 226.083 843.308 206.467 860.514 182.267C877.267 158.038 903.52 129.24 929.201 96.4803L926.411 99.8379C923.139 103.513 912.372 115.779 902.48 127.093C902.48 127.093 867.239 167.369 851.18 191.251C834.683 215.118 828.229 234.372 830.355 247.682C834.834 275.027 875.292 263.32 875.292 263.32C889.693 259.146 909.447 246.366 919.158 234.916C919.158 234.916 953.72 194.201 962.632 147.481C972.147 100.761 970.006 48.656 970.76 2.01151C970.337 48.5804 971.694 100.534 964.607 153.092C957.429 205.862 941.671 259.267 905.752 304.46C870.979 349.471 815.065 386.193 748.383 403.753L738.883 406.354C728.117 408.548 709.946 408.472 698.516 406.188L688.428 403.435C621.746 385.876 565.832 349.168 531.059 304.142C495.14 258.949 479.382 205.544 472.204 152.774C465.117 100.201 466.474 48.2628 466.052 1.69396C466.806 48.3535 464.664 100.443 474.179 147.163C483.091 193.883 517.653 234.599 517.653 234.599C527.38 246.048 547.119 258.828 561.519 263.003C561.519 263.003 601.977 274.724 606.456 247.364C608.582 234.054 602.128 214.816 585.631 190.934C569.572 167.037 534.331 126.775 534.331 126.775C524.439 115.477 513.672 103.211 510.4 99.5204L507.61 96.1626C533.291 128.923 559.544 157.72 576.297 181.95C593.503 206.149 601.193 225.781 600.213 239.605C598.238 267.828 560.901 257.936 560.901 257.936C546.41 254.094 526.505 241.647 516.703 230.273C516.703 230.273 483.287 191.539 474.345 145.484C464.725 99.233 466.806 47.2495 466.052 0.620163C466.052 0.408418 466.052 0.211745 466.052 0V0.0605577C466.052 0.242054 466.052 0.423542 466.052 0.620163C465.283 47.2646 467.379 99.248 457.758 145.499C448.816 191.569 415.4 230.288 415.4 230.288C405.583 241.662 385.693 254.11 371.202 257.951C371.202 257.951 333.865 267.843 331.89 239.62C330.91 225.781 338.6 206.164 355.806 181.965C372.559 157.735 398.812 128.938 424.493 96.1777L421.703 99.5355C418.431 103.211 407.664 115.477 397.772 126.79C397.772 126.79 362.531 167.067 346.472 190.949C329.975 214.816 323.521 234.069 325.647 247.379C330.126 274.725 370.584 263.018 370.584 263.018C384.985 258.844 404.739 246.063 414.45 234.614C414.45 234.614 449.012 193.898 457.924 147.178C467.439 100.458 465.298 48.3536 466.052 1.70909C465.629 48.2779 466.987 100.231 459.899 152.789C452.721 205.559 436.963 258.964 401.044 304.157C366.271 349.168 310.357 385.891 243.675 403.45C178.095 421.373 78.4352 402.906 78.4352 402.906C63.6875 400.168 49.9502 399.488 47.9145 401.393C45.8788 403.299 52.7097 410.257 67.5177 412.601C67.5177 412.601 174.808 429.601 242.152 410.362C310.628 391.487 366.98 353.479 401.828 307.484C437.793 261.294 453.204 207.193 460.186 153.939C467.092 100.594 465.599 48.1116 466.052 1.22519V1.16463C465.946 48.0057 466.504 100.488 462.704 157.493C458.632 214.589 450.203 276.222 426.136 339.912C378.938 466.021 20.7866 687.401 20.7866 687.401C8.01438 695.296 -1.27455 703.025 0.142917 704.582C1.56038 706.14 15.7803 703.599 28.4168 695.508C28.4168 695.508 382.693 468.94 428.353 341.591C451.47 277.417 459.326 215.405 463.081 158.068C466.564 100.73 466.187 28.4647 466.187 28.4647C466.112 13.4308 466.052 1.33106 466.052 1.6033V1.84516C466.052 2.93414 466.052 4.02317 466.052 5.11214C466.052 5.36926 466.052 5.823 466.052 6.24649C466.052 6.42799 466.052 6.62462 466.052 6.82124C466.052 7.04811 466.052 7.15406 466.052 7.09356V7.39598C466.052 7.8951 466.052 8.03116 466.052 7.71354C466.052 7.87991 466.052 8.06137 466.052 8.24287C466.052 8.66636 466.052 8.78751 466.052 8.59089C466.052 8.69676 466.052 8.78742 466.052 8.87817C466.052 9.25629 466.052 9.33195 466.052 9.10508C466.052 9.27145 466.052 9.42275 466.052 9.54375C466.052 9.58913 466.052 9.63443 466.052 9.66468C466.052 9.60418 466.052 9.52854 466.052 9.45292C466.052 9.10505 466.052 8.75727 466.052 8.4094C466.052 8.45478 466.052 8.51524 466.052 8.56061C466.052 8.60599 466.052 8.65131 466.052 8.69668C466.052 8.92355 466.052 9.1655 466.052 9.4075C466.052 9.51337 466.052 9.61935 466.052 9.7101C466.052 9.67985 466.052 9.66465 466.052 9.6344V9.90673C466.052 9.77061 466.052 9.61932 466.052 9.48319V9.05966C466.052 8.1673 466.052 7.27493 466.052 6.3977C466.052 6.12546 466.052 5.8382 466.052 5.56596C466.052 193.324 457.863 817.307 457.863 817.307C457.667 832.341 460.291 844.667 463.714 844.667C467.137 844.667 475.929 832.325 475.702 817.292C475.702 817.292 466.067 192.098 466.052 4.34077V4.23498C466.052 4.85509 466.052 5.47517 466.052 6.09528C466.052 7.36576 466.052 8.63627 466.052 9.92187C466.052 10.4361 466.052 10.5873 466.052 10.2546V10.0428C466.052 10.1184 466.052 10.1789 466.052 10.194V9.7101C466.052 9.92185 466.052 9.86137 466.052 9.54375V8.87817C466.052 8.69667 466.052 8.48488 466.052 8.25801C466.052 8.13701 466.052 7.9859 466.052 7.83466C466.052 7.75903 466.052 7.62287 466.052 7.41112C466.052 7.154 466.052 6.85144 466.052 6.57919C466.052 6.3372 466.052 6.08009 466.052 5.8381C466.052 4.29538 466.052 2.73761 466.052 1.17977C466.142 48.1267 465.539 100.776 469.022 158.098C472.777 215.436 480.633 277.447 503.75 341.621C534.452 427.242 691.836 580.833 691.836 580.833C702.587 591.329 700.717 606 687.689 613.441L527.395 691.364C513.597 697.262 503.464 703.358 504.881 704.915C506.299 706.473 521.393 705.566 535.1 699.485L695.183 618.811C708.091 611.157 729.233 611.157 742.141 618.811L901.741 699.183C915.463 705.263 927.874 708.969 929.352 707.426C930.829 705.883 923.244 696.945 909.447 691.046L749.635 613.411C736.606 605.97 734.722 591.299 745.473 580.802C745.473 580.802 902.435 427.423 933.091 341.923C956.208 277.749 964.064 215.738 967.819 158.401C971.302 101.063 970.925 28.7974 970.925 28.7974C970.85 13.7635 970.79 1.66376 970.79 1.936V2.17805C970.79 3.26702 970.79 4.35587 970.79 5.44484C970.79 5.70196 970.79 6.1557 970.79 6.57919C970.79 6.76069 970.79 6.95732 970.79 7.15394C970.79 7.38081 970.79 7.48676 970.79 7.42626V7.72868C970.79 8.2278 970.79 8.36404 970.79 8.04642V8.57575C970.79 8.99924 970.79 9.12021 970.79 8.92359C970.79 9.02946 970.79 9.12012 970.79 9.21087C970.79 9.58899 970.79 9.66465 970.79 9.43778C970.79 9.60415 970.79 9.75545 970.79 9.87645C970.79 9.92182 970.79 9.96713 970.79 9.99738C970.79 9.93688 970.79 9.86124 970.79 9.78561C970.79 9.43775 970.79 9.08997 970.79 8.7421C970.79 8.78747 970.79 8.84794 970.79 8.89331C970.79 8.93868 970.79 8.98401 970.79 9.02938C970.79 9.25625 970.79 9.49838 970.79 9.74038C970.79 9.84625 970.79 9.95205 970.79 10.0428C970.79 10.0126 970.79 9.99735 970.79 9.9671V10.2697C970.79 10.2697 970.79 10.2394 970.79 10.2243V9.36226C970.79 8.46991 970.79 7.57754 970.79 6.70031C970.79 6.42806 970.79 6.14062 970.79 5.86838C970.79 193.626 962.602 817.609 962.602 817.609C962.405 832.643 965.029 844.97 968.452 844.97C971.875 844.97 980.667 832.628 980.44 817.594C980.44 817.594 970.805 192.401 970.79 4.64338V4.5374C970.79 5.15751 970.79 5.77759 970.79 6.3977C970.79 7.66818 970.79 8.93869 970.79 10.2243C970.79 10.7385 970.79 10.8897 970.79 10.557V10.3452C970.79 10.4208 970.79 10.4815 970.79 10.4966C970.79 10.4815 970.79 10.4058 970.79 10.2697C970.79 10.2243 970.79 10.194 970.79 10.1486V10.0125C970.79 10.2243 970.79 10.1638 970.79 9.84617V9.18077C970.79 8.99928 970.79 8.78748 970.79 8.56061C970.79 8.42449 970.79 8.28832 970.79 8.13708C970.79 8.06145 970.79 7.92529 970.79 7.71354C970.79 7.45642 970.79 7.15404 970.79 6.8818C970.79 6.6398 970.79 6.3827 970.79 6.1407C970.79 4.59799 970.79 3.04003 970.79 1.48219C970.88 48.4291 970.277 101.078 973.76 158.401C977.515 215.738 985.372 277.749 1008.49 341.923C1039.42 428.179 1199.15 583.041 1199.15 583.041C1209.93 593.492 1208.08 608.102 1195.02 615.498L1038.1 691.379C1024.31 697.262 1014.16 703.342 1015.58 704.9C1016.99 706.458 1032.09 705.566 1045.81 699.501L1202.62 620.883C1215.56 613.275 1236.73 613.275 1249.67 620.883L1406.48 699.501C1420.2 705.566 1432.63 709.271 1434.09 707.728C1435.55 706.186 1427.98 697.262 1414.18 691.379L1257.27 615.498C1244.21 608.102 1242.35 593.492 1253.14 583.041C1253.14 583.041 1412.87 428.179 1443.8 341.923C1466.92 277.749 1474.77 215.738 1478.53 158.401C1482.01 101.063 1481.63 28.7974 1481.63 28.7974C1481.56 13.7635 1481.5 1.66376 1481.5 1.936V2.17805C1481.5 3.26702 1481.5 4.35587 1481.5 5.44484C1481.5 5.70196 1481.5 6.1557 1481.5 6.57919V7.15394C1481.5 7.38081 1481.5 7.48676 1481.5 7.42626V7.72868C1481.5 8.2278 1481.5 8.36404 1481.5 8.04642C1481.5 8.2128 1481.5 8.39426 1481.5 8.57575C1481.5 8.99924 1481.5 9.12021 1481.5 8.92359C1481.5 9.02946 1481.5 9.12012 1481.5 9.21087C1481.5 9.58899 1481.5 9.66465 1481.5 9.43778C1481.5 9.60415 1481.5 9.75545 1481.5 9.87645V9.99738C1481.5 9.99738 1481.5 9.86124 1481.5 9.78561C1481.5 9.43775 1481.5 9.08997 1481.5 8.7421V9.02938C1481.5 9.25625 1481.5 9.49838 1481.5 9.74038V10.0428C1481.5 10.0428 1481.5 9.99735 1481.5 9.9671V10.2394C1481.5 10.1033 1481.5 9.95201 1481.5 9.81589V9.39236C1481.5 8.5 1481.5 7.60763 1481.5 6.7304C1481.5 6.45816 1481.5 6.1709 1481.5 5.89866C1481.5 193.656 1473.31 817.639 1473.31 817.639C1473.12 832.673 1475.74 845 1479.16 845C1482.59 845 1491.38 832.658 1491.15 817.624C1491.15 817.624 1481.51 192.431 1481.5 4.67347C1481.5 4.64322 1481.5 4.59793 1481.5 4.56768C1481.5 5.18779 1481.5 5.80787 1481.5 6.42798C1481.5 7.69845 1481.5 8.96897 1481.5 10.2546C1481.5 10.7688 1481.5 10.92 1481.5 10.5873V10.3755C1481.5 10.4511 1481.5 10.5116 1481.5 10.5267V10.3C1481.5 10.3 1481.5 10.2242 1481.5 10.1789V10.0428C1481.5 10.2545 1481.5 10.1941 1481.5 9.87645V9.21087C1481.5 9.02937 1481.5 8.81776 1481.5 8.59089C1481.5 8.45477 1481.5 8.3186 1481.5 8.16736C1481.5 8.09173 1481.5 7.95557 1481.5 7.74382C1481.5 7.4867 1481.5 7.18432 1481.5 6.91207C1481.5 6.67008 1481.5 6.41279 1481.5 6.1708C1481.5 4.62808 1481.5 3.07031 1481.5 1.51247C1481.59 48.4594 1480.99 101.108 1484.47 158.431C1488.22 215.768 1496.08 277.78 1519.2 341.954C1564.86 469.288 1919.13 695.871 1919.13 695.871C1931.77 703.962 1943.32 709.316 1944.8 707.759C1946.28 706.201 1939.54 695.644 1926.78 687.749C1926.78 687.749 1568.63 466.369 1521.43 340.26L1521.37 340.199ZM466.021 7.29019V7.22963C466.021 7.33551 466.021 7.45646 466.021 7.56233C466.021 7.47158 466.021 7.39589 466.021 7.30515V7.29019ZM967.397 157.781C963.326 214.876 954.896 276.509 930.829 340.199C899.057 425.109 738.506 576.295 738.506 576.295C727.574 586.595 709.675 586.595 698.742 576.295C698.742 576.295 537.754 424.882 505.952 339.851C481.885 276.161 473.44 214.528 469.384 157.433C465.584 100.428 466.127 47.9452 466.036 1.10407C466.036 1.1192 466.036 1.1495 466.036 1.16463C466.489 48.0511 464.996 100.534 471.902 153.878C478.884 207.117 494.295 261.233 530.26 307.424C565.108 353.418 621.46 391.426 689.936 410.302L693.464 411.315C697.4 412.344 688.367 413.402 673.363 413.69L582.842 404.464C568.245 401.015 554.628 399.76 552.592 401.666C550.557 403.572 557.342 410.831 572.09 413.554L692.001 419.437C706.945 418.273 731.419 418.242 746.378 419.346L864.676 413.266C879.424 410.529 889.843 406.717 887.838 404.812C885.832 402.906 868.506 400.713 853.924 404.192L765.107 413.493C750.118 413.266 740.557 412.359 743.86 411.497L746.83 410.65C815.306 391.774 871.658 353.766 906.506 307.772C942.471 261.581 957.882 207.48 964.863 154.226C971.77 100.881 970.277 48.3989 970.729 1.51247V1.45191C970.624 48.293 971.182 100.776 967.382 157.781H967.397ZM970.745 7.60775C970.745 7.60775 970.745 7.56232 970.745 7.54719V7.87989C970.745 7.78914 970.745 7.71364 970.745 7.62289V7.60775ZM1478.09 157.781C1474.02 214.876 1465.59 276.509 1441.52 340.199C1409.46 425.865 1246.05 578.534 1246.05 578.534C1235.07 588.788 1217.13 588.788 1206.15 578.534C1206.15 578.534 1042.73 425.865 1010.67 340.199C986.608 276.509 978.164 214.876 974.107 157.781C970.307 100.776 970.85 48.293 970.76 1.45191C970.76 1.46703 970.76 1.49734 970.76 1.51247C971.212 48.3989 969.719 100.881 976.626 154.226C983.607 207.465 999.018 261.581 1034.98 307.772C1069.83 353.766 1126.18 391.774 1194.66 410.65L1198.55 411.754C1202.89 412.873 1194.16 413.886 1179.17 414.007L1093.52 404.6C1078.94 401.076 1065.34 399.76 1063.3 401.666C1061.27 403.572 1068.04 410.877 1082.77 413.644L1198.9 419.982C1213.85 418.938 1238.33 418.938 1253.29 419.982L1369.41 413.644C1384.15 410.877 1394.57 407.035 1392.56 405.129C1390.56 403.224 1373.24 401.076 1358.66 404.6L1273.01 414.007C1258.02 413.886 1249.29 412.858 1253.63 411.754L1257.52 410.65C1326 391.774 1382.35 353.766 1417.2 307.772C1453.17 261.581 1468.58 207.48 1475.56 154.226C1482.46 100.881 1480.97 48.3989 1481.42 1.51247C1481.42 1.49734 1481.42 1.46703 1481.42 1.45191C1481.32 48.293 1481.88 100.776 1478.08 157.781H1478.09ZM1481.44 7.60775V7.54719C1481.44 7.65307 1481.44 7.77402 1481.44 7.87989C1481.44 7.78914 1481.44 7.71364 1481.44 7.62289V7.60775Z" fill="white"/>
<path d="M3103.37 340.199C3079.3 276.509 3070.86 214.876 3066.8 157.781C3063 100.776 3063.54 48.293 3063.45 1.45191C3063.45 1.46703 3063.45 1.49734 3063.45 1.51247C3063.91 48.3989 3062.41 100.881 3069.32 154.226C3076.3 207.465 3091.71 261.581 3127.68 307.772C3162.53 353.766 3218.88 391.774 3287.35 410.65C3354.7 429.888 3461.97 412.888 3461.97 412.888C3476.78 410.544 3487.26 407.065 3485.26 405.144C3483.25 403.224 3465.8 400.456 3451.06 403.178C3451.06 403.178 3351.4 421.661 3285.82 403.723C3219.13 386.163 3163.22 349.455 3128.45 304.429C3092.53 259.237 3076.77 205.831 3069.59 153.062C3062.5 100.488 3063.86 48.5503 3063.44 1.98142C3064.19 48.641 3062.05 100.73 3071.57 147.45C3080.48 194.17 3115.04 234.886 3115.04 234.886C3124.77 246.335 3144.51 259.116 3158.91 263.29C3158.91 263.29 3199.36 275.012 3203.84 247.651C3205.97 234.342 3199.52 215.103 3183.02 191.221C3166.96 167.324 3131.72 127.062 3131.72 127.062C3121.83 115.764 3111.06 103.498 3107.79 99.8076L3105 96.45C3130.68 129.21 3156.93 158.007 3173.68 182.237C3190.89 206.437 3198.58 226.068 3197.6 239.892C3195.63 268.115 3158.29 258.223 3158.29 258.223C3143.8 254.382 3123.89 241.934 3114.09 230.56C3114.09 230.56 3080.67 191.826 3071.73 145.772C3062.11 99.5203 3064.19 47.5368 3063.44 0.907443C3063.44 0.695698 3063.44 0.49921 3063.44 0.287465V0.907443C3062.67 47.5519 3064.77 99.5354 3055.15 145.787C3046.2 191.856 3012.79 230.575 3012.79 230.575C3002.97 241.949 2983.08 254.397 2968.59 258.239C2968.59 258.239 2931.25 268.13 2929.28 239.907C2928.3 226.068 2935.99 206.452 2953.19 182.252C2969.95 158.022 2996.2 129.225 3021.88 96.4652L3019.09 99.8228C3015.82 103.498 3005.05 115.764 2995.16 127.077C2995.16 127.077 2959.92 167.355 2943.86 191.236C2927.36 215.103 2920.91 234.357 2923.03 247.666C2927.51 275.012 2967.97 263.305 2967.97 263.305C2982.37 259.131 3002.13 246.351 3011.84 234.901C3011.84 234.901 3046.4 194.186 3055.31 147.465C3064.83 100.745 3062.69 48.641 3063.44 1.99656C3063.02 48.5654 3064.37 100.518 3057.29 153.077C3050.11 205.847 3034.35 259.252 2998.43 304.444C2963.66 349.455 2907.74 386.178 2841.06 403.738L2830.31 406.672C2818.1 409.047 2798.1 409.047 2785.89 406.672L2775.14 403.738C2708.45 386.178 2652.54 349.471 2617.77 304.444C2581.85 259.252 2566.09 205.847 2558.91 153.077C2551.82 100.503 2553.18 48.5654 2552.76 1.99656C2553.51 48.6561 2551.37 100.745 2560.89 147.465C2569.8 194.186 2604.36 234.901 2604.36 234.901C2614.09 246.351 2633.83 259.131 2648.23 263.305C2648.23 263.305 2688.69 275.027 2693.16 247.666C2695.29 234.357 2688.84 215.118 2672.34 191.236C2656.28 167.339 2621.04 127.077 2621.04 127.077C2611.15 115.779 2600.38 103.513 2597.11 99.8228L2594.32 96.4652C2620 129.225 2646.25 158.022 2663.01 182.252C2680.21 206.452 2687.9 226.083 2686.92 239.907C2684.96 268.13 2647.61 258.239 2647.61 258.239C2633.12 254.397 2613.21 241.949 2603.41 230.575C2603.41 230.575 2570 191.841 2561.05 145.787C2551.43 99.5354 2553.51 47.5519 2552.76 0.922582C2552.76 0.710837 2552.76 0.514165 2552.76 0.302419V0.362977C2552.76 0.544473 2552.76 0.725962 2552.76 0.922582C2551.99 47.567 2554.09 99.5506 2544.47 145.802C2535.52 191.872 2502.11 230.591 2502.11 230.591C2492.29 241.964 2472.4 254.412 2457.91 258.254C2457.91 258.254 2420.57 268.145 2418.6 239.923C2417.62 226.083 2425.31 206.467 2442.51 182.267C2459.27 158.038 2485.52 129.24 2511.2 96.4803L2508.41 99.8379C2505.14 103.513 2494.37 115.779 2484.48 127.093C2484.48 127.093 2449.24 167.369 2433.18 191.251C2416.68 215.118 2410.23 234.372 2412.36 247.682C2416.83 275.027 2457.29 263.32 2457.29 263.32C2471.69 259.146 2491.45 246.366 2501.16 234.916C2501.16 234.916 2535.72 194.201 2544.63 147.481C2554.15 100.761 2552.01 48.656 2552.76 2.01151C2552.34 48.5804 2553.69 100.534 2546.61 153.092C2539.43 205.862 2523.67 259.267 2487.75 304.46C2452.98 349.471 2397.06 386.193 2330.38 403.753L2320.88 406.354C2310.12 408.548 2291.95 408.472 2280.52 406.188L2270.43 403.435C2203.75 385.876 2147.83 349.168 2113.06 304.142C2077.14 258.949 2061.38 205.544 2054.2 152.774C2047.12 100.201 2048.47 48.2628 2048.05 1.69396C2048.81 48.3535 2046.66 100.443 2056.18 147.163C2065.09 193.883 2099.65 234.599 2099.65 234.599C2109.38 246.048 2129.12 258.828 2143.52 263.003C2143.52 263.003 2183.98 274.724 2188.46 247.364C2190.58 234.054 2184.13 214.816 2167.63 190.934C2151.57 167.037 2116.33 126.775 2116.33 126.775C2106.44 115.477 2095.67 103.211 2092.4 99.5204L2089.61 96.1626C2115.29 128.923 2141.54 157.72 2158.3 181.95C2175.5 206.149 2183.19 225.781 2182.21 239.605C2180.24 267.828 2142.9 257.936 2142.9 257.936C2128.41 254.094 2108.5 241.647 2098.7 230.273C2098.7 230.273 2065.29 191.539 2056.35 145.484C2046.72 99.233 2048.81 47.2495 2048.05 0.620163C2048.05 0.408418 2048.05 0.211745 2048.05 0V0.0605577C2048.05 0.242054 2048.05 0.423542 2048.05 0.620163C2047.28 47.2646 2049.38 99.248 2039.76 145.499C2030.82 191.569 1997.4 230.288 1997.4 230.288C1987.58 241.662 1967.69 254.11 1953.2 257.951C1953.2 257.951 1915.87 267.843 1913.89 239.62C1912.91 225.781 1920.6 206.164 1937.81 181.965C1954.56 157.735 1980.81 128.938 2006.49 96.1777L2003.7 99.5355C2000.43 103.211 1989.66 115.477 1979.77 126.79C1979.77 126.79 1944.53 167.067 1928.47 190.949C1911.97 214.816 1905.52 234.069 1907.65 247.379C1912.13 274.725 1952.58 263.018 1952.58 263.018C1966.98 258.844 1986.74 246.063 1996.45 234.614C1996.45 234.614 2031.01 193.898 2039.92 147.178C2049.44 100.458 2047.3 48.3536 2048.05 1.70909C2047.63 48.2779 2048.99 100.231 2041.9 152.789C2034.72 205.559 2018.96 258.964 1983.04 304.157C1948.27 349.168 1892.36 385.891 1825.68 403.45C1760.1 421.373 1660.44 402.906 1660.44 402.906C1645.69 400.168 1631.95 399.488 1629.91 401.393C1627.88 403.299 1634.71 410.257 1649.52 412.601C1649.52 412.601 1756.81 429.601 1824.15 410.362C1892.63 391.487 1948.98 353.479 1983.83 307.484C2019.79 261.294 2035.2 207.193 2042.19 153.939C2049.09 100.594 2047.6 48.1116 2048.05 1.22519V1.16463C2047.95 48.0057 2048.5 100.488 2044.7 157.493C2040.63 214.589 2032.2 276.222 2008.14 339.912C1960.94 466.021 1602.79 687.401 1602.79 687.401C1590.01 695.296 1580.73 703.025 1582.14 704.582C1583.56 706.14 1597.78 703.599 1610.42 695.508C1610.42 695.508 1964.69 468.94 2010.35 341.591C2033.47 277.417 2041.33 215.405 2045.08 158.068C2048.56 100.73 2048.19 28.4647 2048.19 28.4647C2048.11 13.4308 2048.05 1.33106 2048.05 1.6033V1.84516C2048.05 2.93414 2048.05 4.02317 2048.05 5.11214C2048.05 5.36926 2048.05 5.823 2048.05 6.24649C2048.05 6.42799 2048.05 6.62462 2048.05 6.82124C2048.05 7.04811 2048.05 7.15406 2048.05 7.09356V7.39598C2048.05 7.8951 2048.05 8.03116 2048.05 7.71354C2048.05 7.87991 2048.05 8.06137 2048.05 8.24287C2048.05 8.66636 2048.05 8.78751 2048.05 8.59089C2048.05 8.69676 2048.05 8.78742 2048.05 8.87817C2048.05 9.25629 2048.05 9.33195 2048.05 9.10508C2048.05 9.27145 2048.05 9.42275 2048.05 9.54375C2048.05 9.58913 2048.05 9.63443 2048.05 9.66468C2048.05 9.60418 2048.05 9.52854 2048.05 9.45292C2048.05 9.10505 2048.05 8.75727 2048.05 8.4094C2048.05 8.45478 2048.05 8.51524 2048.05 8.56061C2048.05 8.60599 2048.05 8.65131 2048.05 8.69668C2048.05 8.92355 2048.05 9.1655 2048.05 9.4075C2048.05 9.51337 2048.05 9.61935 2048.05 9.7101C2048.05 9.67985 2048.05 9.66465 2048.05 9.6344V9.90673C2048.05 9.77061 2048.05 9.61932 2048.05 9.48319V9.05966C2048.05 8.1673 2048.05 7.27493 2048.05 6.3977C2048.05 6.12546 2048.05 5.8382 2048.05 5.56596C2048.05 193.324 2039.86 817.307 2039.86 817.307C2039.67 832.341 2042.29 844.667 2045.71 844.667C2049.14 844.667 2057.93 832.325 2057.7 817.292C2057.7 817.292 2048.07 192.098 2048.05 4.34077V4.23498C2048.05 4.85509 2048.05 5.47517 2048.05 6.09528C2048.05 7.36576 2048.05 8.63627 2048.05 9.92187C2048.05 10.4361 2048.05 10.5873 2048.05 10.2546V10.0428C2048.05 10.1184 2048.05 10.1789 2048.05 10.194V9.7101C2048.05 9.92185 2048.05 9.86137 2048.05 9.54375V8.87817C2048.05 8.69667 2048.05 8.48488 2048.05 8.25801C2048.05 8.13701 2048.05 7.9859 2048.05 7.83466C2048.05 7.75903 2048.05 7.62287 2048.05 7.41112C2048.05 7.154 2048.05 6.85144 2048.05 6.57919C2048.05 6.3372 2048.05 6.08009 2048.05 5.8381C2048.05 4.29538 2048.05 2.73761 2048.05 1.17977C2048.14 48.1267 2047.54 100.776 2051.02 158.098C2054.78 215.436 2062.63 277.447 2085.75 341.621C2116.45 427.242 2273.84 580.833 2273.84 580.833C2284.59 591.329 2282.72 606 2269.69 613.441L2109.39 691.364C2095.6 697.262 2085.46 703.358 2086.88 704.915C2088.3 706.473 2103.39 705.566 2117.1 699.485L2277.18 618.811C2290.09 611.157 2311.23 611.157 2324.14 618.811L2483.74 699.183C2497.46 705.263 2509.87 708.969 2511.35 707.426C2512.83 705.883 2505.24 696.945 2491.45 691.046L2331.64 613.411C2318.61 605.97 2316.72 591.299 2327.47 580.802C2327.47 580.802 2484.43 427.423 2515.09 341.923C2538.21 277.749 2546.06 215.738 2549.82 158.401C2553.3 101.063 2552.93 28.7974 2552.93 28.7974C2552.85 13.7635 2552.79 1.66376 2552.79 1.936V2.17805C2552.79 3.26702 2552.79 4.35587 2552.79 5.44484C2552.79 5.70196 2552.79 6.1557 2552.79 6.57919C2552.79 6.76069 2552.79 6.95732 2552.79 7.15394C2552.79 7.38081 2552.79 7.48676 2552.79 7.42626V7.72868C2552.79 8.2278 2552.79 8.36404 2552.79 8.04642V8.57575C2552.79 8.99924 2552.79 9.12021 2552.79 8.92359C2552.79 9.02946 2552.79 9.12012 2552.79 9.21087C2552.79 9.58899 2552.79 9.66465 2552.79 9.43778C2552.79 9.60415 2552.79 9.75545 2552.79 9.87645C2552.79 9.92182 2552.79 9.96713 2552.79 9.99738C2552.79 9.93688 2552.79 9.86124 2552.79 9.78561C2552.79 9.43775 2552.79 9.08997 2552.79 8.7421C2552.79 8.78747 2552.79 8.84794 2552.79 8.89331C2552.79 8.93868 2552.79 8.98401 2552.79 9.02938C2552.79 9.25625 2552.79 9.49838 2552.79 9.74038C2552.79 9.84625 2552.79 9.95205 2552.79 10.0428C2552.79 10.0126 2552.79 9.99735 2552.79 9.9671V10.2697C2552.79 10.2697 2552.79 10.2394 2552.79 10.2243V9.36226C2552.79 8.46991 2552.79 7.57754 2552.79 6.70031C2552.79 6.42806 2552.79 6.14062 2552.79 5.86838C2552.79 193.626 2544.6 817.609 2544.6 817.609C2544.41 832.643 2547.03 844.97 2550.45 844.97C2553.88 844.97 2562.67 832.628 2562.44 817.594C2562.44 817.594 2552.8 192.401 2552.79 4.64338V4.5374C2552.79 5.15751 2552.79 5.77759 2552.79 6.3977C2552.79 7.66818 2552.79 8.93869 2552.79 10.2243C2552.79 10.7385 2552.79 10.8897 2552.79 10.557V10.3452C2552.79 10.4208 2552.79 10.4815 2552.79 10.4966C2552.79 10.4815 2552.79 10.4058 2552.79 10.2697C2552.79 10.2243 2552.79 10.194 2552.79 10.1486V10.0125C2552.79 10.2243 2552.79 10.1638 2552.79 9.84617V9.18077C2552.79 8.99928 2552.79 8.78748 2552.79 8.56061C2552.79 8.42449 2552.79 8.28832 2552.79 8.13708C2552.79 8.06145 2552.79 7.92529 2552.79 7.71354C2552.79 7.45642 2552.79 7.15404 2552.79 6.8818C2552.79 6.6398 2552.79 6.3827 2552.79 6.1407C2552.79 4.59799 2552.79 3.04003 2552.79 1.48219C2552.88 48.4291 2552.28 101.078 2555.76 158.401C2559.52 215.738 2567.37 277.749 2590.49 341.923C2621.42 428.179 2781.15 583.041 2781.15 583.041C2791.93 593.492 2790.08 608.102 2777.02 615.498L2620.1 691.379C2606.31 697.262 2596.16 703.342 2597.58 704.9C2598.99 706.458 2614.09 705.566 2627.81 699.501L2784.62 620.883C2797.56 613.275 2818.73 613.275 2831.67 620.883L2988.48 699.501C3002.2 705.566 3014.63 709.271 3016.09 707.728C3017.55 706.186 3009.98 697.262 2996.18 691.379L2839.27 615.498C2826.21 608.102 2824.35 593.492 2835.14 583.041C2835.14 583.041 2994.87 428.179 3025.8 341.923C3048.92 277.749 3056.77 215.738 3060.53 158.401C3064.01 101.063 3063.63 28.7974 3063.63 28.7974C3063.56 13.7635 3063.5 1.66376 3063.5 1.936V2.17805C3063.5 3.26702 3063.5 4.35587 3063.5 5.44484C3063.5 5.70196 3063.5 6.1557 3063.5 6.57919V7.15394C3063.5 7.38081 3063.5 7.48676 3063.5 7.42626V7.72868C3063.5 8.2278 3063.5 8.36404 3063.5 8.04642C3063.5 8.2128 3063.5 8.39426 3063.5 8.57575C3063.5 8.99924 3063.5 9.12021 3063.5 8.92359C3063.5 9.02946 3063.5 9.12012 3063.5 9.21087C3063.5 9.58899 3063.5 9.66465 3063.5 9.43778C3063.5 9.60415 3063.5 9.75545 3063.5 9.87645V9.99738C3063.5 9.99738 3063.5 9.86124 3063.5 9.78561C3063.5 9.43775 3063.5 9.08997 3063.5 8.7421V9.02938C3063.5 9.25625 3063.5 9.49838 3063.5 9.74038V10.0428C3063.5 10.0428 3063.5 9.99735 3063.5 9.9671V10.2394C3063.5 10.1033 3063.5 9.95201 3063.5 9.81589V9.39236C3063.5 8.5 3063.5 7.60763 3063.5 6.7304C3063.5 6.45816 3063.5 6.1709 3063.5 5.89866C3063.5 193.656 3055.31 817.639 3055.31 817.639C3055.12 832.673 3057.74 845 3061.16 845C3064.59 845 3073.38 832.658 3073.15 817.624C3073.15 817.624 3063.51 192.431 3063.5 4.67347C3063.5 4.64322 3063.5 4.59793 3063.5 4.56768C3063.5 5.18779 3063.5 5.80787 3063.5 6.42798C3063.5 7.69845 3063.5 8.96897 3063.5 10.2546C3063.5 10.7688 3063.5 10.92 3063.5 10.5873V10.3755C3063.5 10.4511 3063.5 10.5116 3063.5 10.5267V10.3C3063.5 10.3 3063.5 10.2242 3063.5 10.1789V10.0428C3063.5 10.2545 3063.5 10.1941 3063.5 9.87645V9.21087C3063.5 9.02937 3063.5 8.81776 3063.5 8.59089C3063.5 8.45477 3063.5 8.3186 3063.5 8.16736C3063.5 8.09173 3063.5 7.95557 3063.5 7.74382C3063.5 7.4867 3063.5 7.18432 3063.5 6.91207C3063.5 6.67008 3063.5 6.41279 3063.5 6.1708C3063.5 4.62808 3063.5 3.07031 3063.5 1.51247C3063.59 48.4594 3062.99 101.108 3066.47 158.431C3070.22 215.768 3078.08 277.78 3101.2 341.954C3146.86 469.288 3501.13 695.871 3501.13 695.871C3513.77 703.962 3525.32 709.316 3526.8 707.759C3528.28 706.201 3521.54 695.644 3508.78 687.749C3508.78 687.749 3150.63 466.369 3103.43 340.26L3103.37 340.199ZM2048.02 7.29019V7.22963C2048.02 7.33551 2048.02 7.45646 2048.02 7.56233C2048.02 7.47158 2048.02 7.39589 2048.02 7.30515V7.29019ZM2549.4 157.781C2545.33 214.876 2536.9 276.509 2512.83 340.199C2481.06 425.109 2320.51 576.295 2320.51 576.295C2309.57 586.595 2291.67 586.595 2280.74 576.295C2280.74 576.295 2119.75 424.882 2087.95 339.851C2063.88 276.161 2055.44 214.528 2051.38 157.433C2047.58 100.428 2048.13 47.9452 2048.04 1.10407C2048.04 1.1192 2048.04 1.1495 2048.04 1.16463C2048.49 48.0511 2047 100.534 2053.9 153.878C2060.88 207.117 2076.3 261.233 2112.26 307.424C2147.11 353.418 2203.46 391.426 2271.94 410.302L2275.46 411.315C2279.4 412.344 2270.37 413.402 2255.36 413.69L2164.84 404.464C2150.24 401.015 2136.63 399.76 2134.59 401.666C2132.56 403.572 2139.34 410.831 2154.09 413.554L2274 419.437C2288.95 418.273 2313.42 418.242 2328.38 419.346L2446.68 413.266C2461.42 410.529 2471.84 406.717 2469.84 404.812C2467.83 402.906 2450.51 400.713 2435.92 404.192L2347.11 413.493C2332.12 413.266 2322.56 412.359 2325.86 411.497L2328.83 410.65C2397.31 391.774 2453.66 353.766 2488.51 307.772C2524.47 261.581 2539.88 207.48 2546.86 154.226C2553.77 100.881 2552.28 48.3989 2552.73 1.51247V1.45191C2552.62 48.293 2553.18 100.776 2549.38 157.781H2549.4ZM2552.74 7.60775C2552.74 7.60775 2552.74 7.56232 2552.74 7.54719V7.87989C2552.74 7.78914 2552.74 7.71364 2552.74 7.62289V7.60775ZM3060.09 157.781C3056.02 214.876 3047.59 276.509 3023.52 340.199C2991.46 425.865 2828.05 578.534 2828.05 578.534C2817.07 588.788 2799.13 588.788 2788.15 578.534C2788.15 578.534 2624.73 425.865 2592.67 340.199C2568.61 276.509 2560.16 214.876 2556.11 157.781C2552.31 100.776 2552.85 48.293 2552.76 1.45191C2552.76 1.46703 2552.76 1.49734 2552.76 1.51247C2553.21 48.3989 2551.72 100.881 2558.63 154.226C2565.61 207.465 2581.02 261.581 2616.98 307.772C2651.83 353.766 2708.18 391.774 2776.66 410.65L2780.55 411.754C2784.89 412.873 2776.16 413.886 2761.17 414.007L2675.52 404.6C2660.94 401.076 2647.34 399.76 2645.3 401.666C2643.27 403.572 2650.04 410.877 2664.77 413.644L2780.9 419.982C2795.85 418.938 2820.33 418.938 2835.29 419.982L2951.41 413.644C2966.15 410.877 2976.57 407.035 2974.56 405.129C2972.56 403.224 2955.24 401.076 2940.66 404.6L2855.01 414.007C2840.02 413.886 2831.29 412.858 2835.63 411.754L2839.52 410.65C2908 391.774 2964.35 353.766 2999.2 307.772C3035.17 261.581 3050.58 207.48 3057.56 154.226C3064.46 100.881 3062.97 48.3989 3063.42 1.51247C3063.42 1.49734 3063.42 1.46703 3063.42 1.45191C3063.32 48.293 3063.88 100.776 3060.08 157.781H3060.09ZM3063.44 7.60775V7.54719C3063.44 7.65307 3063.44 7.77402 3063.44 7.87989C3063.44 7.78914 3063.44 7.71364 3063.44 7.62289V7.60775Z" fill="white"/>
<path d="M4685.37 340.199C4661.3 276.509 4652.86 214.876 4648.8 157.781C4645 100.776 4645.54 48.293 4645.45 1.45191C4645.45 1.46703 4645.45 1.49734 4645.45 1.51247C4645.91 48.3989 4644.41 100.881 4651.32 154.226C4658.3 207.465 4673.71 261.581 4709.68 307.772C4744.53 353.766 4800.88 391.774 4869.35 410.65C4936.7 429.888 5043.97 412.888 5043.97 412.888C5058.78 410.544 5069.26 407.065 5067.26 405.144C5065.25 403.224 5047.8 400.456 5033.06 403.178C5033.06 403.178 4933.4 421.661 4867.82 403.723C4801.13 386.163 4745.22 349.455 4710.45 304.429C4674.53 259.237 4658.77 205.831 4651.59 153.062C4644.5 100.488 4645.86 48.5503 4645.44 1.98142C4646.19 48.641 4644.05 100.73 4653.57 147.45C4662.48 194.17 4697.04 234.886 4697.04 234.886C4706.77 246.335 4726.51 259.116 4740.91 263.29C4740.91 263.29 4781.36 275.012 4785.84 247.651C4787.97 234.342 4781.52 215.103 4765.02 191.221C4748.96 167.324 4713.72 127.062 4713.72 127.062C4703.83 115.764 4693.06 103.498 4689.79 99.8076L4687 96.45C4712.68 129.21 4738.93 158.007 4755.68 182.237C4772.89 206.437 4780.58 226.068 4779.6 239.892C4777.63 268.115 4740.29 258.223 4740.29 258.223C4725.8 254.382 4705.89 241.934 4696.09 230.56C4696.09 230.56 4662.67 191.826 4653.73 145.772C4644.11 99.5203 4646.19 47.5368 4645.44 0.907443C4645.44 0.695698 4645.44 0.49921 4645.44 0.287465V0.907443C4644.67 47.5519 4646.77 99.5354 4637.15 145.787C4628.2 191.856 4594.79 230.575 4594.79 230.575C4584.97 241.949 4565.08 254.397 4550.59 258.239C4550.59 258.239 4513.25 268.13 4511.28 239.907C4510.3 226.068 4517.99 206.452 4535.19 182.252C4551.95 158.022 4578.2 129.225 4603.88 96.4652L4601.09 99.8228C4597.82 103.498 4587.05 115.764 4577.16 127.077C4577.16 127.077 4541.92 167.355 4525.86 191.236C4509.36 215.103 4502.91 234.357 4505.03 247.666C4509.51 275.012 4549.97 263.305 4549.97 263.305C4564.37 259.131 4584.13 246.351 4593.84 234.901C4593.84 234.901 4628.4 194.186 4637.31 147.465C4646.83 100.745 4644.69 48.641 4645.44 1.99656C4645.02 48.5654 4646.37 100.518 4639.29 153.077C4632.11 205.847 4616.35 259.252 4580.43 304.444C4545.66 349.455 4489.74 386.178 4423.06 403.738L4412.31 406.672C4400.1 409.047 4380.1 409.047 4367.89 406.672L4357.14 403.738C4290.45 386.178 4234.54 349.471 4199.77 304.444C4163.85 259.252 4148.09 205.847 4140.91 153.077C4133.82 100.503 4135.18 48.5654 4134.76 1.99656C4135.51 48.6561 4133.37 100.745 4142.89 147.465C4151.8 194.186 4186.36 234.901 4186.36 234.901C4196.09 246.351 4215.83 259.131 4230.23 263.305C4230.23 263.305 4270.69 275.027 4275.16 247.666C4277.29 234.357 4270.84 215.118 4254.34 191.236C4238.28 167.339 4203.04 127.077 4203.04 127.077C4193.15 115.779 4182.38 103.513 4179.11 99.8228L4176.32 96.4652C4202 129.225 4228.25 158.022 4245.01 182.252C4262.21 206.452 4269.9 226.083 4268.92 239.907C4266.96 268.13 4229.61 258.239 4229.61 258.239C4215.12 254.397 4195.21 241.949 4185.41 230.575C4185.41 230.575 4152 191.841 4143.05 145.787C4133.43 99.5354 4135.51 47.5519 4134.76 0.922582C4134.76 0.710837 4134.76 0.514165 4134.76 0.302419V0.362977C4134.76 0.544473 4134.76 0.725962 4134.76 0.922582C4133.99 47.567 4136.09 99.5506 4126.47 145.802C4117.52 191.872 4084.11 230.591 4084.11 230.591C4074.29 241.964 4054.4 254.412 4039.91 258.254C4039.91 258.254 4002.57 268.145 4000.6 239.923C3999.62 226.083 4007.31 206.467 4024.51 182.267C4041.27 158.038 4067.52 129.24 4093.2 96.4803L4090.41 99.8379C4087.14 103.513 4076.37 115.779 4066.48 127.093C4066.48 127.093 4031.24 167.369 4015.18 191.251C3998.68 215.118 3992.23 234.372 3994.36 247.682C3998.83 275.027 4039.29 263.32 4039.29 263.32C4053.69 259.146 4073.45 246.366 4083.16 234.916C4083.16 234.916 4117.72 194.201 4126.63 147.481C4136.15 100.761 4134.01 48.656 4134.76 2.01151C4134.34 48.5804 4135.69 100.534 4128.61 153.092C4121.43 205.862 4105.67 259.267 4069.75 304.46C4034.98 349.471 3979.06 386.193 3912.38 403.753L3902.88 406.354C3892.12 408.548 3873.95 408.472 3862.52 406.188L3852.43 403.435C3785.75 385.876 3729.83 349.168 3695.06 304.142C3659.14 258.949 3643.38 205.544 3636.2 152.774C3629.12 100.201 3630.47 48.2628 3630.05 1.69396C3630.81 48.3535 3628.66 100.443 3638.18 147.163C3647.09 193.883 3681.65 234.599 3681.65 234.599C3691.38 246.048 3711.12 258.828 3725.52 263.003C3725.52 263.003 3765.98 274.724 3770.46 247.364C3772.58 234.054 3766.13 214.816 3749.63 190.934C3733.57 167.037 3698.33 126.775 3698.33 126.775C3688.44 115.477 3677.67 103.211 3674.4 99.5204L3671.61 96.1626C3697.29 128.923 3723.54 157.72 3740.3 181.95C3757.5 206.149 3765.19 225.781 3764.21 239.605C3762.24 267.828 3724.9 257.936 3724.9 257.936C3710.41 254.094 3690.5 241.647 3680.7 230.273C3680.7 230.273 3647.29 191.539 3638.35 145.484C3628.72 99.233 3630.81 47.2495 3630.05 0.620163C3630.05 0.408418 3630.05 0.211745 3630.05 0V0.0605577C3630.05 0.242054 3630.05 0.423542 3630.05 0.620163C3629.28 47.2646 3631.38 99.248 3621.76 145.499C3612.82 191.569 3579.4 230.288 3579.4 230.288C3569.58 241.662 3549.69 254.11 3535.2 257.951C3535.2 257.951 3497.87 267.843 3495.89 239.62C3494.91 225.781 3502.6 206.164 3519.81 181.965C3536.56 157.735 3562.81 128.938 3588.49 96.1777L3585.7 99.5355C3582.43 103.211 3571.66 115.477 3561.77 126.79C3561.77 126.79 3526.53 167.067 3510.47 190.949C3493.97 214.816 3487.52 234.069 3489.65 247.379C3494.13 274.725 3534.58 263.018 3534.58 263.018C3548.98 258.844 3568.74 246.063 3578.45 234.614C3578.45 234.614 3613.01 193.898 3621.92 147.178C3631.44 100.458 3629.3 48.3536 3630.05 1.70909C3629.63 48.2779 3630.99 100.231 3623.9 152.789C3616.72 205.559 3600.96 258.964 3565.04 304.157C3530.27 349.168 3474.36 385.891 3407.68 403.45C3342.1 421.373 3242.44 402.906 3242.44 402.906C3227.69 400.168 3213.95 399.488 3211.91 401.393C3209.88 403.299 3216.71 410.257 3231.52 412.601C3231.52 412.601 3338.81 429.601 3406.15 410.362C3474.63 391.487 3530.98 353.479 3565.83 307.484C3601.79 261.294 3617.2 207.193 3624.19 153.939C3631.09 100.594 3629.6 48.1116 3630.05 1.22519V1.16463C3629.95 48.0057 3630.5 100.488 3626.7 157.493C3622.63 214.589 3614.2 276.222 3590.14 339.912C3542.94 466.021 3184.79 687.401 3184.79 687.401C3172.01 695.296 3162.73 703.025 3164.14 704.582C3165.56 706.14 3179.78 703.599 3192.42 695.508C3192.42 695.508 3546.69 468.94 3592.35 341.591C3615.47 277.417 3623.33 215.405 3627.08 158.068C3630.56 100.73 3630.19 28.4647 3630.19 28.4647C3630.11 13.4308 3630.05 1.33106 3630.05 1.6033V1.84516C3630.05 2.93414 3630.05 4.02317 3630.05 5.11214C3630.05 5.36926 3630.05 5.823 3630.05 6.24649C3630.05 6.42799 3630.05 6.62462 3630.05 6.82124C3630.05 7.04811 3630.05 7.15406 3630.05 7.09356V7.39598C3630.05 7.8951 3630.05 8.03116 3630.05 7.71354C3630.05 7.87991 3630.05 8.06137 3630.05 8.24287C3630.05 8.66636 3630.05 8.78751 3630.05 8.59089C3630.05 8.69676 3630.05 8.78742 3630.05 8.87817C3630.05 9.25629 3630.05 9.33195 3630.05 9.10508C3630.05 9.27145 3630.05 9.42275 3630.05 9.54375C3630.05 9.58913 3630.05 9.63443 3630.05 9.66468C3630.05 9.60418 3630.05 9.52854 3630.05 9.45292C3630.05 9.10505 3630.05 8.75727 3630.05 8.4094C3630.05 8.45478 3630.05 8.51524 3630.05 8.56061C3630.05 8.60599 3630.05 8.65131 3630.05 8.69668C3630.05 8.92355 3630.05 9.1655 3630.05 9.4075C3630.05 9.51337 3630.05 9.61935 3630.05 9.7101C3630.05 9.67985 3630.05 9.66465 3630.05 9.6344V9.90673C3630.05 9.77061 3630.05 9.61932 3630.05 9.48319V9.05966C3630.05 8.1673 3630.05 7.27493 3630.05 6.3977C3630.05 6.12546 3630.05 5.8382 3630.05 5.56596C3630.05 193.324 3621.86 817.307 3621.86 817.307C3621.67 832.341 3624.29 844.667 3627.71 844.667C3631.14 844.667 3639.93 832.325 3639.7 817.292C3639.7 817.292 3630.07 192.098 3630.05 4.34077V4.23498C3630.05 4.85509 3630.05 5.47517 3630.05 6.09528C3630.05 7.36576 3630.05 8.63627 3630.05 9.92187C3630.05 10.4361 3630.05 10.5873 3630.05 10.2546V10.0428C3630.05 10.1184 3630.05 10.1789 3630.05 10.194V9.7101C3630.05 9.92185 3630.05 9.86137 3630.05 9.54375V8.87817C3630.05 8.69667 3630.05 8.48488 3630.05 8.25801C3630.05 8.13701 3630.05 7.9859 3630.05 7.83466C3630.05 7.75903 3630.05 7.62287 3630.05 7.41112C3630.05 7.154 3630.05 6.85144 3630.05 6.57919C3630.05 6.3372 3630.05 6.08009 3630.05 5.8381C3630.05 4.29538 3630.05 2.73761 3630.05 1.17977C3630.14 48.1267 3629.54 100.776 3633.02 158.098C3636.78 215.436 3644.63 277.447 3667.75 341.621C3698.45 427.242 3855.84 580.833 3855.84 580.833C3866.59 591.329 3864.72 606 3851.69 613.441L3691.39 691.364C3677.6 697.262 3667.46 703.358 3668.88 704.915C3670.3 706.473 3685.39 705.566 3699.1 699.485L3859.18 618.811C3872.09 611.157 3893.23 611.157 3906.14 618.811L4065.74 699.183C4079.46 705.263 4091.87 708.969 4093.35 707.426C4094.83 705.883 4087.24 696.945 4073.45 691.046L3913.64 613.411C3900.61 605.97 3898.72 591.299 3909.47 580.802C3909.47 580.802 4066.43 427.423 4097.09 341.923C4120.21 277.749 4128.06 215.738 4131.82 158.401C4135.3 101.063 4134.93 28.7974 4134.93 28.7974C4134.85 13.7635 4134.79 1.66376 4134.79 1.936V2.17805C4134.79 3.26702 4134.79 4.35587 4134.79 5.44484C4134.79 5.70196 4134.79 6.1557 4134.79 6.57919C4134.79 6.76069 4134.79 6.95732 4134.79 7.15394C4134.79 7.38081 4134.79 7.48676 4134.79 7.42626V7.72868C4134.79 8.2278 4134.79 8.36404 4134.79 8.04642V8.57575C4134.79 8.99924 4134.79 9.12021 4134.79 8.92359C4134.79 9.02946 4134.79 9.12012 4134.79 9.21087C4134.79 9.58899 4134.79 9.66465 4134.79 9.43778C4134.79 9.60415 4134.79 9.75545 4134.79 9.87645C4134.79 9.92182 4134.79 9.96713 4134.79 9.99738C4134.79 9.93688 4134.79 9.86124 4134.79 9.78561C4134.79 9.43775 4134.79 9.08997 4134.79 8.7421C4134.79 8.78747 4134.79 8.84794 4134.79 8.89331C4134.79 8.93868 4134.79 8.98401 4134.79 9.02938C4134.79 9.25625 4134.79 9.49838 4134.79 9.74038C4134.79 9.84625 4134.79 9.95205 4134.79 10.0428C4134.79 10.0126 4134.79 9.99735 4134.79 9.9671V10.2697C4134.79 10.2697 4134.79 10.2394 4134.79 10.2243V9.36226C4134.79 8.46991 4134.79 7.57754 4134.79 6.70031C4134.79 6.42806 4134.79 6.14062 4134.79 5.86838C4134.79 193.626 4126.6 817.609 4126.6 817.609C4126.41 832.643 4129.03 844.97 4132.45 844.97C4135.88 844.97 4144.67 832.628 4144.44 817.594C4144.44 817.594 4134.8 192.401 4134.79 4.64338V4.5374C4134.79 5.15751 4134.79 5.77759 4134.79 6.3977C4134.79 7.66818 4134.79 8.93869 4134.79 10.2243C4134.79 10.7385 4134.79 10.8897 4134.79 10.557V10.3452C4134.79 10.4208 4134.79 10.4815 4134.79 10.4966C4134.79 10.4815 4134.79 10.4058 4134.79 10.2697C4134.79 10.2243 4134.79 10.194 4134.79 10.1486V10.0125C4134.79 10.2243 4134.79 10.1638 4134.79 9.84617V9.18077C4134.79 8.99928 4134.79 8.78748 4134.79 8.56061C4134.79 8.42449 4134.79 8.28832 4134.79 8.13708C4134.79 8.06145 4134.79 7.92529 4134.79 7.71354C4134.79 7.45642 4134.79 7.15404 4134.79 6.8818C4134.79 6.6398 4134.79 6.3827 4134.79 6.1407C4134.79 4.59799 4134.79 3.04003 4134.79 1.48219C4134.88 48.4291 4134.28 101.078 4137.76 158.401C4141.52 215.738 4149.37 277.749 4172.49 341.923C4203.42 428.179 4363.15 583.041 4363.15 583.041C4373.93 593.492 4372.08 608.102 4359.02 615.498L4202.1 691.379C4188.31 697.262 4178.16 703.342 4179.58 704.9C4180.99 706.458 4196.09 705.566 4209.81 699.501L4366.62 620.883C4379.56 613.275 4400.73 613.275 4413.67 620.883L4570.48 699.501C4584.2 705.566 4596.63 709.271 4598.09 707.728C4599.55 706.186 4591.98 697.262 4578.18 691.379L4421.27 615.498C4408.21 608.102 4406.35 593.492 4417.14 583.041C4417.14 583.041 4576.87 428.179 4607.8 341.923C4630.92 277.749 4638.77 215.738 4642.53 158.401C4646.01 101.063 4645.63 28.7974 4645.63 28.7974C4645.56 13.7635 4645.5 1.66376 4645.5 1.936V2.17805C4645.5 3.26702 4645.5 4.35587 4645.5 5.44484C4645.5 5.70196 4645.5 6.1557 4645.5 6.57919V7.15394C4645.5 7.38081 4645.5 7.48676 4645.5 7.42626V7.72868C4645.5 8.2278 4645.5 8.36404 4645.5 8.04642C4645.5 8.2128 4645.5 8.39426 4645.5 8.57575C4645.5 8.99924 4645.5 9.12021 4645.5 8.92359C4645.5 9.02946 4645.5 9.12012 4645.5 9.21087C4645.5 9.58899 4645.5 9.66465 4645.5 9.43778C4645.5 9.60415 4645.5 9.75545 4645.5 9.87645V9.99738C4645.5 9.99738 4645.5 9.86124 4645.5 9.78561C4645.5 9.43775 4645.5 9.08997 4645.5 8.7421V9.02938C4645.5 9.25625 4645.5 9.49838 4645.5 9.74038V10.0428C4645.5 10.0428 4645.5 9.99735 4645.5 9.9671V10.2394C4645.5 10.1033 4645.5 9.95201 4645.5 9.81589V9.39236C4645.5 8.5 4645.5 7.60763 4645.5 6.7304C4645.5 6.45816 4645.5 6.1709 4645.5 5.89866C4645.5 193.656 4637.31 817.639 4637.31 817.639C4637.12 832.673 4639.74 845 4643.16 845C4646.59 845 4655.38 832.658 4655.15 817.624C4655.15 817.624 4645.51 192.431 4645.5 4.67347C4645.5 4.64322 4645.5 4.59793 4645.5 4.56768C4645.5 5.18779 4645.5 5.80787 4645.5 6.42798C4645.5 7.69845 4645.5 8.96897 4645.5 10.2546C4645.5 10.7688 4645.5 10.92 4645.5 10.5873V10.3755C4645.5 10.4511 4645.5 10.5116 4645.5 10.5267V10.3C4645.5 10.3 4645.5 10.2242 4645.5 10.1789V10.0428C4645.5 10.2545 4645.5 10.1941 4645.5 9.87645V9.21087C4645.5 9.02937 4645.5 8.81776 4645.5 8.59089C4645.5 8.45477 4645.5 8.3186 4645.5 8.16736C4645.5 8.09173 4645.5 7.95557 4645.5 7.74382C4645.5 7.4867 4645.5 7.18432 4645.5 6.91207C4645.5 6.67008 4645.5 6.41279 4645.5 6.1708C4645.5 4.62808 4645.5 3.07031 4645.5 1.51247C4645.59 48.4594 4644.99 101.108 4648.47 158.431C4652.22 215.768 4660.08 277.78 4683.2 341.954C4728.86 469.288 5083.13 695.871 5083.13 695.871C5095.77 703.962 5107.32 709.316 5108.8 707.759C5110.28 706.201 5103.54 695.644 5090.78 687.749C5090.78 687.749 4732.63 466.369 4685.43 340.26L4685.37 340.199ZM3630.02 7.29019V7.22963C3630.02 7.33551 3630.02 7.45646 3630.02 7.56233C3630.02 7.47158 3630.02 7.39589 3630.02 7.30515V7.29019ZM4131.4 157.781C4127.33 214.876 4118.9 276.509 4094.83 340.199C4063.06 425.109 3902.51 576.295 3902.51 576.295C3891.57 586.595 3873.67 586.595 3862.74 576.295C3862.74 576.295 3701.75 424.882 3669.95 339.851C3645.88 276.161 3637.44 214.528 3633.38 157.433C3629.58 100.428 3630.13 47.9452 3630.04 1.10407C3630.04 1.1192 3630.04 1.1495 3630.04 1.16463C3630.49 48.0511 3629 100.534 3635.9 153.878C3642.88 207.117 3658.3 261.233 3694.26 307.424C3729.11 353.418 3785.46 391.426 3853.94 410.302L3857.46 411.315C3861.4 412.344 3852.37 413.402 3837.36 413.69L3746.84 404.464C3732.24 401.015 3718.63 399.76 3716.59 401.666C3714.56 403.572 3721.34 410.831 3736.09 413.554L3856 419.437C3870.95 418.273 3895.42 418.242 3910.38 419.346L4028.68 413.266C4043.42 410.529 4053.84 406.717 4051.84 404.812C4049.83 402.906 4032.51 400.713 4017.92 404.192L3929.11 413.493C3914.12 413.266 3904.56 412.359 3907.86 411.497L3910.83 410.65C3979.31 391.774 4035.66 353.766 4070.51 307.772C4106.47 261.581 4121.88 207.48 4128.86 154.226C4135.77 100.881 4134.28 48.3989 4134.73 1.51247V1.45191C4134.62 48.293 4135.18 100.776 4131.38 157.781H4131.4ZM4134.74 7.60775C4134.74 7.60775 4134.74 7.56232 4134.74 7.54719V7.87989C4134.74 7.78914 4134.74 7.71364 4134.74 7.62289V7.60775ZM4642.09 157.781C4638.02 214.876 4629.59 276.509 4605.52 340.199C4573.46 425.865 4410.05 578.534 4410.05 578.534C4399.07 588.788 4381.13 588.788 4370.15 578.534C4370.15 578.534 4206.73 425.865 4174.67 340.199C4150.61 276.509 4142.16 214.876 4138.11 157.781C4134.31 100.776 4134.85 48.293 4134.76 1.45191C4134.76 1.46703 4134.76 1.49734 4134.76 1.51247C4135.21 48.3989 4133.72 100.881 4140.63 154.226C4147.61 207.465 4163.02 261.581 4198.98 307.772C4233.83 353.766 4290.18 391.774 4358.66 410.65L4362.55 411.754C4366.89 412.873 4358.16 413.886 4343.17 414.007L4257.52 404.6C4242.94 401.076 4229.34 399.76 4227.3 401.666C4225.27 403.572 4232.04 410.877 4246.77 413.644L4362.9 419.982C4377.85 418.938 4402.33 418.938 4417.29 419.982L4533.41 413.644C4548.15 410.877 4558.57 407.035 4556.56 405.129C4554.56 403.224 4537.24 401.076 4522.66 404.6L4437.01 414.007C4422.02 413.886 4413.29 412.858 4417.63 411.754L4421.52 410.65C4490 391.774 4546.35 353.766 4581.2 307.772C4617.17 261.581 4632.58 207.48 4639.56 154.226C4646.46 100.881 4644.97 48.3989 4645.42 1.51247C4645.42 1.49734 4645.42 1.46703 4645.42 1.45191C4645.32 48.293 4645.88 100.776 4642.08 157.781H4642.09ZM4645.44 7.60775V7.54719C4645.44 7.65307 4645.44 7.77402 4645.44 7.87989C4645.44 7.78914 4645.44 7.71364 4645.44 7.62289V7.60775Z" fill="white"/>
<path d="M6273.37 340.199C6249.3 276.509 6240.86 214.876 6236.8 157.781C6233 100.776 6233.54 48.293 6233.45 1.45191C6233.45 1.46703 6233.45 1.49734 6233.45 1.51247C6233.91 48.3989 6232.41 100.881 6239.32 154.226C6246.3 207.465 6261.71 261.581 6297.68 307.772C6332.53 353.766 6388.88 391.774 6457.35 410.65C6524.7 429.888 6631.97 412.888 6631.97 412.888C6646.78 410.544 6657.26 407.065 6655.26 405.144C6653.25 403.224 6635.8 400.456 6621.06 403.178C6621.06 403.178 6521.4 421.661 6455.82 403.723C6389.13 386.163 6333.22 349.455 6298.45 304.429C6262.53 259.237 6246.77 205.831 6239.59 153.062C6232.5 100.488 6233.86 48.5503 6233.44 1.98142C6234.19 48.641 6232.05 100.73 6241.57 147.45C6250.48 194.17 6285.04 234.886 6285.04 234.886C6294.77 246.335 6314.51 259.116 6328.91 263.29C6328.91 263.29 6369.36 275.012 6373.84 247.651C6375.97 234.342 6369.52 215.103 6353.02 191.221C6336.96 167.324 6301.72 127.062 6301.72 127.062C6291.83 115.764 6281.06 103.498 6277.79 99.8076L6275 96.45C6300.68 129.21 6326.93 158.007 6343.68 182.237C6360.89 206.437 6368.58 226.068 6367.6 239.892C6365.63 268.115 6328.29 258.223 6328.29 258.223C6313.8 254.382 6293.89 241.934 6284.09 230.56C6284.09 230.56 6250.67 191.826 6241.73 145.772C6232.11 99.5203 6234.19 47.5368 6233.44 0.907443C6233.44 0.695698 6233.44 0.49921 6233.44 0.287465V0.907443C6232.67 47.5519 6234.77 99.5354 6225.15 145.787C6216.2 191.856 6182.79 230.575 6182.79 230.575C6172.97 241.949 6153.08 254.397 6138.59 258.239C6138.59 258.239 6101.25 268.13 6099.28 239.907C6098.3 226.068 6105.99 206.452 6123.19 182.252C6139.95 158.022 6166.2 129.225 6191.88 96.4652L6189.09 99.8228C6185.82 103.498 6175.05 115.764 6165.16 127.077C6165.16 127.077 6129.92 167.355 6113.86 191.236C6097.36 215.103 6090.91 234.357 6093.03 247.666C6097.51 275.012 6137.97 263.305 6137.97 263.305C6152.37 259.131 6172.13 246.351 6181.84 234.901C6181.84 234.901 6216.4 194.186 6225.31 147.465C6234.83 100.745 6232.69 48.641 6233.44 1.99656C6233.02 48.5654 6234.37 100.518 6227.29 153.077C6220.11 205.847 6204.35 259.252 6168.43 304.444C6133.66 349.455 6077.74 386.178 6011.06 403.738L6000.31 406.672C5988.1 409.047 5968.1 409.047 5955.89 406.672L5945.14 403.738C5878.45 386.178 5822.54 349.471 5787.77 304.444C5751.85 259.252 5736.09 205.847 5728.91 153.077C5721.82 100.503 5723.18 48.5654 5722.76 1.99656C5723.51 48.6561 5721.37 100.745 5730.89 147.465C5739.8 194.186 5774.36 234.901 5774.36 234.901C5784.09 246.351 5803.83 259.131 5818.23 263.305C5818.23 263.305 5858.69 275.027 5863.16 247.666C5865.29 234.357 5858.84 215.118 5842.34 191.236C5826.28 167.339 5791.04 127.077 5791.04 127.077C5781.15 115.779 5770.38 103.513 5767.11 99.8228L5764.32 96.4652C5790 129.225 5816.25 158.022 5833.01 182.252C5850.21 206.452 5857.9 226.083 5856.92 239.907C5854.96 268.13 5817.61 258.239 5817.61 258.239C5803.12 254.397 5783.21 241.949 5773.41 230.575C5773.41 230.575 5740 191.841 5731.05 145.787C5721.43 99.5354 5723.51 47.5519 5722.76 0.922582C5722.76 0.710837 5722.76 0.514165 5722.76 0.302419V0.362977C5722.76 0.544473 5722.76 0.725962 5722.76 0.922582C5721.99 47.567 5724.09 99.5506 5714.47 145.802C5705.52 191.872 5672.11 230.591 5672.11 230.591C5662.29 241.964 5642.4 254.412 5627.91 258.254C5627.91 258.254 5590.57 268.145 5588.6 239.923C5587.62 226.083 5595.31 206.467 5612.51 182.267C5629.27 158.038 5655.52 129.24 5681.2 96.4803L5678.41 99.8379C5675.14 103.513 5664.37 115.779 5654.48 127.093C5654.48 127.093 5619.24 167.369 5603.18 191.251C5586.68 215.118 5580.23 234.372 5582.36 247.682C5586.83 275.027 5627.29 263.32 5627.29 263.32C5641.69 259.146 5661.45 246.366 5671.16 234.916C5671.16 234.916 5705.72 194.201 5714.63 147.481C5724.15 100.761 5722.01 48.656 5722.76 2.01151C5722.34 48.5804 5723.69 100.534 5716.61 153.092C5709.43 205.862 5693.67 259.267 5657.75 304.46C5622.98 349.471 5567.06 386.193 5500.38 403.753L5490.88 406.354C5480.12 408.548 5461.95 408.472 5450.52 406.188L5440.43 403.435C5373.75 385.876 5317.83 349.168 5283.06 304.142C5247.14 258.949 5231.38 205.544 5224.2 152.774C5217.12 100.201 5218.47 48.2628 5218.05 1.69396C5218.81 48.3535 5216.66 100.443 5226.18 147.163C5235.09 193.883 5269.65 234.599 5269.65 234.599C5279.38 246.048 5299.12 258.828 5313.52 263.003C5313.52 263.003 5353.98 274.724 5358.46 247.364C5360.58 234.054 5354.13 214.816 5337.63 190.934C5321.57 167.037 5286.33 126.775 5286.33 126.775C5276.44 115.477 5265.67 103.211 5262.4 99.5204L5259.61 96.1626C5285.29 128.923 5311.54 157.72 5328.3 181.95C5345.5 206.149 5353.19 225.781 5352.21 239.605C5350.24 267.828 5312.9 257.936 5312.9 257.936C5298.41 254.094 5278.5 241.647 5268.7 230.273C5268.7 230.273 5235.29 191.539 5226.35 145.484C5216.72 99.233 5218.81 47.2495 5218.05 0.620163C5218.05 0.408418 5218.05 0.211745 5218.05 0V0.0605577C5218.05 0.242054 5218.05 0.423542 5218.05 0.620163C5217.28 47.2646 5219.38 99.248 5209.76 145.499C5200.82 191.569 5167.4 230.288 5167.4 230.288C5157.58 241.662 5137.69 254.11 5123.2 257.951C5123.2 257.951 5085.87 267.843 5083.89 239.62C5082.91 225.781 5090.6 206.164 5107.81 181.965C5124.56 157.735 5150.81 128.938 5176.49 96.1777L5173.7 99.5355C5170.43 103.211 5159.66 115.477 5149.77 126.79C5149.77 126.79 5114.53 167.067 5098.47 190.949C5081.97 214.816 5075.52 234.069 5077.65 247.379C5082.13 274.725 5122.58 263.018 5122.58 263.018C5136.98 258.844 5156.74 246.063 5166.45 234.614C5166.45 234.614 5201.01 193.898 5209.92 147.178C5219.44 100.458 5217.3 48.3536 5218.05 1.70909C5217.63 48.2779 5218.99 100.231 5211.9 152.789C5204.72 205.559 5188.96 258.964 5153.04 304.157C5118.27 349.168 5062.36 385.891 4995.68 403.45C4930.1 421.373 4830.44 402.906 4830.44 402.906C4815.69 400.168 4801.95 399.488 4799.91 401.393C4797.88 403.299 4804.71 410.257 4819.52 412.601C4819.52 412.601 4926.81 429.601 4994.15 410.362C5062.63 391.487 5118.98 353.479 5153.83 307.484C5189.79 261.294 5205.2 207.193 5212.19 153.939C5219.09 100.594 5217.6 48.1116 5218.05 1.22519V1.16463C5217.95 48.0057 5218.5 100.488 5214.7 157.493C5210.63 214.589 5202.2 276.222 5178.14 339.912C5130.94 466.021 4772.79 687.401 4772.79 687.401C4760.01 695.296 4750.73 703.025 4752.14 704.582C4753.56 706.14 4767.78 703.599 4780.42 695.508C4780.42 695.508 5134.69 468.94 5180.35 341.591C5203.47 277.417 5211.33 215.405 5215.08 158.068C5218.56 100.73 5218.19 28.4647 5218.19 28.4647C5218.11 13.4308 5218.05 1.33106 5218.05 1.6033V1.84516C5218.05 2.93414 5218.05 4.02317 5218.05 5.11214C5218.05 5.36926 5218.05 5.823 5218.05 6.24649C5218.05 6.42799 5218.05 6.62462 5218.05 6.82124C5218.05 7.04811 5218.05 7.15406 5218.05 7.09356V7.39598C5218.05 7.8951 5218.05 8.03116 5218.05 7.71354C5218.05 7.87991 5218.05 8.06137 5218.05 8.24287C5218.05 8.66636 5218.05 8.78751 5218.05 8.59089C5218.05 8.69676 5218.05 8.78742 5218.05 8.87817C5218.05 9.25629 5218.05 9.33195 5218.05 9.10508C5218.05 9.27145 5218.05 9.42275 5218.05 9.54375C5218.05 9.58913 5218.05 9.63443 5218.05 9.66468C5218.05 9.60418 5218.05 9.52854 5218.05 9.45292C5218.05 9.10505 5218.05 8.75727 5218.05 8.4094C5218.05 8.45478 5218.05 8.51524 5218.05 8.56061C5218.05 8.60599 5218.05 8.65131 5218.05 8.69668C5218.05 8.92355 5218.05 9.1655 5218.05 9.4075C5218.05 9.51337 5218.05 9.61935 5218.05 9.7101C5218.05 9.67985 5218.05 9.66465 5218.05 9.6344V9.90673C5218.05 9.77061 5218.05 9.61932 5218.05 9.48319V9.05966C5218.05 8.1673 5218.05 7.27493 5218.05 6.3977C5218.05 6.12546 5218.05 5.8382 5218.05 5.56596C5218.05 193.324 5209.86 817.307 5209.86 817.307C5209.67 832.341 5212.29 844.667 5215.71 844.667C5219.14 844.667 5227.93 832.325 5227.7 817.292C5227.7 817.292 5218.07 192.098 5218.05 4.34077V4.23498C5218.05 4.85509 5218.05 5.47517 5218.05 6.09528C5218.05 7.36576 5218.05 8.63627 5218.05 9.92187C5218.05 10.4361 5218.05 10.5873 5218.05 10.2546V10.0428C5218.05 10.1184 5218.05 10.1789 5218.05 10.194V9.7101C5218.05 9.92185 5218.05 9.86137 5218.05 9.54375V8.87817C5218.05 8.69667 5218.05 8.48488 5218.05 8.25801C5218.05 8.13701 5218.05 7.9859 5218.05 7.83466C5218.05 7.75903 5218.05 7.62287 5218.05 7.41112C5218.05 7.154 5218.05 6.85144 5218.05 6.57919C5218.05 6.3372 5218.05 6.08009 5218.05 5.8381C5218.05 4.29538 5218.05 2.73761 5218.05 1.17977C5218.14 48.1267 5217.54 100.776 5221.02 158.098C5224.78 215.436 5232.63 277.447 5255.75 341.621C5286.45 427.242 5443.84 580.833 5443.84 580.833C5454.59 591.329 5452.72 606 5439.69 613.441L5279.39 691.364C5265.6 697.262 5255.46 703.358 5256.88 704.915C5258.3 706.473 5273.39 705.566 5287.1 699.485L5447.18 618.811C5460.09 611.157 5481.23 611.157 5494.14 618.811L5653.74 699.183C5667.46 705.263 5679.87 708.969 5681.35 707.426C5682.83 705.883 5675.24 696.945 5661.45 691.046L5501.64 613.411C5488.61 605.97 5486.72 591.299 5497.47 580.802C5497.47 580.802 5654.43 427.423 5685.09 341.923C5708.21 277.749 5716.06 215.738 5719.82 158.401C5723.3 101.063 5722.93 28.7974 5722.93 28.7974C5722.85 13.7635 5722.79 1.66376 5722.79 1.936V2.17805C5722.79 3.26702 5722.79 4.35587 5722.79 5.44484C5722.79 5.70196 5722.79 6.1557 5722.79 6.57919C5722.79 6.76069 5722.79 6.95732 5722.79 7.15394C5722.79 7.38081 5722.79 7.48676 5722.79 7.42626V7.72868C5722.79 8.2278 5722.79 8.36404 5722.79 8.04642V8.57575C5722.79 8.99924 5722.79 9.12021 5722.79 8.92359C5722.79 9.02946 5722.79 9.12012 5722.79 9.21087C5722.79 9.58899 5722.79 9.66465 5722.79 9.43778C5722.79 9.60415 5722.79 9.75545 5722.79 9.87645C5722.79 9.92182 5722.79 9.96713 5722.79 9.99738C5722.79 9.93688 5722.79 9.86124 5722.79 9.78561C5722.79 9.43775 5722.79 9.08997 5722.79 8.7421C5722.79 8.78747 5722.79 8.84794 5722.79 8.89331C5722.79 8.93868 5722.79 8.98401 5722.79 9.02938C5722.79 9.25625 5722.79 9.49838 5722.79 9.74038C5722.79 9.84625 5722.79 9.95205 5722.79 10.0428C5722.79 10.0126 5722.79 9.99735 5722.79 9.9671V10.2697C5722.79 10.2697 5722.79 10.2394 5722.79 10.2243V9.36226C5722.79 8.46991 5722.79 7.57754 5722.79 6.70031C5722.79 6.42806 5722.79 6.14062 5722.79 5.86838C5722.79 193.626 5714.6 817.609 5714.6 817.609C5714.41 832.643 5717.03 844.97 5720.45 844.97C5723.88 844.97 5732.67 832.628 5732.44 817.594C5732.44 817.594 5722.8 192.401 5722.79 4.64338V4.5374C5722.79 5.15751 5722.79 5.77759 5722.79 6.3977C5722.79 7.66818 5722.79 8.93869 5722.79 10.2243C5722.79 10.7385 5722.79 10.8897 5722.79 10.557V10.3452C5722.79 10.4208 5722.79 10.4815 5722.79 10.4966C5722.79 10.4815 5722.79 10.4058 5722.79 10.2697C5722.79 10.2243 5722.79 10.194 5722.79 10.1486V10.0125C5722.79 10.2243 5722.79 10.1638 5722.79 9.84617V9.18077C5722.79 8.99928 5722.79 8.78748 5722.79 8.56061C5722.79 8.42449 5722.79 8.28832 5722.79 8.13708C5722.79 8.06145 5722.79 7.92529 5722.79 7.71354C5722.79 7.45642 5722.79 7.15404 5722.79 6.8818C5722.79 6.6398 5722.79 6.3827 5722.79 6.1407C5722.79 4.59799 5722.79 3.04003 5722.79 1.48219C5722.88 48.4291 5722.28 101.078 5725.76 158.401C5729.52 215.738 5737.37 277.749 5760.49 341.923C5791.42 428.179 5951.15 583.041 5951.15 583.041C5961.93 593.492 5960.08 608.102 5947.02 615.498L5790.1 691.379C5776.31 697.262 5766.16 703.342 5767.58 704.9C5768.99 706.458 5784.09 705.566 5797.81 699.501L5954.62 620.883C5967.56 613.275 5988.73 613.275 6001.67 620.883L6158.48 699.501C6172.2 705.566 6184.63 709.271 6186.09 707.728C6187.55 706.186 6179.98 697.262 6166.18 691.379L6009.27 615.498C5996.21 608.102 5994.35 593.492 6005.14 583.041C6005.14 583.041 6164.87 428.179 6195.8 341.923C6218.92 277.749 6226.77 215.738 6230.53 158.401C6234.01 101.063 6233.63 28.7974 6233.63 28.7974C6233.56 13.7635 6233.5 1.66376 6233.5 1.936V2.17805C6233.5 3.26702 6233.5 4.35587 6233.5 5.44484C6233.5 5.70196 6233.5 6.1557 6233.5 6.57919V7.15394C6233.5 7.38081 6233.5 7.48676 6233.5 7.42626V7.72868C6233.5 8.2278 6233.5 8.36404 6233.5 8.04642C6233.5 8.2128 6233.5 8.39426 6233.5 8.57575C6233.5 8.99924 6233.5 9.12021 6233.5 8.92359C6233.5 9.02946 6233.5 9.12012 6233.5 9.21087C6233.5 9.58899 6233.5 9.66465 6233.5 9.43778C6233.5 9.60415 6233.5 9.75545 6233.5 9.87645V9.99738C6233.5 9.99738 6233.5 9.86124 6233.5 9.78561C6233.5 9.43775 6233.5 9.08997 6233.5 8.7421V9.02938C6233.5 9.25625 6233.5 9.49838 6233.5 9.74038V10.0428C6233.5 10.0428 6233.5 9.99735 6233.5 9.9671V10.2394C6233.5 10.1033 6233.5 9.95201 6233.5 9.81589V9.39236C6233.5 8.5 6233.5 7.60763 6233.5 6.7304C6233.5 6.45816 6233.5 6.1709 6233.5 5.89866C6233.5 193.656 6225.31 817.639 6225.31 817.639C6225.12 832.673 6227.74 845 6231.16 845C6234.59 845 6243.38 832.658 6243.15 817.624C6243.15 817.624 6233.51 192.431 6233.5 4.67347C6233.5 4.64322 6233.5 4.59793 6233.5 4.56768C6233.5 5.18779 6233.5 5.80787 6233.5 6.42798C6233.5 7.69845 6233.5 8.96897 6233.5 10.2546C6233.5 10.7688 6233.5 10.92 6233.5 10.5873V10.3755C6233.5 10.4511 6233.5 10.5116 6233.5 10.5267V10.3C6233.5 10.3 6233.5 10.2242 6233.5 10.1789V10.0428C6233.5 10.2545 6233.5 10.1941 6233.5 9.87645V9.21087C6233.5 9.02937 6233.5 8.81776 6233.5 8.59089C6233.5 8.45477 6233.5 8.3186 6233.5 8.16736C6233.5 8.09173 6233.5 7.95557 6233.5 7.74382C6233.5 7.4867 6233.5 7.18432 6233.5 6.91207C6233.5 6.67008 6233.5 6.41279 6233.5 6.1708C6233.5 4.62808 6233.5 3.07031 6233.5 1.51247C6233.59 48.4594 6232.99 101.108 6236.47 158.431C6240.22 215.768 6248.08 277.78 6271.2 341.954C6316.86 469.288 6671.13 695.871 6671.13 695.871C6683.77 703.962 6695.32 709.316 6696.8 707.759C6698.28 706.201 6691.54 695.644 6678.78 687.749C6678.78 687.749 6320.63 466.369 6273.43 340.26L6273.37 340.199ZM5218.02 7.29019V7.22963C5218.02 7.33551 5218.02 7.45646 5218.02 7.56233C5218.02 7.47158 5218.02 7.39589 5218.02 7.30515V7.29019ZM5719.4 157.781C5715.33 214.876 5706.9 276.509 5682.83 340.199C5651.06 425.109 5490.51 576.295 5490.51 576.295C5479.57 586.595 5461.67 586.595 5450.74 576.295C5450.74 576.295 5289.75 424.882 5257.95 339.851C5233.88 276.161 5225.44 214.528 5221.38 157.433C5217.58 100.428 5218.13 47.9452 5218.04 1.10407C5218.04 1.1192 5218.04 1.1495 5218.04 1.16463C5218.49 48.0511 5217 100.534 5223.9 153.878C5230.88 207.117 5246.3 261.233 5282.26 307.424C5317.11 353.418 5373.46 391.426 5441.94 410.302L5445.46 411.315C5449.4 412.344 5440.37 413.402 5425.36 413.69L5334.84 404.464C5320.24 401.015 5306.63 399.76 5304.59 401.666C5302.56 403.572 5309.34 410.831 5324.09 413.554L5444 419.437C5458.95 418.273 5483.42 418.242 5498.38 419.346L5616.68 413.266C5631.42 410.529 5641.84 406.717 5639.84 404.812C5637.83 402.906 5620.51 400.713 5605.92 404.192L5517.11 413.493C5502.12 413.266 5492.56 412.359 5495.86 411.497L5498.83 410.65C5567.31 391.774 5623.66 353.766 5658.51 307.772C5694.47 261.581 5709.88 207.48 5716.86 154.226C5723.77 100.881 5722.28 48.3989 5722.73 1.51247V1.45191C5722.62 48.293 5723.18 100.776 5719.38 157.781H5719.4ZM5722.74 7.60775C5722.74 7.60775 5722.74 7.56232 5722.74 7.54719V7.87989C5722.74 7.78914 5722.74 7.71364 5722.74 7.62289V7.60775ZM6230.09 157.781C6226.02 214.876 6217.59 276.509 6193.52 340.199C6161.46 425.865 5998.05 578.534 5998.05 578.534C5987.07 588.788 5969.13 588.788 5958.15 578.534C5958.15 578.534 5794.73 425.865 5762.67 340.199C5738.61 276.509 5730.16 214.876 5726.11 157.781C5722.31 100.776 5722.85 48.293 5722.76 1.45191C5722.76 1.46703 5722.76 1.49734 5722.76 1.51247C5723.21 48.3989 5721.72 100.881 5728.63 154.226C5735.61 207.465 5751.02 261.581 5786.98 307.772C5821.83 353.766 5878.18 391.774 5946.66 410.65L5950.55 411.754C5954.89 412.873 5946.16 413.886 5931.17 414.007L5845.52 404.6C5830.94 401.076 5817.34 399.76 5815.3 401.666C5813.27 403.572 5820.04 410.877 5834.77 413.644L5950.9 419.982C5965.85 418.938 5990.33 418.938 6005.29 419.982L6121.41 413.644C6136.15 410.877 6146.57 407.035 6144.56 405.129C6142.56 403.224 6125.24 401.076 6110.66 404.6L6025.01 414.007C6010.02 413.886 6001.29 412.858 6005.63 411.754L6009.52 410.65C6078 391.774 6134.35 353.766 6169.2 307.772C6205.17 261.581 6220.58 207.48 6227.56 154.226C6234.46 100.881 6232.97 48.3989 6233.42 1.51247C6233.42 1.49734 6233.42 1.46703 6233.42 1.45191C6233.32 48.293 6233.88 100.776 6230.08 157.781H6230.09ZM6233.44 7.60775V7.54719C6233.44 7.65307 6233.44 7.77402 6233.44 7.87989C6233.44 7.78914 6233.44 7.71364 6233.44 7.62289V7.60775Z" fill="white"/>
<path d="M7855.37 340.199C7831.3 276.509 7822.86 214.876 7818.8 157.781C7815 100.776 7815.54 48.293 7815.45 1.45191C7815.45 1.46703 7815.45 1.49734 7815.45 1.51247C7815.91 48.3989 7814.41 100.881 7821.32 154.226C7828.3 207.465 7843.71 261.581 7879.68 307.772C7914.53 353.766 7970.88 391.774 8039.35 410.65C8106.7 429.888 8213.97 412.888 8213.97 412.888C8228.78 410.544 8239.26 407.065 8237.26 405.144C8235.25 403.224 8217.8 400.456 8203.06 403.178C8203.06 403.178 8103.4 421.661 8037.82 403.723C7971.13 386.163 7915.22 349.455 7880.45 304.429C7844.53 259.237 7828.77 205.831 7821.59 153.062C7814.5 100.488 7815.86 48.5503 7815.44 1.98142C7816.19 48.641 7814.05 100.73 7823.57 147.45C7832.48 194.17 7867.04 234.886 7867.04 234.886C7876.77 246.335 7896.51 259.116 7910.91 263.29C7910.91 263.29 7951.36 275.012 7955.84 247.651C7957.97 234.342 7951.52 215.103 7935.02 191.221C7918.96 167.324 7883.72 127.062 7883.72 127.062C7873.83 115.764 7863.06 103.498 7859.79 99.8076L7857 96.45C7882.68 129.21 7908.93 158.007 7925.68 182.237C7942.89 206.437 7950.58 226.068 7949.6 239.892C7947.63 268.115 7910.29 258.223 7910.29 258.223C7895.8 254.382 7875.89 241.934 7866.09 230.56C7866.09 230.56 7832.67 191.826 7823.73 145.772C7814.11 99.5203 7816.19 47.5368 7815.44 0.907443C7815.44 0.695698 7815.44 0.49921 7815.44 0.287465V0.907443C7814.67 47.5519 7816.77 99.5354 7807.15 145.787C7798.2 191.856 7764.79 230.575 7764.79 230.575C7754.97 241.949 7735.08 254.397 7720.59 258.239C7720.59 258.239 7683.25 268.13 7681.28 239.907C7680.3 226.068 7687.99 206.452 7705.19 182.252C7721.95 158.022 7748.2 129.225 7773.88 96.4652L7771.09 99.8228C7767.82 103.498 7757.05 115.764 7747.16 127.077C7747.16 127.077 7711.92 167.355 7695.86 191.236C7679.36 215.103 7672.91 234.357 7675.03 247.666C7679.51 275.012 7719.97 263.305 7719.97 263.305C7734.37 259.131 7754.13 246.351 7763.84 234.901C7763.84 234.901 7798.4 194.186 7807.31 147.465C7816.83 100.745 7814.69 48.641 7815.44 1.99656C7815.02 48.5654 7816.37 100.518 7809.29 153.077C7802.11 205.847 7786.35 259.252 7750.43 304.444C7715.66 349.455 7659.74 386.178 7593.06 403.738L7582.31 406.672C7570.1 409.047 7550.1 409.047 7537.89 406.672L7527.14 403.738C7460.45 386.178 7404.54 349.471 7369.77 304.444C7333.85 259.252 7318.09 205.847 7310.91 153.077C7303.82 100.503 7305.18 48.5654 7304.76 1.99656C7305.51 48.6561 7303.37 100.745 7312.89 147.465C7321.8 194.186 7356.36 234.901 7356.36 234.901C7366.09 246.351 7385.83 259.131 7400.23 263.305C7400.23 263.305 7440.69 275.027 7445.16 247.666C7447.29 234.357 7440.84 215.118 7424.34 191.236C7408.28 167.339 7373.04 127.077 7373.04 127.077C7363.15 115.779 7352.38 103.513 7349.11 99.8228L7346.32 96.4652C7372 129.225 7398.25 158.022 7415.01 182.252C7432.21 206.452 7439.9 226.083 7438.92 239.907C7436.96 268.13 7399.61 258.239 7399.61 258.239C7385.12 254.397 7365.21 241.949 7355.41 230.575C7355.41 230.575 7322 191.841 7313.05 145.787C7303.43 99.5354 7305.51 47.5519 7304.76 0.922582C7304.76 0.710837 7304.76 0.514165 7304.76 0.302419V0.362977C7304.76 0.544473 7304.76 0.725962 7304.76 0.922582C7303.99 47.567 7306.09 99.5506 7296.47 145.802C7287.52 191.872 7254.11 230.591 7254.11 230.591C7244.29 241.964 7224.4 254.412 7209.91 258.254C7209.91 258.254 7172.57 268.145 7170.6 239.923C7169.62 226.083 7177.31 206.467 7194.51 182.267C7211.27 158.038 7237.52 129.24 7263.2 96.4803L7260.41 99.8379C7257.14 103.513 7246.37 115.779 7236.48 127.093C7236.48 127.093 7201.24 167.369 7185.18 191.251C7168.68 215.118 7162.23 234.372 7164.36 247.682C7168.83 275.027 7209.29 263.32 7209.29 263.32C7223.69 259.146 7243.45 246.366 7253.16 234.916C7253.16 234.916 7287.72 194.201 7296.63 147.481C7306.15 100.761 7304.01 48.656 7304.76 2.01151C7304.34 48.5804 7305.69 100.534 7298.61 153.092C7291.43 205.862 7275.67 259.267 7239.75 304.46C7204.98 349.471 7149.06 386.193 7082.38 403.753L7072.88 406.354C7062.12 408.548 7043.95 408.472 7032.52 406.188L7022.43 403.435C6955.75 385.876 6899.83 349.168 6865.06 304.142C6829.14 258.949 6813.38 205.544 6806.2 152.774C6799.12 100.201 6800.47 48.2628 6800.05 1.69396C6800.81 48.3535 6798.66 100.443 6808.18 147.163C6817.09 193.883 6851.65 234.599 6851.65 234.599C6861.38 246.048 6881.12 258.828 6895.52 263.003C6895.52 263.003 6935.98 274.724 6940.46 247.364C6942.58 234.054 6936.13 214.816 6919.63 190.934C6903.57 167.037 6868.33 126.775 6868.33 126.775C6858.44 115.477 6847.67 103.211 6844.4 99.5204L6841.61 96.1626C6867.29 128.923 6893.54 157.72 6910.3 181.95C6927.5 206.149 6935.19 225.781 6934.21 239.605C6932.24 267.828 6894.9 257.936 6894.9 257.936C6880.41 254.094 6860.5 241.647 6850.7 230.273C6850.7 230.273 6817.29 191.539 6808.35 145.484C6798.72 99.233 6800.81 47.2495 6800.05 0.620163C6800.05 0.408418 6800.05 0.211745 6800.05 0V0.0605577C6800.05 0.242054 6800.05 0.423542 6800.05 0.620163C6799.28 47.2646 6801.38 99.248 6791.76 145.499C6782.82 191.569 6749.4 230.288 6749.4 230.288C6739.58 241.662 6719.69 254.11 6705.2 257.951C6705.2 257.951 6667.87 267.843 6665.89 239.62C6664.91 225.781 6672.6 206.164 6689.81 181.965C6706.56 157.735 6732.81 128.938 6758.49 96.1777L6755.7 99.5355C6752.43 103.211 6741.66 115.477 6731.77 126.79C6731.77 126.79 6696.53 167.067 6680.47 190.949C6663.97 214.816 6657.52 234.069 6659.65 247.379C6664.13 274.725 6704.58 263.018 6704.58 263.018C6718.98 258.844 6738.74 246.063 6748.45 234.614C6748.45 234.614 6783.01 193.898 6791.92 147.178C6801.44 100.458 6799.3 48.3536 6800.05 1.70909C6799.63 48.2779 6800.99 100.231 6793.9 152.789C6786.72 205.559 6770.96 258.964 6735.04 304.157C6700.27 349.168 6644.36 385.891 6577.68 403.45C6512.1 421.373 6412.44 402.906 6412.44 402.906C6397.69 400.168 6383.95 399.488 6381.91 401.393C6379.88 403.299 6386.71 410.257 6401.52 412.601C6401.52 412.601 6508.81 429.601 6576.15 410.362C6644.63 391.487 6700.98 353.479 6735.83 307.484C6771.79 261.294 6787.2 207.193 6794.19 153.939C6801.09 100.594 6799.6 48.1116 6800.05 1.22519V1.16463C6799.95 48.0057 6800.5 100.488 6796.7 157.493C6792.63 214.589 6784.2 276.222 6760.14 339.912C6712.94 466.021 6354.79 687.401 6354.79 687.401C6342.01 695.296 6332.73 703.025 6334.14 704.582C6335.56 706.14 6349.78 703.599 6362.42 695.508C6362.42 695.508 6716.69 468.94 6762.35 341.591C6785.47 277.417 6793.33 215.405 6797.08 158.068C6800.56 100.73 6800.19 28.4647 6800.19 28.4647C6800.11 13.4308 6800.05 1.33106 6800.05 1.6033V1.84516C6800.05 2.93414 6800.05 4.02317 6800.05 5.11214C6800.05 5.36926 6800.05 5.823 6800.05 6.24649C6800.05 6.42799 6800.05 6.62462 6800.05 6.82124C6800.05 7.04811 6800.05 7.15406 6800.05 7.09356V7.39598C6800.05 7.8951 6800.05 8.03116 6800.05 7.71354C6800.05 7.87991 6800.05 8.06137 6800.05 8.24287C6800.05 8.66636 6800.05 8.78751 6800.05 8.59089C6800.05 8.69676 6800.05 8.78742 6800.05 8.87817C6800.05 9.25629 6800.05 9.33195 6800.05 9.10508C6800.05 9.27145 6800.05 9.42275 6800.05 9.54375C6800.05 9.58913 6800.05 9.63443 6800.05 9.66468C6800.05 9.60418 6800.05 9.52854 6800.05 9.45292C6800.05 9.10505 6800.05 8.75727 6800.05 8.4094C6800.05 8.45478 6800.05 8.51524 6800.05 8.56061C6800.05 8.60599 6800.05 8.65131 6800.05 8.69668C6800.05 8.92355 6800.05 9.1655 6800.05 9.4075C6800.05 9.51337 6800.05 9.61935 6800.05 9.7101C6800.05 9.67985 6800.05 9.66465 6800.05 9.6344V9.90673C6800.05 9.77061 6800.05 9.61932 6800.05 9.48319V9.05966C6800.05 8.1673 6800.05 7.27493 6800.05 6.3977C6800.05 6.12546 6800.05 5.8382 6800.05 5.56596C6800.05 193.324 6791.86 817.307 6791.86 817.307C6791.67 832.341 6794.29 844.667 6797.71 844.667C6801.14 844.667 6809.93 832.325 6809.7 817.292C6809.7 817.292 6800.07 192.098 6800.05 4.34077V4.23498C6800.05 4.85509 6800.05 5.47517 6800.05 6.09528C6800.05 7.36576 6800.05 8.63627 6800.05 9.92187C6800.05 10.4361 6800.05 10.5873 6800.05 10.2546V10.0428C6800.05 10.1184 6800.05 10.1789 6800.05 10.194V9.7101C6800.05 9.92185 6800.05 9.86137 6800.05 9.54375V8.87817C6800.05 8.69667 6800.05 8.48488 6800.05 8.25801C6800.05 8.13701 6800.05 7.9859 6800.05 7.83466C6800.05 7.75903 6800.05 7.62287 6800.05 7.41112C6800.05 7.154 6800.05 6.85144 6800.05 6.57919C6800.05 6.3372 6800.05 6.08009 6800.05 5.8381C6800.05 4.29538 6800.05 2.73761 6800.05 1.17977C6800.14 48.1267 6799.54 100.776 6803.02 158.098C6806.78 215.436 6814.63 277.447 6837.75 341.621C6868.45 427.242 7025.84 580.833 7025.84 580.833C7036.59 591.329 7034.72 606 7021.69 613.441L6861.39 691.364C6847.6 697.262 6837.46 703.358 6838.88 704.915C6840.3 706.473 6855.39 705.566 6869.1 699.485L7029.18 618.811C7042.09 611.157 7063.23 611.157 7076.14 618.811L7235.74 699.183C7249.46 705.263 7261.87 708.969 7263.35 707.426C7264.83 705.883 7257.24 696.945 7243.45 691.046L7083.64 613.411C7070.61 605.97 7068.72 591.299 7079.47 580.802C7079.47 580.802 7236.43 427.423 7267.09 341.923C7290.21 277.749 7298.06 215.738 7301.82 158.401C7305.3 101.063 7304.93 28.7974 7304.93 28.7974C7304.85 13.7635 7304.79 1.66376 7304.79 1.936V2.17805C7304.79 3.26702 7304.79 4.35587 7304.79 5.44484C7304.79 5.70196 7304.79 6.1557 7304.79 6.57919C7304.79 6.76069 7304.79 6.95732 7304.79 7.15394C7304.79 7.38081 7304.79 7.48676 7304.79 7.42626V7.72868C7304.79 8.2278 7304.79 8.36404 7304.79 8.04642V8.57575C7304.79 8.99924 7304.79 9.12021 7304.79 8.92359C7304.79 9.02946 7304.79 9.12012 7304.79 9.21087C7304.79 9.58899 7304.79 9.66465 7304.79 9.43778C7304.79 9.60415 7304.79 9.75545 7304.79 9.87645C7304.79 9.92182 7304.79 9.96713 7304.79 9.99738C7304.79 9.93688 7304.79 9.86124 7304.79 9.78561C7304.79 9.43775 7304.79 9.08997 7304.79 8.7421C7304.79 8.78747 7304.79 8.84794 7304.79 8.89331C7304.79 8.93868 7304.79 8.98401 7304.79 9.02938C7304.79 9.25625 7304.79 9.49838 7304.79 9.74038C7304.79 9.84625 7304.79 9.95205 7304.79 10.0428C7304.79 10.0126 7304.79 9.99735 7304.79 9.9671V10.2697C7304.79 10.2697 7304.79 10.2394 7304.79 10.2243V9.36226C7304.79 8.46991 7304.79 7.57754 7304.79 6.70031C7304.79 6.42806 7304.79 6.14062 7304.79 5.86838C7304.79 193.626 7296.6 817.609 7296.6 817.609C7296.41 832.643 7299.03 844.97 7302.45 844.97C7305.88 844.97 7314.67 832.628 7314.44 817.594C7314.44 817.594 7304.8 192.401 7304.79 4.64338V4.5374C7304.79 5.15751 7304.79 5.77759 7304.79 6.3977C7304.79 7.66818 7304.79 8.93869 7304.79 10.2243C7304.79 10.7385 7304.79 10.8897 7304.79 10.557V10.3452C7304.79 10.4208 7304.79 10.4815 7304.79 10.4966C7304.79 10.4815 7304.79 10.4058 7304.79 10.2697C7304.79 10.2243 7304.79 10.194 7304.79 10.1486V10.0125C7304.79 10.2243 7304.79 10.1638 7304.79 9.84617V9.18077C7304.79 8.99928 7304.79 8.78748 7304.79 8.56061C7304.79 8.42449 7304.79 8.28832 7304.79 8.13708C7304.79 8.06145 7304.79 7.92529 7304.79 7.71354C7304.79 7.45642 7304.79 7.15404 7304.79 6.8818C7304.79 6.6398 7304.79 6.3827 7304.79 6.1407C7304.79 4.59799 7304.79 3.04003 7304.79 1.48219C7304.88 48.4291 7304.28 101.078 7307.76 158.401C7311.52 215.738 7319.37 277.749 7342.49 341.923C7373.42 428.179 7533.15 583.041 7533.15 583.041C7543.93 593.492 7542.08 608.102 7529.02 615.498L7372.1 691.379C7358.31 697.262 7348.16 703.342 7349.58 704.9C7350.99 706.458 7366.09 705.566 7379.81 699.501L7536.62 620.883C7549.56 613.275 7570.73 613.275 7583.67 620.883L7740.48 699.501C7754.2 705.566 7766.63 709.271 7768.09 707.728C7769.55 706.186 7761.98 697.262 7748.18 691.379L7591.27 615.498C7578.21 608.102 7576.35 593.492 7587.14 583.041C7587.14 583.041 7746.87 428.179 7777.8 341.923C7800.92 277.749 7808.77 215.738 7812.53 158.401C7816.01 101.063 7815.63 28.7974 7815.63 28.7974C7815.56 13.7635 7815.5 1.66376 7815.5 1.936V2.17805C7815.5 3.26702 7815.5 4.35587 7815.5 5.44484C7815.5 5.70196 7815.5 6.1557 7815.5 6.57919V7.15394C7815.5 7.38081 7815.5 7.48676 7815.5 7.42626V7.72868C7815.5 8.2278 7815.5 8.36404 7815.5 8.04642C7815.5 8.2128 7815.5 8.39426 7815.5 8.57575C7815.5 8.99924 7815.5 9.12021 7815.5 8.92359C7815.5 9.02946 7815.5 9.12012 7815.5 9.21087C7815.5 9.58899 7815.5 9.66465 7815.5 9.43778C7815.5 9.60415 7815.5 9.75545 7815.5 9.87645V9.99738C7815.5 9.99738 7815.5 9.86124 7815.5 9.78561C7815.5 9.43775 7815.5 9.08997 7815.5 8.7421V9.02938C7815.5 9.25625 7815.5 9.49838 7815.5 9.74038V10.0428C7815.5 10.0428 7815.5 9.99735 7815.5 9.9671V10.2394C7815.5 10.1033 7815.5 9.95201 7815.5 9.81589V9.39236C7815.5 8.5 7815.5 7.60763 7815.5 6.7304C7815.5 6.45816 7815.5 6.1709 7815.5 5.89866C7815.5 193.656 7807.31 817.639 7807.31 817.639C7807.12 832.673 7809.74 845 7813.16 845C7816.59 845 7825.38 832.658 7825.15 817.624C7825.15 817.624 7815.51 192.431 7815.5 4.67347C7815.5 4.64322 7815.5 4.59793 7815.5 4.56768C7815.5 5.18779 7815.5 5.80787 7815.5 6.42798C7815.5 7.69845 7815.5 8.96897 7815.5 10.2546C7815.5 10.7688 7815.5 10.92 7815.5 10.5873V10.3755C7815.5 10.4511 7815.5 10.5116 7815.5 10.5267V10.3C7815.5 10.3 7815.5 10.2242 7815.5 10.1789V10.0428C7815.5 10.2545 7815.5 10.1941 7815.5 9.87645V9.21087C7815.5 9.02937 7815.5 8.81776 7815.5 8.59089C7815.5 8.45477 7815.5 8.3186 7815.5 8.16736C7815.5 8.09173 7815.5 7.95557 7815.5 7.74382C7815.5 7.4867 7815.5 7.18432 7815.5 6.91207C7815.5 6.67008 7815.5 6.41279 7815.5 6.1708C7815.5 4.62808 7815.5 3.07031 7815.5 1.51247C7815.59 48.4594 7814.99 101.108 7818.47 158.431C7822.22 215.768 7830.08 277.78 7853.2 341.954C7898.86 469.288 8253.13 695.871 8253.13 695.871C8265.77 703.962 8277.32 709.316 8278.8 707.759C8280.28 706.201 8273.54 695.644 8260.78 687.749C8260.78 687.749 7902.63 466.369 7855.43 340.26L7855.37 340.199ZM6800.02 7.29019V7.22963C6800.02 7.33551 6800.02 7.45646 6800.02 7.56233C6800.02 7.47158 6800.02 7.39589 6800.02 7.30515V7.29019ZM7301.4 157.781C7297.33 214.876 7288.9 276.509 7264.83 340.199C7233.06 425.109 7072.51 576.295 7072.51 576.295C7061.57 586.595 7043.67 586.595 7032.74 576.295C7032.74 576.295 6871.75 424.882 6839.95 339.851C6815.88 276.161 6807.44 214.528 6803.38 157.433C6799.58 100.428 6800.13 47.9452 6800.04 1.10407C6800.04 1.1192 6800.04 1.1495 6800.04 1.16463C6800.49 48.0511 6799 100.534 6805.9 153.878C6812.88 207.117 6828.3 261.233 6864.26 307.424C6899.11 353.418 6955.46 391.426 7023.94 410.302L7027.46 411.315C7031.4 412.344 7022.37 413.402 7007.36 413.69L6916.84 404.464C6902.24 401.015 6888.63 399.76 6886.59 401.666C6884.56 403.572 6891.34 410.831 6906.09 413.554L7026 419.437C7040.95 418.273 7065.42 418.242 7080.38 419.346L7198.68 413.266C7213.42 410.529 7223.84 406.717 7221.84 404.812C7219.83 402.906 7202.51 400.713 7187.92 404.192L7099.11 413.493C7084.12 413.266 7074.56 412.359 7077.86 411.497L7080.83 410.65C7149.31 391.774 7205.66 353.766 7240.51 307.772C7276.47 261.581 7291.88 207.48 7298.86 154.226C7305.77 100.881 7304.28 48.3989 7304.73 1.51247V1.45191C7304.62 48.293 7305.18 100.776 7301.38 157.781H7301.4ZM7304.74 7.60775C7304.74 7.60775 7304.74 7.56232 7304.74 7.54719V7.87989C7304.74 7.78914 7304.74 7.71364 7304.74 7.62289V7.60775ZM7812.09 157.781C7808.02 214.876 7799.59 276.509 7775.52 340.199C7743.46 425.865 7580.05 578.534 7580.05 578.534C7569.07 588.788 7551.13 588.788 7540.15 578.534C7540.15 578.534 7376.73 425.865 7344.67 340.199C7320.61 276.509 7312.16 214.876 7308.11 157.781C7304.31 100.776 7304.85 48.293 7304.76 1.45191C7304.76 1.46703 7304.76 1.49734 7304.76 1.51247C7305.21 48.3989 7303.72 100.881 7310.63 154.226C7317.61 207.465 7333.02 261.581 7368.98 307.772C7403.83 353.766 7460.18 391.774 7528.66 410.65L7532.55 411.754C7536.89 412.873 7528.16 413.886 7513.17 414.007L7427.52 404.6C7412.94 401.076 7399.34 399.76 7397.3 401.666C7395.27 403.572 7402.04 410.877 7416.77 413.644L7532.9 419.982C7547.85 418.938 7572.33 418.938 7587.29 419.982L7703.41 413.644C7718.15 410.877 7728.57 407.035 7726.56 405.129C7724.56 403.224 7707.24 401.076 7692.66 404.6L7607.01 414.007C7592.02 413.886 7583.29 412.858 7587.63 411.754L7591.52 410.65C7660 391.774 7716.35 353.766 7751.2 307.772C7787.17 261.581 7802.58 207.48 7809.56 154.226C7816.46 100.881 7814.97 48.3989 7815.42 1.51247C7815.42 1.49734 7815.42 1.46703 7815.42 1.45191C7815.32 48.293 7815.88 100.776 7812.08 157.781H7812.09ZM7815.44 7.60775V7.54719C7815.44 7.65307 7815.44 7.77402 7815.44 7.87989C7815.44 7.78914 7815.44 7.71364 7815.44 7.62289V7.60775Z" fill="white"/>
<path d="M9437.37 340.199C9413.3 276.509 9404.86 214.876 9400.8 157.781C9397 100.776 9397.54 48.293 9397.45 1.45191C9397.45 1.46703 9397.45 1.49734 9397.45 1.51247C9397.91 48.3989 9396.41 100.881 9403.32 154.226C9410.3 207.465 9425.71 261.581 9461.68 307.772C9496.53 353.766 9552.88 391.774 9621.35 410.65C9688.7 429.888 9795.97 412.888 9795.97 412.888C9810.78 410.544 9821.26 407.065 9819.26 405.144C9817.25 403.224 9799.8 400.456 9785.06 403.178C9785.06 403.178 9685.4 421.661 9619.82 403.723C9553.13 386.163 9497.22 349.455 9462.45 304.429C9426.53 259.237 9410.77 205.831 9403.59 153.062C9396.5 100.488 9397.86 48.5503 9397.44 1.98142C9398.19 48.641 9396.05 100.73 9405.57 147.45C9414.48 194.17 9449.04 234.886 9449.04 234.886C9458.77 246.335 9478.51 259.116 9492.91 263.29C9492.91 263.29 9533.36 275.012 9537.84 247.651C9539.97 234.342 9533.52 215.103 9517.02 191.221C9500.96 167.324 9465.72 127.062 9465.72 127.062C9455.83 115.764 9445.06 103.498 9441.79 99.8076L9439 96.45C9464.68 129.21 9490.93 158.007 9507.68 182.237C9524.89 206.437 9532.58 226.068 9531.6 239.892C9529.63 268.115 9492.29 258.223 9492.29 258.223C9477.8 254.382 9457.89 241.934 9448.09 230.56C9448.09 230.56 9414.67 191.826 9405.73 145.772C9396.11 99.5203 9398.19 47.5368 9397.44 0.907443C9397.44 0.695698 9397.44 0.49921 9397.44 0.287465V0.907443C9396.67 47.5519 9398.77 99.5354 9389.15 145.787C9380.2 191.856 9346.79 230.575 9346.79 230.575C9336.97 241.949 9317.08 254.397 9302.59 258.239C9302.59 258.239 9265.25 268.13 9263.28 239.907C9262.3 226.068 9269.99 206.452 9287.19 182.252C9303.95 158.022 9330.2 129.225 9355.88 96.4652L9353.09 99.8228C9349.82 103.498 9339.05 115.764 9329.16 127.077C9329.16 127.077 9293.92 167.355 9277.86 191.236C9261.36 215.103 9254.91 234.357 9257.03 247.666C9261.51 275.012 9301.97 263.305 9301.97 263.305C9316.37 259.131 9336.13 246.351 9345.84 234.901C9345.84 234.901 9380.4 194.186 9389.31 147.465C9398.83 100.745 9396.69 48.641 9397.44 1.99656C9397.02 48.5654 9398.37 100.518 9391.29 153.077C9384.11 205.847 9368.35 259.252 9332.43 304.444C9297.66 349.455 9241.74 386.178 9175.06 403.738L9164.31 406.672C9152.1 409.047 9132.1 409.047 9119.89 406.672L9109.14 403.738C9042.45 386.178 8986.54 349.471 8951.77 304.444C8915.85 259.252 8900.09 205.847 8892.91 153.077C8885.82 100.503 8887.18 48.5654 8886.76 1.99656C8887.51 48.6561 8885.37 100.745 8894.89 147.465C8903.8 194.186 8938.36 234.901 8938.36 234.901C8948.09 246.351 8967.83 259.131 8982.23 263.305C8982.23 263.305 9022.69 275.027 9027.16 247.666C9029.29 234.357 9022.84 215.118 9006.34 191.236C8990.28 167.339 8955.04 127.077 8955.04 127.077C8945.15 115.779 8934.38 103.513 8931.11 99.8228L8928.32 96.4652C8954 129.225 8980.25 158.022 8997.01 182.252C9014.21 206.452 9021.9 226.083 9020.92 239.907C9018.96 268.13 8981.61 258.239 8981.61 258.239C8967.12 254.397 8947.21 241.949 8937.41 230.575C8937.41 230.575 8904 191.841 8895.05 145.787C8885.43 99.5354 8887.51 47.5519 8886.76 0.922582C8886.76 0.710837 8886.76 0.514165 8886.76 0.302419V0.362977C8886.76 0.544473 8886.76 0.725962 8886.76 0.922582C8885.99 47.567 8888.09 99.5506 8878.47 145.802C8869.52 191.872 8836.11 230.591 8836.11 230.591C8826.29 241.964 8806.4 254.412 8791.91 258.254C8791.91 258.254 8754.57 268.145 8752.6 239.923C8751.62 226.083 8759.31 206.467 8776.51 182.267C8793.27 158.038 8819.52 129.24 8845.2 96.4803L8842.41 99.8379C8839.14 103.513 8828.37 115.779 8818.48 127.093C8818.48 127.093 8783.24 167.369 8767.18 191.251C8750.68 215.118 8744.23 234.372 8746.36 247.682C8750.83 275.027 8791.29 263.32 8791.29 263.32C8805.69 259.146 8825.45 246.366 8835.16 234.916C8835.16 234.916 8869.72 194.201 8878.63 147.481C8888.15 100.761 8886.01 48.656 8886.76 2.01151C8886.34 48.5804 8887.69 100.534 8880.61 153.092C8873.43 205.862 8857.67 259.267 8821.75 304.46C8786.98 349.471 8731.06 386.193 8664.38 403.753L8654.88 406.354C8644.12 408.548 8625.95 408.472 8614.52 406.188L8604.43 403.435C8537.75 385.876 8481.83 349.168 8447.06 304.142C8411.14 258.949 8395.38 205.544 8388.2 152.774C8381.12 100.201 8382.47 48.2628 8382.05 1.69396C8382.81 48.3535 8380.66 100.443 8390.18 147.163C8399.09 193.883 8433.65 234.599 8433.65 234.599C8443.38 246.048 8463.12 258.828 8477.52 263.003C8477.52 263.003 8517.98 274.724 8522.46 247.364C8524.58 234.054 8518.13 214.816 8501.63 190.934C8485.57 167.037 8450.33 126.775 8450.33 126.775C8440.44 115.477 8429.67 103.211 8426.4 99.5204L8423.61 96.1626C8449.29 128.923 8475.54 157.72 8492.3 181.95C8509.5 206.149 8517.19 225.781 8516.21 239.605C8514.24 267.828 8476.9 257.936 8476.9 257.936C8462.41 254.094 8442.5 241.647 8432.7 230.273C8432.7 230.273 8399.29 191.539 8390.35 145.484C8380.72 99.233 8382.81 47.2495 8382.05 0.620163C8382.05 0.408418 8382.05 0.211745 8382.05 0V0.0605577C8382.05 0.242054 8382.05 0.423542 8382.05 0.620163C8381.28 47.2646 8383.38 99.248 8373.76 145.499C8364.82 191.569 8331.4 230.288 8331.4 230.288C8321.58 241.662 8301.69 254.11 8287.2 257.951C8287.2 257.951 8249.87 267.843 8247.89 239.62C8246.91 225.781 8254.6 206.164 8271.81 181.965C8288.56 157.735 8314.81 128.938 8340.49 96.1777L8337.7 99.5355C8334.43 103.211 8323.66 115.477 8313.77 126.79C8313.77 126.79 8278.53 167.067 8262.47 190.949C8245.97 214.816 8239.52 234.069 8241.65 247.379C8246.13 274.725 8286.58 263.018 8286.58 263.018C8300.98 258.844 8320.74 246.063 8330.45 234.614C8330.45 234.614 8365.01 193.898 8373.92 147.178C8383.44 100.458 8381.3 48.3536 8382.05 1.70909C8381.63 48.2779 8382.99 100.231 8375.9 152.789C8368.72 205.559 8352.96 258.964 8317.04 304.157C8282.27 349.168 8226.36 385.891 8159.68 403.45C8094.1 421.373 7994.44 402.906 7994.44 402.906C7979.69 400.168 7965.95 399.488 7963.91 401.393C7961.88 403.299 7968.71 410.257 7983.52 412.601C7983.52 412.601 8090.81 429.601 8158.15 410.362C8226.63 391.487 8282.98 353.479 8317.83 307.484C8353.79 261.294 8369.2 207.193 8376.19 153.939C8383.09 100.594 8381.6 48.1116 8382.05 1.22519V1.16463C8381.95 48.0057 8382.5 100.488 8378.7 157.493C8374.63 214.589 8366.2 276.222 8342.14 339.912C8294.94 466.021 7936.79 687.401 7936.79 687.401C7924.01 695.296 7914.73 703.025 7916.14 704.582C7917.56 706.14 7931.78 703.599 7944.42 695.508C7944.42 695.508 8298.69 468.94 8344.35 341.591C8367.47 277.417 8375.33 215.405 8379.08 158.068C8382.56 100.73 8382.19 28.4647 8382.19 28.4647C8382.11 13.4308 8382.05 1.33106 8382.05 1.6033V1.84516C8382.05 2.93414 8382.05 4.02317 8382.05 5.11214C8382.05 5.36926 8382.05 5.823 8382.05 6.24649C8382.05 6.42799 8382.05 6.62462 8382.05 6.82124C8382.05 7.04811 8382.05 7.15406 8382.05 7.09356V7.39598C8382.05 7.8951 8382.05 8.03116 8382.05 7.71354C8382.05 7.87991 8382.05 8.06137 8382.05 8.24287C8382.05 8.66636 8382.05 8.78751 8382.05 8.59089C8382.05 8.69676 8382.05 8.78742 8382.05 8.87817C8382.05 9.25629 8382.05 9.33195 8382.05 9.10508C8382.05 9.27145 8382.05 9.42275 8382.05 9.54375C8382.05 9.58913 8382.05 9.63443 8382.05 9.66468C8382.05 9.60418 8382.05 9.52854 8382.05 9.45292C8382.05 9.10505 8382.05 8.75727 8382.05 8.4094C8382.05 8.45478 8382.05 8.51524 8382.05 8.56061C8382.05 8.60599 8382.05 8.65131 8382.05 8.69668C8382.05 8.92355 8382.05 9.1655 8382.05 9.4075C8382.05 9.51337 8382.05 9.61935 8382.05 9.7101C8382.05 9.67985 8382.05 9.66465 8382.05 9.6344V9.90673C8382.05 9.77061 8382.05 9.61932 8382.05 9.48319V9.05966C8382.05 8.1673 8382.05 7.27493 8382.05 6.3977C8382.05 6.12546 8382.05 5.8382 8382.05 5.56596C8382.05 193.324 8373.86 817.307 8373.86 817.307C8373.67 832.341 8376.29 844.667 8379.71 844.667C8383.14 844.667 8391.93 832.325 8391.7 817.292C8391.7 817.292 8382.07 192.098 8382.05 4.34077V4.23498C8382.05 4.85509 8382.05 5.47517 8382.05 6.09528C8382.05 7.36576 8382.05 8.63627 8382.05 9.92187C8382.05 10.4361 8382.05 10.5873 8382.05 10.2546V10.0428C8382.05 10.1184 8382.05 10.1789 8382.05 10.194V9.7101C8382.05 9.92185 8382.05 9.86137 8382.05 9.54375V8.87817C8382.05 8.69667 8382.05 8.48488 8382.05 8.25801C8382.05 8.13701 8382.05 7.9859 8382.05 7.83466C8382.05 7.75903 8382.05 7.62287 8382.05 7.41112C8382.05 7.154 8382.05 6.85144 8382.05 6.57919C8382.05 6.3372 8382.05 6.08009 8382.05 5.8381C8382.05 4.29538 8382.05 2.73761 8382.05 1.17977C8382.14 48.1267 8381.54 100.776 8385.02 158.098C8388.78 215.436 8396.63 277.447 8419.75 341.621C8450.45 427.242 8607.84 580.833 8607.84 580.833C8618.59 591.329 8616.72 606 8603.69 613.441L8443.39 691.364C8429.6 697.262 8419.46 703.358 8420.88 704.915C8422.3 706.473 8437.39 705.566 8451.1 699.485L8611.18 618.811C8624.09 611.157 8645.23 611.157 8658.14 618.811L8817.74 699.183C8831.46 705.263 8843.87 708.969 8845.35 707.426C8846.83 705.883 8839.24 696.945 8825.45 691.046L8665.64 613.411C8652.61 605.97 8650.72 591.299 8661.47 580.802C8661.47 580.802 8818.43 427.423 8849.09 341.923C8872.21 277.749 8880.06 215.738 8883.82 158.401C8887.3 101.063 8886.93 28.7974 8886.93 28.7974C8886.85 13.7635 8886.79 1.66376 8886.79 1.936V2.17805C8886.79 3.26702 8886.79 4.35587 8886.79 5.44484C8886.79 5.70196 8886.79 6.1557 8886.79 6.57919C8886.79 6.76069 8886.79 6.95732 8886.79 7.15394C8886.79 7.38081 8886.79 7.48676 8886.79 7.42626V7.72868C8886.79 8.2278 8886.79 8.36404 8886.79 8.04642V8.57575C8886.79 8.99924 8886.79 9.12021 8886.79 8.92359C8886.79 9.02946 8886.79 9.12012 8886.79 9.21087C8886.79 9.58899 8886.79 9.66465 8886.79 9.43778C8886.79 9.60415 8886.79 9.75545 8886.79 9.87645C8886.79 9.92182 8886.79 9.96713 8886.79 9.99738C8886.79 9.93688 8886.79 9.86124 8886.79 9.78561C8886.79 9.43775 8886.79 9.08997 8886.79 8.7421C8886.79 8.78747 8886.79 8.84794 8886.79 8.89331C8886.79 8.93868 8886.79 8.98401 8886.79 9.02938C8886.79 9.25625 8886.79 9.49838 8886.79 9.74038C8886.79 9.84625 8886.79 9.95205 8886.79 10.0428C8886.79 10.0126 8886.79 9.99735 8886.79 9.9671V10.2697C8886.79 10.2697 8886.79 10.2394 8886.79 10.2243V9.36226C8886.79 8.46991 8886.79 7.57754 8886.79 6.70031C8886.79 6.42806 8886.79 6.14062 8886.79 5.86838C8886.79 193.626 8878.6 817.609 8878.6 817.609C8878.41 832.643 8881.03 844.97 8884.45 844.97C8887.88 844.97 8896.67 832.628 8896.44 817.594C8896.44 817.594 8886.8 192.401 8886.79 4.64338V4.5374C8886.79 5.15751 8886.79 5.77759 8886.79 6.3977C8886.79 7.66818 8886.79 8.93869 8886.79 10.2243C8886.79 10.7385 8886.79 10.8897 8886.79 10.557V10.3452C8886.79 10.4208 8886.79 10.4815 8886.79 10.4966C8886.79 10.4815 8886.79 10.4058 8886.79 10.2697C8886.79 10.2243 8886.79 10.194 8886.79 10.1486V10.0125C8886.79 10.2243 8886.79 10.1638 8886.79 9.84617V9.18077C8886.79 8.99928 8886.79 8.78748 8886.79 8.56061C8886.79 8.42449 8886.79 8.28832 8886.79 8.13708C8886.79 8.06145 8886.79 7.92529 8886.79 7.71354C8886.79 7.45642 8886.79 7.15404 8886.79 6.8818C8886.79 6.6398 8886.79 6.3827 8886.79 6.1407C8886.79 4.59799 8886.79 3.04003 8886.79 1.48219C8886.88 48.4291 8886.28 101.078 8889.76 158.401C8893.52 215.738 8901.37 277.749 8924.49 341.923C8955.42 428.179 9115.15 583.041 9115.15 583.041C9125.93 593.492 9124.08 608.102 9111.02 615.498L8954.1 691.379C8940.31 697.262 8930.16 703.342 8931.58 704.9C8932.99 706.458 8948.09 705.566 8961.81 699.501L9118.62 620.883C9131.56 613.275 9152.73 613.275 9165.67 620.883L9322.48 699.501C9336.2 705.566 9348.63 709.271 9350.09 707.728C9351.55 706.186 9343.98 697.262 9330.18 691.379L9173.27 615.498C9160.21 608.102 9158.35 593.492 9169.14 583.041C9169.14 583.041 9328.87 428.179 9359.8 341.923C9382.92 277.749 9390.77 215.738 9394.53 158.401C9398.01 101.063 9397.63 28.7974 9397.63 28.7974C9397.56 13.7635 9397.5 1.66376 9397.5 1.936V2.17805C9397.5 3.26702 9397.5 4.35587 9397.5 5.44484C9397.5 5.70196 9397.5 6.1557 9397.5 6.57919V7.15394C9397.5 7.38081 9397.5 7.48676 9397.5 7.42626V7.72868C9397.5 8.2278 9397.5 8.36404 9397.5 8.04642C9397.5 8.2128 9397.5 8.39426 9397.5 8.57575C9397.5 8.99924 9397.5 9.12021 9397.5 8.92359C9397.5 9.02946 9397.5 9.12012 9397.5 9.21087C9397.5 9.58899 9397.5 9.66465 9397.5 9.43778C9397.5 9.60415 9397.5 9.75545 9397.5 9.87645V9.99738C9397.5 9.99738 9397.5 9.86124 9397.5 9.78561C9397.5 9.43775 9397.5 9.08997 9397.5 8.7421V9.02938C9397.5 9.25625 9397.5 9.49838 9397.5 9.74038V10.0428C9397.5 10.0428 9397.5 9.99735 9397.5 9.9671V10.2394C9397.5 10.1033 9397.5 9.95201 9397.5 9.81589V9.39236C9397.5 8.5 9397.5 7.60763 9397.5 6.7304C9397.5 6.45816 9397.5 6.1709 9397.5 5.89866C9397.5 193.656 9389.31 817.639 9389.31 817.639C9389.12 832.673 9391.74 845 9395.16 845C9398.59 845 9407.38 832.658 9407.15 817.624C9407.15 817.624 9397.51 192.431 9397.5 4.67347C9397.5 4.64322 9397.5 4.59793 9397.5 4.56768C9397.5 5.18779 9397.5 5.80787 9397.5 6.42798C9397.5 7.69845 9397.5 8.96897 9397.5 10.2546C9397.5 10.7688 9397.5 10.92 9397.5 10.5873V10.3755C9397.5 10.4511 9397.5 10.5116 9397.5 10.5267V10.3C9397.5 10.3 9397.5 10.2242 9397.5 10.1789V10.0428C9397.5 10.2545 9397.5 10.1941 9397.5 9.87645V9.21087C9397.5 9.02937 9397.5 8.81776 9397.5 8.59089C9397.5 8.45477 9397.5 8.3186 9397.5 8.16736C9397.5 8.09173 9397.5 7.95557 9397.5 7.74382C9397.5 7.4867 9397.5 7.18432 9397.5 6.91207C9397.5 6.67008 9397.5 6.41279 9397.5 6.1708C9397.5 4.62808 9397.5 3.07031 9397.5 1.51247C9397.59 48.4594 9396.99 101.108 9400.47 158.431C9404.22 215.768 9412.08 277.78 9435.2 341.954C9480.86 469.288 9835.13 695.871 9835.13 695.871C9847.77 703.962 9859.32 709.316 9860.8 707.759C9862.28 706.201 9855.54 695.644 9842.78 687.749C9842.78 687.749 9484.63 466.369 9437.43 340.26L9437.37 340.199ZM8382.02 7.29019V7.22963C8382.02 7.33551 8382.02 7.45646 8382.02 7.56233C8382.02 7.47158 8382.02 7.39589 8382.02 7.30515V7.29019ZM8883.4 157.781C8879.33 214.876 8870.9 276.509 8846.83 340.199C8815.06 425.109 8654.51 576.295 8654.51 576.295C8643.57 586.595 8625.67 586.595 8614.74 576.295C8614.74 576.295 8453.75 424.882 8421.95 339.851C8397.88 276.161 8389.44 214.528 8385.38 157.433C8381.58 100.428 8382.13 47.9452 8382.04 1.10407C8382.04 1.1192 8382.04 1.1495 8382.04 1.16463C8382.49 48.0511 8381 100.534 8387.9 153.878C8394.88 207.117 8410.3 261.233 8446.26 307.424C8481.11 353.418 8537.46 391.426 8605.94 410.302L8609.46 411.315C8613.4 412.344 8604.37 413.402 8589.36 413.69L8498.84 404.464C8484.24 401.015 8470.63 399.76 8468.59 401.666C8466.56 403.572 8473.34 410.831 8488.09 413.554L8608 419.437C8622.95 418.273 8647.42 418.242 8662.38 419.346L8780.68 413.266C8795.42 410.529 8805.84 406.717 8803.84 404.812C8801.83 402.906 8784.51 400.713 8769.92 404.192L8681.11 413.493C8666.12 413.266 8656.56 412.359 8659.86 411.497L8662.83 410.65C8731.31 391.774 8787.66 353.766 8822.51 307.772C8858.47 261.581 8873.88 207.48 8880.86 154.226C8887.77 100.881 8886.28 48.3989 8886.73 1.51247V1.45191C8886.62 48.293 8887.18 100.776 8883.38 157.781H8883.4ZM8886.74 7.60775C8886.74 7.60775 8886.74 7.56232 8886.74 7.54719V7.87989C8886.74 7.78914 8886.74 7.71364 8886.74 7.62289V7.60775ZM9394.09 157.781C9390.02 214.876 9381.59 276.509 9357.52 340.199C9325.46 425.865 9162.05 578.534 9162.05 578.534C9151.07 588.788 9133.13 588.788 9122.15 578.534C9122.15 578.534 8958.73 425.865 8926.67 340.199C8902.61 276.509 8894.16 214.876 8890.11 157.781C8886.31 100.776 8886.85 48.293 8886.76 1.45191C8886.76 1.46703 8886.76 1.49734 8886.76 1.51247C8887.21 48.3989 8885.72 100.881 8892.63 154.226C8899.61 207.465 8915.02 261.581 8950.98 307.772C8985.83 353.766 9042.18 391.774 9110.66 410.65L9114.55 411.754C9118.89 412.873 9110.16 413.886 9095.17 414.007L9009.52 404.6C8994.94 401.076 8981.34 399.76 8979.3 401.666C8977.27 403.572 8984.04 410.877 8998.77 413.644L9114.9 419.982C9129.85 418.938 9154.33 418.938 9169.29 419.982L9285.41 413.644C9300.15 410.877 9310.57 407.035 9308.56 405.129C9306.56 403.224 9289.24 401.076 9274.66 404.6L9189.01 414.007C9174.02 413.886 9165.29 412.858 9169.63 411.754L9173.52 410.65C9242 391.774 9298.35 353.766 9333.2 307.772C9369.17 261.581 9384.58 207.48 9391.56 154.226C9398.46 100.881 9396.97 48.3989 9397.42 1.51247C9397.42 1.49734 9397.42 1.46703 9397.42 1.45191C9397.32 48.293 9397.88 100.776 9394.08 157.781H9394.09ZM9397.44 7.60775V7.54719C9397.44 7.65307 9397.44 7.77402 9397.44 7.87989C9397.44 7.78914 9397.44 7.71364 9397.44 7.62289V7.60775Z" fill="white"/>
</svg>
